<?xml version="1.0" standalone="no"?>
<!DOCTYPE svg PUBLIC "-//W3C//DTD SVG 1.1//EN" "http://www.w3.org/Graphics/SVG/1.1/DTD/svg11.dtd" >
<svg xmlns="http://www.w3.org/2000/svg" xmlns:xlink="http://www.w3.org/1999/xlink" version="1.1">
<metadata></metadata>
<defs>
<font id="showcaseslab_italic" horiz-adv-x="1005" >
<font-face units-per-em="2048" ascent="1536" descent="-512" />
<missing-glyph horiz-adv-x="471" />
<glyph horiz-adv-x="0" />
<glyph horiz-adv-x="682" />
<glyph unicode=" "  horiz-adv-x="471" />
<glyph unicode="&#x09;" horiz-adv-x="471" />
<glyph unicode="&#xa0;" horiz-adv-x="471" />
<glyph unicode="!" horiz-adv-x="411" d="M137 55q0 36 27 62t63 26q29 0 50.5 -22t21.5 -53q0 -34 -28 -60t-60 -26q-29 0 -51.5 21.5t-22.5 51.5zM217 350v49q0 106 3 201t8.5 163.5t11.5 125t12 94t11 62.5t9 39.5t4 15.5q4 45 50 45q38 0 34 -43q-23 -148 -41 -330l-38 -422q-3 -34 -14 -41q-8 -6 -23 -6 q-31 0 -27 47z" />
<glyph unicode="&#x22;" horiz-adv-x="514" d="M233 1219q0 20 9.5 119.5t13.5 123.5t12 35.5t31 11.5q15 0 17.5 -13t0.5 -77q-2 -86 -2 -155v-41q-6 -43 -47 -43q-35 0 -35 39zM461 1219q0 20 9.5 120t12.5 123q4 24 12 35.5t31 11.5q15 0 17.5 -14.5t1.5 -81.5q-2 -83 -2 -149v-41q-6 -43 -47 -43q-35 0 -35 39z" />
<glyph unicode="#" horiz-adv-x="1026" d="M86 262q0 16 15 27.5t46 11.5q62 -2 134 -2l88 244h-84q-80 0 -80 41q0 16 14 27.5t45 11.5q61 -2 133 -2l56 151q17 47 53 47q14 0 22.5 -8t10.5 -16t2 -15q0 -13 -9 -37l-45 -122h295l56 151q17 47 53 47q14 0 22.5 -8t10.5 -16t2 -15q0 -16 -8 -37l-46 -122l105 4 q27 0 40 -9.5t13 -23.5q0 -47 -92 -47q-11 0 -43 -1t-53 -1l-88 -244l104 4q53 0 53 -33q0 -47 -90 -47q-11 0 -43 -1t-53 -1l-70 -192q-17 -47 -51 -47q-37 0 -37 38q0 16 8 37l60 164h-295l-70 -192q-17 -47 -51 -47q-20 0 -28.5 13t-8.5 25q0 16 8 37l60 164h-82 q-82 0 -82 41zM369 299h297l88 244h-297z" />
<glyph unicode="$" horiz-adv-x="894" d="M92 35l31 297q1 20 14.5 32.5t32.5 12.5q25 0 33.5 -21t15 -61t21.5 -66q47 -80 115 -123t147 -43q115 0 187.5 55t72.5 165q0 38 -13.5 68t-32 49t-53.5 37.5t-60.5 28t-72.5 25.5t-71 25q-113 44 -145 63q-99 58 -113 164q-2 20 -2 41q0 130 85.5 215t219.5 103 q4 36 9 72t7 53t2 20q2 21 13.5 33t31.5 12q15 0 26 -11.5t11 -29.5q0 -3 -18 -147q154 -12 207 -152l12 107q3 47 41 47q45 0 41 -43l-27 -244q-2 -20 -14 -32.5t-31 -12.5q-25 0 -35 15t-18 48t-21 54q-79 133 -190 133q-116 0 -192 -62t-76 -163q0 -36 12 -65t29.5 -48 t49 -37.5t56 -29t66.5 -25.5q18 -7 51.5 -18.5t52 -18t48 -18t47 -20.5t41.5 -23.5t37.5 -28t29.5 -32.5t24 -39.5t13.5 -46.5t5.5 -56q0 -153 -99.5 -232t-254.5 -79q-4 0 -12 1t-11 1l-12 -127q-1 -20 -14 -32.5t-31 -12.5q-37 0 -37 38q0 3 1.5 19.5t5.5 52t7 72.5 q-77 20 -123.5 65.5t-77.5 108.5l-14 -129q-3 -47 -41 -47q-45 0 -41 43z" />
<glyph unicode="%" horiz-adv-x="983" d="M141 772q0 68 12 126t37 105.5t68.5 75t101.5 27.5q84 0 124 -61t40 -164q0 -88 -22.5 -162t-74.5 -124t-126 -50q-82 0 -121 61t-39 166zM223 770q0 -143 88 -143q131 0 131 260q0 69 -20.5 103t-69.5 34q-65 0 -97 -61t-32 -193zM256 -82q0 9 12 41l430 1157 q17 45 52 45q19 0 28.5 -12t9.5 -25q0 -4 -10 -39l-432 -1157q-16 -47 -55 -47q-17 0 -26 11.5t-9 25.5zM578 209q0 68 12 126t37 105.5t68.5 75t101.5 27.5q84 0 124 -61.5t40 -164.5q0 -89 -22 -162t-74.5 -123t-127.5 -50q-82 0 -120.5 61t-38.5 166zM659 207 q0 -144 89 -144q131 0 131 261q0 69 -21 103t-70 34q-65 0 -97 -61t-32 -193z" />
<glyph unicode="&#x26;" horiz-adv-x="919" d="M117 246q0 66 19 120t58 98t80 75.5t103 70.5q-23 47 -34.5 73t-25.5 76.5t-14 94.5q0 99 65 175.5t179 76.5q85 0 138.5 -58.5t53.5 -148.5q0 -93 -67 -169.5t-193 -145.5q9 -18 46 -96t70.5 -145.5t63.5 -123.5q57 99 76 279q5 37 62 37h80q53 0 53 -35 q0 -23 -17.5 -34t-62.5 -11h-47q-23 -178 -105 -301q23 -39 56 -76h45q49 0 49 -31q0 -15 -3 -23t-21.5 -16t-53.5 -8h-33q-26 0 -55 29q-15 15 -43 55q-103 -100 -260 -100q-112 0 -187 76.5t-75 185.5zM199 254q0 -78 53.5 -133t134.5 -55q136 0 215 79q-35 59 -72 136 t-74.5 161.5t-47.5 104.5q-100 -67 -154.5 -134.5t-54.5 -158.5zM385 860q0 -78 61 -211q102 61 155.5 119.5t53.5 122.5q0 58 -33 95.5t-85 37.5q-71 0 -111.5 -49.5t-40.5 -114.5z" />
<glyph unicode="'" horiz-adv-x="286" d="M233 1219q0 20 9.5 119.5t13.5 123.5t12 35.5t31 11.5q15 0 17.5 -13t0.5 -77q-2 -86 -2 -155v-41q-6 -43 -47 -43q-35 0 -35 39z" />
<glyph unicode="(" horiz-adv-x="579" d="M125 389q0 124 26 233.5t67 186t93 140t103.5 102t99 65t78.5 37t43 10.5q24 0 24 -20q0 -11 -5 -20t-10 -13.5t-19 -15.5q-12 -9 -47 -32t-62.5 -41.5t-68 -53.5t-71 -70t-64 -88.5t-55.5 -112t-36 -138t-14 -167.5q0 -58 7 -110.5t16.5 -92t28.5 -77.5t32.5 -62.5 t39.5 -51.5t39.5 -40t42 -32.5t37.5 -25t35 -20.5q37 -21 37 -51q0 -35 -30 -35q-16 0 -54 16.5t-93 60.5t-103 107.5t-82.5 172t-34.5 239.5z" />
<glyph unicode=")" horiz-adv-x="579" d="M23 -180q0 39 47 59q38 17 61 28.5t70.5 42t79 62.5t71.5 87.5t64.5 118.5t41.5 153.5t17 195.5q0 90 -17 166t-40.5 124t-60 91.5t-63 64.5t-62.5 46.5t-46 34.5q-24 21 -24 41q0 28 28 28q10 0 33 -8.5t57.5 -29t71 -51t73.5 -79.5t66.5 -108t47.5 -143t18 -179 q0 -125 -26 -234.5t-66.5 -186t-92.5 -139t-103 -101t-98 -64.5t-77.5 -36.5t-42.5 -10.5q-14 0 -21 9t-7 18z" />
<glyph unicode="*" horiz-adv-x="661" d="M188 1014q0 21 29 39l154 90q-123 84 -125 86q-31 23 -31 39q0 17 11 32t30 15q7 0 39 -19q65 -45 123 -79l18 165q4 48 43 48q44 0 37 -58l-16 -155q12 7 137 79q32 19 43 19q16 0 24.5 -11.5t8.5 -27.5q0 -23 -39 -47l-144 -86l136 -90q20 -13 20 -35q0 -15 -15 -29 t-30 -14q-12 0 -29 10l-127 84l-16 -160q-3 -23 -16.5 -35t-32.5 -12q-35 0 -35 39q0 36 3 67.5t7.5 60t5.5 40.5l-147 -84q-17 -10 -29 -10q-14 0 -25.5 12t-11.5 27z" />
<glyph unicode="+" horiz-adv-x="925" d="M133 745q0 16 15.5 27.5t46.5 11.5q116 -2 309 -2q13 104 35 316q3 47 43 47q25 0 32 -14.5t4 -43.5l-32 -305l309 4q53 0 53 -32q0 -47 -90 -47q-5 0 -111.5 -3.5t-166.5 -3.5l-33 -303q-1 -23 -14.5 -35t-32.5 -12q-35 0 -35 39q0 21 31 311q-53 0 -150.5 2.5 t-130.5 2.5q-82 0 -82 40z" />
<glyph unicode="," horiz-adv-x="415" d="M90 -133q0 10 6 21t12 17t16.5 15.5t12.5 11.5l49 52q-33 8 -55 33.5t-22 62.5q0 50 36 83.5t84 33.5q39 0 67 -30t28 -75q0 -77 -123 -207q-48 -55 -76 -55q-14 0 -24.5 9t-10.5 28z" />
<glyph unicode="-" horiz-adv-x="784" d="M178 500q0 16 15.5 27.5t46.5 11.5q126 -9 237 -9l178 2q27 0 40.5 -9.5t13.5 -22.5q0 -47 -93 -47h-147q-56 0 -124.5 3t-84.5 3q-82 0 -82 41z" />
<glyph unicode="." horiz-adv-x="413" d="M109 80q0 50 36 83.5t84 33.5q38 0 67.5 -30.5t29.5 -70.5q0 -47 -38 -80.5t-81 -33.5q-38 0 -68 28.5t-30 69.5z" />
<glyph unicode="/" horiz-adv-x="593" d="M43 -219q0 10 10 37l520 1439q17 48 52 48q21 0 29 -13t8 -26q0 -8 -11 -37l-520 -1440q-17 -47 -51 -47q-21 0 -29 13t-8 26z" />
<glyph unicode="0" horiz-adv-x="929" d="M143 442q0 174 56 325.5t158 245t225 93.5q99 0 173 -69t110 -178.5t36 -240.5q0 -295 -120 -465.5t-320 -170.5q-151 0 -234.5 121.5t-83.5 338.5zM225 444q0 -185 64.5 -283t185.5 -98q164 0 254 145.5t90 409.5q0 173 -65 289.5t-181 116.5q-100 0 -181 -82t-124 -214 t-43 -284z" />
<glyph unicode="1" horiz-adv-x="638" d="M78 39q0 41 61 41q99 -2 191 -2q7 99 41 409q28 260 39 375l10 101q3 18 -2 18q-2 0 -21 -14q-12 -8 -39 -28.5t-62 -47t-52 -39.5q-21 -16 -41 -16q-17 0 -28 10.5t-11 25.5q0 19 18.5 36.5t68.5 50t73 49.5q1 1 29 23.5t41.5 32t38.5 21t44 11.5q39 0 39 -45 q0 -15 -3 -29.5t-10 -55t-14 -102.5q-10 -98 -41 -425.5t-34 -360.5h151q53 0 53 -33q0 -23 -17 -34t-62 -11q-35 2 -66 2q-13 0 -148 -1t-165 -1q-82 0 -82 39z" />
<glyph unicode="2" horiz-adv-x="843" d="M84 55q0 69 22.5 128.5t60.5 103t87 81.5t103.5 69.5t108.5 62t103 64t87 70t60.5 85t22.5 104.5q0 98 -61 149.5t-162 51.5q-58 0 -105.5 -22.5t-76 -57.5t-45.5 -72.5t-21 -72.5q-2 -18 -14 -30.5t-33 -12.5q-35 0 -35 37q0 50 23.5 103.5t65 101t108 78t143.5 30.5 q150 0 222.5 -72t72.5 -198q0 -72 -26 -133t-68.5 -103.5t-98 -83t-113.5 -71t-115.5 -67.5t-104.5 -72.5t-80 -86t-41 -108.5l-4 -29q0 -6 4 -7t19 -1q11 0 43.5 1t93 2t137.5 1q123 0 217 -4l8 86q2 22 13 34.5t30 12.5q43 0 39 -43l-14 -137q-6 -35 -55 -35 q-169 4 -263 4l-270 -4q-49 0 -68.5 16t-19.5 47z" />
<glyph unicode="3" horiz-adv-x="811" d="M88 162q0 21 11.5 33t29.5 12q25 0 47 -25q3 -3 18.5 -21t19 -21t17.5 -17.5t20.5 -18t21 -13.5t25.5 -12.5t28 -7.5t35.5 -6.5t39.5 -1.5q118 0 194.5 80.5t76.5 186.5q0 97 -65.5 153t-174.5 56q-26 0 -40.5 11.5t-14.5 27.5q0 21 19.5 32t43.5 11h19q237 0 237 227 q0 79 -51 127.5t-133 48.5q-106 0 -166 -55.5t-67 -120.5q-2 -18 -14.5 -30.5t-33.5 -12.5q-34 0 -34 37q0 97 89 180.5t234 83.5q123 0 190.5 -72.5t67.5 -179.5q0 -183 -166 -266q72 -34 107 -99.5t35 -148.5q0 -149 -99 -253.5t-262 -104.5q-175 0 -276 120 q-29 36 -29 60z" />
<glyph unicode="4" horiz-adv-x="794" d="M80 399q0 10 3 20.5t6 16t11.5 19.5t12.5 20q6 11 73.5 95.5t131.5 163.5l65 79l207 246q33 37 67 37q22 0 30.5 -11t8.5 -34q0 -12 -1.5 -24.5t-4.5 -26.5t-8 -50.5t-10 -85.5q-8 -69 -43 -440q47 2 88 2q35 0 35 -35q0 -21 -12.5 -34t-30.5 -13h-88l-27 -266h82 q55 0 55 -33q0 -23 -18.5 -34t-63.5 -11q-34 2 -65 2q-12 0 -72 -1t-90 -1q-82 0 -82 39q0 41 61 41q58 -2 109 -2q3 43 13.5 139t13.5 125q-304 -4 -387 -4q-70 0 -70 61zM172 428q0 -6 10 -6q66 -2 363 2l57 541l-153 -197q-18 -23 -126.5 -156.5t-136.5 -165.5 q-14 -14 -14 -18z" />
<glyph unicode="5" horiz-adv-x="821" d="M102 162q0 21 11.5 33t29.5 12q25 0 47 -25q52 -59 71 -73q58 -46 155 -46q114 0 198 82.5t84 214.5q0 118 -63.5 188t-169.5 70q-65 0 -114 -17t-77.5 -33.5t-44.5 -16.5q-42 0 -39 45l27 244q12 122 12 188q3 35 26.5 51.5t78.5 16.5q156 -4 203 -4l208 4 q27 0 38.5 -10t9.5 -29l-15 -133q-4 -43 -49 -43q-36 0 -33 47l9 84q-33 -2 -162 -2q-60 0 -100.5 0.5t-54.5 1.5t-26 1.5t-22 0.5q-12 0 -22 -9t-11 -22q-2 -18 -4.5 -63t-5.5 -78l-14 -150q-3 -33 8 -33q6 0 29 8.5t63 16.5t88 8q158 0 234.5 -88t76.5 -231 q0 -167 -104 -279t-270 -112q-176 0 -277 120q-29 36 -29 60z" />
<glyph unicode="6" horiz-adv-x="880" d="M141 418q0 333 117.5 510.5t345.5 177.5q111 0 174.5 -74.5t63.5 -169.5q0 -61 -45 -61q-37 0 -37 57q0 63 -42 114.5t-126 51.5q-143 0 -233.5 -116t-122.5 -349q113 137 307 137q97 0 164.5 -45.5t97 -113t29.5 -148.5q0 -177 -101 -292t-276 -115q-47 0 -90.5 13 t-85.5 45t-72.5 80.5t-49 125t-18.5 172.5zM223 430q-3 -82 10 -147t36.5 -105.5t56.5 -67t67 -37t72 -10.5q137 0 212 84.5t75 233.5q0 95 -56 164t-164 69q-130 0 -209 -57.5t-100 -126.5z" />
<glyph unicode="7" horiz-adv-x="737" d="M139 920l15 137q3 39 55 39q162 -4 256 -4l260 4q84 0 84 -60q0 -61 -23.5 -122t-61 -116t-83 -113.5t-91.5 -126t-84 -140.5t-62.5 -168.5t-26.5 -200.5q0 -34 -12.5 -45.5t-36.5 -11.5q-35 0 -35 45q0 107 23.5 207.5t61 177.5t83 147t91 127t83 106t61 95.5t23.5 85.5 q0 29 -27 29q-88 -2 -252 -2q-43 0 -117.5 1t-91.5 1l-10 -88q-3 -47 -41 -47q-45 0 -41 43z" />
<glyph unicode="8" horiz-adv-x="874" d="M117 260q0 235 209 313q-115 70 -115 203q0 82 28.5 147t76.5 104t107.5 59t125.5 20q117 0 199.5 -69t82.5 -201q0 -179 -169 -265q70 -26 113.5 -84.5t43.5 -154.5q0 -87 -33 -156t-88.5 -110.5t-124 -62.5t-143.5 -21q-66 0 -121 16t-99 48.5t-68.5 87t-24.5 126.5z M199 272q0 -103 67.5 -156t171.5 -53q55 0 107 16t95.5 47.5t70 83t26.5 116.5q0 204 -248 204q-290 0 -290 -258zM295 784q0 -88 62 -135t141 -47q41 0 83.5 13.5t81 39t63 70t24.5 100.5q0 92 -62 145.5t-147 53.5q-98 0 -172 -64.5t-74 -175.5z" />
<glyph unicode="9" horiz-adv-x="878" d="M152 219q0 62 45 62q36 0 36 -56q0 -61 41.5 -111.5t126.5 -50.5q141 0 233 118.5t124 348.5q-115 -135 -305 -135q-98 0 -166 45.5t-97.5 113t-29.5 148.5q0 177 101.5 292.5t275.5 115.5q60 0 113 -23t100 -72t74.5 -137t27.5 -206q0 -326 -118.5 -508t-344.5 -182 q-112 0 -174.5 71.5t-62.5 165.5zM242 711q0 -95 56 -164.5t163 -69.5q128 0 207 56.5t102 125.5q2 100 -18 174.5t-56.5 115.5t-78.5 60t-89 19q-137 0 -211.5 -84t-74.5 -233z" />
<glyph unicode=":" horiz-adv-x="464" d="M133 80q0 50 36 83.5t85 33.5q38 0 67 -30.5t29 -70.5q0 -47 -38 -80.5t-81 -33.5q-38 0 -68 28.5t-30 69.5zM190 631q0 50 36 83.5t85 33.5q38 0 67.5 -30.5t29.5 -70.5q0 -47 -38.5 -81t-80.5 -34q-38 0 -68.5 29t-30.5 70z" />
<glyph unicode=";" horiz-adv-x="466" d="M115 -133q0 10 6 21t12 17t16.5 15.5t12.5 11.5l49 52q-33 8 -55.5 34t-22.5 62q0 50 36 83.5t85 33.5q39 0 66.5 -30t27.5 -75q0 -77 -123 -207q-16 -18 -23 -26t-23 -18.5t-29 -10.5q-14 0 -24.5 9t-10.5 28zM190 631q0 50 36 83.5t85 33.5q38 0 67.5 -30.5t29.5 -70.5 q0 -47 -38.5 -81t-80.5 -34q-38 0 -68.5 29t-30.5 70z" />
<glyph unicode="&#x3c;" horiz-adv-x="698" d="M113 520q0 23 27.5 44t111.5 69q54 31 171.5 92t154.5 82q42 22 55 22t21 -9.5t8 -22.5q0 -22 -52 -56q-29 -20 -80 -49.5t-91.5 -51t-114.5 -61t-103 -55.5q22 -14 114 -68t142.5 -86t83.5 -59q43 -37 43 -53q0 -13 -10.5 -25t-24.5 -12q-13 0 -51 23q-27 17 -138 82 t-163 100q-11 7 -32.5 20.5t-30.5 20t-20.5 16t-16 18.5t-4.5 19z" />
<glyph unicode="=" horiz-adv-x="897" d="M170 401q0 16 15 27.5t46 11.5q129 -6 240 -6q58 0 131 2t116 4l44 2q53 0 53 -32q0 -48 -90 -48q-19 0 -107 -3t-155 -3q-56 0 -125.5 2t-85.5 2q-82 0 -82 41zM207 762q0 16 15 27.5t46 11.5q129 -6 240 -6q58 0 131.5 2t117.5 4l44 2q27 0 40 -9.5t13 -23.5 q0 -47 -92 -47q-20 0 -107 -3t-155 -3q-56 0 -125.5 2t-85.5 2q-82 0 -82 41z" />
<glyph unicode="&#x3e;" horiz-adv-x="698" d="M147 254q0 17 56 57q29 21 79 49.5t91.5 50.5t112 59t102.5 54q-28 17 -118 70t-142 86.5t-84 60.5q-39 34 -39 52q0 13 10.5 24.5t26.5 11.5q13 0 49 -22q30 -19 134.5 -80t154.5 -94q39 -26 53.5 -35.5t33 -24.5t24 -24.5t5.5 -20.5q0 -8 -2.5 -15.5t-9.5 -14.5 t-13.5 -13t-19.5 -13.5t-22.5 -13t-27.5 -15.5t-30 -17q-59 -35 -184 -100t-156 -82q-44 -23 -55 -23q-13 0 -21 10t-8 23z" />
<glyph unicode="?" horiz-adv-x="675" d="M152 834q0 43 21 89.5t58.5 88t96.5 68t127 26.5q117 0 181 -59.5t64 -169.5q0 -68 -31 -129.5t-76.5 -110.5t-92 -97t-82.5 -109.5t-43 -127.5q-5 -51 -45 -51q-37 0 -37 45q0 74 33.5 139.5t80.5 114.5t94.5 95.5t81 102.5t33.5 115q0 73 -44 116.5t-126 43.5 q-50 -1 -91 -19.5t-66 -47t-39 -58.5t-17 -59q-2 -18 -14 -30.5t-33 -12.5q-34 0 -34 37zM227 55q0 36 28 62t64 26q29 0 50.5 -22t21.5 -53q0 -34 -29 -60t-61 -26q-29 0 -51.5 21.5t-22.5 51.5z" />
<glyph unicode="@" horiz-adv-x="1404" d="M115 301q0 156 42.5 290t113 227t162 159t189 97.5t195.5 31.5q113 0 212.5 -38t175 -108.5t119.5 -180t44 -244.5q0 -104 -17 -190.5t-46 -143.5t-63 -98.5t-72 -64t-69.5 -32.5t-58.5 -10q-42 2 -81 2h-62q-53 0 -53 33q0 23 17.5 34t62.5 11q17 -2 37 -2l-45 176 q-47 -6 -160 -6q-55 0 -104.5 1t-69.5 1l-80 -172l39 2q39 0 55 -9t16 -30q0 -16 -15 -27.5t-46 -11.5h-80l-82 -2q-53 0 -53 33q0 45 82 47q201 444 244 524q22 44 32 59h-26q-39 0 -53.5 7t-14.5 24q0 37 49 37h150q27 0 46 -8t32 -29.5t18.5 -37t17.5 -52.5 q34 -106 132 -522h4q23 0 50.5 11t61 42.5t60.5 79t45 129.5t18 184q0 94 -25.5 175.5t-70.5 140t-105 100.5t-130.5 63t-145.5 21q-90 0 -177 -28.5t-166 -87.5t-138.5 -142.5t-95 -201.5t-35.5 -255q0 -73 15 -139t37 -111.5t52.5 -85.5t56 -63t52.5 -41q57 -41 57 -68 q0 -34 -35 -34q-17 0 -41 12q-31 16 -62.5 40t-71.5 69t-70 100t-51 137.5t-21 175.5zM623 330q62 -4 143 -4q100 0 133 2l-65 243l-15 45q-12 39 -24 39q-7 0 -13 -8t-18 -29l-25 -47q-45 -88 -116 -241z" />
<glyph unicode="A" d="M12 39q0 16 15.5 27.5t46.5 11.5h55l18 43l377 891h-20q-39 0 -55.5 9t-16.5 30q0 16 15.5 27.5t46.5 11.5h129q33 0 46.5 -11t20.5 -49q63 -291 94 -434q14 -70 61.5 -284t51.5 -234h57q54 0 54 -33q0 -23 -17.5 -34t-62.5 -11q-35 2 -66 2q-12 0 -37 -1t-55 -1 q-82 0 -82 39q0 41 62 41q26 -2 57 -2q-27 101 -74 317q-51 -10 -201 -10q-57 0 -107.5 1t-72.5 1l-137 -309l64 2q53 0 53 -33q0 -9 -2.5 -15.5t-10 -14.5t-27.5 -12.5t-50 -4.5q-29 0 -50 1t-40 1l-68 -2q-39 0 -55.5 9t-16.5 30zM387 471q82 -4 154 -4q131 0 178 2 l-90 469q-1 6 -3 17t-3.5 16.5t-3.5 12.5t-4 10t-5 3q-15 0 -39 -69q-52 -134 -184 -457z" />
<glyph unicode="B" horiz-adv-x="927" d="M86 39q0 16 15 27.5t46 11.5h72q10 98 40.5 449t45.5 483h-59q-56 0 -56 32q0 48 82 48q18 0 82.5 -1.5t108.5 -1.5q13 0 56.5 1.5t66.5 1.5q293 0 293 -250q0 -110 -51.5 -177.5t-133.5 -87.5v-2q77 0 130 -61.5t53 -177.5q0 -162 -106 -248t-284 -86q-131 0 -229.5 -1 t-99.5 -1q-72 0 -72 41zM301 82h195q148 0 223.5 68.5t75.5 177.5q0 100 -57.5 150t-178.5 50h-211q-2 -44 -9 -113t-19.5 -175t-18.5 -158zM348 612q94 0 225 -2q24 0 48 3.5t57.5 16.5t58 35t42.5 64t18 98q0 181 -219 181q-25 0 -61.5 -1t-59.5 -1h-68l-24 -236 q-13 -108 -17 -158z" />
<glyph unicode="C" horiz-adv-x="991" d="M133 449q0 126 29 234.5t78.5 185t115 131t138.5 80.5t149 26q96 0 163 -48t109 -114l13 115q3 47 41 47q41 0 41 -36v-7l-27 -250q-1 -20 -13.5 -32.5t-31.5 -12.5q-21 0 -35.5 19.5t-27 55t-17.5 44.5q-77 137 -223 137q-79 0 -154 -38t-134.5 -107t-95.5 -178 t-36 -240q0 -101 29.5 -180.5t77.5 -125.5t103 -69t112 -23q37 0 71.5 6.5t65 21.5t52.5 27t48 34.5t37 33t33 34.5t24 26q28 28 47 28q27 0 27 -28q0 -12 -11.5 -35.5t-31.5 -44.5q-175 -184 -371 -184q-72 0 -139.5 26.5t-126 80t-94 146.5t-35.5 214z" />
<glyph unicode="D" horiz-adv-x="1003" d="M72 39q0 16 15 27.5t46 11.5h86q15 144 43 460t45 472h-76q-55 0 -55 32q0 48 82 48q7 0 93.5 -1.5t185.5 -1.5q223 0 332.5 -126t109.5 -340q0 -155 -47 -276t-129 -196t-188 -113t-230 -38h-242q-71 0 -71 41zM301 80h92q250 0 377 137.5t127 396.5q0 394 -369 394 q-8 0 -27 0.5t-47 0.5t-69 -1l-25 -240q-12 -116 -28.5 -337t-30.5 -351z" />
<glyph unicode="E" horiz-adv-x="894" d="M84 39q0 16 15 27.5t46 11.5h70q2 16 9.5 80t14.5 128t11 105q48 555 55 619h-61q-56 0 -56 32q0 48 82 48q40 0 131 -2.5t146 -2.5q28 0 175 3l148 2q20 0 33 -10t12 -27l-18 -172q-1 -20 -14 -32.5t-31 -12.5q-37 0 -37 39v6q12 88 16 127h-444q-8 -74 -39 -428 q18 0 58 2t69 2l189 -2q53 0 53 -33q0 -47 -90 -47q-19 0 -57 2t-103 2q-21 0 -60.5 -2t-64.5 -2q-1 -21 -5 -58.5t-5 -52.5q-3 -29 -35 -311h41q83 0 228.5 1t166.5 1l12 127q2 21 14 33t32 12q15 0 25.5 -11.5t10.5 -29.5q0 -5 -2 -19.5t-5 -35.5t-5 -37q-2 -15 -3 -43 t-3 -43q-3 -17 -15 -26t-28 -9q-261 -2 -610 -2q-72 0 -72 41z" />
<glyph unicode="F" horiz-adv-x="831" d="M84 39q0 16 15 27.5t46 11.5h70q2 16 9.5 80t14.5 128t11 105q48 555 55 619h-61q-56 0 -56 32q0 48 82 48q40 0 131 -2.5t146 -2.5q28 0 161 3l134 2q21 0 33.5 -10.5t11.5 -30.5l-19 -168q-1 -20 -14 -32.5t-31 -12.5q-37 0 -37 39v6q13 88 13 96l2 31h-414 q-8 -74 -39 -428q18 0 58 2t69 2l170 -2q53 0 53 -33q0 -47 -90 -47q-19 0 -47.5 2t-93.5 2q-21 0 -60.5 -2t-64.5 -2q-1 -21 -5 -58.5t-5 -52.5q-3 -43 -35 -313l115 2q53 0 53 -33q0 -9 -2.5 -15.5t-10 -14.5t-27.5 -12.5t-50 -4.5q-49 0 -85.5 1t-66.5 1l-67 -2 q-39 0 -55.5 9t-16.5 30z" />
<glyph unicode="G" horiz-adv-x="1024" d="M135 449q0 126 29 234.5t78.5 185t115 131t138.5 80.5t149 26q66 0 124.5 -28t90.5 -61t58 -73l12 115q3 47 41 47q41 0 41 -36v-7l-27 -250q-1 -20 -14 -32.5t-31 -12.5q-25 0 -38 19t-22.5 52t-19.5 48q-45 69 -97 103t-126 34q-79 0 -154 -38t-134.5 -107t-95.5 -178 t-36 -240q0 -101 29.5 -180.5t77.5 -125.5t103 -69t112 -23q49 0 96.5 14.5t77 30t66 47t47.5 43.5t38 42q3 30 7 60.5t7 48.5t3 24q0 20 -23 20q-117 2 -209 2q-19 0 -32 9.5t-13 27.5q0 45 55 45q101 -2 238 -2q36 0 51.5 -20.5t12.5 -53.5l-17 -163v-2l-22 -211 q-2 -20 -13 -32.5t-28 -12.5q-37 0 -37 38q0 41 8 99q-149 -135 -322 -135q-72 0 -139.5 26.5t-126 80t-94 146.5t-35.5 214z" />
<glyph unicode="H" horiz-adv-x="1105" d="M84 39q0 41 61 41q41 -2 80 -2l62 760q8 97 20 172h-35q-82 0 -82 39q0 41 62 41q78 -3 121 -3h100q53 0 53 -32q0 -23 -18 -34t-62 -11q-30 0 -57 2q-14 -88 -22 -172q-18 -179 -23 -260q44 0 109.5 -1t128.5 -1l272 2q12 0 27 -5q17 178 37 435h-29q-82 0 -82 39 q0 41 61 41q93 -3 136 -3h83q27 0 40.5 -9.5t13.5 -22.5q0 -23 -18 -34t-62 -11q-33 2 -62 2q-5 -52 -32 -380.5t-41 -461.5l-11 -92h66q53 0 53 -33q0 -23 -17.5 -34t-62.5 -11q-34 2 -65 2q-13 0 -45 -1t-62 -1q-82 0 -82 39q0 41 62 41q35 -2 72 -2q1 8 5.5 36.5 t6.5 55.5l31 338q-19 -8 -60 -8h-244q-34 0 -104.5 1t-130.5 1l-31 -424h60q53 0 53 -33q0 -23 -17.5 -34t-62.5 -11q-51 2 -82 2q-12 0 -37 -1t-55 -1q-82 0 -82 39z" />
<glyph unicode="I" horiz-adv-x="493" d="M82 31q0 47 90 47h49v39q0 2 19.5 195.5t42.5 415.5t30 282h-43q-82 0 -82 41q0 16 17 27.5t45 11.5q98 -5 123 -5l100 5q55 0 55 -33q0 -47 -92 -47h-43q-28 -229 -33 -283q-11 -112 -22.5 -250t-21 -256.5t-11.5 -142.5h33q82 0 82 -41q0 -39 -62 -39q-63 4 -100 4 l-123 -4q-25 0 -39 9.5t-14 23.5z" />
<glyph unicode="J" horiz-adv-x="591" d="M37 31q0 28 18.5 35.5t55.5 7.5q57 0 101 18t69.5 45.5t43 69.5t25 79.5t12.5 86.5l68 637h-41q-80 0 -80 47q0 33 60 33q98 -5 123 -5l100 5q55 0 55 -33q0 -47 -92 -47h-43l-68 -637q-8 -80 -30.5 -146t-62 -120t-103 -84.5t-146.5 -30.5q-65 0 -65 39z" />
<glyph unicode="K" horiz-adv-x="987" d="M84 39q0 41 61 41q41 -2 80 -2l62 760q8 97 20 172h-35q-82 0 -82 39q0 41 62 41q78 -3 121 -3h100q53 0 53 -32q0 -23 -18 -34t-62 -11q-30 0 -57 2q-14 -88 -22 -172q-13 -126 -27 -310h223q99 0 172.5 91.5t85.5 216.5q13 121 21 172h-31q-82 0 -82 39q0 41 62 41 q77 -3 120 -3h78q53 0 53 -32q0 -23 -17.5 -34t-61.5 -11q-17 0 -37 2q-21 -129 -25 -172q-13 -128 -69.5 -212t-137.5 -126q89 -260 123 -367l19 -57h57q49 0 49 -31q0 -15 -3 -23t-21.5 -16t-53.5 -8h-26q-60 0 -84 66l-138 387q-155 2 -186 2q-12 0 -42 -1t-54 -1 q-6 -82 -15 -211t-12 -164h60q53 0 53 -33q0 -23 -17.5 -34t-62.5 -11q-51 2 -82 2q-12 0 -37 -1t-55 -1q-82 0 -82 39z" />
<glyph unicode="L" horiz-adv-x="884" d="M84 39q0 16 15 27.5t46 11.5h70q2 16 9.5 80t14.5 128t11 105q5 57 17 195.5t21.5 247.5t16.5 176h-33q-82 0 -82 41q0 16 17 27.5t45 11.5q98 -5 123 -5l100 5q53 0 53 -33q0 -47 -90 -47h-51q-8 -61 -55 -619q-3 -29 -35 -311h41q85 0 244.5 1t183.5 1l4 31l8 96 q2 21 13.5 33t31.5 12q15 0 26 -11.5t11 -29.5q0 -5 -2 -19.5t-5 -35.5t-5 -37q-2 -15 -3 -43t-3 -43q-3 -17 -15 -26t-28 -9q-293 -2 -469 -2h-174q-72 0 -72 41z" />
<glyph unicode="M" horiz-adv-x="1265" d="M96 39q0 41 62 41q30 -2 63 -2l35 272q25 186 78 662h-8q-12 0 -37 -1t-56 -1q-81 0 -81 39q0 41 61 41q78 -3 121 -3h72q47 0 61 -13.5t25 -61.5q51 -198 104 -457l33 -160q5 -26 10 -67.5t9 -63.5t9 -22t14.5 19.5t27 68t24.5 65.5l65 160q47 116 98 230t78 171l27 56 q22 44 61 62t99 18l131 -2q53 0 53 -33q0 -9 -2.5 -15.5t-10 -14.5t-27.5 -12.5t-50 -4.5q-31 0 -55 1t-37 1h-8q-26 -237 -62 -662l-22 -272l63 2q54 0 54 -33q0 -12 -4 -20.5t-25.5 -17.5t-61.5 -9q-31 0 -55.5 1t-36.5 1l-82 -2q-39 0 -55 9t-16 30q0 16 15 27.5t46 11.5 h74q3 22 10 105.5t14 144.5q62 578 62 618q0 12 -4 12q-9 0 -19 -24l-190 -434q-20 -46 -48.5 -114t-44.5 -106t-34.5 -77t-30.5 -58q-1 -2 -6.5 -10t-7.5 -10.5t-7 -8t-8.5 -8t-8.5 -4.5t-11 -2q-11 0 -19 8t-11 14t-9 21q-11 25 -22.5 74t-29 136t-30.5 145 q-67 298 -94 434q-3 24 -16 24q-10 0 -13 -24q-45 -448 -65 -606q-7 -51 -17 -137t-14 -113h76q53 0 53 -33q0 -23 -17.5 -34t-62.5 -11q-51 2 -82 2q-12 0 -37 -1t-55 -1q-82 0 -82 39z" />
<glyph unicode="N" horiz-adv-x="1091" d="M86 39q0 41 61 41q35 -2 72 -2q4 42 18 189.5t28.5 303.5t23.5 265q8 93 20 174h-35q-81 0 -81 39q0 41 61 41q78 -3 121 -3q8 0 14.5 -1t11.5 -2t9.5 -4.5t7.5 -5t7 -6.5t5.5 -7t5 -9.5t4.5 -9.5t4.5 -11t4.5 -11l385 -895l67 711q6 79 21 174h-35q-82 0 -82 39 q0 41 61 41q78 -3 121 -3h100q27 0 40.5 -9.5t13.5 -22.5q0 -23 -18 -34t-62 -11q-30 0 -57 2q-15 -95 -23 -174q-12 -125 -29.5 -321.5t-28.5 -321t-14 -146.5q-6 -55 -65 -55q-18 0 -31.5 6t-26.5 25.5t-16.5 27t-16.5 38.5q-3 7 -5 11l-365 854q-7 -44 -14 -118 q-8 -117 -22 -270.5t-28.5 -304.5t-17.5 -185h68q53 0 53 -33q0 -23 -17.5 -34t-62.5 -11q-51 2 -82 2q-12 0 -37 -1t-55 -1q-82 0 -82 39z" />
<glyph unicode="O" horiz-adv-x="1081" d="M135 471q0 164 67.5 309.5t189 235.5t265.5 90q122 0 215.5 -71t141 -184.5t47.5 -248.5q0 -122 -32 -226t-84.5 -175t-120.5 -121.5t-140 -74t-143 -23.5q-76 0 -147 30t-129.5 87.5t-94 154t-35.5 217.5zM217 475q0 -106 29 -188t78 -129.5t106 -71t119 -23.5 q58 0 117 18.5t115.5 60t100 101.5t70.5 149.5t27 197.5q0 114 -42.5 213.5t-119 160t-168.5 60.5q-110 0 -210 -76t-161 -203.5t-61 -269.5z" />
<glyph unicode="P" horiz-adv-x="874" d="M84 39q0 16 15 27.5t46 11.5h70q2 16 9.5 80t14.5 128t11 105q48 555 55 619h-61q-54 0 -54 32q0 24 17.5 36t62.5 12h246q383 0 383 -287q0 -73 -13 -131t-34.5 -97t-54.5 -67.5t-66 -44.5t-78 -25t-81.5 -11.5t-84.5 -2.5h-153l-2 -33q-3 -43 -35 -313l115 2 q53 0 53 -33q0 -9 -2.5 -15.5t-10 -14.5t-27.5 -12.5t-50 -4.5q-49 0 -85.5 1t-66.5 1l-67 -2q-39 0 -55.5 9t-16.5 30zM342 506h154q38 0 66 1.5t63.5 8.5t61 18.5t51.5 33t42.5 51t26.5 73.5t10 99q0 217 -317 217h-113q-2 -13 -45 -502z" />
<glyph unicode="Q" horiz-adv-x="1081" d="M135 471q0 164 67.5 309.5t189 235.5t265.5 90q122 0 215.5 -71t141 -184.5t47.5 -248.5q0 -112 -27 -208.5t-72 -166t-105 -121.5t-125 -81t-132 -39q97 -58 197 -58q63 0 100 13q25 10 47 10q25 0 25 -31q0 -35 -54 -53q-61 -21 -137 -21q-101 0 -181.5 45t-127.5 97 q-141 25 -237.5 149.5t-96.5 333.5zM217 475q0 -106 29 -188t78 -129.5t106 -71t119 -23.5q58 0 117 18.5t115.5 60t100 101.5t70.5 149.5t27 197.5q0 114 -42.5 213.5t-119 160t-168.5 60.5q-110 0 -210 -76t-161 -203.5t-61 -269.5z" />
<glyph unicode="R" horiz-adv-x="921" d="M84 39q0 16 15 27.5t46 11.5h70q2 16 9.5 80t14.5 128t11 105q48 555 55 619h-61q-56 0 -56 32q0 48 82 48h246q383 0 383 -287q0 -155 -67 -232.5t-181 -103.5l111 -332l18 -57h58q49 0 49 -31q0 -15 -3 -23t-21.5 -16t-53.5 -8h-27q-62 0 -84 66l-139 391 q-23 -2 -70 -2h-153l-4 -64l-35 -313l115 2q53 0 53 -33q0 -9 -2.5 -15.5t-10 -14.5t-27.5 -12.5t-50 -4.5q-49 0 -85.5 1t-66.5 1l-67 -2q-39 0 -55.5 9t-16.5 30zM344 537h154q45 0 77.5 2.5t72.5 10.5t67.5 25.5t52 44.5t37 70.5t12.5 100.5q0 217 -317 217h-113 q-22 -215 -43 -471z" />
<glyph unicode="S" horiz-adv-x="890" d="M92 35l31 297q1 20 14.5 32.5t32.5 12.5q25 0 33.5 -21t15 -61t21.5 -66q47 -80 115 -123t147 -43q115 0 187.5 55t72.5 165q0 38 -13.5 68t-32 49t-53.5 37.5t-60.5 28t-72.5 25.5t-71 25q-113 44 -145 63q-99 58 -113 164q-2 20 -2 41q0 145 103 233.5t257 88.5 q97 0 153 -45t81 -109l12 107q3 47 41 47q41 0 41 -36v-7l-27 -244q-2 -20 -14 -32.5t-31 -12.5q-25 0 -35 15t-18 48t-21 54q-79 133 -190 133q-116 0 -192 -62t-76 -163q0 -36 12 -65t29.5 -48t49 -37.5t56 -29t66.5 -25.5q18 -7 51.5 -18.5t52 -18t48 -18t47 -20.5 t41.5 -23.5t37.5 -28t29.5 -32.5t24 -39.5t13.5 -46.5t5.5 -56q0 -153 -99.5 -232t-254.5 -79q-211 0 -304 186l-14 -129q-3 -47 -41 -47q-41 0 -41 36v7z" />
<glyph unicode="T" horiz-adv-x="921" d="M141 879l19 168q3 40 61 40q203 -8 371 -8q80 0 164.5 2.5t129.5 5.5l44 3q22 0 39 -11t14 -32l-18 -168q-1 -20 -14 -32.5t-31 -12.5q-37 0 -37 39v6q12 88 12 96l2 35q-32 0 -120 -4.5t-173 -4.5q-27 -187 -35 -274q-11 -112 -22 -250.5t-20 -254t-11 -142.5h33 q82 0 82 -41q0 -39 -62 -39q-63 4 -100 4l-123 -4q-25 0 -39 9.5t-14 23.5q0 47 90 47h49v39q0 56 20 248t45 405t27 229q-69 0 -164.5 3.5t-123.5 3.5l-5 -33l-8 -96q-2 -21 -13.5 -33t-31.5 -12q-17 0 -27.5 12.5t-9.5 32.5z" />
<glyph unicode="U" horiz-adv-x="1052" d="M168 1051q0 16 16.5 27.5t44.5 11.5q98 -5 123 -5l101 5q53 0 53 -33q0 -47 -90 -47h-45l-27 -242q-7 -66 -20 -171.5t-20 -170t-7 -98.5q0 -265 235 -265q75 0 131 24t90.5 69.5t53.5 102.5t27 132q29 334 34 377l27 242h-45q-82 0 -82 41q0 39 61 39q64 -5 101 -5 l123 5q25 0 39 -9.5t14 -23.5q0 -47 -90 -47h-39l-27 -256l-35 -363q-7 -65 -23 -121.5t-46.5 -110.5t-73 -92.5t-106 -61.5t-142.5 -23q-86 0 -148 28.5t-96 78.5t-49.5 109t-15.5 130q0 33 7.5 97.5t20 161.5t19.5 167l27 256h-39q-82 0 -82 41z" />
<glyph unicode="V" horiz-adv-x="1017" d="M127 1049q0 41 61 41q78 -3 121 -3h80q53 0 53 -32q0 -23 -17.5 -34t-62.5 -11q-24 2 -51 2q37 -154 104 -476t81 -399q10 -61 22 -61q14 0 35 61q23 63 159 387t208 488l-50 -2q-39 0 -55 9t-16 30q0 15 15 26.5t46 11.5l201 3q53 0 53 -33q0 -9 -2.5 -15.5t-10 -14.5 t-27.5 -12.5t-50 -4.5h-20l-342 -826q-20 -47 -32 -72.5t-33 -61t-43 -52t-46 -16.5q-16 0 -30 7.5t-25 25.5t-18.5 33t-15.5 44t-11.5 44t-10.5 48q-10 45 -79.5 385t-90.5 441h-18q-82 0 -82 39z" />
<glyph unicode="W" horiz-adv-x="1384" d="M131 1049q0 41 62 41q77 -3 200 -3q53 0 53 -32q0 -23 -17 -34t-62 -11q-27 2 -52 2q24 -134 77 -493.5t57 -381.5q10 -61 12 -61t4 2t4 7.5t3.5 11t5.5 17.5t7 23q11 31 118 400t145 483q22 67 61 67q21 0 32 -11.5t15 -45.5q17 -114 43.5 -490t30.5 -403q2 -11 3 -22.5 t1.5 -17.5t1.5 -11.5t2.5 -7.5t3.5 -2q4 0 25 61q8 21 71 198.5t134.5 376t111.5 300.5l-51 -2q-39 0 -55.5 9t-16.5 30q0 15 15.5 26.5t46.5 11.5l200 3q54 0 54 -33q0 -12 -4 -20.5t-25.5 -17.5t-61.5 -9h-18q-227 -622 -297 -826q-4 -9 -15.5 -39t-16.5 -42t-16.5 -36.5 t-19.5 -35t-20 -24.5t-24.5 -19.5t-26.5 -5.5q-25 0 -41 12t-25 41.5t-13.5 60.5t-8.5 88l-60 693q-30 -101 -76.5 -263.5t-80 -281t-43.5 -148.5q-36 -114 -61 -158t-72 -44q-11 0 -20.5 3.5t-17 12t-13.5 16t-11.5 23t-8.5 25t-7 29.5l-6 30t-6 32.5t-5 30.5 q-7 40 -30.5 196.5t-53.5 357.5t-41 272h-18q-82 0 -82 39z" />
<glyph unicode="X" horiz-adv-x="989" d="M25 39q0 16 15 27.5t46 11.5h82l332 459q-105 212 -244 473h-37q-82 0 -82 39q0 41 62 41q77 -3 120 -3h105q53 0 53 -32q0 -23 -18 -34t-62 -11q-24 0 -49 2l209 -404l297 404l-49 -2q-39 0 -55.5 9t-16.5 30q0 16 15 27t47 11h104l121 3q53 0 53 -33q0 -9 -2.5 -15.5 t-10 -14.5t-27.5 -12.5t-50 -4.5h-37q-53 -74 -182 -248t-166 -225l240 -459h82q53 0 53 -33q0 -23 -17.5 -34t-62.5 -11q-55 2 -86 2q-12 0 -36.5 -1t-55.5 -1q-82 0 -82 39q0 41 61 41q20 -2 45 -2q-22 43 -67.5 130.5t-78 151t-50.5 101.5l-279 -383l47 2q54 0 54 -33 q0 -12 -4 -20.5t-25.5 -17.5t-61.5 -9q-30 0 -55 1t-37 1l-86 -2q-39 0 -55 9t-16 30z" />
<glyph unicode="Y" horiz-adv-x="901" d="M133 1049q0 41 62 41q77 -3 120 -3h80q54 0 54 -32q0 -23 -17.5 -34t-62.5 -11q-15 0 -33 2l133 -406q27 -90 39 -90q8 0 57 90l217 406l-30 -2q-39 0 -55.5 9t-16.5 30q0 15 15 26.5t46 11.5h80l121 3q53 0 53 -33q0 -9 -2.5 -15.5t-10 -14.5t-27.5 -12.5t-50 -4.5h-35 q-16 -30 -69 -131t-98 -186t-62 -115q-34 -57 -58 -87.5t-51 -37.5q-14 -164 -28 -373h33q81 0 81 -41q0 -39 -61 -39q-63 4 -100 4l-123 -4q-25 0 -39 9.5t-14 23.5q0 47 90 47h49q0 71 14 217l17 164q-26 20 -62 117q-34 92 -141 432h-33q-82 0 -82 39z" />
<glyph unicode="Z" horiz-adv-x="847" d="M88 55q0 5 0.5 10t0.5 8.5t1.5 8t2.5 6.5l3.5 7t3.5 6.5t4.5 7t5 7t6.5 8.5t7 9l520 696l111 144q5 5 13.5 17.5t8.5 17.5q0 6 -22 6l-57 -2q-57 -2 -105 -2q-45 0 -171 1t-159 1l-10 -88q-2 -21 -13.5 -33t-31.5 -12q-17 0 -27.5 12.5t-9.5 32.5l14 127q4 45 56 45 q282 -4 376 -4l160 4q90 0 90 -64q0 -20 -7.5 -34.5t-29.5 -43.5q-68 -97 -129 -178q-47 -62 -157.5 -205.5t-193.5 -253.5t-148 -202q-23 -29 -23 -35t29 -6q22 0 94 2t123 2q160 0 278 -4l11 100q2 21 13.5 33t31.5 12q17 0 27.5 -12.5t9.5 -32.5l-17 -149q-3 -33 -55 -33 q-230 4 -324 4l-223 -4q-49 0 -68.5 16t-19.5 47z" />
<glyph unicode="[" horiz-adv-x="489" d="M147 -47q0 16 11 105t30.5 246t32.5 274q37 327 53 530q2 19 8.5 33.5t19 22.5t22.5 13t29.5 6.5t28.5 2t30 0.5h102q45 0 45 -37q0 -41 -53 -41h-107q-17 0 -31.5 -9.5t-15.5 -25.5q0 -3 -3 -33.5t-7 -76.5t-9.5 -104t-13.5 -133.5t-16 -147.5q-12 -100 -31.5 -261 t-30 -250.5t-10.5 -97.5q0 -45 43 -45h95q51 0 51 -35q0 -43 -68 -43h-86q-65 0 -92 26.5t-27 80.5z" />
<glyph unicode="\" horiz-adv-x="593" d="M199 1255q0 16 10.5 33t34.5 17q36 0 43 -48l217 -1439q4 -24 4 -27q0 -16 -11.5 -32.5t-35.5 -16.5q-17 0 -27 10t-14 37l-217 1440q-4 24 -4 26z" />
<glyph unicode="]" horiz-adv-x="489" d="M45 -119q0 43 59 43h95q27 0 39.5 14.5t15.5 41.5q9 131 55 598q12 116 25.5 240.5t20.5 189t7 67.5q0 14 -12 23.5t-26 9.5h-107q-45 0 -45 31q0 47 53 47h103q24 0 34 -0.5t30.5 -3.5t30 -9.5t18 -20.5t8.5 -34q0 -7 -8.5 -81.5t-23.5 -209t-26 -249.5 q-11 -119 -24.5 -265t-21 -233.5t-9.5 -99.5q-6 -68 -38.5 -101t-107.5 -33h-86q-59 0 -59 35z" />
<glyph unicode="^" horiz-adv-x="606" d="M193 1006q0 16 22 41q23 25 71 79t60 66q3 3 10.5 11t11 11t11 9.5t12.5 9.5t12.5 7t15 5.5t15.5 1.5q18 0 34 -10t23.5 -18.5t20.5 -26.5q5 -7 42.5 -62.5t57.5 -82.5q15 -18 15 -35q0 -21 -14 -32t-31 -11q-22 0 -41 30l-84 115q-3 4 -8 10.5t-7 9t-5.5 6t-6 4.5 t-6.5 1t-8 -2.5t-7 -5.5t-9.5 -10t-12.5 -13q-92 -97 -108 -115q-26 -30 -50 -30q-14 0 -25 9t-11 28z" />
<glyph unicode="_" horiz-adv-x="976" d="M90 39q0 16 15.5 27.5t46.5 11.5h311l383 2q53 0 53 -33q0 -47 -90 -47h-354q-141 0 -190 -1t-93 -1q-82 0 -82 41z" />
<glyph unicode="`" horiz-adv-x="466" d="M180 1128q0 21 15 38.5t32 17.5q22 0 60 -21q14 -7 87.5 -50t92.5 -52q45 -19 45 -43q0 -13 -11.5 -26t-33.5 -13q-11 0 -45 14q-91 37 -199 90q-43 21 -43 45z" />
<glyph unicode="a" d="M12 39q0 16 15.5 27.5t46.5 11.5h55l18 43l377 891h-20q-39 0 -55.5 9t-16.5 30q0 16 15.5 27.5t46.5 11.5h129q33 0 46.5 -11t20.5 -49q63 -291 94 -434q14 -70 61.5 -284t51.5 -234h57q54 0 54 -33q0 -23 -17.5 -34t-62.5 -11q-35 2 -66 2q-12 0 -37 -1t-55 -1 q-82 0 -82 39q0 41 62 41q26 -2 57 -2q-27 101 -74 317q-51 -10 -201 -10q-57 0 -107.5 1t-72.5 1l-137 -309l64 2q53 0 53 -33q0 -9 -2.5 -15.5t-10 -14.5t-27.5 -12.5t-50 -4.5q-29 0 -50 1t-40 1l-68 -2q-39 0 -55.5 9t-16.5 30zM387 471q82 -4 154 -4q131 0 178 2 l-90 469q-1 6 -3 17t-3.5 16.5t-3.5 12.5t-4 10t-5 3q-15 0 -39 -69q-52 -134 -184 -457z" />
<glyph unicode="b" horiz-adv-x="927" d="M86 39q0 16 15 27.5t46 11.5h72q10 98 40.5 449t45.5 483h-59q-56 0 -56 32q0 48 82 48q18 0 82.5 -1.5t108.5 -1.5q13 0 56.5 1.5t66.5 1.5q293 0 293 -250q0 -110 -51.5 -177.5t-133.5 -87.5v-2q77 0 130 -61.5t53 -177.5q0 -162 -106 -248t-284 -86q-131 0 -229.5 -1 t-99.5 -1q-72 0 -72 41zM301 82h195q148 0 223.5 68.5t75.5 177.5q0 100 -57.5 150t-178.5 50h-211q-2 -44 -9 -113t-19.5 -175t-18.5 -158zM348 612q94 0 225 -2q24 0 48 3.5t57.5 16.5t58 35t42.5 64t18 98q0 181 -219 181q-25 0 -61.5 -1t-59.5 -1h-68l-24 -236 q-13 -108 -17 -158z" />
<glyph unicode="c" horiz-adv-x="991" d="M133 449q0 126 29 234.5t78.5 185t115 131t138.5 80.5t149 26q96 0 163 -48t109 -114l13 115q3 47 41 47q41 0 41 -36v-7l-27 -250q-1 -20 -13.5 -32.5t-31.5 -12.5q-21 0 -35.5 19.5t-27 55t-17.5 44.5q-77 137 -223 137q-79 0 -154 -38t-134.5 -107t-95.5 -178 t-36 -240q0 -101 29.5 -180.5t77.5 -125.5t103 -69t112 -23q37 0 71.5 6.5t65 21.5t52.5 27t48 34.5t37 33t33 34.5t24 26q28 28 47 28q27 0 27 -28q0 -12 -11.5 -35.5t-31.5 -44.5q-175 -184 -371 -184q-72 0 -139.5 26.5t-126 80t-94 146.5t-35.5 214z" />
<glyph unicode="d" horiz-adv-x="1003" d="M72 39q0 16 15 27.5t46 11.5h86q15 144 43 460t45 472h-76q-55 0 -55 32q0 48 82 48q7 0 93.5 -1.5t185.5 -1.5q223 0 332.5 -126t109.5 -340q0 -155 -47 -276t-129 -196t-188 -113t-230 -38h-242q-71 0 -71 41zM301 80h92q250 0 377 137.5t127 396.5q0 394 -369 394 q-8 0 -27 0.5t-47 0.5t-69 -1l-25 -240q-12 -116 -28.5 -337t-30.5 -351z" />
<glyph unicode="e" horiz-adv-x="894" d="M84 39q0 16 15 27.5t46 11.5h70q2 16 9.5 80t14.5 128t11 105q48 555 55 619h-61q-56 0 -56 32q0 48 82 48q40 0 131 -2.5t146 -2.5q28 0 175 3l148 2q20 0 33 -10t12 -27l-18 -172q-1 -20 -14 -32.5t-31 -12.5q-37 0 -37 39v6q12 88 16 127h-444q-8 -74 -39 -428 q18 0 58 2t69 2l189 -2q53 0 53 -33q0 -47 -90 -47q-19 0 -57 2t-103 2q-21 0 -60.5 -2t-64.5 -2q-1 -21 -5 -58.5t-5 -52.5q-3 -29 -35 -311h41q83 0 228.5 1t166.5 1l12 127q2 21 14 33t32 12q15 0 25.5 -11.5t10.5 -29.5q0 -5 -2 -19.5t-5 -35.5t-5 -37q-2 -15 -3 -43 t-3 -43q-3 -17 -15 -26t-28 -9q-261 -2 -610 -2q-72 0 -72 41z" />
<glyph unicode="f" horiz-adv-x="831" d="M84 39q0 16 15 27.5t46 11.5h70q2 16 9.5 80t14.5 128t11 105q48 555 55 619h-61q-56 0 -56 32q0 48 82 48q40 0 131 -2.5t146 -2.5q28 0 161 3l134 2q21 0 33.5 -10.5t11.5 -30.5l-19 -168q-1 -20 -14 -32.5t-31 -12.5q-37 0 -37 39v6q13 88 13 96l2 31h-414 q-8 -74 -39 -428q18 0 58 2t69 2l170 -2q53 0 53 -33q0 -47 -90 -47q-19 0 -47.5 2t-93.5 2q-21 0 -60.5 -2t-64.5 -2q-1 -21 -5 -58.5t-5 -52.5q-3 -43 -35 -313l115 2q53 0 53 -33q0 -9 -2.5 -15.5t-10 -14.5t-27.5 -12.5t-50 -4.5q-49 0 -85.5 1t-66.5 1l-67 -2 q-39 0 -55.5 9t-16.5 30z" />
<glyph unicode="g" horiz-adv-x="1024" d="M135 449q0 126 29 234.5t78.5 185t115 131t138.5 80.5t149 26q66 0 124.5 -28t90.5 -61t58 -73l12 115q3 47 41 47q41 0 41 -36v-7l-27 -250q-1 -20 -14 -32.5t-31 -12.5q-25 0 -38 19t-22.5 52t-19.5 48q-45 69 -97 103t-126 34q-79 0 -154 -38t-134.5 -107t-95.5 -178 t-36 -240q0 -101 29.5 -180.5t77.5 -125.5t103 -69t112 -23q49 0 96.5 14.5t77 30t66 47t47.5 43.5t38 42q3 30 7 60.5t7 48.5t3 24q0 20 -23 20q-117 2 -209 2q-19 0 -32 9.5t-13 27.5q0 45 55 45q101 -2 238 -2q36 0 51.5 -20.5t12.5 -53.5l-17 -163v-2l-22 -211 q-2 -20 -13 -32.5t-28 -12.5q-37 0 -37 38q0 41 8 99q-149 -135 -322 -135q-72 0 -139.5 26.5t-126 80t-94 146.5t-35.5 214z" />
<glyph unicode="h" horiz-adv-x="1105" d="M84 39q0 41 61 41q41 -2 80 -2l62 760q8 97 20 172h-35q-82 0 -82 39q0 41 62 41q78 -3 121 -3h100q53 0 53 -32q0 -23 -18 -34t-62 -11q-30 0 -57 2q-14 -88 -22 -172q-18 -179 -23 -260q44 0 109.5 -1t128.5 -1l272 2q12 0 27 -5q17 178 37 435h-29q-82 0 -82 39 q0 41 61 41q93 -3 136 -3h83q27 0 40.5 -9.5t13.5 -22.5q0 -23 -18 -34t-62 -11q-33 2 -62 2q-5 -52 -32 -380.5t-41 -461.5l-11 -92h66q53 0 53 -33q0 -23 -17.5 -34t-62.5 -11q-34 2 -65 2q-13 0 -45 -1t-62 -1q-82 0 -82 39q0 41 62 41q35 -2 72 -2q1 8 5.5 36.5 t6.5 55.5l31 338q-19 -8 -60 -8h-244q-34 0 -104.5 1t-130.5 1l-31 -424h60q53 0 53 -33q0 -23 -17.5 -34t-62.5 -11q-51 2 -82 2q-12 0 -37 -1t-55 -1q-82 0 -82 39z" />
<glyph unicode="i" horiz-adv-x="493" d="M82 31q0 47 90 47h49v39q0 2 19.5 195.5t42.5 415.5t30 282h-43q-82 0 -82 41q0 16 17 27.5t45 11.5q98 -5 123 -5l100 5q55 0 55 -33q0 -47 -92 -47h-43q-28 -229 -33 -283q-11 -112 -22.5 -250t-21 -256.5t-11.5 -142.5h33q82 0 82 -41q0 -39 -62 -39q-63 4 -100 4 l-123 -4q-25 0 -39 9.5t-14 23.5z" />
<glyph unicode="j" horiz-adv-x="591" d="M37 31q0 28 18.5 35.5t55.5 7.5q57 0 101 18t69.5 45.5t43 69.5t25 79.5t12.5 86.5l68 637h-41q-80 0 -80 47q0 33 60 33q98 -5 123 -5l100 5q55 0 55 -33q0 -47 -92 -47h-43l-68 -637q-8 -80 -30.5 -146t-62 -120t-103 -84.5t-146.5 -30.5q-65 0 -65 39z" />
<glyph unicode="k" horiz-adv-x="987" d="M84 39q0 41 61 41q41 -2 80 -2l62 760q8 97 20 172h-35q-82 0 -82 39q0 41 62 41q78 -3 121 -3h100q53 0 53 -32q0 -23 -18 -34t-62 -11q-30 0 -57 2q-14 -88 -22 -172q-13 -126 -27 -310h223q99 0 172.5 91.5t85.5 216.5q13 121 21 172h-31q-82 0 -82 39q0 41 62 41 q77 -3 120 -3h78q53 0 53 -32q0 -23 -17.5 -34t-61.5 -11q-17 0 -37 2q-21 -129 -25 -172q-13 -128 -69.5 -212t-137.5 -126q89 -260 123 -367l19 -57h57q49 0 49 -31q0 -15 -3 -23t-21.5 -16t-53.5 -8h-26q-60 0 -84 66l-138 387q-155 2 -186 2q-12 0 -42 -1t-54 -1 q-6 -82 -15 -211t-12 -164h60q53 0 53 -33q0 -23 -17.5 -34t-62.5 -11q-51 2 -82 2q-12 0 -37 -1t-55 -1q-82 0 -82 39z" />
<glyph unicode="l" horiz-adv-x="884" d="M84 39q0 16 15 27.5t46 11.5h70q2 16 9.5 80t14.5 128t11 105q5 57 17 195.5t21.5 247.5t16.5 176h-33q-82 0 -82 41q0 16 17 27.5t45 11.5q98 -5 123 -5l100 5q53 0 53 -33q0 -47 -90 -47h-51q-8 -61 -55 -619q-3 -29 -35 -311h41q85 0 244.5 1t183.5 1l4 31l8 96 q2 21 13.5 33t31.5 12q15 0 26 -11.5t11 -29.5q0 -5 -2 -19.5t-5 -35.5t-5 -37q-2 -15 -3 -43t-3 -43q-3 -17 -15 -26t-28 -9q-293 -2 -469 -2h-174q-72 0 -72 41z" />
<glyph unicode="m" horiz-adv-x="1265" d="M96 39q0 41 62 41q30 -2 63 -2l35 272q25 186 78 662h-8q-12 0 -37 -1t-56 -1q-81 0 -81 39q0 41 61 41q78 -3 121 -3h72q47 0 61 -13.5t25 -61.5q51 -198 104 -457l33 -160q5 -26 10 -67.5t9 -63.5t9 -22t14.5 19.5t27 68t24.5 65.5l65 160q47 116 98 230t78 171l27 56 q22 44 61 62t99 18l131 -2q53 0 53 -33q0 -9 -2.5 -15.5t-10 -14.5t-27.5 -12.5t-50 -4.5q-31 0 -55 1t-37 1h-8q-26 -237 -62 -662l-22 -272l63 2q54 0 54 -33q0 -12 -4 -20.5t-25.5 -17.5t-61.5 -9q-31 0 -55.5 1t-36.5 1l-82 -2q-39 0 -55 9t-16 30q0 16 15 27.5t46 11.5 h74q3 22 10 105.5t14 144.5q62 578 62 618q0 12 -4 12q-9 0 -19 -24l-190 -434q-20 -46 -48.5 -114t-44.5 -106t-34.5 -77t-30.5 -58q-1 -2 -6.5 -10t-7.5 -10.5t-7 -8t-8.5 -8t-8.5 -4.5t-11 -2q-11 0 -19 8t-11 14t-9 21q-11 25 -22.5 74t-29 136t-30.5 145 q-67 298 -94 434q-3 24 -16 24q-10 0 -13 -24q-45 -448 -65 -606q-7 -51 -17 -137t-14 -113h76q53 0 53 -33q0 -23 -17.5 -34t-62.5 -11q-51 2 -82 2q-12 0 -37 -1t-55 -1q-82 0 -82 39z" />
<glyph unicode="n" horiz-adv-x="1091" d="M86 39q0 41 61 41q35 -2 72 -2q4 42 18 189.5t28.5 303.5t23.5 265q8 93 20 174h-35q-81 0 -81 39q0 41 61 41q78 -3 121 -3q8 0 14.5 -1t11.5 -2t9.5 -4.5t7.5 -5t7 -6.5t5.5 -7t5 -9.5t4.5 -9.5t4.5 -11t4.5 -11l385 -895l67 711q6 79 21 174h-35q-82 0 -82 39 q0 41 61 41q78 -3 121 -3h100q27 0 40.5 -9.5t13.5 -22.5q0 -23 -18 -34t-62 -11q-30 0 -57 2q-15 -95 -23 -174q-12 -125 -29.5 -321.5t-28.5 -321t-14 -146.5q-6 -55 -65 -55q-18 0 -31.5 6t-26.5 25.5t-16.5 27t-16.5 38.5q-3 7 -5 11l-365 854q-7 -44 -14 -118 q-8 -117 -22 -270.5t-28.5 -304.5t-17.5 -185h68q53 0 53 -33q0 -23 -17.5 -34t-62.5 -11q-51 2 -82 2q-12 0 -37 -1t-55 -1q-82 0 -82 39z" />
<glyph unicode="o" horiz-adv-x="1081" d="M135 471q0 164 67.5 309.5t189 235.5t265.5 90q122 0 215.5 -71t141 -184.5t47.5 -248.5q0 -122 -32 -226t-84.5 -175t-120.5 -121.5t-140 -74t-143 -23.5q-76 0 -147 30t-129.5 87.5t-94 154t-35.5 217.5zM217 475q0 -106 29 -188t78 -129.5t106 -71t119 -23.5 q58 0 117 18.5t115.5 60t100 101.5t70.5 149.5t27 197.5q0 114 -42.5 213.5t-119 160t-168.5 60.5q-110 0 -210 -76t-161 -203.5t-61 -269.5z" />
<glyph unicode="p" horiz-adv-x="874" d="M84 39q0 16 15 27.5t46 11.5h70q2 16 9.5 80t14.5 128t11 105q48 555 55 619h-61q-54 0 -54 32q0 24 17.5 36t62.5 12h246q383 0 383 -287q0 -73 -13 -131t-34.5 -97t-54.5 -67.5t-66 -44.5t-78 -25t-81.5 -11.5t-84.5 -2.5h-153l-2 -33q-3 -43 -35 -313l115 2 q53 0 53 -33q0 -9 -2.5 -15.5t-10 -14.5t-27.5 -12.5t-50 -4.5q-49 0 -85.5 1t-66.5 1l-67 -2q-39 0 -55.5 9t-16.5 30zM342 506h154q38 0 66 1.5t63.5 8.5t61 18.5t51.5 33t42.5 51t26.5 73.5t10 99q0 217 -317 217h-113q-2 -13 -45 -502z" />
<glyph unicode="q" horiz-adv-x="1081" d="M135 471q0 164 67.5 309.5t189 235.5t265.5 90q122 0 215.5 -71t141 -184.5t47.5 -248.5q0 -112 -27 -208.5t-72 -166t-105 -121.5t-125 -81t-132 -39q97 -58 197 -58q63 0 100 13q25 10 47 10q25 0 25 -31q0 -35 -54 -53q-61 -21 -137 -21q-101 0 -181.5 45t-127.5 97 q-141 25 -237.5 149.5t-96.5 333.5zM217 475q0 -106 29 -188t78 -129.5t106 -71t119 -23.5q58 0 117 18.5t115.5 60t100 101.5t70.5 149.5t27 197.5q0 114 -42.5 213.5t-119 160t-168.5 60.5q-110 0 -210 -76t-161 -203.5t-61 -269.5z" />
<glyph unicode="r" horiz-adv-x="921" d="M84 39q0 16 15 27.5t46 11.5h70q2 16 9.5 80t14.5 128t11 105q48 555 55 619h-61q-56 0 -56 32q0 48 82 48h246q383 0 383 -287q0 -155 -67 -232.5t-181 -103.5l168 -389h49q50 0 50 -31q0 -15 -3 -23t-21.5 -16t-53.5 -8h-27q-56 0 -84 66l-168 391q-25 -2 -72 -2h-153 l-4 -64l-35 -313l115 2q53 0 53 -33q0 -9 -2.5 -15.5t-10 -14.5t-27.5 -12.5t-50 -4.5q-49 0 -85.5 1t-66.5 1l-67 -2q-39 0 -55.5 9t-16.5 30zM344 537h154q45 0 77.5 2.5t72.5 10.5t67.5 25.5t52 44.5t37 70.5t12.5 100.5q0 217 -317 217h-113q-22 -215 -43 -471z" />
<glyph unicode="s" horiz-adv-x="890" d="M92 35l31 297q1 20 14.5 32.5t32.5 12.5q25 0 33.5 -21t15 -61t21.5 -66q47 -80 115 -123t147 -43q115 0 187.5 55t72.5 165q0 38 -13.5 68t-32 49t-53.5 37.5t-60.5 28t-72.5 25.5t-71 25q-113 44 -145 63q-99 58 -113 164q-2 20 -2 41q0 145 103 233.5t257 88.5 q97 0 153 -45t81 -109l12 107q3 47 41 47q41 0 41 -36v-7l-27 -244q-2 -20 -14 -32.5t-31 -12.5q-25 0 -35 15t-18 48t-21 54q-79 133 -190 133q-116 0 -192 -62t-76 -163q0 -36 12 -65t29.5 -48t49 -37.5t56 -29t66.5 -25.5q18 -7 51.5 -18.5t52 -18t48 -18t47 -20.5 t41.5 -23.5t37.5 -28t29.5 -32.5t24 -39.5t13.5 -46.5t5.5 -56q0 -153 -99.5 -232t-254.5 -79q-211 0 -304 186l-14 -129q-3 -47 -41 -47q-41 0 -41 36v7z" />
<glyph unicode="t" horiz-adv-x="921" d="M141 879l19 168q3 40 61 40q203 -8 371 -8q80 0 164.5 2.5t129.5 5.5l44 3q22 0 39 -11t14 -32l-18 -168q-1 -20 -14 -32.5t-31 -12.5q-37 0 -37 39v6q12 88 12 96l2 35q-32 0 -120 -4.5t-173 -4.5q-27 -187 -35 -274q-11 -112 -22 -250.5t-20 -254t-11 -142.5h33 q82 0 82 -41q0 -39 -62 -39q-63 4 -100 4l-123 -4q-25 0 -39 9.5t-14 23.5q0 47 90 47h49v39q0 56 20 248t45 405t27 229q-69 0 -164.5 3.5t-123.5 3.5l-5 -33l-8 -96q-2 -21 -13.5 -33t-31.5 -12q-17 0 -27.5 12.5t-9.5 32.5z" />
<glyph unicode="u" horiz-adv-x="1052" d="M168 1051q0 16 16.5 27.5t44.5 11.5q98 -5 123 -5l101 5q53 0 53 -33q0 -47 -90 -47h-45l-27 -242q-7 -66 -20 -171.5t-20 -170t-7 -98.5q0 -265 235 -265q75 0 131 24t90.5 69.5t53.5 102.5t27 132q29 334 34 377l27 242h-45q-82 0 -82 41q0 39 61 39q64 -5 101 -5 l123 5q25 0 39 -9.5t14 -23.5q0 -47 -90 -47h-39l-27 -256l-35 -363q-7 -65 -23 -121.5t-46.5 -110.5t-73 -92.5t-106 -61.5t-142.5 -23q-86 0 -148 28.5t-96 78.5t-49.5 109t-15.5 130q0 33 7.5 97.5t20 161.5t19.5 167l27 256h-39q-82 0 -82 41z" />
<glyph unicode="v" horiz-adv-x="1017" d="M127 1049q0 41 61 41q78 -3 121 -3h80q53 0 53 -32q0 -23 -17.5 -34t-62.5 -11q-24 2 -51 2q37 -154 104 -476t81 -399q10 -61 22 -61q14 0 35 61q23 63 159 387t208 488l-50 -2q-39 0 -55 9t-16 30q0 15 15 26.5t46 11.5l201 3q53 0 53 -33q0 -9 -2.5 -15.5t-10 -14.5 t-27.5 -12.5t-50 -4.5h-20l-342 -826q-20 -47 -32 -72.5t-33 -61t-43 -52t-46 -16.5q-16 0 -30 7.5t-25 25.5t-18.5 33t-15.5 44t-11.5 44t-10.5 48q-10 45 -79.5 385t-90.5 441h-18q-82 0 -82 39z" />
<glyph unicode="w" horiz-adv-x="1384" d="M131 1049q0 41 62 41q77 -3 200 -3q53 0 53 -32q0 -23 -17 -34t-62 -11q-27 2 -52 2q24 -134 77 -493.5t57 -381.5q10 -61 12 -61t4 2t4 7.5t3.5 11t5.5 17.5t7 23q11 31 118 400t145 483q22 67 61 67q21 0 32 -11.5t15 -45.5q17 -114 43.5 -490t30.5 -403q2 -11 3 -22.5 t1.5 -17.5t1.5 -11.5t2.5 -7.5t3.5 -2q4 0 25 61q8 21 71 198.5t134.5 376t111.5 300.5l-51 -2q-39 0 -55.5 9t-16.5 30q0 15 15.5 26.5t46.5 11.5l200 3q54 0 54 -33q0 -12 -4 -20.5t-25.5 -17.5t-61.5 -9h-18q-227 -622 -297 -826q-4 -9 -15.5 -39t-16.5 -42t-16.5 -36.5 t-19.5 -35t-20 -24.5t-24.5 -19.5t-26.5 -5.5q-25 0 -41 12t-25 41.5t-13.5 60.5t-8.5 88l-60 693q-30 -101 -76.5 -263.5t-80 -281t-43.5 -148.5q-36 -114 -61 -158t-72 -44q-11 0 -20.5 3.5t-17 12t-13.5 16t-11.5 23t-8.5 25t-7 29.5l-6 30t-6 32.5t-5 30.5 q-7 40 -30.5 196.5t-53.5 357.5t-41 272h-18q-82 0 -82 39z" />
<glyph unicode="x" horiz-adv-x="989" d="M25 39q0 16 15 27.5t46 11.5h82l332 459q-105 212 -244 473h-37q-82 0 -82 39q0 41 62 41q77 -3 120 -3h105q53 0 53 -32q0 -23 -18 -34t-62 -11q-24 0 -49 2l209 -404l297 404l-49 -2q-39 0 -55.5 9t-16.5 30q0 16 15 27t47 11h104l121 3q53 0 53 -33q0 -9 -2.5 -15.5 t-10 -14.5t-27.5 -12.5t-50 -4.5h-37q-53 -74 -182 -248t-166 -225l240 -459h82q53 0 53 -33q0 -23 -17.5 -34t-62.5 -11q-55 2 -86 2q-12 0 -36.5 -1t-55.5 -1q-82 0 -82 39q0 41 61 41q20 -2 45 -2q-22 43 -67.5 130.5t-78 151t-50.5 101.5l-279 -383l47 2q54 0 54 -33 q0 -12 -4 -20.5t-25.5 -17.5t-61.5 -9q-30 0 -55 1t-37 1l-86 -2q-39 0 -55 9t-16 30z" />
<glyph unicode="y" horiz-adv-x="901" d="M133 1049q0 41 62 41q77 -3 120 -3h80q54 0 54 -32q0 -23 -17.5 -34t-62.5 -11q-15 0 -33 2l133 -406q27 -90 39 -90q8 0 57 90l217 406l-30 -2q-39 0 -55.5 9t-16.5 30q0 15 15 26.5t46 11.5h80l121 3q53 0 53 -33q0 -9 -2.5 -15.5t-10 -14.5t-27.5 -12.5t-50 -4.5h-35 q-16 -30 -69 -131t-98 -186t-62 -115q-34 -57 -58 -87.5t-51 -37.5q-14 -164 -28 -373h33q81 0 81 -41q0 -39 -61 -39q-63 4 -100 4l-123 -4q-25 0 -39 9.5t-14 23.5q0 47 90 47h49q0 71 14 217l17 164q-26 20 -62 117q-34 92 -141 432h-33q-82 0 -82 39z" />
<glyph unicode="z" horiz-adv-x="847" d="M88 55q0 5 0.5 10t0.5 8.5t1.5 8t2.5 6.5l3.5 7t3.5 6.5t4.5 7t5 7t6.5 8.5t7 9l520 696l111 144q5 5 13.5 17.5t8.5 17.5q0 6 -22 6l-57 -2q-57 -2 -105 -2q-45 0 -171 1t-159 1l-10 -88q-2 -21 -13.5 -33t-31.5 -12q-17 0 -27.5 12.5t-9.5 32.5l14 127q4 45 56 45 q282 -4 376 -4l160 4q90 0 90 -64q0 -20 -7.5 -34.5t-29.5 -43.5q-68 -97 -129 -178q-47 -62 -157.5 -205.5t-193.5 -253.5t-148 -202q-23 -29 -23 -35t29 -6q22 0 94 2t123 2q160 0 278 -4l11 100q2 21 13.5 33t31.5 12q17 0 27.5 -12.5t9.5 -32.5l-17 -149q-3 -33 -55 -33 q-230 4 -324 4l-223 -4q-49 0 -68.5 16t-19.5 47z" />
<glyph unicode="{" horiz-adv-x="534" d="M92 381q0 22 13 37.5t40 15.5q54 0 92.5 39t38.5 129q0 12 -1 39t-1 39v74q0 79 21 141.5t52 99t70 60.5t71.5 32.5t60.5 8.5q47 0 47 -33q0 -25 -14.5 -37t-36.5 -12q-25 0 -54 -11t-61 -36.5t-53 -77t-21 -121.5q0 -12 1 -39t1 -37q0 -9 1 -36t1 -40q0 -167 -98 -229 q60 -44 60 -141q0 -42 -27 -164q-31 -139 -31 -168q0 -41 16 -72.5t40.5 -48t48.5 -25t45 -8.5q41 0 41 -39q0 -43 -56 -43q-30 0 -64.5 12t-70.5 36.5t-59 71.5t-23 108q0 56 31 188q27 106 27 142q0 53 -30.5 78.5t-74.5 25.5q-22 0 -32.5 12t-10.5 29z" />
<glyph unicode="|" horiz-adv-x="401" d="M152 -164q0 28 19 233.5t44 465.5t31 327q28 313 30 322q4 24 12 35.5t31 11.5q22 0 30.5 -11t8.5 -34q0 -4 -4.5 -54t-12.5 -133.5t-13 -134.5q-7 -76 -30.5 -329.5t-43 -465t-21.5 -225.5q-6 -47 -47 -47q-34 0 -34 39z" />
<glyph unicode="}" horiz-adv-x="536" d="M20 -289q0 49 50 49q26 0 55 11t60.5 36.5t52 77t20.5 121.5v76q0 9 -1 36t-1 40q0 167 98 229q-61 45 -61 141q0 17 3 39.5t5.5 35.5t10.5 46t10 43q30 135 30 168q0 53 -27.5 90t-59.5 50.5t-62 13.5q-41 0 -41 39q0 43 55 43q30 0 64.5 -12t70.5 -36.5t59 -71.5 t23 -108q0 -38 -33 -188q-24 -110 -24 -141q0 -53 30 -79t74 -26q22 0 32.5 -12t10.5 -29q0 -22 -13.5 -37.5t-39.5 -15.5q-54 0 -92.5 -39t-38.5 -129q0 -12 1 -39t1 -39v-71q0 -79 -21 -142.5t-51.5 -100t-69.5 -61t-71.5 -33t-60.5 -8.5q-48 0 -48 33z" />
<glyph unicode="~" horiz-adv-x="856" d="M180 590q0 20 23 43q103 108 209 108q39 0 73.5 -10t50.5 -18.5t44 -26.5q44 -31 79 -31q29 0 54 21q37 29 53 29q33 0 33 -33q0 -23 -23 -43q-60 -56 -127 -56q-25 0 -47.5 6.5t-35.5 14.5t-34 22q-23 15 -34 21t-37.5 14t-57.5 8q-75 0 -139 -73q-30 -33 -47 -33 q-10 0 -23.5 10t-13.5 27z" />
<glyph unicode="&#xa1;" horiz-adv-x="409" d="M158 -18q0 4 6.5 55.5t21 174.5t29.5 257q7 68 17.5 135t17.5 100l6 33q4 47 35 47q16 0 23 -7t6.5 -17.5t-1.5 -22.5q-16 -120 -51 -422q-9 -81 -16 -163t-10 -124l-2 -42q-2 -19 -13 -31t-30 -12q-39 0 -39 39zM236 1018q0 36 29.5 62t62.5 26q28 0 49.5 -22t21.5 -52 q0 -33 -28.5 -60.5t-61.5 -27.5q-32 0 -52.5 21t-20.5 53z" />
<glyph unicode="&#xa2;" horiz-adv-x="935" d="M133 506q0 125 36 226.5t97 166t135.5 101t155.5 42.5q3 30 7.5 60t6.5 45.5t2 17.5q4 45 48 45q38 0 34 -43q-10 -51 -20 -127q126 -16 209 -137l10 94q2 22 13 34.5t30 12.5q43 0 39 -43l-21 -198q-1 -20 -13.5 -32.5t-31.5 -12.5q-13 0 -26.5 10.5t-21.5 21.5 t-20.5 31t-15.5 25q-44 60 -92.5 88.5t-111.5 28.5q-69 0 -133.5 -29t-117 -83t-84.5 -141t-32 -194q0 -83 26.5 -149t69.5 -104t92.5 -57.5t100.5 -19.5q30 0 59.5 5t52 12t47.5 20t39.5 21.5t35.5 26t28.5 24.5t25 24t19.5 19q29 29 47 29q27 0 27 -29q0 -13 -11 -36 t-32 -44q-137 -137 -314 -152l-4 -112q-7 -43 -45 -43q-37 0 -37 39q0 11 9 116q-62 6 -117 33t-101 74t-73 123t-27 170z" />
<glyph unicode="&#xa3;" horiz-adv-x="796" d="M72 43q0 15 15 26t46 11h80q10 68 35 303h-55q-80 0 -80 41q0 16 14 27.5t45 11.5q37 -2 84 -2q6 46 12 96.5t10.5 96t6.5 61.5q4 43 8.5 73.5t14.5 74.5t23 74.5t36 65t52.5 55t72.5 34.5t96 14q103 0 161 -74.5t58 -171.5q0 -63 -43 -63q-39 0 -39 59q0 63 -36.5 115.5 t-108.5 52.5q-37 0 -66.5 -11t-50 -27t-37 -43.5t-25.5 -51t-16.5 -59.5t-10.5 -58.5t-7 -58.5q-2 -16 -6.5 -61.5t-10.5 -96t-12 -96.5h2l211 4q27 0 40 -9.5t13 -23.5q0 -47 -92 -47q-14 0 -73 -1t-107 -1h-2l-35 -303h139l223 4q54 0 54 -33q0 -47 -90 -47q-25 0 -83 -2 t-132 -2q-88 0 -143.5 0.5t-78.5 1t-30 0.5q-82 0 -82 41z" />
<glyph unicode="&#xa5;" horiz-adv-x="962" d="M162 1049q0 41 61 41q78 -3 121 -3h80q53 0 53 -32q0 -23 -17.5 -34t-62.5 -11q-14 0 -32 2l133 -406q27 -90 39 -90q8 0 57 90l217 406l-31 -2q-39 0 -55 9t-16 30q0 15 15 26.5t46 11.5h80l121 3q53 0 53 -33q0 -9 -2.5 -15.5t-10 -14.5t-27.5 -12.5t-50 -4.5h-35 q-16 -30 -69 -131t-98 -186t-62 -115q-37 -64 -60 -91l156 7q55 0 55 -33q0 -47 -92 -47q-15 0 -72 -2t-100 -2l-8 -88l201 6q53 0 53 -33q0 -47 -90 -47q-15 0 -71 -2t-99 -2l-11 -164h33q82 0 82 -41q0 -39 -61 -39q-64 4 -101 4l-123 -4q-25 0 -39 9.5t-14 23.5 q0 47 90 47h50q0 60 8 164q-42 0 -97 2t-69 2q-82 0 -82 41q0 16 15 27.5t46 11.5q97 -6 195 -6l8 88q-42 0 -97 2t-69 2q-80 0 -80 41q0 16 14.5 27.5t45.5 11.5q82 -5 170 -7q-12 20 -39 91q-41 111 -142 432h-32q-82 0 -82 39z" />
<glyph unicode="&#xa6;" horiz-adv-x="407" d="M145 -166q0 10 6.5 73.5t22 205.5t27.5 256q3 47 45 47q44 0 37 -58l-56 -516q-1 -23 -14.5 -35t-32.5 -12q-35 0 -35 39zM231 649q0 10 6.5 73.5t22 205.5t27.5 256q3 47 45 47q44 0 37 -57l-56 -517q-1 -23 -14.5 -35t-32.5 -12q-35 0 -35 39z" />
<glyph unicode="&#xa7;" horiz-adv-x="913" d="M63 -297l31 297q1 20 14.5 32.5t32.5 12.5q25 0 33.5 -20.5t15 -60.5t21.5 -66q47 -80 115 -123t147 -43q115 0 187.5 54.5t72.5 164.5q0 38 -13.5 68t-32 49t-53.5 37.5t-60.5 28t-72.5 25.5t-71 25q-113 44 -147 64q-100 60 -111 172q-2 16 -2 33q0 111 70 194 q-35 50 -35 135q0 146 103 235t257 89q97 0 153 -45t81 -109l12 107q3 47 41 47q45 0 41 -43l-27 -244q-2 -20 -14 -32.5t-31 -12.5q-25 0 -34 15.5t-16.5 47.5t-22.5 54q-45 67 -90 100t-101 33q-115 0 -191.5 -62t-76.5 -163q0 -36 12 -65t29.5 -48t49 -37.5t56 -29 t66.5 -25.5q18 -7 51.5 -18.5t52 -18t48 -18t47 -20.5t41.5 -23.5t37.5 -28t29.5 -32.5t24 -39.5t13.5 -46.5t5.5 -56q0 -118 -72 -199q37 -49 37 -133q0 -153 -99.5 -232t-254.5 -79q-66 0 -119 16.5t-88 46.5t-56.5 58.5t-39.5 64.5l-15 -129q-3 -47 -41 -47q-45 0 -41 43 zM254 467q0 -36 12 -65t29.5 -48t49 -37.5t56 -29t66.5 -25.5q21 -8 68.5 -24.5t72.5 -26t59 -26t58 -33.5q45 58 45 131q0 38 -14 68t-32.5 49t-53.5 37.5t-61 28t-72.5 25.5t-71.5 25q-7 3 -35 13t-39 14.5t-32 13.5t-36 17.5t-28 17.5q-41 -53 -41 -125z" />
<glyph unicode="&#xa8;" horiz-adv-x="677" d="M172 1051q0 36 27 62t63 26q29 0 50.5 -22.5t21.5 -53.5q0 -34 -28 -60t-60 -26q-28 0 -51 22t-23 52zM565 1051q0 36 27 62t63 26q29 0 50.5 -22.5t21.5 -53.5q0 -34 -28 -60t-60 -26q-28 0 -51 22t-23 52z" />
<glyph unicode="&#xa9;" horiz-adv-x="1204" d="M139 473q0 123 43 238t117.5 202.5t184.5 140t235 52.5q142 0 249 -72t159.5 -186t52.5 -250q0 -144 -50.5 -263.5t-133.5 -195t-186 -116.5t-212 -41q-94 0 -175 30t-145.5 88t-101.5 154t-37 219zM221 475q0 -107 30.5 -188t85.5 -129t124 -71.5t151 -23.5q76 0 147 21 t133 64t107.5 104.5t72 148.5t26.5 189q0 180 -107.5 307t-279.5 127q-100 0 -191 -45t-156.5 -120t-104 -175.5t-38.5 -208.5zM416 496q0 76 19.5 137t49.5 98.5t68 63t73.5 35.5t67.5 10q81 0 124.5 -39.5t43.5 -95.5q0 -52 -43 -52q-39 0 -39 45q0 21 -24.5 40.5 t-71.5 19.5q-28 0 -57.5 -12.5t-59.5 -39.5t-49.5 -79t-19.5 -121q0 -49 13.5 -85.5t35 -55t43.5 -27t43 -8.5q57 0 93 20t38 41q3 43 47 43q35 0 35 -35q0 -59 -60 -105t-161 -46q-35 0 -68.5 11.5t-66.5 38t-53.5 77.5t-20.5 121z" />
<glyph unicode="&#xaa;" horiz-adv-x="860" d="M172 774q0 45 82 47q147 323 213 447h-27q-39 0 -53 6.5t-14 23.5q0 37 51 37h149q16 0 29 -4t22 -7.5t18 -15.5l13.5 -18t11.5 -25t9 -26t10 -31q43 -138 100 -387q66 -5 66 -39q0 -41 -61 -41q-39 2 -82 2h-80q-27 0 -40.5 9.5t-13.5 23.5q0 23 17 33t63 10h47l-28 111 q-27 -2 -137 -2q-54 0 -94 1t-54 1l-51 -111h39q40 0 56 -8.5t16 -28.5q0 -16 -15 -27.5t-47 -11.5h-80l-82 -2q-53 0 -53 33zM428 1012q2 0 9.5 -0.5t33.5 -1t74 -0.5q85 0 108 -2l-63 217q-12 39 -25 39q-9 0 -27 -32q-2 -3 -3 -5q-20 -35 -37.5 -69t-39 -80.5 t-30.5 -65.5z" />
<glyph unicode="&#xab;" horiz-adv-x="694" d="M129 338q0 23 27 57l149 199q23 33 47 33q41 0 41 -39q0 -16 -26 -49l-150 -195l109 -194q16 -32 14 -50q-7 -39 -47 -39q-24 0 -41 33l-109 199q-14 28 -14 45zM365 338q0 24 26 57l150 199q23 33 47 33q41 0 41 -39q0 -14 -27 -49l-149 -195l108 -194q16 -32 14 -50 q-7 -39 -47 -39q-24 0 -41 33l-108 199q-14 28 -14 45z" />
<glyph unicode="&#xac;" horiz-adv-x="899" d="M184 559q0 16 15.5 27.5t46.5 11.5q128 -2 239 -2q50 0 152.5 3t153.5 3q27 0 33.5 -20t2.5 -58l-18 -182q-5 -41 -17 -60.5t-36 -19.5q-14 0 -23 15.5t-6 41.5l21 201h-9q-19 0 -107 -1t-155 -1h-211q-82 0 -82 41z" />
<glyph unicode="&#xad;" horiz-adv-x="784" d="M178 500q0 16 15.5 27.5t46.5 11.5q126 -9 237 -9l178 2q27 0 40.5 -9.5t13.5 -22.5q0 -47 -93 -47h-147q-56 0 -124.5 3t-84.5 3q-82 0 -82 41z" />
<glyph unicode="&#xae;" horiz-adv-x="724" d="M193 985q0 126 91 216.5t214 90.5q107 0 178.5 -74t71.5 -182q0 -124 -93 -214.5t-217 -90.5q-105 0 -175 73.5t-70 180.5zM262 991q0 -80 53.5 -138t130.5 -58q89 0 159.5 71t70.5 162q0 83 -53.5 142t-130.5 59q-88 0 -159 -72.5t-71 -165.5zM350 889q17 221 19 231 q3 28 14 37.5t49 9.5q164 0 164 -90q0 -70 -64 -100l33 -59q10 -20 10 -31q0 -13 -12.5 -22t-25.5 -9q-19 0 -25 14l-41 91h-51l-6 -72q-2 -13 -11.5 -23t-23.5 -10t-22.5 10t-6.5 23zM426 1022h10q43 0 64.5 11.5t21.5 39.5q0 39 -71 39h-15z" />
<glyph unicode="&#xaf;" horiz-adv-x="915" d="M342 1016q0 16 15 27.5t46 11.5q78 -8 156 -8l178 2q27 0 40.5 -9.5t13.5 -23.5q0 -47 -93 -47h-147q-38 0 -77.5 3t-49.5 3q-82 0 -82 41z" />
<glyph unicode="&#xb0;" horiz-adv-x="643" d="M184 1139q0 116 89 194t198 78q94 0 162.5 -64t68.5 -163q0 -119 -84.5 -199t-199.5 -80q-99 0 -166.5 66t-67.5 168zM266 1141q0 -76 44.5 -120t113.5 -44q81 0 139 56.5t58 146.5q0 70 -45 112.5t-113 42.5q-83 0 -140 -51t-57 -143z" />
<glyph unicode="&#xb1;" horiz-adv-x="757" d="M137 238q0 15 15.5 26.5t46.5 11.5q126 -8 237 -8l178 2q27 0 40.5 -9.5t13.5 -22.5q0 -48 -93 -48h-147q-56 0 -124.5 3.5t-84.5 3.5q-82 0 -82 41zM178 631q0 16 15.5 27.5t46.5 11.5q77 -6 161 -8l21 180q3 47 43 47q44 0 37 -58l-19 -169l172 2q54 0 54 -33 q0 -47 -91 -47h-143l-18 -183q-6 -47 -47 -47q-35 0 -35 39q0 21 18 191q-25 1 -70.5 3.5t-62.5 2.5q-82 0 -82 41z" />
<glyph unicode="&#xb2;" horiz-adv-x="567" d="M170 594q7 53 39 100.5t73 80t81 61t67 56.5t27 54q0 68 -78 68q-35 0 -55.5 -20.5t-22.5 -41.5q-3 -43 -49 -43q-35 0 -35 35q0 58 45.5 105t124.5 47q73 0 112.5 -38.5t39.5 -101.5q0 -41 -24.5 -77t-61.5 -64.5t-75 -55.5t-72 -62t-46 -72l186 2v8q0 21 12 34t31 13 q22 0 28.5 -11t4.5 -32l-4 -51q-2 -20 -21.5 -30.5t-68.5 -10.5q-36 0 -102 -1t-111 -1q-24 0 -35.5 14.5t-9.5 34.5z" />
<glyph unicode="&#xb3;" horiz-adv-x="530" d="M170 635q0 19 11.5 31t27.5 12q11 0 22 -13t31.5 -26.5t54.5 -13.5q47 0 74 24.5t27 67.5q0 34 -20 55t-60 21q-37 0 -37 28q0 41 57 41q33 0 58.5 21.5t25.5 66.5q0 72 -71 72q-33 0 -51.5 -14.5t-20.5 -36.5q-3 -43 -47 -43q-35 0 -35 35q0 55 46.5 98t125.5 43 q73 0 108 -43t27 -119q0 -3 -1.5 -8.5t-7 -21.5t-14 -30t-24.5 -31t-37 -28q29 -19 43.5 -48.5t14.5 -49.5v-20q-8 -76 -57.5 -119t-131.5 -43q-67 0 -103 30t-36 62z" />
<glyph unicode="&#xb4;" horiz-adv-x="466" d="M168 1014q0 26 53 47q22 9 106 52t99 50q43 21 63 21q14 0 24.5 -14t10.5 -33q0 -16 -9.5 -28t-41.5 -26q-118 -52 -219 -90q-38 -14 -49 -14q-20 0 -28.5 11t-8.5 24z" />
<glyph unicode="&#xb6;" horiz-adv-x="1097" d="M135 612q0 89 18.5 161.5t48.5 122t72.5 86.5t85.5 58.5t93.5 34.5t90.5 17t81 4q2 0 148.5 -2t164.5 -2l166 4q53 0 53 -33q0 -47 -90 -47h-66q-18 -104 -36 -301q-13 -135 -27 -308t-22 -279l-7 -105q-4 -20 -13.5 -30.5t-33.5 -10.5q-19 0 -28.5 12t-6.5 29v53 q0 45 9 150t22.5 232.5t26 238.5t24.5 210.5t13 106.5q-45 -2 -177 -2q-1 -9 -15.5 -181.5t-22.5 -257.5l-64 -546q-2 -18 -13.5 -31.5t-29.5 -13.5q-45 0 -39 45q13 110 27 235q-14 -2 -45 -2q-64 0 -116 7t-109 29.5t-95 59.5t-63 102.5t-25 153.5z" />
<glyph unicode="&#xb7;" horiz-adv-x="450" d="M184 616q0 50 36 83.5t85 33.5q38 0 67 -30t29 -70q0 -47 -38 -81t-80 -34q-38 0 -68.5 28.5t-30.5 69.5z" />
<glyph unicode="&#xb8;" horiz-adv-x="468" d="M27 -324q0 18 11 30.5t23 12.5q13 0 44.5 -17t78.5 -17q51 0 84 25t33 61q0 17 -9.5 27t-28 14t-30.5 5t-32 1h-31q-31 0 -48 7.5t-19.5 23t2.5 33.5t18 44q27 56 31 68q22 57 57 57q37 0 37 -24v-6.5t-0.5 -5t-2 -6t-2.5 -6.5t-4.5 -10t-6 -12.5t-8.5 -17t-11 -22.5 q-8 -18 -8.5 -27.5t3.5 -11.5t13 -2q27 0 42 -1t41 -6.5t41 -17t26.5 -34.5t11.5 -56q0 -78 -57.5 -130t-149.5 -52q-44 0 -96.5 18t-52.5 55z" />
<glyph unicode="&#xb9;" horiz-adv-x="473" d="M186 586q0 39 62 39h33q3 44 11.5 129t14.5 148.5t6 64.5q0 6 -2 6q-5 0 -43 -31q-25 -20 -43 -20q-12 0 -20 9.5t-8 24.5q0 14 24 38t60 52l36 27q27 23 50 23q39 0 39 -45q0 -6 -21.5 -208t-22.5 -218h33q54 0 54 -33q0 -23 -17.5 -34t-62.5 -11h-101q-82 0 -82 39z " />
<glyph unicode="&#xba;" horiz-adv-x="694" d="M195 1004q0 157 83.5 248t208.5 91q103 0 166.5 -70t63.5 -194q0 -158 -83.5 -248t-209.5 -90q-98 0 -163.5 69.5t-65.5 193.5zM276 1006q0 -90 41.5 -136.5t114.5 -46.5q91 0 147 64t56 186q0 92 -42 140.5t-114 48.5q-91 0 -147 -67t-56 -189z" />
<glyph unicode="&#xbb;" horiz-adv-x="694" d="M137 100q0 15 27 50l149 194l-108 195q-1 2 -6 11t-6.5 13t-3.5 11.5t-1 13.5q7 39 50 39q24 0 41 -33l106 -199q16 -26 16 -45q0 -25 -26 -57l-150 -199q-23 -33 -47 -33q-41 0 -41 39zM373 100q0 17 26 50l150 194l-109 195q-18 35 -16 49q7 39 49 39q24 0 41 -33 l107 -199q16 -26 16 -45q0 -23 -27 -57l-149 -199q-23 -33 -47 -33q-41 0 -41 39z" />
<glyph unicode="&#xbc;" horiz-adv-x="917" d="M147 586q0 39 62 39h33q3 44 11.5 129t14.5 148.5t6 64.5q0 6 -2 6q-5 0 -43 -31q-25 -20 -43 -20q-12 0 -20 9.5t-8 24.5q0 14 24.5 38t60.5 52l36 27q27 23 49 23q39 0 39 -45q0 -6 -21 -208.5t-22 -217.5h32q54 0 54 -33q0 -23 -17.5 -34t-62.5 -11h-101q-82 0 -82 39 zM211 -82q0 9 12 41l430 1157q17 45 49 45q20 0 30.5 -12t10.5 -25q0 -9 -10 -39l-434 -1157q-16 -47 -53 -47q-17 0 -26 11.5t-9 25.5zM498 203q0 25 22 47l232 262q25 31 51 31q43 0 37 -47l-27 -258h16q54 0 54 -31q0 -39 -78 -41q-8 -79 -8 -100h12q53 0 53 -35 q0 -23 -17 -33t-63 -10h-104q-57 0 -57 35q0 16 13.5 29.5t47.5 13.5h33l8 100q-53 -2 -164 -2q-61 0 -61 39zM598 236h133l19 178q-11 -14 -43.5 -54t-59 -70.5t-49.5 -53.5z" />
<glyph unicode="&#xbd;" horiz-adv-x="909" d="M145 586q0 39 62 39h33q3 44 11.5 129t14.5 148.5t6 64.5q0 6 -2 6q-5 0 -43 -31q-25 -20 -43 -20q-12 0 -20 9.5t-8 24.5q0 14 24 38t60 52l36 27q27 23 50 23q39 0 39 -45q0 -6 -21 -208.5t-22 -217.5h32q54 0 54 -33q0 -23 -17.5 -34t-62.5 -11h-101q-82 0 -82 39z M209 -82q0 9 12 41l430 1157q17 45 49 45q20 0 30.5 -12t10.5 -25q0 -9 -10 -39l-434 -1157q-16 -47 -53 -47q-17 0 -26 11.5t-9 25.5zM506 47q7 53 39 100.5t73 80t81 61t67 56.5t27 54q0 68 -78 68q-35 0 -55.5 -20t-22.5 -41q-2 -20 -14.5 -32t-34.5 -12q-35 0 -35 35 q0 58 45.5 105t124.5 47q73 0 113.5 -38t40.5 -101q0 -41 -24.5 -77t-62 -64.5t-76 -56t-72.5 -62.5t-46 -72l186 2v8q0 21 12 34t31 13q39 0 35 -43l-6 -51q-2 -20 -21.5 -30.5t-68.5 -10.5q-36 0 -102 -1t-111 -1q-24 0 -35.5 14.5t-9.5 34.5z" />
<glyph unicode="&#xbe;" horiz-adv-x="989" d="M127 635q0 19 11.5 31t27.5 12q11 0 22 -13t31.5 -26.5t54.5 -13.5q47 0 74 24.5t27 67.5q0 34 -20 55t-60 21q-37 0 -37 28q0 41 57 41q33 0 58.5 21.5t25.5 66.5q0 72 -71 72q-33 0 -51.5 -14.5t-20.5 -36.5q-3 -43 -47 -43q-35 0 -35 35q0 55 46.5 98t125.5 43 q73 0 108 -43t27 -119q0 -3 -1.5 -8.5t-7 -21.5t-14 -30t-24.5 -31t-37 -28q29 -19 43.5 -48.5t14.5 -49.5v-20q-8 -76 -57.5 -119t-131.5 -43q-67 0 -103 30t-36 62zM283 -82q0 9 12 41l430 1157q17 45 51 45q20 0 29.5 -12t9.5 -25q0 -4 -10 -39l-432 -1157 q-16 -47 -56 -47q-17 0 -25.5 11.5t-8.5 25.5zM571 203q0 26 21 47l231 262q17 19 27 25t24 6q20 0 31 -11.5t8 -35.5l-26 -258h16q53 0 53 -31q0 -10 -3.5 -17.5t-22 -15t-51.5 -8.5q-9 -88 -9 -100h13q27 0 40 -10.5t13 -24.5q0 -23 -17 -33t-63 -10h-104q-58 0 -58 35 q0 16 14 29.5t48 13.5h32l9 100q-53 -2 -164 -2q-62 0 -62 39zM670 236h133l20 178q-9 -11 -43.5 -53t-60.5 -72t-49 -53z" />
<glyph unicode="&#xbf;" horiz-adv-x="675" d="M90 211q0 58 22.5 111.5t56.5 93t74.5 83.5t76.5 83.5t63 92.5t33 109q5 52 43 52q39 0 39 -45q0 -54 -18 -104t-46.5 -88.5t-63.5 -75t-70 -71t-63.5 -68.5t-46.5 -75.5t-18 -85.5q0 -73 44.5 -116.5t127.5 -43.5q50 1 91 19.5t65 47t38 59t17 59.5q2 18 14 30.5 t33 12.5q19 0 28 -11t9 -26q0 -43 -21 -89.5t-58.5 -88t-96.5 -68t-127 -26.5q-117 0 -181.5 59.5t-64.5 169.5zM399 1020q0 34 28 60t60 26q28 0 51 -22t23 -52q0 -36 -27 -62t-63 -26q-29 0 -50.5 22.5t-21.5 53.5z" />
<glyph unicode="&#xc0;" d="M12 39q0 16 15.5 27.5t46.5 11.5h55l18 43l377 891h-20q-39 0 -55.5 9t-16.5 30q0 16 15.5 27.5t46.5 11.5h129q33 0 46.5 -11t20.5 -49q63 -291 94 -434q14 -70 61.5 -284t51.5 -234h57q54 0 54 -33q0 -23 -17.5 -34t-62.5 -11q-35 2 -66 2q-12 0 -37 -1t-55 -1 q-82 0 -82 39q0 41 62 41q26 -2 57 -2q-27 101 -74 317q-51 -10 -201 -10q-57 0 -107.5 1t-72.5 1l-137 -309l64 2q53 0 53 -33q0 -9 -2.5 -15.5t-10 -14.5t-27.5 -12.5t-50 -4.5q-29 0 -50 1t-40 1l-68 -2q-39 0 -55.5 9t-16.5 30zM387 471q82 -4 154 -4q131 0 178 2 l-90 469q-1 6 -3 17t-3.5 16.5t-3.5 12.5t-4 10t-5 3q-15 0 -39 -69q-52 -134 -184 -457zM418 1341q0 21 15 38.5t32 17.5q21 0 59 -21q14 -7 88 -50t93 -52q45 -19 45 -43q0 -13 -11.5 -26t-33.5 -13q-12 0 -46 14q-85 35 -198 90q-43 21 -43 45z" />
<glyph unicode="&#xc1;" d="M12 39q0 16 15.5 27.5t46.5 11.5h55l18 43l377 891h-20q-39 0 -55.5 9t-16.5 30q0 16 15.5 27.5t46.5 11.5h129q33 0 46.5 -11t20.5 -49q63 -291 94 -434q14 -70 61.5 -284t51.5 -234h57q54 0 54 -33q0 -23 -17.5 -34t-62.5 -11q-35 2 -66 2q-12 0 -37 -1t-55 -1 q-82 0 -82 39q0 41 62 41q26 -2 57 -2q-27 101 -74 317q-51 -10 -201 -10q-57 0 -107.5 1t-72.5 1l-137 -309l64 2q53 0 53 -33q0 -9 -2.5 -15.5t-10 -14.5t-27.5 -12.5t-50 -4.5q-29 0 -50 1t-40 1l-68 -2q-39 0 -55.5 9t-16.5 30zM387 471q82 -4 154 -4q131 0 178 2 l-90 469q-1 6 -3 17t-3.5 16.5t-3.5 12.5t-4 10t-5 3q-15 0 -39 -69q-52 -134 -184 -457zM467 1227q0 26 53 47q22 9 106 52t99 50q43 21 63 21q14 0 24.5 -14t10.5 -33q0 -16 -9.5 -28t-41.5 -26q-118 -52 -219 -90q-38 -14 -49 -14q-20 0 -28.5 11t-8.5 24z" />
<glyph unicode="&#xc2;" d="M12 39q0 16 15.5 27.5t46.5 11.5h55l18 43l377 891h-20q-39 0 -55.5 9t-16.5 30q0 16 15.5 27.5t46.5 11.5h129q33 0 46.5 -11t20.5 -49q63 -291 94 -434q14 -70 61.5 -284t51.5 -234h57q54 0 54 -33q0 -23 -17.5 -34t-62.5 -11q-35 2 -66 2q-12 0 -37 -1t-55 -1 q-82 0 -82 39q0 41 62 41q26 -2 57 -2q-27 101 -74 317q-51 -10 -201 -10q-57 0 -107.5 1t-72.5 1l-137 -309l64 2q53 0 53 -33q0 -9 -2.5 -15.5t-10 -14.5t-27.5 -12.5t-50 -4.5q-29 0 -50 1t-40 1l-68 -2q-39 0 -55.5 9t-16.5 30zM387 471q82 -4 154 -4q131 0 178 2 l-90 469q-1 6 -3 17t-3.5 16.5t-3.5 12.5t-4 10t-5 3q-15 0 -39 -69q-52 -134 -184 -457zM426 1219q0 15 23 41q23 25 71 79t60 66q3 3 10.5 11t11 11t11 9.5t12.5 9.5t12.5 7t15 5.5t15.5 1.5q18 0 34 -10t23 -18.5t20 -26.5q4 -6 42.5 -61.5t58.5 -83.5q14 -17 14 -35 q0 -21 -14 -32t-31 -11q-22 0 -41 30l-84 115q-3 4 -8 10.5t-7 9t-5.5 6t-6 4.5t-6.5 1q-6 0 -9.5 -2.5t-12 -12.5t-14.5 -16q-93 -97 -109 -115q-26 -30 -49 -30q-14 0 -25.5 9.5t-11.5 27.5z" />
<glyph unicode="&#xc3;" d="M12 39q0 16 15.5 27.5t46.5 11.5h55l18 43l377 891h-20q-39 0 -55.5 9t-16.5 30q0 16 15.5 27.5t46.5 11.5h129q33 0 46.5 -11t20.5 -49q63 -291 94 -434q14 -70 61.5 -284t51.5 -234h57q54 0 54 -33q0 -23 -17.5 -34t-62.5 -11q-35 2 -66 2q-12 0 -37 -1t-55 -1 q-82 0 -82 39q0 41 62 41q26 -2 57 -2q-27 101 -74 317q-51 -10 -201 -10q-57 0 -107.5 1t-72.5 1l-137 -309l64 2q53 0 53 -33q0 -9 -2.5 -15.5t-10 -14.5t-27.5 -12.5t-50 -4.5q-29 0 -50 1t-40 1l-68 -2q-39 0 -55.5 9t-16.5 30zM281 1206q0 21 22 43q104 109 209 109 q39 0 73.5 -10t50.5 -18.5t44 -26.5q44 -31 78 -31q30 0 53 20q37 29 55 29q33 0 33 -33q0 -24 -22 -43q-59 -55 -127 -55q-57 0 -119 43q-1 1 -9 6t-10 6t-9.5 5.5t-11 6t-11 5t-12.5 5t-13 4t-15.5 3t-16.5 1.5t-19 1q-74 0 -139 -74q-30 -33 -48 -33q-11 0 -23.5 10 t-12.5 27zM387 471q82 -4 154 -4q131 0 178 2l-90 469q-1 6 -3 17t-3.5 16.5t-3.5 12.5t-4 10t-5 3q-15 0 -39 -69q-52 -134 -184 -457z" />
<glyph unicode="&#xc4;" d="M12 39q0 16 15.5 27.5t46.5 11.5h55l18 43l377 891h-20q-39 0 -55.5 9t-16.5 30q0 16 15.5 27.5t46.5 11.5h129q33 0 46.5 -11t20.5 -49q63 -291 94 -434q14 -70 61.5 -284t51.5 -234h57q54 0 54 -33q0 -23 -17.5 -34t-62.5 -11q-35 2 -66 2q-12 0 -37 -1t-55 -1 q-82 0 -82 39q0 41 62 41q26 -2 57 -2q-27 101 -74 317q-51 -10 -201 -10q-57 0 -107.5 1t-72.5 1l-137 -309l64 2q53 0 53 -33q0 -9 -2.5 -15.5t-10 -14.5t-27.5 -12.5t-50 -4.5q-29 0 -50 1t-40 1l-68 -2q-39 0 -55.5 9t-16.5 30zM371 1264q0 36 27 62t63 26 q29 0 50 -22.5t21 -53.5q0 -34 -28 -60t-60 -26q-28 0 -50.5 22t-22.5 52zM387 471q82 -4 154 -4q131 0 178 2l-90 469q-1 6 -3 17t-3.5 16.5t-3.5 12.5t-4 10t-5 3q-15 0 -39 -69q-52 -134 -184 -457zM764 1264q0 36 27 62t63 26q29 0 50.5 -22.5t21.5 -53.5q0 -34 -28 -60 t-60 -26q-28 0 -51 22t-23 52z" />
<glyph unicode="&#xc5;" d="M12 39q0 16 15.5 27.5t46.5 11.5h55l18 43l377 891h-20q-39 0 -55.5 9t-16.5 30q0 16 15.5 27.5t46.5 11.5h129q33 0 46.5 -11t20.5 -49q63 -291 94 -434q14 -70 61.5 -284t51.5 -234h57q54 0 54 -33q0 -23 -17.5 -34t-62.5 -11q-35 2 -66 2q-12 0 -37 -1t-55 -1 q-82 0 -82 39q0 41 62 41q26 -2 57 -2q-27 101 -74 317q-51 -10 -201 -10q-57 0 -107.5 1t-72.5 1l-137 -309l64 2q53 0 53 -33q0 -9 -2.5 -15.5t-10 -14.5t-27.5 -12.5t-50 -4.5q-29 0 -50 1t-40 1l-68 -2q-39 0 -55.5 9t-16.5 30zM387 471q82 -4 154 -4q131 0 178 2 l-90 469q-1 6 -3 17t-3.5 16.5t-3.5 12.5t-4 10t-5 3q-15 0 -39 -69q-52 -134 -184 -457zM469 1343q0 64 35.5 112.5t80.5 69.5t87 21q62 0 118 -43t56 -114q0 -85 -59 -146t-148 -61q-79 0 -124.5 41.5t-45.5 119.5zM551 1354q0 -44 25.5 -67t70.5 -23q51 0 83 35t32 83 q0 37 -31.5 59.5t-66.5 22.5q-39 0 -76 -29t-37 -81z" />
<glyph unicode="&#xc6;" horiz-adv-x="1316" d="M12 39q0 16 15.5 27.5t46.5 11.5h55l410 934h-21q-39 0 -55.5 9t-16.5 30q0 16 15.5 27.5t46.5 11.5h186q40 0 131 -2.5t146 -2.5q28 0 175 3l148 2q20 0 33 -10t12 -27l-18 -172q-1 -20 -14 -32.5t-31 -12.5q-40 0 -37 45q12 88 16 127h-444q-8 -74 -39 -428q18 0 58 2 t69 2l188 -2q54 0 54 -33q0 -47 -90 -47q-19 0 -57 2t-103 2q-21 0 -60.5 -2t-64.5 -2q-1 -21 -5 -58.5t-5 -52.5q-3 -28 -35 -311h41q83 0 228.5 1t166.5 1l12 127q2 21 13.5 33t31.5 12q15 0 26 -11.5t11 -29.5q0 -5 -2 -19.5t-5 -35.5t-5 -37q0 -1 -6 -86 q-1 -16 -14 -25.5t-29 -9.5q-261 -2 -610 -2q-72 0 -72 41q0 16 15 27.5t46 11.5h70q1 13 9 77t15 126.5t11 103.5q-16 -1 -35.5 -1t-47 0.5t-44.5 0.5q-57 0 -115 1t-80 1l-137 -309l64 2q53 0 53 -33q0 -9 -2.5 -15.5t-10 -14.5t-27.5 -12.5t-50 -4.5q-29 0 -50 1t-40 1 l-68 -2q-39 0 -55.5 9t-16.5 30zM387 471q82 -4 168 -4h125q40 457 49 543h-113q-5 -13 -93.5 -218.5t-135.5 -320.5z" />
<glyph unicode="&#xc7;" horiz-adv-x="991" d="M133 449q0 126 29 234.5t78.5 185t115 131t138.5 80.5t149 26q96 0 163 -48t109 -114l13 115q3 47 41 47q45 0 41 -43l-27 -250q-1 -20 -13.5 -32.5t-31.5 -12.5q-21 0 -35.5 19.5t-27 55t-17.5 44.5q-77 137 -223 137q-79 0 -154 -38t-134.5 -107t-95.5 -178t-36 -240 q0 -101 29.5 -180.5t77.5 -125.5t103 -69t112 -23q37 0 71.5 6.5t65 21.5t52.5 27t48 34.5t37 33t33 34.5t24 26q28 28 47 28q27 0 27 -28q0 -12 -11.5 -35.5t-31.5 -44.5q-175 -184 -371 -184h-4l-20 -41q-8 -18 -8.5 -27.5t3.5 -11.5t13 -2q27 0 42 -1t41 -6.5t41 -17 t26.5 -34.5t11.5 -56q0 -78 -57.5 -130t-149.5 -52q-44 0 -97 18t-53 55q0 18 11.5 30.5t23.5 12.5q13 0 44.5 -17t78.5 -17q51 0 84 25t33 61q0 17 -9.5 27t-28 14t-30.5 5t-32 1h-31q-31 0 -48 7.5t-19.5 23t2.5 33.5t18 44q22 50 28 66q-62 13 -115.5 46t-98 87 t-70 137.5t-25.5 186.5z" />
<glyph unicode="&#xc8;" horiz-adv-x="894" d="M84 39q0 16 15 27.5t46 11.5h70q2 16 9.5 80t14.5 128t11 105q48 555 55 619h-61q-56 0 -56 32q0 48 82 48q40 0 131 -2.5t146 -2.5q28 0 175 3l148 2q20 0 33 -10t12 -27l-18 -172q-1 -20 -14 -32.5t-31 -12.5q-40 0 -37 45q12 88 16 127h-444q-8 -74 -39 -428 q18 0 58 2t69 2l189 -2q53 0 53 -33q0 -47 -90 -47q-19 0 -57 2t-103 2q-21 0 -60.5 -2t-64.5 -2q-1 -21 -5 -58.5t-5 -52.5q-3 -29 -35 -311h41q83 0 228.5 1t166.5 1l12 127q2 21 14 33t32 12q15 0 25.5 -11.5t10.5 -29.5q0 -5 -2 -19.5t-5 -35.5t-5 -37q-2 -15 -3 -43 t-3 -43q-3 -17 -15 -26t-28 -9q-261 -2 -610 -2q-72 0 -72 41zM406 1341q0 21 15 38.5t32 17.5q21 0 59 -21q14 -7 87.5 -50t92.5 -52q45 -19 45 -43q0 -13 -11.5 -26t-33.5 -13q-11 0 -45 14q-85 35 -198 90q-43 21 -43 45z" />
<glyph unicode="&#xc9;" horiz-adv-x="894" d="M84 39q0 16 15 27.5t46 11.5h70q2 16 9.5 80t14.5 128t11 105q48 555 55 619h-61q-56 0 -56 32q0 48 82 48q40 0 131 -2.5t146 -2.5q28 0 175 3l148 2q20 0 33 -10t12 -27l-18 -172q-1 -20 -14 -32.5t-31 -12.5q-40 0 -37 45q12 88 16 127h-444q-8 -74 -39 -428 q18 0 58 2t69 2l189 -2q53 0 53 -33q0 -47 -90 -47q-19 0 -57 2t-103 2q-21 0 -60.5 -2t-64.5 -2q-1 -21 -5 -58.5t-5 -52.5q-3 -29 -35 -311h41q83 0 228.5 1t166.5 1l12 127q2 21 14 33t32 12q15 0 25.5 -11.5t10.5 -29.5q0 -5 -2 -19.5t-5 -35.5t-5 -37q-2 -15 -3 -43 t-3 -43q-3 -17 -15 -26t-28 -9q-261 -2 -610 -2q-72 0 -72 41zM393 1227q0 26 53 47q22 9 106 52t99 50q43 21 64 21q14 0 24.5 -14t10.5 -33q0 -16 -10 -28t-42 -26q-118 -52 -219 -90q-38 -14 -49 -14q-20 0 -28.5 11t-8.5 24z" />
<glyph unicode="&#xca;" horiz-adv-x="894" d="M84 39q0 16 15 27.5t46 11.5h70q2 16 9.5 80t14.5 128t11 105q48 555 55 619h-61q-56 0 -56 32q0 48 82 48q40 0 131 -2.5t146 -2.5q28 0 175 3l148 2q20 0 33 -10t12 -27l-18 -172q-1 -20 -14 -32.5t-31 -12.5q-40 0 -37 45q12 88 16 127h-444q-8 -74 -39 -428 q18 0 58 2t69 2l189 -2q53 0 53 -33q0 -47 -90 -47q-19 0 -57 2t-103 2q-21 0 -60.5 -2t-64.5 -2q-1 -21 -5 -58.5t-5 -52.5q-3 -29 -35 -311h41q83 0 228.5 1t166.5 1l12 127q2 21 14 33t32 12q15 0 25.5 -11.5t10.5 -29.5q0 -5 -2 -19.5t-5 -35.5t-5 -37q-2 -15 -3 -43 t-3 -43q-3 -17 -15 -26t-28 -9q-261 -2 -610 -2q-72 0 -72 41zM379 1219q0 16 22 41q23 25 71 79t60 66q2 2 9 9.5t10 10t9.5 8.5t10.5 9t11 7t12.5 6t12.5 3.5t14 1.5q18 0 34 -10t23 -18.5t20 -26.5q4 -6 42.5 -61.5t58.5 -83.5q14 -17 14 -35q0 -21 -14 -32t-31 -11 q-22 0 -41 30l-84 115q-3 4 -8 10.5t-7 9t-5.5 6t-6 4.5t-6.5 1t-8 -2.5t-7 -5.5t-9.5 -10t-12.5 -13q-92 -97 -108 -115q-26 -30 -49 -30q-14 0 -25.5 9.5t-11.5 27.5z" />
<glyph unicode="&#xcb;" horiz-adv-x="894" d="M84 39q0 16 15 27.5t46 11.5h70q2 16 9.5 80t14.5 128t11 105q48 555 55 619h-61q-56 0 -56 32q0 48 82 48q40 0 131 -2.5t146 -2.5q28 0 175 3l148 2q20 0 33 -10t12 -27l-18 -172q-1 -20 -14 -32.5t-31 -12.5q-40 0 -37 45q12 88 16 127h-444q-8 -74 -39 -428 q18 0 58 2t69 2l189 -2q53 0 53 -33q0 -47 -90 -47q-19 0 -57 2t-103 2q-21 0 -60.5 -2t-64.5 -2q-1 -21 -5 -58.5t-5 -52.5q-3 -29 -35 -311h41q83 0 228.5 1t166.5 1l12 127q2 21 14 33t32 12q15 0 25.5 -11.5t10.5 -29.5q0 -5 -2 -19.5t-5 -35.5t-5 -37q-2 -15 -3 -43 t-3 -43q-3 -17 -15 -26t-28 -9q-261 -2 -610 -2q-72 0 -72 41zM291 1264q0 36 27 62t63 26q29 0 50.5 -22.5t21.5 -53.5q0 -34 -28 -60t-60 -26q-28 0 -51 22t-23 52zM684 1264q0 36 27 62t63 26q29 0 50.5 -22.5t21.5 -53.5q0 -34 -28 -60t-60 -26q-28 0 -51 22t-23 52z " />
<glyph unicode="&#xcc;" horiz-adv-x="493" d="M82 31q0 47 90 47h49v39q0 65 37 411.5t55 481.5h-43q-82 0 -82 41q0 16 17 27.5t45 11.5q98 -5 123 -5l100 5q55 0 55 -33q0 -47 -92 -47h-43q-28 -229 -33 -283q-11 -112 -22.5 -250t-21 -256.5t-11.5 -142.5h33q82 0 82 -41q0 -39 -62 -39q-63 4 -100 4l-123 -4 q-25 0 -39 9.5t-14 23.5zM211 1341q0 21 15 38.5t32 17.5q21 0 59 -21q14 -7 88 -50t93 -52q45 -19 45 -43q0 -13 -11.5 -26t-33.5 -13q-11 0 -45 14q-91 37 -199 90q-43 21 -43 45z" />
<glyph unicode="&#xcd;" horiz-adv-x="491" d="M82 31q0 47 90 47h49v39q0 65 37 411.5t55 481.5h-43q-82 0 -82 41q0 16 17 27.5t45 11.5q98 -5 123 -5l100 5q55 0 55 -33q0 -47 -92 -47h-43q-28 -229 -33 -283q-11 -112 -22.5 -250t-21 -256.5t-11.5 -142.5h33q82 0 82 -41q0 -39 -62 -39q-63 4 -100 4l-123 -4 q-25 0 -39 9.5t-14 23.5zM262 1227q0 26 53 47q22 9 106 52t99 50q43 21 64 21q14 0 24 -14t10 -33q0 -16 -9.5 -28t-41.5 -26q-118 -52 -219 -90q-39 -14 -49 -14q-20 0 -28.5 11t-8.5 24z" />
<glyph unicode="&#xce;" horiz-adv-x="491" d="M82 31q0 47 90 47h49v39q0 65 37 411.5t55 481.5h-43q-82 0 -82 41q0 16 17 27.5t45 11.5q98 -5 123 -5l100 5q55 0 55 -33q0 -47 -92 -47h-43q-28 -229 -33 -283q-11 -112 -22.5 -250t-21 -256.5t-11.5 -142.5h33q82 0 82 -41q0 -39 -62 -39q-63 4 -100 4l-123 -4 q-25 0 -39 9.5t-14 23.5zM168 1219q0 16 22 41q23 24 71.5 78.5t60.5 66.5q3 3 10.5 11t11 11t11 9.5t12.5 9.5t12.5 7t15 5.5t15.5 1.5q18 0 34 -10t23 -18.5t20 -26.5q4 -6 42.5 -61.5t58.5 -83.5q14 -17 14 -35q0 -21 -14 -32t-31 -11q-22 0 -41 30l-84 115q-3 4 -8 10.5 t-7 9t-5.5 6t-6 4.5t-6.5 1t-8 -2.5t-7 -5.5t-9.5 -10t-12.5 -13q-92 -97 -108 -115q-26 -30 -49 -30q-14 0 -25.5 9.5t-11.5 27.5z" />
<glyph unicode="&#xcf;" horiz-adv-x="491" d="M82 31q0 47 90 47h49v39q0 65 37 411.5t55 481.5h-43q-82 0 -82 41q0 16 17 27.5t45 11.5q98 -5 123 -5l100 5q55 0 55 -33q0 -47 -92 -47h-43q-28 -229 -33 -283q-11 -112 -22.5 -250t-21 -256.5t-11.5 -142.5h33q82 0 82 -41q0 -39 -62 -39q-63 4 -100 4l-123 -4 q-25 0 -39 9.5t-14 23.5zM115 1264q0 36 27 62t63 26q29 0 50 -22.5t21 -53.5q0 -34 -28 -60t-60 -26q-28 0 -50.5 22t-22.5 52zM508 1264q0 36 27 62t63 26q29 0 50.5 -22.5t21.5 -53.5q0 -34 -28 -60t-60 -26q-28 0 -51 22t-23 52z" />
<glyph unicode="&#xd0;" d="M72 39q0 16 15 27.5t46 11.5h86q4 38 18 182.5t21 226.5q-19 0 -37 1t-28 1q-82 0 -82 41q0 39 61 39q29 -4 92 -4q38 404 43 445h-76q-55 0 -55 32q0 48 82 48q7 0 93.5 -1.5t185.5 -1.5q223 0 332.5 -126t109.5 -340q0 -155 -47 -276t-129 -196t-188 -113t-230 -38 h-242q-71 0 -71 41zM301 80h92q250 0 377 137.5t127 396.5q0 394 -369 394q-8 0 -27 0.5t-47 0.5t-69 -1l-25 -240q-12 -106 -18 -203l195 4q53 0 53 -32q0 -48 -90 -48q-26 0 -70 -1t-96 -1q-24 -315 -33 -407z" />
<glyph unicode="&#xd1;" horiz-adv-x="1091" d="M86 39q0 41 61 41q35 -2 72 -2q4 42 18 189.5t28.5 303.5t23.5 265q8 93 20 174h-35q-81 0 -81 39q0 41 61 41q78 -3 121 -3q8 0 14.5 -1t11.5 -2t9.5 -4.5t7.5 -5t7 -6.5t5.5 -7t5 -9.5t4.5 -9.5t4.5 -11t4.5 -11l385 -895l67 711q6 79 21 174h-35q-82 0 -82 39 q0 41 61 41q78 -3 121 -3h100q27 0 40.5 -9.5t13.5 -22.5q0 -23 -18 -34t-62 -11q-30 0 -57 2q-15 -95 -23 -174q-12 -125 -29.5 -321.5t-28.5 -321t-14 -146.5q-6 -55 -65 -55q-18 0 -31.5 6t-26.5 25.5t-16.5 27t-16.5 38.5q-3 7 -5 11l-365 854q-7 -44 -14 -118 q-8 -117 -22 -270.5t-28.5 -304.5t-17.5 -185h68q53 0 53 -33q0 -23 -17.5 -34t-62.5 -11q-51 2 -82 2q-12 0 -37 -1t-55 -1q-82 0 -82 39zM391 1206q0 20 23 43q104 109 209 109q39 0 73.5 -10t50.5 -18.5t44 -26.5q44 -31 77 -31q31 0 54 20q37 29 55 29q33 0 33 -33 q0 -23 -23 -43q-59 -55 -127 -55q-57 0 -119 43q-1 1 -9 6t-10 6t-9.5 5.5t-11 6t-11 5t-12.5 5t-13 4t-15.5 3t-16.5 1.5t-19 1q-74 0 -139 -74q-30 -33 -47 -33q-11 0 -24 10t-13 27z" />
<glyph unicode="&#xd2;" horiz-adv-x="1081" d="M135 471q0 164 67.5 309.5t189 235.5t265.5 90q122 0 215.5 -71t141 -184.5t47.5 -248.5q0 -122 -32 -226t-84.5 -175t-120.5 -121.5t-140 -74t-143 -23.5q-76 0 -147 30t-129.5 87.5t-94 154t-35.5 217.5zM217 475q0 -106 29 -188t78 -129.5t106 -71t119 -23.5 q58 0 117 18.5t115.5 60t100 101.5t70.5 149.5t27 197.5q0 114 -42.5 213.5t-119 160t-168.5 60.5q-110 0 -210 -76t-161 -203.5t-61 -269.5zM524 1341q0 21 15 38.5t32 17.5q22 0 60 -21q14 -7 87.5 -50t92.5 -52q45 -19 45 -43q0 -13 -11.5 -26t-33.5 -13q-11 0 -45 14 q-91 37 -199 90q-43 21 -43 45z" />
<glyph unicode="&#xd3;" horiz-adv-x="1081" d="M135 471q0 164 67.5 309.5t189 235.5t265.5 90q122 0 215.5 -71t141 -184.5t47.5 -248.5q0 -122 -32 -226t-84.5 -175t-120.5 -121.5t-140 -74t-143 -23.5q-76 0 -147 30t-129.5 87.5t-94 154t-35.5 217.5zM217 475q0 -106 29 -188t78 -129.5t106 -71t119 -23.5 q58 0 117 18.5t115.5 60t100 101.5t70.5 149.5t27 197.5q0 114 -42.5 213.5t-119 160t-168.5 60.5q-110 0 -210 -76t-161 -203.5t-61 -269.5zM512 1227q0 26 53 47q22 9 106 52t99 50q43 21 64 21q14 0 24 -14t10 -33q0 -16 -9.5 -28t-41.5 -26q-118 -52 -219 -90 q-38 -14 -49 -14q-20 0 -28.5 11t-8.5 24z" />
<glyph unicode="&#xd4;" horiz-adv-x="1081" d="M135 471q0 164 67.5 309.5t189 235.5t265.5 90q122 0 215.5 -71t141 -184.5t47.5 -248.5q0 -122 -32 -226t-84.5 -175t-120.5 -121.5t-140 -74t-143 -23.5q-76 0 -147 30t-129.5 87.5t-94 154t-35.5 217.5zM217 475q0 -106 29 -188t78 -129.5t106 -71t119 -23.5 q58 0 117 18.5t115.5 60t100 101.5t70.5 149.5t27 197.5q0 114 -42.5 213.5t-119 160t-168.5 60.5q-110 0 -210 -76t-161 -203.5t-61 -269.5zM467 1219q0 16 22 41q23 24 71.5 78.5t60.5 66.5q3 3 10.5 11t11 11t11 9.5t12.5 9.5t12.5 7t15 5.5t15.5 1.5q18 0 34 -10 t23 -18.5t20 -26.5q4 -6 42.5 -61.5t58.5 -83.5q14 -17 14 -35q0 -21 -14 -32t-31 -11q-22 0 -41 30l-84 115q-3 4 -8 10.5t-7 9t-5.5 6t-6 4.5t-6.5 1q-6 0 -9.5 -2.5t-12 -12.5t-14.5 -16q-93 -97 -109 -115q-26 -30 -49 -30q-14 0 -25.5 9.5t-11.5 27.5z" />
<glyph unicode="&#xd5;" horiz-adv-x="1081" d="M135 471q0 164 67.5 309.5t189 235.5t265.5 90q122 0 215.5 -71t141 -184.5t47.5 -248.5q0 -122 -32 -226t-84.5 -175t-120.5 -121.5t-140 -74t-143 -23.5q-76 0 -147 30t-129.5 87.5t-94 154t-35.5 217.5zM217 475q0 -106 29 -188t78 -129.5t106 -71t119 -23.5 q58 0 117 18.5t115.5 60t100 101.5t70.5 149.5t27 197.5q0 114 -42.5 213.5t-119 160t-168.5 60.5q-110 0 -210 -76t-161 -203.5t-61 -269.5zM377 1206q0 21 22 43q104 109 209 109q39 0 73.5 -10t50.5 -18.5t44 -26.5q44 -31 78 -31q30 0 53 20q37 29 56 29q32 0 32 -33 q0 -24 -22 -43q-59 -55 -127 -55q-57 0 -119 43q-1 1 -9 6t-10 6t-9.5 5.5t-11 6t-11 5t-12.5 5t-13 4t-15.5 3t-16.5 1.5t-19 1q-74 0 -139 -74q-30 -33 -47 -33q-11 0 -24 10t-13 27z" />
<glyph unicode="&#xd6;" horiz-adv-x="1081" d="M135 471q0 164 67.5 309.5t189 235.5t265.5 90q122 0 215.5 -71t141 -184.5t47.5 -248.5q0 -122 -32 -226t-84.5 -175t-120.5 -121.5t-140 -74t-143 -23.5q-76 0 -147 30t-129.5 87.5t-94 154t-35.5 217.5zM217 475q0 -106 29 -188t78 -129.5t106 -71t119 -23.5 q58 0 117 18.5t115.5 60t100 101.5t70.5 149.5t27 197.5q0 114 -42.5 213.5t-119 160t-168.5 60.5q-110 0 -210 -76t-161 -203.5t-61 -269.5zM387 1264q0 36 27 62t63 26q29 0 50.5 -22.5t21.5 -53.5q0 -34 -28 -60t-60 -26q-28 0 -51 22t-23 52zM780 1264q0 36 27 62t63 26 q29 0 50.5 -22.5t21.5 -53.5q0 -34 -28 -60t-60 -26q-28 0 -51 22t-23 52z" />
<glyph unicode="&#xd7;" horiz-adv-x="690" d="M168 414v8.5t3 6t5 5.5t10 9t15 14l151 137l-106 121q-37 40 -37 63q0 17 10 29t25 12q14 0 24.5 -7.5t26.5 -27.5l117 -133l147 133q2 2 7 6q34 29 52 29q15 0 22.5 -12t4.5 -29q-6 -25 -49 -63l-135 -121q16 -17 57.5 -64.5t65.5 -72.5q4 -5 9.5 -10.5t7.5 -8t4.5 -5.5 t3.5 -5.5t1 -5.5q0 -17 -12 -30.5t-35 -14.5q-21 -5 -41 18l-123 140l-149 -140q-11 -10 -22.5 -14.5t-17.5 -4.5l-5 1q-18 1 -27.5 12.5t-9.5 24.5z" />
<glyph unicode="&#xd8;" horiz-adv-x="1087" d="M109 35q0 21 26 51l78 90q-72 122 -72 295q0 164 68 309.5t189.5 235.5t265.5 90t251 -102l35 38q27 31 47 31q22 0 31.5 -12.5t9.5 -28.5q0 -21 -26 -47l-41 -47q96 -145 96 -336q0 -122 -32 -226t-84.5 -175t-120.5 -121.5t-140 -74t-143 -23.5q-79 0 -153.5 32 t-131.5 95l-67 -80q-24 -31 -48 -31q-21 0 -29.5 11.5t-8.5 25.5zM223 475q0 -142 47 -231l586 690q-87 90 -201 90q-110 0 -210 -76t-161 -203.5t-61 -269.5zM317 172q45 -55 108 -82t130 -27q58 0 117 18.5t115.5 60t100 101.5t70.5 149.5t27 197.5q0 150 -76 276z" />
<glyph unicode="&#xd9;" horiz-adv-x="1052" d="M168 1051q0 16 16.5 27.5t44.5 11.5q98 -5 123 -5l101 5q53 0 53 -33q0 -47 -90 -47h-45l-27 -242q-7 -66 -20 -171.5t-20 -170t-7 -98.5q0 -265 235 -265q75 0 131 24t90.5 69.5t53.5 102.5t27 132q29 334 34 377l27 242h-45q-82 0 -82 41q0 39 61 39q64 -5 101 -5 l123 5q25 0 39 -9.5t14 -23.5q0 -47 -90 -47h-39l-27 -256l-35 -363q-7 -65 -23 -121.5t-46.5 -110.5t-73 -92.5t-106 -61.5t-142.5 -23q-86 0 -148 28.5t-96 78.5t-49.5 109t-15.5 130q0 33 7.5 97.5t20 161.5t19.5 167l27 256h-39q-82 0 -82 41zM483 1341q0 21 15 38.5 t32 17.5q22 0 60 -21q14 -7 87.5 -50t92.5 -52q45 -19 45 -43q0 -13 -11.5 -26t-33.5 -13q-11 0 -45 14q-91 37 -199 90q-43 21 -43 45z" />
<glyph unicode="&#xda;" horiz-adv-x="1052" d="M168 1051q0 16 16.5 27.5t44.5 11.5q98 -5 123 -5l101 5q53 0 53 -33q0 -47 -90 -47h-45l-27 -242q-7 -66 -20 -171.5t-20 -170t-7 -98.5q0 -265 235 -265q75 0 131 24t90.5 69.5t53.5 102.5t27 132q29 334 34 377l27 242h-45q-82 0 -82 41q0 39 61 39q64 -5 101 -5 l123 5q25 0 39 -9.5t14 -23.5q0 -47 -90 -47h-39l-27 -256l-35 -363q-7 -65 -23 -121.5t-46.5 -110.5t-73 -92.5t-106 -61.5t-142.5 -23q-86 0 -148 28.5t-96 78.5t-49.5 109t-15.5 130q0 33 7.5 97.5t20 161.5t19.5 167l27 256h-39q-82 0 -82 41zM471 1227q0 26 53 47 q22 9 106 52t99 50q43 21 64 21q14 0 24 -14t10 -33q0 -16 -9.5 -28t-41.5 -26q-118 -52 -219 -90q-39 -14 -49 -14q-20 0 -28.5 11t-8.5 24z" />
<glyph unicode="&#xdb;" horiz-adv-x="1052" d="M168 1051q0 16 16.5 27.5t44.5 11.5q98 -5 123 -5l101 5q53 0 53 -33q0 -47 -90 -47h-45l-27 -242q-7 -66 -20 -171.5t-20 -170t-7 -98.5q0 -265 235 -265q75 0 131 24t90.5 69.5t53.5 102.5t27 132q29 334 34 377l27 242h-45q-82 0 -82 41q0 39 61 39q64 -5 101 -5 l123 5q25 0 39 -9.5t14 -23.5q0 -47 -90 -47h-39l-27 -256l-35 -363q-7 -65 -23 -121.5t-46.5 -110.5t-73 -92.5t-106 -61.5t-142.5 -23q-86 0 -148 28.5t-96 78.5t-49.5 109t-15.5 130q0 33 7.5 97.5t20 161.5t19.5 167l27 256h-39q-82 0 -82 41zM426 1219q0 15 23 41 q23 25 71 79t60 66q3 3 10.5 11t11 11t11 9.5t12.5 9.5t12.5 7t15 5.5t15.5 1.5q18 0 34 -10t23 -18.5t20 -26.5q4 -6 42.5 -61.5t58.5 -83.5q14 -17 14 -35q0 -21 -14 -32t-31 -11q-22 0 -41 30l-84 115q-3 4 -8 10.5t-7 9t-5.5 6t-6 4.5t-6.5 1q-6 0 -9.5 -2.5t-12 -12.5 t-14.5 -16q-93 -97 -109 -115q-26 -30 -49 -30q-14 0 -25.5 9.5t-11.5 27.5z" />
<glyph unicode="&#xdc;" horiz-adv-x="1052" d="M168 1051q0 16 16.5 27.5t44.5 11.5q98 -5 123 -5l101 5q53 0 53 -33q0 -47 -90 -47h-45l-27 -242q-7 -66 -20 -171.5t-20 -170t-7 -98.5q0 -265 235 -265q75 0 131 24t90.5 69.5t53.5 102.5t27 132q29 334 34 377l27 242h-45q-82 0 -82 41q0 39 61 39q64 -5 101 -5 l123 5q25 0 39 -9.5t14 -23.5q0 -47 -90 -47h-39l-27 -256l-35 -363q-7 -65 -23 -121.5t-46.5 -110.5t-73 -92.5t-106 -61.5t-142.5 -23q-86 0 -148 28.5t-96 78.5t-49.5 109t-15.5 130q0 33 7.5 97.5t20 161.5t19.5 167l27 256h-39q-82 0 -82 41zM391 1264q0 36 27 62 t63 26q29 0 50.5 -22.5t21.5 -53.5q0 -34 -28 -60t-60 -26q-28 0 -51 22t-23 52zM784 1264q0 36 27 62t63 26q29 0 50.5 -22.5t21.5 -53.5q0 -34 -28 -60t-60 -26q-28 0 -51 22t-23 52z" />
<glyph unicode="&#xdd;" horiz-adv-x="901" d="M133 1049q0 41 62 41q77 -3 120 -3h80q54 0 54 -32q0 -23 -17.5 -34t-62.5 -11q-15 0 -33 2l133 -406q27 -90 39 -90q8 0 57 90l217 406l-30 -2q-39 0 -55.5 9t-16.5 30q0 15 15 26.5t46 11.5h80l121 3q53 0 53 -33q0 -9 -2.5 -15.5t-10 -14.5t-27.5 -12.5t-50 -4.5h-35 q-16 -30 -69 -131t-98 -186t-62 -115q-34 -57 -58 -87.5t-51 -37.5q-14 -164 -28 -373h33q81 0 81 -41q0 -39 -61 -39q-63 4 -100 4l-123 -4q-25 0 -39 9.5t-14 23.5q0 47 90 47h49q0 71 14 217l17 164q-26 20 -62 117q-34 92 -141 432h-33q-82 0 -82 39zM379 1227 q0 26 53 47q22 9 106 52t99 50q43 21 63 21q14 0 24.5 -14t10.5 -33q0 -16 -9.5 -28t-41.5 -26q-118 -52 -219 -90q-39 -14 -49 -14q-20 0 -28.5 11t-8.5 24z" />
<glyph unicode="&#xde;" horiz-adv-x="876" d="M84 37q0 16 15 27.5t46 11.5h72l90 944h-63q-54 0 -54 33q0 23 18 34t62 11q27 -2 68 -2q30 0 66 1t85 1q82 0 82 -39q0 -41 -61 -41q-62 0 -121 2q0 -5 -1.5 -22.5t-4.5 -52t-6 -68.5h117q385 0 385 -287q0 -73 -13.5 -131t-34.5 -97t-54.5 -67.5t-67 -44.5t-78.5 -25 t-81.5 -11.5t-84.5 -2.5h-154q-3 -29 -6.5 -73.5t-5.5 -61.5l113 2q53 0 53 -33q0 -9 -2.5 -15.5t-10 -14.5t-27.5 -12.5t-50 -4.5q-49 0 -85.5 1t-66.5 1l-67 -2q-39 0 -55.5 9t-16.5 30zM319 293h154q55 0 93 4t85 20t75.5 45.5t48.5 84t20 131.5q0 217 -318 217h-108 q-9 -86 -26.5 -265.5t-23.5 -236.5z" />
<glyph unicode="&#xdf;" horiz-adv-x="925" d="M80 39q0 41 61 41q20 -2 45 -2q7 71 33 339.5t33 332.5q16 154 103 248t245 94q133 0 202.5 -67t69.5 -177q0 -166 -174 -283q-82 -54 -82 -86q0 -30 80 -110q31 -31 48 -49t44 -52t41 -62.5t25.5 -68t11.5 -80.5q0 -38 -10 -56.5t-39 -18.5q-33 0 -33 65 q0 39 -12.5 76.5t-38.5 72.5t-46 56.5t-54 54.5q-51 51 -76 87.5t-25 76.5q0 38 19.5 69t40 47t63.5 44q54 36 93.5 89.5t39.5 117.5q0 78 -52 125t-144 47q-117 0 -181 -71t-77 -189q-6 -55 -32 -327t-34 -345h94q54 0 54 -33q0 -23 -17.5 -34t-62.5 -11q-51 2 -82 2 q-12 0 -37 -1t-55 -1q-82 0 -82 39z" />
<glyph unicode="&#xe0;" d="M12 39q0 16 15.5 27.5t46.5 11.5h55l18 43l377 891h-20q-39 0 -55.5 9t-16.5 30q0 16 15.5 27.5t46.5 11.5h129q33 0 46.5 -11t20.5 -49q63 -291 94 -434q14 -70 61.5 -284t51.5 -234h57q54 0 54 -33q0 -23 -17.5 -34t-62.5 -11q-35 2 -66 2q-12 0 -37 -1t-55 -1 q-82 0 -82 39q0 41 62 41q26 -2 57 -2q-27 101 -74 317q-51 -10 -201 -10q-57 0 -107.5 1t-72.5 1l-137 -309l64 2q53 0 53 -33q0 -9 -2.5 -15.5t-10 -14.5t-27.5 -12.5t-50 -4.5q-29 0 -50 1t-40 1l-68 -2q-39 0 -55.5 9t-16.5 30zM387 471q82 -4 154 -4q131 0 178 2 l-90 469q-1 6 -3 17t-3.5 16.5t-3.5 12.5t-4 10t-5 3q-15 0 -39 -69q-52 -134 -184 -457zM418 1341q0 21 15 38.5t32 17.5q21 0 59 -21q14 -7 88 -50t93 -52q45 -19 45 -43q0 -13 -11.5 -26t-33.5 -13q-12 0 -46 14q-85 35 -198 90q-43 21 -43 45z" />
<glyph unicode="&#xe1;" d="M12 39q0 16 15.5 27.5t46.5 11.5h55l18 43l377 891h-20q-39 0 -55.5 9t-16.5 30q0 16 15.5 27.5t46.5 11.5h129q33 0 46.5 -11t20.5 -49q63 -291 94 -434q14 -70 61.5 -284t51.5 -234h57q54 0 54 -33q0 -23 -17.5 -34t-62.5 -11q-35 2 -66 2q-12 0 -37 -1t-55 -1 q-82 0 -82 39q0 41 62 41q26 -2 57 -2q-27 101 -74 317q-51 -10 -201 -10q-57 0 -107.5 1t-72.5 1l-137 -309l64 2q53 0 53 -33q0 -9 -2.5 -15.5t-10 -14.5t-27.5 -12.5t-50 -4.5q-29 0 -50 1t-40 1l-68 -2q-39 0 -55.5 9t-16.5 30zM387 471q82 -4 154 -4q131 0 178 2 l-90 469q-1 6 -3 17t-3.5 16.5t-3.5 12.5t-4 10t-5 3q-15 0 -39 -69q-52 -134 -184 -457zM467 1227q0 26 53 47q22 9 106 52t99 50q43 21 63 21q14 0 24.5 -14t10.5 -33q0 -16 -9.5 -28t-41.5 -26q-118 -52 -219 -90q-38 -14 -49 -14q-20 0 -28.5 11t-8.5 24z" />
<glyph unicode="&#xe2;" d="M12 39q0 16 15.5 27.5t46.5 11.5h55l18 43l377 891h-20q-39 0 -55.5 9t-16.5 30q0 16 15.5 27.5t46.5 11.5h129q33 0 46.5 -11t20.5 -49q63 -291 94 -434q14 -70 61.5 -284t51.5 -234h57q54 0 54 -33q0 -23 -17.5 -34t-62.5 -11q-35 2 -66 2q-12 0 -37 -1t-55 -1 q-82 0 -82 39q0 41 62 41q26 -2 57 -2q-27 101 -74 317q-51 -10 -201 -10q-57 0 -107.5 1t-72.5 1l-137 -309l64 2q53 0 53 -33q0 -9 -2.5 -15.5t-10 -14.5t-27.5 -12.5t-50 -4.5q-29 0 -50 1t-40 1l-68 -2q-39 0 -55.5 9t-16.5 30zM377 1219q0 16 22 41q23 25 71 79t60 66 q3 3 10.5 11t11 11t11 9.5t12.5 9.5t12.5 7t15 5.5t15.5 1.5q18 0 34 -10t23.5 -18.5t20.5 -26.5q4 -6 42.5 -61.5t58.5 -83.5q14 -17 14 -35q0 -21 -14 -32t-31 -11q-22 0 -41 30l-84 115q-3 4 -8 10.5t-7 9t-5.5 6t-6 4.5t-6.5 1t-8 -2.5t-7 -5.5t-9.5 -10t-12.5 -13 q-92 -97 -108 -115q-26 -30 -49 -30q-14 0 -25.5 9.5t-11.5 27.5zM387 471q82 -4 154 -4q131 0 178 2l-90 469q-1 6 -3 17t-3.5 16.5t-3.5 12.5t-4 10t-5 3q-15 0 -39 -69q-52 -134 -184 -457z" />
<glyph unicode="&#xe3;" d="M12 39q0 16 15.5 27.5t46.5 11.5h55l18 43l377 891h-20q-39 0 -55.5 9t-16.5 30q0 16 15.5 27.5t46.5 11.5h129q33 0 46.5 -11t20.5 -49q63 -291 94 -434q14 -70 61.5 -284t51.5 -234h57q54 0 54 -33q0 -23 -17.5 -34t-62.5 -11q-35 2 -66 2q-12 0 -37 -1t-55 -1 q-82 0 -82 39q0 41 62 41q26 -2 57 -2q-27 101 -74 317q-51 -10 -201 -10q-57 0 -107.5 1t-72.5 1l-137 -309l64 2q53 0 53 -33q0 -9 -2.5 -15.5t-10 -14.5t-27.5 -12.5t-50 -4.5q-29 0 -50 1t-40 1l-68 -2q-39 0 -55.5 9t-16.5 30zM281 1206q0 21 22 43q104 109 209 109 q39 0 73.5 -10t50.5 -18.5t44 -26.5q44 -31 78 -31q30 0 53 20q37 29 55 29q33 0 33 -33q0 -24 -22 -43q-59 -55 -127 -55q-57 0 -119 43q-1 1 -9 6t-10 6t-9.5 5.5t-11 6t-11 5t-12.5 5t-13 4t-15.5 3t-16.5 1.5t-19 1q-74 0 -139 -74q-30 -33 -48 -33q-11 0 -23.5 10 t-12.5 27zM387 471q82 -4 154 -4q131 0 178 2l-90 469q-1 6 -3 17t-3.5 16.5t-3.5 12.5t-4 10t-5 3q-15 0 -39 -69q-52 -134 -184 -457z" />
<glyph unicode="&#xe4;" d="M12 39q0 16 15.5 27.5t46.5 11.5h55l18 43l377 891h-20q-39 0 -55.5 9t-16.5 30q0 16 15.5 27.5t46.5 11.5h129q33 0 46.5 -11t20.5 -49q63 -291 94 -434q14 -70 61.5 -284t51.5 -234h57q54 0 54 -33q0 -23 -17.5 -34t-62.5 -11q-35 2 -66 2q-12 0 -37 -1t-55 -1 q-82 0 -82 39q0 41 62 41q26 -2 57 -2q-27 101 -74 317q-51 -10 -201 -10q-57 0 -107.5 1t-72.5 1l-137 -309l64 2q53 0 53 -33q0 -9 -2.5 -15.5t-10 -14.5t-27.5 -12.5t-50 -4.5q-29 0 -50 1t-40 1l-68 -2q-39 0 -55.5 9t-16.5 30zM350 1264q0 36 27 62t63 26 q29 0 50.5 -22.5t21.5 -53.5q0 -34 -28 -60t-60 -26q-28 0 -51 22t-23 52zM387 471q82 -4 154 -4q131 0 178 2l-90 469q-1 6 -3 17t-3.5 16.5t-3.5 12.5t-4 10t-5 3q-15 0 -39 -69q-52 -134 -184 -457zM743 1264q0 36 27.5 62t63.5 26q29 0 50 -22.5t21 -53.5q0 -34 -28 -60 t-60 -26q-28 0 -51 22t-23 52z" />
<glyph unicode="&#xe5;" d="M12 39q0 16 15.5 27.5t46.5 11.5h55l18 43l377 891h-20q-39 0 -55.5 9t-16.5 30q0 16 15.5 27.5t46.5 11.5h129q33 0 46.5 -11t20.5 -49q63 -291 94 -434q14 -70 61.5 -284t51.5 -234h57q54 0 54 -33q0 -23 -17.5 -34t-62.5 -11q-35 2 -66 2q-12 0 -37 -1t-55 -1 q-82 0 -82 39q0 41 62 41q26 -2 57 -2q-27 101 -74 317q-51 -10 -201 -10q-57 0 -107.5 1t-72.5 1l-137 -309l64 2q53 0 53 -33q0 -9 -2.5 -15.5t-10 -14.5t-27.5 -12.5t-50 -4.5q-29 0 -50 1t-40 1l-68 -2q-39 0 -55.5 9t-16.5 30zM387 471q82 -4 154 -4q131 0 178 2 l-90 469q-1 6 -3 17t-3.5 16.5t-3.5 12.5t-4 10t-5 3q-15 0 -39 -69q-52 -134 -184 -457zM453 1343q0 64 35 112.5t80 69.5t87 21q62 0 118 -43t56 -114q0 -85 -58.5 -146t-147.5 -61q-79 0 -124.5 41.5t-45.5 119.5zM535 1354q0 -44 25.5 -67t70.5 -23q51 0 82.5 35 t31.5 83q0 37 -31.5 59.5t-66.5 22.5q-39 0 -75.5 -29t-36.5 -81z" />
<glyph unicode="&#xe6;" horiz-adv-x="1316" d="M12 39q0 16 15.5 27.5t46.5 11.5h55l410 934h-21q-39 0 -55.5 9t-16.5 30q0 16 15.5 27.5t46.5 11.5h186q40 0 131 -2.5t146 -2.5q28 0 175 3l148 2q20 0 33 -10t12 -27l-18 -172q-1 -20 -14 -32.5t-31 -12.5q-40 0 -37 45q12 88 16 127h-444q-8 -74 -39 -428q18 0 58 2 t69 2l188 -2q54 0 54 -33q0 -47 -90 -47q-19 0 -57 2t-103 2q-21 0 -60.5 -2t-64.5 -2q-1 -21 -5 -58.5t-5 -52.5q-3 -28 -35 -311h41q83 0 228.5 1t166.5 1l12 127q2 21 13.5 33t31.5 12q15 0 26 -11.5t11 -29.5q0 -5 -2 -19.5t-5 -35.5t-5 -37q0 -1 -6 -86 q-1 -16 -14 -25.5t-29 -9.5q-261 -2 -610 -2q-72 0 -72 41q0 16 15 27.5t46 11.5h70q1 13 9 77t15 126.5t11 103.5q-16 -1 -35.5 -1t-47 0.5t-44.5 0.5q-57 0 -115 1t-80 1l-137 -309l64 2q53 0 53 -33q0 -9 -2.5 -15.5t-10 -14.5t-27.5 -12.5t-50 -4.5q-29 0 -50 1t-40 1 l-68 -2q-39 0 -55.5 9t-16.5 30zM387 471q82 -4 168 -4h125q40 457 49 543h-113q-5 -13 -93.5 -218.5t-135.5 -320.5z" />
<glyph unicode="&#xe7;" horiz-adv-x="991" d="M133 449q0 126 29 234.5t78.5 185t115 131t138.5 80.5t149 26q96 0 163 -48t109 -114l13 115q3 47 41 47q45 0 41 -43l-27 -250q-1 -20 -13.5 -32.5t-31.5 -12.5q-21 0 -35.5 19.5t-27 55t-17.5 44.5q-77 137 -223 137q-79 0 -154 -38t-134.5 -107t-95.5 -178t-36 -240 q0 -101 29.5 -180.5t77.5 -125.5t103 -69t112 -23q37 0 71.5 6.5t65 21.5t52.5 27t48 34.5t37 33t33 34.5t24 26q28 28 47 28q27 0 27 -28q0 -12 -11.5 -35.5t-31.5 -44.5q-175 -184 -371 -184h-4l-20 -41q-8 -18 -8.5 -27.5t3.5 -11.5t13 -2q27 0 42 -1t41 -6.5t41 -17 t26.5 -34.5t11.5 -56q0 -78 -57.5 -130t-149.5 -52q-44 0 -97 18t-53 55q0 18 11.5 30.5t23.5 12.5q13 0 44.5 -17t78.5 -17q51 0 84 25t33 61q0 17 -9.5 27t-28 14t-30.5 5t-32 1h-31q-31 0 -48 7.5t-19.5 23t2.5 33.5t18 44q22 50 28 66q-62 13 -115.5 46t-98 87 t-70 137.5t-25.5 186.5z" />
<glyph unicode="&#xe8;" horiz-adv-x="894" d="M84 39q0 16 15 27.5t46 11.5h70q2 16 9.5 80t14.5 128t11 105q48 555 55 619h-61q-56 0 -56 32q0 48 82 48q40 0 131 -2.5t146 -2.5q28 0 175 3l148 2q20 0 33 -10t12 -27l-18 -172q-1 -20 -14 -32.5t-31 -12.5q-40 0 -37 45q12 88 16 127h-444q-8 -74 -39 -428 q18 0 58 2t69 2l189 -2q53 0 53 -33q0 -47 -90 -47q-19 0 -57 2t-103 2q-21 0 -60.5 -2t-64.5 -2q-1 -21 -5 -58.5t-5 -52.5q-3 -29 -35 -311h41q83 0 228.5 1t166.5 1l12 127q2 21 14 33t32 12q15 0 25.5 -11.5t10.5 -29.5q0 -5 -2 -19.5t-5 -35.5t-5 -37q-2 -15 -3 -43 t-3 -43q-3 -17 -15 -26t-28 -9q-261 -2 -610 -2q-72 0 -72 41zM406 1341q0 21 15 38.5t32 17.5q21 0 59 -21q14 -7 87.5 -50t92.5 -52q45 -19 45 -43q0 -13 -11.5 -26t-33.5 -13q-11 0 -45 14q-85 35 -198 90q-43 21 -43 45z" />
<glyph unicode="&#xe9;" horiz-adv-x="894" d="M84 39q0 16 15 27.5t46 11.5h70q2 16 9.5 80t14.5 128t11 105q48 555 55 619h-61q-56 0 -56 32q0 48 82 48q40 0 131 -2.5t146 -2.5q28 0 175 3l148 2q20 0 33 -10t12 -27l-18 -172q-1 -20 -14 -32.5t-31 -12.5q-40 0 -37 45q12 88 16 127h-444q-8 -74 -39 -428 q18 0 58 2t69 2l189 -2q53 0 53 -33q0 -47 -90 -47q-19 0 -57 2t-103 2q-21 0 -60.5 -2t-64.5 -2q-1 -21 -5 -58.5t-5 -52.5q-3 -29 -35 -311h41q83 0 228.5 1t166.5 1l12 127q2 21 14 33t32 12q15 0 25.5 -11.5t10.5 -29.5q0 -5 -2 -19.5t-5 -35.5t-5 -37q-2 -15 -3 -43 t-3 -43q-3 -17 -15 -26t-28 -9q-261 -2 -610 -2q-72 0 -72 41zM393 1227q0 26 53 47q22 9 106 52t99 50q43 21 64 21q14 0 24.5 -14t10.5 -33q0 -16 -10 -28t-42 -26q-118 -52 -219 -90q-38 -14 -49 -14q-20 0 -28.5 11t-8.5 24z" />
<glyph unicode="&#xea;" horiz-adv-x="894" d="M84 39q0 16 15 27.5t46 11.5h70q2 16 9.5 80t14.5 128t11 105q48 555 55 619h-61q-56 0 -56 32q0 48 82 48q40 0 131 -2.5t146 -2.5q28 0 175 3l148 2q20 0 33 -10t12 -27l-18 -172q-1 -20 -14 -32.5t-31 -12.5q-40 0 -37 45q12 88 16 127h-444q-8 -74 -39 -428 q18 0 58 2t69 2l189 -2q53 0 53 -33q0 -47 -90 -47q-19 0 -57 2t-103 2q-21 0 -60.5 -2t-64.5 -2q-1 -21 -5 -58.5t-5 -52.5q-3 -29 -35 -311h41q83 0 228.5 1t166.5 1l12 127q2 21 14 33t32 12q15 0 25.5 -11.5t10.5 -29.5q0 -5 -2 -19.5t-5 -35.5t-5 -37q-2 -15 -3 -43 t-3 -43q-3 -17 -15 -26t-28 -9q-261 -2 -610 -2q-72 0 -72 41zM379 1219q0 16 22 41q23 25 71 79t60 66q2 2 9 9.5t10 10t9.5 8.5t10.5 9t11 7t12.5 6t12.5 3.5t14 1.5q18 0 34 -10t23 -18.5t20 -26.5q4 -6 42.5 -61.5t58.5 -83.5q14 -17 14 -35q0 -21 -14 -32t-31 -11 q-22 0 -41 30l-84 115q-3 4 -8 10.5t-7 9t-5.5 6t-6 4.5t-6.5 1t-8 -2.5t-7 -5.5t-9.5 -10t-12.5 -13q-92 -97 -108 -115q-26 -30 -49 -30q-14 0 -25.5 9.5t-11.5 27.5z" />
<glyph unicode="&#xeb;" horiz-adv-x="894" d="M84 39q0 16 15 27.5t46 11.5h70q2 16 9.5 80t14.5 128t11 105q48 555 55 619h-61q-56 0 -56 32q0 48 82 48q40 0 131 -2.5t146 -2.5q28 0 175 3l148 2q20 0 33 -10t12 -27l-18 -172q-1 -20 -14 -32.5t-31 -12.5q-40 0 -37 45q12 88 16 127h-444q-8 -74 -39 -428 q18 0 58 2t69 2l189 -2q53 0 53 -33q0 -47 -90 -47q-19 0 -57 2t-103 2q-21 0 -60.5 -2t-64.5 -2q-1 -21 -5 -58.5t-5 -52.5q-3 -29 -35 -311h41q83 0 228.5 1t166.5 1l12 127q2 21 14 33t32 12q15 0 25.5 -11.5t10.5 -29.5q0 -5 -2 -19.5t-5 -35.5t-5 -37q-2 -15 -3 -43 t-3 -43q-3 -17 -15 -26t-28 -9q-261 -2 -610 -2q-72 0 -72 41zM305 1264q0 36 27 62t63 26q29 0 50.5 -22.5t21.5 -53.5q0 -34 -28 -60t-60 -26q-28 0 -51 22t-23 52zM698 1264q0 36 27 62t63 26q29 0 50.5 -22.5t21.5 -53.5q0 -34 -28 -60t-60 -26q-28 0 -51 22t-23 52z " />
<glyph unicode="&#xec;" horiz-adv-x="493" d="M82 31q0 47 90 47h49v39q0 65 37 411.5t55 481.5h-43q-82 0 -82 41q0 16 17 27.5t45 11.5q98 -5 123 -5l100 5q55 0 55 -33q0 -47 -92 -47h-43q-28 -229 -33 -283q-11 -112 -22.5 -250t-21 -256.5t-11.5 -142.5h33q82 0 82 -41q0 -39 -62 -39q-63 4 -100 4l-123 -4 q-25 0 -39 9.5t-14 23.5zM211 1341q0 21 15 38.5t32 17.5q21 0 59 -21q14 -7 88 -50t93 -52q45 -19 45 -43q0 -13 -11.5 -26t-33.5 -13q-11 0 -45 14q-91 37 -199 90q-43 21 -43 45z" />
<glyph unicode="&#xed;" horiz-adv-x="491" d="M82 31q0 47 90 47h49v39q0 65 37 411.5t55 481.5h-43q-82 0 -82 41q0 16 17 27.5t45 11.5q98 -5 123 -5l100 5q55 0 55 -33q0 -47 -92 -47h-43q-28 -229 -33 -283q-11 -112 -22.5 -250t-21 -256.5t-11.5 -142.5h33q82 0 82 -41q0 -39 -62 -39q-63 4 -100 4l-123 -4 q-25 0 -39 9.5t-14 23.5zM262 1227q0 26 53 47q22 9 106 52t99 50q43 21 64 21q14 0 24 -14t10 -33q0 -16 -9.5 -28t-41.5 -26q-118 -52 -219 -90q-39 -14 -49 -14q-20 0 -28.5 11t-8.5 24z" />
<glyph unicode="&#xee;" horiz-adv-x="493" d="M82 31q0 47 90 47h49v39q0 65 37 411.5t55 481.5h-43q-82 0 -82 41q0 16 17 27.5t45 11.5q98 -5 123 -5l100 5q55 0 55 -33q0 -47 -92 -47h-43q-28 -229 -33 -283q-11 -112 -22.5 -250t-21 -256.5t-11.5 -142.5h33q82 0 82 -41q0 -39 -62 -39q-63 4 -100 4l-123 -4 q-25 0 -39 9.5t-14 23.5zM154 1219q0 16 22 41q23 25 71 79t60 66q3 3 10.5 11t11 11t11 9.5t12.5 9.5t12.5 7t15 5.5t15.5 1.5q18 0 34 -10t23.5 -18.5t20.5 -26.5q5 -7 42.5 -62.5t57.5 -82.5q15 -18 15 -35q0 -21 -14 -32t-31 -11q-22 0 -41 30l-84 115q-3 4 -8 10.5 t-7 9t-5.5 6t-6 4.5t-6.5 1t-8 -2.5t-7 -5.5t-9.5 -10t-12.5 -13q-92 -97 -108 -115q-26 -30 -50 -30q-14 0 -25 9t-11 28z" />
<glyph unicode="&#xef;" horiz-adv-x="491" d="M82 31q0 47 90 47h49v39q0 65 37 411.5t55 481.5h-43q-82 0 -82 41q0 16 17 27.5t45 11.5q98 -5 123 -5l100 5q55 0 55 -33q0 -47 -92 -47h-43q-28 -229 -33 -283q-11 -112 -22.5 -250t-21 -256.5t-11.5 -142.5h33q82 0 82 -41q0 -39 -62 -39q-63 4 -100 4l-123 -4 q-25 0 -39 9.5t-14 23.5zM115 1264q0 36 27 62t63 26q29 0 50 -22.5t21 -53.5q0 -34 -28 -60t-60 -26q-28 0 -50.5 22t-22.5 52zM508 1264q0 36 27 62t63 26q29 0 50.5 -22.5t21.5 -53.5q0 -34 -28 -60t-60 -26q-28 0 -51 22t-23 52z" />
<glyph unicode="&#xf0;" d="M72 39q0 16 15 27.5t46 11.5h86q4 38 18 182.5t21 226.5q-19 0 -37 1t-28 1q-82 0 -82 41q0 39 61 39q29 -4 92 -4q38 404 43 445h-76q-55 0 -55 32q0 48 82 48q7 0 93.5 -1.5t185.5 -1.5q223 0 332.5 -126t109.5 -340q0 -155 -47 -276t-129 -196t-188 -113t-230 -38 h-242q-71 0 -71 41zM301 80h92q250 0 377 137.5t127 396.5q0 394 -369 394q-8 0 -27 0.5t-47 0.5t-69 -1l-25 -240q-12 -106 -18 -203l195 4q53 0 53 -32q0 -48 -90 -48q-26 0 -70 -1t-96 -1q-24 -315 -33 -407z" />
<glyph unicode="&#xf1;" horiz-adv-x="1091" d="M86 39q0 41 61 41q35 -2 72 -2q4 42 18 189.5t28.5 303.5t23.5 265q8 93 20 174h-35q-81 0 -81 39q0 41 61 41q78 -3 121 -3q8 0 14.5 -1t11.5 -2t9.5 -4.5t7.5 -5t7 -6.5t5.5 -7t5 -9.5t4.5 -9.5t4.5 -11t4.5 -11l385 -895l67 711q6 79 21 174h-35q-82 0 -82 39 q0 41 61 41q78 -3 121 -3h100q27 0 40.5 -9.5t13.5 -22.5q0 -23 -18 -34t-62 -11q-30 0 -57 2q-15 -95 -23 -174q-12 -125 -29.5 -321.5t-28.5 -321t-14 -146.5q-6 -55 -65 -55q-18 0 -31.5 6t-26.5 25.5t-16.5 27t-16.5 38.5q-3 7 -5 11l-365 854q-7 -44 -14 -118 q-8 -117 -22 -270.5t-28.5 -304.5t-17.5 -185h68q53 0 53 -33q0 -23 -17.5 -34t-62.5 -11q-51 2 -82 2q-12 0 -37 -1t-55 -1q-82 0 -82 39zM391 1206q0 20 23 43q104 109 209 109q39 0 73.5 -10t50.5 -18.5t44 -26.5q44 -31 77 -31q31 0 54 20q37 29 55 29q33 0 33 -33 q0 -23 -23 -43q-59 -55 -127 -55q-57 0 -119 43q-1 1 -9 6t-10 6t-9.5 5.5t-11 6t-11 5t-12.5 5t-13 4t-15.5 3t-16.5 1.5t-19 1q-74 0 -139 -74q-30 -33 -47 -33q-11 0 -24 10t-13 27z" />
<glyph unicode="&#xf2;" horiz-adv-x="1081" d="M135 471q0 164 67.5 309.5t189 235.5t265.5 90q122 0 215.5 -71t141 -184.5t47.5 -248.5q0 -122 -32 -226t-84.5 -175t-120.5 -121.5t-140 -74t-143 -23.5q-76 0 -147 30t-129.5 87.5t-94 154t-35.5 217.5zM217 475q0 -106 29 -188t78 -129.5t106 -71t119 -23.5 q58 0 117 18.5t115.5 60t100 101.5t70.5 149.5t27 197.5q0 114 -42.5 213.5t-119 160t-168.5 60.5q-110 0 -210 -76t-161 -203.5t-61 -269.5zM524 1341q0 21 15 38.5t32 17.5q22 0 60 -21q14 -7 87.5 -50t92.5 -52q45 -19 45 -43q0 -13 -11.5 -26t-33.5 -13q-11 0 -45 14 q-91 37 -199 90q-43 21 -43 45z" />
<glyph unicode="&#xf3;" horiz-adv-x="1081" d="M135 471q0 164 67.5 309.5t189 235.5t265.5 90q122 0 215.5 -71t141 -184.5t47.5 -248.5q0 -122 -32 -226t-84.5 -175t-120.5 -121.5t-140 -74t-143 -23.5q-76 0 -147 30t-129.5 87.5t-94 154t-35.5 217.5zM217 475q0 -106 29 -188t78 -129.5t106 -71t119 -23.5 q58 0 117 18.5t115.5 60t100 101.5t70.5 149.5t27 197.5q0 114 -42.5 213.5t-119 160t-168.5 60.5q-110 0 -210 -76t-161 -203.5t-61 -269.5zM512 1227q0 26 53 47q22 9 106 52t99 50q43 21 64 21q14 0 24 -14t10 -33q0 -16 -9.5 -28t-41.5 -26q-118 -52 -219 -90 q-38 -14 -49 -14q-20 0 -28.5 11t-8.5 24z" />
<glyph unicode="&#xf4;" horiz-adv-x="1081" d="M135 471q0 164 67.5 309.5t189 235.5t265.5 90q122 0 215.5 -71t141 -184.5t47.5 -248.5q0 -122 -32 -226t-84.5 -175t-120.5 -121.5t-140 -74t-143 -23.5q-76 0 -147 30t-129.5 87.5t-94 154t-35.5 217.5zM217 475q0 -106 29 -188t78 -129.5t106 -71t119 -23.5 q58 0 117 18.5t115.5 60t100 101.5t70.5 149.5t27 197.5q0 114 -42.5 213.5t-119 160t-168.5 60.5q-110 0 -210 -76t-161 -203.5t-61 -269.5zM467 1219q0 16 22 41q23 24 71.5 78.5t60.5 66.5q3 3 10.5 11t11 11t11 9.5t12.5 9.5t12.5 7t15 5.5t15.5 1.5q18 0 34 -10 t23 -18.5t20 -26.5q4 -6 42.5 -61.5t58.5 -83.5q14 -17 14 -35q0 -21 -14 -32t-31 -11q-22 0 -41 30l-84 115q-3 4 -8 10.5t-7 9t-5.5 6t-6 4.5t-6.5 1q-6 0 -9.5 -2.5t-12 -12.5t-14.5 -16q-93 -97 -109 -115q-26 -30 -49 -30q-14 0 -25.5 9.5t-11.5 27.5z" />
<glyph unicode="&#xf5;" horiz-adv-x="1081" d="M135 471q0 164 67.5 309.5t189 235.5t265.5 90q122 0 215.5 -71t141 -184.5t47.5 -248.5q0 -122 -32 -226t-84.5 -175t-120.5 -121.5t-140 -74t-143 -23.5q-76 0 -147 30t-129.5 87.5t-94 154t-35.5 217.5zM217 475q0 -106 29 -188t78 -129.5t106 -71t119 -23.5 q58 0 117 18.5t115.5 60t100 101.5t70.5 149.5t27 197.5q0 114 -42.5 213.5t-119 160t-168.5 60.5q-110 0 -210 -76t-161 -203.5t-61 -269.5zM377 1206q0 21 22 43q104 109 209 109q39 0 73.5 -10t50.5 -18.5t44 -26.5q44 -31 78 -31q30 0 53 20q37 29 56 29q32 0 32 -33 q0 -24 -22 -43q-59 -55 -127 -55q-57 0 -119 43q-1 1 -9 6t-10 6t-9.5 5.5t-11 6t-11 5t-12.5 5t-13 4t-15.5 3t-16.5 1.5t-19 1q-74 0 -139 -74q-30 -33 -47 -33q-11 0 -24 10t-13 27z" />
<glyph unicode="&#xf6;" horiz-adv-x="1081" d="M135 471q0 164 67.5 309.5t189 235.5t265.5 90q122 0 215.5 -71t141 -184.5t47.5 -248.5q0 -122 -32 -226t-84.5 -175t-120.5 -121.5t-140 -74t-143 -23.5q-76 0 -147 30t-129.5 87.5t-94 154t-35.5 217.5zM217 475q0 -106 29 -188t78 -129.5t106 -71t119 -23.5 q58 0 117 18.5t115.5 60t100 101.5t70.5 149.5t27 197.5q0 114 -42.5 213.5t-119 160t-168.5 60.5q-110 0 -210 -76t-161 -203.5t-61 -269.5zM412 1264q0 36 27 62t63 26q29 0 50 -22.5t21 -53.5q0 -34 -28 -60t-60 -26q-28 0 -50.5 22t-22.5 52zM805 1264q0 36 27 62t63 26 q29 0 50.5 -22.5t21.5 -53.5q0 -34 -28 -60t-60 -26q-28 0 -51 22t-23 52z" />
<glyph unicode="&#xf7;" horiz-adv-x="696" d="M139 588q0 16 15.5 27.5t46.5 11.5q111 -2 209 -2l219 4q53 0 53 -33q0 -47 -90 -47q-14 0 -77 -1t-114 -1h-180q-82 0 -82 41zM274 346q0 50 36 83.5t85 33.5q38 0 66 -30.5t28 -70.5q0 -47 -38 -80.5t-80 -33.5q-38 0 -67.5 28.5t-29.5 69.5zM324 817q0 50 36 83.5 t84 33.5q38 0 66.5 -30t28.5 -70q0 -47 -37.5 -81t-79.5 -34q-38 0 -68 28.5t-30 69.5z" />
<glyph unicode="&#xf8;" horiz-adv-x="1087" d="M109 35q0 21 26 51l78 90q-72 122 -72 295q0 164 68 309.5t189.5 235.5t265.5 90t251 -102l35 38q27 31 47 31q22 0 31.5 -12.5t9.5 -28.5q0 -21 -26 -47l-41 -47q96 -145 96 -336q0 -122 -32 -226t-84.5 -175t-120.5 -121.5t-140 -74t-143 -23.5q-79 0 -153.5 32 t-131.5 95l-67 -80q-24 -31 -48 -31q-21 0 -29.5 11.5t-8.5 25.5zM223 475q0 -142 47 -231l586 690q-87 90 -201 90q-110 0 -210 -76t-161 -203.5t-61 -269.5zM317 172q45 -55 108 -82t130 -27q58 0 117 18.5t115.5 60t100 101.5t70.5 149.5t27 197.5q0 150 -76 276z" />
<glyph unicode="&#xf9;" horiz-adv-x="1052" d="M168 1051q0 16 16.5 27.5t44.5 11.5q98 -5 123 -5l101 5q53 0 53 -33q0 -47 -90 -47h-45l-27 -242q-7 -66 -20 -171.5t-20 -170t-7 -98.5q0 -265 235 -265q75 0 131 24t90.5 69.5t53.5 102.5t27 132q29 334 34 377l27 242h-45q-82 0 -82 41q0 39 61 39q64 -5 101 -5 l123 5q25 0 39 -9.5t14 -23.5q0 -47 -90 -47h-39l-27 -256l-35 -363q-7 -65 -23 -121.5t-46.5 -110.5t-73 -92.5t-106 -61.5t-142.5 -23q-86 0 -148 28.5t-96 78.5t-49.5 109t-15.5 130q0 33 7.5 97.5t20 161.5t19.5 167l27 256h-39q-82 0 -82 41zM483 1341q0 21 15 38.5 t32 17.5q22 0 60 -21q14 -7 87.5 -50t92.5 -52q45 -19 45 -43q0 -13 -11.5 -26t-33.5 -13q-11 0 -45 14q-91 37 -199 90q-43 21 -43 45z" />
<glyph unicode="&#xfa;" horiz-adv-x="1052" d="M168 1051q0 16 16.5 27.5t44.5 11.5q98 -5 123 -5l101 5q53 0 53 -33q0 -47 -90 -47h-45l-27 -242q-7 -66 -20 -171.5t-20 -170t-7 -98.5q0 -265 235 -265q75 0 131 24t90.5 69.5t53.5 102.5t27 132q29 334 34 377l27 242h-45q-82 0 -82 41q0 39 61 39q64 -5 101 -5 l123 5q25 0 39 -9.5t14 -23.5q0 -47 -90 -47h-39l-27 -256l-35 -363q-7 -65 -23 -121.5t-46.5 -110.5t-73 -92.5t-106 -61.5t-142.5 -23q-86 0 -148 28.5t-96 78.5t-49.5 109t-15.5 130q0 33 7.5 97.5t20 161.5t19.5 167l27 256h-39q-82 0 -82 41zM471 1227q0 26 53 47 q22 9 106 52t99 50q43 21 64 21q14 0 24 -14t10 -33q0 -16 -9.5 -28t-41.5 -26q-118 -52 -219 -90q-39 -14 -49 -14q-20 0 -28.5 11t-8.5 24z" />
<glyph unicode="&#xfb;" horiz-adv-x="1052" d="M168 1051q0 16 16.5 27.5t44.5 11.5q98 -5 123 -5l101 5q53 0 53 -33q0 -47 -90 -47h-45l-27 -242q-7 -66 -20 -171.5t-20 -170t-7 -98.5q0 -265 235 -265q75 0 131 24t90.5 69.5t53.5 102.5t27 132q29 334 34 377l27 242h-45q-82 0 -82 41q0 39 61 39q64 -5 101 -5 l123 5q25 0 39 -9.5t14 -23.5q0 -47 -90 -47h-39l-27 -256l-35 -363q-7 -65 -23 -121.5t-46.5 -110.5t-73 -92.5t-106 -61.5t-142.5 -23q-86 0 -148 28.5t-96 78.5t-49.5 109t-15.5 130q0 33 7.5 97.5t20 161.5t19.5 167l27 256h-39q-82 0 -82 41zM426 1219q0 15 23 41 q23 25 71 79t60 66q3 3 10.5 11t11 11t11 9.5t12.5 9.5t12.5 7t15 5.5t15.5 1.5q18 0 34 -10t23 -18.5t20 -26.5q4 -6 42.5 -61.5t58.5 -83.5q14 -17 14 -35q0 -21 -14 -32t-31 -11q-22 0 -41 30l-84 115q-3 4 -8 10.5t-7 9t-5.5 6t-6 4.5t-6.5 1q-6 0 -9.5 -2.5t-12 -12.5 t-14.5 -16q-93 -97 -109 -115q-26 -30 -49 -30q-14 0 -25.5 9.5t-11.5 27.5z" />
<glyph unicode="&#xfc;" horiz-adv-x="1052" d="M168 1051q0 16 16.5 27.5t44.5 11.5q98 -5 123 -5l101 5q53 0 53 -33q0 -47 -90 -47h-45l-27 -242q-7 -66 -20 -171.5t-20 -170t-7 -98.5q0 -265 235 -265q75 0 131 24t90.5 69.5t53.5 102.5t27 132q29 334 34 377l27 242h-45q-82 0 -82 41q0 39 61 39q64 -5 101 -5 l123 5q25 0 39 -9.5t14 -23.5q0 -47 -90 -47h-39l-27 -256l-35 -363q-7 -65 -23 -121.5t-46.5 -110.5t-73 -92.5t-106 -61.5t-142.5 -23q-86 0 -148 28.5t-96 78.5t-49.5 109t-15.5 130q0 33 7.5 97.5t20 161.5t19.5 167l27 256h-39q-82 0 -82 41zM395 1264q0 36 27 62 t63 26q29 0 50.5 -22.5t21.5 -53.5q0 -34 -28 -60t-60 -26q-28 0 -51 22t-23 52zM788 1264q0 36 27.5 62t63.5 26q29 0 50 -22.5t21 -53.5q0 -34 -28 -60t-60 -26q-28 0 -51 22t-23 52z" />
<glyph unicode="&#xfd;" horiz-adv-x="901" d="M133 1049q0 41 62 41q77 -3 120 -3h80q54 0 54 -32q0 -23 -17.5 -34t-62.5 -11q-15 0 -33 2l133 -406q27 -90 39 -90q8 0 57 90l217 406l-30 -2q-39 0 -55.5 9t-16.5 30q0 15 15 26.5t46 11.5h80l121 3q53 0 53 -33q0 -9 -2.5 -15.5t-10 -14.5t-27.5 -12.5t-50 -4.5h-35 q-16 -30 -69 -131t-98 -186t-62 -115q-34 -57 -58 -87.5t-51 -37.5q-14 -164 -28 -373h33q81 0 81 -41q0 -39 -61 -39q-63 4 -100 4l-123 -4q-25 0 -39 9.5t-14 23.5q0 47 90 47h49q0 71 14 217l17 164q-26 20 -62 117q-34 92 -141 432h-33q-82 0 -82 39zM379 1227 q0 26 53 47q22 9 106 52t99 50q43 21 63 21q14 0 24.5 -14t10.5 -33q0 -16 -9.5 -28t-41.5 -26q-118 -52 -219 -90q-39 -14 -49 -14q-20 0 -28.5 11t-8.5 24z" />
<glyph unicode="&#xfe;" horiz-adv-x="876" d="M84 37q0 16 15 27.5t46 11.5h72l90 944h-63q-54 0 -54 33q0 23 18 34t62 11q27 -2 68 -2q30 0 66 1t85 1q82 0 82 -39q0 -41 -61 -41q-62 0 -121 2q0 -5 -1.5 -22.5t-4.5 -52t-6 -68.5h117q385 0 385 -287q0 -73 -13.5 -131t-34.5 -97t-54.5 -67.5t-67 -44.5t-78.5 -25 t-81.5 -11.5t-84.5 -2.5h-154q-3 -29 -6.5 -73.5t-5.5 -61.5l113 2q53 0 53 -33q0 -9 -2.5 -15.5t-10 -14.5t-27.5 -12.5t-50 -4.5q-49 0 -85.5 1t-66.5 1l-67 -2q-39 0 -55.5 9t-16.5 30zM319 293h154q55 0 93 4t85 20t75.5 45.5t48.5 84t20 131.5q0 217 -318 217h-108 q-9 -86 -26.5 -265.5t-23.5 -236.5z" />
<glyph unicode="&#xff;" horiz-adv-x="901" d="M133 1049q0 41 62 41q77 -3 120 -3h80q54 0 54 -32q0 -23 -17.5 -34t-62.5 -11q-15 0 -33 2l133 -406q27 -90 39 -90q8 0 57 90l217 406l-30 -2q-39 0 -55.5 9t-16.5 30q0 15 15 26.5t46 11.5h80l121 3q53 0 53 -33q0 -9 -2.5 -15.5t-10 -14.5t-27.5 -12.5t-50 -4.5h-35 q-16 -30 -69 -131t-98 -186t-62 -115q-34 -57 -58 -87.5t-51 -37.5q-14 -164 -28 -373h33q81 0 81 -41q0 -39 -61 -39q-63 4 -100 4l-123 -4q-25 0 -39 9.5t-14 23.5q0 47 90 47h49q0 71 14 217l17 164q-26 20 -62 117q-34 92 -141 432h-33q-82 0 -82 39zM305 1264 q0 36 27 62t63 26q29 0 50.5 -22.5t21.5 -53.5q0 -34 -28 -60t-60 -26q-28 0 -51 22t-23 52zM698 1264q0 36 27 62t63 26q29 0 50.5 -22.5t21.5 -53.5q0 -34 -28 -60t-60 -26q-28 0 -51 22t-23 52z" />
<glyph unicode="&#x152;" horiz-adv-x="1609" d="M135 471q0 164 67.5 309.5t189 235.5t265.5 90q118 0 207.5 -64t141.5 -172l14 140h-31q-53 0 -53 32q0 48 80 48q34 0 115 -2.5t131 -2.5q28 0 176 3l147 2q20 0 33 -10t12 -27l-16 -172q-1 -20 -15 -32.5t-32 -12.5q-20 0 -29 12t-6 33q10 88 14 127h-444 q-38 -416 -39 -428q17 0 57 2t70 2l188 -2q56 0 56 -33q0 -47 -93 -47q-19 0 -56.5 2t-102.5 2q-21 0 -60.5 -2t-64.5 -2l-8 -111q-4 -41 -19 -167t-16 -144h41q83 0 228.5 1t166.5 1l10 127q7 45 47 45q15 0 25 -11.5t10 -29.5q0 -5 -1.5 -19t-4 -36t-4.5 -37 q-4 -34 -8 -86q-1 -16 -14 -25.5t-29 -9.5q-249 -2 -580 -2q-38 0 -54 10t-16 31q0 16 14.5 27.5t45.5 11.5h39l18 141q-78 -116 -187.5 -176.5t-219.5 -60.5q-76 0 -147 30t-129.5 87.5t-94 154t-35.5 217.5zM217 475q0 -106 29 -188t78 -129.5t106 -71t119 -23.5 q58 0 117 18.5t115.5 60t100 101.5t70.5 149.5t27 197.5q0 114 -42.5 213.5t-119 160t-168.5 60.5q-110 0 -210 -76t-161 -203.5t-61 -269.5z" />
<glyph unicode="&#x153;" horiz-adv-x="1609" d="M135 471q0 164 67.5 309.5t189 235.5t265.5 90q118 0 207.5 -64t141.5 -172l14 140h-31q-53 0 -53 32q0 48 80 48q34 0 115 -2.5t131 -2.5q28 0 176 3l147 2q20 0 33 -10t12 -27l-16 -172q-1 -20 -15 -32.5t-32 -12.5q-20 0 -29 12t-6 33q10 88 14 127h-444 q-38 -416 -39 -428q17 0 57 2t70 2l188 -2q56 0 56 -33q0 -47 -93 -47q-19 0 -56.5 2t-102.5 2q-21 0 -60.5 -2t-64.5 -2l-8 -111q-4 -41 -19 -167t-16 -144h41q83 0 228.5 1t166.5 1l10 127q7 45 47 45q15 0 25 -11.5t10 -29.5q0 -5 -1.5 -19t-4 -36t-4.5 -37 q-4 -34 -8 -86q-1 -16 -14 -25.5t-29 -9.5q-249 -2 -580 -2q-38 0 -54 10t-16 31q0 16 14.5 27.5t45.5 11.5h39l18 141q-78 -116 -187.5 -176.5t-219.5 -60.5q-76 0 -147 30t-129.5 87.5t-94 154t-35.5 217.5zM217 475q0 -106 29 -188t78 -129.5t106 -71t119 -23.5 q58 0 117 18.5t115.5 60t100 101.5t70.5 149.5t27 197.5q0 114 -42.5 213.5t-119 160t-168.5 60.5q-110 0 -210 -76t-161 -203.5t-61 -269.5z" />
<glyph unicode="&#x178;" horiz-adv-x="901" d="M133 1049q0 41 62 41q77 -3 120 -3h80q54 0 54 -32q0 -23 -17.5 -34t-62.5 -11q-15 0 -33 2l133 -406q27 -90 39 -90q8 0 57 90l217 406l-30 -2q-39 0 -55.5 9t-16.5 30q0 15 15 26.5t46 11.5h80l121 3q53 0 53 -33q0 -9 -2.5 -15.5t-10 -14.5t-27.5 -12.5t-50 -4.5h-35 q-16 -30 -69 -131t-98 -186t-62 -115q-34 -57 -58 -87.5t-51 -37.5q-14 -164 -28 -373h33q81 0 81 -41q0 -39 -61 -39q-63 4 -100 4l-123 -4q-25 0 -39 9.5t-14 23.5q0 47 90 47h49q0 71 14 217l17 164q-26 20 -62 117q-34 92 -141 432h-33q-82 0 -82 39zM305 1264 q0 36 27 62t63 26q29 0 50.5 -22.5t21.5 -53.5q0 -34 -28 -60t-60 -26q-28 0 -51 22t-23 52zM698 1264q0 36 27 62t63 26q29 0 50.5 -22.5t21.5 -53.5q0 -34 -28 -60t-60 -26q-28 0 -51 22t-23 52z" />
<glyph unicode="&#x2c6;" horiz-adv-x="557" d="M168 1006q0 16 22 41q23 24 71.5 78.5t60.5 66.5q3 3 10.5 11t11 11t11 9.5t12.5 9.5t12.5 7t15 5.5t15.5 1.5q18 0 34 -10t23 -18.5t20 -26.5q4 -6 42.5 -61.5t58.5 -83.5q14 -17 14 -35q0 -21 -14 -32t-31 -11q-22 0 -41 30l-84 115q-3 4 -8 10.5t-7 9t-5.5 6t-6 4.5 t-6.5 1t-8 -2.5t-7 -5.5t-9.5 -10t-12.5 -13q-92 -97 -108 -115q-26 -30 -49 -30q-14 0 -25.5 9.5t-11.5 27.5z" />
<glyph unicode="&#x2dc;" horiz-adv-x="733" d="M166 993q0 21 22 43q104 109 209 109q39 0 73.5 -10t50.5 -18.5t44 -26.5q44 -31 78 -31q30 0 53 20q37 29 56 29q32 0 32 -33q0 -24 -22 -43q-59 -55 -127 -55q-57 0 -119 43q-1 1 -9 6t-10 6t-9.5 5.5t-11 6t-11 5t-12.5 5t-13 4t-15.5 3t-16.5 1.5t-19 1 q-74 0 -139 -74q-30 -33 -47 -33q-11 0 -24 10t-13 27z" />
<glyph unicode="&#x2000;" horiz-adv-x="773" />
<glyph unicode="&#x2001;" horiz-adv-x="1546" />
<glyph unicode="&#x2002;" horiz-adv-x="773" />
<glyph unicode="&#x2003;" horiz-adv-x="1546" />
<glyph unicode="&#x2004;" horiz-adv-x="515" />
<glyph unicode="&#x2005;" horiz-adv-x="386" />
<glyph unicode="&#x2006;" horiz-adv-x="257" />
<glyph unicode="&#x2007;" horiz-adv-x="257" />
<glyph unicode="&#x2008;" horiz-adv-x="193" />
<glyph unicode="&#x2009;" horiz-adv-x="309" />
<glyph unicode="&#x200a;" horiz-adv-x="85" />
<glyph unicode="&#x2010;" horiz-adv-x="784" d="M178 500q0 16 15.5 27.5t46.5 11.5q126 -9 237 -9l178 2q27 0 40.5 -9.5t13.5 -22.5q0 -47 -93 -47h-147q-56 0 -124.5 3t-84.5 3q-82 0 -82 41z" />
<glyph unicode="&#x2011;" horiz-adv-x="784" d="M178 500q0 16 15.5 27.5t46.5 11.5q126 -9 237 -9l178 2q27 0 40.5 -9.5t13.5 -22.5q0 -47 -93 -47h-147q-56 0 -124.5 3t-84.5 3q-82 0 -82 41z" />
<glyph unicode="&#x2012;" horiz-adv-x="784" d="M178 500q0 16 15.5 27.5t46.5 11.5q126 -9 237 -9l178 2q27 0 40.5 -9.5t13.5 -22.5q0 -47 -93 -47h-147q-56 0 -124.5 3t-84.5 3q-82 0 -82 41z" />
<glyph unicode="&#x2013;" horiz-adv-x="886" d="M176 500q0 16 15.5 27.5t46.5 11.5q128 -2 239 -2l291 4q53 0 53 -33q0 -47 -90 -47q-19 0 -107 -1t-155 -1h-211q-82 0 -82 41z" />
<glyph unicode="&#x2014;" horiz-adv-x="1277" d="M184 500q0 16 15.5 27.5t46.5 11.5q157 -9 418 -9l487 11q53 0 53 -33q0 -47 -90 -47q-20 0 -206 -4t-253 -4q-141 0 -243 3t-146 3q-82 0 -82 41z" />
<glyph unicode="&#x2018;" horiz-adv-x="405" d="M188 932q0 77 123 207q48 55 76 55q14 0 24.5 -9t10.5 -28q0 -10 -6 -21t-12 -17t-16.5 -15.5t-12.5 -11.5l-49 -52q33 -8 55 -33.5t22 -62.5q0 -50 -36 -83.5t-84 -33.5q-39 0 -67 30t-28 75z" />
<glyph unicode="&#x2019;" horiz-adv-x="403" d="M203 864q0 10 6 21t11.5 17t16.5 16t13 12l49 51q-33 8 -55.5 34t-22.5 62q0 50 36 83.5t85 33.5q39 0 66.5 -29.5t27.5 -74.5q0 -77 -123 -207q-1 -1 -6 -7t-7 -8t-6.5 -7t-7 -7.5t-7.5 -7t-8 -6.5l-7.5 -5t-8.5 -4.5t-8.5 -2.5t-8.5 -1q-14 0 -24.5 9t-10.5 28z" />
<glyph unicode="&#x201a;" horiz-adv-x="415" d="M90 -133q0 10 6 21t12 17t16.5 15.5t12.5 11.5l49 52q-33 8 -55 33.5t-22 62.5q0 50 36 83.5t84 33.5q39 0 67 -30t28 -75q0 -77 -123 -207q-48 -55 -76 -55q-14 0 -24.5 9t-10.5 28z" />
<glyph unicode="&#x201c;" horiz-adv-x="688" d="M188 932q0 77 123 207q48 55 76 55q14 0 24.5 -9t10.5 -28q0 -10 -6 -21t-12 -17t-16.5 -15.5t-12.5 -11.5l-49 -52q33 -8 55 -33.5t22 -62.5q0 -50 -36 -83.5t-84 -33.5q-39 0 -67 30t-28 75zM471 932q0 77 123 207q48 55 76 55q14 0 24.5 -9t10.5 -28q0 -10 -6 -20.5 t-12.5 -17t-17 -16t-12.5 -11.5l-49 -52q33 -8 55.5 -34t22.5 -62q0 -50 -36 -83.5t-85 -33.5q-39 0 -66.5 30t-27.5 75z" />
<glyph unicode="&#x201d;" horiz-adv-x="686" d="M203 864q0 10 6 21t11.5 17t16.5 16t13 12l49 51q-33 8 -55.5 34t-22.5 62q0 50 36 83.5t85 33.5q39 0 66.5 -29.5t27.5 -74.5q0 -77 -123 -207q-1 -1 -6 -7t-7 -8t-6.5 -7t-7 -7.5t-7.5 -7t-8 -6.5l-7.5 -5t-8.5 -4.5t-8.5 -2.5t-8.5 -1q-14 0 -24.5 9t-10.5 28z M485 864q0 10 6 21t11.5 17t16.5 16t13 12l50 51q-33 8 -55.5 34t-22.5 62q0 50 36 83.5t85 33.5q39 0 66.5 -29.5t27.5 -74.5q0 -77 -123 -207q-16 -18 -23.5 -26t-23.5 -19t-29 -11q-14 0 -24.5 9t-10.5 28z" />
<glyph unicode="&#x201e;" horiz-adv-x="698" d="M90 -133q0 10 6 21t12 17t16.5 15.5t12.5 11.5l49 52q-33 8 -55 33.5t-22 62.5q0 50 36 83.5t84 33.5q39 0 67 -30t28 -75q0 -77 -123 -207q-48 -55 -76 -55q-14 0 -24.5 9t-10.5 28zM373 -133q0 10 6 21t12 17t16.5 15.5t12.5 11.5l49 52q-33 8 -55.5 34t-22.5 62 q0 50 36 83.5t85 33.5q39 0 66.5 -30t27.5 -75q0 -77 -123 -207q-16 -18 -23 -26t-23 -18.5t-29 -10.5q-14 0 -24.5 9t-10.5 28z" />
<glyph unicode="&#x2022;" horiz-adv-x="667" d="M213 733q0 81 68.5 150t154.5 69q72 0 125 -54t53 -132q0 -87 -70.5 -152t-150.5 -65q-72 0 -126 53.5t-54 130.5z" />
<glyph unicode="&#x2026;" horiz-adv-x="1505" d="M109 80q0 50 36 83.5t84 33.5q38 0 67.5 -30.5t29.5 -70.5q0 -47 -38 -80.5t-81 -33.5q-38 0 -68 28.5t-30 69.5zM659 80q0 50 36 83.5t85 33.5q38 0 67.5 -30.5t29.5 -70.5q0 -47 -38 -80.5t-81 -33.5q-38 0 -68.5 28.5t-30.5 69.5zM1200 80q0 50 36 83.5t85 33.5 q38 0 67 -30.5t29 -70.5q0 -47 -38 -80.5t-81 -33.5q-38 0 -68 28.5t-30 69.5z" />
<glyph unicode="&#x202f;" horiz-adv-x="309" />
<glyph unicode="&#x2039;" horiz-adv-x="458" d="M129 338q0 23 27 57l149 199q23 33 47 33q41 0 41 -39q0 -16 -26 -49l-150 -195l109 -194q16 -32 14 -50q-7 -39 -47 -39q-24 0 -41 33l-109 199q-14 28 -14 45z" />
<glyph unicode="&#x203a;" horiz-adv-x="458" d="M137 100q0 15 27 50l149 194l-108 195q-1 2 -6 11t-6.5 13t-3.5 11.5t-1 13.5q7 39 50 39q24 0 41 -33l106 -199q16 -26 16 -45q0 -25 -26 -57l-150 -199q-23 -33 -47 -33q-41 0 -41 39z" />
<glyph unicode="&#x205f;" horiz-adv-x="386" />
<glyph unicode="&#x20ac;" horiz-adv-x="1036" d="M106 426q0 16 15.5 27.5t46.5 11.5q69 0 147 2v12q0 63 19 137q-28 0 -69 -1t-52 -1q-82 0 -82 41q0 16 15 27.5t47 11.5q79 0 163 2q63 183 195 296.5t264 113.5q52 0 99.5 -10.5t68.5 -19t31 -15.5q45 -30 45 -55q0 -16 -10.5 -26.5t-28.5 -10.5q-11 0 -18 2.5t-20 11 t-21 12.5q-48 29 -154 29q-95 0 -201 -91.5t-162 -236.5h334q53 0 53 -32q0 -48 -90 -48q-19 0 -123 1t-172 1h-28q-21 -83 -21 -139v-12h357q53 0 53 -33q0 -47 -90 -47q-19 0 -123.5 1t-171.5 1h-23q14 -160 105.5 -243t202.5 -83q101 0 161 29q9 5 20 11.5t15.5 9t12 4.5 t16.5 2q31 0 31 -31q0 -29 -56 -61q-12 -7 -34.5 -15.5t-72.5 -19t-102 -10.5q-68 0 -130.5 23t-118 69t-92 127t-42.5 186q-30 0 -73.5 -1t-53.5 -1q-82 0 -82 41z" />
<glyph unicode="&#x2122;" horiz-adv-x="1116" d="M211 1262q2 24 6 65q2 19 18.5 32t43.5 13q130 -4 159 -4l101 4q53 0 53 -41l-10 -69q-2 -18 -13.5 -29.5t-29.5 -11.5q-43 0 -39 41q2 12 6 30h-64l-26 -254h16q53 0 53 -32q0 -48 -79 -48h-80q-72 0 -72 41q0 16 16.5 27.5t44.5 11.5h19l8 78l20 176h-67l-2 -30 q-4 -41 -47 -41q-18 0 -27.5 11.5t-7.5 29.5zM586 997q0 18 13.5 29.5t37.5 11.5h8q12 72 12 78q0 3 8 75.5t13 100.5q-57 0 -57 39q0 41 51 41h57q31 0 39 -22q18 -14 59 -131l37 -107q13 20 35.5 58.5t28.5 48.5l88 131q9 22 43 22h57q43 0 43 -31q0 -49 -65 -49 q-3 -24 -8.5 -88t-8.5 -88q-6 -75 -6 -78h10q43 0 43 -30q0 -50 -69 -50h-60q-61 0 -61 39q0 18 13.5 29.5t37.5 11.5h6q2 47 10 146l3 20l-113 -184q-18 -27 -37 -27q-22 0 -35 27q-42 97 -71 176l-3 -12l-18 -146h6q43 0 43 -30q0 -50 -69 -50h-60q-61 0 -61 39z" />
<glyph unicode="&#x25fc;" horiz-adv-x="1085" d="M0 0v1085h1085v-1085h-1085z" />
</font>
</defs>
</svg>
