<?xml version="1.0" standalone="no"?>
<!DOCTYPE svg PUBLIC "-//W3C//DTD SVG 1.1//EN" "http://www.w3.org/Graphics/SVG/1.1/DTD/svg11.dtd" >
<svg xmlns="http://www.w3.org/2000/svg" xmlns:xlink="http://www.w3.org/1999/xlink" version="1.1">
<metadata></metadata>
<defs>
<font id="showcaseornaments" horiz-adv-x="907" >
<font-face units-per-em="2048" ascent="1536" descent="-512" />
<missing-glyph horiz-adv-x="1880" />
<glyph horiz-adv-x="0" />
<glyph horiz-adv-x="682" />
<glyph unicode=" "  horiz-adv-x="1880" />
<glyph unicode="&#x09;" horiz-adv-x="1880" />
<glyph unicode="&#xa0;" horiz-adv-x="1880" />
<glyph unicode="0" d="M41 76q0 74 6 143t20 135t40.5 106t62.5 40q49 0 127.5 -78t139.5 -192t61 -201q0 -66 -41.5 -113.5t-99.5 -68.5t-121 -21q-93 0 -144 67.5t-51 182.5zM43 1268q0 115 51 182.5t144 67.5q63 0 121 -21t99.5 -68.5t41.5 -113.5q0 -83 -61 -197t-139.5 -194t-127.5 -80 q-36 0 -63 45.5t-40.5 115.5t-19.5 136.5t-6 126.5zM139 668q0 27 46 71t113.5 85t153.5 70.5t156 29.5q112 0 185 -63.5t73 -192.5q0 -126 -68 -188t-190 -62q-85 0 -198.5 48t-192 107.5t-78.5 94.5z" />
<glyph unicode="1" d="M41 668q0 129 73 192.5t185 63.5q70 0 156 -29.5t153.5 -70.5t113.5 -85t46 -71q0 -35 -78.5 -94.5t-192 -107.5t-198.5 -48q-122 0 -190 62t-68 188zM123 668q0 -84 46 -126t130 -42q62 0 154 34t157.5 74t65.5 60q0 24 -64.5 66t-156 75t-156.5 33q-76 0 -126 -43 t-50 -131zM408 1315q0 66 41.5 113.5t99.5 68.5t121 21q93 0 143.5 -67.5t50.5 -182.5q0 -60 -6 -126.5t-19.5 -136.5t-40.5 -115.5t-63 -45.5q-49 0 -127.5 80t-139 194t-60.5 197zM410 29q0 87 61 201t139 192t127 78q36 0 62.5 -40t40.5 -106t20 -135t6 -143 q0 -115 -50.5 -182.5t-143.5 -67.5q-63 0 -121 21t-99.5 68.5t-41.5 113.5zM489 1315q0 -57 45.5 -151t105 -166t95.5 -72q25 0 36 113t11 229q0 77 -29 122.5t-83 45.5q-69 0 -125 -32t-56 -89zM492 29q0 -57 55.5 -89t124.5 -32q54 0 83 45.5t29 122.5q0 116 -11 229 t-36 113q-36 0 -95.5 -72t-104.5 -166t-45 -151z" />
<glyph unicode="2" d="M41 668q0 129 73 192.5t185 63.5q70 0 156 -29.5t153.5 -70.5t113.5 -85t46 -71q0 -35 -78.5 -94.5t-192 -107.5t-198.5 -48q-122 0 -190 62t-68 188zM408 1315q0 66 41.5 113.5t99.5 68.5t121 21q93 0 143.5 -67.5t50.5 -182.5q0 -60 -6 -126.5t-19.5 -136.5 t-40.5 -115.5t-63 -45.5q-49 0 -127.5 80t-139 194t-60.5 197zM410 29q0 87 61 201t139 192t127 78q36 0 62.5 -40t40.5 -106t20 -135t6 -143q0 -115 -50.5 -182.5t-143.5 -67.5q-63 0 -121 21t-99.5 68.5t-41.5 113.5z" />
<glyph unicode="3" d="M41 76q0 74 6 143t20 135t40.5 106t62.5 40q49 0 127.5 -78t139.5 -192t61 -201q0 -66 -41.5 -113.5t-99.5 -68.5t-121 -21q-93 0 -144 67.5t-51 182.5zM43 1268q0 115 51 182.5t144 67.5q63 0 121 -21t99.5 -68.5t41.5 -113.5q0 -83 -61 -197t-139.5 -194t-127.5 -80 q-36 0 -63 45.5t-40.5 115.5t-19.5 136.5t-6 126.5zM123 76q0 -77 29.5 -122.5t83.5 -45.5q69 0 124.5 32t55.5 89t-45.5 151t-105 166t-95.5 72q-25 0 -36 -113t-11 -229zM125 1268q0 -116 11 -229t36 -113q36 0 95.5 72t105 166t45.5 151t-55.5 89t-124.5 32 q-54 0 -83.5 -45.5t-29.5 -122.5zM139 668q0 27 46 71t113.5 85t153.5 70.5t156 29.5q112 0 185 -63.5t73 -192.5q0 -126 -68 -188t-190 -62q-85 0 -198.5 48t-192 107.5t-78.5 94.5zM231 668q0 -20 65.5 -60t157.5 -74t154 -34q84 0 130 42t46 126q0 88 -50 131t-126 43 q-65 0 -156.5 -33t-156 -75t-64.5 -66z" />
<glyph unicode="4" horiz-adv-x="2682" d="M41 1677q0 31 18 48.5t64 21.5q1046 -8 1198 -8q97 0 412.5 14.5t582.5 29.5l267 15q34 3 47 -18t10 -58q-12 -131 -29.5 -335.5t-46.5 -633t-29 -614.5q0 -151 -6.5 -349t-12.5 -320l-7 -123q0 -28 -17.5 -48t-56.5 -20q-347 0 -661.5 75t-579.5 216t-479 351.5 t-363.5 473.5t-230 589.5t-80.5 692.5z" />
<glyph unicode="5" horiz-adv-x="2170" d="M41 362q0 84 88 84q16 0 37 -5.5t47.5 -17.5t48 -22.5t54 -30t48.5 -29t48.5 -30t38.5 -24.5q12 176 79 349t168.5 314.5t231 263.5t266 205.5t272.5 130.5t252 47q74 0 74 -59q0 -37 -25.5 -87.5t-55.5 -91t-55.5 -82t-25.5 -63.5q0 -14 78 -24t171 -16.5t171 -31.5 t78 -65q0 -39 -37 -72.5t-114.5 -63t-152.5 -52t-196 -54.5q-117 -31 -179.5 -48.5t-174 -53.5t-175 -65.5t-145 -77.5t-125 -96.5t-75 -114t-31.5 -139.5q12 2 52 11t68 14.5t68.5 10.5t73.5 5q184 0 184 -97q0 -59 -141 -173.5t-316.5 -206t-264.5 -91.5q-68 0 -144.5 79 t-132.5 186.5t-93.5 215.5t-37.5 168z" />
<glyph unicode="6" horiz-adv-x="2480" d="M41 518q0 83 57 188.5t134.5 190.5t158.5 144t127 59q40 0 61 -16t21 -40q0 -60 -29.5 -164.5t-29.5 -154.5q0 -29 18.5 -45t50.5 -16h613q58 0 107.5 36.5t86 88t72 103t80 88t94.5 36.5h186q68 0 68 -45q0 -28 -25.5 -66t-55.5 -70t-55.5 -71.5t-25.5 -69.5 q0 -22 37 -22q56 0 100.5 35.5t74.5 86l60 101t73 86t98 35.5h176q65 0 65 -45q0 -38 -25 -85t-60.5 -92.5t-70.5 -91.5t-60 -95t-25 -89q0 -44 25 -94.5t60 -96t70.5 -90t60.5 -90t25 -81.5q0 -46 -65 -46h-176q-42 0 -79.5 25.5t-63.5 64t-55.5 83t-56 83t-66 64 t-85.5 25.5q-37 0 -37 -23q0 -35 25.5 -74t55.5 -67t55.5 -65t25.5 -70q0 -23 -19.5 -34.5t-48.5 -11.5h-176q-53 0 -99.5 36.5t-83 88t-73.5 103.5t-86.5 88.5t-107.5 36.5h-613q-32 0 -50.5 -16.5t-18.5 -45.5q0 -53 29.5 -158.5t29.5 -160.5q0 -51 -80 -51q-49 0 -131 61 t-158.5 147t-133 189.5t-56.5 179.5z" />
<glyph unicode="7" horiz-adv-x="1755" d="M41 932q0 148 53 269.5t151.5 193t223.5 71.5q63 0 111.5 -21t78 -54t51 -67t44.5 -67t45 -47q12 226 118.5 351t264.5 125q47 0 47 -39q0 -43 -47 -43q-125 0 -208.5 -105t-92.5 -295q29 11 56 42.5t51.5 67.5t55 71t80 58t113.5 23q125 0 223.5 -71.5t151.5 -193 t53 -269.5q0 -84 -23 -189t-63.5 -213t-100 -210.5t-128 -182t-153.5 -128t-171 -48.5q-40 0 -68 19t-39.5 41.5t-27 41.5t-33.5 19q-17 0 -33 -19t-29.5 -41.5t-43.5 -41.5t-72 -19q-103 0 -202.5 64t-176.5 168.5t-137 231.5t-91.5 260t-31.5 247z" />
<glyph unicode="8" horiz-adv-x="5971" d="M41 567q0 237 59.5 431.5t175 337.5t297 221.5t414.5 78.5q123 0 238 -37.5t206 -102.5t167 -151.5t126 -184t77.5 -201.5t27.5 -203q0 -26 -14 -41t-29 -15q-39 0 -39 56q0 108 -34.5 221t-101.5 216t-157.5 184t-212 129t-254.5 48q-172 0 -313 -47t-243 -133.5 t-171.5 -209t-103 -272.5t-33.5 -325q0 -212 85.5 -399t229 -318t338.5 -206.5t408 -75.5q235 0 456.5 51t405 137.5t361 198.5t341 236t325.5 247.5t334 235.5t348 198.5t386 137.5t430 51q163 0 329.5 -38t316 -105.5t281 -165.5t227.5 -213.5t151 -255t55 -283.5 q0 -59 -47 -59q-35 0 -35 59q0 133 -52 262t-142 235.5t-213.5 197t-264.5 152.5t-297 97t-309 35q-218 0 -424.5 -51t-379.5 -137.5t-342 -198.5t-329 -236t-322.5 -247.5t-340.5 -235.5t-364.5 -198.5t-414 -137.5t-470.5 -51q-184 0 -356.5 51.5t-314.5 149t-248 228.5 t-165 299.5t-59 352.5z" />
<glyph unicode="9" horiz-adv-x="5971" d="M41 0q0 144 55 283.5t151 255t227.5 213.5t281 165.5t316 105.5t329.5 38q220 0 430 -51t386 -137.5t348 -198.5t334 -236t325.5 -247.5t341 -235.5t361 -198.5t405 -137.5t456.5 -51q213 0 408 75.5t338.5 206.5t229 318t85.5 399q0 175 -33.5 325t-103 272.5 t-171.5 209t-243 133.5t-313 47q-133 0 -254.5 -48t-212 -129t-157.5 -184t-101.5 -216t-34.5 -221q0 -56 -39 -56q-15 0 -29 15t-14 41q0 99 27.5 203t77.5 201.5t126 184t167 151.5t206 102.5t238 37.5q233 0 414.5 -78.5t297 -221.5t175 -337.5t59.5 -431.5 q0 -184 -59 -352.5t-165 -299.5t-248 -228.5t-314.5 -149t-356.5 -51.5q-243 0 -470.5 51t-414 137.5t-364.5 198.5t-340.5 236t-322.5 247.5t-329 235.5t-342 198.5t-379.5 137.5t-424.5 51q-153 0 -309 -35t-297 -97t-264.5 -152.5t-213.5 -197t-142 -235.5t-52 -262 q0 -59 -35 -59q-47 0 -47 59z" />
<glyph unicode="A" horiz-adv-x="1851" d="M41 131q0 28 14.5 58.5t48 66t64.5 64t90 73t96 70.5t109 76q228 159 332 247q-41 44 -41 86q0 27 19 46.5t55 30t70.5 15.5t82.5 9q25 32 41 63l-82 15q-15 3 -26 13t-11 23q0 42 42 42q5 0 11 -1q46 -8 95 -22q4 28 4 41q0 91 -57.5 160t-153.5 69q-93 0 -154.5 -65.5 t-64.5 -145.5v-6q0 -19 -11 -30t-30 -11t-30 11t-11 30v6q2 72 37 137.5t104.5 110.5t159.5 45q92 0 160.5 -46.5t100.5 -115.5t32 -149q0 -26 -11 -68q95 -41 95 -94q0 -37 -48.5 -53t-134.5 -21q-56 -67 -129 -135q37 -24 314 -186q281 -168 371 -230q216 -149 216 -233 q0 -36 -19 -62.5t-65.5 -46t-112 -31.5t-171.5 -19t-231.5 -10t-303.5 -3q-352 0 -541 19t-257 55t-68 102zM819 862q0 -12 23 -35q56 53 80 78q-103 -10 -103 -43zM1083 977q66 7 66 20q0 11 -43 21q-1 -3 -23 -41z" />
<glyph unicode="B" horiz-adv-x="3241" d="M41 -809q0 22 16 41q24 29 67.5 80.5t172 199t252 281.5t286 297.5t295.5 278.5q-229 -86 -454 -86q-264 0 -411.5 102.5t-147.5 286.5q0 99 25.5 173t83 131t158 86.5t243.5 29.5q334 0 915 -410q21 6 43 6q7 0 27 -4q144 76 257 132t260 121.5t268 101.5t202 36 q240 0 370 -115t130 -305q0 -233 -136 -340.5t-401 -107.5q-244 0 -668 211q220 -177 452 -386.5t407 -384t272.5 -274t144.5 -150.5l6 -7q15 -15 20 -22.5t5 -20.5q0 -14 -12.5 -26.5t-30.5 -12.5t-35 20q-32 35 -89.5 95.5t-233.5 237t-350.5 340.5t-414 369t-450.5 359 h-22q-15 0 -21 2l-121 -59q-122 -81 -300.5 -246.5t-347 -344t-319.5 -345.5t-243 -275l-92 -108q-21 -25 -39 -25q-19 0 -29 11t-10 26z" />
<glyph unicode="C" horiz-adv-x="2801" d="M41 1270q0 114 24.5 218.5t79.5 200t136 165.5t202.5 111.5t270.5 41.5q133 0 245.5 -44.5t188.5 -116.5t129 -165.5t77.5 -190t24.5 -190.5q0 -120 -28.5 -229.5t-74.5 -191.5t-101.5 -155.5t-111 -132t-101.5 -109.5t-74.5 -100t-28.5 -91q0 -18 28 -48.5t62 -60 t62 -71t28 -78.5q0 -22 -8 -39.5t-25.5 -29.5t-35 -21t-46 -14.5t-49 -8.5t-53.5 -4.5t-49.5 -1.5h-46.5h-10q-23 -15 -45 -36.5t-47.5 -56t-41.5 -83.5t-16 -105q0 -80 32.5 -136t111.5 -99.5t223 -64.5t356 -21q200 0 355 -32.5t258.5 -90.5t170 -143.5t95 -186.5 t28.5 -225q0 -110 29 -214.5t75.5 -189.5t102 -169t111.5 -169t102.5 -172.5t75.5 -197t29 -225.5q0 -136 -19.5 -243.5t-47.5 -184t-55.5 -158.5t-47 -211t-19.5 -297q0 -20 -11 -34.5t-30 -14.5q-18 0 -29.5 13t-11.5 36q0 161 19.5 291.5t47 217.5t55.5 168.5t47.5 187 t19.5 229.5q0 114 -29 219.5t-75.5 189t-102.5 165.5t-111.5 165t-102 169.5t-75.5 197t-29 231.5q0 109 -26 197.5t-86.5 164t-154.5 126.5t-235 79.5t-323 28.5q-190 0 -330.5 18.5t-231 51t-145 84t-76.5 111t-22 138.5q0 164 113 285q-127 11 -127 96q0 36 32 92.5 t63.5 104t31.5 61.5q0 53 -33 107t-85.5 104.5t-116 106t-127 124t-116 145.5t-85.5 184t-33 227z" />
<glyph unicode="D" horiz-adv-x="1136" d="M41 469q0 113 34.5 219t92 189t131 157.5t153.5 129t157 98.5t143.5 71.5t111.5 41.5t62 14q18 0 40.5 -27t45 -80t41.5 -123t31 -166.5t12 -199.5q0 -162 -36.5 -300.5t-98 -235t-142.5 -164.5t-170 -99q-84 -29 -169 -29h-11q-66 5 -70 6q-47 -229 -47 -428 q0 -22 -11.5 -35.5t-27.5 -13.5q-20 0 -31.5 13.5t-11.5 35.5q0 215 52 451q-135 49 -208 175.5t-73 299.5z" />
<glyph unicode="E" horiz-adv-x="2502" d="M41 1614q0 151 201 151q60 0 137 -22q-33 157 -33 227q0 199 168 199q106 0 270 -101q14 191 136 191q84 0 182 -65.5t182 -172t140.5 -260t56.5 -311.5q0 -262 -146 -401q130 -194 209.5 -435.5t79.5 -488.5q0 -62 -4 -168q29 89 59.5 177.5t76 206.5t91 220 t101.5 205.5t109.5 176.5t113.5 119t115 46q52 0 87.5 -19t54.5 -54t26.5 -75t7.5 -92q0 -104 -58 -261.5t-140.5 -313.5t-204.5 -349.5t-216 -330t-212 -296.5t-155 -208t-81 -104q-49 -108 -106 -207t-104 -163.5t-86.5 -114t-62.5 -71.5l-22 -22q-10 -20 -39 -20 q-15 0 -27 11.5t-12 25.5q0 17 20 40q12 11 33 33t82 100t116.5 167t123 234t116 301.5t82 369t33.5 436.5q0 238 -73 468t-193 411q-134 -91 -346 -91q-145 0 -283.5 43t-246 115.5t-190 163t-126 189t-43.5 190.5z" />
<glyph unicode="F" horiz-adv-x="4970" d="M41 2353q0 14 11 47t34 80t55 98.5t78 102.5t98.5 91.5t121 65.5t141.5 25q99 0 171.5 -39.5t104.5 -113.5q70 8 105 8q105 0 233 -39q6 111 27 219q-82 27 -125 102.5t-43 182.5q0 84 33.5 163t86 135.5t113.5 103.5t119 76t99.5 44.5t58.5 15.5q15 0 34 -24.5t36.5 -67 t29.5 -109.5t12 -143q0 -120 -33 -217t-87 -156q-54 -60 -119 -90q-61 -29 -125 -28h-8q-26 -128 -29 -236q265 -105 537 -356t491 -594q29 258 144.5 441t246.5 194q35 64 104.5 97.5t161.5 33.5q73 0 141.5 -25t121 -65.5t98.5 -91.5t78 -102.5t55 -98.5t34 -80t11 -47 q0 -15 -24.5 -34t-67 -37t-110 -30t-142.5 -12q-120 0 -217.5 33.5t-156.5 87.5q-58 54 -89 120q-29 62 -29 126v8q0 19 2 29q-110 -38 -197.5 -232t-88.5 -440q190 -329 297.5 -692.5t107.5 -728.5q0 -324 -49 -615q61 134 126.5 267t162.5 312.5t192 336.5t211 318 t224 276q0 132 28 272q-82 27 -125 102.5t-43 182.5q0 84 33.5 163t86 135.5t113.5 103.5t119 76t99.5 44.5t58.5 15.5q15 0 34 -24.5t37 -67t30 -110t12 -142.5q0 -120 -33 -217t-87.5 -156t-119.5 -89q-61 -29 -125 -29h-8q-21 -104 -26 -176q215 198 391 204 q35 64 104.5 97.5t161.5 33.5q73 0 141.5 -25t121 -65.5t98.5 -91.5t78 -102.5t55 -98.5t34 -80t11 -47q0 -15 -24.5 -34t-67 -36.5t-110 -29.5t-143.5 -12q-120 0 -217 33.5t-156 88.5q-60 54 -90 120q-29 61 -28 125v8q0 22 2 32q-257 -39 -612 -536q103 -46 227 -125 q72 82 182 82q77 0 144.5 -28t116.5 -75.5t88 -109.5t62.5 -132.5t35.5 -140.5t12 -137q0 -62 -8 -82q-5 -14 -35.5 -23t-75.5 -9q-97 0 -200.5 34t-190.5 93t-143 148.5t-56 190.5q0 61 25 119q-114 76 -234 125q-113 -166 -233.5 -376t-206 -376t-170 -345t-116 -250 t-54.5 -125q-50 -181 -118 -346.5t-129 -273.5t-115 -189.5t-86 -118.5l-33 -37l-57 57q12 13 33 38t82 114t116 191t122.5 268.5t116 346t82 425t33.5 504.5q0 264 -61 542l-2 -2q-8 7 -22 20t-62 51t-99 73t-129.5 79t-158 77.5t-179.5 59.5t-198 33q5 -95 29 -217h4 q66 0 129 -30q65 -31 119 -89.5t87 -155t33 -216.5q0 -76 -12 -143t-29.5 -109.5t-36.5 -67t-34 -24.5q-17 0 -58.5 15.5t-99.5 44.5t-119 76t-113.5 103.5t-86 135.5t-33.5 163q0 105 43 180.5t125 102.5q-24 132 -29 236q-123 -3 -254 -31q0 -1 1 -3t1 -3v-8 q0 -63 -28 -125q-30 -66 -89.5 -120.5t-156.5 -88t-217 -33.5q-75 0 -142.5 12t-110 30t-67 37t-24.5 34q0 17 15.5 58.5t44.5 99.5t76 119t103.5 113.5t135.5 86t163 33.5q103 0 176.5 -42t102.5 -120q152 33 280 33q115 0 233.5 -25.5t211.5 -62t185 -87t149.5 -90 t109.5 -80.5q-117 419 -348 792.5t-516 631.5q-104 -44 -215 -117q24 -63 24 -119q0 -81 -36.5 -156t-97.5 -130.5t-137 -97t-158.5 -62.5t-159.5 -21q-45 0 -75.5 9.5t-35.5 23.5q-8 20 -8 82q0 67 12 137t35.5 140.5t62.5 132.5t88 109.5t116.5 75.5t144.5 28 q107 0 182 -82q97 65 188 108q-186 155 -368.5 238.5t-343.5 83.5q-43 0 -87 -6q0 -2 1.5 -7.5t1.5 -7.5v-8q0 -63 -29 -125q-31 -66 -89.5 -120.5t-156 -87.5t-217.5 -33q-76 0 -143 12t-109.5 29.5t-67 36.5t-24.5 34z" />
<glyph unicode="G" horiz-adv-x="1902" d="M41 961q0 303 133.5 454.5t374.5 151.5q437 0 500 -527q38 166 142.5 268.5t274.5 102.5q169 0 282.5 -120t113.5 -308q0 -96 -21.5 -195t-52 -182.5t-86 -180t-101 -165.5t-120 -162t-120.5 -146.5t-124 -141.5q-9 -10 -39 -47t-49 -57t-49 -47t-61 -39.5t-64 -12.5 q-41 0 -82.5 22t-71.5 52q-81 80 -149.5 151.5t-151.5 166.5t-148 181t-129 188.5t-106.5 196.5t-69 197.5t-26.5 198.5z" />
<glyph unicode="H" horiz-adv-x="1738" d="M41 1208q0 188 101.5 308t252.5 120q161 0 260.5 -101.5t135.5 -266.5q60 524 460 524q212 0 329.5 -141.5t117.5 -423.5q0 -93 -32 -217.5t-86 -253.5t-130.5 -255t-159.5 -224.5t-178.5 -159t-183.5 -60.5q-89 0 -193.5 56.5t-201 149t-187 214t-157.5 248t-107.5 254 t-40.5 229.5z" />
<glyph unicode="I" horiz-adv-x="757" d="M41 936q0 52 30 137.5t74 154t78 68.5q33 0 77.5 -66t75 -152t30.5 -142q0 -92 -52 -140t-133 -48q-66 0 -123 48t-57 140zM393 285q0 56 25.5 126.5t64.5 121.5t72 51q34 0 73 -53t64 -123.5t25 -122.5q0 -78 -49.5 -123t-110.5 -45q-77 0 -120.5 43.5t-43.5 124.5z" />
<glyph unicode="J" horiz-adv-x="2275" d="M41 133q0 72 22 144t53.5 123t63.5 91.5t54 60.5l22 21q-215 116 -215 263q0 58 26.5 105t68.5 76t87 46t90 24q0 56 10.5 111t37.5 112.5t68 100.5t109 70.5t154 27.5q135 0 230.5 -68t136.5 -165q131 190 348 190q119 0 212.5 -62.5t141 -157t47.5 -199.5 q35 -13 56 -21.5t71 -33t83.5 -48t78 -64.5t71.5 -85t46.5 -105.5t19.5 -130.5q0 -85 -35 -164t-90 -133t-124 -86.5t-136 -32.5q0 -67 -13.5 -130.5t-46 -124.5t-80 -106.5t-121.5 -73t-165 -27.5q-161 0 -285.5 101.5t-144.5 264.5q-32 -36 -65 -68.5t-89.5 -77.5 t-112 -77t-129 -55t-144.5 -23q-78 0 -150 24t-131.5 70t-95 122t-35.5 171z" />
<glyph unicode="K" horiz-adv-x="4018" d="M41 920q0 62 157 82t527 20q73 0 128 21t90.5 55t66 75t63.5 82.5t74 75.5t106.5 55t151.5 21q91 0 170 -28.5t139 -74t117.5 -100.5t120.5 -110t133 -100.5t168.5 -74t214.5 -28.5q149 0 291.5 25.5t254.5 66.5t216 91t191 99.5t163 90.5t149 66.5t134 25.5 q47 0 78.5 -30t31.5 -91q0 -43 -32 -110.5t-92 -150.5t-143 -175.5t-189.5 -186.5t-226 -183.5t-258.5 -167.5t-280 -136.5t-297.5 -92.5t-306.5 -34q-121 0 -221.5 28t-171.5 76t-130.5 110t-105.5 130.5t-89 136.5t-89.5 130t-99 110t-124 76t-158.5 28q-577 0 -708 9 q-168 11 -201 51q-13 16 -13 37z" />
<glyph unicode="L" horiz-adv-x="4018" d="M41 920q0 62 157 82t527 20q73 0 128 21t90.5 55t66 75t63.5 82.5t74 75.5t106.5 55t151.5 21q62 0 119 -14.5t97.5 -32.5t90.5 -55.5t77.5 -62t78.5 -73.5q1 89 7.5 170t22.5 168.5t40.5 160.5t63.5 139.5t89 113t120 73.5t154 27q113 0 202 -69t89 -166 q0 -55 -24.5 -96.5t-79.5 -83.5q46 -39 67 -88q152 120 297 120q152 0 257.5 -87t105.5 -212q0 -90 -44 -144t-159 -67q14 -44 14 -88q0 -32 -10 -59q83 36 203 106t210 126t193.5 99.5t176.5 43.5q59 0 86.5 -36t27.5 -85q0 -52 -41 -133t-113.5 -178t-179 -203 t-231.5 -209t-276.5 -196t-307.5 -164t-332 -112.5t-344 -41.5q-121 0 -221.5 28t-171.5 76t-130.5 110t-106 130.5t-89.5 136.5t-89.5 130t-98.5 110t-124 76t-158 28q-577 0 -708 9q-168 11 -201 51q-13 16 -13 37z" />
<glyph unicode="M" horiz-adv-x="4032" d="M41 799q0 36 43.5 80.5t116.5 77t145 32.5q66 0 137 -26t123.5 -57t122.5 -57t133 -26q47 0 101.5 12.5t122 32.5t108.5 29q309 412 309 504q0 60 16.5 133t36 132t36 144t16.5 166q0 134 -53 191t-138 57q-50 0 -87.5 -18.5t-58.5 -45.5t-36.5 -54t-29.5 -45.5 t-29 -18.5q-35 0 -35 39q0 27 20.5 64.5t55.5 74t88.5 61.5t111.5 25q273 0 273 -330q0 -77 -16.5 -158.5t-36 -139.5t-36 -134t-16.5 -143q0 -36 43 -104t112.5 -148.5t121.5 -137.5t104 -110q68 25 113 25q38 37 94 96.5t129 142.5t124 160t54 117v4q-1 61 -20 134.5 t-41.5 131t-41 133.5t-18.5 142q0 180 115 279t283 99q17 0 26.5 -11.5t9.5 -29.5t-9.5 -29t-26.5 -11h-4q-132 -2 -222 -79.5t-90 -217.5q0 -58 18.5 -129.5t40.5 -129.5t41.5 -136.5t20.5 -147.5q0 -57 100 -209.5t195 -273.5q23 3 144.5 29t191.5 26q57 0 125 -20.5 t121 -45t122.5 -45t128.5 -20.5q57 0 104.5 17t72.5 37t49.5 37t40.5 17q35 0 35 -37q0 -47 -97 -100t-205 -53q-59 0 -129 20.5t-124 45t-121.5 45t-122.5 20.5q-70 0 -202 -28.5t-198 -31.5q-116 -75 -307 -75q-198 0 -321 37q-39 8 -86 8q-57 0 -119 -31 q-15 -7 -43.5 -16.5t-127 -26t-208.5 -16.5q-181 0 -303 73q-67 -4 -203.5 -45t-212.5 -41q-65 0 -138.5 26t-128 57t-123.5 57t-126 26q-50 0 -92 -15t-67.5 -36.5t-45.5 -43.5t-37 -37t-30 -15q-17 0 -25 12t-8 27zM1391 27q0 66 34 113.5t101 47.5q74 0 279 -14t298 -14 q100 0 288.5 31.5t254.5 31.5q24 0 43 -7t30.5 -16t20 -27t12 -29t5.5 -34.5t2 -30.5v-30q0 -102 -50 -145t-141 -43q-41 0 -84.5 -15.5t-85.5 -47t-69 -89.5t-27 -133q0 -44 -13 -75t-31.5 -48t-52 -26t-62.5 -11t-75 -2q-36 0 -57.5 1t-54 5t-52.5 13.5t-40 25t-29.5 41 t-9.5 60.5q0 157 -61.5 218.5t-219.5 61.5q-71 0 -112 47.5t-41 139.5z" />
<glyph unicode="N" horiz-adv-x="2191" d="M41 68q0 340 118 626.5t345 456.5l-119 172q-10 17 -10 29q0 17 13.5 28t31.5 11q16 0 33 -21l118 -174q250 154 574 154q126 0 260 -25t239 -60.5t210 -82.5t167 -81.5t115 -68.5q17 -11 14.5 -30t-20.5 -25q-5 -2 -35 -13t-43 -16.5t-42 -17t-47.5 -20t-43.5 -20.5 t-45.5 -24t-38.5 -24q-84 -57 -188 -258q-10 -21 -21 -31t-33 -14q-89 -17 -226 -63t-232 -101l434 -631q92 -135 188 -135q66 0 109 43.5t43 103.5q0 45 -33 92q-14 21 -14 33q0 17 13 27t28 10q23 0 41 -22q51 -68 51 -144q0 -90 -67 -157.5t-171 -67.5q-65 0 -131.5 42.5 t-124.5 127.5l-436 635q-185 -141 -326 -393q-8 -14 -23.5 -18.5t-53.5 -4.5q-169 0 -295 -88q-61 -42 -125.5 -105t-104.5 -114q-11 -14 -21.5 -18.5t-17.5 1t-10 19.5q-47 235 -47 457z" />
<glyph unicode="O" horiz-adv-x="5193" d="M41 793q0 33 35 41q196 0 587 -5.5t586 -5.5q20 -1 31.5 -13.5t11.5 -27.5q0 -16 -11 -28t-32 -13q-195 0 -586 5.5t-587 5.5q-35 8 -35 41zM834 -330q0 18 10 31q107 82 341 243t349 251q13 8 27 8q17 0 29 -12t12 -27q0 -21 -17 -35q-109 -84 -342.5 -244.5 t-347.5 -249.5q-8 -4 -21 -4q-17 0 -28.5 11t-11.5 28zM948 1761q0 17 11 28t28 11q15 0 23 -4l606 -412q18 -15 18 -34q0 -15 -12 -27t-29 -12q-15 0 -28 8q-101 76 -307 209.5t-300 202.5q-10 13 -10 30zM1450 -1370q0 6 4 18q86 151 288.5 502t309.5 539q14 20 37 20 q16 0 27.5 -11t11.5 -28q0 -12 -6 -24q-126 -219 -598 -1041q-19 -16 -35 -16t-27.5 11.5t-11.5 29.5zM1645 698q0 194 71.5 372t194 309.5t295 209.5t364.5 78q193 0 362.5 -71.5t288.5 -195.5t188 -295.5t69 -365.5t-72 -371.5t-195 -308.5t-296 -208.5t-365 -77.5 q-193 0 -362 71.5t-287.5 194.5t-187 294t-68.5 365zM1667 2697q0 18 11.5 28.5t27.5 10.5q21 0 35 -14q84 -154 237 -439.5t215 -400.5q7 -14 7 -24q0 -17 -11.5 -28t-27.5 -11q-24 0 -37 18q-36 67 -199.5 372t-253.5 468q-4 12 -4 20zM2478 -1274q12 134 33.5 403.5 t34.5 403.5q3 19 15 30t26 11q16 0 28.5 -12.5t12.5 -34.5q-12 -133 -33.5 -402.5t-34.5 -404.5q-11 -33 -41 -33q-35 0 -41 39zM2566 1896q12 133 33.5 402.5t34.5 404.5q11 33 41 33q35 0 41 -39q-13 -134 -34.5 -403.5t-33.5 -403.5q-3 -19 -15 -30t-26 -11 q-16 0 -28.5 12.5t-12.5 34.5zM2994 -434q0 17 11.5 28t27.5 11q23 0 37 -19q27 -50 194.5 -362t258.5 -477q4 -12 4 -21q0 -18 -11.5 -28.5t-27.5 -10.5q-20 0 -35 15q-88 161 -247.5 457t-205.5 382q-6 12 -6 25zM3066 1753q0 13 6 25q26 45 598 1040q19 16 35 16 t27.5 -11.5t11.5 -29.5q0 -6 -4 -18q-88 -154 -290 -504t-308 -536q-15 -21 -37 -21q-16 0 -27.5 11t-11.5 28zM3559 74q0 15 12 27t29 12q14 0 29 -9q101 -76 306.5 -209t299.5 -202q11 -14 11 -31t-11 -28t-28 -11q-15 0 -23 4q-100 75 -305.5 208t-300.5 204 q-19 16 -19 35zM3592 1260q0 20 17 34q109 84 342.5 244.5t347.5 249.5q8 4 20 4q17 0 29 -11t12 -28q0 -19 -10 -31q-107 -82 -341 -242.5t-349 -250.5q-13 -8 -27 -8q-17 0 -29 12t-12 27zM3901 641q0 15 11.5 27.5t31.5 13.5q196 0 587 -5t587 -5q16 -4 25.5 -16t9.5 -25 q0 -32 -35 -41q-196 0 -587 5t-587 5q-21 1 -32 13t-11 28z" />
<glyph unicode="P" horiz-adv-x="2074" d="M41 1343v3q0 52 22 94.5t68.5 71t95 50.5t124.5 34.5t132 20.5t143.5 11t133 3.5t124.5 0.5h3q92 0 197 -13t210.5 -40.5t190.5 -65t138.5 -91t53.5 -113.5q0 -113 -63 -336q186 123 291 123q129 0 129 -125q0 -61 -36 -143t-90 -162.5t-129.5 -172t-142 -163 t-140 -144.5t-110.5 -108t-67 -62q-10 -68 -10 -112q0 -82 -70.5 -140.5t-182 -86t-249.5 -27.5q-101 0 -192 13.5t-173 42t-131 82t-49 126.5q0 147 -46.5 413t-102.5 552.5t-70 433.5q-2 10 -2 30zM365 2826q0 20 12 31.5t29 13.5q16 2 28 -8.5t12 -30.5q0 -47 20 -78 t50 -45t65.5 -29.5t65.5 -31t50 -50.5t20 -87q0 -53 -23.5 -94.5t-57 -68t-67.5 -50.5q-33 -24 -57 -52q-25 -30 -25 -65q-1 -40 21 -65q22 -27 54.5 -40.5t65 -27.5t55 -42t22.5 -71q0 -18 -13.5 -29.5t-29.5 -11.5q-39 0 -39 35q0 18 -12 32t-31 24t-41.5 20t-45.5 24 t-42 33t-31 50.5t-12 72.5q0 43 24 80t58 64t67.5 53t57.5 59.5t24 71.5q0 30 -20.5 50.5t-50.5 31t-66 27.5t-66 37.5t-50.5 63.5t-20.5 103zM834 2812q0 81 56.5 163t127.5 109q4 2 14 2q18 1 31.5 -11t13.5 -28q0 -20 -20 -34q-135 -92 -135 -189q0 -38 23 -66.5t56 -48 t66.5 -40.5t56.5 -55.5t23 -80.5q0 -38 -14.5 -71.5t-35.5 -58t-42.5 -47.5t-36 -51.5t-14.5 -59.5q-3 -19 -15 -30t-26 -11q-16 0 -28.5 12.5t-12.5 34.5q0 45 22.5 84.5t49 64t49 60t22.5 73.5q0 30 -24 54t-58 43.5t-67.5 41.5t-57.5 58t-24 82zM1352 158 q92 87 178.5 178t190.5 213t167.5 234t63.5 188q0 43 -47 43t-121.5 -36.5t-122 -69t-84.5 -62.5q-13 -39 -103 -303.5t-122 -384.5z" />
<glyph unicode="Q" horiz-adv-x="1595" d="M41 1530q0 47 17.5 85.5t43.5 66.5t71 50t85 36t101 24t103.5 14.5t109 7t100 3t92.5 0.5q89 0 196.5 -21.5t200.5 -60.5q176 342 316 628q23 31 52 18t23 -50q-114 -236 -317 -633q156 -88 156 -205q0 -124 -32 -356.5t-70.5 -448.5t-70.5 -443t-32 -341 q0 -82 -70.5 -140.5t-182 -86t-249.5 -27.5q-101 0 -192 13.5t-173 42t-131 82t-49 126.5q0 191 -49 796.5t-49 819.5z" />
<glyph unicode="R" horiz-adv-x="7149" d="M41 532q0 58 102.5 116.5t240.5 93t249 34.5q221 0 323 -70.5t111 -209.5q94 -4 228 -16t295.5 -28.5t238.5 -23.5q32 -3 138.5 -12.5t168.5 -14.5q-83 50 -160 119q-227 1 -394.5 105.5t-254 288.5t-86.5 425q0 136 102 136q61 0 134.5 -33t147.5 -90.5t144 -141 t124.5 -179t89.5 -211.5t38 -232q35 -32 74.5 -61.5t98 -64.5t130 -57.5t142.5 -25.5q72 -3 220 -10t280.5 -11.5t257.5 -5.5q-118 60 -234 162q-104 3 -212 44t-198.5 106t-171 148t-137 169.5t-89 171.5t-32.5 152q0 133 111 133q41 0 114.5 -38.5t159 -102.5 t174.5 -152.5t162.5 -182t121.5 -197.5t52 -194q246 -217 465 -219h38q246 0 704 23q-146 70 -275 184q-103 9 -242 108t-256.5 233t-200.5 287t-83 261q0 51 21.5 75.5t68.5 24.5q148 0 270.5 -46.5t210.5 -130t149 -200t91 -257t31 -300.5q253 -227 471 -227h4 q119 2 245.5 10t280 21t223.5 18q-112 53 -215 148q-124 4 -240.5 69t-204 169t-154.5 231.5t-101.5 262.5t-34.5 257q0 113 111 113q73 0 165.5 -62.5t180.5 -170.5t163 -239.5t122.5 -284t50.5 -288.5q203 -186 405 -186h8q227 4 737.5 39.5t796.5 35.5q26 0 42 -11 t16 -32q0 -38 -58 -38q-246 0 -1011 -46q-124 -3 -237.5 -59.5t-193.5 -126.5q-2 -114 -36.5 -239.5t-88.5 -238.5t-124.5 -217.5t-144.5 -179.5t-149 -120t-136 -45q-111 0 -111 112q0 101 25 213.5t70.5 221t113 208t147 175.5t178.5 122.5t203 49.5q57 47 152 106 l-404 -27q-105 -7 -160.5 -12.5t-130 -20t-128 -39t-120 -66.5t-139.5 -105q-2 -160 -32 -300.5t-91 -256.5t-149 -199.5t-210 -129.5t-269 -46q-47 0 -68.5 24.5t-21.5 75.5q0 87 53.5 204t140.5 231t189 214.5t209 165.5t190 72q84 80 209 152q-440 -29 -662 -35 q-130 -3 -256.5 -71t-218.5 -150q-4 -89 -52 -193t-121.5 -197.5t-162.5 -182t-174.5 -153t-159 -103t-114.5 -38.5q-111 0 -111 133q0 67 32.5 151t88.5 170.5t136.5 169t171 147.5t198 106.5t211.5 44.5q107 93 217 153q-116 -4 -245.5 -4t-290 2t-250.5 2 q-69 0 -140 -21.5t-129.5 -56.5t-99.5 -66t-76 -64q-4 -137 -52 -274t-122.5 -244.5t-162.5 -191.5t-178 -129.5t-163 -45.5q-102 0 -102 135q0 241 86.5 425t254 288.5t394.5 105.5q92 84 215 148q-158 6 -420 26.5t-370 24.5h-16q-66 0 -128 -22q-70 -25 -124 -67.5 t-87.5 -76.5t-60.5 -70q-2 -106 -41.5 -219.5t-100 -207t-130 -169.5t-137.5 -118.5t-117 -42.5q-111 0 -111 135q0 157 44 284.5t121.5 212t182 131t227.5 50.5q119 137 244 200q-37 4 -162.5 17.5t-185.5 19.5t-150 13.5t-153 9.5q-23 -95 -121.5 -156t-232.5 -61 q-118 0 -242.5 36t-216 87.5t-150.5 109.5t-59 102z" />
<glyph unicode="S" horiz-adv-x="7149" d="M41 532q0 58 102.5 116.5t240.5 93t249 34.5q221 0 323 -70.5t111 -209.5q94 -4 228 -16t295.5 -28.5t238.5 -23.5q32 -3 138.5 -12.5t168.5 -14.5q-83 50 -160 119q-227 1 -394.5 105.5t-254 288.5t-86.5 425q0 136 102 136q61 0 134.5 -33t147.5 -90.5t144 -141 t124.5 -179t89.5 -211.5t38 -232q223 -205 445 -207v-2q467 -25 758 -27q-118 60 -234 162q-104 3 -212 44t-198.5 106t-171 148t-137 169.5t-89 171.5t-32.5 152q0 133 111 133q41 0 114.5 -38.5t159 -102.5t174.5 -152.5t162.5 -182t121.5 -197.5t52 -194 q241 -212 465 -219q338 3 742 23q-146 70 -275 184q-103 9 -242 108t-256.5 233t-200.5 287t-83 261q0 51 21.5 75.5t68.5 24.5q148 0 270.5 -46.5t210.5 -130t149 -200t91 -257t31 -300.5q37 -33 80.5 -65t107.5 -71t139.5 -64t147.5 -27q152 8 749 49q-112 53 -215 148 q-124 4 -240.5 69t-204 169t-154.5 231.5t-101.5 262.5t-34.5 257q0 113 111 113q73 0 165.5 -62.5t180.5 -170.5t163 -239.5t122.5 -284t50.5 -288.5q197 -181 411 -186q415 27 888.5 51t647.5 24q27 0 42.5 -12t15.5 -31q0 -16 -15 -27t-43 -11q-246 0 -1011 -46 q-124 -3 -237.5 -59.5t-193.5 -126.5q-2 -114 -36.5 -239.5t-88.5 -238.5t-124.5 -217.5t-144.5 -179.5t-149 -120t-136 -45q-111 0 -111 112q0 101 25 213.5t70.5 221t113 208t147 175.5t178.5 122.5t203 49.5q57 47 152 106l-404 -27q-214 -14 -279 -26 q-134 -24 -260 -110q-61 -41 -139 -107q-2 -160 -32 -300.5t-91 -256.5t-149 -199.5t-210 -129.5t-269 -46q-47 0 -68.5 24.5t-21.5 75.5q0 87 53.5 204t140.5 231t189 214.5t209 165.5t190 72q84 80 209 152q-440 -29 -662 -35q-130 -3 -256.5 -71t-218.5 -150 q-4 -89 -52 -193t-121.5 -197.5t-162.5 -182t-174.5 -153t-159 -103t-114.5 -38.5q-111 0 -111 133q0 67 32.5 151t88.5 170.5t136.5 169t171 147.5t198 106.5t211.5 44.5q107 93 217 153q-147 -4 -448 -4q-126 0 -338 4q-130 -3 -247.5 -67.5t-197.5 -140.5 q-4 -137 -52 -274t-122.5 -244.5t-162.5 -191.5t-178 -129.5t-163 -45.5q-102 0 -102 135q0 241 86.5 425t254 288.5t394.5 105.5q92 84 215 148q-293 12 -790 51q-73 -1 -143.5 -26.5t-124 -66.5t-88 -75t-60.5 -68q-2 -106 -41.5 -219.5t-100 -207t-130 -169.5 t-137.5 -118.5t-117 -42.5q-111 0 -111 135q0 157 44 284.5t121.5 212t182 131t227.5 50.5q119 137 244 200q-37 4 -162.5 17.5t-185.5 19.5t-150 13.5t-153 9.5q-23 -95 -121.5 -156t-232.5 -61q-118 0 -242.5 36t-216 87.5t-150.5 109.5t-59 102zM123 532q0 -33 52 -76.5 t132 -83t189.5 -66.5t212.5 -27q118 0 198 53t80 131q0 114 -82 172.5t-272 58.5q-96 0 -215 -23t-207 -61.5t-88 -77.5zM977 -524q0 -54 29 -54q53 0 125.5 56.5t139.5 144.5t118 209.5t59 237.5q-215 -14 -343 -165.5t-128 -428.5zM1323 1339q0 -324 162.5 -523 t453.5 -214q-8 152 -72 302t-152 254.5t-184.5 169.5t-172.5 65q-35 0 -35 -54zM1870 -684q0 -53 35 -53q60 0 135 40.5t150 115.5t139 170.5t107 217.5t50 244q-193 -9 -333 -103.5t-211.5 -256.5t-71.5 -375zM2232 1305q0 -71 38.5 -161.5t109 -181.5t159.5 -170 t200.5 -132t221.5 -62q-14 118 -106 258t-205.5 247.5t-223.5 180t-165 72.5q-29 0 -29 -51zM2826 -668q0 -51 29 -51q55 0 165 72.5t223.5 180t205.5 247.5t106 258q-110 -10 -221.5 -63t-200.5 -132t-159.5 -169.5t-109 -181t-38.5 -161.5zM3277 1446q0 -94 70 -227.5 t171.5 -252.5t222.5 -211t214 -110q-10 393 -185.5 607t-484.5 214q-8 0 -8 -20zM3867 -715q0 -20 8 -20q309 0 484.5 214t185.5 607q-125 -25 -286.5 -168.5t-276.5 -325.5t-115 -307zM4393 1573q0 -113 30 -235t87.5 -236t133 -207.5t174 -154.5t202.5 -72 q-9 149 -74.5 320t-154 304.5t-190 222.5t-179.5 89q-29 0 -29 -31zM4901 -711q0 -18 7 -24t22 -6q78 0 179.5 89t190 222.5t154 304.5t74.5 320q-130 -13 -249 -104t-200.5 -221.5t-129.5 -285t-48 -295.5z" />
<glyph unicode="T" horiz-adv-x="7905" d="M41 301q0 16 9.5 28.5t27.5 12.5q271 0 558 13t657 48t747 90.5t825 147t894.5 210t951.5 287t1000 370.5t1035.5 468.5t1062.5 573.5q17 4 23 2q15 -3 23.5 -14t8.5 -25q0 -22 -16 -35q-210 -126 -401 -231q0 -169 -13 -508t-14 -514q-3 -18 -14 -29.5t-25 -11.5t-31 10 q-124 100 -365.5 315t-365.5 314q-217 -104 -557 -250q-13 -174 -47.5 -519.5t-46.5 -516.5q-3 -19 -14.5 -30t-26.5 -11q-12 0 -29 10q-115 130 -342.5 372.5t-333.5 360.5q-243 -89 -544 -190q-23 -162 -87.5 -518t-88.5 -531q-6 -39 -41 -39q-21 0 -37 19 q-102 134 -322.5 397t-322.5 397q-264 -70 -531 -135q-211 -695 -328 -1038q-15 -27 -38 -27q-20 0 -37 20q-120 191 -545 852q-2 3 -2 5q-382 -65 -631 -97l-448 -958q-17 -27 -37 -27q-21 0 -39 21q-142 298 -408 886l-657 -16q-17 -1 -27 11.5t-10 29.5z" />
<glyph unicode="U" horiz-adv-x="4489" d="M41 940q0 21 15.5 31t33.5 2l1667 -791q17 -7 17 -35q0 -17 -12.5 -31t-28.5 -7l-1661 788q-31 14 -31 43zM1516 2159q-8 22 1 40.5t33 18.5q33 0 41 -27l678 -1978q7 -22 -6.5 -36.5t-32.5 -14.5q-30 0 -41 33zM2609 274q0 7 4 19l752 1612q10 20 37 20t36 -19t-1 -38 l-748 -1608q-11 -24 -39 -24q-16 0 -28.5 10t-12.5 28zM2867 147q0 27 23 37l1497 615q28 11 44.5 1t16.5 -32q0 -27 -30 -39l-1506 -620q-19 -7 -32 7t-13 31z" />
<glyph unicode="V" horiz-adv-x="1978" d="M41 90q0 206 82 349.5t233 258.5q-147 294 -147 521q0 110 37.5 213t106 185.5t174.5 132.5t233 50q141 0 250.5 -39.5t177.5 -109.5t102.5 -162.5t34.5 -202.5q0 -87 -30 -169t-77.5 -148t-119 -131.5t-140 -114.5t-155.5 -102q210 -279 500 -465q76 127 109.5 272.5 t33.5 267.5q0 88 34 130t124 42h43q82 0 114.5 -32.5t32.5 -137.5q0 -430 -180 -696q110 -37 207 -51q45 -6 80.5 -40t35.5 -104v-104q0 -40 -13.5 -66.5t-33.5 -36t-35 -12.5t-26 -2q-201 11 -436 111q-112 -140 -285 -215.5t-352 -75.5q-156 0 -290 52t-227 143 t-145.5 217.5t-52.5 271.5zM123 90q0 -261 177 -431.5t456 -170.5q154 0 306.5 64t252.5 184q-96 47 -164 92q-153 -156 -395 -156q-197 0 -323 118.5t-126 299.5q0 129 47 213t140 168q-62 90 -97 152q-132 -103 -203 -231t-71 -302zM291 1219q0 -138 61.5 -304.5 t167 -330.5t254 -322.5t312.5 -283t353 -209t367 -103.5q7 -1 14.5 1t16 8.5t13.5 22.5t5 40v31q0 85 -73 102q-168 37 -336.5 119.5t-310.5 191.5t-265.5 241.5t-210 268.5t-135.5 273t-49 254q0 80 32.5 150.5t99 117.5t153.5 47q147 0 223 -69.5t76 -178.5 q0 -59 -22.5 -114.5t-54 -97.5t-88.5 -90.5t-101 -79.5t-117 -79l-2 -2q38 -67 84 -135q102 62 180 121t151.5 134.5t113.5 162.5t40 180t-29.5 170.5t-87.5 136.5t-151.5 92t-214.5 33q-108 0 -198 -43t-148.5 -113.5t-90.5 -159.5t-32 -183zM389 90q0 -147 103 -241.5 t264 -94.5q194 0 323 123q-301 208 -538 529q-38 -36 -62 -64.5t-46.5 -66.5t-33 -83.5t-10.5 -101.5zM557 1219q0 -143 80 -320q47 32 75 50.5t69 49t64.5 52.5t52 52.5t43.5 57.5t25.5 59.5t10.5 65.5q0 73 -55.5 119.5t-161.5 46.5q-92 0 -147.5 -70.5t-55.5 -162.5z M1376 111q57 -33 164 -82q42 59 72.5 131.5t47.5 134.5t28.5 140.5t15 129t6.5 121.5q0 26 -0.5 38t-4 27t-11.5 20.5t-22.5 10t-37.5 4.5h-28q-50 0 -65 -25.5t-17 -94.5q-17 -328 -148 -555z" />
<glyph unicode="W" horiz-adv-x="3409" d="M41 1217q0 32 85 92.5t175.5 106.5t112.5 46q17 0 22.5 -7t5.5 -21q0 -17 -54.5 -51.5t-128 -79t-103.5 -74.5q78 -32 524 -207q13 272 146 408.5t362 136.5q437 0 500 -527q38 166 142.5 268.5t274.5 102.5q169 0 282.5 -120t113.5 -308q0 -288 -185 -600l324 -127 q16 12 61 45.5t64 47t50.5 34.5t51 29t33.5 8q12 0 23.5 -11t11.5 -24q0 -11 -12.5 -25t-40 -34t-47.5 -33t-60.5 -37.5t-52.5 -32.5l131 -51q24 17 63 46.5t63 46.5t52.5 36t49 28t34.5 9q12 0 24.5 -10t12.5 -23q0 -11 -13.5 -26t-39.5 -34t-50 -34.5t-60 -37.5t-54 -34 q30 -11 73.5 -28.5t57.5 -22.5q31 21 80.5 58t78 57.5t59.5 37t48 15.5q13 0 25 -10t12 -23q0 -18 -47.5 -53t-118 -78.5t-94.5 -62.5q75 -238 78 -293q0 -12 -10.5 -21.5t-24.5 -9.5q-13 0 -27 23t-27 63t-22.5 77.5t-20.5 83t-16 62.5l-131 52q62 -198 62 -248 q0 -12 -10 -21.5t-23 -9.5q-14 0 -29 24t-28 64.5t-23 79.5t-21 83.5t-16 61.5l-131 52q64 -199 64 -254q0 -10 -9.5 -20t-21.5 -11q-15 0 -30.5 24.5t-29 68.5t-23.5 81t-20.5 85t-13.5 58q-9 3 -134 52.5t-196 76.5q-55 -85 -132 -184t-125.5 -155.5t-141.5 -163.5 q-9 -10 -39 -47t-49 -57t-49 -47t-61 -39.5t-64 -12.5q-41 0 -82.5 22t-71.5 52q-80 79 -147 149t-148.5 162.5t-145.5 177t-128.5 184.5t-107.5 192t-71.5 193t-31.5 195q-157 62 -348.5 136.5t-202.5 78.5q4 -51 47 -164t43 -141q0 -13 -8.5 -25t-22.5 -12 q-37 0 -92 170.5t-55 239.5zM762 991q263 -106 450 -176q41 -15 41 -49q0 -24 -20 -32t-39 1l-430 166q11 -118 64 -249.5t122 -242t172 -238.5t183.5 -215t185.5 -194q73 -73 123 -73q13 0 27.5 6t32 20t31 25.5t33 33t29.5 32.5t29.5 34t22.5 27q67 77 113.5 132.5 t114.5 142t115 157t99 162t84 172.5t53 172.5t21 177.5q0 152 -89.5 249t-224.5 97q-73 0 -133.5 -26.5t-101 -71t-68.5 -106t-40.5 -130t-12.5 -143.5q0 -87 -14.5 -118.5t-44.5 -31.5q-29 0 -49.5 32t-20.5 108q0 149 -24 264.5t-75 201.5t-135 131.5t-198 45.5 q-198 0 -309 -123.5t-117 -370.5z" />
<glyph unicode="X" horiz-adv-x="1705" d="M41 932q0 148 53 269.5t151.5 193t223.5 71.5q63 0 111.5 -21t78 -54t51 -67t44.5 -67t45 -47q12 226 118.5 351t264.5 125q47 0 47 -39q0 -43 -47 -43q-125 0 -208.5 -105t-92.5 -295q29 11 56 42.5t51.5 67.5t55 71t80 58t113.5 23q125 0 223.5 -71.5t151.5 -193 t53 -269.5q0 -84 -23 -189t-63.5 -213t-100 -210.5t-128 -182t-153.5 -128t-171 -48.5q-40 0 -68 19t-39.5 41.5t-27 41.5t-33.5 19q-17 0 -33 -19t-29.5 -41.5t-43.5 -41.5t-72 -19q-103 0 -202.5 64t-176.5 168.5t-137 231.5t-91.5 260t-31.5 247zM123 932 q0 -130 46 -285.5t118.5 -289.5t173.5 -224t201 -90q31 0 56 19t39.5 41.5t41 41.5t59.5 19q29 0 50 -12.5t33.5 -30.5t24.5 -35.5t31.5 -30t46.5 -12.5q99 0 201 95.5t174 233.5t118 291t46 269q0 192 -96.5 322t-249.5 130q-42 0 -77 -15t-60 -38.5t-47.5 -52t-43.5 -57 t-43.5 -52t-53 -38.5t-66.5 -15q-40 0 -73 20t-54 49.5t-46 64.5t-49 64.5t-64.5 49.5t-90.5 20q-153 0 -249.5 -130t-96.5 -322z" />
<glyph unicode="Y" horiz-adv-x="3729" d="M41 2367q0 50 79 78.5t173 28.5q90 0 151 -43q-16 163 -16 295q-60 25 -90 94q-29 64 -29 140v10q1 25 11 71.5t26.5 99.5t43.5 93t56 43q39 0 73 -43t54.5 -103.5t32 -118t12.5 -94.5q0 -65 -25.5 -119t-82.5 -77q7 -391 96 -760q50 88 141.5 163t163.5 75q54 0 54 -86 q0 -83 -18 -153t-46.5 -116t-63 -78.5t-67 -46.5t-59.5 -14q-23 0 -31 2q128 -395 344 -711q17 92 84.5 179t157.5 139.5t172 52.5q24 0 32.5 -11t8.5 -34q0 -87 -31 -176t-78 -156.5t-102 -116.5t-105 -65q244 -297 611 -545q0 101 43.5 193t125 151.5t181.5 59.5 q27 0 37 -15.5t10 -52.5q0 -149 -68 -272.5t-161 -159.5q686 -379 1689 -379q57 0 57 -43q0 -39 -57 -39q-759 0 -1372 232q-21 -122 -181 -201.5t-413 -79.5q-35 0 -50.5 9.5t-15.5 31.5q0 48 65.5 117t166.5 131t197 90q-308 148 -568 362q-9 -100 -108.5 -170.5 t-247.5 -70.5q-28 0 -66.5 3t-93 11t-91 28t-36.5 48q0 70 76.5 143t183.5 121t201 57q-263 266 -457 617q-24 -38 -68.5 -60t-101.5 -22q-76 0 -160 29t-143 67t-98 73.5t-39 51.5t30 42t76.5 52t112 45t127.5 19q67 0 131 -23q-137 325 -207 703q-39 -29 -114 -29 q-64 0 -141 37t-131 92.5t-54 103.5zM127 2355q19 -51 92.5 -95t147.5 -44q82 0 82 65q0 49 -46 80t-110 31q-89 0 -166 -37zM319 1323q6 -6 17.5 -15t47.5 -32.5t73.5 -41.5t90.5 -33t103 -15q52 0 83.5 24.5t31.5 63.5q0 50 -59.5 88.5t-149.5 38.5q-145 0 -238 -78z M381 2970v-8q0 -29 6 -60q7 -35 30.5 -66.5t59.5 -31.5q32 4 49 39t17 75q0 77 -29.5 168.5t-60.5 110.5q-72 -130 -72 -227zM655 1862q0 -39 13.5 -56.5t42.5 -17.5q23 0 51.5 18t59 54t51 106t20.5 160q-32 0 -89.5 -47t-103 -111t-45.5 -106zM905 268q70 -28 199 -28 q123 0 199.5 50t76.5 130q0 69 -63 69q-82 0 -182 -43.5t-165 -96t-65 -81.5zM1102 942q0 -18 1 -28t7.5 -19.5t19.5 -9.5q29 0 75 39.5t88.5 97t73 129t30.5 127.5q-54 0 -123.5 -51.5t-120.5 -132t-51 -152.5zM1696 -270q203 11 342 81.5t139 141.5q0 12 -7.5 16t-29.5 4 q-63 0 -132 -25t-128 -64.5t-104.5 -78t-79.5 -75.5zM1855 283q0 -45 25 -45q39 0 89 53.5t87 135.5t37 153q-97 0 -167.5 -93t-70.5 -204z" />
<glyph unicode="Z" horiz-adv-x="3201" d="M41 -170q0 228 88 408.5t257 285.5t392 105q130 0 260.5 -31t241.5 -81t221.5 -110.5t218 -121t212 -110.5t222 -81t230.5 -31q136 0 251 38t195.5 103t137 151t83.5 181.5t27 196.5q0 160 -74.5 289t-203 200.5t-285.5 71.5q-179 0 -322 -129q140 -140 140 -307 q0 -107 -47 -159t-148 -52q-50 0 -86.5 21.5t-53.5 56.5t-24.5 67.5t-7.5 65.5q0 159 111 299q-153 115 -357 115q-184 0 -302 -110t-118 -267q0 -17 -9 -33t-27 -16q-43 0 -43 49q0 195 140.5 327t358.5 132q229 0 412 -135q76 73 175 115t208 42q134 0 253 -48 t205.5 -132.5t136.5 -204.5t50 -258q0 -113 -30 -220.5t-94 -204t-154 -169t-218.5 -115t-279.5 -42.5q-111 0 -230 31t-227 81t-219.5 110t-224.5 120.5t-224.5 110.5t-236.5 81t-244 31q-150 0 -274 -54.5t-207 -150.5t-128.5 -227.5t-45.5 -284.5q0 -215 136.5 -357.5 t340.5 -142.5q54 0 119 21q-137 194 -137 448q0 62 14.5 119t43.5 104t76.5 75t108.5 28q110 0 183 -84t73 -242q0 -136 -62 -269.5t-175 -207.5q48 -57 119 -123t133 -120t131 -120.5t123.5 -139t99.5 -159.5t69.5 -197.5t24.5 -238.5q0 -179 -79 -334t-218.5 -248 t-306.5 -93q-110 0 -198.5 28.5t-146 75.5t-96 109.5t-55 127.5t-16.5 134q0 92 20 170.5t61.5 142t111.5 99.5t163 36q77 0 152.5 -46t125.5 -127.5t50 -174.5q0 -51 -41 -51t-41 51q0 107 -77.5 186.5t-168.5 79.5q-72 0 -126.5 -29.5t-85.5 -81.5t-46.5 -116t-15.5 -139 q0 -57 14 -111t46.5 -106t81 -91t122.5 -62.5t166 -23.5q109 0 206.5 48.5t166.5 129.5t109 190t40 226q0 138 -34 258t-86.5 204t-129 168t-146 143.5t-154.5 138.5t-140 145q-84 -33 -172 -33q-117 0 -220.5 44.5t-178 121.5t-117.5 185t-43 231zM664 -201 q0 -231 131 -413q98 63 151 179t53 234q0 117 -50 180.5t-124 63.5q-53 0 -90.5 -37t-54 -90.5t-16.5 -116.5zM2048 858q0 -29 6.5 -55.5t28 -50t55.5 -23.5q59 0 86 31t27 98q0 135 -113 248q-90 -120 -90 -248z" />
<glyph unicode="a" horiz-adv-x="1851" d="M41 131q0 28 14.5 58.5t48 66t64.5 64t90 73t96 70.5t109 76q228 159 332 247q-41 44 -41 86q0 27 19 46.5t55 30t70.5 15.5t82.5 9q25 32 41 63l-82 15q-15 3 -26 13t-11 23q0 42 42 42q5 0 11 -1q46 -8 95 -22q4 28 4 41q0 91 -57.5 160t-153.5 69q-93 0 -154.5 -65.5 t-64.5 -145.5v-6q0 -19 -11 -30t-30 -11t-30 11t-11 30v6q2 72 37 137.5t104.5 110.5t159.5 45q92 0 160.5 -46.5t100.5 -115.5t32 -149q0 -26 -11 -68q95 -41 95 -94q0 -37 -48.5 -53t-134.5 -21q-56 -67 -129 -135q37 -24 314 -186q281 -168 371 -230q216 -149 216 -233 q0 -36 -19 -62.5t-65.5 -46t-112 -31.5t-171.5 -19t-231.5 -10t-303.5 -3q-352 0 -541 19t-257 55t-68 102zM123 131q0 -94 784 -94q130 0 250.5 3t261 11.5t225.5 28t85 47.5q0 17 -15.5 39t-52 51.5t-69.5 54t-96.5 64.5t-102 64t-117 71t-113.5 68q-31 19 -85.5 51 t-86 51t-70 44t-65.5 46q-141 -117 -348 -258q-227 -158 -294 -217q-91 -80 -91 -125zM819 862q0 -12 23 -35q56 53 80 78q-103 -10 -103 -43zM1083 977q66 7 66 20q0 11 -43 21q-1 -3 -23 -41z" />
<glyph unicode="b" horiz-adv-x="3241" d="M41 -809q0 22 16 41q24 29 67.5 80.5t172 199t252 281.5t286 297.5t295.5 278.5q-229 -86 -454 -86q-264 0 -411.5 102.5t-147.5 286.5q0 99 25.5 173t83 131t158 86.5t243.5 29.5q334 0 915 -410q21 6 43 6q7 0 27 -4q144 76 257 132t260 121.5t268 101.5t202 36 q240 0 370 -115t130 -305q0 -233 -136 -340.5t-401 -107.5q-244 0 -668 211q220 -177 452 -386.5t407 -384t272.5 -274t144.5 -150.5l6 -7q15 -15 20 -22.5t5 -20.5q0 -14 -12.5 -26.5t-30.5 -12.5t-35 20q-32 35 -89.5 95.5t-233.5 237t-350.5 340.5t-414 369t-450.5 359 h-22q-15 0 -21 2l-121 -59q-122 -81 -300.5 -246.5t-347 -344t-319.5 -345.5t-243 -275l-92 -108q-21 -25 -39 -25q-19 0 -29 11t-10 26zM199 672q0 -145 126.5 -226t350.5 -81q186 0 349 50.5t378 159.5q49 31 84 46v4q-554 385 -860 385q-120 0 -204.5 -23.5t-133 -69.5 t-69.5 -106t-21 -139zM1679 627q4 -12 4 -17q0 -2 -1 -5.5t-1 -4.5q84 -47 175.5 -91.5t218.5 -99t256.5 -87.5t230.5 -33q225 0 340 87.5t115 278.5q0 152 -109 245t-309 93q-75 0 -184.5 -32t-245 -92.5t-242 -113.5t-248.5 -128z" />
<glyph unicode="c" horiz-adv-x="2801" d="M41 1270q0 114 24.5 218.5t79.5 200t136 165.5t202.5 111.5t270.5 41.5q133 0 245.5 -44.5t188.5 -116.5t129 -165.5t77.5 -190t24.5 -190.5q0 -120 -28.5 -229.5t-74.5 -191.5t-101.5 -155.5t-111 -132t-101.5 -109.5t-74.5 -100t-28.5 -91q0 -18 28 -48.5t62 -60 t62 -71t28 -78.5q0 -22 -8 -39.5t-25.5 -29.5t-35 -21t-46 -14.5t-49 -8.5t-53.5 -4.5t-49.5 -1.5h-46.5h-10q-23 -15 -45 -36.5t-47.5 -56t-41.5 -83.5t-16 -105q0 -80 32.5 -136t111.5 -99.5t223 -64.5t356 -21q200 0 355 -32.5t258.5 -90.5t170 -143.5t95 -186.5 t28.5 -225q0 -110 29 -214.5t75.5 -189.5t102 -169t111.5 -169t102.5 -172.5t75.5 -197t29 -225.5q0 -136 -19.5 -243.5t-47.5 -184t-55.5 -158.5t-47 -211t-19.5 -297q0 -20 -11 -34.5t-30 -14.5q-18 0 -29.5 13t-11.5 36q0 161 19.5 291.5t47 217.5t55.5 168.5t47.5 187 t19.5 229.5q0 114 -29 219.5t-75.5 189t-102.5 165.5t-111.5 165t-102 169.5t-75.5 197t-29 231.5q0 109 -26 197.5t-86.5 164t-154.5 126.5t-235 79.5t-323 28.5q-190 0 -330.5 18.5t-231 51t-145 84t-76.5 111t-22 138.5q0 164 113 285q-127 11 -127 96q0 36 32 92.5 t63.5 104t31.5 61.5q0 53 -33 107t-85.5 104.5t-116 106t-127 124t-116 145.5t-85.5 184t-33 227zM123 1270q0 -109 33 -208t85.5 -173.5t116 -142.5t127 -126.5t116 -113t85.5 -114.5t33 -120q0 -29 -20 -65t-43.5 -64t-43.5 -64t-20 -65q0 -18 164 -18q241 0 241 37 q0 24 -18.5 50t-45 49.5t-53 47.5t-45 53t-18.5 58q0 55 28.5 111t74.5 108.5t101.5 110t111 127t101.5 147t74.5 183t28.5 222.5q0 83 -21.5 168t-68.5 167.5t-113.5 146.5t-165 103.5t-214.5 39.5q-132 0 -239.5 -37t-179.5 -99t-120.5 -147t-70 -178t-21.5 -194z" />
<glyph unicode="d" horiz-adv-x="1136" d="M41 469q0 113 34.5 219t92 189t131 157.5t153.5 129t157 98.5t143.5 71.5t111.5 41.5t62 14q18 0 40.5 -27t45 -80t41.5 -123t31 -166.5t12 -199.5q0 -162 -36.5 -300.5t-98 -235t-142.5 -164.5t-170 -99q-84 -29 -169 -29h-11q-66 5 -70 6q-47 -229 -47 -428 q0 -22 -11.5 -35.5t-27.5 -13.5q-20 0 -31.5 13.5t-11.5 35.5q0 215 52 451q-135 49 -208 175.5t-73 299.5zM123 469q0 -144 56 -249t161 -148q59 240 164 501l-49 369q-3 22 8 38.5t33 16.5q38 0 41 -39l30 -233q135 303 289 559q-40 -11 -94.5 -33t-125 -61.5 t-140.5 -88.5t-138 -117.5t-119.5 -144t-83.5 -172t-32 -198.5zM418 51q32 -4 51 -4h11q74 0 145 26q77 28 147.5 89.5t124 148t85.5 211.5t32 271q0 158 -24 278.5t-56 181.5q-22 -35 -58 -96t-97.5 -175t-131 -269.5t-125.5 -311.5q50 38 114.5 87.5t108 83t41.5 32.5 q12 10 27 10q13 0 23 -9t10 -23q0 -31 -35 -58q-225 -169 -332 -254q-42 -132 -61 -219z" />
<glyph unicode="e" horiz-adv-x="2502" d="M41 1614q0 151 201 151q60 0 137 -22q-33 157 -33 227q0 199 168 199q106 0 270 -101q14 191 136 191q84 0 182 -65.5t182 -172t140.5 -260t56.5 -311.5q0 -262 -146 -401q130 -194 209.5 -435.5t79.5 -488.5q0 -62 -4 -168q26 81 44 135t52.5 153t62.5 170.5t69.5 167.5 t77.5 164t82 140.5t89 117.5t92.5 74t96.5 29q52 0 87.5 -19t54.5 -54t26.5 -75t7.5 -92q0 -104 -58 -261.5t-140.5 -313.5t-204.5 -349.5t-216 -330t-212 -296.5t-155 -208t-81 -104q-49 -108 -106 -207t-104 -163.5t-86.5 -114t-62.5 -71.5l-22 -22q-20 -20 -39 -20 q-15 0 -27 11.5t-12 25.5q0 20 20 40q12 11 33 33t82 100t116.5 167t123 234t116 301.5t82 369t33.5 436.5q0 238 -73 468t-193 411q-134 -91 -346 -91q-145 0 -283.5 43t-246 115.5t-190 163t-126 189t-43.5 190.5zM123 1614q0 -101 63 -210.5t168.5 -200t258.5 -149.5 t317 -59q44 0 86 5t90 18t88.5 34.5t79.5 57t65.5 81.5t43 112.5t16.5 146.5q0 115 -31.5 227.5t-83 200.5t-114 156.5t-128 105.5t-122.5 37q-56 0 -56 -160q1 -87 24.5 -217t45.5 -230q22 -96 22 -116q0 -49 -28 -49q-9 0 -29 10l-15 9q-15 9 -41 24.5t-61.5 36 t-78.5 42.5t-89 44t-95.5 42.5t-96.5 36t-94 24.5t-86 9q-119 0 -119 -69zM428 1970q0 -86 43 -258q193 -69 401 -201q-79 286 -90 457q-164 119 -268 119q-86 0 -86 -117zM1493 -735q98 130 195.5 265t229 335.5t228 371.5t165.5 345.5t69 285.5q0 158 -94 158 q-82 0 -173.5 -118t-168 -295t-154 -397t-132 -409t-101.5 -346.5t-64 -195.5z" />
<glyph unicode="f" horiz-adv-x="4970" d="M41 1743q0 14 11 47t34 80t55 98.5t78 102.5t98.5 91.5t121 65.5t141.5 25q99 0 171.5 -40t104.5 -114q70 8 105 8q105 0 233 -39q6 112 27 220q-82 27 -125 102.5t-43 181.5q0 73 25 141.5t65.5 121t91.5 98.5t102.5 78t98.5 55t80 34t47 11q15 0 34 -24.5t36.5 -67 t29.5 -109.5t12 -143q0 -120 -33 -217.5t-87 -156t-119 -89.5q-61 -29 -125 -29h-8q-26 -128 -29 -235q265 -105 537 -356t491 -594q29 258 144.5 440.5t246.5 193.5q35 64 104.5 97.5t161.5 33.5q84 0 163 -33.5t135.5 -85.5t104 -113t76.5 -119t44.5 -99.5t15.5 -58.5 q0 -15 -24.5 -34t-67 -37t-110 -30t-142.5 -12q-120 0 -217.5 33.5t-156 88t-89.5 119.5q-29 62 -29 126v8q0 18 2 28q-53 -18 -104 -78t-91 -147.5t-65 -205t-26 -240.5q190 -329 297.5 -693t107.5 -729q0 -323 -49 -614q61 133 126.5 266.5t162.5 313t192 336t211 317.5 t224 276q0 133 28 273q-82 27 -125 102.5t-43 181.5q0 73 25 141.5t65.5 121t91.5 98.5t102.5 78t98.5 55t80 34t47 11q15 0 34 -24.5t37 -67t30 -110t12 -142.5q0 -120 -33 -217.5t-87.5 -156t-119.5 -89.5q-61 -29 -125 -29h-8q-21 -104 -26 -176q216 199 391 205 q35 64 104.5 97.5t161.5 33.5q73 0 141.5 -25t121 -65.5t98.5 -91.5t78 -102.5t55 -98.5t34 -80t11 -47q0 -15 -24.5 -34t-67 -36.5t-110 -29.5t-143.5 -12q-120 0 -217 33t-156 87.5t-90 119.5q-28 62 -28 126v8q0 23 2 33q-256 -38 -612 -537q108 -49 227 -124 q71 81 182 81q92 0 170 -39.5t130 -104t89 -146.5t53.5 -166.5t16.5 -165.5q0 -62 -8 -82q-5 -14 -35.5 -23.5t-75.5 -9.5q-77 0 -159.5 21t-159 62.5t-137.5 97t-97.5 130.5t-36.5 156q0 64 25 119q-114 76 -234 125q-113 -166 -234 -376t-205.5 -375.5t-170 -346.5 t-116 -250t-54.5 -125q-36 -132 -82.5 -256t-91 -217.5t-90.5 -176t-84 -138.5t-68.5 -97t-47.5 -60l-17 -19q-17 -21 -39 -21q-15 0 -27 11.5t-12 25.5q0 17 21 41q12 13 33 38t82 114t116 190.5t122.5 268t116 346t82 425t33.5 504.5q0 268 -61 543l-2 -2q-8 7 -22 20 t-62 51t-99 73t-129.5 79t-158 77.5t-179.5 59.5t-198 33q5 -95 29 -217h4q66 0 129 -30q65 -31 119 -89.5t87 -155t33 -216.5q0 -76 -12 -143t-29.5 -109.5t-36.5 -67t-34 -24.5q-17 0 -58.5 15.5t-99.5 44.5t-119 76t-113.5 103.5t-86 135.5t-33.5 163q0 105 43 180.5 t125 102.5q-24 132 -29 235q-128 -3 -254 -30q0 -1 1 -3.5t1 -3.5v-8q0 -64 -28 -126q-31 -65 -90 -119.5t-156 -87.5t-217 -33q-76 0 -143 12t-109.5 29.5t-67 36.5t-24.5 34q0 17 15.5 58.5t44.5 99.5t76 119t103.5 113.5t135.5 86t163 33.5q103 0 176.5 -42t102.5 -120 q152 33 280 33q115 0 233.5 -25.5t211.5 -62t185 -86.5t149.5 -89.5t109.5 -80.5q-116 419 -347.5 792t-516.5 631q-108 -45 -215 -116q24 -63 24 -119q0 -81 -36.5 -156t-97.5 -130.5t-137 -97t-158.5 -62.5t-159.5 -21q-45 0 -75.5 9.5t-35.5 23.5q-8 20 -8 82 q0 81 16.5 165.5t53.5 166.5t89 146.5t130 104t170 39.5q107 0 182 -82q102 69 188 109q-185 154 -368 237.5t-344 83.5q-43 0 -87 -6q0 -93 -39.5 -167.5t-107 -122.5t-155.5 -73.5t-187 -25.5q-75 0 -142.5 12t-110 30t-67 37t-24.5 34zM137 1798q189 125 395 211l-63 6 q-17 1 -27 12.5t-10 28.5q0 20 15.5 32.5t41.5 8.5l195 -35q69 19 88 23q-50 86 -192 86q-72 0 -138.5 -28t-113.5 -68.5t-88 -94t-64.5 -97.5t-38.5 -85zM178 1724q90 -12 207 -12q101 0 182 26t130 68.5t75 93.5q23 48 23 99v8q-153 -33 -301 -104l-76 -146 q-11 -22 -41 -22q-14 0 -26.5 9.5t-12.5 27.5q0 3 0.5 5.5l1 5t2.5 6t3.5 6.5t5 9t6.5 10.5l9 13.5t11 17q-105 -56 -199 -121zM725 256q78 43 209 104l-47 5q-17 1 -27 12.5t-10 28.5q0 20 15.5 32t41.5 8l164 -28q151 60 287 94q-43 98 -199 98q-69 0 -132.5 -25 t-109.5 -63t-86 -88t-64.5 -93t-41.5 -85zM737 168q86 -16 228 -16q191 0 299 84.5t110 195.5l-90 -24l-117 -187q-15 -22 -41 -22q-14 0 -26.5 9.5t-12.5 27.5q0 12 15 34l76 101q-224 -80 -441 -203zM922 1075q77 94 159 178q-55 -16 -61 -16q-16 0 -28.5 12t-12.5 31 q0 15 10.5 27t30.5 16l172 39q122 110 223 184q-47 47 -115 47q-91 0 -165.5 -48.5t-119.5 -126t-69 -166.5t-24 -177zM969 999q119 9 236 70t192.5 154t75.5 186q0 33 -13 70l-78 -62l-39 -205q-3 -16 -15.5 -27t-29.5 -11q-14 0 -25 11.5t-11 26.5q0 18 30 129 q-184 -164 -323 -342zM1135 2572q0 -156 104 -202q37 145 88 278l-29 176q-4 26 8.5 42t32.5 16q17 0 28.5 -10t12.5 -27l4 -58q64 143 107 219q-54 -22 -109.5 -57t-114 -88.5t-95.5 -129t-37 -159.5zM1321 2357q108 5 190 113.5t82 296.5q0 148 -18 225 q-115 -214 -193 -430l93 68q21 14 34 14q18 0 27.5 -12.5t9.5 -26.5q0 -26 -22 -41l-176 -110zM1651 -37q0 -84 37 -159.5t95.5 -129t114 -88.5t109.5 -57q-39 68 -106 219l-5 -57q-1 -17 -12.5 -27t-28.5 -10q-20 0 -32 15.5t-8 41.5l28 176q-49 129 -88 277 q-51 -21 -77.5 -74t-26.5 -127zM1837 178l27 -96l176 -111q22 -15 22 -41q0 -14 -9.5 -26.5t-27.5 -12.5q-11 0 -34 15l-93 67q78 -216 193 -430q18 77 18 226q0 187 -82 294.5t-190 114.5zM2744 1604v-8q0 -49 24 -96q25 -50 74 -92t130.5 -67.5t181.5 -25.5q110 0 227 24 q-210 165 -409 246l75 -100q15 -18 15 -35q0 -18 -12.5 -27.5t-26.5 -9.5q-26 0 -41 23l-119 186q-51 13 -115 20q-4 -24 -4 -38zM2789 1720q117 -16 254 -78l142 15q28 3 42.5 -9t14.5 -32q0 -18 -10 -29.5t-27 -11.5h-27q124 -71 205 -133q-20 43 -45.5 84.5t-65 87.5 t-84.5 80.5t-105 57t-124 22.5q-110 0 -170 -54zM3592 995q0 -155 105 -202q37 145 88 278l-29 176q-4 26 8.5 42t32.5 16q17 0 28.5 -10t12.5 -27l4 -58q66 147 107 220q-42 -17 -85.5 -41.5t-94 -65t-88.5 -87t-63.5 -110t-25.5 -131.5zM3723 -205q0 -92 75.5 -184.5 t193 -153.5t235.5 -69q-167 201 -326 342q33 -127 33 -131q0 -15 -11.5 -27t-25.5 -12q-17 0 -30 12t-15 27l-39 206q-10 8 -36 29t-41 31q-13 -33 -13 -70zM3779 -66q109 -78 225 -186l172 -39q20 -4 30.5 -16t10.5 -27q0 -19 -12.5 -31t-28.5 -12q-2 0 -5.5 1t-19.5 6 t-39 12q63 -65 162 -179q-1 88 -25.5 177t-69.5 166t-119.5 125.5t-164.5 48.5q-70 0 -116 -46zM3779 780q108 5 190 113.5t82 296.5q0 148 -18 225q-115 -214 -193 -430l92 68q21 14 35 14q18 0 27.5 -12.5t9.5 -26.5q0 -26 -23 -41l-176 -110zM4176 606v-8q0 -49 24 -96 q25 -50 73.5 -92t130 -67.5t181.5 -25.5q132 0 234 21q-213 168 -416 250l76 -101q14 -17 14 -34q0 -18 -12.5 -27.5t-26.5 -9.5q-26 0 -41 22l-118 187q-51 13 -115 20q-4 -24 -4 -39zM4221 723q117 -16 254 -78l141 14q28 4 43 -8.5t15 -32.5q0 -18 -10 -29t-27 -11h-27 q119 -68 205 -134q-20 43 -45.5 84.5t-65 87.5t-84.5 80.5t-105 57t-124 22.5q-111 0 -170 -53z" />
<glyph unicode="g" horiz-adv-x="1902" d="M41 961q0 303 133.5 454.5t374.5 151.5q437 0 500 -527q38 166 142.5 268.5t274.5 102.5q169 0 282.5 -120t113.5 -308q0 -96 -21.5 -195t-52 -182.5t-86 -180t-101 -165.5t-120 -162t-120.5 -146.5t-124 -141.5q-9 -10 -39 -47t-49 -57t-49 -47t-61 -39.5t-64 -12.5 q-41 0 -82.5 22t-71.5 52q-81 80 -149.5 151.5t-151.5 166.5t-148 181t-129 188.5t-106.5 196.5t-69 197.5t-26.5 198.5zM123 961q0 -88 25.5 -185t65 -184.5t101.5 -185t121.5 -176.5t139 -170.5t139.5 -155.5t137 -142q73 -73 123 -73q13 0 27.5 6t32 20t31 25.5t33 33 t29.5 32.5t29.5 34t22.5 27q67 77 113.5 132.5t114.5 142t115 157t99 162t84 172.5t53 172.5t21 177.5q0 152 -89.5 249t-224.5 97q-73 0 -133.5 -26.5t-101 -71t-68.5 -106t-40.5 -130t-12.5 -143.5q0 -87 -14.5 -118.5t-44.5 -31.5q-29 0 -49.5 32t-20.5 108 q0 149 -24 264.5t-75 201.5t-135 131.5t-198 45.5q-203 0 -314.5 -131.5t-111.5 -392.5z" />
<glyph unicode="h" horiz-adv-x="1738" d="M41 1208q0 188 101.5 308t252.5 120q161 0 260.5 -101.5t135.5 -266.5q60 524 460 524q212 0 329.5 -141.5t117.5 -423.5q0 -93 -32 -217.5t-86 -253.5t-130.5 -255t-159.5 -224.5t-178.5 -159t-183.5 -60.5q-89 0 -193.5 56.5t-201 149t-187 214t-157.5 248t-107.5 254 t-40.5 229.5zM123 1208q0 -92 38.5 -210t101 -235t146.5 -230.5t172 -200t180 -140t167 -53.5q89 0 189.5 80.5t186.5 207t158 272t113 287.5t41 241q0 241 -95.5 362t-269.5 121q-391 0 -391 -643q0 -139 -69 -139q-30 0 -45 31t-15 118q0 75 -12 143.5t-38 130t-64.5 106 t-95.5 71t-126 26.5q-117 0 -194.5 -97t-77.5 -249z" />
<glyph unicode="i" horiz-adv-x="757" d="M41 936q0 52 30 137.5t74 154t78 68.5q33 0 77.5 -66t75 -152t30.5 -142q0 -92 -52 -140t-133 -48q-66 0 -123 48t-57 140zM117 936q0 -54 34 -85.5t70 -31.5q45 0 78 31.5t33 83.5q0 40 -24 109t-50.5 120t-34.5 51t-34 -52t-49 -120.5t-23 -105.5zM393 285 q0 56 25.5 126.5t64.5 121.5t72 51q34 0 73 -53t64 -123.5t25 -122.5q0 -78 -49.5 -123t-110.5 -45q-77 0 -120.5 43.5t-43.5 124.5zM463 283q0 -99 94 -99q35 0 61.5 26t26.5 75q0 60 -32.5 142.5t-57.5 82.5q-22 0 -57 -82t-35 -145z" />
<glyph unicode="j" horiz-adv-x="2275" d="M41 133q0 72 22 144t53.5 123t63.5 91.5t54 60.5l22 21q-215 116 -215 263q0 58 26.5 105t68.5 76t87 46t90 24q0 56 10.5 111t37.5 112.5t68 100.5t109 70.5t154 27.5q135 0 230.5 -68t136.5 -165q131 190 348 190q119 0 212.5 -62.5t141 -157t47.5 -199.5 q35 -13 56 -21.5t71 -33t83.5 -48t78 -64.5t71.5 -85t46.5 -105.5t19.5 -130.5q0 -85 -35 -164t-90 -133t-124 -86.5t-136 -32.5q0 -67 -13.5 -130.5t-46 -124.5t-80 -106.5t-121.5 -73t-165 -27.5q-161 0 -285.5 101.5t-144.5 264.5q-32 -36 -65 -68.5t-89.5 -77.5 t-112 -77t-129 -55t-144.5 -23q-78 0 -150 24t-131.5 70t-95 122t-35.5 171zM123 133q0 -75 29 -134.5t76.5 -96t105 -55.5t119.5 -19q53 0 108.5 15t99 36t90 55t75.5 58.5t63 60t44.5 48t27.5 32.5q27 31 53 31q23 0 36 -8.5t13 -22.5q0 -160 104.5 -265.5t255.5 -105.5 q86 0 154 34t107.5 91t60 125t20.5 142q0 17 1.5 26.5t7 22.5t20 19.5t37.5 6.5q130 0 225.5 98t95.5 232q0 45 -10.5 86t-25 73t-41.5 63t-47.5 51.5t-55.5 43t-53.5 33.5t-54 27t-44.5 19.5t-36 13.5q-24 8 -33 12t-17 13.5t-8 25.5q0 148 -89 256t-230 108 q-66 0 -124.5 -24t-95.5 -58t-64 -68.5t-39 -58.5l-11 -24q-7 -16 -14.5 -21.5t-20.5 -5.5q-37 0 -37 41q0 45 -20.5 90.5t-58 84t-98 63t-132.5 24.5q-83 0 -144 -30t-95.5 -82.5t-51 -116.5t-16.5 -141q0 -41 -41 -41q-33 0 -69.5 -11t-71.5 -31.5t-57.5 -57t-22.5 -80.5 q0 -110 203 -209q36 -18 36 -39q0 -24 -16 -37q-37 -31 -70.5 -68.5t-70.5 -91.5t-59.5 -121t-22.5 -137z" />
<glyph unicode="k" horiz-adv-x="4018" d="M41 920q0 62 157 82t527 20q73 0 128 21t90.5 55t66 75t63.5 82.5t74 75.5t106.5 55t151.5 21q91 0 170 -28.5t139 -74t117.5 -100.5t120.5 -110t133 -100.5t168.5 -74t214.5 -28.5q149 0 291.5 25.5t254.5 66.5t216 91t191 99.5t163 90.5t149 66.5t134 25.5 q47 0 78.5 -30t31.5 -91q0 -43 -32 -110.5t-92 -150.5t-143 -175.5t-189.5 -186.5t-226 -183.5t-258.5 -167.5t-280 -136.5t-297.5 -92.5t-306.5 -34q-121 0 -221.5 28t-171.5 76t-130.5 110t-105.5 130.5t-89 136.5t-89.5 130t-99 110t-124 76t-158.5 28q-577 0 -708 9 q-168 11 -201 51q-13 16 -13 37zM109 920q0 -9 338 -18t511 -9q100 0 182 -28t139 -75t106.5 -108t92 -128.5t86 -134.5t98.5 -128t120.5 -108t160 -75t209.5 -28q163 0 334 41.5t321.5 111.5t296.5 161t265.5 190t221.5 199t171.5 188.5t108.5 157t39 104.5q0 51 -56 51 q-46 0 -110.5 -26t-138.5 -68t-161.5 -92.5t-195 -101.5t-223.5 -93t-261.5 -68t-295.5 -26q-122 0 -226 28.5t-177.5 74t-138.5 100.5t-122.5 110t-114.5 100.5t-129.5 74t-154.5 28.5t-140.5 -21t-92 -54t-60.5 -73t-58.5 -80.5t-73.5 -73.5t-117 -54t-179 -21 q-101 0 -338 -8t-237 -20zM1194 1104q0 37 31 61.5t75 24.5q46 0 77.5 -24.5t31.5 -61.5q0 -36 -31.5 -60t-77.5 -24q-45 0 -75.5 24t-30.5 60zM1249 1102q0 -15 16 -26t38 -11q21 0 35 11t14 26q0 17 -17 28t-39 11t-34.5 -11t-12.5 -28zM1724 688q0 41 41 41t41 -41v-4 q0 -63 20 -118t64 -103.5t125 -76.5t191 -28q94 0 185 16.5t164 44.5t141 64t120.5 76t98 80t77 76t54.5 64t34 45l10 16q16 22 37 22q27 0 37.5 -24t-4.5 -43q-7 -11 -20 -29.5t-58.5 -72.5t-97.5 -103t-136.5 -109t-175.5 -103t-214 -72.5t-252 -29.5q-109 0 -194 24 t-138 63.5t-88 94t-48.5 111t-13.5 119.5z" />
<glyph unicode="l" horiz-adv-x="4018" d="M41 920q0 62 157 82t527 20q73 0 128 21t90.5 55t66 75t63.5 82.5t74 75.5t106.5 55t151.5 21q62 0 119 -14.5t97.5 -32.5t90.5 -55.5t77.5 -62t78.5 -73.5q1 89 7.5 170t22.5 168.5t40.5 160.5t63.5 139.5t89 113t120 73.5t154 27q113 0 202 -69t89 -166 q0 -55 -24.5 -96.5t-79.5 -83.5q46 -39 67 -88q152 120 297 120q152 0 257.5 -87t105.5 -212q0 -90 -44 -144t-159 -67q14 -44 14 -88q0 -32 -10 -59q83 36 203 106t210 126t193.5 99.5t176.5 43.5q59 0 86.5 -36t27.5 -85q0 -52 -41 -133t-113.5 -178t-179 -203 t-231.5 -209t-276.5 -196t-307.5 -164t-332 -112.5t-344 -41.5q-121 0 -221.5 28t-171.5 76t-130.5 110t-106 130.5t-89.5 136.5t-89.5 130t-98.5 110t-124 76t-158 28q-577 0 -708 9q-168 11 -201 51q-13 16 -13 37zM109 920q0 -9 338 -18t511 -9q100 0 182 -28t139 -75 t106.5 -108t92 -128.5t86 -134.5t98.5 -128t120.5 -108t160 -75t209.5 -28q129 0 264 27t259 74.5t247 111.5t231.5 137.5t209.5 153.5t183.5 159.5t151 155t115 140.5t72 115t25.5 79q0 51 -45 51q-63 0 -157 -42.5t-195 -104t-206 -123.5t-216 -107.5t-197 -48.5 q-15 -3 -60 -8q35 -61 35 -129q0 -91 -60.5 -143t-158.5 -52q-56 0 -116 15.5t-99.5 40t-40.5 49.5q0 20 11 31.5t24 11.5q15 0 44 -16.5t75 -33t102 -16.5q61 0 99 30t38 83q0 50 -19.5 86t-38.5 55.5t-19 30.5q0 12 31 17.5t75 10.5t87.5 14.5t74.5 36t31 68.5 q0 41 -13 68t-26 42.5t-13 27.5q0 13 18 19t44.5 7t57.5 7t57.5 17t44.5 39.5t18 71.5q0 90 -82.5 153.5t-198.5 63.5q-71 0 -143.5 -32t-132 -80t-122 -122t-108 -141t-95.5 -154.5t-78.5 -144.5t-64.5 -130t-46 -93t-18.5 -26t-22.5 -6q-41 0 -41 39q0 10 25 70t65 138 q-83 37 -163 99.5t-139 120t-122 111.5t-140 87t-165 33q-82 0 -140.5 -21t-92 -54t-60.5 -73t-58.5 -80.5t-73.5 -73.5t-117 -54t-179 -21q-101 0 -338 -8t-237 -20zM1194 1104q0 37 31 61.5t75 24.5q46 0 77.5 -24.5t31.5 -61.5q0 -36 -31.5 -60t-77.5 -24q-45 0 -75.5 24 t-30.5 60zM1249 1102q0 -15 16 -26t38 -11q21 0 35 11t14 26q0 17 -17 28t-39 11t-34.5 -11t-12.5 -28zM1948 1096q120 -103 225 -150q185 334 379 514q0 22 -21 44.5t-45.5 36.5t-45.5 29.5t-21 26.5q0 18 23.5 35.5t51 32t51 45.5t23.5 72q0 60 -59.5 108.5t-128.5 48.5 q-84 0 -151.5 -30.5t-112.5 -79t-77.5 -121t-50 -143.5t-27.5 -161t-12 -158q-1 -46 -1 -97v-53z" />
<glyph unicode="m" horiz-adv-x="4032" d="M41 799q0 36 43.5 80.5t116.5 77t145 32.5q66 0 137 -26t123.5 -57t122.5 -57t133 -26q46 0 100.5 12.5t122.5 32.5t109 29q309 412 309 504q0 60 16.5 133t36 132t36 144t16.5 166q0 134 -53 191t-138 57q-50 0 -87.5 -18.5t-58.5 -45.5t-36.5 -54t-29.5 -45.5 t-29 -18.5q-35 0 -35 39q0 27 20.5 64.5t55.5 74t88.5 61.5t111.5 25q273 0 273 -330q0 -77 -16.5 -158.5t-36 -139.5t-36 -134t-16.5 -143q0 -36 43 -104t112.5 -148.5t121.5 -137.5t104 -110q68 25 113 25q40 39 95 97t129 142t125 160.5t52 116.5v14q0 74 -28 160 q-30 94 -61.5 191.5t-31.5 179.5q0 180 115 279t283 99q17 0 26.5 -11.5t9.5 -29.5q0 -40 -40 -40q-131 0 -221.5 -78t-90.5 -219q0 -58 19 -129.5t41.5 -129.5t41.5 -136.5t19 -147.5q0 -57 100 -209.5t195 -273.5q23 3 144.5 29t191.5 26q57 0 125 -20.5t121 -45 t122.5 -45t128.5 -20.5q57 0 104.5 17t72.5 37t49.5 37t40.5 17q35 0 35 -37q0 -47 -97 -100t-205 -53q-59 0 -129 20.5t-124 45t-121.5 45t-122.5 20.5q-70 0 -202 -28.5t-198 -31.5q-116 -75 -307 -75q-198 0 -321 37q-39 8 -86 8q-57 0 -119 -31q-15 -7 -43.5 -16.5 t-127 -26t-208.5 -16.5q-181 0 -303 73q-67 -4 -203.5 -45t-212.5 -41q-65 0 -138.5 26t-128 57t-123.5 57t-126 26q-50 0 -92 -15t-67.5 -36.5t-45.5 -43.5t-37 -37t-30 -15q-17 0 -25 12t-8 27zM1303 905q102 -69 278 -69q186 0 299 34q-245 256 -334 412 q-76 -152 -243 -377zM1391 27q0 66 34 113.5t101 47.5q74 0 279 -14t298 -14q100 0 288.5 31.5t254.5 31.5q24 0 43 -7t30.5 -16t20 -27t12 -29t5.5 -34.5t2.5 -30.5t0.5 -30q0 -102 -50.5 -145t-141.5 -43q-41 0 -84.5 -15.5t-85.5 -47t-69 -89.5t-27 -133q0 -44 -13 -75 t-31.5 -48t-52 -26t-62.5 -11t-75 -2q-36 0 -57.5 1t-54 5t-52.5 13.5t-40 25t-29.5 41t-9.5 60.5q0 157 -61.5 218.5t-219.5 61.5q-71 0 -112 47.5t-41 139.5zM1473 23v-6q0 -53 18 -73q19 -22 55 -22q203 0 282 -86t79 -276q0 -22 13.5 -35.5t40.5 -19.5t49.5 -7.5 t57.5 -1.5q37 0 60 2.5t46.5 10t34.5 24t11 43.5q0 188 97.5 275.5t262.5 87.5q45 0 71 28t26 80q0 4 0.5 20t0 22.5t-2.5 18.5t-6.5 17.5t-13 10.5t-21.5 5q-32 0 -224.5 -31.5t-306.5 -31.5q-92 0 -288 14t-277 14q-65 0 -65 -83zM2183 913q109 -32 303 -32q169 0 277 69 q-173 229 -244 377q-91 -157 -336 -414z" />
<glyph unicode="n" horiz-adv-x="2191" d="M41 68q0 340 118 626.5t345 456.5l-119 172q-10 17 -10 29q0 17 13.5 28t31.5 11q16 0 33 -21l118 -174q250 154 574 154q126 0 260 -25t239 -60.5t210 -82.5t167 -81.5t115 -68.5q17 -11 14.5 -30t-20.5 -25q-5 -2 -35 -13t-43 -16.5t-42 -17t-47.5 -20t-43.5 -20.5 t-45.5 -24t-38.5 -24q-84 -57 -188 -258q-10 -21 -21 -31t-33 -14q-89 -17 -226 -63t-232 -101l434 -631q92 -135 188 -135q66 0 109 43.5t43 103.5q0 45 -33 92q-14 21 -14 33q0 17 13 27t28 10q23 0 41 -22q51 -68 51 -144q0 -90 -67 -157.5t-171 -67.5q-65 0 -131.5 42.5 t-124.5 127.5l-436 635q-185 -141 -326 -393q-8 -14 -23.5 -18.5t-53.5 -4.5q-169 0 -295 -88q-61 -42 -125.5 -105t-104.5 -114q-11 -14 -21.5 -18.5t-17.5 1t-10 19.5q-47 235 -47 457zM125 63q0 -208 22 -333q5 5 21.5 24.5t24.5 28t25 26.5t30.5 30t33 27.5t40.5 29.5 q113 80 305 102q-107 178 -168.5 393t-61.5 402q0 97 19 172q-146 -164 -218.5 -397.5t-72.5 -504.5zM469 799q0 -172 62 -381t167 -381q58 95 148.5 200t202.5 183q135 93 481 190q-163 213 -408 363.5t-422 150.5q-135 0 -183 -71t-48 -254zM731 1190q203 -18 451.5 -167 t410.5 -361q97 179 197 247q34 24 92.5 50.5t100.5 41.5l42 15q-56 34 -138.5 73t-195.5 81.5t-248 70t-257 27.5q-255 0 -455 -78z" />
<glyph unicode="o" horiz-adv-x="5197" d="M43 793q0 32 35 41q196 0 587 -5.5t586 -5.5q27 -2 38 -21.5t0 -39t-38 -21.5q-195 0 -586 5.5t-587 5.5q-35 9 -35 41zM843.5 -355q-19.5 25 2.5 56q107 82 341 243t349 251q16 10 29 10q18 0 31 -17q10 -13 10 -25q0 -17 -19 -34q-109 -84 -342.5 -244.5t-347.5 -249.5 q-34 -15 -53.5 10zM958.5 1786.5q19.5 24.5 53.5 9.5q100 -75 305.5 -208t300.5 -204q19 -17 19 -34q0 -12 -10 -24q-13 -17 -30 -17q-14 0 -30 10q-101 76 -306.5 209.5t-299.5 202.5q-22 31 -2.5 55.5zM1456 -1352q86 151 288.5 502t309.5 539q17 22 40 20.5t31.5 -20 t-1.5 -43.5q-126 -219 -598 -1041q-28 -26 -55 -9t-15 52zM1647 698q0 194 71.5 372t194 309.5t295 209.5t364.5 78q193 0 362.5 -71.5t288.5 -195.5t188 -295.5t69 -365.5t-72 -371.5t-195 -308.5t-296 -208.5t-365 -77.5q-193 0 -362 71.5t-287.5 194.5t-187 294 t-68.5 365zM1673 2677q-12 37 15 54t55 -9q84 -154 237 -439.5t215 -400.5q13 -23 2 -43.5t-31.5 -21t-39.5 19.5q-36 67 -199.5 372t-253.5 468zM1729 698q0 -237 105 -429.5t293.5 -303t424.5 -110.5q176 0 333.5 71t269.5 191t177.5 282.5t65.5 339.5t-62 333.5 t-170.5 269.5t-262.5 178t-331 65q-176 0 -333.5 -71.5t-268.5 -192t-176 -283.5t-65 -340zM2480 -1274q12 134 34 403.5t34 403.5q4 27 24 36.5t39 -3t19 -39.5q-12 -133 -33.5 -402.5t-34.5 -404.5q-8 -23 -26 -30.5t-35 2.5t-21 34zM2568 1896q12 133 33.5 402.5 t34.5 404.5q8 23 26 30.5t35 -2.5t21 -34q-13 -134 -34.5 -403.5t-33.5 -403.5q-4 -27 -24 -36.5t-39 3t-19 39.5zM3000.5 -415.5q11.5 20.5 32 21t39.5 -19.5q27 -50 194.5 -362t258.5 -477q12 -37 -15 -54t-55 9q-88 161 -247.5 457t-205.5 382q-13 23 -1.5 43.5z M3072.5 1734.5q-8.5 18.5 1.5 43.5q26 45 598 1040q28 26 55 9t15 -52q-88 -154 -290 -504t-308 -536q-17 -22 -40 -20.5t-31.5 20zM3571 98q13 17 30 16q14 0 30 -10q101 -76 306.5 -209t299.5 -202q22 -31 2.5 -56t-53.5 -10q-100 75 -305.5 208t-300.5 204q-19 17 -19 34 q0 13 10 25zM3602 1236q-10 12 -10 24q0 17 19 34q109 84 342.5 244.5t347.5 249.5q34 15 53.5 -10t-2.5 -56q-107 -82 -341 -242.5t-349 -250.5q-16 -10 -30 -10q-17 0 -30 17zM3908 621.5q-11 19.5 0 39t38 21.5q196 0 587 -5t587 -5q35 -9 35 -41t-35 -41q-196 0 -587 5 t-587 5q-27 2 -38 21.5z" />
<glyph unicode="p" horiz-adv-x="2072" d="M41 1313q0 59 21.5 107t58.5 80t88 57t110.5 38t124.5 22.5t130.5 11t128.5 3.5q31 1 61 1t59 -1h62q92 0 197 -13t210.5 -40.5t190.5 -65t138.5 -91t53.5 -113.5q0 -113 -63 -336q186 123 291 123q129 0 129 -125q0 -61 -36 -143t-90 -162.5t-129.5 -172t-142 -163 t-140 -144.5t-110.5 -108t-67 -62q-10 -68 -10 -112q0 -82 -70.5 -140.5t-182 -86t-249.5 -27.5q-101 0 -192 13.5t-173 42t-131 82t-49 126.5q0 115 -34 327.5t-75.5 407t-75.5 388.5t-34 276zM123 1339q0 -50 37.5 -89.5t103.5 -64t139.5 -41t162 -24.5t154.5 -11t132 -3 q102 0 215 9t238.5 29t206.5 63t81 102q0 55 -72.5 102.5t-182.5 77t-229.5 45.5t-223.5 16h-35q-99 0 -155.5 -1t-156.5 -6t-160.5 -19t-126 -36t-97 -60t-31.5 -89zM143 1167q20 -131 74.5 -405t89.5 -492t35 -356q0 -50 41.5 -87.5t111.5 -57t147 -28.5t163 -9 q179 0 299.5 44.5t120.5 127.5q0 93 45.5 260t103 326.5t119 351.5t84.5 315q-117 -70 -329.5 -101.5t-395.5 -31.5q-82 0 -167.5 6t-189 20t-197.5 44t-155 73zM362 2826q0 20 12 31.5t29 13.5q16 2 28.5 -8.5t12.5 -30.5q0 -47 20 -78t50 -45t65.5 -29.5t65.5 -31 t50 -50.5t20 -87q0 -53 -23.5 -94.5t-57 -68t-67.5 -50t-57 -52.5q-25 -29 -25 -65q0 -39 21 -65q23 -27 55 -40.5t64 -27.5t54.5 -42t22.5 -71q0 -18 -13.5 -29.5t-29.5 -11.5q-38 0 -38 35q0 18 -12 32t-31 24t-41.5 20t-45.5 24t-42 33t-31 50.5t-12 72.5q0 43 24 80 t58 64t67.5 53t57.5 59.5t24 71.5q0 35 -28.5 56.5t-68.5 36.5t-80.5 35.5t-69 67t-28.5 117.5zM831 2812q0 81 57 163t128 109q4 2 14 2q18 1 31.5 -11t13.5 -28q0 -20 -20 -34q-135 -92 -135 -189q0 -38 23 -66.5t56 -48t66.5 -40.5t56.5 -55.5t23 -80.5q0 -38 -15 -71.5 t-36 -58t-42 -47.5t-36 -51.5t-15 -59.5q-3 -19 -14.5 -30t-25.5 -11q-16 0 -28.5 12.5t-12.5 34.5q0 45 22.5 84.5t49 64t49 60t22.5 73.5q0 30 -24 54t-58 43.5t-68 41.5t-58 58t-24 82zM1350 158q92 87 178.5 178t190.5 213t167.5 234t63.5 188q0 43 -47 43t-121.5 -36.5 t-122 -69t-84.5 -62.5q-13 -39 -103 -303.5t-122 -384.5z" />
<glyph unicode="q" horiz-adv-x="1597" d="M41 1530q0 47 17.5 85.5t43.5 66.5t71 50t85 36t101 24t103.5 14.5t109 7t100 3t92.5 0.5q94 0 207.5 -24t208.5 -67l297 637q12 25 34.5 25.5t36.5 -17.5t4 -40q-171 -359 -299 -643q138 -86 138 -195q0 -124 -32 -356.5t-70.5 -448.5t-70.5 -443t-32 -341 q0 -82 -70.5 -140.5t-182 -86t-249.5 -27.5q-101 0 -192 13.5t-173 42t-131 82t-49 126.5q0 191 -49 796.5t-49 819.5zM123 1528q0 -59 45.5 -104t111.5 -69.5t154.5 -40t158 -20t138.5 -4.5q128 0 256 19l160 348q-84 37 -190 57.5t-193 20.5h-73.5t-79 -1.5t-86 -4.5 t-83.5 -7.5t-83.5 -12.5t-74 -18.5t-66.5 -26.5t-49.5 -35t-34.5 -45t-11 -56zM127 1354q7 -180 50.5 -709t43.5 -731q0 -50 41.5 -87.5t111.5 -57t147 -28.5t163 -9q179 0 299.5 44.5t120.5 127.5q0 168 89 708t105 721q-88 -60 -245 -94q-89 -198 -190.5 -426.5 t-219.5 -495.5t-178 -403q-11 -23 -34.5 -25t-38 16t-3.5 42q234 568 559 1276q-123 -15 -217 -15q-99 0 -197.5 9.5t-219 44.5t-187.5 92zM1092 1327q217 53 217 166q0 66 -86 125q-81 -178 -131 -291z" />
<glyph unicode="r" horiz-adv-x="7905" d="M41 301q0 16 9.5 28.5t27.5 12.5q271 0 558 13t657 48t747 90.5t825 147t894.5 210t951.5 287t1000 370.5t1035.5 468.5t1062.5 573.5q17 4 23 2q15 -3 23.5 -14t8.5 -25q0 -22 -16 -35q-210 -126 -401 -231q0 -169 -13 -508t-14 -514q-3 -18 -14 -29.5t-25 -11.5t-31 10 q-124 100 -365.5 315t-365.5 314q-217 -104 -557 -250q-13 -174 -47.5 -519.5t-46.5 -516.5q-3 -19 -14.5 -30t-26.5 -11q-12 0 -29 10q-115 130 -342.5 372.5t-333.5 360.5q-243 -89 -544 -190q-23 -162 -87.5 -518t-88.5 -531q-6 -39 -41 -39q-21 0 -37 19 q-102 134 -322.5 397t-322.5 397q-264 -70 -531 -135q-211 -695 -328 -1038q-15 -27 -38 -27q-20 0 -37 20q-120 191 -545 852q-2 3 -2 5q-382 -65 -631 -97l-448 -958q-17 -27 -37 -27q-21 0 -39 21q-142 298 -408 886l-657 -16q-17 -1 -27 11.5t-10 29.5zM817 281 q72 -144 192.5 -410t168.5 -367l393 840q-428 -49 -754 -63zM2386 465q17 -27 203 -319t280 -437q22 69 70 222t76 241t70 215.5t79 233.5q-332 -77 -778 -156zM3865 799q422 -522 571 -701q100 531 156 920q-354 -115 -727 -219zM5304 1270q161 -178 590 -637 q58 564 84 903q-480 -195 -674 -266zM6701 1862q108 -89 319.5 -277t319.5 -276q2 80 14 399t13 494q-295 -160 -666 -340z" />
<glyph unicode="s" horiz-adv-x="7905" d="M41 301q0 16 9.5 28.5t27.5 12.5q271 0 558 13t657 48t747 90.5t825 147t894.5 210t951.5 287t1000 370.5t1035.5 468.5t1062.5 573.5q17 4 23 2q15 -3 23.5 -14t8.5 -25q0 -22 -16 -35q-210 -126 -401 -231q0 -169 -13 -508t-14 -514q-3 -18 -14 -29.5t-25 -11.5t-31 10 q-124 100 -365.5 315t-365.5 314q-217 -104 -557 -250q-13 -174 -47.5 -519.5t-46.5 -516.5q-3 -19 -14.5 -30t-26.5 -11q-12 0 -29 10q-115 130 -342.5 372.5t-333.5 360.5q-243 -89 -544 -190q-23 -162 -87.5 -518t-88.5 -531q-6 -39 -41 -39q-21 0 -37 19 q-99 130 -318.5 391t-326.5 403q-264 -70 -531 -135q-211 -695 -328 -1038q-15 -27 -38 -27q-20 0 -37 20q-120 191 -545 852q-2 3 -2 5q-382 -65 -631 -97l-448 -958q-17 -27 -37 -27q-21 0 -39 21q-142 298 -408 886l-657 -16q-17 -1 -27 11.5t-10 29.5zM817 281l43 -88 l43 92q-58 -4 -86 -4zM895 117l47 -97l129 275l-94 -6zM977 -57l43 -97l221 463q-36 -4 -96 -8zM1055 -233l47 -101l311 660q-14 -1 -98 -11zM1139 -412l39 -84l393 840l-84 -10zM2386 465q0 -1 1 -3t1 -3q4 2 10 2q12 0 20.5 -9.5t8.5 -21.5t-6 -18l18 -31q11 18 27 18 q12 0 20 -9t8 -21t-8 -20.5t-20 -8.5q45 -74 63 -100q19 -8 19 -29l28 -47q6 12 23 12q12 0 20.5 -9.5t8.5 -21.5q0 -21 -21 -28l105 -164q8 4 16 4q12 0 20.5 -9.5t8.5 -21.5q0 -13 -13 -22l60 -94q2 2 10 2q12 0 20.5 -9.5t8.5 -21.5q0 -10 -9 -19l29 -43q1 2 12 13 q8 18 15 47q-11 7 -11 22q0 12 8.5 21.5t20.5 9.5l10 37q-20 3 -20 27q0 12 8.5 21t20.5 9q6 0 10 -2l88 281v10q0 15 10 25l17 49q-9 6 -9 20q0 11 7.5 20.5t17.5 10.5l14 41q-12 0 -19 8.5t-7 20.5t8 21t20 9q11 0 17 -6q9 31 14 43q-4 -2 -12 -2q-12 0 -20.5 8.5 t-8.5 20.5t8.5 21.5t20.5 9.5q15 0 24 -17l37 103q-15 -5 -16 -5q4 -8 4 -14q0 -12 -8.5 -20.5t-20.5 -8.5t-20 8.5t-8 20.5v2q-30 -8 -50 -10q15 -11 15 -27q0 -12 -8.5 -20t-20.5 -8t-20.5 8t-8.5 20q0 9 4 17q-60 -13 -309 -62q-1 -9 -9 -14.5t-17 -5.5q-16 0 -23 10 q-34 -5 -45 -8q2 -2 2 -6q0 -12 -8.5 -20.5t-20.5 -8.5q-10 0 -18 7t-10 18q-21 -6 -45 -9q10 -10 10 -22t-8.5 -20.5t-20.5 -8.5t-20 8.5t-8 20.5q0 10 2 14zM2509 305q0 12 8 21.5t20 9.5t20.5 -9.5t8.5 -21.5t-8.5 -20.5t-20.5 -8.5t-20 8.5t-8 20.5zM2529 403 q0 12 8.5 21.5t20.5 9.5t20.5 -9.5t8.5 -21.5t-8.5 -20t-20.5 -8t-20.5 8t-8.5 20zM2585 244q0 12 8 21t20 9t20.5 -9t8.5 -21t-8.5 -20.5t-20.5 -8.5t-20 8.5t-8 20.5zM2603 338q0 12 8.5 21.5t20.5 9.5t20 -9.5t8 -21.5t-8 -20.5t-20 -8.5t-20.5 8.5t-8.5 20.5zM2623 436 q0 12 8.5 21.5t20.5 9.5t20.5 -9.5t8.5 -21.5t-8.5 -20t-20.5 -8t-20.5 8t-8.5 20zM2646 84q0 12 8.5 21.5t20.5 9.5t20 -9.5t8 -21.5t-8 -20.5t-20 -8.5t-20.5 8.5t-8.5 20.5zM2664 178q0 12 8.5 21.5t20.5 9.5t20.5 -9.5t8.5 -21.5t-8.5 -20t-20.5 -8t-20.5 8t-8.5 20z M2677 279q0 12 8 21t20 9t20.5 -9t8.5 -21t-8.5 -20.5t-20.5 -8.5t-20 8.5t-8 20.5zM2695 373q0 12 8.5 21t20.5 9t20.5 -9t8.5 -21t-8.5 -20.5t-20.5 -8.5t-20.5 8.5t-8.5 20.5zM2716 471q0 12 8 21.5t20 9.5t20.5 -9.5t8.5 -21.5t-8.5 -20.5t-20.5 -8.5t-20 8.5t-8 20.5z M2718 20q0 12 8 21.5t20 9.5t20.5 -9.5t8.5 -21.5t-8.5 -20t-20.5 -8t-20 8t-8 20zM2738 119q0 12 8.5 21.5t20.5 9.5t20.5 -9.5t8.5 -21.5t-8.5 -20.5t-20.5 -8.5t-20.5 8.5t-8.5 20.5zM2757 213q0 12 8 21.5t20 9.5t20.5 -9.5t8.5 -21.5t-8.5 -20.5t-20.5 -8.5t-20 8.5 t-8 20.5zM2777 307q0 12 8.5 21.5t20.5 9.5t20 -9.5t8 -21.5t-8 -20t-20 -8t-20.5 8t-8.5 20zM2796 401q0 12 8 21.5t20 9.5t20.5 -9.5t8.5 -21.5t-8.5 -20t-20.5 -8t-20 8t-8 20zM2798 -133q0 12 8 21.5t20 9.5t20.5 -9.5t8.5 -21.5t-8.5 -20.5t-20.5 -8.5t-20 8.5t-8 20.5 zM2800 -45q0 12 8 21.5t20 9.5t20.5 -9.5t8.5 -21.5t-8.5 -20.5t-20.5 -8.5t-20 8.5t-8 20.5zM2816 500q0 12 8.5 21t20.5 9t20 -9t8 -21t-8 -20.5t-20 -8.5t-20.5 8.5t-8.5 20.5zM2818 49q0 12 8.5 21.5t20.5 9.5t20 -9.5t8 -21.5t-8 -20.5t-20 -8.5t-20.5 8.5t-8.5 20.5z M2839 147q0 12 8 21.5t20 9.5t20.5 -9.5t8.5 -21.5t-8.5 -20t-20.5 -8t-20 8t-8 20zM2857 242q0 12 8.5 21t20.5 9t20 -9t8 -21t-8 -20.5t-20 -8.5t-20.5 8.5t-8.5 20.5zM2869 342q0 12 8.5 21.5t20.5 9.5t20.5 -9.5t8.5 -21.5t-8.5 -20.5t-20.5 -8.5t-20.5 8.5t-8.5 20.5z M2888 436q0 12 8 21.5t20 9.5t20.5 -9.5t8.5 -21.5t-8.5 -20t-20.5 -8t-20 8t-8 20zM2892 -10q0 12 8 21t20 9t20.5 -9t8.5 -21t-8.5 -20.5t-20.5 -8.5t-20 8.5t-8 20.5zM2908 535q0 12 8.5 21t20.5 9t20.5 -9t8.5 -21t-8.5 -20.5t-20.5 -8.5t-20.5 8.5t-8.5 20.5zM2910 84 q0 12 8.5 21.5t20.5 9.5t20.5 -9.5t8.5 -21.5t-8.5 -20.5t-20.5 -8.5t-20.5 8.5t-8.5 20.5zM2931 182q0 12 8 21.5t20 9.5t20.5 -9.5t8.5 -21.5t-8.5 -20t-20.5 -8t-20 8t-8 20zM2949 276q0 12 8.5 21.5t20.5 9.5t20 -9.5t8 -21.5t-8 -20t-20 -8t-20.5 8t-8.5 20zM2963 375 q0 12 8.5 21.5t20.5 9.5t20.5 -9.5t8.5 -21.5t-8.5 -20.5t-20.5 -8.5t-20.5 8.5t-8.5 20.5zM2982 469q0 12 8.5 21.5t20.5 9.5t20 -9.5t8 -21.5t-8 -20.5t-20 -8.5t-20.5 8.5t-8.5 20.5zM3865 799q41 -53 84 -105l24 135zM4004 625l69 -86l58 335l-86 -26zM4129 471l67 -84 l95 535l-91 -27zM4252 319l67 -81l129 733q-13 -4 -42 -13.5t-46 -13.5zM4375 170l61 -72q100 531 156 920l-74 -25zM5337 1280q16 -6 16 -27q0 -17 -14 -24l35 -39q11 18 27 18q12 0 20 -9t8 -21q0 -20 -18 -27l28 -31q0 12 8.5 20.5t20.5 8.5t20.5 -9.5t8.5 -21.5 t-8.5 -20t-20.5 -8l209 -226q26 -3 29 -30l43 -48q11 19 26 19q12 0 20.5 -9.5t8.5 -21.5q0 -20 -16 -26l41 -46v7q0 12 8 21t20 9t20.5 -9t8.5 -21t-8.5 -20.5t-20.5 -8.5h-8l45 -47q27 264 51 528q-6 -6 -18 -6t-20.5 8.5t-8.5 20.5t8.5 21t20.5 9q10 0 22 -12l5 53 q-4 -2 -13 -2q-12 0 -20 8.5t-8 20.5t8 21.5t20 9.5q7 0 19 -8q0 15 4 43h-4q-12 0 -20.5 8t-8.5 20t8.5 21.5t20.5 9.5q4 0 8 -2q0 7 1 21t1 20q-19 8 -19 29q0 11 7.5 20t17.5 10q0 21 2 31q-482 -197 -641 -256zM5386 1276q0 12 8.5 21.5t20.5 9.5t20.5 -9.5t8.5 -21.5 t-8.5 -20.5t-20.5 -8.5t-20.5 8.5t-8.5 20.5zM5458 1212q0 12 8.5 21.5t20.5 9.5t20 -9.5t8 -21.5t-8 -20t-20 -8t-20.5 8t-8.5 20zM5478 1311q0 12 8.5 21t20.5 9t20.5 -9t8.5 -21t-8.5 -20.5t-20.5 -8.5t-20.5 8.5t-8.5 20.5zM5519 1053q0 12 8.5 21t20.5 9t20.5 -9 t8.5 -21t-8.5 -20.5t-20.5 -8.5t-20.5 8.5t-8.5 20.5zM5534 1151q0 12 8 21.5t20 9.5t20.5 -9.5t8.5 -21.5t-8.5 -20.5t-20.5 -8.5t-20 8.5t-8 20.5zM5552 1245q0 12 8.5 21.5t20.5 9.5t20 -9.5t8 -21.5t-8 -20t-20 -8t-20.5 8t-8.5 20zM5573 1343q0 12 8 21.5t20 9.5 t20.5 -9.5t8.5 -21.5t-8.5 -20t-20.5 -8t-20 8t-8 20zM5595 991q0 12 8.5 21.5t20.5 9.5t20 -9.5t8 -21.5t-8 -20t-20 -8t-20.5 8t-8.5 20zM5614 1085q0 12 8 21.5t20 9.5t20.5 -9.5t8.5 -21.5t-8.5 -20t-20.5 -8t-20 8t-8 20zM5626 1186q0 12 8.5 21.5t20.5 9.5t20 -9.5 t8 -21.5t-8 -20.5t-20 -8.5t-20.5 8.5t-8.5 20.5zM5644 1280q0 12 8.5 21.5t20.5 9.5t20.5 -9.5t8.5 -21.5t-8.5 -20.5t-20.5 -8.5t-20.5 8.5t-8.5 20.5zM5665 1378q0 12 8 21.5t20 9.5t20.5 -9.5t8.5 -21.5t-8.5 -20t-20.5 -8t-20 8t-8 20zM5667 928q0 12 8 21t20 9 t20.5 -9t8.5 -21t-8.5 -20.5t-20.5 -8.5t-20 8.5t-8 20.5zM5687 1026q0 12 8.5 21.5t20.5 9.5t20.5 -9.5t8.5 -21.5t-8.5 -20.5t-20.5 -8.5t-20.5 8.5t-8.5 20.5zM5706 1120q0 12 8 21.5t20 9.5t20.5 -9.5t8.5 -21.5t-8.5 -20t-20.5 -8t-20 8t-8 20zM5726 1214 q0 12 8.5 21.5t20.5 9.5t20.5 -9.5t8.5 -21.5t-8.5 -20t-20.5 -8t-20.5 8t-8.5 20zM5745 1309q0 12 8 21t20 9t20.5 -9t8.5 -21t-8.5 -20.5t-20.5 -8.5t-20 8.5t-8 20.5zM5749 862q0 12 8 21.5t20 9.5t20.5 -9.5t8.5 -21.5t-8.5 -20t-20.5 -8t-20 8t-8 20zM5765 1407 q0 12 8.5 21.5t20.5 9.5t20 -9.5t8 -21.5t-8 -20.5t-20 -8.5t-20.5 8.5t-8.5 20.5zM5767 956q0 12 8.5 21.5t20.5 9.5t20.5 -9.5t8.5 -21.5t-8.5 -20t-20.5 -8t-20.5 8t-8.5 20zM5788 1055q0 12 8 21t20 9t20.5 -9t8.5 -21t-8.5 -20.5t-20.5 -8.5t-20 8.5t-8 20.5z M5806 1149q0 12 8.5 21.5t20.5 9.5t20 -9.5t8 -21.5t-8 -20.5t-20 -8.5t-20.5 8.5t-8.5 20.5zM5818 1249q0 12 8.5 21.5t20.5 9.5t20.5 -9.5t8.5 -21.5t-8.5 -20t-20.5 -8t-20.5 8t-8.5 20zM5837 1343q0 12 8 21.5t20 9.5t20.5 -9.5t8.5 -21.5t-8.5 -20t-20.5 -8t-20 8 t-8 20zM5841 897q0 12 8.5 21.5t20.5 9.5t20 -9.5t8 -21.5t-8 -20.5t-20 -8.5t-20.5 8.5t-8.5 20.5zM5847 803q0 12 8.5 21.5t20.5 9.5t20 -9.5t8 -21.5t-8 -20.5t-20 -8.5t-20.5 8.5t-8.5 20.5zM5857 1442q0 12 8.5 21.5t20.5 9.5t20.5 -9.5t8.5 -21.5t-8.5 -20.5 t-20.5 -8.5t-20.5 8.5t-8.5 20.5zM5859 991q0 12 8.5 21.5t20.5 9.5t20.5 -9.5t8.5 -21.5t-8.5 -20t-20.5 -8t-20.5 8t-8.5 20zM5880 1090q0 12 8 21t20 9t20.5 -9t8.5 -21t-8.5 -20.5t-20.5 -8.5t-20 8.5t-8 20.5zM6701 1862l74 -62l4 98zM6840 1743q16 -15 47.5 -41 t36.5 -31l4 301l-82 -41zM6988 1614l78 -70l12 504l-84 -43zM7129 1487l82 -70l18 711l-84 -45zM7274 1362q7 -5 30 -24.5t36 -28.5q2 80 14 399t13 494l-74 -41z" />
<glyph unicode="t" horiz-adv-x="4960" d="M41 -272q0 33 37 39q991 127 995 127q18 0 28.5 -13.5t10.5 -30.5q0 -14 -8.5 -24.5t-22.5 -11.5q-991 -127 -997 -127q-20 0 -31.5 12.5t-11.5 28.5zM72 539q0 16 11.5 29.5t27.5 13.5q8 0 1155 -432q28 -11 28 -39q0 -16 -11 -28.5t-28 -12.5q-5 0 -1159 434 q-24 9 -24 35zM721 1264q0 17 13 29t30 12q16 0 31 -15l749 -844q10 -13 10 -24q0 -17 -14 -30t-31 -13q-14 0 -26 12l-750 844q-12 15 -12 29zM1501 1991q0 18 12.5 29.5t28.5 11.5q28 0 39 -27q483 -1264 483 -1272q0 -18 -14.5 -30.5t-32.5 -12.5q-21 0 -30 23 q-486 1274 -486 1278zM2439 829l129 1227q3 33 41 33q16 0 29 -10t12 -29l-129 -1227q-1 -19 -13.5 -30t-27.5 -11q-17 0 -30.5 13t-10.5 34zM2898 733q0 7 485 1278q8 21 37 21q16 0 28.5 -12t12.5 -31q0 -4 -483 -1270q-10 -25 -39 -25q-16 0 -28.5 10.5t-12.5 28.5z M3410 424q0 14 12 29l746 839q13 13 32 13q17 0 28 -11t11 -28q0 -21 -10 -31l-745 -838q-14 -14 -33 -14q-17 0 -29 12t-12 29zM3668 109q0 31 22 38l1143 431q6 2 15 2q19 0 31 -11.5t12 -27.5q0 -27 -31 -39l-1143 -430h-6q-20 0 -31.5 10.5t-11.5 26.5zM3852 -147 q0 18 12.5 29.5t36.5 8.5q147 -20 479.5 -61t510.5 -66q28 -11 28 -38q0 -15 -11.5 -27.5t-31.5 -13.5q-165 24 -495 64t-494 63q-35 8 -35 41z" />
<glyph unicode="u" horiz-adv-x="7815" d="M41 1708q0 152 39 292.5t113.5 262.5t187.5 222t255.5 171.5t323.5 110.5t386 39q194 0 422 -43.5t454 -116t487.5 -177t504 -217t521.5 -247t522.5 -255t525 -252t511.5 -228.5q210 176 386 311.5t371 266.5t361 216t335.5 137t314.5 52q189 0 352 -90.5t261.5 -252 t98.5 -356.5q0 -113 -36 -222.5t-112 -209.5t-184.5 -175.5t-265 -120t-340.5 -44.5q-314 0 -692.5 104.5t-837.5 295.5q-183 -154 -539.5 -464.5t-523.5 -451.5q373 -194 684 -475t521 -601t326 -672t116 -693q0 -187 -43 -365t-120.5 -329.5t-191 -278.5t-251 -216.5 t-303.5 -139t-344 -49.5q-270 0 -491 73t-378.5 211t-244 346.5t-86.5 471.5q0 211 73.5 395t200.5 314t304.5 205t379.5 75q57 0 57 -41q0 -19 -16 -30t-41 -11q-185 0 -347.5 -69t-279 -188.5t-183.5 -288t-67 -361.5q0 -243 80.5 -436t227.5 -321t353.5 -195.5 t457.5 -67.5q200 0 382 66t324.5 185.5t247.5 279.5t161 357t56 408q0 339 -114.5 686t-323 660t-515 585t-675.5 457q-209 -174 -380.5 -306.5t-364.5 -262.5t-355 -213.5t-328 -135t-309 -51.5q-326 0 -515 168t-189 471q0 76 13.5 148.5t46.5 149t83 142.5t127.5 125 t175.5 100.5t231.5 66t290.5 24.5q781 0 1463 -336q167 141 522 450t537 461q-287 123 -675.5 308.5t-697.5 339.5t-676.5 320t-665.5 280t-609 188t-559 74q-229 0 -426 -51.5t-342 -144t-248.5 -219.5t-155 -279.5t-51.5 -321.5q0 -166 56.5 -306.5t151 -232.5t215.5 -143 t251 -51q57 0 57 -41t-57 -41q-116 0 -227 35t-206.5 105.5t-167.5 167t-113.5 227.5t-41.5 280zM1821 -117q0 -263 167 -410t455 -147q135 0 292 48t313 127.5t339.5 202t350.5 250.5t366 294q-653 309 -1397 309q-143 0 -265 -21.5t-211.5 -59t-160.5 -90t-117 -111.5 t-76.5 -127t-43 -133t-12.5 -132zM5370 1237q436 -179 799 -276t667 -97q168 0 310.5 40t241.5 107.5t168.5 157t102.5 187t33 198.5q0 173 -87 315.5t-231 222t-312 79.5q-139 0 -300.5 -49t-320.5 -129.5t-345 -204.5t-355 -253.5t-371 -297.5z" />
<glyph unicode="v" horiz-adv-x="10541" d="M41 -1014q0 83 18 153t46.5 116t63 78.5t67 46.5t59.5 14q43 0 70 -12q140 132 292 256q-92 3 -163.5 31t-71.5 75q0 48 54 103.5t131 92.5t141 37q158 0 163 -139q348 265 748 502q-73 9 -143 40.5t-109 64t-39 51.5q0 16 39 51.5t98 73.5t143 67t160 29 q90 0 143.5 -48.5t53.5 -131.5q420 221 881 397q-89 24 -174 71t-143 111t-58 125q0 28 36.5 48t91 28t93 11t66.5 3q155 0 256.5 -78t101.5 -184q0 -15 -4 -39q502 169 1010 256q-98 23 -206.5 86.5t-179.5 136.5t-71 123q0 22 15 31.5t50 9.5q271 0 434.5 -90t163.5 -223 q0 -23 -16 -45q388 56 795 65q-83 55 -136 164t-53 209q0 42 18 60t64 18q82 0 157 -56t121 -151t46 -201q0 -21 -11 -43q431 -6 840 -65q-14 20 -14 45q0 133 163.5 223t434.5 90q65 0 65 -55q0 -44 -70.5 -114t-179.5 -132.5t-206 -85.5q502 -86 1007 -256q-2 12 -2 39 q0 106 102 184t257 78q28 0 66 -3t92.5 -11t91 -28t36.5 -48q0 -60 -58.5 -124.5t-143.5 -111.5t-174 -71q457 -173 882 -397q0 82 54 131t143 49q76 0 160 -29t143 -67t98 -73.5t39 -51.5q0 -19 -39.5 -51.5t-109.5 -64t-142 -40.5q395 -235 748 -502q1 74 43 106.5 t121 32.5q64 0 141 -37t130.5 -92.5t53.5 -103.5q0 -47 -72 -75t-163 -31q151 -124 284 -250q30 12 72 12q27 0 59.5 -14t67 -46.5t63 -78.5t46.5 -116t18 -153q0 -86 -53 -86q-63 0 -144.5 60.5t-137.5 141.5t-56 136q0 53 10 82q-299 278 -680 555q27 -86 27 -184 q0 -86 -53 -86q-48 0 -108.5 37.5t-110.5 91t-84.5 116t-34.5 109.5q0 93 61 123q-387 251 -842 481q113 -163 113 -333q0 -37 -12 -52.5t-56 -15.5q-64 0 -127.5 31t-116.5 88t-85.5 149t-32.5 203q0 49 14 74q-494 215 -979 348q81 -81 136 -195.5t55 -234.5 q0 -23 -8.5 -34t-32.5 -11q-89 0 -186.5 61t-164.5 161t-67 200q0 74 35 112q-430 103 -868 148q59 -64 96 -161t37 -202q0 -36 -10 -51.5t-37 -15.5q-100 0 -182 59t-125.5 149.5t-43.5 188.5q0 32 9 53q-184 12 -377 12q-196 0 -387 -12q10 -23 10 -53q0 -98 -43.5 -188.5 t-125 -149.5t-181.5 -59q-27 0 -37 15.5t-10 51.5q0 106 36.5 203t96.5 160q-441 -45 -871 -148q37 -40 37 -112q0 -100 -67 -200t-164.5 -161t-186.5 -61q-24 0 -32.5 11t-8.5 34q0 120 55 235t136 195q-485 -133 -979 -348q14 -32 14 -74q0 -111 -32.5 -203t-85.5 -149 t-116.5 -88t-127.5 -31q-44 0 -56 15.5t-12 52.5q0 175 113 333q-386 -186 -842 -481q62 -30 62 -125q0 -62 -56 -146t-137 -145t-145 -61q-54 0 -54 86q0 98 27 184q-385 -280 -688 -561q12 -34 12 -82q0 -55 -56 -136t-137.5 -141.5t-144.5 -60.5q-53 0 -53 86zM113 -1026 q32 0 89 47t102.5 111t45.5 106q0 40 -13 57t-42 17q-23 0 -51.5 -18t-59 -54t-51 -106t-20.5 -160zM508 -244q77 -37 166 -37q64 0 109.5 31t45.5 80q0 66 -81 66q-74 0 -147.5 -44.5t-92.5 -95.5zM1153 -315q33 0 90 47.5t102.5 114.5t45.5 114q0 62 -56 62 q-49 0 -86 -32.5t-57 -85t-29.5 -108.5t-9.5 -112zM1477 498q93 -78 237 -78q30 0 63.5 7t67.5 21t56 40t22 59q0 39 -31.5 63.5t-83.5 24.5q-50 0 -102.5 -14t-91.5 -34.5t-71 -40.5t-49 -34zM2218 246q80 0 145 60.5t99.5 158.5t34.5 211q-30 0 -76.5 -37t-92 -95 t-78 -139.5t-32.5 -158.5zM2599 1221q0 -29 65 -81.5t165 -96.5t182 -44q63 0 63 70q0 80 -76.5 130t-199.5 50q-57 0 -107 -7t-71 -14zM3426 676q54 0 123.5 51.5t120.5 132t51 152.5q0 18 -1 28t-7.5 19.5t-19.5 9.5q-29 0 -75 -39.5t-88.5 -97t-73 -129t-30.5 -127.5z M3801 1602q34 -37 79.5 -76t105 -78.5t128.5 -64.5t132 -25q22 0 29 4t7 16q0 71 -139.5 142t-341.5 82zM4581 926q97 0 167.5 93t70.5 204q0 45 -25 45q-39 0 -89 -53.5t-87 -135.5t-37 -153zM5040 1755q0 -66 32.5 -143.5t86.5 -133t108 -55.5q15 0 15 15 q0 116 -78.5 216.5t-163.5 100.5zM5728 1223q0 -111 70.5 -204t167.5 -93q0 71 -37 153t-87 135.5t-89 53.5q-25 0 -25 -45zM6265 1378q0 -12 7.5 -16t29.5 -4q63 0 132 25t128 64.5t104.5 78.5t79.5 76q-202 -11 -341.5 -82t-139.5 -142zM6826 1012q0 -72 51 -152.5 t120.5 -132t123.5 -51.5q0 74 -50 169.5t-113 159.5t-103 64q-29 0 -29 -57zM7473 1069q0 -70 64 -70q82 0 182 44t164.5 96.5t64.5 81.5q-69 28 -198 28q-123 0 -200 -50t-77 -130zM8051 676q0 -113 34.5 -211t99 -158.5t144.5 -60.5q0 77 -32.5 158.5t-77.5 139.5 t-91.5 95t-76.5 37zM8624 547q0 -33 21 -58.5t54 -40t67.5 -21.5t66.5 -7q145 0 238 78q-6 6 -17.5 15t-47.5 32.5t-73.5 41.5t-90.5 33t-103 15q-52 0 -83.5 -24.5t-31.5 -63.5zM9157 -35q0 -49 45.5 -117t102 -115.5t89.5 -47.5q-1 43 -10.5 95t-28.5 109.5t-56.5 95.5 t-86.5 38q-55 0 -55 -58zM9718 -170q0 -49 45.5 -80t109.5 -31q89 0 166 37q-19 51 -92 95.5t-147 44.5q-82 0 -82 -66zM10191 -756q0 -42 45.5 -106t102.5 -111t89 -47q0 90 -20.5 160t-51 106t-59 54t-51.5 18q-29 0 -42 -17t-13 -57z" />
<glyph unicode="w" horiz-adv-x="5074" d="M41 352q0 20 12 31.5t31 11.5q45 0 84 27t67.5 67.5t66 88t77 88t103 67.5t141.5 27q53 0 102 -21t88.5 -54.5t77.5 -73.5t76.5 -80.5t78.5 -74t89.5 -54.5t103.5 -21q56 0 113 27.5t103.5 68.5t98.5 89.5t97 89.5t99 68.5t105 27.5q58 0 110.5 -18.5t95.5 -47.5 t85.5 -64.5t88.5 -71t96 -64.5t117 -47.5t143 -18.5q66 0 118.5 18.5t86.5 47.5t64 64.5t59 71t63 64.5t85.5 47.5t117.5 18.5q65 0 116.5 -18t85 -46.5t62.5 -63t55.5 -69t55 -63t70.5 -46.5t95 -18q58 0 114.5 19.5t103 50t92.5 68t92.5 75t93.5 68t104 50t117 19.5 t110.5 -21t86 -55t67 -75t61 -81.5t60 -74.5t71 -55t87.5 -21q49 0 49 -41t-49 -41q-57 0 -105 21t-82.5 55t-65.5 74.5t-61 81.5t-61.5 75t-74.5 55t-93 21q-72 0 -142.5 -36t-132 -87.5t-125 -103t-146 -87.5t-171.5 -36q-62 0 -111.5 18t-82 46.5t-60.5 63t-55 69 t-56.5 63t-74 46.5t-100.5 18t-100 -18.5t-74 -47.5t-57 -64.5t-58.5 -71t-69.5 -64.5t-98 -47.5t-137 -18.5q-92 0 -175 24.5t-141 61.5t-116 80t-102.5 80t-97.5 61.5t-104 24.5q-48 0 -99 -27.5t-93.5 -68.5t-94 -89.5t-99 -89.5t-108.5 -68.5t-122 -27.5q-66 0 -130 28 t-112 70t-99 91.5t-92 91.5t-89.5 70t-93.5 28q-58 0 -106 -20t-81.5 -52.5t-63.5 -71t-58 -77.5t-58.5 -71.5t-72 -52.5t-91.5 -20q-51 0 -51 39z" />
<glyph unicode="x" horiz-adv-x="6113" d="M41 639q0 126 41 239.5t114.5 198.5t182.5 135t237 50q33 0 48.5 -9.5t15.5 -35.5q0 -37 -45 -37q-155 0 -273 -74.5t-178.5 -196.5t-60.5 -270q0 -123 55 -228.5t156.5 -183.5t256.5 -122t345 -44q256 0 509 41.5t473 111.5t439.5 161t429.5 191t420.5 200.5 t435.5 191.5t452 161t492 111.5t535 41.5q169 0 310 -29t237 -76.5t170.5 -113t117 -133t70 -144t36.5 -137.5t9 -121q0 -88 -20 -169.5t-63.5 -156t-106.5 -129.5t-156 -87.5t-205 -32.5q-111 0 -201 39.5t-147.5 105t-88 148.5t-30.5 174q0 19 11.5 31t31.5 12 q19 0 29 -14.5t10 -28.5q0 -101 42.5 -187t132 -142t210.5 -56q118 0 210.5 42t147.5 113.5t83 157t28 180.5q0 53 -8.5 107t-33 122.5t-63.5 128.5t-107 119t-155.5 101t-216.5 68t-284 26q-270 0 -532.5 -41.5t-487.5 -111.5t-446.5 -160.5t-430 -191l-417 -201t-428 -191 t-441.5 -160.5t-480 -111.5t-523 -41.5q-209 0 -379.5 50.5t-282.5 139t-172.5 209t-60.5 260.5z" />
<glyph unicode="y" horiz-adv-x="2863" d="M41 467q0 37 57 122.5t121.5 154.5t85.5 69q17 0 27 -9.5t10 -23.5q0 -12 -40.5 -60.5t-91 -112t-67.5 -103.5l1979 2q19 27 47 70.5t46 70.5t39 55.5t38 42t30 13.5q18 0 27.5 -9.5t9.5 -23.5q0 -8 -9 -25.5t-27 -43t-34 -47.5t-40.5 -54.5t-36.5 -48.5h141 q19 27 47 70.5t46 70.5t39.5 55.5t38.5 42t30 13.5q18 0 27.5 -9.5t9.5 -23.5q0 -8 -9.5 -25.5t-27 -42.5t-34 -47.5t-40.5 -54.5t-37 -49h142q19 27 47 70.5t46 70.5t39 55.5t38 42t30 13.5q18 0 27.5 -9.5t9.5 -23.5q0 -16 -32 -63t-80.5 -111t-63.5 -86q54 -68 115 -153 t61 -101q0 -15 -9.5 -26t-27.5 -11q-33 0 -198 250h-140q144 -194 144 -213q0 -15 -9.5 -26t-27.5 -11q-34 0 -199 250h-139q143 -192 143 -213q0 -15 -9.5 -26t-27.5 -11q-33 0 -198 250l-1977 -2q18 -39 67.5 -97.5t88.5 -105t39 -67.5q0 -12 -8.5 -23.5t-24.5 -11.5 q-22 0 -87.5 72t-123 158t-57.5 120z" />
<glyph unicode="z" horiz-adv-x="2682" d="M41 1677q0 31 18 48.5t64 21.5q1046 -8 1198 -8q97 0 412.5 14.5t582.5 29.5l267 15q34 3 47 -18t10 -58q-12 -131 -29.5 -335.5t-46.5 -633t-29 -614.5q0 -151 -6.5 -349t-12.5 -320l-7 -123q0 -28 -17.5 -48t-56.5 -20q-347 0 -661.5 75t-579.5 216t-479 351.5 t-363.5 473.5t-230 589.5t-80.5 692.5zM123 1667q0 -338 74.5 -642.5t213 -557t342.5 -457t457.5 -346t562.5 -219.5t654 -82q0 17 4 111q-266 6 -509 60t-443.5 147t-375.5 220.5t-311 282t-242.5 329.5t-176.5 365.5t-108 388t-42 398.5zM305 1665q5 -221 53.5 -438 t142 -422.5t224.5 -389t309 -338t387.5 -267.5t468.5 -180t543 -74q10 430 10 602v40q1 285 27 648q28 389 57 628l29 240q-1001 -57 -1249 -57q-388 0 -1002 8zM1245 1479q0 45 38 72.5t87 27.5q58 0 107 -16t49 -35q0 -43 -58.5 -88t-119.5 -45q-43 0 -73 23t-30 61z M1524 893q0 59 58.5 95t127.5 36q53 0 53 -18q0 -59 -40 -127t-103 -68q-37 0 -66.5 21.5t-29.5 60.5zM2046 516q0 67 49.5 124.5t85.5 57.5q13 0 32 -53.5t19 -95.5q0 -46 -27.5 -87.5t-74.5 -41.5q-35 0 -59.5 29t-24.5 67z" />
<glyph unicode="&#x2000;" horiz-adv-x="1860" />
<glyph unicode="&#x2001;" horiz-adv-x="3721" />
<glyph unicode="&#x2002;" horiz-adv-x="1860" />
<glyph unicode="&#x2003;" horiz-adv-x="3721" />
<glyph unicode="&#x2004;" horiz-adv-x="1240" />
<glyph unicode="&#x2005;" horiz-adv-x="930" />
<glyph unicode="&#x2006;" horiz-adv-x="620" />
<glyph unicode="&#x2007;" horiz-adv-x="620" />
<glyph unicode="&#x2008;" horiz-adv-x="465" />
<glyph unicode="&#x2009;" horiz-adv-x="744" />
<glyph unicode="&#x200a;" horiz-adv-x="206" />
<glyph unicode="&#x202f;" horiz-adv-x="744" />
<glyph unicode="&#x205f;" horiz-adv-x="930" />
<glyph unicode="&#x25fc;" horiz-adv-x="1269" d="M0 0v1270h1270v-1270h-1270z" />
</font>
</defs>
</svg>
