<?xml version="1.0" standalone="no"?>
<!DOCTYPE svg PUBLIC "-//W3C//DTD SVG 1.1//EN" "http://www.w3.org/Graphics/SVG/1.1/DTD/svg11.dtd" >
<svg xmlns="http://www.w3.org/2000/svg" xmlns:xlink="http://www.w3.org/1999/xlink" version="1.1">
<metadata></metadata>
<defs>
<font id="showcaseslab" horiz-adv-x="1005" >
<font-face units-per-em="2048" ascent="1536" descent="-512" />
<missing-glyph horiz-adv-x="471" />
<glyph horiz-adv-x="0" />
<glyph horiz-adv-x="682" />
<glyph unicode=" "  horiz-adv-x="471" />
<glyph unicode="&#x09;" horiz-adv-x="471" />
<glyph unicode="&#xa0;" horiz-adv-x="471" />
<glyph unicode="!" horiz-adv-x="411" d="M131 61q0 35 24 58.5t58 23.5q31 0 55.5 -25t24.5 -57q0 -33 -25 -56t-55 -23q-31 0 -56.5 23t-25.5 56zM162 1100q0 45 43 45q19 0 29 -12t10 -31q-1 -17 -2 -46.5t-3 -116t-1 -167.5l6 -422q0 -13 -0.5 -17.5t-3 -13.5t-10 -12.5t-19.5 -3.5q-31 0 -31 47 q-12 114 -12 268q-1 133 -2.5 249.5t-2.5 174t-1 58.5z" />
<glyph unicode="&#x22;" horiz-adv-x="514" d="M102 1462q2 24 9 35.5t30 11.5q25 0 34 -14t9 -43q0 -3 0.5 -62t1 -115.5t0.5 -51.5q-3 -43 -43 -43q-18 0 -28.5 12t-10.5 33q-2 45 -2 237zM330 1462q2 24 9 35.5t30 11.5q25 0 34 -14t9 -43q0 -3 0.5 -62t1 -115.5t0.5 -51.5q-3 -43 -43 -43q-18 0 -28.5 12t-10.5 33 q-2 45 -2 237z" />
<glyph unicode="#" horiz-adv-x="1026" d="M57 266q0 14 14 24.5t44 10.5q61 -2 133 -2l63 244h-84q-86 0 -86 45q0 14 14 24.5t44 10.5q61 -2 133 -2l39 151q12 47 47 47q23 0 32 -14.5t9 -26.5q0 -11 -6 -35l-33 -122h297l39 151q12 47 47 47q23 0 32 -14.5t9 -26.5q0 -11 -6 -35l-33 -122l104 4q30 0 44 -10.5 t14 -24.5q0 -45 -86 -45q-11 0 -43.5 -1t-53.5 -1l-63 -244l104 4q30 0 44 -10.5t14 -24.5q0 -45 -86 -45q-11 0 -43.5 -1t-53.5 -1l-49 -192q-12 -47 -47 -47q-23 0 -32 14.5t-9 26.5q0 10 6 34l43 164h-297l-49 -192q-12 -47 -47 -47q-23 0 -32 14.5t-9 26.5q0 10 6 34 l43 164h-84q-86 0 -86 45zM336 299h297l63 244h-297z" />
<glyph unicode="$" horiz-adv-x="894" d="M84 35v297q0 20 11 32.5t30 12.5q25 0 35.5 -21t21.5 -61t29 -66q116 -166 278 -166q106 0 173 50t67 149q0 36 -9.5 65.5t-29 51t-40.5 37.5t-55.5 30.5t-60.5 23.5t-67.5 22.5t-67.5 23.5q-119 45 -153 63q-103 56 -127 159q-8 37 -8 81q0 117 76.5 194t201.5 91 q2 84 2 143q0 45 41 45q18 0 29.5 -12.5t11.5 -32.5q0 -67 -2 -143q145 -14 217 -152v107q0 47 37 47q45 0 45 -43v-244q0 -20 -11 -32.5t-30 -12.5q-25 0 -36.5 15t-23 48t-26.5 54q-91 133 -205 133q-107 0 -176 -56t-69 -149q0 -40 13.5 -72.5t32 -54t53.5 -41 t62.5 -30.5t73.5 -27q20 -7 57 -19.5t57.5 -19.5t53 -19.5t51 -22.5t44.5 -25.5t41 -30.5t32 -36t26 -44t15 -52.5t6 -62.5q0 -139 -90 -209.5t-232 -70.5h-18q2 -66 2 -125q0 -20 -11.5 -32.5t-29.5 -12.5q-41 0 -41 45q0 55 -2 137q-139 31 -223 174v-129q0 -47 -37 -47 q-45 0 -45 43z" />
<glyph unicode="%" horiz-adv-x="983" d="M57 827q0 126 45.5 202.5t141.5 76.5t142 -75.5t46 -203.5q0 -123 -46.5 -202.5t-141.5 -79.5q-96 0 -141.5 76t-45.5 206zM139 827q0 -97 22.5 -148.5t82.5 -51.5t83 52t23 148q0 102 -22.5 149.5t-83.5 47.5t-83 -49t-22 -148zM264 -80q0 11 8 39l310 1157q12 45 45 45 q21 0 32 -13t11 -26q0 -1 -6 -37l-312 -1157q-11 -47 -49 -47q-19 0 -29 12.5t-10 26.5zM553 264q0 126 45 202.5t141 76.5q97 0 143 -75.5t46 -203.5q0 -122 -47 -202t-142 -80q-96 0 -141 76t-45 206zM635 264q0 -97 22 -149t82 -52t83.5 52.5t23.5 148.5q0 102 -23 149.5 t-84 47.5t-82.5 -48.5t-21.5 -148.5z" />
<glyph unicode="&#x26;" horiz-adv-x="919" d="M90 270q0 61 16.5 112t49.5 92t68.5 71t88.5 65q-62 106 -80 159q-20 57 -20 110q0 93 55.5 160t161.5 67q93 0 154 -66t61 -166q0 -157 -227 -290q164 -281 219 -365q47 101 47 279q0 37 57 37h80q29 0 43.5 -11.5t14.5 -25.5q0 -22 -17 -32.5t-59 -10.5h-47 q-5 -177 -74 -301q37 -50 63 -76h46q53 0 53 -35q0 -10 -1 -15t-7 -13t-22.5 -11.5t-43.5 -3.5h-33q-25 0 -57 29q-17 15 -49 55q-93 -100 -250 -100q-121 0 -206 84t-85 202zM172 270q0 -84 61 -144t148 -60q134 0 207 79q-32 46 -70.5 109t-63.5 107.5t-60 107t-44 78.5 q-85 -62 -131.5 -126t-46.5 -151zM295 879q0 -80 84 -230q184 117 184 225q0 63 -38 106.5t-95 43.5q-65 0 -100 -43t-35 -102z" />
<glyph unicode="'" horiz-adv-x="286" d="M102 1462q2 24 9 35.5t30 11.5q25 0 34 -14t9 -43q0 -3 0.5 -62t1 -115.5t0.5 -51.5q-3 -43 -43 -43q-18 0 -28.5 12t-10.5 33q-2 45 -2 237z" />
<glyph unicode="(" horiz-adv-x="579" d="M80 477q0 110 22 207t56.5 165t78.5 124t87 90t83.5 57.5t67 33t37.5 9.5q27 0 27 -26q0 -20 -29 -43q-12 -10 -55.5 -38.5t-75 -52t-75.5 -73.5t-72.5 -106t-49 -146.5t-20.5 -198.5q0 -104 19.5 -190.5t45 -140.5t68.5 -103.5t72 -72t74 -53t57 -40.5q41 -30 41 -59 q0 -27 -27 -27q-11 0 -37.5 9t-67 32.5t-83.5 57.5t-87 90t-78.5 123.5t-56.5 164.5t-22 207z" />
<glyph unicode=")" horiz-adv-x="579" d="M41 -180q0 29 41 59q12 10 57 40.5t74 53t72 72t68.5 103.5t45 140.5t19.5 190.5q0 108 -20.5 198.5t-49 146.5t-72.5 106t-75.5 73.5t-75 52t-55.5 38.5q-29 23 -29 43q0 26 27 26q11 0 37.5 -9.5t67 -33t83.5 -57.5t87 -90t78.5 -124t56.5 -165t22 -207t-22 -207 t-56.5 -164.5t-78.5 -123.5t-87 -90t-83.5 -57.5t-67 -32.5t-37.5 -9q-27 0 -27 27z" />
<glyph unicode="*" horiz-adv-x="661" d="M82 1016q0 20 24 37q127 80 144 90q-132 85 -133 86q-35 21 -35 41q0 19 9.5 32t27.5 13q9 0 41 -19q73 -47 131 -79v165q0 48 39 48q25 0 34 -14.5t9 -43.5v-155q14 9 32.5 20.5t47 28.5t49.5 30q32 19 41 19q18 0 27.5 -13t9.5 -32q0 -20 -35 -41l-135 -86l145 -90 q25 -18 25 -37q0 -15 -13 -28t-28 -13q-12 0 -29 10q-6 2 -137 84v-160q0 -23 -12 -35t-31 -12q-18 0 -28.5 12t-10.5 33q-2 76 -2 162l-137 -84q-17 -10 -29 -10q-15 0 -28 13t-13 28z" />
<glyph unicode="+" horiz-adv-x="925" d="M55 750q0 14 14 24t44 10q116 -2 309 -2q2 100 2 316q0 23 8 35t31 12q25 0 34 -14.5t9 -43.5v-305l307 4q30 0 43.5 -10t13.5 -24q0 -45 -86 -45q-5 0 -111.5 -3.5t-166.5 -3.5v-303q0 -23 -12 -35t-31 -12q-18 0 -28.5 12t-10.5 33q-2 106 -2 305q-54 0 -151 2.5 t-130 2.5q-86 0 -86 45z" />
<glyph unicode="," horiz-adv-x="415" d="M100 88q0 47 32 78t77 31q43 0 74.5 -32.5t31.5 -82.5q0 -72 -102 -197q-33 -42 -51 -50q-10 -5 -19 -5q-15 0 -27 11t-12 32q0 11 6.5 21.5t19.5 23t15 14.5q7 9 22 26.5t21 25.5q-36 8 -62 36.5t-26 67.5z" />
<glyph unicode="-" horiz-adv-x="784" d="M125 504q0 14 13.5 24.5t43.5 10.5q129 -9 240 -9l176 2q30 0 43.5 -10t13.5 -24q0 -45 -86 -45h-147q-56 0 -125.5 3t-85.5 3q-86 0 -86 45z" />
<glyph unicode="." horiz-adv-x="413" d="M100 88q0 47 32 78t77 31q41 0 73.5 -33t32.5 -76q0 -44 -33 -75t-73 -31t-74.5 31t-34.5 75z" />
<glyph unicode="/" horiz-adv-x="593" d="M66 -217q0 11 6 35l368 1439q12 48 47 48q23 0 32 -14.5t9 -26.5q0 -11 -6 -35l-368 -1440q-12 -47 -48 -47q-16 0 -25.5 9t-12 17.5t-2.5 14.5z" />
<glyph unicode="0" horiz-adv-x="929" d="M92 543q0 148 44.5 275.5t131 207.5t197.5 80t197.5 -80t131 -207.5t44.5 -275.5q0 -272 -100 -416.5t-275 -144.5q-173 0 -272 148.5t-99 412.5zM174 543q0 -233 77 -356.5t216 -123.5q140 0 214.5 119.5t74.5 360.5q0 130 -33.5 238t-101 175.5t-156.5 67.5 t-156.5 -68.5t-101 -177t-33.5 -235.5z" />
<glyph unicode="1" horiz-adv-x="638" d="M72 874q0 19 16.5 36t62.5 49.5t66 48.5q3 2 27.5 23.5t38 32t37 21.5t42.5 11q44 0 44 -58q0 -5 -3.5 -55t-3.5 -119q0 -103 3.5 -431.5t3.5 -354.5h151q30 0 43.5 -10.5t13.5 -24.5q0 -22 -16.5 -32.5t-58.5 -10.5q-35 2 -66 2q-13 0 -148 -1t-165 -1q-86 0 -86 43 q0 37 57 37q99 -2 191 -2q-3 163 -3 409v476q0 18 -4 18q-1 0 -20 -14q-11 -8 -35.5 -28t-58 -47.5t-47.5 -39.5q-18 -16 -39 -16q-17 0 -30 11.5t-13 26.5z" />
<glyph unicode="2" horiz-adv-x="843" d="M78 68q0 76 24.5 140t65 108.5t92.5 86t105.5 72t105.5 66t92.5 70t65 82.5t24.5 104q0 111 -67.5 169t-175.5 58q-58 0 -103.5 -22.5t-71 -57.5t-38.5 -72.5t-13 -72.5q0 -18 -11 -30.5t-32 -12.5q-39 0 -39 41q0 55 20.5 109t57.5 99t97.5 73t132.5 28q164 0 244.5 -83 t80.5 -226q0 -68 -31.5 -129t-82 -107t-112 -89t-122.5 -83.5t-111.5 -81t-82 -91t-31.5 -105.5v-29q0 -6 4 -7t18 -1q11 0 44 1t93.5 2t137.5 1q123 0 217 -4v86q0 47 37 47q45 0 45 -43v-137q-3 -35 -51 -35q-171 4 -265 4l-268 -4q-54 0 -75 19t-21 57z" />
<glyph unicode="3" horiz-adv-x="811" d="M72 166q0 19 10.5 30t26.5 11q24 0 49 -25l21 -21l21 -21t19 -17.5t22 -17.5t22.5 -13.5t27 -12.5t28.5 -8t36 -6.5t40 -1.5q111 0 177.5 71.5t66.5 170.5q0 109 -72.5 171.5t-189.5 62.5q-28 0 -44 12.5t-16 28.5q0 20 18.5 30.5t41.5 10.5h18q102 2 157.5 47t55.5 159 q0 88 -56.5 142.5t-145.5 54.5q-106 0 -161 -55.5t-55 -120.5q0 -18 -11 -30.5t-32 -12.5q-38 0 -38 41q0 103 79.5 181.5t217.5 78.5q132 0 208 -81.5t76 -197.5q0 -166 -139 -239q86 -38 128 -113t42 -170q0 -137 -87.5 -230t-238.5 -93q-177 0 -289 120q-34 39 -34 64z " />
<glyph unicode="4" horiz-adv-x="794" d="M37 408q0 21 24 67q5 11 64 95.5t115 163.5l57 79l180 246q29 37 64 37q26 0 35.5 -14.5t9.5 -43.5q0 -5 -3 -55t-3 -119q0 -104 4 -440q47 2 88 2q16 0 27.5 -10t11.5 -31q0 -18 -11.5 -29.5t-27.5 -11.5h-88q2 -131 2 -266h82q30 0 43.5 -10.5t13.5 -24.5 q0 -22 -17 -32.5t-59 -10.5q-34 2 -65 2q-12 0 -72 -1t-90 -1q-86 0 -86 43q0 37 57 37q58 -2 109 -2q-2 74 -2 264q-304 -4 -387 -4q-37 0 -56.5 19t-19.5 51zM127 428q0 -6 10 -6q66 -2 363 2v541l-133 -197q-13 -19 -108.5 -154.5t-119.5 -167.5q-12 -16 -12 -18z" />
<glyph unicode="5" horiz-adv-x="821" d="M86 166q0 19 10.5 30t26.5 11q24 0 49 -25q2 -2 20.5 -21t21.5 -21.5t19.5 -17.5t22.5 -17.5t22 -13t27.5 -13t29 -7.5t36 -6.5t39.5 -1.5q105 0 179.5 73t74.5 190q0 132 -73 212t-190 80q-65 0 -112.5 -17t-74 -33.5t-42.5 -16.5q-43 0 -43 45v244q0 45 -1.5 89.5 t-3 71t-1.5 27.5q0 36 20.5 52t75.5 16q156 -4 203 -4l209 4q51 0 51 -39v-133q0 -43 -45 -43q-37 0 -37 47v84q-33 -2 -162 -2q-77 0 -120 1t-58.5 2t-26.5 1q-12 0 -20 -9t-8 -22q0 -19 2 -64t2 -77l2 -150q0 -33 12 -33q6 0 28 8.5t61 16.5t87 8q90 0 157.5 -28.5 t108 -79.5t60.5 -115.5t20 -142.5q0 -147 -91 -245.5t-244 -98.5q-177 0 -289 120q-35 40 -35 64z" />
<glyph unicode="6" horiz-adv-x="880" d="M94 510q0 596 393 596q81 0 143 -41.5t92 -100.5t30 -122q0 -41 -39 -41q-21 0 -32 12.5t-11 30.5q0 29 -10.5 59t-31.5 58t-58.5 45.5t-84.5 17.5q-143 0 -222.5 -116t-86.5 -349q99 137 293 137q80 0 144.5 -30t103 -79.5t58.5 -109t20 -123.5q0 -168 -88.5 -270 t-247.5 -102q-53 0 -102 15t-98 53.5t-84.5 97t-58 151.5t-22.5 211zM178 430q7 -102 35 -177t69 -114.5t85 -57.5t92 -18q123 0 188.5 74.5t65.5 216.5q0 104 -64 182t-180 78q-69 0 -124.5 -18t-89 -46.5t-52.5 -59t-25 -60.5z" />
<glyph unicode="7" horiz-adv-x="737" d="M43 920v137q0 39 51 39q162 -4 256 -4l260 4q53 0 71.5 -18t18.5 -52q0 -82 -34 -163.5t-82 -158t-96.5 -164t-82.5 -215t-34 -276.5q0 -34 -10.5 -45.5t-32.5 -11.5q-39 0 -39 55q0 125 24 240t60.5 196.5t79 159t79 131.5t60.5 108.5t24 96.5q0 33 -30 33 q-88 -2 -252 -2q-43 0 -117.5 1t-91.5 1v-88q0 -47 -37 -47q-45 0 -45 43z" />
<glyph unicode="8" horiz-adv-x="874" d="M88 297q0 208 178 276q-137 76 -137 230q0 150 87 226.5t216 76.5q60 0 114.5 -18t99.5 -53t72 -95t27 -137q0 -155 -143 -232q184 -69 184 -274q0 -153 -103 -234t-251 -81q-71 0 -131 18t-108.5 54.5t-76.5 98.5t-28 144zM170 297q0 -116 75 -175t187 -59q71 0 131 24 t101 79t41 131q0 60 -19 104.5t-47 68.5t-67 38t-70.5 18t-67.5 4q-37 0 -66.5 -3.5t-68.5 -17t-65.5 -37t-45 -69t-18.5 -106.5zM211 803q0 -96 69.5 -148.5t153.5 -52.5q38 0 77.5 12.5t74 35.5t56.5 63t22 90q0 103 -70 162t-162 59q-91 0 -156 -59t-65 -162z" />
<glyph unicode="9" horiz-adv-x="878" d="M84 737q0 168 88.5 270.5t247.5 102.5q52 0 101.5 -16t98 -55.5t84.5 -98t58 -151t22 -207.5q0 -298 -99.5 -449t-293.5 -151q-121 0 -192.5 80t-71.5 178q0 16 9.5 28.5t29.5 12.5q21 0 32 -12.5t11 -30.5q0 -62 47 -118.5t137 -56.5q141 0 220.5 118.5t86.5 348.5 q-101 -135 -290 -135q-80 0 -144.5 30t-103 79.5t-58.5 109t-20 123.5zM166 737q0 -104 64 -182t180 -78q68 0 122.5 17.5t88 46t53 58.5t26.5 60q-8 100 -36 174.5t-68.5 115.5t-84.5 60t-91 19q-123 0 -188.5 -74.5t-65.5 -216.5z" />
<glyph unicode=":" horiz-adv-x="464" d="M125 88q0 47 31.5 78t76.5 31q41 0 74 -33t33 -76q0 -44 -33.5 -75t-73.5 -31t-74 31t-34 75zM125 639q0 47 31.5 78t76.5 31q41 0 74 -33t33 -76q0 -44 -33.5 -75.5t-73.5 -31.5t-74 31.5t-34 75.5z" />
<glyph unicode=";" horiz-adv-x="466" d="M125 88q0 47 31.5 78t76.5 31q43 0 75 -32.5t32 -82.5q0 -72 -102 -197q-33 -42 -51 -50q-10 -5 -19 -5q-15 0 -27 11t-12 32q0 11 6.5 21.5t19.5 23t15 14.5q7 9 22 26.5t21 25.5q-36 8 -62 36.5t-26 67.5zM125 639q0 47 31.5 78t76.5 31q41 0 74 -33t33 -76 q0 -44 -33.5 -75.5t-73.5 -31.5t-74 31.5t-34 75.5z" />
<glyph unicode="&#x3c;" horiz-adv-x="698" d="M57 524q0 22 25.5 42t101.5 67q52 32 163 92.5t145 81.5q39 22 53 22t23.5 -10.5t9.5 -23.5q0 -20 -46 -54q-34 -27 -88.5 -60t-153 -87.5t-124.5 -69.5q31 -17 97 -54t105 -59t86 -50.5t74 -49.5q50 -37 50 -55q0 -13 -9.5 -24t-23.5 -11q-12 0 -53 23 q-32 19 -148.5 83.5t-171.5 98.5q-11 7 -27.5 16.5t-25.5 14.5t-20.5 13t-18 13t-12.5 12t-8.5 14t-2.5 15z" />
<glyph unicode="=" horiz-adv-x="897" d="M127 406q0 14 13.5 24t43.5 10q129 -6 240 -6q58 0 131 2t117 4l43 2q30 0 43.5 -10t13.5 -24q0 -46 -86 -46q-20 0 -107 -3t-155 -3q-56 0 -125.5 2t-85.5 2q-86 0 -86 46zM127 766q0 14 13.5 24.5t43.5 10.5q129 -6 240 -6q58 0 131 2t117 4l43 2q30 0 43.5 -10.5 t13.5 -24.5q0 -45 -86 -45q-20 0 -107 -3t-155 -3q-56 0 -125.5 2t-85.5 2q-86 0 -86 45z" />
<glyph unicode="&#x3e;" horiz-adv-x="698" d="M121 256q0 19 49 55q27 21 74 49.5t86 50.5t105 59t97 54q-33 19 -98.5 55.5t-106.5 59.5t-87.5 52t-73.5 50q-45 33 -45 54q0 13 9.5 23.5t23.5 10.5t53 -22q34 -20 144.5 -81t162.5 -93q76 -47 101.5 -67t25.5 -42q0 -8 -2.5 -15t-8.5 -14t-12.5 -12t-18 -13t-20.5 -13 t-25.5 -14.5t-27.5 -16.5q-55 -34 -171 -98.5t-148 -83.5q-41 -23 -53 -23q-14 0 -23.5 11t-9.5 24z" />
<glyph unicode="?" horiz-adv-x="675" d="M63 838q0 63 30.5 123t95.5 102.5t149 42.5q128 0 199 -68.5t71 -193.5q0 -60 -27.5 -117t-66.5 -103t-78 -92.5t-66.5 -105.5t-27.5 -123q0 -51 -39 -51q-43 0 -43 51q0 71 27.5 135.5t66.5 113t78 93.5t66.5 96t27.5 103q0 82 -49 131t-139 49q-50 -1 -89 -19.5 t-60.5 -47t-32.5 -58.5t-11 -59q0 -18 -11 -30.5t-32 -12.5q-39 0 -39 41zM221 61q0 35 24 58.5t58 23.5q31 0 55.5 -25t24.5 -57q0 -33 -25 -56t-55 -23q-31 0 -56.5 23t-25.5 56z" />
<glyph unicode="@" horiz-adv-x="1404" d="M80 375q0 121 25.5 226.5t70 184t104 140.5t129 101t143 59t148.5 20q97 0 187.5 -26.5t168 -80.5t135.5 -129.5t91 -179.5t33 -225q0 -109 -20 -195t-50 -136t-69 -82.5t-71.5 -44t-62.5 -11.5q-42 2 -81 2h-62q-30 0 -43.5 10.5t-13.5 24.5q0 22 17 32.5t59 10.5 q16 -2 36 -2l-63 176q-47 -6 -160 -6q-55 0 -104.5 1t-69.5 1q-30 -89 -61 -172l39 2q42 0 58.5 -10.5t16.5 -32.5q0 -14 -13.5 -24.5t-43.5 -10.5h-80l-82 -2q-57 0 -57 37q0 41 78 43q6 16 54 154t84 238t50 132q15 37 27 59h-27q-42 0 -57 8t-15 27q0 33 47 33h150 q27 0 46.5 -8t35 -29.5t22.5 -36.5t23 -53q28 -71 186 -522h4q20 0 42.5 9.5t50 36t48.5 67.5t35.5 112.5t14.5 161.5q0 130 -45 238t-120.5 177t-170.5 106.5t-197 37.5q-82 0 -159.5 -25t-146.5 -78t-120.5 -128t-81.5 -182.5t-30 -235.5q0 -86 19 -163t46 -129 t65.5 -97.5t68.5 -70.5t63 -46q63 -41 63 -72q0 -30 -30 -30q-19 0 -43 12q-36 18 -73 44t-86.5 77.5t-86 114t-62.5 157.5t-26 203zM588 330q62 -4 143 -4q100 0 133 2q-83 224 -90 243l-20 45q-19 39 -29 39q-7 0 -11.5 -7t-15.5 -30l-20 -47q-46 -115 -90 -241z" />
<glyph unicode="A" d="M8 43q0 14 14 24.5t44 10.5h55l14 43l283 891h-21q-42 0 -58.5 10.5t-16.5 32.5q0 14 13.5 24.5t43.5 10.5h129q33 0 48 -11t26 -49q94 -291 139 -434q17 -54 57 -177t73 -223t38 -118h57q30 0 44 -10.5t14 -24.5q0 -22 -17 -32.5t-59 -10.5q-35 2 -66 2q-12 0 -37 -1 t-55 -1q-86 0 -86 43q0 37 57 37q27 -2 58 -2q-38 101 -107 317q-51 -10 -200 -10q-57 0 -108 1t-73 1l-104 -309l63 2q58 0 58 -37q0 -43 -86 -43q-29 0 -50 1t-40 1l-68 -2q-42 0 -59 10.5t-17 32.5zM338 471q82 -4 154 -4q131 0 178 2l-140 469q-16 59 -24 59 q-14 0 -33 -69q-31 -114 -135 -457z" />
<glyph unicode="B" horiz-adv-x="927" d="M82 43q0 14 13.5 24.5t43.5 10.5h72q0 106 -6 456t-6 476h-60q-30 0 -43.5 10t-13.5 24q0 46 76 46q18 0 82 -1.5t108 -1.5q13 0 56.5 1.5t66.5 1.5q322 0 322 -289q0 -92 -43.5 -150t-114.5 -76v-2q84 0 146.5 -72t62.5 -206q0 -144 -96 -219.5t-261 -75.5 q-131 0 -229.5 -1t-99.5 -1q-76 0 -76 45zM284 663q0 -27 1 -51q94 0 225 -2q22 0 44 3t52 15t52 31.5t37.5 56t15.5 85.5q0 41 -9.5 73.5t-24 54t-36.5 37t-42 23.5t-46 12.5t-43.5 5.5t-38.5 1q-25 0 -61.5 -1t-59.5 -1h-65v-236q0 -16 -0.5 -48t-0.5 -59zM293 82h194 q138 0 206.5 59.5t68.5 153.5q0 117 -62.5 175t-195.5 58h-211q3 -44 3 -114.5t-1.5 -172.5t-1.5 -159z" />
<glyph unicode="C" horiz-adv-x="991" d="M84 522q0 142 37 255.5t100 184t141.5 107.5t165.5 37q96 0 169 -48.5t120 -113.5v115q0 47 37 47q45 0 45 -43v-250q0 -20 -11 -32.5t-30 -12.5q-21 0 -37 20t-32 54.5t-23 44.5q-92 137 -238 137q-72 0 -136.5 -32.5t-115 -94t-80.5 -158.5t-30 -217q0 -95 23 -174 t59.5 -130.5t85 -87.5t98 -51.5t98.5 -15.5q33 0 64 6.5t54.5 14.5t48.5 23.5t40 26.5t35.5 31.5t28.5 29t24.5 29t18.5 22.5q24 28 43 28q14 0 22.5 -8.5t8.5 -23.5q0 -35 -35 -76q-156 -184 -353 -184q-62 0 -123 18t-120 59.5t-103.5 102t-72 154t-27.5 206.5z" />
<glyph unicode="D" horiz-adv-x="1003" d="M68 43q0 14 13.5 24.5t43.5 10.5h86q0 142 -5 458t-5 474h-76q-30 0 -43.5 10t-13.5 24q0 46 75 46q7 0 93.5 -1.5t185.5 -1.5q127 0 223 -40.5t155 -114t88.5 -171.5t29.5 -218q0 -136 -41 -242t-114.5 -171t-169 -98.5t-208.5 -33.5h-242q-41 0 -58 11t-17 34zM281 768 q0 -116 6 -336.5t6 -351.5h92q224 0 337.5 117t113.5 340q0 471 -414 471q-8 0 -27 0.5t-46.5 0.5t-67.5 -1v-240z" />
<glyph unicode="E" horiz-adv-x="894" d="M80 43q0 14 13.5 24.5t43.5 10.5h70q-1 2 1 130q1 76 1 127v56q-1 78 -5.5 312t-4.5 307h-62q-30 0 -43.5 10t-13.5 24q0 46 76 46q40 0 130 -2.5t146 -2.5q28 0 176 3l148 2q20 0 34.5 -10t14.5 -27v-172q0 -20 -11.5 -32.5t-29.5 -12.5q-41 0 -41 45q2 88 2 127h-444 q0 -50 2.5 -210t3.5 -218q17 0 57 2t70 2l188 -2q57 0 57 -35q0 -45 -86 -45q-19 0 -56.5 2t-102.5 2q-21 0 -60.5 -2t-64.5 -2q2 -39 2 -111q1 -37 0 -73q1 -18 1 -37q0 -55 -1.5 -123.5t-1.5 -77.5h41q83 0 228.5 1t166.5 1l-2 127q0 45 41 45q18 0 29.5 -12.5t11.5 -32.5 q0 -13 -1 -43t-1 -45q0 -16 1 -44t1 -42q-1 -17 -12 -26t-27 -9q-261 -2 -610 -2q-76 0 -76 45z" />
<glyph unicode="F" horiz-adv-x="831" d="M80 43q0 14 13.5 24.5t43.5 10.5h70q-1 2 1 130q1 76 1 127v56q-1 78 -5.5 312t-4.5 307h-62q-30 0 -43.5 10t-13.5 24q0 46 76 46q40 0 130 -2.5t146 -2.5q28 0 162 3l133 2q21 0 35 -11t14 -30v-168q0 -20 -11.5 -32.5t-29.5 -12.5q-41 0 -41 45q2 88 2 96l-2 31h-413 q0 -50 2.5 -210t3.5 -218q17 0 57 2t70 2l170 -2q57 0 57 -35q0 -45 -86 -45q-19 0 -47.5 2t-93.5 2q-21 0 -60.5 -2t-64.5 -2q2 -39 2 -111v-52q-1 -49 -1 -128q-2 -132 -1 -133l114 2q58 0 58 -37q0 -43 -86 -43q-49 0 -85.5 1t-66.5 1l-67 -2q-42 0 -59 10.5t-17 32.5z " />
<glyph unicode="G" horiz-adv-x="1024" d="M86 522q0 142 37 255.5t100 184t141.5 107.5t165.5 37q96 0 169 -48.5t120 -113.5v115q0 47 37 47q45 0 45 -43v-250q0 -20 -11.5 -32.5t-29.5 -12.5q-25 0 -40 19t-28 52t-24 48q-54 70 -109.5 103.5t-128.5 33.5q-72 0 -136.5 -32.5t-115 -94t-80.5 -158.5t-30 -217 q0 -95 23 -174t59.5 -130.5t85 -87.5t98 -51.5t98.5 -15.5q61 0 112.5 17.5t92.5 52t58 53t45 54.5q0 30 1 71t1 51q0 11 -1 16.5t-6.5 10t-17.5 4.5q-117 2 -209 2q-20 0 -34.5 10.5t-14.5 30.5q0 41 51 41q101 -2 238 -2q36 0 54 -20.5t18 -53.5v-376q0 -20 -10 -32.5 t-27 -12.5q-41 0 -41 45q0 19 -1 49t-1 43q-135 -135 -308 -135q-62 0 -123 18t-120 59.5t-103.5 102t-72 154t-27.5 206.5z" />
<glyph unicode="H" horiz-adv-x="1105" d="M80 43q0 37 57 37q41 -2 80 -2q-13 436 -18 760q-1 30 -1 59q0 58 3 113h-35q-86 0 -86 43q0 37 57 37q78 -3 121 -3h100q30 0 44 -10t14 -24q0 -22 -17 -32.5t-59 -10.5q-30 0 -57 2q-4 -98 -4 -172q0 -84 4 -260q44 0 109 -1t128 -1l273 2q8 0 28 -5q-1 78 -10 435h-29 q-86 0 -86 43q0 37 58 37q92 -3 135 -3h84q30 0 43.5 -10t13.5 -24q0 -22 -17 -32.5t-59 -10.5q-32 2 -61 2q1 -60 7 -385.5t7 -456.5v-92h66q30 0 43.5 -10.5t13.5 -24.5q0 -22 -17 -32.5t-59 -10.5q-34 2 -65 2q-13 0 -45 -1t-62 -1q-86 0 -86 43q0 37 58 37q34 -2 71 -2 q0 9 1 37.5t1 54.5l-4 338q-19 -8 -59 -8h-244q-34 0 -104.5 1t-130.5 1l14 -424h59q30 0 44 -10.5t14 -24.5q0 -22 -17 -32.5t-59 -10.5q-51 2 -82 2q-12 0 -37 -1t-55 -1q-86 0 -86 43z" />
<glyph unicode="I" horiz-adv-x="493" d="M78 33q0 45 86 45h49q-8 78 -8 219q0 633 2 713h-43q-86 0 -86 45q0 14 15.5 24.5t41.5 10.5q98 -5 123 -5l100 5q58 0 58 -35q0 -45 -86 -45h-43q-5 -111 -5 -215q0 -35 1 -68q0 -8 14 -649h33q86 0 86 -45q0 -35 -58 -35q-63 4 -100 4l-123 -4q-26 0 -41.5 10.5 t-15.5 24.5z" />
<glyph unicode="J" horiz-adv-x="591" d="M33 35q0 25 17 32t52 7q57 0 99 18t65 45.5t36.5 69.5t17.5 79.5t4 86.5v637h-41q-86 0 -86 51q0 29 57 29q98 -5 123 -5l100 5q58 0 58 -35q0 -45 -86 -45h-43v-637q0 -80 -16 -146t-50 -120t-94.5 -84.5t-143.5 -30.5q-69 0 -69 43z" />
<glyph unicode="K" horiz-adv-x="987" d="M80 43q0 37 57 37q41 -2 80 -2q-13 436 -18 760q-1 30 -1 59q0 58 3 113h-35q-86 0 -86 43q0 37 57 37q78 -3 121 -3h100q30 0 44 -10t14 -24q0 -22 -17 -32.5t-59 -10.5q-30 0 -57 2q-4 -98 -4 -172q0 -151 6 -310h223q98 0 161.5 91t63.5 217q0 135 2 172h-30 q-87 0 -87 43q0 37 58 37q78 -3 121 -3h77q30 0 44 -10t14 -24q0 -22 -17 -32.5t-59 -10.5q-17 0 -37 2q-6 -147 -6 -172q0 -128 -47.5 -212t-124.5 -126q53 -108 162 -367l24 -57h58q53 0 53 -35q0 -10 -1 -15t-7 -13t-22.5 -11.5t-43.5 -3.5h-26q-59 0 -90 66 q-107 225 -179 387q-155 2 -186 2q-13 0 -42 -1t-54 -1q2 -91 6.5 -222t5.5 -153h59q30 0 44 -10.5t14 -24.5q0 -22 -17 -32.5t-59 -10.5q-51 2 -82 2q-12 0 -37 -1t-55 -1q-86 0 -86 43z" />
<glyph unicode="L" horiz-adv-x="884" d="M80 43q0 14 13.5 24.5t43.5 10.5h70q-1 2 1 130q1 76 1 127v56q-1 70 -5.5 302.5t-4.5 316.5h-33q-86 0 -86 45q0 14 15.5 24.5t41.5 10.5q98 -5 123 -5l100 5q58 0 58 -35q0 -45 -86 -45h-51q0 -43 10 -619q1 -37 0 -73q1 -18 1 -37q0 -55 -1.5 -123.5t-1.5 -77.5h41 q86 0 244.5 1t181.5 1l2 31l-2 96q0 45 41 45q18 0 29.5 -12.5t11.5 -32.5q0 -13 -1 -43t-1 -45q0 -16 1 -44t1 -42q-1 -17 -12 -26t-27 -9q-293 -2 -469 -2h-174q-76 0 -76 45z" />
<glyph unicode="M" horiz-adv-x="1265" d="M41 1053q0 37 57 37q78 -3 121 -3h72q47 0 62.5 -13.5t31.5 -61.5q74 -198 154 -457l49 -160q7 -25 17 -67.5t16.5 -64t11.5 -21.5t12 20.5t19 66.5t18 66l49 160q36 116 74.5 230t58.5 171l21 56q18 44 54.5 62t96.5 18l131 -2q58 0 58 -37q0 -43 -86 -43q-31 0 -55 1 t-37 1h-9q0 -354 9 -662l6 -272l63 2q58 0 58 -37q0 -43 -87 -43q-31 0 -55.5 1t-36.5 1l-82 -2q-42 0 -58.5 10.5t-16.5 32.5q0 14 13.5 24.5t43.5 10.5h74q0 19 -1 103t-1 147q0 93 -1 310.5t-1 295.5q0 24 -7 24q-6 0 -16 -24q-9 -30 -63.5 -190.5t-81.5 -243.5 q-17 -53 -45 -144t-44.5 -138.5t-29.5 -72.5q-1 -2 -5.5 -10t-6.5 -10.5t-6.5 -8.5t-7.5 -8t-8 -4t-11 -2t-11 2t-8 4t-7.5 8t-6.5 8.5t-6.5 10.5t-5.5 10q-13 25 -29.5 72.5t-44.5 138.5t-45 144q-126 389 -139 434q-7 24 -19 24q-10 0 -10 -24q0 -516 -2 -606 q-1 -42 -2 -131.5t-2 -118.5h76q30 0 43.5 -10.5t13.5 -24.5q0 -22 -17 -32.5t-59 -10.5q-51 2 -82 2q-12 0 -37 -1t-55 -1q-86 0 -86 43q0 37 58 37q30 -2 63 -2q0 90 6 272q8 365 8 662h-8q-13 0 -37 -1t-55 -1q-86 0 -86 43z" />
<glyph unicode="N" horiz-adv-x="1091" d="M82 43q0 37 57 37q35 -2 72 -2l-10 758q-1 29 -1 58q0 58 3 116h-35q-86 0 -86 43q0 37 57 37q78 -3 121 -3q24 0 40.5 -10.5t22 -20t19.5 -36.5l479 -895l-8 711q0 135 2 174h-35q-86 0 -86 43q0 37 58 37q77 -3 120 -3h101q30 0 43.5 -10t13.5 -24q0 -22 -17 -32.5 t-59 -10.5q-30 0 -57 2q-4 -109 -4 -157v-17q2 -132 5 -323t5 -318t2 -148q0 -55 -61 -55q-8 0 -15.5 2t-13.5 4t-13 7.5t-11 8.5t-10.5 11.5t-9 12.5t-9 15t-8.5 14.5t-8.5 16.5t-8.5 16l-454 854q-3 -49 -3 -85q0 -18 1 -33q4 -118 6 -269t4 -308.5t2 -182.5h67 q30 0 44 -10.5t14 -24.5q0 -22 -17 -32.5t-59 -10.5q-51 2 -82 2q-12 0 -37 -1t-55 -1q-86 0 -86 43z" />
<glyph unicode="O" horiz-adv-x="1081" d="M82 543q0 147 56.5 275t163 208t239.5 80t239 -80t162.5 -208t56.5 -275q0 -112 -27 -206.5t-72.5 -158.5t-105.5 -109.5t-124 -66t-129 -20.5t-129.5 20.5t-124 66t-105 109.5t-73 158.5t-27.5 206.5zM164 543q0 -100 23 -182.5t60 -136.5t87 -91t101.5 -53.5 t105.5 -16.5t105.5 16.5t101.5 53.5t87 91t60 136.5t23 182.5q0 124 -50.5 234.5t-138 178.5t-188.5 68t-188.5 -68t-138 -178.5t-50.5 -234.5z" />
<glyph unicode="P" horiz-adv-x="874" d="M80 43q0 14 13.5 24.5t43.5 10.5h70q-1 2 1 130q1 76 1 127v56q-1 78 -5.5 312t-4.5 307h-62q-30 0 -43.5 10t-13.5 24q0 46 76 46h245q416 0 416 -326q0 -66 -12 -118t-31 -87t-49.5 -60.5t-60.5 -40t-71 -22.5t-74 -10t-77 -2h-151v-33v-52q-1 -49 -1 -128 q-2 -132 -1 -133l114 2q58 0 58 -37q0 -43 -86 -43q-49 0 -85.5 1t-66.5 1l-67 -2q-42 0 -59 10.5t-17 32.5zM281 1008q0 -54 3.5 -236.5t4.5 -265.5h153q50 0 84.5 3.5t77.5 18t69 41t44 76t18 119.5q0 244 -342 244h-112z" />
<glyph unicode="Q" horiz-adv-x="1081" d="M82 543q0 147 56.5 275t163 208t239.5 80t239 -80t162.5 -208t56.5 -275q0 -127 -34 -230.5t-92 -170t-127 -106t-146 -50.5q104 -58 203 -58q63 0 100 13q25 10 45 10q29 0 29 -37q0 -29 -49 -47q-61 -21 -135 -21q-101 0 -185 45t-139 97q-75 14 -142.5 54t-123 106 t-88.5 168t-33 227zM164 543q0 -100 23 -182.5t60 -136.5t87 -91t101.5 -53.5t105.5 -16.5t105.5 16.5t101.5 53.5t87 91t60 136.5t23 182.5q0 124 -50.5 234.5t-138 178.5t-188.5 68t-188.5 -68t-138 -178.5t-50.5 -234.5z" />
<glyph unicode="R" horiz-adv-x="921" d="M80 43q0 14 13.5 24.5t43.5 10.5h70q-1 2 1 130q1 76 1 127v56q-1 78 -5.5 312t-4.5 307h-62q-30 0 -43.5 10t-13.5 24q0 46 76 46h245q416 0 416 -326q0 -72 -16.5 -126t-47 -87.5t-67 -53t-84.5 -30.5l146 -332l24 -57h57q54 0 54 -35q0 -10 -1 -15t-7 -13t-22.5 -11.5 t-43.5 -3.5h-27q-59 0 -90 66l-180 391q-23 -2 -70 -2h-153q0 -12 1 -34t1 -30q0 -44 -1 -167.5t-1 -145.5l114 2q58 0 58 -37q0 -43 -86 -43q-49 0 -85.5 1t-66.5 1l-67 -2q-42 0 -59 10.5t-17 32.5zM281 1008q0 -123 8 -471h153q41 0 70.5 2.5t66.5 9.5t62.5 22.5t48 39.5 t34 63t11.5 90q0 244 -342 244h-112z" />
<glyph unicode="S" horiz-adv-x="890" d="M88 35v297q0 20 11 32.5t30 12.5q25 0 35.5 -21t21.5 -61t29 -66q56 -80 128 -123t151 -43q106 0 172.5 50t66.5 149q0 36 -9.5 65.5t-29 51t-40.5 37.5t-55.5 30.5t-60.5 23.5t-67.5 22.5t-67.5 23.5q-119 45 -153 63q-103 56 -127 159q-8 37 -8 81q0 129 92 208t235 79 q173 0 250 -154v107q0 47 37 47q45 0 45 -43v-244q0 -20 -11 -32.5t-30 -12.5q-25 0 -36.5 15t-23 48t-26.5 54q-91 133 -205 133q-107 0 -176 -56t-69 -149q0 -40 13.5 -72.5t32 -54t53.5 -41t62.5 -30.5t73.5 -27q20 -7 57 -19.5t57.5 -19.5t53 -19.5t51 -22.5t44.5 -25.5 t41 -30.5t32 -36t26 -44t15 -52.5t6 -62.5q0 -139 -89.5 -209.5t-231.5 -70.5q-213 0 -324 186v-129q0 -47 -37 -47q-45 0 -45 43z" />
<glyph unicode="T" horiz-adv-x="921" d="M49 879v168q0 40 57 40q203 -8 371 -8q80 0 164.5 2.5t128.5 5.5l45 3q22 0 39.5 -11t17.5 -32v-168q0 -20 -11.5 -32.5t-29.5 -12.5q-40 0 -40 45q2 88 2 96l-2 35q-32 0 -120 -4.5t-173 -4.5q-4 -94 -4 -201v-73q1 -113 4 -248t6.5 -259t3.5 -140h33q86 0 86 -45 q0 -35 -58 -35q-63 4 -100 4l-123 -4q-26 0 -41.5 10.5t-15.5 24.5q0 45 86 45h49q-8 78 -8 217q-1 111 -1 204q1 46 1 88q0 126 1 262t1 150q-69 0 -165 3.5t-124 3.5v-33l2 -96q0 -45 -41 -45q-18 0 -29.5 12.5t-11.5 32.5z" />
<glyph unicode="U" horiz-adv-x="1052" d="M57 1055q0 14 15.5 24.5t42.5 10.5q98 -5 123 -5l100 5q57 0 57 -35q0 -45 -86 -45h-45v-242q0 -86 -2 -219.5t-2 -157.5q0 -75 13 -132t42 -102.5t82.5 -69.5t128.5 -24t128.5 24t83 69.5t42.5 102.5t13 132q0 24 -2.5 157.5t-2.5 219.5v242h-45q-86 0 -86 45 q0 35 58 35q63 -5 100 -5l123 5q26 0 41.5 -10.5t15.5 -24.5q0 -45 -86 -45h-39v-256q0 -82 2 -210.5t2 -152.5q0 -65 -10 -121.5t-34.5 -110.5t-63 -92.5t-100 -61.5t-140.5 -23t-140.5 23t-100 61.5t-63 92.5t-34.5 110.5t-10 121.5q0 24 2 152.5t2 210.5v256h-39 q-86 0 -86 45z" />
<glyph unicode="V" horiz-adv-x="1017" d="M16 1053q0 37 58 37q78 -3 121 -3h79q30 0 44 -10t14 -24q0 -22 -17 -32.5t-59 -10.5q-24 2 -51 2q52 -149 148 -457.5t128 -417.5q16 -61 29 -61t29 61q16 62 117 385.5t157 489.5l-49 -2q-42 0 -59 10.5t-17 32.5q0 14 13.5 24t43.5 10l201 3q58 0 58 -37 q0 -43 -86 -43h-21l-256 -826q-15 -48 -24 -72.5t-26 -60.5t-37 -52.5t-44 -16.5q-18 0 -34.5 11.5t-28 27t-24.5 44t-19.5 47.5t-18.5 54l-6 18q-17 49 -258 826h-19q-86 0 -86 43z" />
<glyph unicode="W" horiz-adv-x="1384" d="M20 1053q0 37 58 37q78 -3 201 -3q30 0 43.5 -10t13.5 -24q0 -22 -17 -32.5t-59 -10.5q-26 2 -51 2q38 -132 127.5 -490.5t97.5 -384.5q16 -61 19 -61q2 0 3.5 2t3 7.5t3 11.5t4 17.5t4.5 22.5q7 29 75 399t95 484q16 67 53 67q21 0 33.5 -11.5t20.5 -45.5 q28 -115 94.5 -492t72.5 -401q2 -8 4 -17t3 -14t2 -11t2 -9t2.5 -5.5t2.5 -3.5t3 -1t18 61q3 12 34 135.5t62 246.5t69 268t61 225l-52 -2q-42 0 -58.5 10.5t-16.5 32.5q0 14 13.5 24t43.5 10l201 3q57 0 57 -37q0 -43 -86 -43h-18q-24 -90 -69.5 -269.5t-92 -362 t-49.5 -194.5q-3 -9 -11.5 -39t-12 -42t-12 -36.5t-15.5 -35t-17.5 -24.5t-22.5 -19.5t-26 -5.5q-47 0 -68.5 45t-42.5 157l-131 693q-27 -142 -76 -407.5t-53 -285.5q-9 -41 -13 -61t-12 -48.5t-15 -41.5t-17 -27t-23 -19t-30 -5q-14 0 -26 5.5t-22.5 19.5t-17.5 24.5 t-15.5 35t-12 36.5t-12 42t-11.5 39q-36 131 -211 826h-19q-86 0 -86 43z" />
<glyph unicode="X" horiz-adv-x="989" d="M20 43q0 14 14 24.5t44 10.5h82l284 459q-163 266 -294 473h-37q-86 0 -86 43q0 37 57 37q78 -3 121 -3h104q30 0 44 -10t14 -24q0 -22 -17 -32.5t-59 -10.5q-24 0 -49 2l252 -404q33 53 124 197.5t130 206.5l-50 -2q-42 0 -58.5 10.5t-16.5 32.5q0 14 13.5 24t43.5 10 h104l121 3q58 0 58 -37q0 -43 -86 -43h-37q-41 -67 -151.5 -241.5t-145.5 -231.5l286 -459h82q30 0 44 -10.5t14 -24.5q0 -22 -17 -32.5t-59 -10.5q-55 2 -86 2q-12 0 -36.5 -1t-55.5 -1q-86 0 -86 43q0 37 57 37q20 -2 45 -2q-226 364 -237 383q-23 -38 -63 -102.5 t-93.5 -149.5t-81.5 -131l47 2q57 0 57 -37q0 -43 -86 -43q-30 0 -55 1t-37 1l-86 -2q-42 0 -59 10.5t-17 32.5z" />
<glyph unicode="Y" horiz-adv-x="901" d="M23 1053q0 37 57 37q78 -3 121 -3h80q30 0 43.5 -10t13.5 -24q0 -22 -17 -32.5t-59 -10.5q-15 0 -33 2l177 -406q39 -90 47 -90q10 0 49 90l174 406l-31 -2q-42 0 -59 10.5t-17 32.5q0 14 14 24t44 10h80l120 3q58 0 58 -37q0 -43 -86 -43h-35q-172 -405 -184 -432 q-19 -39 -31 -60t-29.5 -40.5t-34.5 -24.5q1 -75 11 -373h32q86 0 86 -45q0 -35 -57 -35q-63 4 -100 4l-123 -4q-27 0 -42.5 10.5t-15.5 24.5q0 45 86 45h50q-9 88 -9 217v164q-14 9 -27.5 29t-22.5 37t-25 51q-31 63 -187 432h-32q-86 0 -86 43z" />
<glyph unicode="Z" horiz-adv-x="847" d="M74 924v127q0 45 51 45q283 -4 377 -4l160 4q54 0 75 -19t21 -57q0 -16 -29 -66q-56 -93 -111 -178q-46 -71 -137.5 -207.5t-164.5 -249.5t-128 -204q-18 -30 -18 -33q0 -6 4.5 -7t24.5 -1q22 0 94 2t123 2q160 0 278 -4v100q0 45 41 45q18 0 29.5 -12.5t11.5 -32.5v-149 q-3 -33 -51 -33q-232 4 -326 4l-221 -4q-54 0 -75 19t-21 57q0 7 1 13t4 12.5t5.5 10.5t9 14t9.5 15l446 696l94 144q4 4 11.5 16.5t7.5 16.5q0 6 -4 7t-19 1l-57 -2q-57 -2 -105 -2q-45 0 -170.5 1t-158.5 1v-88q0 -45 -41 -45q-18 0 -29.5 12.5t-11.5 32.5z" />
<glyph unicode="[" horiz-adv-x="489" d="M152 -20q0 9 1.5 99.5t3.5 233.5t3 265q1 91 0.5 188t-1 164.5t-1 120.5t-0.5 57q0 19 5 33.5t16.5 22.5t21 13t28.5 6.5t28 2t30 0.5h102q49 0 49 -43q0 -35 -49 -35h-106q-17 0 -30 -9.5t-13 -25.5q0 -4 0.5 -33.5t1 -76t1 -104.5t0.5 -133.5t-1 -147.5 q-1 -111 -3 -254.5t-4 -239t-2 -104.5q0 -56 50 -56h94q55 0 55 -39t-63 -39h-86q-74 0 -102.5 32.5t-28.5 101.5z" />
<glyph unicode="\" horiz-adv-x="593" d="M66 1264q0 6 2.5 14.5t12 17.5t25.5 9q36 0 48 -48l368 -1439q6 -24 6 -35q0 -12 -9 -26.5t-32 -14.5q-35 0 -47 47l-368 1440q-6 24 -6 35z" />
<glyph unicode="]" horiz-adv-x="489" d="M51 1143q0 43 49 43h103q21 0 30 -0.5t28 -2t28.5 -6.5t21 -13t16.5 -22.5t5 -33.5q0 -4 -0.5 -57t-1 -120.5t-1 -164.5t0.5 -188q1 -122 3 -265t3.5 -233.5t1.5 -99.5q0 -69 -28.5 -101.5t-102.5 -32.5h-86q-64 0 -64 39t56 39h94q49 0 49 56q0 9 -1.5 104.5t-3.5 239 t-3 254.5q-1 72 -1 147.5t0.5 133.5t1 104.5t1 76t0.5 33.5q0 16 -13 25.5t-30 9.5h-107q-49 0 -49 35z" />
<glyph unicode="^" horiz-adv-x="606" d="M86 1010q0 16 18 37q17 21 41 51t46 58t28 36q2 2 9.5 10.5t10.5 11.5l10 10t12 9.5t12 6.5t14.5 5.5t15.5 1.5t15.5 -1.5t14.5 -5.5t12 -6.5t12 -9.5l10 -10t10.5 -11.5t9.5 -10.5q6 -8 28 -36t46 -58t41 -51q18 -21 18 -37q0 -21 -12.5 -31t-28.5 -10q-21 0 -45 30 l-96 115q-5 5 -11 13t-9 10.5t-7 5t-8 2.5t-8 -2.5t-7 -5t-9 -10.5t-11 -13q-82 -97 -96 -115q-24 -30 -45 -30q-16 0 -28.5 10t-12.5 31z" />
<glyph unicode="_" horiz-adv-x="976" d="M86 43q0 14 13.5 24.5t43.5 10.5h312l383 2q30 0 43.5 -10.5t13.5 -24.5q0 -45 -86 -45h-354q-141 0 -190 -1t-93 -1q-86 0 -86 45z" />
<glyph unicode="`" horiz-adv-x="466" d="M61 1133q0 20 13 35.5t28 15.5q21 0 62 -21q14 -7 92.5 -50t99.5 -52q50 -23 50 -45q0 -13 -10 -25t-31 -12q-12 0 -48 14q-90 35 -208 90q-48 20 -48 50z" />
<glyph unicode="a" d="M8 43q0 14 14 24.5t44 10.5h55l14 43l283 891h-21q-42 0 -58.5 10.5t-16.5 32.5q0 14 13.5 24.5t43.5 10.5h129q33 0 48 -11t26 -49q94 -291 139 -434q17 -54 57 -177t73 -223t38 -118h57q30 0 44 -10.5t14 -24.5q0 -22 -17 -32.5t-59 -10.5q-35 2 -66 2q-12 0 -37 -1 t-55 -1q-86 0 -86 43q0 37 57 37q27 -2 58 -2q-38 101 -107 317q-51 -10 -200 -10q-57 0 -108 1t-73 1l-104 -309l63 2q58 0 58 -37q0 -43 -86 -43q-29 0 -50 1t-40 1l-68 -2q-42 0 -59 10.5t-17 32.5zM338 471q82 -4 154 -4q131 0 178 2l-140 469q-16 59 -24 59 q-14 0 -33 -69q-31 -114 -135 -457z" />
<glyph unicode="b" horiz-adv-x="927" d="M82 43q0 14 13.5 24.5t43.5 10.5h72q0 106 -6 456t-6 476h-60q-30 0 -43.5 10t-13.5 24q0 46 76 46q18 0 82 -1.5t108 -1.5q13 0 56.5 1.5t66.5 1.5q322 0 322 -289q0 -92 -43.5 -150t-114.5 -76v-2q84 0 146.5 -72t62.5 -206q0 -144 -96 -219.5t-261 -75.5 q-131 0 -229.5 -1t-99.5 -1q-76 0 -76 45zM284 663q0 -27 1 -51q94 0 225 -2q22 0 44 3t52 15t52 31.5t37.5 56t15.5 85.5q0 41 -9.5 73.5t-24 54t-36.5 37t-42 23.5t-46 12.5t-43.5 5.5t-38.5 1q-25 0 -61.5 -1t-59.5 -1h-65v-236q0 -16 -0.5 -48t-0.5 -59zM293 82h194 q138 0 206.5 59.5t68.5 153.5q0 117 -62.5 175t-195.5 58h-211q3 -44 3 -114.5t-1.5 -172.5t-1.5 -159z" />
<glyph unicode="c" horiz-adv-x="991" d="M84 522q0 142 37 255.5t100 184t141.5 107.5t165.5 37q96 0 169 -48.5t120 -113.5v115q0 47 37 47q45 0 45 -43v-250q0 -20 -11 -32.5t-30 -12.5q-21 0 -37 20t-32 54.5t-23 44.5q-92 137 -238 137q-72 0 -136.5 -32.5t-115 -94t-80.5 -158.5t-30 -217q0 -95 23 -174 t59.5 -130.5t85 -87.5t98 -51.5t98.5 -15.5q33 0 64 6.5t54.5 14.5t48.5 23.5t40 26.5t35.5 31.5t28.5 29t24.5 29t18.5 22.5q24 28 43 28q14 0 22.5 -8.5t8.5 -23.5q0 -35 -35 -76q-156 -184 -353 -184q-62 0 -123 18t-120 59.5t-103.5 102t-72 154t-27.5 206.5z" />
<glyph unicode="d" horiz-adv-x="1003" d="M68 43q0 14 13.5 24.5t43.5 10.5h86q0 142 -5 458t-5 474h-76q-30 0 -43.5 10t-13.5 24q0 46 75 46q7 0 93.5 -1.5t185.5 -1.5q127 0 223 -40.5t155 -114t88.5 -171.5t29.5 -218q0 -136 -41 -242t-114.5 -171t-169 -98.5t-208.5 -33.5h-242q-41 0 -58 11t-17 34zM281 768 q0 -116 6 -336.5t6 -351.5h92q224 0 337.5 117t113.5 340q0 471 -414 471q-8 0 -27 0.5t-46.5 0.5t-67.5 -1v-240z" />
<glyph unicode="e" horiz-adv-x="894" d="M80 43q0 14 13.5 24.5t43.5 10.5h70q-1 2 1 130q1 76 1 127v56q-1 78 -5.5 312t-4.5 307h-62q-30 0 -43.5 10t-13.5 24q0 46 76 46q40 0 130 -2.5t146 -2.5q28 0 176 3l148 2q20 0 34.5 -10t14.5 -27v-172q0 -20 -11.5 -32.5t-29.5 -12.5q-41 0 -41 45q2 88 2 127h-444 q0 -50 2.5 -210t3.5 -218q17 0 57 2t70 2l188 -2q57 0 57 -35q0 -45 -86 -45q-19 0 -56.5 2t-102.5 2q-21 0 -60.5 -2t-64.5 -2q2 -39 2 -111q1 -37 0 -73q1 -18 1 -37q0 -55 -1.5 -123.5t-1.5 -77.5h41q83 0 228.5 1t166.5 1l-2 127q0 45 41 45q18 0 29.5 -12.5t11.5 -32.5 q0 -13 -1 -43t-1 -45q0 -16 1 -44t1 -42q-1 -17 -12 -26t-27 -9q-261 -2 -610 -2q-76 0 -76 45z" />
<glyph unicode="f" horiz-adv-x="831" d="M80 43q0 14 13.5 24.5t43.5 10.5h70q0 3 1 130q1 77 1 127v56q-1 78 -5.5 312t-4.5 307h-62q-30 0 -43.5 10t-13.5 24q0 46 76 46q40 0 130 -2.5t146 -2.5q28 0 162 3l133 2q21 0 35 -11t14 -30v-168q0 -20 -11.5 -32.5t-29.5 -12.5q-41 0 -41 45q2 88 2 96l-2 31h-413 q0 -50 2.5 -210t3.5 -218q17 0 57 2t70 2l170 -2q57 0 57 -35q0 -45 -86 -45q-19 0 -47.5 2t-93.5 2q-21 0 -60.5 -2t-64.5 -2q2 -39 2 -111v-52q0 -49 -1 -128q-1 -132 -1 -133l114 2q58 0 58 -37q0 -43 -86 -43q-49 0 -85.5 1t-66.5 1l-67 -2q-42 0 -59 10.5t-17 32.5z " />
<glyph unicode="g" horiz-adv-x="1024" d="M86 522q0 142 37 255.5t100 184t141.5 107.5t165.5 37q96 0 169 -48.5t120 -113.5v115q0 47 37 47q45 0 45 -43v-250q0 -20 -11.5 -32.5t-29.5 -12.5q-25 0 -40 19t-28 52t-24 48q-54 70 -109.5 103.5t-128.5 33.5q-72 0 -136.5 -32.5t-115 -94t-80.5 -158.5t-30 -217 q0 -95 23 -174t59.5 -130.5t85 -87.5t98 -51.5t98.5 -15.5q61 0 112.5 17.5t92.5 52t58 53t45 54.5q0 30 1 71t1 51q0 11 -1 16.5t-6.5 10t-17.5 4.5q-117 2 -209 2q-20 0 -34.5 10.5t-14.5 30.5q0 41 51 41q101 -2 238 -2q36 0 54 -20.5t18 -53.5v-376q0 -20 -10 -32.5 t-27 -12.5q-41 0 -41 45q0 19 -1 49t-1 43q-135 -135 -308 -135q-62 0 -123 18t-120 59.5t-103.5 102t-72 154t-27.5 206.5z" />
<glyph unicode="h" horiz-adv-x="1105" d="M80 43q0 37 57 37q41 -2 80 -2q-13 436 -18 760q-1 30 -1 59q0 58 3 113h-35q-86 0 -86 43q0 37 57 37q78 -3 121 -3h100q30 0 44 -10t14 -24q0 -22 -17 -32.5t-59 -10.5q-30 0 -57 2q-4 -98 -4 -172q0 -84 4 -260q44 0 109 -1t128 -1l273 2q8 0 28 -5q-1 78 -10 435h-29 q-86 0 -86 43q0 37 58 37q92 -3 135 -3h84q30 0 43.5 -10t13.5 -24q0 -22 -17 -32.5t-59 -10.5q-32 2 -61 2q1 -60 7 -385.5t7 -456.5v-92h66q30 0 43.5 -10.5t13.5 -24.5q0 -22 -17 -32.5t-59 -10.5q-34 2 -65 2q-13 0 -45 -1t-62 -1q-86 0 -86 43q0 37 58 37q34 -2 71 -2 q0 9 1 37.5t1 54.5l-4 338q-19 -8 -59 -8h-244q-34 0 -104.5 1t-130.5 1l14 -424h59q30 0 44 -10.5t14 -24.5q0 -22 -17 -32.5t-59 -10.5q-51 2 -82 2q-12 0 -37 -1t-55 -1q-86 0 -86 43z" />
<glyph unicode="i" horiz-adv-x="493" d="M78 33q0 45 86 45h49q-8 78 -8 219q0 633 2 713h-43q-86 0 -86 45q0 14 15.5 24.5t41.5 10.5q98 -5 123 -5l100 5q58 0 58 -35q0 -45 -86 -45h-43q-5 -111 -5 -215q0 -35 1 -68q0 -8 14 -649h33q86 0 86 -45q0 -35 -58 -35q-63 4 -100 4l-123 -4q-26 0 -41.5 10.5 t-15.5 24.5z" />
<glyph unicode="j" horiz-adv-x="591" d="M33 35q0 25 17 32t52 7q57 0 99 18t65 45.5t36.5 69.5t17.5 79.5t4 86.5v637h-41q-86 0 -86 51q0 29 57 29q98 -5 123 -5l100 5q58 0 58 -35q0 -45 -86 -45h-43v-637q0 -80 -16 -146t-50 -120t-94.5 -84.5t-143.5 -30.5q-69 0 -69 43z" />
<glyph unicode="k" horiz-adv-x="987" d="M80 43q0 37 57 37q41 -2 80 -2q-13 436 -18 760q-1 30 -1 59q0 58 3 113h-35q-86 0 -86 43q0 37 57 37q78 -3 121 -3h100q30 0 44 -10t14 -24q0 -22 -17 -32.5t-59 -10.5q-30 0 -57 2q-4 -98 -4 -172q0 -151 6 -310h223q98 0 161.5 91t63.5 217q0 135 2 172h-30 q-87 0 -87 43q0 37 58 37q78 -3 121 -3h77q30 0 44 -10t14 -24q0 -22 -17 -32.5t-59 -10.5q-17 0 -37 2q-6 -147 -6 -172q0 -128 -47.5 -212t-124.5 -126q53 -108 162 -367l24 -57h58q53 0 53 -35q0 -10 -1 -15t-7 -13t-22.5 -11.5t-43.5 -3.5h-26q-59 0 -90 66 q-107 225 -179 387q-155 2 -186 2q-13 0 -42 -1t-54 -1q2 -91 6.5 -222t5.5 -153h59q30 0 44 -10.5t14 -24.5q0 -22 -17 -32.5t-59 -10.5q-51 2 -82 2q-12 0 -37 -1t-55 -1q-86 0 -86 43z" />
<glyph unicode="l" horiz-adv-x="884" d="M80 43q0 14 13.5 24.5t43.5 10.5h70q-1 2 1 130q1 76 1 127v56q-1 70 -5.5 302.5t-4.5 316.5h-33q-86 0 -86 45q0 14 15.5 24.5t41.5 10.5q98 -5 123 -5l100 5q58 0 58 -35q0 -45 -86 -45h-51q0 -43 10 -619q1 -37 0 -73q1 -18 1 -37q0 -55 -1.5 -123.5t-1.5 -77.5h41 q86 0 244.5 1t181.5 1l2 31l-2 96q0 45 41 45q18 0 29.5 -12.5t11.5 -32.5q0 -13 -1 -43t-1 -45q0 -16 1 -44t1 -42q-1 -17 -12 -26t-27 -9q-293 -2 -469 -2h-174q-76 0 -76 45z" />
<glyph unicode="m" horiz-adv-x="1265" d="M41 1053q0 37 57 37q78 -3 121 -3h72q47 0 62.5 -13.5t31.5 -61.5q74 -198 154 -457l49 -160q7 -25 17 -67.5t16.5 -64t11.5 -21.5t12 20.5t19 66.5t18 66l49 160q36 116 74.5 230t58.5 171l21 56q18 44 54.5 62t96.5 18l131 -2q58 0 58 -37q0 -43 -86 -43q-31 0 -55 1 t-37 1h-9q0 -354 9 -662l6 -272l63 2q58 0 58 -37q0 -43 -87 -43q-31 0 -55.5 1t-36.5 1l-82 -2q-42 0 -58.5 10.5t-16.5 32.5q0 14 13.5 24.5t43.5 10.5h74q0 19 -1 103t-1 147q0 93 -1 310.5t-1 295.5q0 24 -7 24q-6 0 -16 -24q-9 -30 -63.5 -190.5t-81.5 -243.5 q-17 -53 -45 -144t-44.5 -138.5t-29.5 -72.5q-1 -2 -5.5 -10t-6.5 -10.5t-6.5 -8.5t-7.5 -8t-8 -4t-11 -2t-11 2t-8 4t-7.5 8t-6.5 8.5t-6.5 10.5t-5.5 10q-13 25 -29.5 72.5t-44.5 138.5t-45 144q-126 389 -139 434q-7 24 -19 24q-10 0 -10 -24q0 -516 -2 -606 q-1 -42 -2 -131.5t-2 -118.5h76q30 0 43.5 -10.5t13.5 -24.5q0 -22 -17 -32.5t-59 -10.5q-51 2 -82 2q-12 0 -37 -1t-55 -1q-86 0 -86 43q0 37 58 37q30 -2 63 -2q0 90 6 272q8 365 8 662h-8q-13 0 -37 -1t-55 -1q-86 0 -86 43z" />
<glyph unicode="n" horiz-adv-x="1091" d="M82 43q0 37 57 37q35 -2 72 -2l-10 758q-1 29 -1 58q0 58 3 116h-35q-86 0 -86 43q0 37 57 37q78 -3 121 -3q24 0 40.5 -10.5t22 -20t19.5 -36.5l479 -895l-8 711q0 135 2 174h-35q-86 0 -86 43q0 37 58 37q77 -3 120 -3h101q30 0 43.5 -10t13.5 -24q0 -22 -17 -32.5 t-59 -10.5q-30 0 -57 2q-4 -109 -4 -157v-17q2 -132 5 -323t5 -318t2 -148q0 -55 -61 -55q-8 0 -15.5 2t-13.5 4t-13 7.5t-11 8.5t-10.5 11.5t-9 12.5t-9 15t-8.5 14.5t-8.5 16.5t-8.5 16l-454 854q-3 -49 -3 -85q0 -18 1 -33q4 -118 6 -269t4 -308.5t2 -182.5h67 q30 0 44 -10.5t14 -24.5q0 -22 -17 -32.5t-59 -10.5q-51 2 -82 2q-12 0 -37 -1t-55 -1q-86 0 -86 43z" />
<glyph unicode="o" horiz-adv-x="1081" d="M82 543q0 147 56.5 275t163 208t239.5 80t239 -80t162.5 -208t56.5 -275q0 -112 -27 -206.5t-72.5 -158.5t-105.5 -109.5t-124 -66t-129 -20.5t-129.5 20.5t-124 66t-105 109.5t-73 158.5t-27.5 206.5zM164 543q0 -100 23 -182.5t60 -136.5t87 -91t101.5 -53.5 t105.5 -16.5t105.5 16.5t101.5 53.5t87 91t60 136.5t23 182.5q0 124 -50.5 234.5t-138 178.5t-188.5 68t-188.5 -68t-138 -178.5t-50.5 -234.5z" />
<glyph unicode="p" horiz-adv-x="874" d="M80 43q0 14 13.5 24.5t43.5 10.5h70q0 3 1 130q1 77 1 127v56q-1 78 -5.5 312t-4.5 307h-62q-30 0 -43.5 10t-13.5 24q0 46 76 46h245q416 0 416 -326q0 -66 -12 -118t-31 -87t-49.5 -60.5t-60.5 -40t-71 -22.5t-74 -10t-77 -2h-151v-33v-52q0 -49 -1 -128 q-1 -132 -1 -133l114 2q58 0 58 -37q0 -43 -86 -43q-49 0 -85.5 1t-66.5 1l-67 -2q-42 0 -59 10.5t-17 32.5zM281 1008q0 -54 3.5 -236.5t4.5 -265.5h153q50 0 84.5 3.5t77.5 18t69 41t44 76t18 119.5q0 244 -342 244h-112z" />
<glyph unicode="q" horiz-adv-x="1081" d="M82 543q0 147 56.5 275t163 208t239.5 80t239 -80t162.5 -208t56.5 -275q0 -127 -34 -230.5t-92 -170t-127 -106t-146 -50.5q104 -58 203 -58q63 0 100 13q25 10 45 10q29 0 29 -37q0 -29 -49 -47q-61 -21 -135 -21q-101 0 -185 45t-139 97q-75 14 -142.5 54t-123 106 t-88.5 168t-33 227zM164 543q0 -100 23 -182.5t60 -136.5t87 -91t101.5 -53.5t105.5 -16.5t105.5 16.5t101.5 53.5t87 91t60 136.5t23 182.5q0 124 -50.5 234.5t-138 178.5t-188.5 68t-188.5 -68t-138 -178.5t-50.5 -234.5z" />
<glyph unicode="r" horiz-adv-x="921" d="M80 43q0 14 13.5 24.5t43.5 10.5h70q-1 2 1 130q1 76 1 127v56q-1 78 -5.5 312t-4.5 307h-62q-30 0 -43.5 10t-13.5 24q0 46 76 46h245q416 0 416 -326q0 -72 -16.5 -126t-47 -87.5t-67 -53t-84.5 -30.5l209 -389h49q53 0 53 -35q0 -10 -1 -14.5t-6.5 -13t-22 -12 t-43.5 -3.5h-27q-59 0 -90 66l-211 391q-23 -2 -70 -2h-153q0 -12 1 -34t1 -30q0 -44 -1 -167.5t-1 -145.5l114 2q58 0 58 -37q0 -43 -86 -43q-49 0 -85.5 1t-66.5 1l-67 -2q-42 0 -59 10.5t-17 32.5zM281 1008q0 -123 8 -471h153q41 0 70.5 2.5t66.5 9.5t62.5 22.5t48 39.5 t34 63t11.5 90q0 244 -342 244h-112z" />
<glyph unicode="s" horiz-adv-x="890" d="M88 35v297q0 20 11 32.5t30 12.5q25 0 35.5 -21t21.5 -61t29 -66q56 -80 128 -123t151 -43q106 0 172.5 50t66.5 149q0 36 -9.5 65.5t-29 51t-40.5 37.5t-55.5 30.5t-60.5 23.5t-67.5 22.5t-67.5 23.5q-119 45 -153 63q-103 56 -127 159q-8 37 -8 81q0 129 92 208t235 79 q173 0 250 -154v107q0 47 37 47q45 0 45 -43v-244q0 -20 -11 -32.5t-30 -12.5q-25 0 -36.5 15t-23 48t-26.5 54q-91 133 -205 133q-107 0 -176 -56t-69 -149q0 -40 13.5 -72.5t32 -54t53.5 -41t62.5 -30.5t73.5 -27q20 -7 57 -19.5t57.5 -19.5t53 -19.5t51 -22.5t44.5 -25.5 t41 -30.5t32 -36t26 -44t15 -52.5t6 -62.5q0 -139 -89.5 -209.5t-231.5 -70.5q-213 0 -324 186v-129q0 -47 -37 -47q-45 0 -45 43z" />
<glyph unicode="t" horiz-adv-x="921" d="M49 879v168q0 40 57 40q203 -8 371 -8q80 0 164.5 2.5t128.5 5.5l45 3q22 0 39.5 -11t17.5 -32v-168q0 -20 -11.5 -32.5t-29.5 -12.5q-40 0 -40 45q2 88 2 96l-2 35q-32 0 -120 -4.5t-173 -4.5q-4 -94 -4 -201v-73q1 -113 4 -248t6.5 -259t3.5 -140h33q86 0 86 -45 q0 -35 -58 -35q-63 4 -100 4l-123 -4q-26 0 -41.5 10.5t-15.5 24.5q0 45 86 45h49q-8 78 -8 217q-1 111 -1 204q1 46 1 88q0 126 1 262t1 150q-69 0 -165 3.5t-124 3.5v-33l2 -96q0 -45 -41 -45q-18 0 -29.5 12.5t-11.5 32.5z" />
<glyph unicode="u" horiz-adv-x="1052" d="M57 1055q0 14 15.5 24.5t42.5 10.5q98 -5 123 -5l100 5q57 0 57 -35q0 -45 -86 -45h-45v-242q0 -86 -2 -219.5t-2 -157.5q0 -75 13 -132t42 -102.5t82.5 -69.5t128.5 -24t128.5 24t83 69.5t42.5 102.5t13 132q0 24 -2.5 157.5t-2.5 219.5v242h-45q-86 0 -86 45 q0 35 58 35q63 -5 100 -5l123 5q26 0 41.5 -10.5t15.5 -24.5q0 -45 -86 -45h-39v-256q0 -82 2 -210.5t2 -152.5q0 -65 -10 -121.5t-34.5 -110.5t-63 -92.5t-100 -61.5t-140.5 -23t-140.5 23t-100 61.5t-63 92.5t-34.5 110.5t-10 121.5q0 24 2 152.5t2 210.5v256h-39 q-86 0 -86 45z" />
<glyph unicode="v" horiz-adv-x="1017" d="M16 1053q0 37 58 37q78 -3 121 -3h79q30 0 44 -10t14 -24q0 -22 -17 -32.5t-59 -10.5q-24 2 -51 2q52 -149 148 -457.5t128 -417.5q16 -61 29 -61t29 61q16 62 117 385.5t157 489.5l-49 -2q-42 0 -59 10.5t-17 32.5q0 14 13.5 24t43.5 10l201 3q58 0 58 -37 q0 -43 -86 -43h-21l-256 -826q-15 -48 -24 -72.5t-26 -60.5t-37 -52.5t-44 -16.5q-18 0 -34.5 11.5t-28 27t-24.5 44t-19.5 47.5t-18.5 54l-6 18q-17 49 -258 826h-19q-86 0 -86 43z" />
<glyph unicode="w" horiz-adv-x="1384" d="M20 1053q0 37 58 37q78 -3 201 -3q30 0 43.5 -10t13.5 -24q0 -22 -17 -32.5t-59 -10.5q-26 2 -51 2q38 -132 127.5 -490.5t97.5 -384.5q16 -61 19 -61q2 0 3.5 2t3 7.5t3 11.5t4 17.5t4.5 22.5q7 29 75 399t95 484q16 67 53 67q21 0 33.5 -11.5t20.5 -45.5 q28 -115 94.5 -492t72.5 -401q2 -8 4 -17t3 -14t2 -11t2 -9t2.5 -5.5t2.5 -3.5t3 -1t18 61q3 12 34 135.5t62 246.5t69 268t61 225l-52 -2q-42 0 -58.5 10.5t-16.5 32.5q0 14 13.5 24t43.5 10l201 3q57 0 57 -37q0 -43 -86 -43h-18q-24 -90 -69.5 -269.5t-92 -362 t-49.5 -194.5q-3 -9 -11.5 -39t-12 -42t-12 -36.5t-15.5 -35t-17.5 -24.5t-22.5 -19.5t-26 -5.5q-47 0 -68.5 45t-42.5 157l-131 693q-27 -142 -76 -407.5t-53 -285.5q-9 -41 -13 -61t-12 -48.5t-15 -41.5t-17 -27t-23 -19t-30 -5q-14 0 -26 5.5t-22.5 19.5t-17.5 24.5 t-15.5 35t-12 36.5t-12 42t-11.5 39q-36 131 -211 826h-19q-86 0 -86 43z" />
<glyph unicode="x" horiz-adv-x="989" d="M20 43q0 14 14 24.5t44 10.5h82l284 459q-163 266 -294 473h-37q-86 0 -86 43q0 37 57 37q78 -3 121 -3h104q30 0 44 -10t14 -24q0 -22 -17 -32.5t-59 -10.5q-24 0 -49 2l252 -404q33 53 124 197.5t130 206.5l-50 -2q-42 0 -58.5 10.5t-16.5 32.5q0 14 13.5 24t43.5 10 h104l121 3q58 0 58 -37q0 -43 -86 -43h-37q-41 -67 -151.5 -241.5t-145.5 -231.5l286 -459h82q30 0 44 -10.5t14 -24.5q0 -22 -17 -32.5t-59 -10.5q-55 2 -86 2q-12 0 -36.5 -1t-55.5 -1q-86 0 -86 43q0 37 57 37q20 -2 45 -2q-226 364 -237 383q-23 -38 -63 -102.5 t-93.5 -149.5t-81.5 -131l47 2q57 0 57 -37q0 -43 -86 -43q-30 0 -55 1t-37 1l-86 -2q-42 0 -59 10.5t-17 32.5z" />
<glyph unicode="y" horiz-adv-x="901" d="M23 1053q0 37 57 37q78 -3 121 -3h80q30 0 43.5 -10t13.5 -24q0 -22 -17 -32.5t-59 -10.5q-15 0 -33 2l177 -406q39 -90 47 -90q10 0 49 90l174 406l-31 -2q-42 0 -59 10.5t-17 32.5q0 14 14 24t44 10h80l120 3q58 0 58 -37q0 -43 -86 -43h-35q-172 -405 -184 -432 q-19 -39 -31 -60t-29.5 -40.5t-34.5 -24.5q1 -75 11 -373h32q86 0 86 -45q0 -35 -57 -35q-63 4 -100 4l-123 -4q-27 0 -42.5 10.5t-15.5 24.5q0 45 86 45h50q-9 88 -9 217v164q-14 9 -27.5 29t-22.5 37t-25 51q-31 63 -187 432h-32q-86 0 -86 43z" />
<glyph unicode="z" horiz-adv-x="847" d="M74 924v127q0 45 51 45q283 -4 377 -4l160 4q54 0 75 -19t21 -57q0 -16 -29 -66q-56 -93 -111 -178q-46 -71 -137.5 -207.5t-164.5 -249.5t-128 -204q-18 -30 -18 -33q0 -6 4.5 -7t24.5 -1q22 0 94 2t123 2q160 0 278 -4v100q0 45 41 45q18 0 29.5 -12.5t11.5 -32.5v-149 q-3 -33 -51 -33q-232 4 -326 4l-221 -4q-54 0 -75 19t-21 57q0 7 1 13t4 12.5t5.5 10.5t9 14t9.5 15l446 696l94 144q4 4 11.5 16.5t7.5 16.5q0 6 -4 7t-19 1l-57 -2q-57 -2 -105 -2q-45 0 -170.5 1t-158.5 1v-88q0 -45 -41 -45q-18 0 -29.5 12.5t-11.5 32.5z" />
<glyph unicode="{" horiz-adv-x="534" d="M51 387q0 20 11.5 33.5t35.5 13.5q48 0 82.5 29.5t34.5 89.5q0 41 -12 127q-13 110 -13 162q0 56 18 101t45 73t61 46.5t63.5 26t54.5 7.5q51 0 51 -37q0 -45 -45 -45q-23 0 -49.5 -9t-53.5 -28t-45 -54.5t-18 -80.5q0 -40 13 -150q12 -86 12 -139q0 -114 -76 -166 q76 -52 76 -166q0 -53 -12 -139q-13 -111 -13 -150q0 -45 18 -80.5t45 -54.5t53.5 -28t49.5 -9q45 0 45 -45q0 -37 -51 -37q-25 0 -54.5 7.5t-63.5 26t-61 46.5t-45 73t-18 101q0 64 13 162q12 86 12 127q0 60 -34.5 89.5t-82.5 29.5q-23 0 -35 13.5t-12 33.5z" />
<glyph unicode="|" horiz-adv-x="401" d="M152 1184q1 16 3.5 24.5t10.5 15.5t24 7q25 0 34 -14t9 -43q0 -5 1.5 -123t1.5 -187q1 -80 4.5 -330t6.5 -463.5t3 -226.5q0 -23 -12 -35t-31 -12q-18 0 -28.5 12t-10.5 33q-1 24 -12 1020q-4 270 -4 322z" />
<glyph unicode="}" horiz-adv-x="536" d="M51 -285q0 45 45 45q23 0 49.5 9t53.5 28t45 54.5t18 80.5q0 48 -12 150q-12 86 -12 139q0 114 75 166q-75 52 -75 166q0 53 12 139q12 102 12 150q0 45 -18 80.5t-45 54.5t-53.5 28t-49.5 9q-45 0 -45 45q0 37 51 37q25 0 54.5 -7.5t63.5 -26t61 -46.5t45 -73t18 -101 q0 -60 -12 -162q-13 -93 -13 -127q0 -60 34.5 -89.5t82.5 -29.5q24 0 35.5 -13.5t11.5 -33.5t-12 -33.5t-35 -13.5q-48 0 -82.5 -29.5t-34.5 -89.5q0 -34 13 -127q12 -90 12 -162q0 -56 -18 -101t-45 -73t-61 -46.5t-63.5 -26t-54.5 -7.5q-51 0 -51 37z" />
<glyph unicode="~" horiz-adv-x="856" d="M119 594q0 18 18 39q94 108 197 108q39 0 74.5 -9.5t53.5 -19t46 -26.5q51 -31 82 -31q30 0 51 21q33 29 51 29q37 0 37 -39q0 -19 -18 -37q-56 -56 -121 -56q-58 0 -123 43q-25 15 -36 21t-38.5 14t-58.5 8q-76 0 -131 -73q-26 -33 -43 -33q-12 0 -26.5 11t-14.5 30z " />
<glyph unicode="&#xa1;" horiz-adv-x="409" d="M129 1026q0 33 26 56.5t56 23.5t55 -23.5t25 -56.5q0 -32 -24.5 -57t-55.5 -25q-34 0 -58 23.5t-24 58.5zM160 -12q0 1 1 58t2.5 173.5t2.5 249.5q0 68 3 135t6 100l3 33q0 47 31 47q12 0 19.5 -3.5t10 -12.5t3 -13.5t0.5 -17.5q-4 -120 -6 -422q-1 -81 0.5 -163 t3.5 -124l2 -42q0 -19 -10 -31t-29 -12q-43 0 -43 45z" />
<glyph unicode="&#xa2;" horiz-adv-x="935" d="M78 563q0 113 30.5 203.5t83 148t118 90t139.5 37.5q0 31 0.5 60t1 45.5t0.5 17.5q0 45 43 45q38 0 38 -43q-4 -51 -6 -127q127 -16 224 -137v94q0 47 36 47q45 0 45 -43v-198q0 -20 -10.5 -32.5t-29.5 -12.5q-13 0 -27.5 10.5t-23.5 21.5t-23.5 31t-18.5 25 q-51 60 -102.5 88.5t-114.5 28.5t-119.5 -25.5t-102 -73.5t-72.5 -126t-27 -175q0 -77 20 -141.5t53 -107t75.5 -72.5t86.5 -43t88 -13q55 0 102.5 14t84 40.5t55.5 44t43 44.5q5 6 8 9q1 1 8.5 9t10.5 10.5t10 6t14 3.5q14 0 22.5 -9t8.5 -24q0 -38 -35 -76 q-16 -18 -37 -36.5t-58.5 -45.5t-90.5 -46t-111 -24l6 -112q0 -19 -10 -31t-29 -12q-43 0 -43 45v15q-1 15 -1.5 41t-0.5 54q-54 6 -104.5 25t-98 56.5t-82.5 88.5t-56 125t-21 162z" />
<glyph unicode="&#xa3;" horiz-adv-x="796" d="M68 47q0 33 57 33h80q1 23 1.5 67.5t1 114t1.5 121.5h-55q-86 0 -86 45q0 14 13.5 24.5t43.5 10.5q37 -2 84 -2q2 104 2 254q0 44 1 73.5t6.5 74t15.5 75t29.5 65t46.5 55t68.5 34.5t94.5 14q112 0 179 -83t67 -185q0 -41 -39 -41q-21 0 -32 12.5t-11 30.5q0 40 -15.5 80 t-54.5 72t-94 32q-37 0 -65.5 -11t-47 -27t-32 -43.5t-20 -51t-10.5 -59.5t-4.5 -59t-0.5 -58q0 -150 -2 -254h2l209 4q30 0 43.5 -10.5t13.5 -24.5q0 -45 -86 -45q-14 0 -73 -1t-107 -1h-2q-4 -262 -4 -303h139l223 4q30 0 44 -10.5t14 -24.5q0 -45 -86 -45q-25 0 -83 -2 t-132 -2q-88 0 -143.5 0.5t-78.5 1t-30 0.5q-86 0 -86 45z" />
<glyph unicode="&#xa5;" horiz-adv-x="962" d="M51 1053q0 37 58 37q77 -3 120 -3h80q30 0 44 -10t14 -24q0 -22 -17 -32.5t-59 -10.5q-15 0 -33 2l176 -406q39 -90 47 -90q10 0 49 90l175 406l-31 -2q-42 0 -59 10.5t-17 32.5q0 14 13.5 24t43.5 10h80l121 3q57 0 57 -37q0 -43 -86 -43h-34q-158 -374 -185 -432 q-41 -79 -49 -91l156 7q30 0 43.5 -10.5t13.5 -24.5q0 -45 -86 -45q-15 0 -72 -2t-100 -2q0 -61 2 -88l199 6q30 0 43.5 -10.5t13.5 -24.5q0 -45 -86 -45q-15 0 -71 -2t-97 -2l6 -164h33q86 0 86 -45q0 -35 -57 -35q-64 4 -101 4l-123 -4q-26 0 -41.5 10.5t-15.5 24.5 q0 45 86 45h49q-8 62 -8 164q-43 0 -98.5 2t-69.5 2q-86 0 -86 45q0 14 14 24.5t44 10.5q98 -6 196 -6v88q-43 0 -98.5 2t-69.5 2q-86 0 -86 45q0 14 14 24.5t44 10.5q82 -5 170 -7q-24 30 -50 91q-23 47 -186 432h-33q-86 0 -86 43z" />
<glyph unicode="&#xa6;" horiz-adv-x="407" d="M160 2.5q0 86.5 1 195.5t1 171q0 23 8 35t31 12q25 0 34 -14.5t9 -43.5v-516q0 -23 -12 -35t-31 -12q-18 0 -28.5 12t-10.5 33q-2 76 -2 162.5zM160 817.5q0 86.5 1 195.5t1 171q0 23 8 35t31 12q25 0 34 -14t9 -43v-517q0 -23 -12 -35t-31 -12q-18 0 -28.5 12t-10.5 33 q-2 76 -2 162.5z" />
<glyph unicode="&#xa7;" horiz-adv-x="913" d="M94 0q0 20 11 32.5t30 12.5q25 0 35.5 -20.5t21.5 -60.5t29 -66q56 -80 128 -123t151 -43q106 0 172.5 49.5t66.5 148.5q0 36 -9 65.5t-29 51t-41 37.5t-55 30.5t-60 23.5t-67.5 22.5t-67.5 23.5q-119 45 -152 62q-103 56 -128 157q-9 38 -9 84q0 92 49 160 q-49 65 -49 172q0 129 92.5 208t235.5 79q172 0 249 -154v107q0 47 37 47q45 0 45 -43v-244q0 -20 -11 -32.5t-30 -12.5q-25 0 -36 15.5t-22 47.5t-28 54q-52 68 -100 100.5t-104 32.5q-107 0 -176.5 -56.5t-69.5 -148.5q0 -40 13.5 -72.5t32 -54t53.5 -41t62.5 -30.5 t73.5 -27q20 -7 57 -19.5t57.5 -19.5t53 -19.5t51 -22.5t44.5 -25.5t41 -30.5t32 -36t26 -44t15 -52.5t6 -62.5q0 -102 -51 -168q51 -63 51 -164q0 -139 -89.5 -209.5t-231.5 -70.5q-213 0 -324 186v-129q0 -47 -37 -47q-45 0 -45 43v297zM203 487q0 -40 13.5 -72.5t32 -54 t53.5 -41t62.5 -30.5t73.5 -27q22 -8 71 -24.5t75.5 -26t62.5 -26t62 -33.5q30 48 30 110q0 36 -9 65.5t-29 51t-41 37.5t-55 30.5t-60 23.5t-67.5 22.5t-67.5 23.5q-10 4 -36.5 13.5t-40 14.5t-34.5 13.5t-37 17t-31 17.5q-28 -45 -28 -105z" />
<glyph unicode="&#xa8;" horiz-adv-x="677" d="M61 1057q0 35 24 58.5t58 23.5q31 0 55.5 -25t24.5 -57q0 -33 -25 -56.5t-55 -23.5t-56 23.5t-26 56.5zM455 1057q0 35 24 58.5t58 23.5q31 0 55 -25t24 -57q0 -33 -24.5 -56.5t-54.5 -23.5t-56 23.5t-26 56.5z" />
<glyph unicode="&#xa9;" horiz-adv-x="1204" d="M86 543q0 110 36.5 211.5t101.5 180t163.5 125t214.5 46.5t214.5 -46.5t163.5 -125t101.5 -180t36.5 -211.5q0 -134 -43.5 -242.5t-116.5 -177t-165 -105t-193 -36.5q-81 0 -155 21t-140 65.5t-114.5 109.5t-76.5 158.5t-28 206.5zM168 543q0 -125 35 -220t97 -150.5 t138 -82.5t166 -27q88 0 165 30t137.5 87.5t95 150.5t34.5 212q0 128 -54.5 237.5t-155 176.5t-224.5 67q-93 0 -174.5 -40t-138 -106.5t-89 -154t-32.5 -180.5zM360 539q0 66 16.5 119.5t42.5 86.5t59.5 55t64.5 31t61 9q87 0 135.5 -43.5t48.5 -102.5q0 -41 -38 -41 q-43 0 -43 43q0 21 -27 41.5t-76 20.5q-25 0 -51 -11t-52 -34t-42.5 -68.5t-16.5 -105.5q0 -59 16 -102.5t41 -65.5t50 -31.5t49 -9.5q57 0 90 20t33 41q0 43 43 43q39 0 39 -41q0 -58 -54.5 -101.5t-150.5 -43.5q-38 0 -76 13.5t-76 44t-62 91t-24 142.5z" />
<glyph unicode="&#xaa;" horiz-adv-x="860" d="M90 778q0 41 78 43q93 274 166 447h-27q-42 0 -56.5 8t-14.5 27q0 32 47 32h149q27 0 46.5 -8t35 -29.5t22.5 -36.5t23 -53q21 -51 72 -192t69 -195q70 -5 70 -43q0 -37 -57 -37q-39 2 -82 2h-80q-30 0 -43.5 10.5t-13.5 24.5q0 22 16.5 31.5t58.5 9.5h47l-41 111 q-27 -2 -137 -2q-54 0 -93.5 1t-53.5 1l-39 -111h39q42 0 59 -9.5t17 -31.5q0 -14 -14 -24.5t-44 -10.5h-80l-82 -2q-57 0 -57 37zM322 1012q3 0 8 -0.5t13 -0.5t33 -0.5t62 -0.5q86 0 109 -2l-86 217q-16 39 -29 39q-1 0 -2.5 -0.5l-3 -1t-2.5 -2t-2 -2.5t-2.5 -3t-2 -4 t-2.5 -5t-3 -5.5t-3 -6.5t-3 -7q-17 -35 -30 -68.5t-30.5 -82t-23.5 -64.5z" />
<glyph unicode="&#xab;" horiz-adv-x="694" d="M94 344q0 20 21 51l129 199q20 33 43 33q42 0 45 -39q0 -15 -21 -49l-129 -195l129 -194q21 -34 21 -50q-3 -39 -45 -39q-23 0 -43 33l-129 199q-21 31 -21 51zM330 344q0 21 20 51l129 199q20 33 43 33q42 0 45 -39q0 -17 -20 -49l-129 -195l129 -194q20 -32 20 -50 q-3 -39 -45 -39q-23 0 -43 33l-129 199q-20 30 -20 51z" />
<glyph unicode="&#xac;" horiz-adv-x="899" d="M125 563q0 14 13.5 24.5t43.5 10.5q129 -2 240 -2q50 0 152 3t153 3q27 0 36 -20t9 -58v-182q0 -80 -45 -80q-14 0 -24.5 15.5t-10.5 41.5v201h-8q-20 0 -107 -1t-155 -1h-211q-86 0 -86 45z" />
<glyph unicode="&#xad;" horiz-adv-x="784" d="M125 504q0 14 13.5 24.5t43.5 10.5q129 -9 240 -9l176 2q30 0 43.5 -10t13.5 -24q0 -45 -86 -45h-147q-56 0 -125.5 3t-85.5 3q-86 0 -86 45z" />
<glyph unicode="&#xae;" horiz-adv-x="724" d="M88 1010q0 118 80 200t194 82q116 0 196.5 -82t80.5 -200q0 -115 -81 -197t-196 -82q-114 0 -194 81.5t-80 197.5zM158 1010q0 -87 60.5 -151t143.5 -64q84 0 145.5 64.5t61.5 150.5q0 88 -61.5 153.5t-145.5 65.5q-83 0 -143.5 -65.5t-60.5 -153.5zM252 1120 q0 19 2.5 27.5t15 14t39.5 5.5q174 0 174 -98q0 -66 -53 -92l39 -59q14 -19 14 -33q0 -11 -12 -20t-25 -9q-18 0 -26 14q-5 9 -25 42.5t-28 48.5h-48l3 -72q0 -13 -9.5 -23t-23.5 -10t-23.5 10t-9.5 23q-4 221 -4 231zM319 1022h11q41 0 60.5 10.5t19.5 36.5q0 43 -76 43 h-15v-90z" />
<glyph unicode="&#xaf;" horiz-adv-x="915" d="M236 1020q0 14 13.5 24.5t43.5 10.5q80 -8 158 -8l176 2q30 0 43.5 -10.5t13.5 -24.5q0 -45 -86 -45h-147q-38 0 -78.5 3t-50.5 3q-86 0 -86 45z" />
<glyph unicode="&#xb0;" horiz-adv-x="643" d="M63 1161q0 108 79 179t180 71t179.5 -71t78.5 -179q0 -110 -76 -183t-182 -73q-107 0 -183 73t-76 183zM145 1161q0 -85 51 -134.5t126 -49.5q74 0 125 50.5t51 133.5q0 79 -51.5 126.5t-124.5 47.5q-76 0 -126.5 -45t-50.5 -129z" />
<glyph unicode="&#xb1;" horiz-adv-x="757" d="M113 242q0 14 13.5 24t43.5 10q129 -8 240 -8l176 2q30 0 43.5 -10t13.5 -24q0 -46 -86 -46h-147q-56 0 -125.5 3.5t-85.5 3.5q-86 0 -86 45zM113 635q0 14 13.5 24.5t43.5 10.5q78 -6 162 -8q2 53 2 180q0 23 8 35t31 12q25 0 34 -14.5t9 -43.5v-169l170 2 q30 0 43.5 -10.5t13.5 -24.5q0 -45 -86 -45h-141v-183q0 -23 -12 -35t-31 -12q-18 0 -28.5 12t-10.5 33q-2 72 -2 185q-25 1 -70.5 3.5t-62.5 2.5q-86 0 -86 45z" />
<glyph unicode="&#xb2;" horiz-adv-x="567" d="M109 594q1 52 27 98.5t62.5 78.5t72.5 60t61.5 55.5t25.5 51.5q0 73 -86 76q-34 0 -52.5 -20.5t-18.5 -41.5q0 -43 -43 -43q-39 0 -39 41q0 59 40 102.5t113 43.5q80 -1 124 -43.5t44 -112.5q0 -37 -22 -70.5t-55.5 -60.5t-67.5 -53.5t-63 -60.5t-37 -70l186 2v8 q0 47 37 47q39 0 39 -43v-51q0 -21 -18.5 -31t-67.5 -10q-35 0 -102 -1t-111 -1q-24 0 -36.5 14.5t-12.5 34.5z" />
<glyph unicode="&#xb3;" horiz-adv-x="530" d="M102 639q0 18 10.5 28.5t24.5 10.5q11 0 23.5 -13t35 -26.5t56.5 -13.5q43 0 66.5 22t23.5 60q0 39 -22 62.5t-66 23.5q-41 0 -41 32q0 37 53 37q30 0 53 19.5t23 58.5q0 38 -21 60t-59 22q-33 0 -49 -14.5t-16 -36.5q0 -43 -43 -43q-39 0 -39 41q0 55 41.5 95t115.5 40 q73 0 112.5 -43t39.5 -119q0 -3 -0.5 -8.5t-4.5 -21.5t-11 -30t-21.5 -31t-34.5 -28q32 -19 50 -48.5t20 -49.5l2 -20q0 -76 -45 -119t-127 -43q-69 0 -109.5 32t-40.5 64z" />
<glyph unicode="&#xb4;" horiz-adv-x="466" d="M61 1016q0 22 50 45q21 9 99.5 52t92.5 50q41 21 62 21q15 0 28 -15.5t13 -35.5q0 -30 -48 -50q-118 -55 -208 -90q-36 -14 -48 -14q-21 0 -31 12t-10 25z" />
<glyph unicode="&#xb6;" horiz-adv-x="1097" d="M68 672q0 78 16.5 141.5t43 106.5t64.5 76t76.5 51.5t83.5 30t81.5 15t74.5 3.5q2 0 149.5 -2t165.5 -2l164 4q57 0 57 -35q0 -45 -86 -45h-65q-6 -113 -4 -301q1 -135 5 -308t8 -279l3 -105q0 -41 -43 -41q-18 0 -28.5 11.5t-10.5 29.5q-12 102 -12 256q-1 171 -0.5 307 t1.5 279t1 149q-43 -2 -174 -2q0 -8 3 -181t3 -258l-6 -546q0 -18 -10.5 -31.5t-28.5 -13.5q-43 0 -43 45q0 110 2 235q-14 -2 -45 -2q-48 0 -89.5 4t-88 15.5t-84 30t-73 50t-59 74t-38 103t-14.5 135.5z" />
<glyph unicode="&#xb7;" horiz-adv-x="450" d="M119 625q0 47 31.5 77.5t76.5 30.5q41 0 74 -32.5t33 -75.5q0 -44 -33.5 -75.5t-73.5 -31.5t-74 31.5t-34 75.5z" />
<glyph unicode="&#xb8;" horiz-adv-x="468" d="M61 -319q0 16 10 27t21 11q13 0 46.5 -17t80.5 -17q49 0 78 23t29 59q0 18 -10 29.5t-29 15.5t-32 5t-34 1h-31q-31 0 -48.5 7.5t-22 23.5t-1.5 33.5t13 43.5q21 56 25 68q17 57 51 57q39 0 39 -28q0 -14 -25 -82q-8 -29 -4.5 -35t16.5 -6q29 0 45.5 -1t44.5 -8t44 -20 t28.5 -39.5t12.5 -64.5q0 -71 -51.5 -117.5t-137.5 -46.5q-26 0 -59 6t-66 25t-33 47z" />
<glyph unicode="&#xb9;" horiz-adv-x="473" d="M96 961q0 13 22.5 36t53.5 48.5t33 27.5q23 23 47 23q25 0 34 -14.5t9 -43.5l1 -97q0 -97 0.5 -199.5t0.5 -116.5h33q30 0 43.5 -10.5t13.5 -24.5q0 -22 -17 -32.5t-59 -10.5h-100q-86 0 -86 43q0 35 57 35h33q-2 70 -2 338q0 10 -4 10q-3 0 -39 -31q-23 -20 -41 -20 q-14 0 -23.5 11t-9.5 28z" />
<glyph unicode="&#xba;" horiz-adv-x="694" d="M88 1040q0 143 72.5 223t185.5 80t186.5 -80t73.5 -223t-73 -221t-187 -78q-108 0 -183 79t-75 220zM170 1040q0 -107 47.5 -162t128.5 -55t129.5 55t48.5 162t-48.5 164.5t-129.5 57.5q-80 0 -128 -57.5t-48 -164.5z" />
<glyph unicode="&#xbb;" horiz-adv-x="694" d="M127 100q0 18 20 50l129 194l-129 195q-20 32 -20 49q3 39 45 39q23 0 43 -33l129 -199q21 -32 21 -51q0 -20 -21 -51l-129 -199q-20 -33 -43 -33q-42 0 -45 39zM362 100q0 16 21 50l129 194l-129 195q-21 34 -21 49q3 39 46 39q23 0 43 -33l129 -199q20 -30 20 -51 t-20 -51l-129 -199q-20 -33 -43 -33q-43 0 -46 39z" />
<glyph unicode="&#xbc;" horiz-adv-x="917" d="M57 961q0 13 22.5 36t53.5 48.5t33 27.5q23 23 47 23q25 0 34 -14.5t9 -43.5v-97q1 -97 1.5 -199.5t0.5 -116.5h33q30 0 43.5 -10.5t13.5 -24.5q0 -22 -17 -32.5t-59 -10.5h-100q-86 0 -86 43q0 35 57 35h33q-2 70 -2 338q0 10 -4 10q-3 0 -39 -31q-22 -20 -41 -20 q-14 0 -23.5 11t-9.5 28zM219 -80q0 11 8 39l310 1157q12 45 45 45q21 0 32 -13t11 -26q0 -6 -3.5 -20t-3.5 -17l-311 -1157q-11 -47 -49 -47q-19 0 -29 12.5t-10 26.5zM477 209q0 21 17 41l204 262q22 31 47 31q43 0 43 -47v-258h17q57 0 57 -33q0 -37 -74 -39q0 -26 1 -50 t1 -37l1 -13h12q29 0 43 -11.5t14 -25.5q0 -22 -17 -31.5t-59 -9.5h-104q-62 0 -62 39q0 15 13 27t45 12h33q0 6 -1 41.5t-1 58.5q-53 -2 -164 -2q-66 0 -66 45zM573 236h134v178q-107 -147 -134 -178z" />
<glyph unicode="&#xbd;" horiz-adv-x="909" d="M55 961q0 13 22.5 36t53.5 48.5t33 27.5q23 23 47 23q25 0 34 -14.5t9 -43.5v-97q1 -97 1.5 -199.5t0.5 -116.5h33q30 0 43.5 -10.5t13.5 -24.5q0 -22 -17 -32.5t-59 -10.5h-100q-86 0 -86 43q0 35 57 35h33q-2 70 -2 338q0 10 -4 10q-3 0 -39 -31q-23 -20 -41 -20 q-14 0 -23.5 11t-9.5 28zM217 -80q0 11 8 39l310 1157q12 45 45 45q21 0 32 -13t11 -26q0 -6 -3.5 -20t-3.5 -17l-311 -1157q-11 -47 -49 -47q-19 0 -29 12.5t-10 26.5zM502 47q1 52 27 98.5t63 78.5t73 60t61.5 55.5t25.5 51.5q0 73 -86 76q-35 0 -53.5 -20t-18.5 -41 q0 -44 -43 -44q-39 0 -39 41q0 59 40.5 102.5t113.5 43.5q80 -1 124 -43.5t44 -112.5q0 -37 -22.5 -70.5t-55.5 -60.5t-67.5 -53.5t-63.5 -60.5t-37 -70l186 2v8q0 47 37 47q39 0 39 -43v-51q0 -21 -18.5 -31t-67.5 -10q-36 0 -102 -1t-111 -1q-24 0 -36.5 14.5t-12.5 34.5z " />
<glyph unicode="&#xbe;" horiz-adv-x="989" d="M59 639q0 18 10.5 28.5t24.5 10.5q11 0 23.5 -13t35 -26.5t56.5 -13.5q43 0 66.5 22t23.5 60q0 39 -22 62.5t-66 23.5q-41 0 -41 32q0 37 53 37q30 0 53 19.5t23 58.5q0 38 -21 60t-59 22q-33 0 -49 -14.5t-16 -36.5q0 -43 -43 -43q-39 0 -39 41q0 55 41.5 95t115.5 40 q73 0 112.5 -43t39.5 -119q0 -3 -0.5 -8.5t-4.5 -21.5t-11 -30t-21.5 -31t-34.5 -28q32 -19 50 -48.5t20 -49.5l2 -20q0 -76 -45 -119t-127 -43q-69 0 -109.5 32t-40.5 64zM291 -80q0 11 8 39l309 1157q12 45 45 45q21 0 32 -13t11 -26q0 -1 -6 -37l-311 -1157 q-11 -47 -49 -47q-19 0 -29 12.5t-10 26.5zM549 209q0 22 16 41l205 262q22 31 47 31q43 0 43 -47v-258h17q57 0 57 -33q0 -37 -74 -39q0 -26 0.5 -50t1.5 -37v-13h12q29 0 43.5 -11.5t14.5 -25.5q0 -22 -17 -31.5t-59 -9.5h-104q-62 0 -62 39q0 15 13 27t45 12h32 q0 6 -1 41.5t-1 58.5q-53 -2 -164 -2q-65 0 -65 45zM645 236h133v178q-5 -7 -37 -52t-54 -74t-42 -52z" />
<glyph unicode="&#xbf;" horiz-adv-x="675" d="M68 244q0 60 27.5 116.5t66.5 102.5t78 92.5t66.5 105.5t27.5 123q0 52 39 52q22 0 32.5 -15t10.5 -37q0 -71 -27.5 -135.5t-66.5 -112.5t-78 -93t-66.5 -96t-27.5 -103q0 -82 49 -131.5t139 -49.5q50 1 89 19.5t60.5 47t32 59t10.5 59.5q0 18 11 30.5t32 12.5 q39 0 39 -41q0 -46 -18.5 -93t-51.5 -86.5t-86.5 -64t-117.5 -24.5q-128 0 -199 68.5t-71 193.5zM293 1026q0 33 25 56.5t55 23.5t56 -23.5t26 -56.5q0 -35 -24 -58.5t-58 -23.5q-31 0 -55.5 25t-24.5 57z" />
<glyph unicode="&#xc0;" d="M8 43q0 14 14 24.5t44 10.5h55l14 43l283 891h-21q-42 0 -58.5 10.5t-16.5 32.5q0 14 13.5 24.5t43.5 10.5h129q33 0 48 -11t26 -49q94 -291 139 -434q17 -54 57 -177t73 -223t38 -118h57q30 0 44 -10.5t14 -24.5q0 -22 -17 -32.5t-59 -10.5q-35 2 -66 2q-12 0 -37 -1 t-55 -1q-86 0 -86 43q0 37 57 37q27 -2 58 -2q-38 101 -107 317q-51 -10 -200 -10q-57 0 -108 1t-73 1l-104 -309l63 2q58 0 58 -37q0 -43 -86 -43q-29 0 -50 1t-40 1l-68 -2q-42 0 -59 10.5t-17 32.5zM276 1346q0 20 13 35.5t28 15.5q21 0 62 -21q14 -7 92.5 -50t99.5 -52 q50 -23 50 -45q0 -13 -10 -25t-31 -12q-12 0 -48 14q-90 35 -208 90q-48 20 -48 50zM338 471q82 -4 154 -4q131 0 178 2l-140 469q-16 59 -24 59q-14 0 -33 -69q-31 -114 -135 -457z" />
<glyph unicode="&#xc1;" d="M8 43q0 14 14 24.5t44 10.5h55l14 43l283 891h-21q-42 0 -58.5 10.5t-16.5 32.5q0 14 13.5 24.5t43.5 10.5h129q33 0 48 -11t26 -49q94 -291 139 -434q17 -54 57 -177t73 -223t38 -118h57q30 0 44 -10.5t14 -24.5q0 -22 -17 -32.5t-59 -10.5q-35 2 -66 2q-12 0 -37 -1 t-55 -1q-86 0 -86 43q0 37 57 37q27 -2 58 -2q-38 101 -107 317q-51 -10 -200 -10q-57 0 -108 1t-73 1l-104 -309l63 2q58 0 58 -37q0 -43 -86 -43q-29 0 -50 1t-40 1l-68 -2q-42 0 -59 10.5t-17 32.5zM338 471q82 -4 154 -4q131 0 178 2l-140 469q-16 59 -24 59 q-14 0 -33 -69q-31 -114 -135 -457zM338 1229q0 23 49 45q21 9 100 52t93 50q41 21 61 21q15 0 28 -15.5t13 -35.5q0 -31 -47 -50q-113 -52 -209 -90q-36 -14 -47 -14q-21 0 -31 12t-10 25z" />
<glyph unicode="&#xc2;" d="M8 43q0 14 14 24.5t44 10.5h55l14 43l283 891h-21q-42 0 -58.5 10.5t-16.5 32.5q0 14 13.5 24.5t43.5 10.5h129q33 0 48 -11t26 -49q94 -291 139 -434q17 -54 57 -177t73 -223t38 -118h57q30 0 44 -10.5t14 -24.5q0 -22 -17 -32.5t-59 -10.5q-35 2 -66 2q-12 0 -37 -1 t-55 -1q-86 0 -86 43q0 37 57 37q27 -2 58 -2q-38 101 -107 317q-51 -10 -200 -10q-57 0 -108 1t-73 1l-104 -309l63 2q58 0 58 -37q0 -43 -86 -43q-29 0 -50 1t-40 1l-68 -2q-42 0 -59 10.5t-17 32.5zM297 1223q0 16 18 37q17 21 41 51t46 58t28 36q2 2 9.5 10.5t10.5 11.5 l10 10t12 9.5t12 6.5t14.5 5.5t15.5 1.5t15.5 -1.5t14.5 -5.5t12 -6.5t12 -9.5l10 -10t10.5 -11.5t9.5 -10.5q6 -8 28 -36t46 -58t41 -51q18 -21 18 -37q0 -21 -12.5 -31t-28.5 -10q-21 0 -45 30l-96 115q-5 5 -11 13t-9 10.5t-7 5t-8 2.5t-8 -2.5t-7 -5t-9 -10.5t-11 -13 q-82 -97 -96 -115q-24 -30 -45 -30q-16 0 -28.5 10t-12.5 31zM338 471q82 -4 154 -4q131 0 178 2l-140 469q-16 59 -24 59q-14 0 -33 -69q-31 -114 -135 -457z" />
<glyph unicode="&#xc3;" d="M8 43q0 14 14 24.5t44 10.5h55l14 43l283 891h-21q-42 0 -58.5 10.5t-16.5 32.5q0 14 13.5 24.5t43.5 10.5h129q33 0 48 -11t26 -49q94 -291 139 -434q17 -54 57 -177t73 -223t38 -118h57q30 0 44 -10.5t14 -24.5q0 -22 -17 -32.5t-59 -10.5q-35 2 -66 2q-12 0 -37 -1 t-55 -1q-86 0 -86 43q0 37 57 37q27 -2 58 -2q-38 101 -107 317q-51 -10 -200 -10q-57 0 -108 1t-73 1l-104 -309l63 2q58 0 58 -37q0 -43 -86 -43q-29 0 -50 1t-40 1l-68 -2q-42 0 -59 10.5t-17 32.5zM154 1210q0 18 18 39q94 109 197 109q39 0 74.5 -9.5t53.5 -19 t46 -26.5q51 -31 82 -31t51 20q33 29 51 29q37 0 37 -39q0 -18 -19 -37q-55 -55 -120 -55q-58 0 -123 43q-25 15 -36 21t-38.5 14t-58.5 8q-75 0 -131 -74q-26 -33 -43 -33q-12 0 -26.5 11t-14.5 30zM338 471q82 -4 154 -4q131 0 178 2l-140 469q-16 59 -24 59 q-14 0 -33 -69q-31 -114 -135 -457z" />
<glyph unicode="&#xc4;" d="M8 43q0 14 14 24.5t44 10.5h55l14 43l283 891h-21q-42 0 -58.5 10.5t-16.5 32.5q0 14 13.5 24.5t43.5 10.5h129q33 0 48 -11t26 -49q94 -291 139 -434q17 -54 57 -177t73 -223t38 -118h57q30 0 44 -10.5t14 -24.5q0 -22 -17 -32.5t-59 -10.5q-35 2 -66 2q-12 0 -37 -1 t-55 -1q-86 0 -86 43q0 37 57 37q27 -2 58 -2q-38 101 -107 317q-51 -10 -200 -10q-57 0 -108 1t-73 1l-104 -309l63 2q58 0 58 -37q0 -43 -86 -43q-29 0 -50 1t-40 1l-68 -2q-42 0 -59 10.5t-17 32.5zM238 1270q0 35 23.5 58.5t57.5 23.5q31 0 55.5 -25t24.5 -57 q0 -33 -25 -56.5t-55 -23.5t-55.5 23.5t-25.5 56.5zM338 471q82 -4 154 -4q131 0 178 2l-140 469q-16 59 -24 59q-14 0 -33 -69q-31 -114 -135 -457zM631 1270q0 35 24 58.5t58 23.5q31 0 55.5 -25t24.5 -57q0 -33 -25 -56.5t-55 -23.5t-56 23.5t-26 56.5z" />
<glyph unicode="&#xc5;" d="M8 43q0 14 14 24.5t44 10.5h55l14 43l283 891h-21q-42 0 -58.5 10.5t-16.5 32.5q0 14 13.5 24.5t43.5 10.5h129q33 0 48 -11t26 -49q94 -291 139 -434q17 -54 57 -177t73 -223t38 -118h57q30 0 44 -10.5t14 -24.5q0 -22 -17 -32.5t-59 -10.5q-35 2 -66 2q-12 0 -37 -1 t-55 -1q-86 0 -86 43q0 37 57 37q27 -2 58 -2q-38 101 -107 317q-51 -10 -200 -10q-57 0 -108 1t-73 1l-104 -309l63 2q58 0 58 -37q0 -43 -86 -43q-29 0 -50 1t-40 1l-68 -2q-42 0 -59 10.5t-17 32.5zM328 1366q0 83 58.5 131.5t123.5 48.5q41 0 83 -18.5t74.5 -59 t32.5 -92.5q0 -84 -50.5 -139t-133.5 -55q-88 0 -138 47.5t-50 136.5zM338 471q82 -4 154 -4q131 0 178 2l-140 469q-16 59 -24 59q-14 0 -33 -69q-31 -114 -135 -457zM410 1366q0 -50 28 -76t78 -26q46 0 74 32.5t28 79.5q0 39 -35.5 63.5t-72.5 24.5q-36 0 -68 -26.5 t-32 -71.5z" />
<glyph unicode="&#xc6;" horiz-adv-x="1316" d="M8 43q0 14 14 24.5t44 10.5h55l311 934h-20q-42 0 -59 10.5t-17 32.5q0 14 13.5 24.5t43.5 10.5h187q40 0 130 -2.5t146 -2.5q28 0 176 3l148 2q20 0 34.5 -10t14.5 -27v-172q0 -20 -11.5 -32.5t-29.5 -12.5q-41 0 -41 45q2 88 2 127h-444q0 -50 2.5 -210t3.5 -218 q17 0 57 2t70 2l188 -2q57 0 57 -35q0 -45 -86 -45q-19 0 -56.5 2t-102.5 2q-21 0 -60.5 -2t-64.5 -2q2 -39 2 -111q1 -55 0.5 -110t-1.5 -123.5t-1 -77.5h41q83 0 228.5 1t166.5 1l-2 127q0 45 41 45q18 0 29.5 -12.5t11.5 -32.5q0 -13 -1 -43t-1 -45q0 -16 1 -44t1 -42 q0 -16 -11.5 -25.5t-27.5 -9.5q-261 -2 -610 -2q-76 0 -76 45q0 14 13.5 24.5t43.5 10.5h70q0 2 1.5 127t0.5 180q-16 -1 -35.5 -1t-47 0.5t-44.5 0.5q-57 0 -115 1t-80 1l-104 -309l63 2q58 0 58 -37q0 -43 -86 -43q-29 0 -50 1t-40 1l-68 -2q-42 0 -59 10.5t-17 32.5z M338 471q82 -4 168 -4h125q-1 75 -4.5 277t-3.5 266h-113q-8 -30 -74 -231t-98 -308z" />
<glyph unicode="&#xc7;" horiz-adv-x="991" d="M84 522q0 142 37 255.5t100 184t141.5 107.5t165.5 37q96 0 169 -48.5t120 -113.5v115q0 47 37 47q45 0 45 -43v-250q0 -20 -11 -32.5t-30 -12.5q-21 0 -37 20t-32 54.5t-23 44.5q-92 137 -238 137q-72 0 -136.5 -32.5t-115 -94t-80.5 -158.5t-30 -217q0 -95 23 -174 t59.5 -130.5t85 -87.5t98 -51.5t98.5 -15.5q33 0 64 6.5t54.5 14.5t48.5 23.5t40 26.5t35.5 31.5t28.5 29t24.5 29t18.5 22.5q24 28 43 28q14 0 22.5 -8.5t8.5 -23.5q0 -35 -35 -76q-156 -184 -353 -184h-4q-1 -4 -3 -10t-5.5 -15t-5.5 -16q-8 -29 -4.5 -35t16.5 -6 q29 0 45.5 -1t44.5 -8t43.5 -20t28 -39.5t12.5 -64.5q0 -71 -51 -117.5t-137 -46.5q-26 0 -59 6t-66 25t-33 47q0 16 10 27t21 11q13 0 46.5 -17t80.5 -17q49 0 77.5 23t28.5 59q0 18 -9.5 29.5t-29 15.5t-32 5t-33.5 1h-31q-31 0 -48.5 7.5t-22 23.5t-1.5 33.5t13 43.5 q16 50 22 66q-70 14 -132 51t-114.5 99t-83 160t-30.5 220z" />
<glyph unicode="&#xc8;" horiz-adv-x="894" d="M80 43q0 14 13.5 24.5t43.5 10.5h70q0 3 1.5 130.5t0.5 182.5q-1 78 -5.5 312t-4.5 307h-62q-30 0 -43.5 10t-13.5 24q0 46 76 46q40 0 130 -2.5t146 -2.5q28 0 176 3l148 2q20 0 34.5 -10t14.5 -27v-172q0 -20 -11.5 -32.5t-29.5 -12.5q-41 0 -41 45q2 88 2 127h-444 q0 -50 2.5 -210t3.5 -218q17 0 57 2t70 2l188 -2q57 0 57 -35q0 -45 -86 -45q-19 0 -56.5 2t-102.5 2q-21 0 -60.5 -2t-64.5 -2q2 -39 2 -111q1 -55 0.5 -110t-1.5 -123.5t-1 -77.5h41q83 0 228.5 1t166.5 1l-2 127q0 45 41 45q18 0 29.5 -12.5t11.5 -32.5q0 -13 -1 -43 t-1 -45q0 -16 1 -44t1 -42q-1 -17 -12 -26t-27 -9q-261 -2 -610 -2q-76 0 -76 45zM264 1346q0 20 13 35.5t28 15.5q21 0 62 -21q14 -7 92.5 -50t99.5 -52q49 -22 49 -45q0 -13 -10 -25t-31 -12q-11 0 -47 14q-96 38 -209 90q-47 19 -47 50z" />
<glyph unicode="&#xc9;" horiz-adv-x="894" d="M80 43q0 14 13.5 24.5t43.5 10.5h70q0 3 1.5 130.5t0.5 182.5q-1 78 -5.5 312t-4.5 307h-62q-30 0 -43.5 10t-13.5 24q0 46 76 46q40 0 130 -2.5t146 -2.5q28 0 176 3l148 2q20 0 34.5 -10t14.5 -27v-172q0 -20 -11.5 -32.5t-29.5 -12.5q-41 0 -41 45q2 88 2 127h-444 q0 -50 2.5 -210t3.5 -218q17 0 57 2t70 2l188 -2q57 0 57 -35q0 -45 -86 -45q-19 0 -56.5 2t-102.5 2q-21 0 -60.5 -2t-64.5 -2q2 -39 2 -111q1 -55 0.5 -110t-1.5 -123.5t-1 -77.5h41q83 0 228.5 1t166.5 1l-2 127q0 45 41 45q18 0 29.5 -12.5t11.5 -32.5q0 -13 -1 -43 t-1 -45q0 -16 1 -44t1 -42q-1 -17 -12 -26t-27 -9q-261 -2 -610 -2q-76 0 -76 45zM264 1229q0 23 49 45q21 9 100 52t93 50q41 21 61 21q15 0 28 -15.5t13 -35.5q0 -31 -47 -50q-113 -52 -209 -90q-36 -14 -47 -14q-21 0 -31 12t-10 25z" />
<glyph unicode="&#xca;" horiz-adv-x="894" d="M80 43q0 14 13.5 24.5t43.5 10.5h70q0 3 1.5 130.5t0.5 182.5q-1 78 -5.5 312t-4.5 307h-62q-30 0 -43.5 10t-13.5 24q0 46 76 46q40 0 130 -2.5t146 -2.5q28 0 176 3l148 2q20 0 34.5 -10t14.5 -27v-172q0 -20 -11.5 -32.5t-29.5 -12.5q-41 0 -41 45q2 88 2 127h-444 q0 -50 2.5 -210t3.5 -218q17 0 57 2t70 2l188 -2q57 0 57 -35q0 -45 -86 -45q-19 0 -56.5 2t-102.5 2q-21 0 -60.5 -2t-64.5 -2q2 -39 2 -111q1 -55 0.5 -110t-1.5 -123.5t-1 -77.5h41q83 0 228.5 1t166.5 1l-2 127q0 45 41 45q18 0 29.5 -12.5t11.5 -32.5q0 -13 -1 -43 t-1 -45q0 -16 1 -44t1 -42q-1 -17 -12 -26t-27 -9q-261 -2 -610 -2q-76 0 -76 45zM250 1223q0 16 18 37q17 21 41 51t46 58t28 36q2 2 9.5 10.5t10.5 11.5l10 10t12 9.5t12 6.5t14.5 5.5t15.5 1.5t15.5 -1.5t14.5 -5.5t12 -6.5t12 -9.5l10 -10t10.5 -11.5t9.5 -10.5 q6 -8 28 -36t46 -58t41 -51q18 -21 18 -37q0 -21 -12.5 -31t-28.5 -10q-21 0 -45 30l-96 115q-5 5 -11 13t-9 10.5t-7 5t-8 2.5t-8 -2.5t-7 -5t-9 -10.5t-11 -13q-82 -97 -96 -115q-24 -30 -45 -30q-16 0 -28.5 10t-12.5 31z" />
<glyph unicode="&#xcb;" horiz-adv-x="894" d="M80 43q0 14 13.5 24.5t43.5 10.5h70q0 3 1.5 130.5t0.5 182.5q-1 78 -5.5 312t-4.5 307h-62q-30 0 -43.5 10t-13.5 24q0 46 76 46q40 0 130 -2.5t146 -2.5q28 0 176 3l148 2q20 0 34.5 -10t14.5 -27v-172q0 -20 -11.5 -32.5t-29.5 -12.5q-41 0 -41 45q2 88 2 127h-444 q0 -50 2.5 -210t3.5 -218q17 0 57 2t70 2l188 -2q57 0 57 -35q0 -45 -86 -45q-19 0 -56.5 2t-102.5 2q-21 0 -60.5 -2t-64.5 -2q2 -39 2 -111q1 -55 0.5 -110t-1.5 -123.5t-1 -77.5h41q83 0 228.5 1t166.5 1l-2 127q0 45 41 45q18 0 29.5 -12.5t11.5 -32.5q0 -13 -1 -43 t-1 -45q0 -16 1 -44t1 -42q-1 -17 -12 -26t-27 -9q-261 -2 -610 -2q-76 0 -76 45zM158 1270q0 35 24 58.5t58 23.5q31 0 55 -25t24 -57q0 -33 -24.5 -56.5t-54.5 -23.5t-56 23.5t-26 56.5zM551 1270q0 35 24 58.5t58 23.5q31 0 55.5 -25t24.5 -57q0 -33 -25 -56.5t-55 -23.5 t-56 23.5t-26 56.5z" />
<glyph unicode="&#xcc;" horiz-adv-x="493" d="M70 1346q0 20 13 35.5t28 15.5q20 0 61 -21q14 -7 93 -50t100 -52q49 -22 49 -45q0 -13 -10 -25t-31 -12q-11 0 -47 14q-96 38 -209 90q-47 19 -47 50zM78 33q0 45 86 45h49q-8 78 -8 219q-4 489 2 713h-43q-86 0 -86 45q0 14 15.5 24.5t41.5 10.5q98 -5 123 -5l100 5 q58 0 58 -35q0 -45 -86 -45h-43q-6 -148 -4 -283q0 -8 14 -649h33q86 0 86 -45q0 -35 -58 -35q-63 4 -100 4l-123 -4q-26 0 -41.5 10.5t-15.5 24.5z" />
<glyph unicode="&#xcd;" horiz-adv-x="491" d="M78 33q0 45 86 45h49q-8 78 -8 219q-4 489 2 713h-43q-86 0 -86 45q0 14 15.5 24.5t41.5 10.5q98 -5 123 -5l100 5q58 0 58 -35q0 -45 -86 -45h-43q-6 -148 -4 -283q0 -8 14 -649h33q86 0 86 -45q0 -35 -58 -35q-63 4 -100 4l-123 -4q-26 0 -41.5 10.5t-15.5 24.5z M133 1229q0 23 49 45q21 9 100 52t93 50q41 21 61 21q15 0 28 -15.5t13 -35.5q0 -31 -47 -50q-113 -52 -209 -90q-36 -14 -47 -14q-21 0 -31 12t-10 25z" />
<glyph unicode="&#xce;" horiz-adv-x="491" d="M37 1223q0 16 18 37q17 21 41 51t46 58t28 36q2 2 9.5 10.5t10.5 11.5l10 10t12 9.5t12 6.5t14.5 5.5t15.5 1.5t15.5 -1.5t14.5 -5.5t12 -6.5t12 -9.5l10 -10t10.5 -11.5t9.5 -10.5q6 -8 28 -36t46 -58t41 -51q18 -21 18 -37q0 -21 -12.5 -31t-28.5 -10q-21 0 -45 30 l-96 115q-5 5 -11 13t-9 10.5t-7 5t-8 2.5t-8 -2.5t-7 -5t-9 -10.5t-11 -13q-82 -97 -96 -115q-24 -30 -45 -30q-16 0 -28.5 10t-12.5 31zM78 33q0 45 86 45h49q-8 78 -8 219q-4 489 2 713h-43q-86 0 -86 45q0 14 15.5 24.5t41.5 10.5q98 -5 123 -5l100 5q58 0 58 -35 q0 -45 -86 -45h-43q-6 -148 -4 -283q0 -8 14 -649h33q86 0 86 -45q0 -35 -58 -35q-63 4 -100 4l-123 -4q-26 0 -41.5 10.5t-15.5 24.5z" />
<glyph unicode="&#xcf;" horiz-adv-x="491" d="M-18 1270q0 35 23.5 58.5t57.5 23.5q31 0 55.5 -25t24.5 -57q0 -33 -25 -56.5t-55 -23.5t-55.5 23.5t-25.5 56.5zM78 33q0 45 86 45h49q-8 78 -8 219q-4 489 2 713h-43q-86 0 -86 45q0 14 15.5 24.5t41.5 10.5q98 -5 123 -5l100 5q58 0 58 -35q0 -45 -86 -45h-43 q-6 -148 -4 -283q0 -8 14 -649h33q86 0 86 -45q0 -35 -58 -35q-63 4 -100 4l-123 -4q-26 0 -41.5 10.5t-15.5 24.5zM375 1270q0 35 24 58.5t58 23.5q31 0 55.5 -25t24.5 -57q0 -33 -25 -56.5t-55 -23.5t-56 23.5t-26 56.5z" />
<glyph unicode="&#xd0;" d="M55 535q0 34 58 34q31 -4 94 -4q-4 294 -4 445h-76q-30 0 -43.5 10t-13.5 24q0 46 75 46q7 0 93.5 -1.5t185.5 -1.5q127 0 223 -40.5t155 -114t88.5 -171.5t29.5 -218q0 -136 -41 -242t-114.5 -171t-169 -98.5t-208.5 -33.5h-242q-41 0 -58 11t-17 34q0 14 13.5 24.5 t43.5 10.5h86q0 127 -4 409q-19 0 -38.5 1t-29.5 1q-86 0 -86 46zM283 768q0 -137 2 -203l192 4q58 0 58 -34q0 -46 -86 -46q-27 0 -69.5 -1t-92.5 -1q1 -35 4.5 -177.5t3.5 -229.5h92q224 0 337.5 117t113.5 340q0 471 -414 471h-141v-240z" />
<glyph unicode="&#xd1;" horiz-adv-x="1091" d="M82 43q0 37 57 37q35 -2 72 -2l-10 758q-2 88 2 174h-35q-86 0 -86 43q0 37 57 37q78 -3 121 -3q24 0 40.5 -10.5t22 -20t19.5 -36.5l479 -895l-8 711q0 135 2 174h-35q-86 0 -86 43q0 37 58 37q77 -3 120 -3h101q30 0 43.5 -10t13.5 -24q0 -22 -17 -32.5t-59 -10.5 q-30 0 -57 2q-5 -131 -4 -174q2 -132 5 -323t5 -318t2 -148q0 -55 -61 -55q-8 0 -15.5 2t-13.5 4t-13 7.5t-11 8.5t-10.5 11.5t-9 12.5t-9 15t-8.5 14.5t-8.5 16.5t-8.5 16l-454 854q-4 -74 -2 -118q4 -118 6 -269t4 -308.5t2 -182.5h67q30 0 44 -10.5t14 -24.5 q0 -22 -17 -32.5t-59 -10.5q-51 2 -82 2q-12 0 -37 -1t-55 -1q-86 0 -86 43zM264 1210q0 17 19 39q26 30 47.5 50t63 39.5t85.5 19.5q39 0 74.5 -9.5t53.5 -19t46 -26.5q51 -31 82 -31t51 20q33 29 52 29q36 0 36 -39q0 -19 -18 -37q-55 -55 -121 -55q-58 0 -123 43 q-25 15 -36 21t-38.5 14t-58.5 8q-75 0 -131 -74q-26 -33 -43 -33q-12 0 -26.5 11t-14.5 30z" />
<glyph unicode="&#xd2;" horiz-adv-x="1081" d="M82 543q0 147 56.5 275t163 208t239.5 80t239 -80t162.5 -208t56.5 -275q0 -112 -27 -206.5t-72.5 -158.5t-105.5 -109.5t-124 -66t-129 -20.5t-129.5 20.5t-124 66t-105 109.5t-73 158.5t-27.5 206.5zM164 543q0 -100 23 -182.5t60 -136.5t87 -91t101.5 -53.5 t105.5 -16.5t105.5 16.5t101.5 53.5t87 91t60 136.5t23 182.5q0 124 -50.5 234.5t-138 178.5t-188.5 68t-188.5 -68t-138 -178.5t-50.5 -234.5zM383 1346q0 20 13 35.5t28 15.5q20 0 61 -21q14 -7 93 -50t100 -52q49 -22 49 -45q0 -13 -10 -25t-31 -12q-11 0 -47 14 q-96 38 -209 90q-47 19 -47 50z" />
<glyph unicode="&#xd3;" horiz-adv-x="1081" d="M82 543q0 147 56.5 275t163 208t239.5 80t239 -80t162.5 -208t56.5 -275q0 -112 -27 -206.5t-72.5 -158.5t-105.5 -109.5t-124 -66t-129 -20.5t-129.5 20.5t-124 66t-105 109.5t-73 158.5t-27.5 206.5zM164 543q0 -100 23 -182.5t60 -136.5t87 -91t101.5 -53.5 t105.5 -16.5t105.5 16.5t101.5 53.5t87 91t60 136.5t23 182.5q0 124 -50.5 234.5t-138 178.5t-188.5 68t-188.5 -68t-138 -178.5t-50.5 -234.5zM383 1229q0 23 49 45q21 9 100 52t93 50q41 21 61 21q15 0 28 -15.5t13 -35.5q0 -31 -47 -50q-113 -52 -209 -90 q-36 -14 -47 -14q-21 0 -31 12t-10 25z" />
<glyph unicode="&#xd4;" horiz-adv-x="1081" d="M82 543q0 147 56.5 275t163 208t239.5 80t239 -80t162.5 -208t56.5 -275q0 -112 -27 -206.5t-72.5 -158.5t-105.5 -109.5t-124 -66t-129 -20.5t-129.5 20.5t-124 66t-105 109.5t-73 158.5t-27.5 206.5zM164 543q0 -100 23 -182.5t60 -136.5t87 -91t101.5 -53.5 t105.5 -16.5t105.5 16.5t101.5 53.5t87 91t60 136.5t23 182.5q0 124 -50.5 234.5t-138 178.5t-188.5 68t-188.5 -68t-138 -178.5t-50.5 -234.5zM338 1223q0 16 18 37q17 21 41 51t46 58t28 36q2 2 9.5 10.5t10.5 11.5l10 10t12 9.5t12 6.5t14.5 5.5t15.5 1.5t15.5 -1.5 t14.5 -5.5t12 -6.5t12 -9.5l10 -10t10.5 -11.5t9.5 -10.5q6 -8 28 -36t46 -58t41 -51q18 -21 18 -37q0 -21 -12.5 -31t-28.5 -10q-21 0 -45 30l-96 115q-5 5 -11 13t-9 10.5t-7 5t-8 2.5t-8 -2.5t-7 -5t-9 -10.5t-11 -13q-82 -97 -96 -115q-24 -30 -45 -30q-16 0 -28.5 10 t-12.5 31z" />
<glyph unicode="&#xd5;" horiz-adv-x="1081" d="M82 543q0 147 56.5 275t163 208t239.5 80t239 -80t162.5 -208t56.5 -275q0 -112 -27 -206.5t-72.5 -158.5t-105.5 -109.5t-124 -66t-129 -20.5t-129.5 20.5t-124 66t-105 109.5t-73 158.5t-27.5 206.5zM164 543q0 -100 23 -182.5t60 -136.5t87 -91t101.5 -53.5 t105.5 -16.5t105.5 16.5t101.5 53.5t87 91t60 136.5t23 182.5q0 124 -50.5 234.5t-138 178.5t-188.5 68t-188.5 -68t-138 -178.5t-50.5 -234.5zM250 1210q0 18 18 39q94 109 197 109q39 0 74.5 -9.5t53.5 -19t46 -26.5q51 -31 82 -31t51 20q33 29 51 29q37 0 37 -39 q0 -19 -18 -37q-55 -55 -121 -55q-58 0 -123 43q-25 15 -36 21t-38.5 14t-58.5 8q-75 0 -131 -74q-26 -33 -43 -33q-12 0 -26.5 11t-14.5 30z" />
<glyph unicode="&#xd6;" horiz-adv-x="1081" d="M82 543q0 147 56.5 275t163 208t239.5 80t239 -80t162.5 -208t56.5 -275q0 -112 -27 -206.5t-72.5 -158.5t-105.5 -109.5t-124 -66t-129 -20.5t-129.5 20.5t-124 66t-105 109.5t-73 158.5t-27.5 206.5zM164 543q0 -100 23 -182.5t60 -136.5t87 -91t101.5 -53.5 t105.5 -16.5t105.5 16.5t101.5 53.5t87 91t60 136.5t23 182.5q0 124 -50.5 234.5t-138 178.5t-188.5 68t-188.5 -68t-138 -178.5t-50.5 -234.5zM254 1270q0 35 24 58.5t58 23.5q31 0 55.5 -25t24.5 -57q0 -33 -25 -56.5t-55 -23.5t-56 23.5t-26 56.5zM647 1270q0 35 24 58.5 t58 23.5q31 0 55.5 -25t24.5 -57q0 -33 -25 -56.5t-55 -23.5t-56 23.5t-26 56.5z" />
<glyph unicode="&#xd7;" horiz-adv-x="690" d="M125 418q0 4 0.5 7t3.5 6.5t5 5.5l8.5 8.5l11.5 11.5l135 137l-119 121q-40 41 -43 63q-1 17 7.5 28t23.5 13q23 0 55 -35l131 -133l133 133q3 3 9.5 9t9 8l7.5 6t7 5.5t6.5 3.5t8 2.5t7.5 0.5q15 -2 23.5 -13t7.5 -28q-3 -22 -43 -63q-18 -17 -38 -37t-44.5 -45 t-38.5 -39q115 -115 138 -137l10 -10l7.5 -7.5t4.5 -5t4 -5.5t1.5 -4.5t0.5 -6.5q0 -15 -10.5 -27.5t-30.5 -13.5q-20 -5 -43 18l-137 140l-135 -140q-10 -10 -21 -14.5t-16 -4.5l-6 1q-20 1 -30.5 13.5t-10.5 27.5z" />
<glyph unicode="&#xd8;" horiz-adv-x="1087" d="M88 543q0 147 56.5 275t163 208t239.5 80q146 0 266 -102l29 38q22 31 43 31q23 0 34 -14.5t11 -28.5q0 -17 -23 -45l-33 -45q63 -78 97.5 -181.5t34.5 -215.5t-27.5 -206.5t-73 -158.5t-105 -109.5t-124 -66t-129.5 -20.5q-174 0 -299 122l-58 -75q-22 -31 -43 -31 q-22 0 -32.5 12.5t-10.5 26.5q0 22 23 49l63 86q-102 150 -102 371zM170 543q0 -179 72 -303l518 694q-100 90 -213 90q-101 0 -188.5 -68t-138 -178.5t-50.5 -234.5zM297 170q101 -107 250 -107q54 0 105.5 16.5t101.5 53.5t87 91t60 136.5t23 182.5q0 185 -105 325z" />
<glyph unicode="&#xd9;" horiz-adv-x="1052" d="M57 1055q0 14 15.5 24.5t42.5 10.5q98 -5 123 -5l100 5q57 0 57 -35q0 -45 -86 -45h-45v-242q0 -86 -2 -219.5t-2 -157.5q0 -75 13 -132t42 -102.5t82.5 -69.5t128.5 -24t128.5 24t83 69.5t42.5 102.5t13 132q0 24 -2.5 157.5t-2.5 219.5v242h-45q-86 0 -86 45 q0 35 58 35q63 -5 100 -5l123 5q26 0 41.5 -10.5t15.5 -24.5q0 -45 -86 -45h-39v-256q0 -82 2 -210.5t2 -152.5q0 -65 -10 -121.5t-34.5 -110.5t-63 -92.5t-100 -61.5t-140.5 -23t-140.5 23t-100 61.5t-63 92.5t-34.5 110.5t-10 121.5q0 24 2 152.5t2 210.5v256h-39 q-86 0 -86 45zM342 1346q0 20 13 35.5t28 15.5q20 0 61 -21q14 -7 93 -50t100 -52q49 -22 49 -45q0 -13 -10 -25t-31 -12q-11 0 -47 14q-96 38 -209 90q-47 19 -47 50z" />
<glyph unicode="&#xda;" horiz-adv-x="1052" d="M57 1055q0 14 15.5 24.5t42.5 10.5q98 -5 123 -5l100 5q57 0 57 -35q0 -45 -86 -45h-45v-242q0 -86 -2 -219.5t-2 -157.5q0 -75 13 -132t42 -102.5t82.5 -69.5t128.5 -24t128.5 24t83 69.5t42.5 102.5t13 132q0 24 -2.5 157.5t-2.5 219.5v242h-45q-86 0 -86 45 q0 35 58 35q63 -5 100 -5l123 5q26 0 41.5 -10.5t15.5 -24.5q0 -45 -86 -45h-39v-256q0 -82 2 -210.5t2 -152.5q0 -65 -10 -121.5t-34.5 -110.5t-63 -92.5t-100 -61.5t-140.5 -23t-140.5 23t-100 61.5t-63 92.5t-34.5 110.5t-10 121.5q0 24 2 152.5t2 210.5v256h-39 q-86 0 -86 45zM342 1229q0 23 49 45q21 9 100 52t93 50q41 21 61 21q15 0 28 -15.5t13 -35.5q0 -31 -47 -50q-113 -52 -209 -90q-36 -14 -47 -14q-21 0 -31 12t-10 25z" />
<glyph unicode="&#xdb;" horiz-adv-x="1052" d="M57 1055q0 14 15.5 24.5t42.5 10.5q98 -5 123 -5l100 5q57 0 57 -35q0 -45 -86 -45h-45v-242q0 -86 -2 -219.5t-2 -157.5q0 -75 13 -132t42 -102.5t82.5 -69.5t128.5 -24t128.5 24t83 69.5t42.5 102.5t13 132q0 24 -2.5 157.5t-2.5 219.5v242h-45q-86 0 -86 45 q0 35 58 35q63 -5 100 -5l123 5q26 0 41.5 -10.5t15.5 -24.5q0 -45 -86 -45h-39v-256q0 -82 2 -210.5t2 -152.5q0 -65 -10 -121.5t-34.5 -110.5t-63 -92.5t-100 -61.5t-140.5 -23t-140.5 23t-100 61.5t-63 92.5t-34.5 110.5t-10 121.5q0 24 2 152.5t2 210.5v256h-39 q-86 0 -86 45zM297 1223q0 16 18 37q17 21 41 51t46 58t28 36q2 2 9.5 10.5t10.5 11.5l10 10t12 9.5t12 6.5t14.5 5.5t15.5 1.5t15.5 -1.5t14.5 -5.5t12 -6.5t12 -9.5l10 -10t10.5 -11.5t9.5 -10.5q6 -8 28 -36t46 -58t41 -51q18 -21 18 -37q0 -21 -12.5 -31t-28.5 -10 q-21 0 -45 30l-96 115q-5 5 -11 13t-9 10.5t-7 5t-8 2.5t-8 -2.5t-7 -5t-9 -10.5t-11 -13q-82 -97 -96 -115q-24 -30 -45 -30q-16 0 -28.5 10t-12.5 31z" />
<glyph unicode="&#xdc;" horiz-adv-x="1052" d="M57 1055q0 14 15.5 24.5t42.5 10.5q98 -5 123 -5l100 5q57 0 57 -35q0 -45 -86 -45h-45v-242q0 -86 -2 -219.5t-2 -157.5q0 -75 13 -132t42 -102.5t82.5 -69.5t128.5 -24t128.5 24t83 69.5t42.5 102.5t13 132q0 24 -2.5 157.5t-2.5 219.5v242h-45q-86 0 -86 45 q0 35 58 35q63 -5 100 -5l123 5q26 0 41.5 -10.5t15.5 -24.5q0 -45 -86 -45h-39v-256q0 -82 2 -210.5t2 -152.5q0 -65 -10 -121.5t-34.5 -110.5t-63 -92.5t-100 -61.5t-140.5 -23t-140.5 23t-100 61.5t-63 92.5t-34.5 110.5t-10 121.5q0 24 2 152.5t2 210.5v256h-39 q-86 0 -86 45zM258 1270q0 35 24 58.5t58 23.5q31 0 55.5 -25t24.5 -57q0 -33 -25 -56.5t-55 -23.5t-56 23.5t-26 56.5zM651 1270q0 35 24 58.5t58 23.5q31 0 55.5 -25t24.5 -57q0 -33 -25 -56.5t-55 -23.5t-56 23.5t-26 56.5z" />
<glyph unicode="&#xdd;" horiz-adv-x="901" d="M23 1053q0 37 57 37q78 -3 121 -3h80q30 0 43.5 -10t13.5 -24q0 -22 -17 -32.5t-59 -10.5q-15 0 -33 2l177 -406q39 -90 47 -90q10 0 49 90l174 406l-31 -2q-42 0 -59 10.5t-17 32.5q0 14 14 24t44 10h80l120 3q58 0 58 -37q0 -43 -86 -43h-35q-172 -405 -184 -432 q-19 -39 -31 -60t-29.5 -40.5t-34.5 -24.5q1 -75 11 -373h32q86 0 86 -45q0 -35 -57 -35q-63 4 -100 4l-123 -4q-27 0 -42.5 10.5t-15.5 24.5q0 45 86 45h50q-9 88 -9 217v164q-14 9 -27.5 29t-22.5 37t-25 51q-31 63 -187 432h-32q-86 0 -86 43zM250 1229q0 23 49 45 q21 9 100 52t93 50q41 21 61 21q15 0 28 -15.5t13 -35.5q0 -31 -47 -50q-113 -52 -209 -90q-36 -14 -47 -14q-21 0 -31 12t-10 25z" />
<glyph unicode="&#xde;" horiz-adv-x="876" d="M80 41q0 14 13.5 24.5t43.5 10.5h72q-8 844 -8 944h-64q-30 0 -43.5 10.5t-13.5 24.5q0 22 17 32.5t59 10.5q26 -2 67 -2q30 0 66.5 1t85.5 1q86 0 86 -43q0 -37 -58 -37q-61 0 -120 2q0 -63 2 -143h116q416 0 416 -326q0 -66 -12 -118t-31 -87t-49.5 -60.5t-60.5 -40 t-71 -22.5t-74 -10t-77 -2h-153q0 -33 1 -77.5t1 -57.5l112 2q58 0 58 -37q0 -43 -86 -43q-49 0 -85.5 1t-66.5 1l-67 -2q-42 0 -59 10.5t-17 32.5zM285 795q0 -75 2 -248.5t2 -253.5h153q50 0 84.5 3.5t77.5 18t69 41t44 76t18 119.5q0 244 -342 244h-108z" />
<glyph unicode="&#xdf;" horiz-adv-x="925" d="M76 43q0 37 57 37q20 -2 45 -2q0 67 -2 335t-2 337q0 154 76.5 248t234.5 94q146 0 222.5 -75.5t76.5 -199.5q0 -149 -145 -252q-24 -17 -37 -28t-25 -26.5t-12 -29.5q0 -27 92 -112q46 -40 72.5 -66.5t62.5 -71.5t53 -95t17 -107q0 -47 -43 -47q-18 0 -28.5 14t-10.5 33 q0 33 -11.5 65.5t-23.5 55t-40.5 54.5t-41.5 44.5t-48 44.5q-3 3 -5 4.5t-5 4.5l-5 5q-57 49 -87 90t-30 84q0 21 7 40.5t13.5 31.5t26 29.5t27 23t33.5 25.5q46 33 79 81.5t33 104.5q0 87 -58.5 140t-158.5 53q-117 0 -173 -71t-56 -189q0 -69 2 -338t2 -334h94 q30 0 44 -10.5t14 -24.5q0 -22 -17 -32.5t-59 -10.5q-51 2 -82 2q-12 0 -37 -1t-55 -1q-86 0 -86 43z" />
<glyph unicode="&#xe0;" d="M8 43q0 14 14 24.5t44 10.5h55l14 43l283 891h-21q-42 0 -58.5 10.5t-16.5 32.5q0 14 13.5 24.5t43.5 10.5h129q33 0 48 -11t26 -49q94 -291 139 -434q17 -54 57 -177t73 -223t38 -118h57q30 0 44 -10.5t14 -24.5q0 -22 -17 -32.5t-59 -10.5q-35 2 -66 2q-12 0 -37 -1 t-55 -1q-86 0 -86 43q0 37 57 37q27 -2 58 -2q-38 101 -107 317q-51 -10 -200 -10q-57 0 -108 1t-73 1l-104 -309l63 2q58 0 58 -37q0 -43 -86 -43q-29 0 -50 1t-40 1l-68 -2q-42 0 -59 10.5t-17 32.5zM276 1346q0 20 13 35.5t28 15.5q21 0 62 -21q14 -7 92.5 -50t99.5 -52 q50 -23 50 -45q0 -13 -10 -25t-31 -12q-12 0 -48 14q-90 35 -208 90q-48 20 -48 50zM338 471q82 -4 154 -4q131 0 178 2l-140 469q-16 59 -24 59q-14 0 -33 -69q-31 -114 -135 -457z" />
<glyph unicode="&#xe1;" d="M8 43q0 14 14 24.5t44 10.5h55l14 43l283 891h-21q-42 0 -58.5 10.5t-16.5 32.5q0 14 13.5 24.5t43.5 10.5h129q33 0 48 -11t26 -49q94 -291 139 -434q17 -54 57 -177t73 -223t38 -118h57q30 0 44 -10.5t14 -24.5q0 -22 -17 -32.5t-59 -10.5q-35 2 -66 2q-12 0 -37 -1 t-55 -1q-86 0 -86 43q0 37 57 37q27 -2 58 -2q-38 101 -107 317q-51 -10 -200 -10q-57 0 -108 1t-73 1l-104 -309l63 2q58 0 58 -37q0 -43 -86 -43q-29 0 -50 1t-40 1l-68 -2q-42 0 -59 10.5t-17 32.5zM338 471q82 -4 154 -4q131 0 178 2l-140 469q-16 59 -24 59 q-14 0 -33 -69q-31 -114 -135 -457zM338 1229q0 23 49 45q21 9 100 52t93 50q41 21 61 21q15 0 28 -15.5t13 -35.5q0 -31 -47 -50q-113 -52 -209 -90q-36 -14 -47 -14q-21 0 -31 12t-10 25z" />
<glyph unicode="&#xe2;" d="M8 43q0 14 14 24.5t44 10.5h55l14 43l283 891h-21q-42 0 -58.5 10.5t-16.5 32.5q0 14 13.5 24.5t43.5 10.5h129q33 0 48 -11t26 -49q94 -291 139 -434q17 -54 57 -177t73 -223t38 -118h57q30 0 44 -10.5t14 -24.5q0 -22 -17 -32.5t-59 -10.5q-35 2 -66 2q-12 0 -37 -1 t-55 -1q-86 0 -86 43q0 37 57 37q27 -2 58 -2q-38 101 -107 317q-51 -10 -200 -10q-57 0 -108 1t-73 1l-104 -309l63 2q58 0 58 -37q0 -43 -86 -43q-29 0 -50 1t-40 1l-68 -2q-42 0 -59 10.5t-17 32.5zM248 1223q0 16 18 37q17 21 41 51t46 58t28 36q2 2 9.5 10.5t10.5 11.5 l10 10t12 9.5t12 6.5t14.5 5.5t15.5 1.5t15.5 -1.5t14.5 -5.5t12 -6.5t12 -9.5l10 -10t10.5 -11.5t9.5 -10.5q6 -8 28 -36t46 -58t41 -51q18 -21 18 -37q0 -21 -12.5 -31t-28.5 -10q-21 0 -45 30l-96 115q-5 5 -11 13t-9 10.5t-7 5t-8 2.5t-8 -2.5t-7 -5t-9 -10.5t-11 -13 q-82 -97 -96 -115q-24 -30 -45 -30q-16 0 -28.5 10t-12.5 31zM338 471q82 -4 154 -4q131 0 178 2l-140 469q-16 59 -24 59q-14 0 -33 -69q-31 -114 -135 -457z" />
<glyph unicode="&#xe3;" d="M8 43q0 14 14 24.5t44 10.5h55l14 43l283 891h-21q-42 0 -58.5 10.5t-16.5 32.5q0 14 13.5 24.5t43.5 10.5h129q33 0 48 -11t26 -49q94 -291 139 -434q17 -54 57 -177t73 -223t38 -118h57q30 0 44 -10.5t14 -24.5q0 -22 -17 -32.5t-59 -10.5q-35 2 -66 2q-12 0 -37 -1 t-55 -1q-86 0 -86 43q0 37 57 37q27 -2 58 -2q-38 101 -107 317q-51 -10 -200 -10q-57 0 -108 1t-73 1l-104 -309l63 2q58 0 58 -37q0 -43 -86 -43q-29 0 -50 1t-40 1l-68 -2q-42 0 -59 10.5t-17 32.5zM154 1210q0 18 18 39q94 109 197 109q39 0 74.5 -9.5t53.5 -19 t46 -26.5q51 -31 82 -31t51 20q33 29 51 29q37 0 37 -39q0 -18 -19 -37q-55 -55 -120 -55q-58 0 -123 43q-25 15 -36 21t-38.5 14t-58.5 8q-75 0 -131 -74q-26 -33 -43 -33q-12 0 -26.5 11t-14.5 30zM338 471q82 -4 154 -4q131 0 178 2l-140 469q-16 59 -24 59 q-14 0 -33 -69q-31 -114 -135 -457z" />
<glyph unicode="&#xe4;" d="M8 43q0 14 14 24.5t44 10.5h55l14 43l283 891h-21q-42 0 -58.5 10.5t-16.5 32.5q0 14 13.5 24.5t43.5 10.5h129q33 0 48 -11t26 -49q94 -291 139 -434q17 -54 57 -177t73 -223t38 -118h57q30 0 44 -10.5t14 -24.5q0 -22 -17 -32.5t-59 -10.5q-35 2 -66 2q-12 0 -37 -1 t-55 -1q-86 0 -86 43q0 37 57 37q27 -2 58 -2q-38 101 -107 317q-51 -10 -200 -10q-57 0 -108 1t-73 1l-104 -309l63 2q58 0 58 -37q0 -43 -86 -43q-29 0 -50 1t-40 1l-68 -2q-42 0 -59 10.5t-17 32.5zM217 1270q0 35 24 58.5t58 23.5q31 0 55.5 -25t24.5 -57 q0 -33 -25 -56.5t-55 -23.5t-56 23.5t-26 56.5zM338 471q82 -4 154 -4q131 0 178 2l-140 469q-16 59 -24 59q-14 0 -33 -69q-31 -114 -135 -457zM610 1270q0 35 24 58.5t58 23.5q31 0 55.5 -25t24.5 -57q0 -33 -25 -56.5t-55 -23.5t-56 23.5t-26 56.5z" />
<glyph unicode="&#xe5;" d="M8 43q0 14 14 24.5t44 10.5h55l14 43l283 891h-21q-42 0 -58.5 10.5t-16.5 32.5q0 14 13.5 24.5t43.5 10.5h129q33 0 48 -11t26 -49q94 -291 139 -434q17 -54 57 -177t73 -223t38 -118h57q30 0 44 -10.5t14 -24.5q0 -22 -17 -32.5t-59 -10.5q-35 2 -66 2q-12 0 -37 -1 t-55 -1q-86 0 -86 43q0 37 57 37q27 -2 58 -2q-38 101 -107 317q-51 -10 -200 -10q-57 0 -108 1t-73 1l-104 -309l63 2q58 0 58 -37q0 -43 -86 -43q-29 0 -50 1t-40 1l-68 -2q-42 0 -59 10.5t-17 32.5zM311 1366q0 83 59 131.5t124 48.5q41 0 83 -18.5t74.5 -59t32.5 -92.5 q0 -84 -50.5 -139t-133.5 -55q-88 0 -138.5 47.5t-50.5 136.5zM338 471q82 -4 154 -4q131 0 178 2l-140 469q-16 59 -24 59q-14 0 -33 -69q-31 -114 -135 -457zM393 1366q0 -50 28.5 -76t78.5 -26q46 0 74 32.5t28 79.5q0 39 -35.5 63.5t-72.5 24.5q-36 0 -68.5 -26.5 t-32.5 -71.5z" />
<glyph unicode="&#xe6;" horiz-adv-x="1316" d="M8 43q0 14 14 24.5t44 10.5h55l311 934h-20q-42 0 -59 10.5t-17 32.5q0 14 13.5 24.5t43.5 10.5h187q40 0 130 -2.5t146 -2.5q28 0 176 3l148 2q20 0 34.5 -10t14.5 -27v-172q0 -20 -11.5 -32.5t-29.5 -12.5q-41 0 -41 45q2 88 2 127h-444q0 -50 2.5 -210t3.5 -218 q17 0 57 2t70 2l188 -2q57 0 57 -35q0 -45 -86 -45q-19 0 -56.5 2t-102.5 2q-21 0 -60.5 -2t-64.5 -2q2 -39 2 -111q1 -55 0.5 -110t-1.5 -123.5t-1 -77.5h41q83 0 228.5 1t166.5 1l-2 127q0 45 41 45q18 0 29.5 -12.5t11.5 -32.5q0 -13 -1 -43t-1 -45q0 -16 1 -44t1 -42 q0 -16 -11.5 -25.5t-27.5 -9.5q-261 -2 -610 -2q-76 0 -76 45q0 14 13.5 24.5t43.5 10.5h70q0 2 1.5 127t0.5 180q-16 -1 -35.5 -1t-47 0.5t-44.5 0.5q-57 0 -115 1t-80 1l-104 -309l63 2q58 0 58 -37q0 -43 -86 -43q-29 0 -50 1t-40 1l-68 -2q-42 0 -59 10.5t-17 32.5z M338 471q82 -4 168 -4h125q-1 75 -4.5 277t-3.5 266h-113q-8 -30 -74 -231t-98 -308z" />
<glyph unicode="&#xe7;" horiz-adv-x="991" d="M84 522q0 142 37 255.5t100 184t141.5 107.5t165.5 37q96 0 169 -48.5t120 -113.5v115q0 47 37 47q45 0 45 -43v-250q0 -20 -11 -32.5t-30 -12.5q-21 0 -37 20t-32 54.5t-23 44.5q-92 137 -238 137q-72 0 -136.5 -32.5t-115 -94t-80.5 -158.5t-30 -217q0 -95 23 -174 t59.5 -130.5t85 -87.5t98 -51.5t98.5 -15.5q33 0 64 6.5t54.5 14.5t48.5 23.5t40 26.5t35.5 31.5t28.5 29t24.5 29t18.5 22.5q24 28 43 28q14 0 22.5 -8.5t8.5 -23.5q0 -35 -35 -76q-156 -184 -353 -184h-4q-1 -4 -3 -10t-5.5 -15t-5.5 -16q-8 -29 -4.5 -35t16.5 -6 q29 0 45.5 -1t44.5 -8t43.5 -20t28 -39.5t12.5 -64.5q0 -71 -51 -117.5t-137 -46.5q-26 0 -59 6t-66 25t-33 47q0 16 10 27t21 11q13 0 46.5 -17t80.5 -17q49 0 77.5 23t28.5 59q0 18 -9.5 29.5t-29 15.5t-32 5t-33.5 1h-31q-31 0 -48.5 7.5t-22 23.5t-1.5 33.5t13 43.5 q16 50 22 66q-70 14 -132 51t-114.5 99t-83 160t-30.5 220z" />
<glyph unicode="&#xe8;" horiz-adv-x="894" d="M80 43q0 14 13.5 24.5t43.5 10.5h70q0 3 1.5 130.5t0.5 182.5q-1 78 -5.5 312t-4.5 307h-62q-30 0 -43.5 10t-13.5 24q0 46 76 46q40 0 130 -2.5t146 -2.5q28 0 176 3l148 2q20 0 34.5 -10t14.5 -27v-172q0 -20 -11.5 -32.5t-29.5 -12.5q-41 0 -41 45q2 88 2 127h-444 q0 -50 2.5 -210t3.5 -218q17 0 57 2t70 2l188 -2q57 0 57 -35q0 -45 -86 -45q-19 0 -56.5 2t-102.5 2q-21 0 -60.5 -2t-64.5 -2q2 -39 2 -111q1 -55 0.5 -110t-1.5 -123.5t-1 -77.5h41q83 0 228.5 1t166.5 1l-2 127q0 45 41 45q18 0 29.5 -12.5t11.5 -32.5q0 -13 -1 -43 t-1 -45q0 -16 1 -44t1 -42q-1 -17 -12 -26t-27 -9q-261 -2 -610 -2q-76 0 -76 45zM264 1346q0 20 13 35.5t28 15.5q21 0 62 -21q14 -7 92.5 -50t99.5 -52q49 -22 49 -45q0 -13 -10 -25t-31 -12q-11 0 -47 14q-96 38 -209 90q-47 19 -47 50z" />
<glyph unicode="&#xe9;" horiz-adv-x="894" d="M80 43q0 14 13.5 24.5t43.5 10.5h70q0 3 1.5 130.5t0.5 182.5q-1 78 -5.5 312t-4.5 307h-62q-30 0 -43.5 10t-13.5 24q0 46 76 46q40 0 130 -2.5t146 -2.5q28 0 176 3l148 2q20 0 34.5 -10t14.5 -27v-172q0 -20 -11.5 -32.5t-29.5 -12.5q-41 0 -41 45q2 88 2 127h-444 q0 -50 2.5 -210t3.5 -218q17 0 57 2t70 2l188 -2q57 0 57 -35q0 -45 -86 -45q-19 0 -56.5 2t-102.5 2q-21 0 -60.5 -2t-64.5 -2q2 -39 2 -111q1 -55 0.5 -110t-1.5 -123.5t-1 -77.5h41q83 0 228.5 1t166.5 1l-2 127q0 45 41 45q18 0 29.5 -12.5t11.5 -32.5q0 -13 -1 -43 t-1 -45q0 -16 1 -44t1 -42q-1 -17 -12 -26t-27 -9q-261 -2 -610 -2q-76 0 -76 45zM264 1229q0 23 49 45q21 9 100 52t93 50q41 21 61 21q15 0 28 -15.5t13 -35.5q0 -31 -47 -50q-113 -52 -209 -90q-36 -14 -47 -14q-21 0 -31 12t-10 25z" />
<glyph unicode="&#xea;" horiz-adv-x="894" d="M80 43q0 14 13.5 24.5t43.5 10.5h70q0 3 1.5 130.5t0.5 182.5q-1 78 -5.5 312t-4.5 307h-62q-30 0 -43.5 10t-13.5 24q0 46 76 46q40 0 130 -2.5t146 -2.5q28 0 176 3l148 2q20 0 34.5 -10t14.5 -27v-172q0 -20 -11.5 -32.5t-29.5 -12.5q-41 0 -41 45q2 88 2 127h-444 q0 -50 2.5 -210t3.5 -218q17 0 57 2t70 2l188 -2q57 0 57 -35q0 -45 -86 -45q-19 0 -56.5 2t-102.5 2q-21 0 -60.5 -2t-64.5 -2q2 -39 2 -111q1 -55 0.5 -110t-1.5 -123.5t-1 -77.5h41q83 0 228.5 1t166.5 1l-2 127q0 45 41 45q18 0 29.5 -12.5t11.5 -32.5q0 -13 -1 -43 t-1 -45q0 -16 1 -44t1 -42q-1 -17 -12 -26t-27 -9q-261 -2 -610 -2q-76 0 -76 45zM250 1223q0 16 18 37q17 21 41 51t46 58t28 36q2 2 9.5 10.5t10.5 11.5l10 10t12 9.5t12 6.5t14.5 5.5t15.5 1.5t15.5 -1.5t14.5 -5.5t12 -6.5t12 -9.5l10 -10t10.5 -11.5t9.5 -10.5 q6 -8 28 -36t46 -58t41 -51q18 -21 18 -37q0 -21 -12.5 -31t-28.5 -10q-21 0 -45 30l-96 115q-5 5 -11 13t-9 10.5t-7 5t-8 2.5t-8 -2.5t-7 -5t-9 -10.5t-11 -13q-82 -97 -96 -115q-24 -30 -45 -30q-16 0 -28.5 10t-12.5 31z" />
<glyph unicode="&#xeb;" horiz-adv-x="894" d="M80 43q0 14 13.5 24.5t43.5 10.5h70q0 3 1.5 130.5t0.5 182.5q-1 78 -5.5 312t-4.5 307h-62q-30 0 -43.5 10t-13.5 24q0 46 76 46q40 0 130 -2.5t146 -2.5q28 0 176 3l148 2q20 0 34.5 -10t14.5 -27v-172q0 -20 -11.5 -32.5t-29.5 -12.5q-41 0 -41 45q2 88 2 127h-444 q0 -50 2.5 -210t3.5 -218q17 0 57 2t70 2l188 -2q57 0 57 -35q0 -45 -86 -45q-19 0 -56.5 2t-102.5 2q-21 0 -60.5 -2t-64.5 -2q2 -39 2 -111q1 -55 0.5 -110t-1.5 -123.5t-1 -77.5h41q83 0 228.5 1t166.5 1l-2 127q0 45 41 45q18 0 29.5 -12.5t11.5 -32.5q0 -13 -1 -43 t-1 -45q0 -16 1 -44t1 -42q-1 -17 -12 -26t-27 -9q-261 -2 -610 -2q-76 0 -76 45zM172 1270q0 35 24 58.5t58 23.5q31 0 55.5 -25t24.5 -57q0 -33 -25 -56.5t-55 -23.5t-56 23.5t-26 56.5zM565 1270q0 35 24 58.5t58 23.5q31 0 55.5 -25t24.5 -57q0 -33 -25 -56.5t-55 -23.5 t-56 23.5t-26 56.5z" />
<glyph unicode="&#xec;" horiz-adv-x="493" d="M70 1346q0 20 13 35.5t28 15.5q20 0 61 -21q14 -7 93 -50t100 -52q49 -22 49 -45q0 -13 -10 -25t-31 -12q-11 0 -47 14q-96 38 -209 90q-47 19 -47 50zM78 33q0 45 86 45h49q-8 78 -8 219q-4 489 2 713h-43q-86 0 -86 45q0 14 15.5 24.5t41.5 10.5q98 -5 123 -5l100 5 q58 0 58 -35q0 -45 -86 -45h-43q-6 -148 -4 -283q0 -8 14 -649h33q86 0 86 -45q0 -35 -58 -35q-63 4 -100 4l-123 -4q-26 0 -41.5 10.5t-15.5 24.5z" />
<glyph unicode="&#xed;" horiz-adv-x="491" d="M78 33q0 45 86 45h49q-8 78 -8 219q-4 489 2 713h-43q-86 0 -86 45q0 14 15.5 24.5t41.5 10.5q98 -5 123 -5l100 5q58 0 58 -35q0 -45 -86 -45h-43q-6 -148 -4 -283q0 -8 14 -649h33q86 0 86 -45q0 -35 -58 -35q-63 4 -100 4l-123 -4q-26 0 -41.5 10.5t-15.5 24.5z M133 1229q0 23 49 45q21 9 100 52t93 50q41 21 61 21q15 0 28 -15.5t13 -35.5q0 -31 -47 -50q-113 -52 -209 -90q-36 -14 -47 -14q-21 0 -31 12t-10 25z" />
<glyph unicode="&#xee;" horiz-adv-x="493" d="M25 1223q0 16 18 37q17 21 41 51t46 58t28 36q2 2 9.5 10.5t10.5 11.5l10 10t12 9.5t12 6.5t14.5 5.5t15.5 1.5t15.5 -1.5t14.5 -5.5t12 -6.5t12 -9.5l10 -10t10.5 -11.5t9.5 -10.5q2 -3 46.5 -60t67.5 -85q19 -22 19 -37q0 -21 -12.5 -31t-28.5 -10q-21 0 -45 30 l-97 115q-5 6 -11 13t-8.5 10t-6.5 5.5t-8 2.5t-8 -2.5t-7 -5t-9 -10.5t-11 -13q-82 -97 -96 -115q-24 -30 -45 -30q-16 0 -28.5 10t-12.5 31zM78 33q0 45 86 45h49q-8 78 -8 219q-4 489 2 713h-43q-86 0 -86 45q0 14 15.5 24.5t41.5 10.5q98 -5 123 -5l100 5q58 0 58 -35 q0 -45 -86 -45h-43q-6 -148 -4 -283q0 -8 14 -649h33q86 0 86 -45q0 -35 -58 -35q-63 4 -100 4l-123 -4q-26 0 -41.5 10.5t-15.5 24.5z" />
<glyph unicode="&#xef;" horiz-adv-x="491" d="M-18 1270q0 35 23.5 58.5t57.5 23.5q31 0 55.5 -25t24.5 -57q0 -33 -25 -56.5t-55 -23.5t-55.5 23.5t-25.5 56.5zM78 33q0 45 86 45h49q-8 78 -8 219q-4 489 2 713h-43q-86 0 -86 45q0 14 15.5 24.5t41.5 10.5q98 -5 123 -5l100 5q58 0 58 -35q0 -45 -86 -45h-43 q-6 -148 -4 -283q0 -8 14 -649h33q86 0 86 -45q0 -35 -58 -35q-63 4 -100 4l-123 -4q-26 0 -41.5 10.5t-15.5 24.5zM375 1270q0 35 24 58.5t58 23.5q31 0 55.5 -25t24.5 -57q0 -33 -25 -56.5t-55 -23.5t-56 23.5t-26 56.5z" />
<glyph unicode="&#xf0;" d="M55 535q0 34 58 34q31 -4 94 -4q-4 294 -4 445h-76q-30 0 -43.5 10t-13.5 24q0 46 75 46q7 0 93.5 -1.5t185.5 -1.5q127 0 223 -40.5t155 -114t88.5 -171.5t29.5 -218q0 -136 -41 -242t-114.5 -171t-169 -98.5t-208.5 -33.5h-242q-41 0 -58 11t-17 34q0 14 13.5 24.5 t43.5 10.5h86q0 127 -4 409q-19 0 -38.5 1t-29.5 1q-86 0 -86 46zM283 768q0 -137 2 -203l192 4q58 0 58 -34q0 -46 -86 -46q-27 0 -69.5 -1t-92.5 -1q1 -35 4.5 -177.5t3.5 -229.5h92q224 0 337.5 117t113.5 340q0 471 -414 471h-141v-240z" />
<glyph unicode="&#xf1;" horiz-adv-x="1091" d="M82 43q0 37 57 37q35 -2 72 -2l-10 758q-2 88 2 174h-35q-86 0 -86 43q0 37 57 37q78 -3 121 -3q24 0 40.5 -10.5t22 -20t19.5 -36.5l479 -895l-8 711q0 135 2 174h-35q-86 0 -86 43q0 37 58 37q77 -3 120 -3h101q30 0 43.5 -10t13.5 -24q0 -22 -17 -32.5t-59 -10.5 q-30 0 -57 2q-5 -131 -4 -174q2 -132 5 -323t5 -318t2 -148q0 -55 -61 -55q-8 0 -15.5 2t-13.5 4t-13 7.5t-11 8.5t-10.5 11.5t-9 12.5t-9 15t-8.5 14.5t-8.5 16.5t-8.5 16l-454 854q-4 -74 -2 -118q4 -118 6 -269t4 -308.5t2 -182.5h67q30 0 44 -10.5t14 -24.5 q0 -22 -17 -32.5t-59 -10.5q-51 2 -82 2q-12 0 -37 -1t-55 -1q-86 0 -86 43zM264 1210q0 17 19 39q26 30 47.5 50t63 39.5t85.5 19.5q39 0 74.5 -9.5t53.5 -19t46 -26.5q51 -31 82 -31t51 20q33 29 52 29q36 0 36 -39q0 -19 -18 -37q-55 -55 -121 -55q-58 0 -123 43 q-25 15 -36 21t-38.5 14t-58.5 8q-75 0 -131 -74q-26 -33 -43 -33q-12 0 -26.5 11t-14.5 30z" />
<glyph unicode="&#xf2;" horiz-adv-x="1081" d="M82 543q0 147 56.5 275t163 208t239.5 80t239 -80t162.5 -208t56.5 -275q0 -112 -27 -206.5t-72.5 -158.5t-105.5 -109.5t-124 -66t-129 -20.5t-129.5 20.5t-124 66t-105 109.5t-73 158.5t-27.5 206.5zM164 543q0 -100 23 -182.5t60 -136.5t87 -91t101.5 -53.5 t105.5 -16.5t105.5 16.5t101.5 53.5t87 91t60 136.5t23 182.5q0 124 -50.5 234.5t-138 178.5t-188.5 68t-188.5 -68t-138 -178.5t-50.5 -234.5zM383 1346q0 20 13 35.5t28 15.5q20 0 61 -21q14 -7 93 -50t100 -52q49 -22 49 -45q0 -13 -10 -25t-31 -12q-11 0 -47 14 q-96 38 -209 90q-47 19 -47 50z" />
<glyph unicode="&#xf3;" horiz-adv-x="1081" d="M82 543q0 147 56.5 275t163 208t239.5 80t239 -80t162.5 -208t56.5 -275q0 -112 -27 -206.5t-72.5 -158.5t-105.5 -109.5t-124 -66t-129 -20.5t-129.5 20.5t-124 66t-105 109.5t-73 158.5t-27.5 206.5zM164 543q0 -100 23 -182.5t60 -136.5t87 -91t101.5 -53.5 t105.5 -16.5t105.5 16.5t101.5 53.5t87 91t60 136.5t23 182.5q0 124 -50.5 234.5t-138 178.5t-188.5 68t-188.5 -68t-138 -178.5t-50.5 -234.5zM383 1229q0 23 49 45q21 9 100 52t93 50q41 21 61 21q15 0 28 -15.5t13 -35.5q0 -31 -47 -50q-113 -52 -209 -90 q-36 -14 -47 -14q-21 0 -31 12t-10 25z" />
<glyph unicode="&#xf4;" horiz-adv-x="1081" d="M82 543q0 147 56.5 275t163 208t239.5 80t239 -80t162.5 -208t56.5 -275q0 -112 -27 -206.5t-72.5 -158.5t-105.5 -109.5t-124 -66t-129 -20.5t-129.5 20.5t-124 66t-105 109.5t-73 158.5t-27.5 206.5zM164 543q0 -100 23 -182.5t60 -136.5t87 -91t101.5 -53.5 t105.5 -16.5t105.5 16.5t101.5 53.5t87 91t60 136.5t23 182.5q0 124 -50.5 234.5t-138 178.5t-188.5 68t-188.5 -68t-138 -178.5t-50.5 -234.5zM338 1223q0 16 18 37q17 21 41 51t46 58t28 36q2 2 9.5 10.5t10.5 11.5l10 10t12 9.5t12 6.5t14.5 5.5t15.5 1.5t15.5 -1.5 t14.5 -5.5t12 -6.5t12 -9.5l10 -10t10.5 -11.5t9.5 -10.5q6 -8 28 -36t46 -58t41 -51q18 -21 18 -37q0 -21 -12.5 -31t-28.5 -10q-21 0 -45 30l-96 115q-5 5 -11 13t-9 10.5t-7 5t-8 2.5t-8 -2.5t-7 -5t-9 -10.5t-11 -13q-82 -97 -96 -115q-24 -30 -45 -30q-16 0 -28.5 10 t-12.5 31z" />
<glyph unicode="&#xf5;" horiz-adv-x="1081" d="M82 543q0 147 56.5 275t163 208t239.5 80t239 -80t162.5 -208t56.5 -275q0 -112 -27 -206.5t-72.5 -158.5t-105.5 -109.5t-124 -66t-129 -20.5t-129.5 20.5t-124 66t-105 109.5t-73 158.5t-27.5 206.5zM164 543q0 -100 23 -182.5t60 -136.5t87 -91t101.5 -53.5 t105.5 -16.5t105.5 16.5t101.5 53.5t87 91t60 136.5t23 182.5q0 124 -50.5 234.5t-138 178.5t-188.5 68t-188.5 -68t-138 -178.5t-50.5 -234.5zM250 1210q0 18 18 39q94 109 197 109q39 0 74.5 -9.5t53.5 -19t46 -26.5q51 -31 82 -31t51 20q33 29 51 29q37 0 37 -39 q0 -19 -18 -37q-55 -55 -121 -55q-58 0 -123 43q-25 15 -36 21t-38.5 14t-58.5 8q-75 0 -131 -74q-26 -33 -43 -33q-12 0 -26.5 11t-14.5 30z" />
<glyph unicode="&#xf6;" horiz-adv-x="1081" d="M82 543q0 147 56.5 275t163 208t239.5 80t239 -80t162.5 -208t56.5 -275q0 -112 -27 -206.5t-72.5 -158.5t-105.5 -109.5t-124 -66t-129 -20.5t-129.5 20.5t-124 66t-105 109.5t-73 158.5t-27.5 206.5zM164 543q0 -100 23 -182.5t60 -136.5t87 -91t101.5 -53.5 t105.5 -16.5t105.5 16.5t101.5 53.5t87 91t60 136.5t23 182.5q0 124 -50.5 234.5t-138 178.5t-188.5 68t-188.5 -68t-138 -178.5t-50.5 -234.5zM279 1270q0 35 23.5 58.5t57.5 23.5q31 0 55.5 -25t24.5 -57q0 -33 -25 -56.5t-55 -23.5t-55.5 23.5t-25.5 56.5zM672 1270 q0 35 24 58.5t58 23.5q31 0 55.5 -25t24.5 -57q0 -33 -25 -56.5t-55 -23.5t-56 23.5t-26 56.5z" />
<glyph unicode="&#xf7;" horiz-adv-x="696" d="M78 592q0 14 13.5 24.5t43.5 10.5q111 -2 209 -2l219 4q30 0 44 -10.5t14 -24.5q0 -45 -86 -45q-14 0 -77 -1t-114 -1h-180q-86 0 -86 45zM238 354q0 47 31.5 78t76.5 31q41 0 74 -33t33 -76q0 -44 -33.5 -75t-73.5 -31t-74 31t-34 75zM238 825q0 47 31.5 78t76.5 31 q41 0 74 -33t33 -76q0 -44 -33.5 -75t-73.5 -31t-74 31t-34 75z" />
<glyph unicode="&#xf8;" horiz-adv-x="1087" d="M88 543q0 147 56.5 275t163 208t239.5 80q146 0 266 -102l29 38q22 31 43 31q23 0 34 -14.5t11 -28.5q0 -17 -23 -45l-33 -45q63 -78 97.5 -181.5t34.5 -215.5t-27.5 -206.5t-73 -158.5t-105 -109.5t-124 -66t-129.5 -20.5q-174 0 -299 122l-58 -75q-22 -31 -43 -31 q-22 0 -32.5 12.5t-10.5 26.5q0 22 23 49l63 86q-102 150 -102 371zM170 543q0 -179 72 -303l518 694q-100 90 -213 90q-101 0 -188.5 -68t-138 -178.5t-50.5 -234.5zM297 170q101 -107 250 -107q54 0 105.5 16.5t101.5 53.5t87 91t60 136.5t23 182.5q0 185 -105 325z" />
<glyph unicode="&#xf9;" horiz-adv-x="1052" d="M57 1055q0 14 15.5 24.5t42.5 10.5q98 -5 123 -5l100 5q57 0 57 -35q0 -45 -86 -45h-45v-242q0 -86 -2 -219.5t-2 -157.5q0 -75 13 -132t42 -102.5t82.5 -69.5t128.5 -24t128.5 24t83 69.5t42.5 102.5t13 132q0 24 -2.5 157.5t-2.5 219.5v242h-45q-86 0 -86 45 q0 35 58 35q63 -5 100 -5l123 5q26 0 41.5 -10.5t15.5 -24.5q0 -45 -86 -45h-39v-256q0 -82 2 -210.5t2 -152.5q0 -65 -10 -121.5t-34.5 -110.5t-63 -92.5t-100 -61.5t-140.5 -23t-140.5 23t-100 61.5t-63 92.5t-34.5 110.5t-10 121.5q0 24 2 152.5t2 210.5v256h-39 q-86 0 -86 45zM342 1346q0 20 13 35.5t28 15.5q20 0 61 -21q14 -7 93 -50t100 -52q49 -22 49 -45q0 -13 -10 -25t-31 -12q-11 0 -47 14q-96 38 -209 90q-47 19 -47 50z" />
<glyph unicode="&#xfa;" horiz-adv-x="1052" d="M57 1055q0 14 15.5 24.5t42.5 10.5q98 -5 123 -5l100 5q57 0 57 -35q0 -45 -86 -45h-45v-242q0 -86 -2 -219.5t-2 -157.5q0 -75 13 -132t42 -102.5t82.5 -69.5t128.5 -24t128.5 24t83 69.5t42.5 102.5t13 132q0 24 -2.5 157.5t-2.5 219.5v242h-45q-86 0 -86 45 q0 35 58 35q63 -5 100 -5l123 5q26 0 41.5 -10.5t15.5 -24.5q0 -45 -86 -45h-39v-256q0 -82 2 -210.5t2 -152.5q0 -65 -10 -121.5t-34.5 -110.5t-63 -92.5t-100 -61.5t-140.5 -23t-140.5 23t-100 61.5t-63 92.5t-34.5 110.5t-10 121.5q0 24 2 152.5t2 210.5v256h-39 q-86 0 -86 45zM342 1229q0 23 49 45q21 9 100 52t93 50q41 21 61 21q15 0 28 -15.5t13 -35.5q0 -31 -47 -50q-113 -52 -209 -90q-36 -14 -47 -14q-21 0 -31 12t-10 25z" />
<glyph unicode="&#xfb;" horiz-adv-x="1052" d="M57 1055q0 14 15.5 24.5t42.5 10.5q98 -5 123 -5l100 5q57 0 57 -35q0 -45 -86 -45h-45v-242q0 -86 -2 -219.5t-2 -157.5q0 -75 13 -132t42 -102.5t82.5 -69.5t128.5 -24t128.5 24t83 69.5t42.5 102.5t13 132q0 24 -2.5 157.5t-2.5 219.5v242h-45q-86 0 -86 45 q0 35 58 35q63 -5 100 -5l123 5q26 0 41.5 -10.5t15.5 -24.5q0 -45 -86 -45h-39v-256q0 -82 2 -210.5t2 -152.5q0 -65 -10 -121.5t-34.5 -110.5t-63 -92.5t-100 -61.5t-140.5 -23t-140.5 23t-100 61.5t-63 92.5t-34.5 110.5t-10 121.5q0 24 2 152.5t2 210.5v256h-39 q-86 0 -86 45zM297 1223q0 16 18 37q17 21 41 51t46 58t28 36q2 2 9.5 10.5t10.5 11.5l10 10t12 9.5t12 6.5t14.5 5.5t15.5 1.5t15.5 -1.5t14.5 -5.5t12 -6.5t12 -9.5l10 -10t10.5 -11.5t9.5 -10.5q6 -8 28 -36t46 -58t41 -51q18 -21 18 -37q0 -21 -12.5 -31t-28.5 -10 q-21 0 -45 30l-96 115q-5 5 -11 13t-9 10.5t-7 5t-8 2.5t-8 -2.5t-7 -5t-9 -10.5t-11 -13q-82 -97 -96 -115q-24 -30 -45 -30q-16 0 -28.5 10t-12.5 31z" />
<glyph unicode="&#xfc;" horiz-adv-x="1052" d="M57 1055q0 14 15.5 24.5t42.5 10.5q98 -5 123 -5l100 5q57 0 57 -35q0 -45 -86 -45h-45v-242q0 -86 -2 -219.5t-2 -157.5q0 -75 13 -132t42 -102.5t82.5 -69.5t128.5 -24t128.5 24t83 69.5t42.5 102.5t13 132q0 24 -2.5 157.5t-2.5 219.5v242h-45q-86 0 -86 45 q0 35 58 35q63 -5 100 -5l123 5q26 0 41.5 -10.5t15.5 -24.5q0 -45 -86 -45h-39v-256q0 -82 2 -210.5t2 -152.5q0 -65 -10 -121.5t-34.5 -110.5t-63 -92.5t-100 -61.5t-140.5 -23t-140.5 23t-100 61.5t-63 92.5t-34.5 110.5t-10 121.5q0 24 2 152.5t2 210.5v256h-39 q-86 0 -86 45zM262 1270q0 35 24 58.5t58 23.5q31 0 55.5 -25t24.5 -57q0 -33 -25 -56.5t-55 -23.5t-56 23.5t-26 56.5zM655 1270q0 35 24 58.5t58 23.5q31 0 55.5 -25t24.5 -57q0 -33 -25 -56.5t-55 -23.5t-56 23.5t-26 56.5z" />
<glyph unicode="&#xfd;" horiz-adv-x="901" d="M23 1053q0 37 57 37q78 -3 121 -3h80q30 0 43.5 -10t13.5 -24q0 -22 -17 -32.5t-59 -10.5q-15 0 -33 2l177 -406q39 -90 47 -90q10 0 49 90l174 406l-31 -2q-42 0 -59 10.5t-17 32.5q0 14 14 24t44 10h80l120 3q58 0 58 -37q0 -43 -86 -43h-35q-172 -405 -184 -432 q-19 -39 -31 -60t-29.5 -40.5t-34.5 -24.5q1 -75 11 -373h32q86 0 86 -45q0 -35 -57 -35q-63 4 -100 4l-123 -4q-27 0 -42.5 10.5t-15.5 24.5q0 45 86 45h50q-9 88 -9 217v164q-14 9 -27.5 29t-22.5 37t-25 51q-31 63 -187 432h-32q-86 0 -86 43zM250 1229q0 23 49 45 q21 9 100 52t93 50q41 21 61 21q15 0 28 -15.5t13 -35.5q0 -31 -47 -50q-113 -52 -209 -90q-36 -14 -47 -14q-21 0 -31 12t-10 25z" />
<glyph unicode="&#xfe;" horiz-adv-x="876" d="M80 41q0 14 13.5 24.5t43.5 10.5h72q-8 844 -8 944h-64q-30 0 -43.5 10.5t-13.5 24.5q0 22 17 32.5t59 10.5q26 -2 67 -2q30 0 66.5 1t85.5 1q86 0 86 -43q0 -37 -58 -37q-61 0 -120 2q0 -63 2 -143h116q416 0 416 -326q0 -66 -12 -118t-31 -87t-49.5 -60.5t-60.5 -40 t-71 -22.5t-74 -10t-77 -2h-153q0 -33 1 -77.5t1 -57.5l112 2q58 0 58 -37q0 -43 -86 -43q-49 0 -85.5 1t-66.5 1l-67 -2q-42 0 -59 10.5t-17 32.5zM285 795q0 -75 2 -248.5t2 -253.5h153q50 0 84.5 3.5t77.5 18t69 41t44 76t18 119.5q0 244 -342 244h-108z" />
<glyph unicode="&#xff;" horiz-adv-x="901" d="M23 1053q0 37 57 37q78 -3 121 -3h80q30 0 43.5 -10t13.5 -24q0 -22 -17 -32.5t-59 -10.5q-15 0 -33 2l177 -406q39 -90 47 -90q10 0 49 90l174 406l-31 -2q-42 0 -59 10.5t-17 32.5q0 14 14 24t44 10h80l120 3q58 0 58 -37q0 -43 -86 -43h-35q-172 -405 -184 -432 q-19 -39 -31 -60t-29.5 -40.5t-34.5 -24.5q1 -75 11 -373h32q86 0 86 -45q0 -35 -57 -35q-63 4 -100 4l-123 -4q-27 0 -42.5 10.5t-15.5 24.5q0 45 86 45h50q-9 88 -9 217v164q-14 9 -27.5 29t-22.5 37t-25 51q-31 63 -187 432h-32q-86 0 -86 43zM172 1270q0 35 24 58.5 t58 23.5q31 0 55.5 -25t24.5 -57q0 -33 -25 -56.5t-55 -23.5t-56 23.5t-26 56.5zM565 1270q0 35 24 58.5t58 23.5q31 0 55.5 -25t24.5 -57q0 -33 -25 -56.5t-55 -23.5t-56 23.5t-26 56.5z" />
<glyph unicode="&#x152;" horiz-adv-x="1609" d="M82 543q0 147 56.5 275t163 208t239.5 80q117 0 213 -63.5t159 -172.5v140h-30q-30 0 -44 10t-14 24q0 46 76 46q35 0 116 -2.5t130 -2.5q28 0 175 3l148 2q20 0 35 -10t15 -27v-172q0 -20 -11.5 -32.5t-29.5 -12.5q-41 0 -41 45q2 88 2 127h-445q0 -50 2.5 -210 t3.5 -218q17 0 57 2t70 2l189 -2q57 0 57 -35q0 -45 -86 -45q-19 0 -57 2t-103 2q-21 0 -60 -2t-64 -2q2 -39 2 -111q1 -55 0.5 -110t-1.5 -123.5t-1 -77.5h40q83 0 229 1t167 1l-2 127q0 45 41 45q18 0 29.5 -12.5t11.5 -32.5q0 -13 -1 -43t-1 -45q0 -16 1 -44t1 -42 q0 -16 -11.5 -25.5t-27.5 -9.5q-249 -2 -580 -2q-76 0 -76 45q0 14 14 24.5t44 10.5h39q0 82 2 141q-65 -116 -169 -176.5t-214 -60.5q-65 0 -129.5 20.5t-124 66t-105 109.5t-73 158.5t-27.5 206.5zM164 543q0 -100 23 -182.5t60 -136.5t87 -91t101.5 -53.5t105.5 -16.5 t105.5 16.5t101.5 53.5t87 91t60 136.5t23 182.5q0 124 -50.5 234.5t-138 178.5t-188.5 68t-188.5 -68t-138 -178.5t-50.5 -234.5z" />
<glyph unicode="&#x153;" horiz-adv-x="1609" d="M82 543q0 147 56.5 275t163 208t239.5 80q117 0 213 -63.5t159 -172.5v140h-30q-30 0 -44 10t-14 24q0 46 76 46q35 0 116 -2.5t130 -2.5q28 0 175 3l148 2q20 0 35 -10t15 -27v-172q0 -20 -11.5 -32.5t-29.5 -12.5q-41 0 -41 45q2 88 2 127h-445q0 -50 2.5 -210 t3.5 -218q17 0 57 2t70 2l189 -2q57 0 57 -35q0 -45 -86 -45q-19 0 -57 2t-103 2q-21 0 -60 -2t-64 -2q2 -39 2 -111q1 -55 0.5 -110t-1.5 -123.5t-1 -77.5h40q83 0 229 1t167 1l-2 127q0 45 41 45q18 0 29.5 -12.5t11.5 -32.5q0 -13 -1 -43t-1 -45q0 -16 1 -44t1 -42 q0 -16 -11.5 -25.5t-27.5 -9.5q-249 -2 -580 -2q-76 0 -76 45q0 14 14 24.5t44 10.5h39q0 82 2 141q-65 -116 -169 -176.5t-214 -60.5q-65 0 -129.5 20.5t-124 66t-105 109.5t-73 158.5t-27.5 206.5zM164 543q0 -100 23 -182.5t60 -136.5t87 -91t101.5 -53.5t105.5 -16.5 t105.5 16.5t101.5 53.5t87 91t60 136.5t23 182.5q0 124 -50.5 234.5t-138 178.5t-188.5 68t-188.5 -68t-138 -178.5t-50.5 -234.5z" />
<glyph unicode="&#x178;" horiz-adv-x="901" d="M23 1053q0 37 57 37q78 -3 121 -3h80q30 0 43.5 -10t13.5 -24q0 -22 -17 -32.5t-59 -10.5q-15 0 -33 2l177 -406q39 -90 47 -90q10 0 49 90l174 406l-31 -2q-42 0 -59 10.5t-17 32.5q0 14 14 24t44 10h80l120 3q58 0 58 -37q0 -43 -86 -43h-35q-172 -405 -184 -432 q-19 -39 -31 -60t-29.5 -40.5t-34.5 -24.5q1 -75 11 -373h32q86 0 86 -45q0 -35 -57 -35q-63 4 -100 4l-123 -4q-27 0 -42.5 10.5t-15.5 24.5q0 45 86 45h50q-9 88 -9 217v164q-14 9 -27.5 29t-22.5 37t-25 51q-31 63 -187 432h-32q-86 0 -86 43zM172 1270q0 35 24 58.5 t58 23.5q31 0 55.5 -25t24.5 -57q0 -33 -25 -56.5t-55 -23.5t-56 23.5t-26 56.5zM565 1270q0 35 24 58.5t58 23.5q31 0 55.5 -25t24.5 -57q0 -33 -25 -56.5t-55 -23.5t-56 23.5t-26 56.5z" />
<glyph unicode="&#x2c6;" horiz-adv-x="557" d="M61 1010q0 15 19 37q17 21 41 51t46 58t28 36q2 2 9.5 10.5t10.5 11.5l10 10t12 9.5t12 6.5t14.5 5.5t15.5 1.5q9 0 18 -2.5t15 -5.5t14.5 -10.5t12 -10.5t12.5 -13.5t11 -12.5q6 -8 28 -36t46 -58t41 -51q19 -22 19 -37q0 -21 -12.5 -31t-28.5 -10q-21 0 -45 30l-97 115 q-5 6 -11 13t-8.5 10t-6.5 5.5t-8 2.5t-8 -2.5t-7 -5t-9 -10.5t-11 -13q-83 -97 -97 -115q-24 -30 -45 -30q-16 0 -28.5 10t-12.5 31z" />
<glyph unicode="&#x2dc;" horiz-adv-x="733" d="M61 997q0 17 19 39q26 30 47.5 50t63 39.5t85.5 19.5q39 0 75 -9.5t54 -19t46 -26.5q51 -31 81 -31q32 0 52 20q33 29 51 29q37 0 37 -39q0 -18 -19 -37q-55 -55 -121 -55q-57 0 -122 43q-24 15 -36 21t-39.5 14t-58.5 8q-75 0 -131 -74q-26 -33 -43 -33q-12 0 -26.5 11 t-14.5 30z" />
<glyph unicode="&#x2000;" horiz-adv-x="773" />
<glyph unicode="&#x2001;" horiz-adv-x="1546" />
<glyph unicode="&#x2002;" horiz-adv-x="773" />
<glyph unicode="&#x2003;" horiz-adv-x="1546" />
<glyph unicode="&#x2004;" horiz-adv-x="515" />
<glyph unicode="&#x2005;" horiz-adv-x="386" />
<glyph unicode="&#x2006;" horiz-adv-x="257" />
<glyph unicode="&#x2007;" horiz-adv-x="257" />
<glyph unicode="&#x2008;" horiz-adv-x="193" />
<glyph unicode="&#x2009;" horiz-adv-x="309" />
<glyph unicode="&#x200a;" horiz-adv-x="85" />
<glyph unicode="&#x2010;" horiz-adv-x="784" d="M125 504q0 14 13.5 24.5t43.5 10.5q129 -9 240 -9l176 2q30 0 43.5 -10t13.5 -24q0 -45 -86 -45h-147q-56 0 -125.5 3t-85.5 3q-86 0 -86 45z" />
<glyph unicode="&#x2011;" horiz-adv-x="784" d="M125 504q0 14 13.5 24.5t43.5 10.5q129 -9 240 -9l176 2q30 0 43.5 -10t13.5 -24q0 -45 -86 -45h-147q-56 0 -125.5 3t-85.5 3q-86 0 -86 45z" />
<glyph unicode="&#x2012;" horiz-adv-x="784" d="M125 504q0 14 13.5 24.5t43.5 10.5q129 -9 240 -9l176 2q30 0 43.5 -10t13.5 -24q0 -45 -86 -45h-147q-56 0 -125.5 3t-85.5 3q-86 0 -86 45z" />
<glyph unicode="&#x2013;" horiz-adv-x="886" d="M123 504q0 14 13.5 24.5t43.5 10.5q129 -2 240 -2l291 4q30 0 43.5 -10.5t13.5 -24.5q0 -45 -86 -45q-20 0 -107 -1t-155 -1h-211q-86 0 -86 45z" />
<glyph unicode="&#x2014;" horiz-adv-x="1277" d="M131 504q0 14 13.5 24.5t43.5 10.5q159 -9 420 -9l486 11q30 0 43.5 -10.5t13.5 -24.5q0 -45 -86 -45q-19 0 -204 -4t-253 -4q-141 0 -244 3t-147 3q-86 0 -86 45z" />
<glyph unicode="&#x2018;" horiz-adv-x="405" d="M88 942q0 72 102 197q33 42 51 50q10 5 19 5q15 0 27 -11t12 -32q0 -11 -6.5 -21.5t-19.5 -23t-15 -14.5q-7 -9 -22 -26.5t-21 -25.5q36 -8 62 -36.5t26 -67.5q0 -47 -31.5 -78t-76.5 -31q-43 0 -75 32.5t-32 82.5z" />
<glyph unicode="&#x2019;" horiz-adv-x="403" d="M109 1085q0 47 31.5 78t76.5 31q43 0 75 -32.5t32 -82.5q0 -70 -103 -196q-1 -1 -8 -10t-9 -11.5t-8.5 -10t-10.5 -10t-10 -7t-11.5 -6t-11.5 -1.5q-15 0 -27 11t-12 32q0 11 6.5 21.5t20 24l14.5 14.5q7 9 22 26t21 25q-36 8 -62 36.5t-26 67.5z" />
<glyph unicode="&#x201a;" horiz-adv-x="415" d="M100 88q0 47 32 78t77 31q43 0 74.5 -32.5t31.5 -82.5q0 -72 -102 -197q-33 -42 -51 -50q-10 -5 -19 -5q-15 0 -27 11t-12 32q0 11 6.5 21.5t19.5 23t15 14.5q7 9 22 26.5t21 25.5q-36 8 -62 36.5t-26 67.5z" />
<glyph unicode="&#x201c;" horiz-adv-x="688" d="M88 942q0 72 102 197q33 42 51 50q10 5 19 5q15 0 27 -11t12 -32q0 -11 -6.5 -21.5t-19.5 -23t-15 -14.5q-7 -9 -22 -26.5t-21 -25.5q36 -8 62 -36.5t26 -67.5q0 -47 -31.5 -78t-76.5 -31q-43 0 -75 32.5t-32 82.5zM371 942q0 72 102 197q33 42 51 50q10 5 19 5 q15 0 27 -11t12 -32q0 -11 -6.5 -21.5t-19.5 -23t-15 -14.5q-7 -9 -22 -26.5t-21 -25.5q36 -8 62 -36.5t26 -67.5q0 -47 -32 -78t-77 -31q-43 0 -74.5 32.5t-31.5 82.5z" />
<glyph unicode="&#x201d;" horiz-adv-x="686" d="M109 1085q0 47 31.5 78t76.5 31q43 0 75 -32.5t32 -82.5q0 -70 -103 -196q-1 -1 -8 -10t-9 -11.5t-8.5 -10t-10.5 -10t-10 -7t-11.5 -6t-11.5 -1.5q-15 0 -27 11t-12 32q0 11 6.5 21.5t20 24l14.5 14.5q7 9 22 26t21 25q-36 8 -62 36.5t-26 67.5zM391 1085q0 47 32 78 t77 31q43 0 74.5 -32.5t31.5 -82.5q0 -71 -102 -196q-1 -1 -6 -8t-6.5 -8.5t-7 -8t-8 -8.5t-7.5 -7t-8.5 -7t-8 -4.5t-9 -3.5t-9.5 -1q-15 0 -27 11t-12 32q0 11 6.5 21.5t20 24l14.5 14.5q7 9 22 26t21 25q-36 8 -62 36.5t-26 67.5z" />
<glyph unicode="&#x201e;" horiz-adv-x="698" d="M100 88q0 47 32 78t77 31q43 0 74.5 -32.5t31.5 -82.5q0 -72 -102 -197q-33 -42 -51 -50q-10 -5 -19 -5q-15 0 -27 11t-12 32q0 11 6.5 21.5t19.5 23t15 14.5q7 9 22 26.5t21 25.5q-36 8 -62 36.5t-26 67.5zM383 88q0 47 32 78t77 31q43 0 74.5 -32.5t31.5 -82.5 q0 -72 -102 -197q-33 -42 -51 -50q-10 -5 -19 -5q-15 0 -27 11t-12 32q0 11 6.5 21.5t19.5 23t15 14.5q7 9 22 26.5t21 25.5q-36 8 -62 36.5t-26 67.5z" />
<glyph unicode="&#x2022;" horiz-adv-x="667" d="M135 750q0 76 60 139t141 63q77 0 138 -59t61 -143q0 -82 -62 -141.5t-137 -59.5q-77 0 -139 59t-62 142z" />
<glyph unicode="&#x2026;" horiz-adv-x="1505" d="M100 88q0 47 32 78t77 31q41 0 73.5 -33t32.5 -76q0 -44 -33 -75t-73 -31t-74.5 31t-34.5 75zM651 88q0 47 32 78t77 31q41 0 73.5 -33t32.5 -76q0 -44 -33 -75t-73 -31t-74.5 31t-34.5 75zM1192 88q0 47 31.5 78t76.5 31q41 0 74 -33t33 -76q0 -44 -33.5 -75t-73.5 -31 t-74 31t-34 75z" />
<glyph unicode="&#x202f;" horiz-adv-x="309" />
<glyph unicode="&#x2039;" horiz-adv-x="458" d="M94 344q0 20 21 51l129 199q20 33 43 33q42 0 45 -39q0 -15 -21 -49l-129 -195l129 -194q21 -34 21 -50q-3 -39 -45 -39q-23 0 -43 33l-129 199q-21 31 -21 51z" />
<glyph unicode="&#x203a;" horiz-adv-x="458" d="M127 100q0 18 20 50l129 194l-129 195q-20 32 -20 49q3 39 45 39q23 0 43 -33l129 -199q21 -32 21 -51q0 -20 -21 -51l-129 -199q-20 -33 -43 -33q-42 0 -45 39z" />
<glyph unicode="&#x205f;" horiz-adv-x="386" />
<glyph unicode="&#x20ac;" horiz-adv-x="1036" d="M61 430q0 14 14 24.5t44 10.5q69 0 147 2q-2 16 -2 55q0 63 4 94q-28 0 -69 -1t-52 -1q-86 0 -86 45q0 14 14 24.5t44 10.5q80 0 164 2q43 183 163 296.5t252 113.5q52 0 101 -10.5t70 -19t34 -15.5q49 -32 49 -57q0 -35 -34 -35q-9 0 -16.5 2t-11 3.5t-16 9t-18.5 11.5 q-60 29 -158 29q-95 0 -190.5 -91.5t-136.5 -236.5h334q30 0 43.5 -10t13.5 -24q0 -46 -86 -46q-20 0 -124 1t-171 1h-29q-6 -46 -6 -96q0 -39 2 -55h357q30 0 43.5 -10.5t13.5 -24.5q0 -45 -86 -45q-20 0 -124 1t-171 1h-23q16 -83 53.5 -148t86 -102.5t100 -56.5 t102.5 -19q98 0 158 29q8 4 19 11t15 9.5t11.5 4.5t16.5 2q34 0 34 -35q0 -25 -49 -57q-13 -7 -34 -15.5t-70 -19t-101 -10.5q-68 0 -133 23t-125.5 69t-105 127t-62.5 186q-30 0 -73.5 -1t-53.5 -1q-86 0 -86 45z" />
<glyph unicode="&#x2122;" horiz-adv-x="1116" d="M76 1327q0 20 15 32.5t42 12.5q131 -4 160 -4l100 4q58 0 58 -45l-2 -65q0 -18 -10.5 -29.5t-28.5 -11.5q-43 0 -43 41q0 12 2 30h-64v-254h17q57 0 57 -34q0 -46 -76 -46h-80q-76 0 -76 46q0 14 15.5 24t42.5 10h18v78q0 31 1 96t1 80h-67l2 -30q0 -41 -43 -41 q-18 0 -28.5 11.5t-10.5 29.5q-2 24 -2 65zM479 1004q0 14 12.5 24t34.5 10h9q4 50 4 78q0 129 2 176q-62 0 -62 45q0 35 47 35h58q30 0 41 -22q20 -14 73 -131l50 -107q8 16 25 54t26 53l73 131q9 22 41 22h58q47 0 47 -35q0 -45 -62 -45q0 -23 1 -87t1 -89q0 -44 3 -78h10 q47 0 47 -34q0 -46 -66 -46h-59q-66 0 -66 46q0 14 12.5 24t34.5 10h7q-4 90 -4 146v20l-95 -184q-14 -27 -32 -27q-26 0 -39 27q-72 139 -90 176v-12q0 -28 -5 -146h7q47 0 47 -34q0 -46 -66 -46h-59q-66 0 -66 46z" />
<glyph unicode="&#x25fc;" horiz-adv-x="1085" d="M0 0v1085h1085v-1085h-1085z" />
</font>
</defs>
</svg>
