<?xml version="1.0" standalone="no"?>
<!DOCTYPE svg PUBLIC "-//W3C//DTD SVG 1.1//EN" "http://www.w3.org/Graphics/SVG/1.1/DTD/svg11.dtd" >
<svg xmlns="http://www.w3.org/2000/svg" xmlns:xlink="http://www.w3.org/1999/xlink" version="1.1">
<metadata></metadata>
<defs>
<font id="showcasesans_mini" horiz-adv-x="835" >
<font-face units-per-em="2048" ascent="1536" descent="-512" />
<missing-glyph horiz-adv-x="305" />
<glyph horiz-adv-x="0" />
<glyph horiz-adv-x="682" />
<glyph unicode=" "  horiz-adv-x="305" />
<glyph unicode="&#x09;" horiz-adv-x="305" />
<glyph unicode="&#xa0;" horiz-adv-x="305" />
<glyph unicode="!" horiz-adv-x="292" d="M74 45q0 28 18.5 47t46.5 19q25 0 44.5 -20t19.5 -46q0 -27 -20 -45t-44 -18q-25 0 -45 18t-20 45zM113 209v20v453q0 19 10 31t29 12q43 0 43 -45q0 -3 -1.5 -25.5t-3.5 -64t-2 -92.5q0 -68 -3 -135.5t-6 -100.5l-3 -33q0 -47 -31 -47q-29 0 -32 27z" />
<glyph unicode="&#x22;" horiz-adv-x="452" d="M72 1026q2 24 9 35.5t30 11.5q25 0 34 -14t9 -43q0 -3 0.5 -62.5t1 -116t0.5 -51.5q-3 -43 -43 -43q-18 0 -28.5 12t-10.5 33q-2 45 -2 238zM299 1026q2 24 9 35.5t30 11.5q25 0 34 -14t9 -43q0 -3 0.5 -62.5t1 -116t0.5 -51.5q-3 -43 -43 -43q-18 0 -28.5 12t-10.5 33 q-2 45 -2 238z" />
<glyph unicode="#" horiz-adv-x="933" d="M37 158q0 14 13.5 24.5t43.5 10.5q57 -3 125 -3l64 244h-76q-86 0 -86 45q0 14 13.5 24.5t43.5 10.5q57 -2 125 -2l35 127q12 47 47 47q23 0 32 -14.5t9 -26.5q0 -11 -6 -35l-27 -98h236l35 127q12 47 47 47q23 0 32 -14.5t9 -26.5q0 -7 -7 -35l-26 -98l119 4 q30 0 43.5 -10.5t13.5 -24.5q0 -45 -86 -45q-66 0 -111 -2l-63 -244l119 5q30 0 43.5 -10.5t13.5 -24.5q0 -45 -86 -45q-68 0 -111 -2l-22 -84q-12 -47 -47 -47q-23 0 -32 14.5t-9 26.5q0 10 6 34l14 56h-235l-23 -84q-12 -47 -47 -47q-23 0 -32 14.5t-9 26.5q0 10 6 34 l15 56h-76q-86 0 -86 45zM309 190h236l63 244h-235z" />
<glyph unicode="$" horiz-adv-x="583" d="M51 500q0 73 60 121.5t139 60.5q2 61 2 84q0 45 41 45q18 0 29.5 -12.5t11.5 -32.5q0 -29 -2 -82q75 -9 125 -35q35 -17 35 -43q0 -20 -9 -28.5t-20 -8.5t-51 15q-55 20 -117 20q-68 0 -115 -25.5t-47 -78.5q0 -13 4.5 -24.5t15 -22t20.5 -18.5t29 -17.5t31.5 -15.5 t36.5 -16.5t37 -16.5q115 -53 151 -79q77 -55 77 -132q0 -165 -203 -174q2 -49 2 -68q0 -20 -11.5 -32.5t-29.5 -12.5q-41 0 -41 45q0 13 -2 68q-76 12 -144 43q-45 20 -45 51q0 39 31 39q11 0 49 -19q72 -35 146 -35q166 0 166 95q0 22 -14 41t-44.5 37.5t-54 29.5 t-66.5 29q-110 44 -145 67q-78 52 -78 138z" />
<glyph unicode="%" horiz-adv-x="1316" d="M41 444q0 99 72.5 170.5t175.5 71.5q104 0 177 -70.5t73 -171.5q0 -99 -73.5 -173t-176.5 -74q-99 0 -173.5 71t-74.5 176zM123 444q0 -73 44.5 -119t121.5 -46q78 0 123 46t45 119q0 76 -44 118t-124 42q-78 0 -122 -43.5t-44 -116.5zM403 25q0 13 23 47l403 573 q22 31 43 31t32 -13.5t11 -27.5q0 -13 -20 -45l-406 -576q-21 -30 -40 -30q-23 0 -34.5 12.5t-11.5 28.5zM778 229q0 99 72.5 170.5t175.5 71.5q104 0 177 -70.5t73 -171.5q0 -99 -73.5 -173t-176.5 -74q-99 0 -173.5 71t-74.5 176zM860 229q0 -73 44.5 -119.5t121.5 -46.5 q78 0 123 46t45 120q0 76 -44 118t-124 42q-78 0 -122 -43.5t-44 -116.5z" />
<glyph unicode="&#x26;" horiz-adv-x="737" d="M70 170q0 55 36 98.5t109 89.5q-90 90 -90 166q0 67 46 114.5t134 47.5q98 0 142.5 -47t44.5 -121q0 -43 -35 -90t-107 -86q35 -35 185 -174q28 26 52 57t34 49l10 17q16 26 41 26q21 0 31 -11t10 -23q0 -16 -8 -29q-41 -71 -111 -139q23 -23 63 -58q25 -21 25 -41 q0 -12 -10 -23t-29 -11q-12 0 -29 8.5t-28 19.5l-56 49q-108 -77 -235 -77q-112 0 -168.5 54.5t-56.5 133.5zM152 170q0 -45 35.5 -76t107.5 -31q92 0 174 54l-195 184q-62 -36 -92 -66.5t-30 -64.5zM207 524q0 -45 82 -123q62 29 91.5 59.5t29.5 57.5q0 86 -105 86 q-48 0 -73 -23t-25 -57z" />
<glyph unicode="'" horiz-adv-x="225" d="M72 1026q2 24 9 35.5t30 11.5q25 0 34 -14t9 -43q0 -3 0.5 -62.5t1 -116t0.5 -51.5q-3 -43 -43 -43q-18 0 -28.5 12t-10.5 33q-2 45 -2 238z" />
<glyph unicode="(" horiz-adv-x="456" d="M47 272q0 97 23.5 180t60 137.5t78 96.5t82.5 64.5t68 33.5t38 11q27 0 27 -27q0 -11 -25 -29q-5 -3 -43 -27t-59 -40t-58 -56t-57 -82t-36.5 -110.5t-16.5 -149.5q0 -54 8.5 -101.5t21 -82t33 -66t38 -51t43.5 -39.5t42 -30t40.5 -24t33.5 -19q35 -21 35 -41 q0 -27 -27 -27q-15 0 -50.5 13t-88 48.5t-98.5 86t-79.5 138.5t-33.5 193z" />
<glyph unicode=")" horiz-adv-x="456" d="M33 -180q0 20 35 41q9 5 33.5 19t40.5 24t42 30t43.5 39.5t38 51t33 66t21 82t8.5 101.5q0 81 -16.5 149.5t-37 110.5t-57 82t-58 56t-59.5 40t-43 27q-24 17 -24 29q0 27 26 27q15 0 50.5 -14.5t88 -53t99 -94t80 -151t33.5 -210.5q0 -105 -33.5 -193t-80 -138.5 t-99 -86t-88 -48.5t-50.5 -13q-26 0 -26 27z" />
<glyph unicode="*" horiz-adv-x="624" d="M63 598q0 19 25 37q136 86 143 90q-132 85 -133 86q-35 21 -35 41q0 19 9.5 32t27.5 13q11 0 41 -18q82 -54 131 -80v166q0 23 8 35t31 12q25 0 34 -14.5t9 -43.5v-155q25 16 129 80q30 18 41 18q18 0 27.5 -13t9.5 -32q0 -20 -35 -41l-135 -86l146 -90q24 -17 24 -37 q0 -15 -13 -28t-28 -13q-11 0 -28 10q-8 3 -138 84v-159q0 -23 -12 -35.5t-31 -12.5q-18 0 -28.5 12t-10.5 33q0 42 -1 94t-1 68l-137 -84q-17 -10 -29 -10q-15 0 -28 13t-13 28z" />
<glyph unicode="+" horiz-adv-x="774" d="M41 346q0 14 13.5 24.5t43.5 10.5q92 -2 248 -2q2 82 2 258q0 23 8 35t31 12q25 0 34 -14t9 -43v-248l246 4q30 0 43.5 -10.5t13.5 -24.5q0 -45 -86 -45q-10 0 -45 -1t-86.5 -2.5t-85.5 -2.5v-268q0 -23 -12 -35t-31 -12q-18 0 -28.5 12t-10.5 33q0 46 -1 135.5t-1 134.5 q-41 0 -116.5 2t-102.5 2q-86 0 -86 45z" />
<glyph unicode="," horiz-adv-x="356" d="M70 88q0 47 31.5 78t76.5 31q42 0 74.5 -33.5t32.5 -81.5q0 -71 -103 -197q-1 -1 -6 -7.5t-7 -9t-6.5 -8t-7 -8t-7.5 -7t-8.5 -6.5t-8 -4.5t-9 -3.5t-9.5 -1q-15 0 -27 11t-12 32q0 7 5 16t10.5 15.5t14.5 15.5t11 12q7 9 22 26.5t21 25.5q-36 8 -62 36.5t-26 67.5z" />
<glyph unicode="-" horiz-adv-x="694" d="M82 354q0 14 13.5 24.5t43.5 10.5q129 -8 240 -8l176 2q30 0 43.5 -10.5t13.5 -24.5q0 -45 -86 -45h-147q-56 0 -125.5 3t-85.5 3q-86 0 -86 45z" />
<glyph unicode="." horiz-adv-x="354" d="M70 88q0 47 31.5 78t76.5 31q41 0 74 -33t33 -76q0 -44 -33.5 -75t-73.5 -31t-74 31t-34 75z" />
<glyph unicode="/" horiz-adv-x="391" d="M45 -104q0 10 6 34l207 797q12 47 47 47q23 0 32 -14.5t9 -26.5q0 -11 -6 -35l-207 -796q-12 -47 -47 -47q-23 0 -32 14.5t-9 26.5z" />
<glyph unicode="0" horiz-adv-x="839" d="M55 334q0 139 109 246.5t256 107.5q146 0 255 -107.5t109 -246.5q0 -82 -36 -151.5t-91.5 -112t-118 -65.5t-120.5 -23t-119 21.5t-117 62.5t-91.5 111t-35.5 157zM139 334q0 -69 28 -123.5t71.5 -85t91 -46.5t92.5 -16q44 0 91 17t89.5 48.5t70 85.5t27.5 120 q0 106 -87 189t-193 83t-193.5 -84t-87.5 -188z" />
<glyph unicode="1" horiz-adv-x="444" d="M29 549q0 31 34 43t146 59q20 9 38 19t26.5 13t19.5 3q41 0 41 -47q0 -14 -1 -53.5t-1 -63.5q2 -79 5 -198.5t5 -200t2 -94.5q0 -21 -10.5 -34t-26.5 -13q-45 0 -45 47l-2 87q-3 87 -5.5 206t-2.5 198v41q0 22 -5 22q-2 0 -5 -1l-142 -66q-16 -8 -32 -8q-15 0 -27 10 t-12 31z" />
<glyph unicode="2" horiz-adv-x="577" d="M59 604q0 26 33 43q80 39 154 39q127 0 192.5 -59.5t65.5 -159.5q0 -30 -7 -60t-21 -57.5t-28 -52t-36.5 -49t-38.5 -42t-40 -38t-35 -30t-31 -24.5t-21 -16q-6 -5 -14.5 -10t-12.5 -7.5t-4 -4.5q0 -4 14 -4l33 1q33 1 68 1l153 -2q41 0 41 -43q0 -15 -10 -27t-31 -12 q-109 2 -164 2l-196 -2q-34 0 -48 10t-14 31q0 15 27 39q7 7 38.5 29t66.5 46.5t76.5 62t74 76t54.5 87t22 96.5q0 70 -42 103.5t-132 33.5q-15 0 -29 -1.5t-23.5 -3t-22 -5.5t-17.5 -6l-17.5 -7t-15.5 -6q-19 -8 -29 -8q-12 0 -22.5 9.5t-10.5 27.5z" />
<glyph unicode="3" horiz-adv-x="579" d="M57 643q0 39 54 39q102 -2 153 -2l197 2q34 0 47.5 -10t13.5 -31q0 -22 -26 -45q-77 -77 -252 -213q-23 -16 -23 -18q23 8 70 8q110 0 164.5 -53.5t54.5 -135.5q0 -95 -64.5 -148.5t-191.5 -53.5q-88 0 -158 36q-35 16 -35 48q0 10 9 19t20 9t41 -10q61 -21 123 -21 q91 0 132.5 29t41.5 92q0 52 -37.5 82.5t-97.5 30.5q-48 0 -79 -7t-36 -7q-24 0 -39.5 16.5t-15.5 38.5q0 29 22 49q39 36 113 97t92 79l6 5q6 5 11.5 10t10.5 10.5t5 7.5q0 4 -18 4l-38 -1q-38 -1 -73 -1l-143 2q-54 0 -54 43z" />
<glyph unicode="4" horiz-adv-x="575" d="M39 211q0 34 24 100q12 31 39 114t48 151l22 67q15 43 49 43q35 0 35 -37q0 -12 -6 -33q-82 -255 -107 -321q-16 -50 -16 -57q0 -15 23 -15q10 0 50 1t99.5 2.5t97.5 2.5q-4 188 -4 211q0 47 45 47q16 0 26.5 -13t10.5 -34q0 -127 2 -209h19q45 0 45 -41q0 -40 -45 -40 h-19v-5q0 -24 2 -63t2 -53q0 -47 -41 -47t-41 49q0 1 -0.5 17t-1 43.5t-0.5 55.5q-43 -1 -112 -2.5t-115.5 -2.5t-56.5 -1q-74 0 -74 70z" />
<glyph unicode="5" horiz-adv-x="563" d="M51 68q0 14 10 23t25 9q18 0 37 -8q3 -1 18 -7.5t22 -8.5t21.5 -6t29.5 -5.5t32 -1.5q95 0 137.5 32.5t42.5 101.5q0 59 -44.5 94t-115.5 35q-47 0 -83 -8.5t-42 -8.5q-22 0 -34.5 16t-12.5 44v153q0 28 -1 56t-2 45t-1 18q0 21 14 31t48 10q136 -2 165 -2l113 2 q51 0 51 -39q0 -43 -43 -43q-53 -2 -110 -2q-41 0 -71 0.5t-45 1t-19 0.5q-19 0 -19 -18q0 -8 1 -26.5t1 -33.5v-110q0 -19 17 -19q4 0 28 5t45 5q124 0 184 -57.5t60 -148.5q0 -100 -67 -157.5t-197 -57.5q-84 0 -158 36q-37 18 -37 50z" />
<glyph unicode="6" horiz-adv-x="587" d="M55 236q0 53 13 103t31.5 87.5t48.5 74.5t54 60.5t59 49t52.5 36.5t44.5 27q21 12 45 12q14 0 23.5 -9t9.5 -22q0 -22 -20 -32q-186 -101 -246 -234q57 41 147 41q111 0 170.5 -64.5t59.5 -150.5q0 -105 -66 -169t-184 -64q-93 0 -167.5 65.5t-74.5 188.5zM137 236 q0 -84 48.5 -128.5t111.5 -44.5q82 0 125 38.5t43 113.5q0 54 -38 93.5t-110 39.5q-86 0 -133 -38t-47 -74z" />
<glyph unicode="7" horiz-adv-x="559" d="M33 643q0 39 51 39q113 -2 164 -2l217 2q34 0 46.5 -9.5t12.5 -29.5q0 -24 -14 -49q-25 -48 -65.5 -140.5t-51.5 -115.5l43 2q24 0 35.5 -11t11.5 -26q0 -43 -55 -43q-6 0 -29.5 -1t-42.5 -1q-59 -128 -102 -240q-13 -36 -41 -36q-18 0 -27.5 11.5t-9.5 26.5t12 39 l91 199h-107q-55 0 -55 43q0 16 11.5 27.5t35.5 11.5q84 -2 137 -2h12l97 227q1 2 4 9.5t5.5 13.5t2.5 8q0 4 -14 4q-80 -2 -170 -2l-154 2q-51 0 -51 43z" />
<glyph unicode="8" horiz-adv-x="608" d="M57 180q0 130 125 174q-92 47 -92 142t60 142.5t151 47.5q92 0 154.5 -47.5t62.5 -142.5q0 -97 -96 -144q129 -45 129 -172q0 -97 -72 -147.5t-178 -50.5q-107 0 -175.5 48.5t-68.5 149.5zM141 180q0 -58 46 -87.5t114 -29.5q69 0 117.5 29.5t48.5 87.5q0 39 -16.5 66 t-44 38.5t-52 16t-51.5 4.5q-162 0 -162 -125zM172 498q0 -56 42 -83.5t89 -27.5q46 0 89.5 27.5t43.5 83.5q0 52 -39.5 80t-95.5 28q-54 0 -91.5 -28t-37.5 -80z" />
<glyph unicode="9" horiz-adv-x="587" d="M41 453q0 105 66 169t184 64q93 0 167 -65.5t74 -188.5q0 -53 -13 -103t-31.5 -87.5t-48.5 -74.5t-54 -60.5t-59 -49t-52.5 -36.5t-44.5 -27q-21 -12 -45 -12q-14 0 -23 8.5t-9 21.5q0 23 20 33q29 16 42.5 24t49 33t58.5 47t51 57t45 73q-61 -41 -148 -41 q-111 0 -170 64.5t-59 150.5zM123 453q0 -55 37.5 -94.5t109.5 -39.5q86 0 133.5 38.5t47.5 74.5q0 84 -48.5 128t-111.5 44q-168 0 -168 -151z" />
<glyph unicode=":" horiz-adv-x="378" d="M82 88q0 47 31.5 78t76.5 31q41 0 74 -33t33 -76q0 -44 -33.5 -75t-73.5 -31t-74 31t-34 75zM82 578q0 47 31.5 77.5t76.5 30.5q42 0 74.5 -33t32.5 -75q0 -44 -33.5 -75.5t-73.5 -31.5t-74 31.5t-34 75.5z" />
<glyph unicode=";" horiz-adv-x="378" d="M82 88q0 47 31.5 78t76.5 31q42 0 74.5 -33.5t32.5 -81.5q0 -72 -102 -197q-33 -42 -51 -50q-10 -5 -19 -5q-15 0 -27 11t-12 32q0 12 6.5 22.5t19.5 22.5t15 14q7 9 22 26.5t21 25.5q-36 8 -62 36.5t-26 67.5zM82 578q0 47 31.5 77.5t76.5 30.5q42 0 74.5 -33t32.5 -75 q0 -44 -33.5 -75.5t-73.5 -31.5t-74 31.5t-34 75.5z" />
<glyph unicode="&#x3c;" horiz-adv-x="620" d="M37 324q0 21 24.5 41t102.5 67q52 32 162.5 93t144.5 81q41 23 53 23q14 0 23.5 -11t9.5 -24q0 -18 -47 -55q-35 -27 -91 -60t-149.5 -85t-124.5 -70q33 -19 124 -68.5t147.5 -82.5t91.5 -60q49 -36 49 -58q0 -13 -9.5 -24t-23.5 -11q-12 0 -53 23q-32 19 -148 83.5 t-171 98.5q-10 6 -27.5 16t-25.5 15t-20.5 13t-18 13.5t-12 12.5t-9 14t-2.5 15z" />
<glyph unicode="=" horiz-adv-x="808" d="M82 180q0 14 13.5 24.5t43.5 10.5q129 -6 240 -6q58 0 131 2t116 4l44 2q30 0 43.5 -10.5t13.5 -24.5q0 -45 -86 -45q-19 0 -107 -3t-155 -3q-56 0 -125.5 2t-85.5 2q-86 0 -86 45zM82 541q0 14 13.5 24t43.5 10q129 -6 240 -6q58 0 131 2.5t116 4.5l44 2 q30 0 43.5 -10.5t13.5 -24.5q0 -45 -86 -45q-19 0 -107 -3t-155 -3q-56 0 -125.5 2t-85.5 2q-86 0 -86 45z" />
<glyph unicode="&#x3e;" horiz-adv-x="620" d="M63 55q0 21 50 58q35 27 90.5 59.5t148 83.5t123.5 68q-28 16 -123.5 69.5t-150.5 86t-90 59.5q-48 38 -48 55q0 13 9.5 24t23.5 11q13 0 54 -23q34 -20 144.5 -81t162.5 -93q43 -26 59.5 -36.5t36.5 -25.5t25.5 -25t5.5 -21q0 -8 -2.5 -15t-9 -14t-12 -12.5t-18 -13.5 t-20.5 -13t-25.5 -15t-27.5 -16q-55 -34 -171 -98.5t-148 -83.5q-41 -23 -54 -23q-14 0 -23.5 11t-9.5 24z" />
<glyph unicode="?" horiz-adv-x="452" d="M39 582q0 18 9 30.5t36 32.5q57 41 139 41q97 0 143 -40.5t46 -129.5q0 -40 -25.5 -83t-56.5 -73.5t-56.5 -63.5t-25.5 -56q0 -52 -39 -52q-22 0 -32.5 15t-10.5 37q0 33 17 64t41 55.5t48 48t41 51.5t17 57q0 40 -27 64t-80 24q-61 0 -100 -31q-32 -24 -53 -24 q-31 0 -31 33zM143 45q0 28 19 47t47 19q25 0 44 -20t19 -46q0 -27 -19.5 -45t-43.5 -18q-25 0 -45.5 18t-20.5 45z" />
<glyph unicode="@" horiz-adv-x="1406" d="M43 324q0 139 37 256t100 198.5t147 138.5t177 84t190 27q134 0 254.5 -40.5t212 -113.5t145.5 -184.5t54 -245.5q0 -107 -23 -191.5t-57 -133.5t-78 -81.5t-82 -44t-73 -11.5q-65 0 -105.5 30t-58.5 97q-35 -50 -94 -88.5t-144 -38.5q-127 0 -203.5 91t-76.5 255 q0 92 37 173t110 133t166 52q136 0 206 -72.5t70 -191.5q0 -30 -1 -81t-1 -99q0 -102 22.5 -140.5t72.5 -38.5q26 0 53.5 9.5t60.5 36t58 67.5t42 110.5t17 157.5q0 118 -47.5 214.5t-128.5 158.5t-186 95.5t-222 33.5q-108 0 -208 -39t-181.5 -113.5t-130.5 -196 t-49 -273.5q0 -78 19 -147t46.5 -115.5t66 -87.5t68 -63.5t62.5 -41.5q64 -37 64 -72q0 -30 -31 -30q-19 0 -43 12q-38 19 -73.5 42t-86 70.5t-86.5 103.5t-62 143t-26 186zM446 328q0 -125 54.5 -195t144.5 -70q48 0 89.5 14t69 36t43 38.5t25.5 32.5q-2 18 -2 58 q0 48 1 99t1 81q0 83 -46 132.5t-148 49.5q-101 0 -166.5 -83t-65.5 -193z" />
<glyph unicode="A" horiz-adv-x="716" d="M14 14q0 11 21 58l196 460q66 156 127 156t127 -156l199 -456q21 -47 21 -58t-8.5 -21.5t-30.5 -10.5q-18 0 -28 10.5t-20 34.5q-12 22 -47 106q-15 -6 -43 -6q-11 0 -91.5 -1t-119.5 -1q-15 0 -79 1t-91 1l-45 -104q-10 -23 -20.5 -34t-28.5 -11q-22 0 -30.5 10.5 t-8.5 21.5zM180 209q45 -2 137 -2q182 0 222 4l-125 289q-4 10 -13 30.5t-13 30.5t-10.5 22.5t-11 17.5t-8.5 5q-6 0 -13 -12t-21 -47t-19 -47z" />
<glyph unicode="B" horiz-adv-x="681" d="M90 541q0 78 19.5 106.5t74.5 28.5h115q281 0 281 -184q0 -66 -36.5 -107t-97.5 -55v-2q91 0 138 -47.5t47 -114.5q0 -87 -72 -135.5t-178 -48.5h-117q-95 0 -128.5 29t-33.5 93q0 68 -6 213t-6 224zM176 471q0 -17 2 -54.5t2 -56.5q9 0 47 -1t84 -1q20 0 41 2.5t48.5 11 t48 22.5t35 39.5t14.5 58.5q0 102 -199 102h-90q-33 0 -33 -33v-90zM180 285q4 -53 4 -181q0 -22 16 -31.5t64 -9.5h117q82 0 125 30.5t43 72.5q0 117 -242 117q-28 0 -70.5 1t-56.5 1z" />
<glyph unicode="C" horiz-adv-x="710" d="M53 322q0 80 33.5 150t86 116.5t117.5 73t128 26.5q108 0 174.5 -27t66.5 -59q0 -37 -36 -37q-13 0 -27 6.5t-28.5 14t-53.5 14t-96 6.5q-62 0 -126.5 -34.5t-110.5 -101.5t-46 -148q0 -66 27 -117.5t69.5 -81.5t90.5 -45t96 -15q73 0 114 10.5t58.5 20.5t32.5 10 q36 0 36 -36q0 -32 -66.5 -59t-174.5 -27q-50 0 -99 11t-97.5 37.5t-85.5 64.5t-60 97t-23 130z" />
<glyph unicode="D" horiz-adv-x="757" d="M90 547q0 78 19.5 106.5t74.5 28.5h142q189 0 282.5 -95t93.5 -253q0 -169 -111.5 -260.5t-287.5 -91.5q-117 0 -159 28.5t-42 91.5q0 70 -6 217t-6 228zM170 477q0 -53 7 -167.5t7 -176.5q0 -36 24.5 -53t94.5 -17q155 0 236.5 70.5t81.5 196.5q0 134 -74.5 202 t-220.5 68h-111q-16 0 -30.5 -9t-14.5 -30v-84z" />
<glyph unicode="E" horiz-adv-x="604" d="M94 600q0 84 96 84q17 0 155 1l138 1q22 0 37 -11t15 -28q0 -21 -15.5 -32t-32.5 -11q-239 -2 -266 -2q-45 0 -45 -33q0 -28 2.5 -107t3.5 -108h84l166 4q24 0 35.5 -11.5t11.5 -27.5q0 -40 -65 -40q-11 0 -60 -1.5t-88 -1.5q-36 0 -82 3v-35q0 -24 -1 -61t-1 -42 q0 -19 1 -27t7.5 -19.5t23.5 -16t46 -4.5l256 2q19 0 33 -12.5t14 -30.5q0 -41 -45 -41h-289q-38 0 -63.5 7.5t-38.5 17t-19.5 29t-7 30.5t-0.5 35q0 6 0.5 29t0.5 49.5t-1 54.5q0 65 -3 193.5t-3 162.5z" />
<glyph unicode="F" horiz-adv-x="587" d="M96 600q0 47 27 68.5t70 21.5q14 0 89.5 0.5t146.5 1t73 0.5q22 0 34.5 -11t12.5 -28q0 -21 -13.5 -32t-29.5 -11q-254 -2 -283 -2q-45 0 -45 -39q0 -28 2.5 -107t3.5 -108h70l166 4q24 0 35.5 -11.5t11.5 -27.5q0 -40 -66 -40q-11 0 -59.5 -1.5t-87.5 -1.5h-68v-26 q1 -33 1 -60q-1 -12 -1 -24q0 -34 -1 -75.5t-1 -53.5q0 -45 -49 -45q-35 0 -35 59q0 11 2 79.5t2 119.5q-1 48 -4.5 177.5t-3.5 172.5z" />
<glyph unicode="G" horiz-adv-x="731" d="M53 322q0 80 33.5 150t86 116.5t117.5 73t128 26.5q108 0 174.5 -27t66.5 -59q0 -37 -36 -37q-13 0 -27 6.5t-28.5 14t-53.5 14t-96 6.5q-62 0 -126.5 -34.5t-110.5 -101.5t-46 -148q0 -66 27 -117.5t69.5 -81.5t90.5 -45t96 -15q94 0 141 19q14 8 19.5 18.5t5.5 32.5 q0 13 1 41t1 41q0 12 -1 17.5t-6.5 10.5t-17.5 5h-145q-23 0 -37 11t-14 32q0 14 15.5 26.5t37.5 12.5q125 -2 203 -2q45 0 45 -47l-2 -177q0 -49 -46 -77q-72 -45 -200 -45q-50 0 -99 11t-97.5 37.5t-85.5 64.5t-60 97t-23 130z" />
<glyph unicode="H" horiz-adv-x="772" d="M98 520v117q0 49 41 49t41 -47q0 -14 -1 -53.5t-1 -63.5q0 -58 4 -176q23 0 75.5 -1t72.5 -1l229 4q21 0 31 -10q-8 286 -8 301q0 21 10.5 34t25.5 13q22 0 34 -12.5t12 -34.5q0 -2 2.5 -87.5t5.5 -205.5t4 -199q1 -22 0.5 -43.5t-1 -35.5t-1 -25t-0.5 -12q0 -49 -41 -49 t-41 47q0 14 2 53t2 63l-4 136q-13 -13 -51 -13q-11 0 -91.5 -1t-119.5 -1q-12 0 -65.5 1t-80.5 1q1 -52 2.5 -108t2.5 -90t1 -41q0 -21 -10.5 -34t-25.5 -13q-45 0 -45 47q0 2 -2.5 87.5t-5 205.5t-3.5 198z" />
<glyph unicode="I" horiz-adv-x="376" d="M41 633q0 43 58 43h5l74 -2l78 2h5q58 0 58 -43q0 -12 -13 -23.5t-34 -11.5h-47v-86l11 -453h51q25 0 36 -10.5t11 -23.5q0 -43 -64 -43h-151q-64 0 -64 43q0 12 13 23t34 11h52l-9 451q0 23 -1 52t-1 36h-55q-25 0 -36 11t-11 24z" />
<glyph unicode="J" horiz-adv-x="495" d="M35 78q0 35 33 35q8 0 24 -11q1 -1 17.5 -11.5t24.5 -15t27 -9.5t40 -5q32 0 55 11.5t34 26t17 40.5t7 43t1 45q0 39 1 140t2 187t1 87q0 47 43 47q18 0 29.5 -12.5t11.5 -34.5q-4 -326 -4 -414q0 -28 -1 -46.5t-5 -46.5t-11 -47t-22 -40.5t-35.5 -34.5t-52 -21.5 t-71.5 -8.5q-76 0 -127 34q-39 30 -39 62z" />
<glyph unicode="K" horiz-adv-x="657" d="M95.5 564q0.5 22 1 36t1 25t0.5 12q0 49 41 49t41 -47q0 -14 -2 -53.5t-2 -63.5q0 -20 1 -63t1 -66q297 226 361 277q25 18 51 18q11 0 19.5 -9t8.5 -22q0 -27 -32 -51q-239 -172 -328 -248q-22 -16 -22 -26q0 -3 5.5 -7t13.5 -9.5t11 -8.5q64 -62 322 -248 q33 -24 33 -47q0 -13 -9 -21.5t-20 -8.5q-26 0 -43 12q-8 6 -73.5 53.5t-152 111t-141.5 105.5q2 -46 4 -106t3 -90.5t1 -38.5q0 -21 -10.5 -34t-25.5 -13q-45 0 -45 47q0 2 -3 87.5t-6 205t-4 198.5q-1 22 -0.5 44z" />
<glyph unicode="L" horiz-adv-x="593" d="M94 641q0 47 43 47q18 0 29.5 -12.5t11.5 -34.5q0 -79 3 -216t3 -185q0 -24 -1 -61t-1 -42q0 -19 1 -27t7.5 -19.5t23.5 -16t46 -4.5l256 2q15 0 31 -13t16 -30q0 -41 -45 -41h-289q-27 0 -48 4t-34.5 9t-23 16t-14 18.5t-7 23t-2.5 23v24.5v134q0 66 -3 199t-3 202z" />
<glyph unicode="M" horiz-adv-x="946" d="M90 27q19 454 19 536q0 74 11 101.5t36 27.5q36 0 69 -65q102 -197 191 -346q44 -78 59 -78t64 86q66 110 184 338q33 65 68 65q25 0 36 -27.5t11 -101.5l18 -536q0 -45 -37 -45q-43 0 -43 43l-5 101q-5 100 -10 215t-5 151q0 18 -8 18t-17 -18q-121 -233 -196 -338 q-32 -45 -60 -45q-30 0 -61 43q-97 135 -203 340q-9 18 -14 18q-7 0 -7 -18q0 -36 -5 -151t-10 -215l-5 -101q0 -43 -43 -43q-37 0 -37 45z" />
<glyph unicode="N" horiz-adv-x="800" d="M98 520v117q0 49 41 49q23 0 33 -16q28 -42 192.5 -241t245.5 -288l15 -16v20q-2 81 -5 199.5t-5.5 200t-2.5 94.5q0 21 10.5 34t26.5 13q45 0 45 -47q0 -2 2.5 -87.5t5 -206t3.5 -198.5v-116q0 -49 -41 -49q-24 0 -41 20q-6 8 -19.5 25.5t-26.5 33.5t-26 31 q-156 181 -373 451v-21q2 -79 5 -198.5t5 -200t2 -94.5q0 -21 -10.5 -34t-25.5 -13q-45 0 -45 47q0 2 -2.5 87.5t-5 205.5t-3.5 198z" />
<glyph unicode="O" d="M53 334q0 139 109 246.5t256 107.5q146 0 255 -107.5t109 -246.5q0 -82 -36 -151.5t-91.5 -112t-118 -65.5t-120.5 -23t-119 21.5t-117 62.5t-91.5 111t-35.5 157zM137 334q0 -69 28 -123.5t71.5 -85t91 -46.5t92.5 -16q44 0 91 17t89.5 48.5t70 85.5t27.5 120 q0 106 -87 189t-193 83t-193.5 -84t-87.5 -188z" />
<glyph unicode="P" horiz-adv-x="675" d="M98 354l4 258q0 70 80 70h76q48 0 91.5 -4.5t97.5 -21t92.5 -44t65 -78t26.5 -118.5q0 -260 -346 -260q-38 0 -92 4h-11l2 -131q0 -22 -12.5 -34.5t-30.5 -12.5q-19 0 -29 13.5t-10 33.5q-4 233 -4 325zM180 242h15q25 -2 90 -2q41 0 73.5 3t70 13.5t62.5 29t41.5 52 t16.5 78.5q0 47 -21.5 82.5t-52 54.5t-73.5 30t-76.5 14t-71.5 3h-35q-33 0 -35 -25q-4 -160 -4 -223v-110z" />
<glyph unicode="Q" d="M53 334q0 139 109 246.5t256 107.5q146 0 255 -107.5t109 -246.5q0 -97 -46.5 -172t-121.5 -121l97 -84q25 -25 25 -45q0 -12 -9 -21q-10 -8 -23 -8q-27 0 -69 37q-49 43 -92 86q-65 -24 -127 -24q-58 0 -119 21.5t-117 62.5t-91.5 111t-35.5 157zM137 334 q0 -69 28 -123.5t71.5 -85t91 -46.5t92.5 -16q44 0 91 17t89.5 48.5t70 85.5t27.5 120q0 106 -87 189t-193 83t-193.5 -84t-87.5 -188z" />
<glyph unicode="R" horiz-adv-x="712" d="M98 354l4 258q0 70 80 70h76q39 0 75 -3t81.5 -11.5t81.5 -26t68 -43.5t49.5 -67.5t17.5 -94.5q0 -172 -174 -221l18 -16q22 -20 48.5 -57t46.5 -59t42 -22h31q12 0 23.5 -10.5t11.5 -27.5q0 -19 -17.5 -30t-48.5 -11q-28 0 -53 10.5t-49.5 34.5t-37.5 38.5t-37.5 50 t-28.5 40.5q-17 24 -30 33.5t-38 9.5q-9 0 -27 -1t-26 -1q-38 0 -92 4h-13l4 -172q0 -22 -12.5 -34.5t-30.5 -12.5q-19 0 -29 13.5t-10 33.5q-4 233 -4 325zM180 283h15q25 -2 90 -2q52 0 92.5 5.5t82.5 20.5t65.5 47.5t23.5 81.5q0 52 -30 87t-80 50.5t-93 21t-92 5.5h-35 q-33 0 -35 -25q-4 -160 -4 -223v-69z" />
<glyph unicode="S" horiz-adv-x="587" d="M57 500q0 84 77.5 135t166.5 51q90 0 162 -37q35 -17 35 -43q0 -20 -9 -28.5t-20 -8.5t-51 15q-55 20 -117 20q-68 0 -115 -25.5t-47 -78.5q0 -13 4.5 -24.5t15 -22t20.5 -18.5t29 -17.5t31.5 -15.5t36.5 -16.5t37 -16.5q115 -53 151 -79q77 -55 77 -132q0 -48 -18.5 -83 t-43 -52.5t-63 -27.5t-64 -11.5t-59.5 -1.5q-79 0 -180 45q-45 20 -45 51q0 39 30 39q11 0 49 -19q72 -35 146 -35q166 0 166 95q0 22 -14 41t-44 37t-53.5 29.5t-66.5 29.5q-110 44 -145 67q-79 52 -79 138z" />
<glyph unicode="T" horiz-adv-x="628" d="M27 653q0 16 11.5 27.5t35.5 11.5q129 -8 231 -8q48 0 110.5 2t100.5 4l39 2q24 0 35.5 -11t11.5 -26q0 -43 -55 -43q-20 0 -85.5 -3.5t-107.5 -4.5v-102q0 -84 3 -194t5.5 -190t2.5 -89q0 -21 -10.5 -34t-26.5 -13q-45 0 -45 47q0 70 -9 471q-2 53 -2 104q-48 0 -112 3 t-78 3q-55 0 -55 43z" />
<glyph unicode="U" horiz-adv-x="794" d="M88 629q0 30 9 44.5t32 14.5q21 0 32 -14t11 -35q4 -150 4 -164v-178q0 -46 10.5 -85.5t34 -74t68 -54.5t106.5 -20q63 0 109 19t71 52t36.5 71.5t11.5 83.5v194q0 36 -1.5 74t-3.5 58l-2 20q0 53 39 53q43 0 43 -51q5 -61 7 -137q1 -30 1 -66t-0.5 -79.5t-0.5 -65.5 q0 -62 -15.5 -114.5t-49.5 -97t-96.5 -70t-148.5 -25.5q-85 0 -147 30.5t-94.5 79.5t-47 100.5t-14.5 104.5v170q0 35 -1 74t-2 63z" />
<glyph unicode="V" horiz-adv-x="716" d="M14 655q0 11 8.5 22t30.5 11q18 0 28.5 -11t20.5 -34q13 -27 58 -131l145 -342q6 -13 13 -31t11.5 -30t10 -23.5t10 -17t8.5 -5.5t8.5 5.5t11 17.5t11 22.5t12.5 30.5t13 31l147 338l57 131q10 24 20 34.5t28 10.5q22 0 30.5 -11t8.5 -22q0 -10 -21 -57l-51 -119 l-148 -338q-66 -155 -127 -155t-127 155l-145 342l-51 119q-21 47 -21 57z" />
<glyph unicode="W" horiz-adv-x="1001" d="M27 655q0 31 36 31q35 0 52 -57q103 -343 131 -449q6 -24 12.5 -55.5t9.5 -46.5t6 -15t7.5 17.5t12.5 50t15 55.5q6 21 62.5 193t77.5 242q20 65 53 65q35 0 55 -65q21 -70 77 -242t62 -193q7 -23 14.5 -55.5t11.5 -50t7 -17.5t6.5 14.5t11 47.5t13.5 55q41 157 129 449 q9 31 20.5 44t28.5 13q37 0 37 -31q0 -14 -10 -49l-129 -446q-23 -87 -46.5 -132.5t-60.5 -45.5q-33 0 -59 49t-52 131q-32 93 -116 385l-117 -385q-26 -82 -52 -131t-59 -49q-26 0 -47 27.5t-32.5 60.5t-26.5 90q-7 27 -31.5 110t-55.5 186.5t-44 149.5q-10 35 -10 49z" />
<glyph unicode="X" horiz-adv-x="698" d="M39 653q0 33 35 33q12 0 24 -7.5t20.5 -17t26.5 -30.5l203 -242l207 242q18 22 26 31t20 16.5t24 7.5q34 0 34 -33q0 -22 -34 -65l-222 -262q40 -47 88.5 -105t78.5 -93.5t40 -47.5q35 -44 35 -66q0 -32 -35 -32q-12 0 -24 7.5t-20.5 17t-26.5 30.5l-189 225l-190 -225 q-25 -30 -40 -42.5t-32 -12.5q-35 0 -35 32q0 19 37 66l207 246l-223 262q-35 44 -35 65z" />
<glyph unicode="Y" horiz-adv-x="632" d="M14 649q0 18 11.5 27.5t27.5 9.5q21 0 47 -41q162 -252 176 -270q1 -1 11 -15.5t18 -23t12 -8.5q9 0 35 34q32 43 187 283q26 41 43 41q16 0 27.5 -9.5t11.5 -27.5q0 -25 -23 -59q-157 -242 -188 -281q-36 -40 -56 -51q4 -208 4 -229t-10.5 -34t-25.5 -13q-22 0 -34 12.5 t-12 34.5q0 11 -4 233q-20 13 -47 47q-31 39 -188 281q-23 34 -23 59z" />
<glyph unicode="Z" horiz-adv-x="655" d="M41 31q0 5 0.5 9t2.5 9t3.5 7.5t5.5 8.5t5.5 8t7.5 9.5t8 9.5l420 512q-57 2 -158 2l-230 -4q-24 0 -35.5 11.5t-11.5 27.5q0 41 66 41q11 0 91.5 1t119.5 1q16 0 111.5 -1t121.5 -1q20 0 31.5 -10t11.5 -23q0 -27 -32 -67l-418 -512q57 -2 160 -2l229 4q24 0 35.5 -11.5 t11.5 -27.5q0 -41 -66 -41q-11 0 -91 -1t-119 -1q-16 0 -112 1t-124 1q-20 0 -32.5 12.5t-12.5 26.5z" />
<glyph unicode="[" horiz-adv-x="415" d="M90 -20q0 7 1.5 37t3.5 110t3 203q1 139 0.5 208t-1.5 120.5t-1 52.5q0 23 9 38.5t19 23t32.5 11.5t32 4h36.5h103q49 0 49 -43q0 -34 -49 -34h-107q-17 0 -30 -9.5t-13 -25.5q0 -4 0.5 -18t1 -39t1 -61t0.5 -96t-1 -132q-1 -112 -3 -192.5t-3.5 -115.5t-1.5 -42 q0 -56 49 -56h94q56 0 56 -39t-64 -39h-86q-74 0 -102.5 32.5t-28.5 101.5z" />
<glyph unicode="\" horiz-adv-x="391" d="M45 733q0 12 9 26.5t32 14.5q35 0 47 -47l207 -797q6 -24 6 -34q0 -12 -9 -26.5t-32 -14.5q-35 0 -47 47l-207 796q-6 24 -6 35z" />
<glyph unicode="]" horiz-adv-x="415" d="M39 745q0 43 49 43h102h36.5t32 -4t32.5 -11.5t19 -23t9 -38.5q0 -1 -1 -52.5t-1.5 -120.5t0.5 -208q1 -123 3 -202.5t4 -110t2 -37.5q0 -69 -28.5 -101.5t-102.5 -32.5h-86q-64 0 -64 39t55 39h95q49 0 49 56q0 7 -1.5 42t-3.5 115.5t-3 192.5q-1 72 -1 132t0.5 96t1 61 t1 39t0.5 18q0 16 -13 25.5t-30 9.5h-107q-49 0 -49 34z" />
<glyph unicode="^" horiz-adv-x="526" d="M47 852q0 15 19 37q23 28 67.5 85t46.5 60q2 2 11 12.5t12.5 13.5t12 11t14.5 10.5t15.5 5.5t18.5 3t18.5 -3t15.5 -5.5t14.5 -10.5t12 -11t12.5 -13.5t11 -12.5q6 -8 28 -36t46 -58t41 -51q18 -21 18 -37q0 -21 -12.5 -31t-28.5 -10q-20 0 -45 31l-96 114q-5 5 -11 13 t-9 10.5t-7 5t-8 2.5t-8 -2.5t-7 -5t-9 -10.5t-11 -13q-82 -96 -96 -114q-25 -31 -45 -31q-16 0 -28.5 10t-12.5 31z" />
<glyph unicode="_" horiz-adv-x="841" d="M88 43q0 14 13.5 24.5t43.5 10.5h312l248 2q30 0 43.5 -10.5t13.5 -24.5q0 -45 -86 -45h-219q-141 0 -190 -1t-93 -1q-86 0 -86 45z" />
<glyph unicode="`" horiz-adv-x="630" d="M143 965q0 20 13 35.5t28 15.5q21 0 62 -21q14 -7 92.5 -50t99.5 -52q49 -22 49 -45q0 -13 -9 -25t-27 -12q-16 0 -52 14q-96 38 -209 90q-47 19 -47 50z" />
<glyph unicode="a" horiz-adv-x="751" d="M86 45q0 2 0.5 20t1.5 48t2 68t1.5 89.5t0.5 102.5q0 42 8 82.5t28.5 83t51.5 74.5t81 52.5t114 20.5q63 0 113 -20.5t80.5 -52.5t51 -74.5t28.5 -83t9 -82.5q1 -80 2.5 -159.5t3 -123.5t1.5 -45q0 -23 -2 -34.5t-10.5 -20t-26.5 -8.5q-43 0 -43 47q-2 48 -2 116h-166 q-102 0 -244 5l-2 -121q0 -47 -43 -47q-25 0 -32 14.5t-7 48.5zM172 233q105 -6 242 -6q113 0 164 2q0 8 -1.5 50.5t-1.5 91.5q0 45 -10 83t-32 71t-62.5 52t-95.5 19q-56 0 -97 -19t-62.5 -52t-31.5 -71t-10 -83q0 -46 -1 -88t-1 -50z" />
<glyph unicode="b" horiz-adv-x="681" d="M90 541q0 78 19.5 106.5t74.5 28.5h115q281 0 281 -184q0 -66 -36.5 -107t-97.5 -55v-2q91 0 138 -47.5t47 -114.5q0 -87 -72 -135.5t-178 -48.5h-117q-95 0 -128.5 29t-33.5 93q0 68 -6 213t-6 224zM176 471q0 -17 2 -54.5t2 -56.5q9 0 47 -1t84 -1q20 0 41 2.5t48.5 11 t48 22.5t35 39.5t14.5 58.5q0 102 -199 102h-90q-33 0 -33 -33v-90zM180 285q4 -53 4 -181q0 -22 16 -31.5t64 -9.5h117q82 0 125 30.5t43 72.5q0 117 -242 117q-28 0 -70.5 1t-56.5 1z" />
<glyph unicode="c" horiz-adv-x="710" d="M53 322q0 80 33.5 150t86 116.5t117.5 73t128 26.5q108 0 174.5 -27t66.5 -59q0 -37 -36 -37q-13 0 -27 6.5t-28.5 14t-53.5 14t-96 6.5q-62 0 -126.5 -34.5t-110.5 -101.5t-46 -148q0 -66 27 -117.5t69.5 -81.5t90.5 -45t96 -15q73 0 114 10.5t58.5 20.5t32.5 10 q36 0 36 -36q0 -32 -66.5 -59t-174.5 -27q-50 0 -99 11t-97.5 37.5t-85.5 64.5t-60 97t-23 130z" />
<glyph unicode="d" horiz-adv-x="757" d="M90 547q0 78 19.5 106.5t74.5 28.5h142q189 0 282.5 -95t93.5 -253q0 -169 -111.5 -260.5t-287.5 -91.5q-117 0 -159 28.5t-42 91.5q0 70 -6 217t-6 228zM170 477q0 -53 7 -167.5t7 -176.5q0 -36 24.5 -53t94.5 -17q155 0 236.5 70.5t81.5 196.5q0 134 -74.5 202 t-220.5 68h-111q-16 0 -30.5 -9t-14.5 -30v-84z" />
<glyph unicode="e" horiz-adv-x="604" d="M94 600q0 84 96 84q17 0 155 1l138 1q22 0 37 -11t15 -28q0 -21 -15.5 -32t-32.5 -11q-239 -2 -266 -2q-45 0 -45 -33q0 -28 2.5 -107t3.5 -108h84l166 4q24 0 35.5 -11.5t11.5 -27.5q0 -40 -65 -40q-11 0 -60 -1.5t-88 -1.5q-36 0 -82 3v-35q0 -24 -1 -61t-1 -42 q0 -19 1 -27t7.5 -19.5t23.5 -16t46 -4.5l256 2q15 0 31 -13t16 -30q0 -41 -45 -41h-289q-38 0 -63.5 7.5t-38.5 17t-19.5 29t-7 30.5t-0.5 35v133q0 65 -3 193.5t-3 162.5z" />
<glyph unicode="f" horiz-adv-x="587" d="M96 600q0 47 27 68.5t70 21.5q14 0 89.5 0.5t146.5 1t73 0.5q22 0 34.5 -11t12.5 -28q0 -21 -13.5 -32t-29.5 -11q-254 -2 -283 -2q-45 0 -45 -39q0 -28 2.5 -107t3.5 -108h70l166 4q24 0 35.5 -11.5t11.5 -27.5q0 -40 -66 -40q-11 0 -59.5 -1.5t-87.5 -1.5h-68v-26 q1 -33 1 -60q0 -13 -1 -24q0 -35 -1 -76t-1 -53q0 -45 -49 -45q-35 0 -35 59q0 11 2 79.5t2 119.5q-1 48 -4.5 177.5t-3.5 172.5z" />
<glyph unicode="g" horiz-adv-x="731" d="M53 322q0 80 33.5 150t86 116.5t117.5 73t128 26.5q108 0 174.5 -27t66.5 -59q0 -37 -36 -37q-13 0 -27 6.5t-28.5 14t-53.5 14t-96 6.5q-62 0 -126.5 -34.5t-110.5 -101.5t-46 -148q0 -66 27 -117.5t69.5 -81.5t90.5 -45t96 -15q94 0 141 19q14 8 19.5 18.5t5.5 32.5 q0 13 1 41t1 41q0 12 -1 17.5t-6.5 10.5t-17.5 5h-145q-23 0 -37 11t-14 32q0 14 15.5 26.5t37.5 12.5q125 -2 203 -2q45 0 45 -47l-2 -177q0 -49 -46 -77q-41 -25 -87 -34t-113 -11q-50 0 -99 11t-97.5 37.5t-85.5 64.5t-60 97t-23 130z" />
<glyph unicode="h" horiz-adv-x="772" d="M98 520v117q0 49 41 49t41 -47q0 -14 -1 -53.5t-1 -63.5q0 -58 4 -176q23 0 75.5 -1t72.5 -1l229 4q21 0 31 -10q-8 286 -8 301q0 21 10.5 34t25.5 13q22 0 34 -12.5t12 -34.5q0 -2 2.5 -87.5t5.5 -205.5t4 -199q1 -22 0.5 -43.5t-1 -35.5t-1 -25t-0.5 -12q0 -49 -41 -49 t-41 47q0 14 2 53t2 63l-4 136q-13 -13 -51 -13q-11 0 -91.5 -1t-119.5 -1q-12 0 -65.5 1t-80.5 1q1 -52 2.5 -108t2.5 -90t1 -41q0 -21 -10.5 -34t-25.5 -13q-45 0 -45 47q0 2 -2.5 87.5t-5 205.5t-3.5 198z" />
<glyph unicode="i" horiz-adv-x="376" d="M41 633q0 43 58 43h5l66 -2l86 2h5q58 0 58 -43q0 -12 -13 -23.5t-34 -11.5h-47v-86l11 -453h51q25 0 36 -10.5t11 -23.5q0 -43 -64 -43h-151q-64 0 -64 43q0 12 13 23t34 11h52l-9 451q0 23 -1 52t-1 36h-55q-25 0 -36 11t-11 24z" />
<glyph unicode="j" horiz-adv-x="495" d="M35 78q0 35 33 35q8 0 24 -11q1 -1 17.5 -11.5t24.5 -15t27 -9.5t40 -5q32 0 55 11.5t34 26t17 40.5t7 43t1 45q0 39 1 140t2 187t1 87q0 47 43 47q18 0 29.5 -12.5t11.5 -34.5q-4 -326 -4 -414q0 -28 -1 -46.5t-5 -46.5t-11 -47t-22 -40.5t-35.5 -34.5t-52 -21.5 t-71.5 -8.5q-76 0 -127 34q-39 30 -39 62z" />
<glyph unicode="k" horiz-adv-x="657" d="M95.5 564q0.5 22 1 36t1 25t0.5 12q0 49 41 49t41 -47q0 -14 -2 -53.5t-2 -63.5q0 -20 1 -63t1 -66q297 226 361 277q25 18 51 18q11 0 19.5 -9t8.5 -22q0 -27 -32 -51q-239 -172 -328 -248q-22 -16 -22 -26q0 -3 5.5 -7t13.5 -9.5t11 -8.5q79 -73 322 -248 q33 -24 33 -47q0 -13 -9 -21.5t-20 -8.5q-26 0 -43 12q-8 6 -73.5 53.5t-152 111t-141.5 105.5q2 -46 4 -106t3 -90.5t1 -38.5q0 -21 -10.5 -34t-25.5 -13q-45 0 -45 47q0 2 -3 87.5t-6 205t-4 198.5q-1 22 -0.5 44z" />
<glyph unicode="l" horiz-adv-x="593" d="M94 641q0 47 43 47q18 0 29.5 -12.5t11.5 -34.5v-76q0 -7 6 -325q0 -24 -1 -61t-1 -42q0 -19 1 -27t7.5 -19.5t23.5 -16t46 -4.5l256 2q21 0 34 -12t13 -31q0 -41 -45 -41h-289q-27 0 -48 4t-34.5 9t-23 16t-14 18.5t-7 23t-2.5 23v24.5v134q0 66 -3 199t-3 202z" />
<glyph unicode="m" horiz-adv-x="946" d="M90 27q19 454 19 536q0 74 11 101.5t36 27.5q36 0 69 -65q102 -197 191 -346q44 -78 59 -78t64 86q66 110 184 338q33 65 68 65q25 0 36 -27.5t11 -101.5l18 -536q0 -45 -37 -45q-43 0 -43 43l-5 101q-5 100 -10 215t-5 151q0 18 -8 18t-17 -18q-121 -233 -196 -338 q-32 -45 -60 -45q-30 0 -61 43q-97 135 -203 340q-9 18 -14 18q-7 0 -7 -18q0 -36 -5 -151t-10 -215l-5 -101q0 -43 -43 -43q-37 0 -37 45z" />
<glyph unicode="n" horiz-adv-x="800" d="M98 520v117q0 49 41 49q23 0 33 -16q28 -42 192.5 -241t245.5 -288l15 -16v20q-2 81 -5 199.5t-5.5 200t-2.5 94.5q0 21 10.5 34t26.5 13q45 0 45 -47q0 -2 2.5 -87.5t5 -206t3.5 -198.5v-116q0 -49 -41 -49q-24 0 -41 20q-6 8 -19.5 25.5t-26.5 33.5t-26 31 q-156 181 -373 451v-21q2 -79 5 -198.5t5 -200t2 -94.5q0 -21 -10.5 -34t-25.5 -13q-45 0 -45 47q0 2 -2.5 87.5t-5 205.5t-3.5 198z" />
<glyph unicode="o" d="M53 334q0 139 109 246.5t256 107.5q146 0 255 -107.5t109 -246.5q0 -82 -36 -151.5t-91.5 -112t-118 -65.5t-120.5 -23t-119 21.5t-117 62.5t-91.5 111t-35.5 157zM137 334q0 -69 28 -123.5t71.5 -85t91 -46.5t92.5 -16q44 0 91 17t89.5 48.5t70 85.5t27.5 120 q0 106 -87 189t-193 83t-193.5 -84t-87.5 -188z" />
<glyph unicode="p" horiz-adv-x="675" d="M98 354l4 258q0 70 80 70h76q48 0 91.5 -4.5t97.5 -21t92.5 -44t65 -78t26.5 -118.5q0 -260 -346 -260q-38 0 -92 4h-11l2 -131q0 -22 -12.5 -34.5t-30.5 -12.5q-19 0 -29 13.5t-10 33.5q-4 233 -4 325zM180 242h15q25 -2 90 -2q41 0 73.5 3t70 13.5t62.5 29t41.5 52 t16.5 78.5q0 47 -21.5 82.5t-52 54.5t-73.5 30t-76.5 14t-71.5 3h-35q-33 0 -35 -25q-4 -160 -4 -223v-110z" />
<glyph unicode="q" d="M53 334q0 139 109 246.5t256 107.5q146 0 255 -107.5t109 -246.5q0 -97 -46.5 -172t-121.5 -121l97 -84q25 -25 25 -45q0 -12 -9 -21q-10 -8 -23 -8q-27 0 -69 37q-49 43 -92 86q-65 -24 -127 -24q-58 0 -119 21.5t-117 62.5t-91.5 111t-35.5 157zM137 334 q0 -69 28 -123.5t71.5 -85t91 -46.5t92.5 -16q44 0 91 17t89.5 48.5t70 85.5t27.5 120q0 106 -87 189t-193 83t-193.5 -84t-87.5 -188z" />
<glyph unicode="r" horiz-adv-x="712" d="M98 354l4 258q0 70 80 70h76q39 0 75 -3t81.5 -11.5t81.5 -26t68 -43.5t49.5 -67.5t17.5 -94.5q0 -172 -174 -221l18 -16q22 -20 48.5 -57t46.5 -59t42 -22h31q12 0 23.5 -10.5t11.5 -27.5q0 -19 -17.5 -30t-48.5 -11q-28 0 -53 10.5t-49.5 34.5t-37.5 38.5t-37.5 50 t-28.5 40.5q-17 24 -30 33.5t-38 9.5q-9 0 -27 -1t-26 -1q-38 0 -92 4h-13l4 -172q0 -22 -12.5 -34.5t-30.5 -12.5q-19 0 -29 13.5t-10 33.5q-4 233 -4 325zM180 283h15q25 -2 90 -2q52 0 92.5 5.5t82.5 20.5t65.5 47.5t23.5 81.5q0 52 -30 87t-80 50.5t-93 21t-92 5.5h-35 q-33 0 -35 -25q-4 -160 -4 -223v-69z" />
<glyph unicode="s" horiz-adv-x="587" d="M57 500q0 84 77.5 135t166.5 51q90 0 162 -37q35 -17 35 -43q0 -20 -9 -28.5t-20 -8.5t-51 15q-55 20 -117 20q-68 0 -115 -25.5t-47 -78.5q0 -13 4.5 -24.5t15 -22t20.5 -18.5t29 -17.5t31.5 -15.5t36.5 -16.5t37 -16.5q115 -53 151 -79q77 -55 77 -132q0 -48 -18.5 -83 t-43 -52.5t-63 -27.5t-64 -11.5t-59.5 -1.5q-79 0 -180 45q-45 20 -45 51q0 39 30 39q11 0 49 -19q72 -35 146 -35q166 0 166 95q0 22 -14 41t-44 37t-53.5 29.5t-66.5 29.5q-110 44 -145 67q-79 52 -79 138z" />
<glyph unicode="t" horiz-adv-x="628" d="M27 653q0 16 11.5 27.5t35.5 11.5q129 -8 231 -8q48 0 110.5 2t100.5 4l39 2q24 0 35.5 -11t11.5 -26q0 -43 -55 -43q-20 0 -85.5 -3.5t-107.5 -4.5v-102q0 -84 3 -194t5.5 -190t2.5 -89q0 -21 -10.5 -34t-26.5 -13q-45 0 -45 47q0 70 -9 471q-2 53 -2 104q-48 0 -112 3 t-78 3q-55 0 -55 43z" />
<glyph unicode="u" horiz-adv-x="794" d="M88 629q0 30 9 44.5t32 14.5q21 0 32 -14t11 -35q4 -133 4 -164v-178q0 -46 10.5 -85.5t34 -74t68 -54.5t106.5 -20q63 0 109 19t71 52t36.5 71.5t11.5 83.5v194q0 36 -1.5 74t-3.5 58l-2 20q0 53 39 53q43 0 43 -51q5 -61 7 -137q1 -30 1 -66t-0.5 -79.5t-0.5 -65.5 q0 -62 -15.5 -114.5t-49.5 -97t-96.5 -70t-148.5 -25.5q-85 0 -147 30.5t-94.5 79.5t-47 100.5t-14.5 104.5v170q0 35 -1 74t-2 63z" />
<glyph unicode="v" horiz-adv-x="716" d="M14 655q0 11 8.5 22t30.5 11q18 0 28.5 -11t20.5 -34q13 -27 58 -131l145 -342q6 -13 13 -31t11.5 -30t10 -23.5t10 -17t8.5 -5.5t8.5 5.5t11 17.5t11 22.5t12.5 30.5t13 31l147 338l57 131q10 24 20 34.5t28 10.5q22 0 30.5 -11t8.5 -22q0 -10 -21 -57l-51 -119 l-148 -338q-66 -155 -127 -155t-127 155l-145 342l-51 119q-21 47 -21 57z" />
<glyph unicode="w" horiz-adv-x="1001" d="M27 655q0 31 36 31q35 0 52 -57q103 -343 131 -449q6 -24 12.5 -55.5t9.5 -46.5t6 -15t7.5 17.5t12.5 50t15 55.5q6 21 62.5 193t77.5 242q20 65 53 65q35 0 55 -65q18 -58 74.5 -232t64.5 -203q7 -23 14.5 -55.5t11.5 -50t7 -17.5t6.5 14.5t11 47.5t13.5 55 q41 157 129 449q9 31 20.5 44t28.5 13q37 0 37 -31q0 -14 -10 -49l-129 -446q-23 -87 -46.5 -132.5t-60.5 -45.5q-33 0 -59 49t-52 131q-32 93 -116 385l-117 -385q-26 -82 -52 -131t-59 -49q-26 0 -47 27.5t-32.5 60.5t-26.5 90q-7 27 -31.5 110t-55.5 186.5t-44 149.5 q-10 35 -10 49z" />
<glyph unicode="x" horiz-adv-x="698" d="M39 653q0 33 35 33q12 0 24 -7.5t20.5 -17t26.5 -30.5l203 -242l207 242q18 22 26 31t20 16.5t24 7.5q34 0 34 -33q0 -22 -34 -65l-222 -262q40 -47 88.5 -105t78.5 -93.5t40 -47.5q35 -44 35 -66q0 -32 -35 -32q-12 0 -24 7.5t-20.5 17t-26.5 30.5l-189 225l-190 -225 q-25 -30 -40 -42.5t-32 -12.5q-35 0 -35 32q0 19 37 66l207 246l-223 262q-35 44 -35 65z" />
<glyph unicode="y" horiz-adv-x="653" d="M43 537v86q0 23 2 34.5t10.5 20t26.5 8.5q43 0 43 -47v-102q0 -46 10 -84.5t32 -71.5t62.5 -51.5t96.5 -18.5t96.5 18.5t62.5 51.5t31.5 71.5t9.5 84.5v102q0 47 43 47q25 0 32 -14.5t7 -48.5v-86q0 -40 -7 -79t-25 -80t-45.5 -73.5t-72 -55.5t-100.5 -28q1 -38 2 -86.5 t1.5 -73.5t0.5 -32q0 -21 -10.5 -34t-25.5 -13q-45 0 -45 47q0 2 -1 28t-2 73.5t-2 92.5q-65 10 -112.5 43t-72.5 80t-36.5 94.5t-11.5 96.5z" />
<glyph unicode="z" horiz-adv-x="655" d="M41 31q0 5 0.5 9t2.5 9t3.5 7.5t5.5 8.5t5.5 8t7.5 9.5t8 9.5l420 512q-57 2 -158 2l-230 -4q-24 0 -35.5 11.5t-11.5 27.5q0 41 66 41q11 0 91.5 1t119.5 1q16 0 111.5 -1t121.5 -1q20 0 31.5 -10t11.5 -23q0 -27 -32 -67l-418 -512q57 -2 160 -2l229 4q24 0 35.5 -11.5 t11.5 -27.5q0 -41 -66 -41q-11 0 -91 -1t-119 -1q-16 0 -112 1t-124 1q-20 0 -32.5 12.5t-12.5 26.5z" />
<glyph unicode="{" horiz-adv-x="405" d="M34 244.5q-12 23.5 0 47t42 23.5q27 0 46 22.5t19 65.5q0 23 -7 83.5t-7 93.5q0 110 58 161.5t132 51.5q52 0 52 -37q0 -45 -45 -45q-46 0 -80.5 -32.5t-34.5 -98.5q0 -23 7 -84.5t7 -92.5q0 -93 -65 -135q65 -42 65 -135q0 -31 -7 -92t-7 -84q0 -66 34.5 -98.5 t80.5 -32.5q45 0 45 -45q0 -37 -52 -37q-74 0 -132 51.5t-58 161.5q0 33 7 93t7 83q0 43 -19 65.5t-46 22.5q-30 0 -42 23.5z" />
<glyph unicode="|" horiz-adv-x="282" d="M96 758q0 23 8 35t31 12q25 0 34 -14t9 -43q0 -5 1 -78t1 -142q0 -78 4 -364.5t4 -290.5q0 -23 -12 -35t-31 -12q-18 0 -28.5 12t-10.5 33q-4 92 -5 362.5t-1 292.5q-1 59 -2 116t-1.5 85t-0.5 31z" />
<glyph unicode="}" horiz-adv-x="405" d="M37 -219q0 45 45 45q46 0 80.5 32.5t34.5 98.5q0 23 -7.5 84t-7.5 92q0 93 66 135q-66 42 -66 135q0 31 7.5 92.5t7.5 84.5q0 66 -34.5 98.5t-80.5 32.5q-45 0 -45 45q0 37 51 37q33 0 64.5 -11t61 -34t47.5 -66.5t18 -101.5q0 -33 -7.5 -93.5t-7.5 -83.5 q0 -43 19.5 -65.5t46.5 -22.5q30 0 42 -23.5t0 -47t-42 -23.5q-27 0 -46.5 -22.5t-19.5 -65.5q0 -23 7.5 -83t7.5 -93q0 -58 -18 -101.5t-47.5 -66.5t-61 -34t-64.5 -11q-51 0 -51 37z" />
<glyph unicode="~" horiz-adv-x="774" d="M82 422q0 18 18 39q94 108 197 108q39 0 74.5 -9.5t53.5 -19t46 -26.5q51 -31 82 -31q30 0 51 21q32 28 51 28q37 0 37 -38q0 -19 -18 -37q-56 -56 -121 -56q-58 0 -123 43q-25 15 -36 21t-38.5 14t-58.5 8q-76 0 -131 -73q-26 -33 -43 -33q-16 0 -28.5 10.5t-12.5 30.5z " />
<glyph unicode="&#xa1;" horiz-adv-x="290" d="M88 623q0 27 20 45t44 18q25 0 45 -18t20 -45q0 -28 -18.5 -47t-46.5 -19q-25 0 -44.5 20t-19.5 46zM96 -12q0 3 1.5 28.5t3 67.5t1.5 86q0 68 3 135t7 100l3 33q0 47 30 47q12 0 19.5 -3.5t10 -12.5t3 -13.5t0.5 -17.5v-452q0 -19 -10 -31t-29 -12q-43 0 -43 45z" />
<glyph unicode="&#xa2;" horiz-adv-x="729" d="M57 322q0 74 29 140.5t76 112.5t105.5 75t119.5 36q0 22 0.5 37.5t1 22.5t0.5 8q0 45 43 45q19 0 29 -12t10 -31q-4 -15 -6 -70q90 -6 144.5 -31t54.5 -53q0 -37 -37 -37q-13 0 -27 6.5t-28.5 14t-53.5 14t-96 6.5q-62 0 -126.5 -34.5t-110.5 -101.5t-46 -148 q0 -66 27 -117.5t69.5 -81.5t90.5 -45t96 -15q73 0 114 10.5t58.5 20.5t32.5 10q37 0 37 -36q0 -30 -56.5 -55t-150.5 -29l6 -101q0 -19 -10 -31t-29 -12q-43 0 -43 45q0 1 -0.5 14.5t-1 37t-0.5 49.5q-60 6 -114.5 27.5t-102.5 60t-76.5 103t-28.5 145.5z" />
<glyph unicode="&#xa3;" horiz-adv-x="686" d="M51 47q0 14 14 23.5t44 9.5h63q0 14 4 182h-39q-86 0 -86 45q0 14 14 24.5t44 10.5q28 -2 67 -2v16q0 32 1 54t4 55t10.5 56t19 51t30.5 46.5t44.5 35t62 24.5t80.5 8q56 0 89 -7.5t69 -25.5q47 -24 47 -67q0 -14 -8.5 -24.5t-22.5 -10.5q-13 0 -45 16q-25 14 -37 19.5 t-37 11.5t-55 6q-48 0 -81.5 -17t-50.5 -39.5t-26 -60.5t-10.5 -64t-1.5 -67v-16l127 4q30 0 43.5 -10.5t13.5 -24.5q0 -45 -86 -45q-8 0 -39 -1t-59 -1q-4 -168 -4 -182q111 0 184.5 1t91.5 2l17 1q30 0 43.5 -10.5t13.5 -24.5q0 -45 -86 -45q-18 0 -54.5 -2t-92.5 -2h-160 q-11 0 -74 2q-86 0 -86 45z" />
<glyph unicode="&#xa5;" horiz-adv-x="729" d="M55 649q0 18 11.5 27.5t27.5 9.5q21 0 47 -41q162 -252 176 -270q1 -1 11 -15.5t18 -23t12 -8.5q10 0 35 34q32 43 187 283q26 41 43 41q16 0 27.5 -9.5t11.5 -27.5q0 -25 -23 -59q-81 -127 -133 -201l102 4q30 0 44 -10.5t14 -24.5q0 -45 -86 -45q-12 0 -55 -2t-74 -2 q-36 -40 -56 -51v-37l213 6q30 0 44 -10t14 -24q0 -46 -86 -46q-15 0 -76 -2t-107 -2q2 -59 2 -114q0 -21 -10.5 -34t-26.5 -13q-45 0 -45 47q0 51 -2 114q-39 0 -91 2t-66 2q-86 0 -86 46q0 14 13.5 24t43.5 10q90 -6 184 -6v41q-20 13 -47 47h-2q-90 4 -106 4 q-86 0 -86 45q0 14 13.5 24.5t43.5 10.5q35 -2 80 -4l-131 201q-23 34 -23 59z" />
<glyph unicode="&#xa6;" horiz-adv-x="280" d="M96.5 29q1.5 111 1.5 168q0 23 8 35t31 12q25 0 34 -14.5t9 -43.5v-313q0 -23 -12 -35t-31 -12q-18 0 -28.5 12t-10.5 33q-3 47 -1.5 158zM96.5 591q1.5 111 1.5 167q0 47 41 47t41 -57v-314q0 -23 -12 -35t-31 -12q-18 0 -28.5 12t-10.5 33q-3 48 -1.5 159z" />
<glyph unicode="&#xa7;" horiz-adv-x="598" d="M61 242q0 75 66 127q-66 52 -66 131q0 84 77.5 135t166.5 51q90 0 162 -37q35 -17 35 -43q0 -20 -9 -28.5t-20 -8.5t-51 15q-55 20 -117 20q-68 0 -115 -25.5t-47 -78.5q0 -13 4.5 -24.5t15 -22t20.5 -18.5t29 -17.5t31.5 -15.5t36.5 -16.5t37 -16.5q115 -53 151 -79 q77 -55 77 -132q0 -91 -64 -138q64 -50 64 -120q0 -48 -18.5 -83t-43 -52.5t-63 -27.5t-64 -11.5t-59.5 -1.5q-79 0 -180 45q-45 20 -45 51q0 39 30 39q12 0 50 -19q72 -35 145 -35q166 0 166 95q0 55 -111 108l-67 29q-110 44 -145 67q-79 52 -79 138zM143 242 q0 -13 4.5 -24.5t15 -22t20.5 -18.5t29 -17.5t31.5 -15.5t36.5 -16.5t37 -16.5l76 -37q70 22 70 84q0 22 -14 41t-44 37t-53.5 29.5t-66.5 29.5l-80 31q-62 -27 -62 -84z" />
<glyph unicode="&#xa8;" horiz-adv-x="780" d="M143 891q0 35 24 58.5t58 23.5q31 0 55.5 -25t24.5 -57q0 -33 -25 -56.5t-55 -23.5t-56 23.5t-26 56.5zM475 891q0 35 24 58.5t58 23.5q30 0 55 -25t25 -57q0 -33 -25 -56.5t-55 -23.5t-56 23.5t-26 56.5z" />
<glyph unicode="&#xa9;" horiz-adv-x="677" d="M63 403q0 118 80.5 200.5t194.5 82.5q116 0 196 -82.5t80 -200.5q0 -115 -80.5 -196.5t-195.5 -81.5q-114 0 -194.5 81.5t-80.5 196.5zM133 403q0 -86 61 -150.5t144 -64.5q84 0 145.5 64.5t61.5 150.5q0 88 -61.5 154t-145.5 66q-83 0 -144 -66t-61 -154zM182 401 q0 78 47 121t113 43q35 0 65 -11.5t43 -22.5l13 -11q14 -13 14 -33q0 -15 -12 -22.5t-25 -7.5q-11 0 -43 16q-24 14 -55 14q-34 0 -58 -22.5t-24 -63.5q0 -42 23.5 -65t56.5 -23q29 0 55 15q32 16 43 16q13 0 25 -7.5t12 -23.5q0 -9 -3.5 -17t-7.5 -12l-3 -3 q-5 -5 -14 -12.5t-40.5 -20t-66.5 -12.5q-65 0 -111.5 44t-46.5 121z" />
<glyph unicode="&#xaa;" horiz-adv-x="546" d="M76 360q4 170 4 211q0 20 3 41.5t14.5 52t30 53.5t54.5 39.5t84 16.5q59 0 101 -17.5t63.5 -48.5t31 -66t9.5 -77l-2 -205q0 -20 -11.5 -32.5t-29.5 -12.5q-41 0 -41 45v70h-104q-88 0 -123 2l-2 -72q0 -20 -11.5 -32.5t-29.5 -12.5q-41 0 -41 45zM162 510q37 -2 121 -2 q11 0 32 -0.5t39.5 -0.5t34.5 1v57q0 127 -123 127q-33 0 -55.5 -14t-32 -35.5t-13 -38.5t-3.5 -33v-61z" />
<glyph unicode="&#xab;" horiz-adv-x="600" d="M57 344q0 20 21 51l129 199q20 33 43 33q42 0 45 -39q0 -15 -21 -49l-129 -195l129 -194q21 -34 21 -50q-3 -39 -45 -39q-23 0 -43 33l-129 199q-21 31 -21 51zM293 344q0 21 20 51l129 199q20 33 43 33q42 0 45 -39q0 -17 -20 -49l-129 -195l129 -194q20 -32 20 -50 q-3 -39 -45 -39q-23 0 -43 33l-129 199q-20 30 -20 51z" />
<glyph unicode="&#xac;" horiz-adv-x="643" d="M80 434q0 14 13.5 24.5t43.5 10.5q39 -2 150 -2h53t46.5 0.5t39 1t32 1t23.5 1t15 0.5h6h12q43 -4 43 -35q0 -7 1 -20.5t1 -20.5v-121q0 -79 -45 -79q-14 0 -24.5 15.5t-10.5 41.5v139h-8q-19 0 -67.5 -1t-116.5 -1h-121q-86 0 -86 45z" />
<glyph unicode="&#xad;" horiz-adv-x="694" d="M82 354q0 14 13.5 24.5t43.5 10.5q129 -8 240 -8l176 2q30 0 43.5 -10.5t13.5 -24.5q0 -45 -86 -45h-147q-56 0 -125.5 3t-85.5 3q-86 0 -86 45z" />
<glyph unicode="&#xae;" horiz-adv-x="677" d="M63 403q0 118 80.5 200.5t194.5 82.5q116 0 196 -82.5t80 -200.5q0 -115 -80.5 -196.5t-195.5 -81.5q-114 0 -194.5 81.5t-80.5 196.5zM133 403q0 -86 61 -150.5t144 -64.5q84 0 145.5 64.5t61.5 150.5q0 88 -61.5 154t-145.5 66q-83 0 -144 -66t-61 -154zM227 514 q0 28 9.5 37.5t48.5 9.5q174 0 174 -98q0 -66 -53 -92l38 -60q15 -20 15 -32q0 -11 -12 -20t-25 -9q-19 0 -27 14q-5 9 -25 42t-28 48h-47l2 -71q0 -13 -9.5 -23t-23.5 -10t-23.5 10t-9.5 23q-4 221 -4 231zM295 416h10q41 0 60.5 10.5t19.5 36.5q0 43 -76 43h-14v-90z" />
<glyph unicode="&#xaf;" horiz-adv-x="591" d="M72 862q0 14 13.5 24.5t43.5 10.5q80 -8 158 -8l176 2q30 0 43.5 -10.5t13.5 -24.5q0 -45 -86 -45h-147q-38 0 -78.5 3t-50.5 3q-86 0 -86 45z" />
<glyph unicode="&#xb0;" horiz-adv-x="524" d="M35 801q0 95 68.5 157t158.5 62q89 0 158 -62t69 -157q0 -96 -67 -161t-160 -65t-160 65t-67 161zM117 801q0 -71 42 -112.5t103 -41.5q60 0 103 42.5t43 111.5q0 65 -43 104t-103 39q-63 0 -104 -36.5t-41 -106.5z" />
<glyph unicode="&#xb1;" horiz-adv-x="669" d="M70 104q0 14 13.5 24.5t43.5 10.5q129 -8 240 -8l176 2q30 0 43.5 -10.5t13.5 -24.5q0 -45 -86 -45h-147q-56 0 -125.5 3t-85.5 3q-86 0 -86 45zM70 465q0 14 13.5 24.5t43.5 10.5q78 -6 162 -8q2 53 2 180q0 23 8 35t31 12q25 0 34 -14t9 -43v-170l170 2 q30 0 43.5 -10.5t13.5 -24.5q0 -45 -86 -45h-141v-183q0 -23 -12 -35t-31 -12q-18 0 -28.5 12t-10.5 33q0 38 -1 99t-1 86q-25 1 -70.5 3.5t-62.5 2.5q-86 0 -86 45z" />
<glyph unicode="&#xb2;" horiz-adv-x="485" d="M76 266q0 11 12 23q1 1 28 25.5t54.5 51.5t58.5 60.5t50.5 65t19.5 51.5q0 61 -78 61q-46 0 -73.5 -12t-32.5 -12q-37 0 -37 38q0 25 24 39q56 29 119 29q77 0 118.5 -37t41.5 -104q0 -81 -172 -244l158 2q30 0 43.5 -10.5t13.5 -24.5q0 -45 -86 -45q-36 0 -84 -1t-92 -1 q-86 0 -86 45z" />
<glyph unicode="&#xb3;" horiz-adv-x="446" d="M70 287q0 39 36 39q5 0 33 -12.5t74 -12.5q78 0 78 61q0 23 -22.5 42.5t-57.5 19.5q-17 0 -35 -4t-24 -4q-25 0 -25 26q0 21 14 35q16 16 56.5 60t54.5 59h-111q-30 0 -43.5 10.5t-13.5 24.5q0 45 86 45h133q68 0 68 -43q0 -8 -11 -23q-43 -47 -96 -114q31 -2 53.5 -17 t33 -34.5t16 -39t5.5 -32.5l1 -13q0 -67 -41.5 -104t-118.5 -37q-63 0 -119 29q-24 14 -24 39z" />
<glyph unicode="&#xb4;" horiz-adv-x="630" d="M143 848q0 22 50 45q21 9 99.5 52t92.5 50q41 21 61 21q15 0 28 -15.5t13 -35.5q0 -31 -47 -50q-113 -52 -209 -90q-36 -14 -51 -14q-18 0 -27.5 12t-9.5 25z" />
<glyph unicode="&#xb6;" horiz-adv-x="804" d="M45 416q0 68 22.5 118.5t54.5 78t77.5 44t81 21t75.5 4.5l349 -2q57 0 57 -35q0 -45 -84 -45q-4 -98 -4 -291v-286q0 -41 -43 -41q-18 0 -28.5 11.5t-10.5 29.5q4 203 4 256q0 39 1 168.5t1 152.5q-15 0 -44 -1t-42 -1q4 -62 4 -244l-4 -325q0 -20 -10 -33.5t-29 -13.5 q-18 0 -30.5 12.5t-12.5 34.5q0 63 2 131h-10q-54 -4 -92 -4q-56 0 -101 9.5t-89.5 35.5t-69.5 80.5t-25 134.5zM127 416q0 -56 17.5 -93.5t50 -54t63 -22.5t72.5 -6q65 0 90 2h12q2 47 2 110q0 32 -2 133t-2 111q-24 4 -70 4q-29 0 -55.5 -3t-60.5 -14t-58.5 -30 t-41.5 -54.5t-17 -82.5z" />
<glyph unicode="&#xb7;" horiz-adv-x="372" d="M80 379q0 47 31.5 77.5t76.5 30.5q42 0 74.5 -32.5t32.5 -75.5q0 -44 -33.5 -75.5t-73.5 -31.5t-74 31.5t-34 75.5z" />
<glyph unicode="&#xb8;" horiz-adv-x="612" d="M143 -268q0 16 9.5 25.5t21.5 9.5q13 0 46.5 -17.5t80.5 -17.5q39 0 64.5 19t25.5 46q0 47 -88 47h-31q-59 0 -69 28t12 75q12 37 16 47q23 57 50 57q41 0 41 -28q0 -1 0.5 -5t0 -7t-2 -9t-6 -16t-11.5 -25q-8 -29 -4.5 -35t16.5 -6q21 0 32.5 -0.5t33 -3.5t34.5 -11.5 t27 -21t20.5 -34.5t6.5 -52q0 -62 -46 -102.5t-122 -40.5q-26 0 -59 6t-66 25t-33 47z" />
<glyph unicode="&#xb9;" horiz-adv-x="352" d="M41 582q0 25 49 51q104 53 131 53q26 0 35.5 -14t9.5 -43q0 -8 1 -187t1 -180q-3 -39 -43 -39q-18 0 -28.5 12t-10.5 33q0 22 -1 127t-1 156v12t-1 8t-3 4.5t-6 -0.5l-61 -28q-19 -8 -29 -8q-43 0 -43 43z" />
<glyph unicode="&#xba;" horiz-adv-x="604" d="M53 532q0 99 72.5 170.5t175.5 71.5q104 0 177 -70.5t73 -171.5q0 -99 -73.5 -173t-176.5 -74q-99 0 -173.5 71t-74.5 176zM135 532q0 -73 44.5 -119t121.5 -46q78 0 123 46t45 119q0 76 -44 118t-124 42q-78 0 -122 -43.5t-44 -116.5z" />
<glyph unicode="&#xbb;" horiz-adv-x="600" d="M70 100q0 18 20 50l129 194l-129 195q-20 32 -20 49q3 39 45 39q23 0 43 -33l129 -199q20 -30 20 -51t-20 -51l-129 -199q-20 -33 -43 -33q-42 0 -45 39zM305 100q0 16 21 50l129 194l-129 195q-21 34 -21 49q3 39 45 39q23 0 43 -33l129 -199q21 -32 21 -51 q0 -20 -21 -51l-129 -199q-20 -33 -43 -33q-42 0 -45 39z" />
<glyph unicode="&#xbc;" horiz-adv-x="1013" d="M35 582q0 25 49 51q104 53 131 53q26 0 35.5 -14t9.5 -43q0 -8 1 -187t1 -180q-3 -39 -43 -39q-18 0 -28.5 12t-10.5 33q-2 53 -2 283v12t-1 8t-3 4.5t-6 -0.5l-62 -28q-19 -8 -28 -8q-43 0 -43 43zM203 25q0 14 22 47l404 573q22 31 43 31t32 -13.5t11 -27.5 q0 -11 -21 -45l-405 -576q-21 -30 -41 -30q-23 0 -34 12.5t-11 28.5zM614 141q0 12 7 33l79 236q14 45 45 45q13 0 23 -11.5t10 -31.5q0 -21 -12 -56q-4 -11 -15 -49t-22 -71t-22 -58h137v109q0 23 8 35t31 12q43 0 43 -55v-99q25 -1 38 -12t13 -23q0 -36 -51 -43l2 -82 q0 -18 -12.5 -28t-30.5 -10t-28.5 12t-10.5 33q0 8 -1 32.5t-1 40.5q-45 -2 -144 -2q-86 0 -86 43z" />
<glyph unicode="&#xbd;" horiz-adv-x="1048" d="M35 582q0 25 49 51q104 53 131 53q26 0 35.5 -14t9.5 -43q0 -8 1 -187t1 -180q-3 -39 -43 -39q-18 0 -28.5 12t-10.5 33q-2 53 -2 283v12t-1 8t-3 4.5t-6 -0.5l-62 -28q-19 -8 -28 -8q-43 0 -43 43zM174 25q0 13 23 47l403 573q22 31 43 31t32 -13.5t11 -27.5 q0 -13 -20 -45l-406 -576q-21 -30 -41 -30q-23 0 -34 12.5t-11 28.5zM659 39q0 19 13 27q39 27 125 117t86 136q0 62 -78 62q-46 0 -74 -12.5t-33 -12.5q-36 0 -36 39q0 25 24 39q56 29 119 29q77 0 118.5 -37t41.5 -104q0 -81 -172 -244l157 2q30 0 44 -10.5t14 -24.5 q0 -45 -86 -45q-36 0 -84 -1t-93 -1q-86 0 -86 41z" />
<glyph unicode="&#xbe;" horiz-adv-x="1067" d="M53 287q0 39 37 39q5 0 33 -12.5t74 -12.5q77 0 77 61q0 23 -22 42.5t-57 19.5q-17 0 -35.5 -4t-24.5 -4q-7 0 -11 1t-8.5 7t-4.5 18q0 21 14 35q16 16 56.5 60t54.5 59h-111q-30 0 -43.5 10.5t-13.5 24.5q0 45 86 45h133q67 0 67 -43q0 -10 -10 -23t-45 -53.5t-51 -60.5 q49 -4 76 -38t30 -66l2 -32q0 -67 -41 -104t-118 -37q-63 0 -119 29q-25 14 -25 39zM258 25q0 13 23 47l403 573q22 31 43 31t32 -13.5t11 -27.5q0 -13 -20 -45l-406 -576q-21 -30 -41 -30q-23 0 -34 12.5t-11 28.5zM670 141q0 15 6 33l80 236q14 45 45 45q13 0 23 -11.5 t10 -31.5q0 -19 -13 -56q-4 -11 -15 -49t-22 -71t-22 -58h137v109q0 23 8 35t31 12q43 0 43 -55v-99q25 -1 38 -12t13 -23q0 -36 -51 -43l2 -82q0 -18 -12.5 -28t-30.5 -10t-28.5 12t-10.5 33q0 8 -1 32.5t-1 40.5q-45 -2 -143 -2q-86 0 -86 43z" />
<glyph unicode="&#xbf;" horiz-adv-x="452" d="M41 152q0 40 25.5 83t56.5 73.5t56.5 63.5t25.5 56q0 51 39 51q43 0 43 -51q0 -33 -17 -64t-41 -55.5t-48 -48t-41 -51.5t-17 -57q0 -40 26.5 -64.5t79.5 -24.5q62 0 101 31q34 25 53 25q31 0 31 -33q0 -18 -9 -30.5t-36 -32.5q-57 -41 -140 -41q-97 0 -142.5 40 t-45.5 130zM180 623q0 27 20 45t44 18q25 0 45 -18t20 -45q0 -28 -18.5 -47t-46.5 -19q-25 0 -44.5 20t-19.5 46z" />
<glyph unicode="&#xc0;" horiz-adv-x="716" d="M14 14q0 11 21 58l196 460q66 156 127 156t127 -156l199 -456q21 -47 21 -58t-8.5 -21.5t-30.5 -10.5q-18 0 -28 10.5t-20 34.5q-12 22 -47 106q-15 -6 -43 -6q-11 0 -91.5 -1t-119.5 -1q-15 0 -79 1t-91 1l-45 -104q-10 -23 -20.5 -34t-28.5 -11q-22 0 -30.5 10.5 t-8.5 21.5zM170 967q0 20 13 35.5t28 15.5q20 0 61 -21q14 -7 93 -50t100 -52q49 -22 49 -45q0 -13 -9.5 -25t-27.5 -12q-15 0 -51 14q-83 32 -209 91q-47 19 -47 49zM180 209q45 -2 137 -2q182 0 222 4l-125 289q-4 10 -13 30.5t-13 30.5t-10.5 22.5t-11 17.5t-8.5 5 q-6 0 -13 -12t-21 -47t-19 -47z" />
<glyph unicode="&#xc1;" horiz-adv-x="716" d="M14 14q0 11 21 58l196 460q66 156 127 156t127 -156l199 -456q21 -47 21 -58t-8.5 -21.5t-30.5 -10.5q-18 0 -28 10.5t-20 34.5q-12 22 -47 106q-15 -6 -43 -6q-11 0 -91.5 -1t-119.5 -1q-15 0 -79 1t-91 1l-45 -104q-10 -23 -20.5 -34t-28.5 -11q-22 0 -30.5 10.5 t-8.5 21.5zM180 209q45 -2 137 -2q182 0 222 4l-125 289q-4 10 -13 30.5t-13 30.5t-10.5 22.5t-11 17.5t-8.5 5q-6 0 -13 -12t-21 -47t-19 -47zM201 850q0 23 49 45q21 9 99.5 52t92.5 50q41 21 62 21q15 0 28 -15.5t13 -35.5q0 -30 -47 -49q-126 -59 -209 -91 q-36 -14 -51 -14q-18 0 -27.5 12t-9.5 25z" />
<glyph unicode="&#xc2;" horiz-adv-x="716" d="M14 14q0 11 21 58l196 460q66 156 127 156t127 -156l199 -456q21 -47 21 -58t-8.5 -21.5t-30.5 -10.5q-18 0 -28 10.5t-20 34.5q-12 22 -47 106q-15 -6 -43 -6q-11 0 -91.5 -1t-119.5 -1q-15 0 -79 1t-91 1l-45 -104q-10 -23 -20.5 -34t-28.5 -11q-22 0 -30.5 10.5 t-8.5 21.5zM143 852q0 15 19 37q23 28 67.5 85t46.5 60q2 2 11 12.5t12.5 13.5t12 11t14.5 10.5t15.5 5.5t18.5 3t18.5 -3t15.5 -5.5t14.5 -10.5t12 -11t12.5 -13.5t11 -12.5q6 -8 28 -36t46 -58t41 -51q19 -22 19 -37q0 -21 -12.5 -31t-28.5 -10q-20 0 -45 31l-97 114 q-5 5 -11 13t-9 10.5t-7 5t-8 2.5t-8 -2.5t-6.5 -5.5t-8.5 -10t-11 -13q-83 -96 -97 -114q-25 -31 -45 -31q-16 0 -28.5 10t-12.5 31zM180 209q45 -2 137 -2q182 0 222 4l-125 289q-4 10 -13 30.5t-13 30.5t-10.5 22.5t-11 17.5t-8.5 5q-6 0 -13 -12t-21 -47t-19 -47z" />
<glyph unicode="&#xc3;" horiz-adv-x="716" d="M14 14q0 11 21 58l196 460q66 156 127 156t127 -156l199 -456q21 -47 21 -58t-8.5 -21.5t-30.5 -10.5q-18 0 -28 10.5t-20 34.5q-12 22 -47 106q-15 -6 -43 -6q-11 0 -91.5 -1t-119.5 -1q-15 0 -79 1t-91 1l-45 -104q-10 -23 -20.5 -34t-28.5 -11q-22 0 -30.5 10.5 t-8.5 21.5zM68 852q0 18 18 39q94 108 197 108q39 0 74.5 -9.5t53.5 -19t46 -26.5q51 -31 82 -31q30 0 51 21q33 29 51 29q37 0 37 -39q0 -18 -19 -37q-56 -56 -120 -56q-58 0 -123 43q-1 1 -9.5 6t-10.5 6.5t-10.5 6t-12 6t-11.5 5t-13.5 5t-14 4t-16 3t-16.5 1.5t-19 1 q-75 0 -131 -74q-26 -33 -43 -33q-16 0 -28.5 10.5t-12.5 30.5zM180 209q45 -2 137 -2q182 0 222 4l-125 289q-4 10 -13 30.5t-13 30.5t-10.5 22.5t-11 17.5t-8.5 5q-6 0 -13 -12t-21 -47t-19 -47z" />
<glyph unicode="&#xc4;" horiz-adv-x="716" d="M14 14q0 11 21 58l196 460q66 156 127 156t127 -156l199 -456q21 -47 21 -58t-8.5 -21.5t-30.5 -10.5q-18 0 -28 10.5t-20 34.5q-12 22 -47 106q-15 -6 -43 -6q-11 0 -91.5 -1t-119.5 -1q-15 0 -79 1t-91 1l-45 -104q-10 -23 -20.5 -34t-28.5 -11q-22 0 -30.5 10.5 t-8.5 21.5zM113 891q0 35 24 58.5t58 23.5q31 0 55 -25t24 -57q0 -33 -24.5 -56.5t-54.5 -23.5t-56 23.5t-26 56.5zM180 209q45 -2 137 -2q182 0 222 4l-125 289q-4 10 -13 30.5t-13 30.5t-10.5 22.5t-11 17.5t-8.5 5q-6 0 -13 -12t-21 -47t-19 -47zM444 891q0 35 24 58.5 t58 23.5q30 0 55 -25t25 -57q0 -33 -25 -56.5t-55 -23.5t-56 23.5t-26 56.5z" />
<glyph unicode="&#xc5;" horiz-adv-x="716" d="M14 14q0 11 21 58l196 460q66 156 127 156t127 -156l199 -456q21 -47 21 -58t-8.5 -21.5t-30.5 -10.5q-18 0 -28 10.5t-20 34.5q-12 22 -47 106q-15 -6 -43 -6q-11 0 -91.5 -1t-119.5 -1q-15 0 -79 1t-91 1l-45 -104q-10 -23 -20.5 -34t-28.5 -11q-22 0 -30.5 10.5 t-8.5 21.5zM174 997q0 83 59 132t123 49q66 0 128.5 -47t62.5 -123q0 -84 -51 -139.5t-134 -55.5q-88 0 -138 47.5t-50 136.5zM180 209q45 -2 137 -2q182 0 222 4l-125 289q-4 10 -13 30.5t-13 30.5t-10.5 22.5t-11 17.5t-8.5 5q-6 0 -13 -12t-21 -47t-19 -47zM256 997 q0 -50 28 -76t78 -26q46 0 74.5 33t28.5 80q0 39 -36 63.5t-73 24.5q-36 0 -68 -26.5t-32 -72.5z" />
<glyph unicode="&#xc6;" horiz-adv-x="997" d="M14 14q0 11 21 58l196 460q33 76 72.5 113t91.5 37q11 0 83 1t106 1q17 0 155 1l138 1q22 0 36.5 -11t14.5 -28q0 -21 -15 -32t-32 -11q-240 -2 -279 -2h-33q0 -14 6 -248h84l166 4q24 0 35.5 -11.5t11.5 -27.5q0 -40 -65 -40q-11 0 -60 -1.5t-88 -1.5q-35 0 -81 3v-35 q0 -24 -1.5 -61t-1.5 -42q0 -19 1 -27t7.5 -19.5t23.5 -16t46 -4.5l256 2q19 0 33 -12.5t14 -30.5q0 -41 -45 -41h-288q-38 0 -63.5 7.5t-38.5 17t-19.5 29t-7 30.5t-0.5 35v20q-23 0 -87 -1t-90 -1q-15 0 -79 1t-91 1l-45 -104q-10 -23 -20.5 -34t-28.5 -11 q-22 0 -30.5 10.5t-8.5 21.5zM180 209q45 -2 137 -2h177v37q0 62 -3.5 191t-3.5 165h-88q-51 0 -94 -100z" />
<glyph unicode="&#xc7;" horiz-adv-x="710" d="M53 322q0 80 33.5 150t86 116.5t117.5 73t128 26.5q108 0 174.5 -27t66.5 -59q0 -37 -36 -37q-13 0 -27 6.5t-28.5 14t-53.5 14t-96 6.5q-62 0 -126.5 -34.5t-110.5 -101.5t-46 -148q0 -66 27 -117.5t69.5 -81.5t90.5 -45t96 -15q73 0 114 10.5t58.5 20.5t32.5 10 q36 0 36 -36q0 -32 -65.5 -58.5t-173.5 -27.5l-8 -21q-8 -29 -4.5 -35t16.5 -6q21 0 32.5 -0.5t33 -3.5t34.5 -11.5t27 -21t20.5 -34.5t6.5 -52q0 -62 -46 -102.5t-122 -40.5q-26 0 -59 6t-66 25t-33 47q0 16 9.5 25.5t21.5 9.5q13 0 46.5 -17.5t80.5 -17.5q39 0 64.5 19 t25.5 46q0 47 -88 47h-31q-59 0 -69 28t12 75q8 29 14 43q-56 10 -104.5 33.5t-90.5 62.5t-66 100t-24 136z" />
<glyph unicode="&#xc8;" horiz-adv-x="604" d="M94 600q0 84 96 84q17 0 155 1l138 1q22 0 37 -11t15 -28q0 -21 -15.5 -32t-32.5 -11q-239 -2 -266 -2q-45 0 -45 -33q0 -28 2.5 -107t3.5 -108h84l166 4q24 0 35.5 -11.5t11.5 -27.5q0 -40 -65 -40q-11 0 -60 -1.5t-88 -1.5q-36 0 -82 3v-35q0 -24 -1 -61t-1 -42 q0 -19 1 -27t7.5 -19.5t23.5 -16t46 -4.5l256 2q19 0 33 -12.5t14 -30.5q0 -41 -45 -41h-289q-38 0 -63.5 7.5t-38.5 17t-19.5 29t-7 30.5t-0.5 35q0 6 0.5 29t0.5 49.5t-1 54.5q0 65 -3 193.5t-3 162.5zM141 967q0 20 13 35.5t28 15.5q21 0 62 -21q14 -7 92.5 -50t99.5 -52 q49 -22 49 -45q0 -13 -9 -25t-27 -12q-16 0 -52 14q-83 32 -209 91q-47 19 -47 49z" />
<glyph unicode="&#xc9;" horiz-adv-x="604" d="M94 600q0 84 96 84q17 0 155 1l138 1q22 0 37 -11t15 -28q0 -21 -15.5 -32t-32.5 -11q-239 -2 -266 -2q-45 0 -45 -33q0 -28 2.5 -107t3.5 -108h84l166 4q24 0 35.5 -11.5t11.5 -27.5q0 -40 -65 -40q-11 0 -60 -1.5t-88 -1.5q-36 0 -82 3v-35q0 -24 -1 -61t-1 -42 q0 -19 1 -27t7.5 -19.5t23.5 -16t46 -4.5l256 2q19 0 33 -12.5t14 -30.5q0 -41 -45 -41h-289q-38 0 -63.5 7.5t-38.5 17t-19.5 29t-7 30.5t-0.5 35q0 6 0.5 29t0.5 49.5t-1 54.5q0 65 -3 193.5t-3 162.5zM156 848q0 23 49 45q21 9 99.5 52t92.5 50q41 21 62 21 q15 0 28 -15.5t13 -35.5q0 -31 -47 -50q-113 -52 -209 -90q-36 -14 -51 -14q-18 0 -27.5 12t-9.5 25z" />
<glyph unicode="&#xca;" horiz-adv-x="604" d="M94 600q0 84 96 84q17 0 155 1l138 1q22 0 37 -11t15 -28q0 -21 -15.5 -32t-32.5 -11q-239 -2 -266 -2q-45 0 -45 -33q0 -28 2.5 -107t3.5 -108h84l166 4q24 0 35.5 -11.5t11.5 -27.5q0 -40 -65 -40q-11 0 -60 -1.5t-88 -1.5q-36 0 -82 3v-35q0 -24 -1 -61t-1 -42 q0 -19 1 -27t7.5 -19.5t23.5 -16t46 -4.5l256 2q19 0 33 -12.5t14 -30.5q0 -41 -45 -41h-289q-38 0 -63.5 7.5t-38.5 17t-19.5 29t-7 30.5t-0.5 35q0 6 0.5 29t0.5 49.5t-1 54.5q0 65 -3 193.5t-3 162.5zM96 854q0 15 19 37q23 28 67.5 85t46.5 60q2 2 11 12.5t12.5 13.5 t12 11t14.5 10.5t15.5 5.5t18.5 3t18.5 -3t15.5 -5.5t14.5 -10.5t12 -11t12.5 -13.5t11 -12.5q6 -8 28 -36t46 -58t41 -51q18 -21 18 -37q0 -21 -12.5 -31t-28.5 -10q-20 0 -45 31l-96 114q-5 5 -11 13t-9 10.5t-7 5t-8 2.5t-8 -2.5t-6.5 -5.5t-8.5 -10t-11 -13 q-83 -96 -97 -114q-25 -31 -45 -31q-16 0 -28.5 10t-12.5 31z" />
<glyph unicode="&#xcb;" horiz-adv-x="604" d="M66 893q0 35 23.5 58.5t57.5 23.5q31 0 55.5 -25t24.5 -57q0 -33 -25 -56.5t-55 -23.5t-55.5 23.5t-25.5 56.5zM94 600q0 84 96 84q17 0 155 1l138 1q22 0 37 -11t15 -28q0 -21 -15.5 -32t-32.5 -11q-239 -2 -266 -2q-45 0 -45 -33q0 -28 2.5 -107t3.5 -108h84l166 4 q24 0 35.5 -11.5t11.5 -27.5q0 -40 -65 -40q-11 0 -60 -1.5t-88 -1.5q-36 0 -82 3v-35q0 -24 -1 -61t-1 -42q0 -19 1 -27t7.5 -19.5t23.5 -16t46 -4.5l256 2q19 0 33 -12.5t14 -30.5q0 -41 -45 -41h-289q-38 0 -63.5 7.5t-38.5 17t-19.5 29t-7 30.5t-0.5 35q0 6 0.5 29 t0.5 49.5t-1 54.5q0 65 -3 193.5t-3 162.5zM397 893q0 35 24 58.5t58 23.5q30 0 55 -25t25 -57q0 -33 -25 -56.5t-55 -23.5t-56 23.5t-26 56.5z" />
<glyph unicode="&#xcc;" horiz-adv-x="376" d="M-88 967q0 20 13 35.5t28 15.5q20 0 61 -21q14 -7 93 -50t100 -52q49 -22 49 -45q0 -13 -9.5 -25t-27.5 -12q-15 0 -51 14q-83 32 -209 91q-47 19 -47 49zM41 633q0 45 63 43l74 -2l78 2q63 2 63 -43q0 -12 -13 -23.5t-34 -11.5h-47v-86l11 -453h51q25 0 36 -10.5 t11 -23.5q0 -43 -64 -43h-151q-64 0 -64 43q0 12 13 23t34 11h52l-9 451q0 23 -1 52t-1 36h-55q-25 0 -36 11t-11 24z" />
<glyph unicode="&#xcd;" horiz-adv-x="376" d="M41 633q0 45 63 43l74 -2l78 2q63 2 63 -43q0 -12 -13 -23.5t-34 -11.5h-47v-86l11 -453h51q25 0 36 -10.5t11 -23.5q0 -43 -64 -43h-151q-64 0 -64 43q0 12 13 23t34 11h52l-9 451q0 23 -1 52t-1 36h-55q-25 0 -36 11t-11 24zM80 850q0 23 49 45q21 9 100 52t93 50 q41 21 61 21q15 0 28 -15.5t13 -35.5q0 -30 -47 -49q-126 -59 -209 -91q-36 -14 -51 -14q-18 0 -27.5 12t-9.5 25z" />
<glyph unicode="&#xce;" horiz-adv-x="376" d="M-27 852q0 15 19 37q23 28 67.5 85t46.5 60q2 2 11 12.5t12.5 13.5t12 11t14.5 10.5t15.5 5.5t18.5 3t18.5 -3t15.5 -5.5t14.5 -10.5t12 -11t12.5 -13.5t11 -12.5q6 -8 28 -36t46 -58t41 -51q19 -22 19 -37q0 -21 -12.5 -31t-28.5 -10q-20 0 -45 31l-97 114q-5 5 -11 13 t-9 10.5t-7 5t-8 2.5t-8 -2.5t-6.5 -5.5t-8.5 -10t-11 -13q-83 -96 -97 -114q-25 -31 -45 -31q-16 0 -28.5 10t-12.5 31zM41 633q0 45 63 43l74 -2l78 2q63 2 63 -43q0 -12 -13 -23.5t-34 -11.5h-47v-86l11 -453h51q25 0 36 -10.5t11 -23.5q0 -43 -64 -43h-151q-64 0 -64 43 q0 12 13 23t34 11h52l-9 451q0 23 -1 52t-1 36h-55q-25 0 -36 11t-11 24z" />
<glyph unicode="&#xcf;" horiz-adv-x="376" d="M-57 891q0 35 24 58.5t58 23.5q31 0 55 -25t24 -57q0 -33 -24.5 -56.5t-54.5 -23.5t-56 23.5t-26 56.5zM41 633q0 45 63 43l74 -2l78 2q63 2 63 -43q0 -12 -13 -23.5t-34 -11.5h-47v-86l11 -453h51q25 0 36 -10.5t11 -23.5q0 -43 -64 -43h-151q-64 0 -64 43q0 12 13 23 t34 11h52l-9 451q0 23 -1 52t-1 36h-55q-25 0 -36 11t-11 24zM274 891q0 35 24 58.5t58 23.5q30 0 55 -25t25 -57q0 -33 -25 -56.5t-55 -23.5t-56 23.5t-26 56.5z" />
<glyph unicode="&#xd0;" horiz-adv-x="784" d="M-4 340q0 35 57 35q23 -4 68 -4q-4 114 -4 176q0 78 19.5 106.5t74.5 28.5h141q190 0 283.5 -95t93.5 -253q0 -169 -111.5 -260.5t-287.5 -91.5q-117 0 -159 28.5t-42 91.5q0 92 -6 191q-8 0 -20.5 1t-20.5 1q-86 0 -86 45zM197 477q0 -71 2 -106l88 4q57 0 57 -35 q0 -45 -86 -45q-14 0 -30.5 -1t-22.5 -1q6 -159 6 -160q0 -36 24.5 -53t94.5 -17q155 0 236 70.5t81 196.5q0 134 -74.5 202t-220.5 68h-110q-16 0 -30.5 -9t-14.5 -30v-84z" />
<glyph unicode="&#xd1;" horiz-adv-x="802" d="M98 520v117q0 49 41 49q23 0 33 -16q28 -42 192.5 -241t245.5 -288l15 -16v20q-2 81 -5 199.5t-5.5 200t-2.5 94.5q0 21 10.5 34t26.5 13q45 0 45 -47q0 -2 2.5 -87.5t5 -206t3.5 -198.5v-116q0 -49 -41 -49q-24 0 -41 20q-6 8 -19.5 25.5t-26.5 33.5t-26 31 q-156 181 -373 451v-21q2 -79 5 -198.5t5 -200t2 -94.5q0 -21 -10.5 -34t-25.5 -13q-45 0 -45 47q0 2 -2.5 87.5t-5 205.5t-3.5 198zM102 852q0 17 19 39q26 29 47.5 49t63 39.5t85.5 19.5q39 0 75 -9.5t54 -19t46 -26.5q51 -31 81 -31q31 0 52 21q33 29 51 29q37 0 37 -39 q0 -18 -19 -37q-56 -56 -121 -56q-57 0 -122 43q-26 16 -36.5 21.5t-38.5 14t-59 8.5q-75 0 -131 -74q-26 -33 -43 -33q-16 0 -28.5 10.5t-12.5 30.5z" />
<glyph unicode="&#xd2;" d="M53 334q0 139 109 246.5t256 107.5q146 0 255 -107.5t109 -246.5q0 -82 -36 -151.5t-91.5 -112t-118 -65.5t-120.5 -23t-119 21.5t-117 62.5t-91.5 111t-35.5 157zM137 334q0 -69 28 -123.5t71.5 -85t91 -46.5t92.5 -16q44 0 91 17t89.5 48.5t70 85.5t27.5 120 q0 106 -87 189t-193 83t-193.5 -84t-87.5 -188zM264 965q0 20 13 35.5t28 15.5q21 0 62 -21q14 -7 92.5 -50t99.5 -52q49 -22 49 -45q0 -13 -9.5 -25t-27.5 -12q-15 0 -51 14q-96 38 -209 90q-47 19 -47 50z" />
<glyph unicode="&#xd3;" d="M53 334q0 139 109 246.5t256 107.5q146 0 255 -107.5t109 -246.5q0 -82 -36 -151.5t-91.5 -112t-118 -65.5t-120.5 -23t-119 21.5t-117 62.5t-91.5 111t-35.5 157zM137 334q0 -69 28 -123.5t71.5 -85t91 -46.5t92.5 -16q44 0 91 17t89.5 48.5t70 85.5t27.5 120 q0 106 -87 189t-193 83t-193.5 -84t-87.5 -188zM233 848q0 22 50 45q21 9 99.5 52t92.5 50q41 21 62 21q15 0 28 -15.5t13 -35.5q0 -30 -48 -50q-118 -55 -208 -90q-36 -14 -52 -14q-18 0 -27.5 12t-9.5 25z" />
<glyph unicode="&#xd4;" d="M53 334q0 139 109 246.5t256 107.5q146 0 255 -107.5t109 -246.5q0 -82 -36 -151.5t-91.5 -112t-118 -65.5t-120.5 -23t-119 21.5t-117 62.5t-91.5 111t-35.5 157zM137 334q0 -69 28 -123.5t71.5 -85t91 -46.5t92.5 -16q44 0 91 17t89.5 48.5t70 85.5t27.5 120 q0 106 -87 189t-193 83t-193.5 -84t-87.5 -188zM199 854q0 16 18 37q17 21 41 51t46 58t28 36q2 2 11 12.5t12.5 13.5t12 11t14.5 10.5t15.5 5.5t18.5 3t18.5 -3t15.5 -5.5t14.5 -10.5t12 -11t12.5 -13.5t11 -12.5q2 -3 46.5 -60t67.5 -85q19 -22 19 -37q0 -21 -12.5 -31 t-28.5 -10q-20 0 -45 31l-96 114q-5 5 -11 13t-9 10.5t-7 5t-8 2.5t-8 -2.5t-7 -5t-9 -10.5t-11 -13q-82 -96 -96 -114q-25 -31 -45 -31q-16 0 -28.5 10t-12.5 31z" />
<glyph unicode="&#xd5;" d="M53 334q0 139 109 246.5t256 107.5q146 0 255 -107.5t109 -246.5q0 -82 -36 -151.5t-91.5 -112t-118 -65.5t-120.5 -23t-119 21.5t-117 62.5t-91.5 111t-35.5 157zM131 854q0 17 19 39q26 29 47.5 49t63 39.5t85.5 19.5q39 0 74.5 -9.5t53.5 -19t46 -26.5q51 -31 82 -31 q30 0 51 21q33 29 52 29q36 0 36 -39q0 -19 -18 -37q-55 -55 -121 -55q-58 0 -123 43q-25 15 -36 21t-38.5 14t-58.5 8q-75 0 -131 -74q-26 -33 -43 -33q-16 0 -28.5 10.5t-12.5 30.5zM137 334q0 -69 28 -123.5t71.5 -85t91 -46.5t92.5 -16q44 0 91 17t89.5 48.5t70 85.5 t27.5 120q0 106 -87 189t-193 83t-193.5 -84t-87.5 -188z" />
<glyph unicode="&#xd6;" d="M53 334q0 139 109 246.5t256 107.5q146 0 255 -107.5t109 -246.5q0 -82 -36 -151.5t-91.5 -112t-118 -65.5t-120.5 -23t-119 21.5t-117 62.5t-91.5 111t-35.5 157zM137 334q0 -69 28 -123.5t71.5 -85t91 -46.5t92.5 -16q44 0 91 17t89.5 48.5t70 85.5t27.5 120 q0 106 -87 189t-193 83t-193.5 -84t-87.5 -188zM168 891q0 35 24 58.5t58 23.5q31 0 55.5 -25t24.5 -57q0 -33 -25 -56.5t-55 -23.5t-56 23.5t-26 56.5zM500 891q0 35 24 58.5t58 23.5q30 0 55 -25t25 -57q0 -33 -25 -56.5t-55 -23.5t-56 23.5t-26 56.5z" />
<glyph unicode="&#xd7;" horiz-adv-x="595" d="M78 174q0 4 0.5 6.5t1.5 4.5t4 5.5t4.5 5l7.5 7.5l10 10l136 137l-119 121q-40 40 -43 64q-2 17 7 28.5t24 11.5q24 0 55 -34l131 -133l133 133q21 21 31 27.5t24 6.5q15 0 24 -11.5t7 -28.5q-3 -24 -43 -64q-18 -17 -38 -37t-44.5 -45t-38.5 -39l137 -137l11.5 -11.5 l8.5 -8.5t5 -5.5t3.5 -6.5t0.5 -7q0 -15 -10.5 -27.5t-30.5 -13.5q-20 -4 -43 19l-137 139l-135 -139q-10 -10 -21 -15t-17 -5l-5 1q-20 1 -30.5 13.5t-10.5 27.5z" />
<glyph unicode="&#xd8;" d="M53 334q0 139 109 246.5t256 107.5q97 0 174 -47l8 10q22 31 43 31q23 0 34 -13.5t11 -27.5q0 -21 -22 -47l-4 -4q56 -50 88 -117.5t32 -138.5q0 -82 -36 -151.5t-91.5 -112t-118 -65.5t-120.5 -23q-90 0 -176 45l-23 -31q-22 -31 -43 -31q-22 0 -32.5 12.5t-10.5 26.5 q0 22 23 49l14 21q-115 99 -115 260zM137 334q0 -118 82 -193l322 432q-64 33 -123 33q-106 0 -193.5 -84t-87.5 -188zM289 92q65 -29 131 -29q44 0 91 17t89.5 48.5t70 85.5t27.5 120q0 102 -86 188z" />
<glyph unicode="&#xd9;" horiz-adv-x="794" d="M88 629q0 30 9 44.5t32 14.5q21 0 32 -14t11 -35q4 -150 4 -164v-178q0 -46 10.5 -85.5t34 -74t68 -54.5t106.5 -20q63 0 109 19t71 52t36.5 71.5t11.5 83.5v194q0 36 -1.5 74t-3.5 58l-2 20q0 53 39 53q43 0 43 -51q5 -61 7 -137q1 -30 1 -66t-0.5 -79.5t-0.5 -65.5 q0 -62 -15.5 -114.5t-49.5 -97t-96.5 -70t-148.5 -25.5q-85 0 -147 30.5t-94.5 79.5t-47 100.5t-14.5 104.5v170q0 35 -1 74t-2 63zM193 965q0 20 12.5 35.5t27.5 15.5q21 0 62 -21q14 -7 92.5 -50t99.5 -52q50 -23 50 -45q0 -13 -9.5 -25t-27.5 -12q-15 0 -51 14 q-96 38 -209 90q-47 19 -47 50z" />
<glyph unicode="&#xda;" horiz-adv-x="794" d="M88 629q0 30 9 44.5t32 14.5q21 0 32 -14t11 -35q4 -150 4 -164v-178q0 -46 10.5 -85.5t34 -74t68 -54.5t106.5 -20q63 0 109 19t71 52t36.5 71.5t11.5 83.5v194q0 36 -1.5 74t-3.5 58l-2 20q0 53 39 53q43 0 43 -51q5 -61 7 -137q1 -30 1 -66t-0.5 -79.5t-0.5 -65.5 q0 -62 -15.5 -114.5t-49.5 -97t-96.5 -70t-148.5 -25.5q-85 0 -147 30.5t-94.5 79.5t-47 100.5t-14.5 104.5v170q0 35 -1 74t-2 63zM193 848q0 23 49 45q21 9 99.5 52t92.5 50q41 21 62 21q15 0 28 -15.5t13 -35.5q0 -30 -48 -50q-118 -55 -208 -90q-36 -14 -52 -14 q-18 0 -27 12t-9 25z" />
<glyph unicode="&#xdb;" horiz-adv-x="794" d="M88 629q0 30 9 44.5t32 14.5q21 0 32 -14t11 -35q4 -150 4 -164v-178q0 -46 10.5 -85.5t34 -74t68 -54.5t106.5 -20q63 0 109 19t71 52t36.5 71.5t11.5 83.5v194q0 36 -1.5 74t-3.5 58l-2 20q0 53 39 53q43 0 43 -51q5 -61 7 -137q1 -30 1 -66t-0.5 -79.5t-0.5 -65.5 q0 -62 -15.5 -114.5t-49.5 -97t-96.5 -70t-148.5 -25.5q-85 0 -147 30.5t-94.5 79.5t-47 100.5t-14.5 104.5v170q0 35 -1 74t-2 63zM172 852q0 16 18 37q17 21 41 51t46 58t28 36q2 2 11 12.5t12.5 13.5t12 11t14.5 10.5t15.5 5.5t18.5 3t18.5 -3t15.5 -5.5t14.5 -10.5 t12 -11t12.5 -13.5t11 -12.5q6 -8 28 -36t46 -58t41 -51q18 -21 18 -37q0 -21 -12.5 -31t-28.5 -10q-20 0 -45 31l-96 114q-5 5 -11 13t-9 10.5t-7 5t-8 2.5t-8 -2.5t-7 -5t-9 -10.5t-11 -13q-82 -96 -96 -114q-25 -31 -45 -31q-16 0 -28.5 10t-12.5 31z" />
<glyph unicode="&#xdc;" horiz-adv-x="794" d="M88 629q0 30 9 44.5t32 14.5q21 0 32 -14t11 -35q4 -150 4 -164v-178q0 -46 10.5 -85.5t34 -74t68 -54.5t106.5 -20q63 0 109 19t71 52t36.5 71.5t11.5 83.5v194q0 36 -1.5 74t-3.5 58l-2 20q0 53 39 53q43 0 43 -51q5 -61 7 -137q1 -30 1 -66t-0.5 -79.5t-0.5 -65.5 q0 -62 -15.5 -114.5t-49.5 -97t-96.5 -70t-148.5 -25.5q-85 0 -147 30.5t-94.5 79.5t-47 100.5t-14.5 104.5v170q0 35 -1 74t-2 63zM145 891q0 35 24 58.5t58 23.5q31 0 55.5 -25t24.5 -57q0 -33 -25 -56.5t-55 -23.5t-56 23.5t-26 56.5zM477 891q0 35 24 58.5t58 23.5 q30 0 55 -25t25 -57q0 -33 -25 -56.5t-55 -23.5t-56 23.5t-26 56.5z" />
<glyph unicode="&#xdd;" horiz-adv-x="632" d="M14 649q0 18 11.5 27.5t27.5 9.5q21 0 47 -41q162 -252 176 -270q1 -1 11 -15.5t18 -23t12 -8.5q9 0 35 34q32 43 187 283q26 41 43 41q16 0 27.5 -9.5t11.5 -27.5q0 -25 -23 -59q-157 -242 -188 -281q-36 -40 -56 -51q4 -208 4 -229t-10.5 -34t-25.5 -13q-22 0 -34 12.5 t-12 34.5q0 11 -4 233q-20 13 -47 47q-31 39 -188 281q-23 34 -23 59zM131 848q0 23 49 45q21 9 100 52t93 50q41 21 61 21q15 0 28 -15.5t13 -35.5q0 -31 -47 -50q-113 -52 -209 -90q-36 -14 -51 -14q-18 0 -27.5 12t-9.5 25z" />
<glyph unicode="&#xde;" horiz-adv-x="673" d="M98 334q0 28 2 145.5t2 159.5q0 20 10 33.5t29 13.5q18 0 30.5 -12.5t12.5 -34.5q0 -7 -1 -12t-1 -6h74q39 0 75 -3.5t81 -12.5t81.5 -28.5t68.5 -47.5t49.5 -73t17.5 -102q0 -260 -346 -260q-39 0 -93 4h-8l2 -69q0 -22 -12.5 -34.5t-30.5 -12.5q-19 0 -29 13.5 t-10 33.5q-4 217 -4 305zM180 180h13q25 -2 90 -2q42 0 74 3t69.5 13.5t62.5 28.5t41.5 51.5t16.5 79.5q0 47 -21.5 82t-52 54t-73.5 30.5t-77 15t-71 3.5h-70q-2 -76 -2 -209v-150z" />
<glyph unicode="&#xdf;" horiz-adv-x="567" d="M92 471q0 97 49 156t148 59q92 0 140 -48t48 -126q0 -93 -92 -158q-47 -33 -47 -53q0 -23 59 -72q67 -57 89 -86q40 -52 40 -110q0 -51 -41 -51q-21 0 -31 14.5t-10 36.5q0 16 -6 33t-12 28t-21.5 28t-22 23t-28 24t-24.5 21q-37 34 -55.5 58.5t-18.5 52.5q0 9 2 17 t3.5 13.5t7 13t8 11t11 10.5t11 9.5t13 10t12.5 9.5q29 20 50 51t21 66q0 42 -28.5 67t-77.5 25q-57 0 -86 -37t-29 -96l4 -438q0 -51 -43 -51q-19 0 -29 14.5t-10 36.5q-4 338 -4 438z" />
<glyph unicode="&#xe0;" horiz-adv-x="751" d="M86 45q0 2 0.5 20t1.5 48t2 68t1.5 89.5t0.5 102.5q0 42 8 82.5t28.5 83t51.5 74.5t81 52.5t114 20.5q63 0 113 -20.5t80.5 -52.5t51 -74.5t28.5 -83t9 -82.5q1 -80 2.5 -159.5t3 -123.5t1.5 -45q0 -23 -2 -34.5t-10.5 -20t-26.5 -8.5q-43 0 -43 47q-2 48 -2 116h-166 q-102 0 -244 5l-2 -121q0 -47 -43 -47q-25 0 -32 14.5t-7 48.5zM172 233q105 -6 242 -6q113 0 164 2q0 8 -1.5 50.5t-1.5 91.5q0 45 -10 83t-32 71t-62.5 52t-95.5 19q-56 0 -97 -19t-62.5 -52t-31.5 -71t-10 -83q0 -46 -1 -88t-1 -50zM184 965q0 20 13 35.5t28 15.5 q21 0 62 -21q14 -7 92.5 -50t99.5 -52q49 -22 49 -45q0 -13 -9 -25t-27 -12q-16 0 -52 14q-96 38 -209 90q-47 19 -47 50z" />
<glyph unicode="&#xe1;" horiz-adv-x="751" d="M86 45q0 2 0.5 20t1.5 48t2 68t1.5 89.5t0.5 102.5q0 42 8 82.5t28.5 83t51.5 74.5t81 52.5t114 20.5q63 0 113 -20.5t80.5 -52.5t51 -74.5t28.5 -83t9 -82.5q1 -80 2.5 -159.5t3 -123.5t1.5 -45q0 -23 -2 -34.5t-10.5 -20t-26.5 -8.5q-43 0 -43 47q-2 48 -2 116h-166 q-102 0 -244 5l-2 -121q0 -47 -43 -47q-25 0 -32 14.5t-7 48.5zM172 233q105 -6 242 -6q113 0 164 2q0 8 -1.5 50.5t-1.5 91.5q0 45 -10 83t-32 71t-62.5 52t-95.5 19q-56 0 -97 -19t-62.5 -52t-31.5 -71t-10 -83q0 -46 -1 -88t-1 -50zM184 848q0 23 49 45q21 9 100 52 t93 50q41 21 61 21q15 0 28 -15.5t13 -35.5q0 -31 -47 -50q-113 -52 -209 -90q-36 -14 -51 -14q-18 0 -27.5 12t-9.5 25z" />
<glyph unicode="&#xe2;" horiz-adv-x="751" d="M86 45q0 2 0.5 20t1.5 48t2 68t1.5 89.5t0.5 102.5q0 42 8 82.5t28.5 83t51.5 74.5t81 52.5t114 20.5q63 0 113 -20.5t80.5 -52.5t51 -74.5t28.5 -83t9 -82.5q1 -80 2.5 -159.5t3 -123.5t1.5 -45q0 -23 -2 -34.5t-10.5 -20t-26.5 -8.5q-43 0 -43 47q-2 48 -2 116h-166 q-102 0 -244 5l-2 -121q0 -47 -43 -47q-25 0 -32 14.5t-7 48.5zM139 852q0 15 19 37q23 28 67.5 85t46.5 60q2 2 11 12.5t12.5 13.5t12 11t14.5 10.5t15.5 5.5t18.5 3t18.5 -3t15.5 -5.5t14.5 -10.5t12 -11t12.5 -13.5t11 -12.5q6 -8 28 -36t46 -58t41 -51q18 -21 18 -37 q0 -21 -12.5 -31t-28.5 -10q-20 0 -45 31l-96 114q-5 5 -11 13t-9 10.5t-7 5t-8 2.5t-8 -2.5t-6.5 -5.5t-8.5 -10t-11 -13q-83 -96 -97 -114q-25 -31 -45 -31q-16 0 -28.5 10t-12.5 31zM172 233q105 -6 242 -6q113 0 164 2q0 8 -1.5 50.5t-1.5 91.5q0 45 -10 83t-32 71 t-62.5 52t-95.5 19q-56 0 -97 -19t-62.5 -52t-31.5 -71t-10 -83q0 -46 -1 -88t-1 -50z" />
<glyph unicode="&#xe3;" horiz-adv-x="753" d="M53 854q0 17 19 39q26 29 47.5 49t63 39.5t85.5 19.5q39 0 74.5 -9.5t53.5 -19t46 -26.5q51 -31 82 -31q30 0 51 21q33 29 52 29q37 0 37 -39q0 -18 -19 -37q-55 -55 -121 -55q-58 0 -123 43q-25 15 -36 21t-38.5 14t-58.5 8q-75 0 -131 -74q-26 -33 -43 -33 q-16 0 -28.5 10.5t-12.5 30.5zM88 45q0 2 0.5 20t1.5 48t2 68t1.5 89.5t0.5 102.5q0 42 8 82.5t28.5 83t51.5 74.5t81 52.5t114 20.5q63 0 113 -20.5t80.5 -52.5t51 -74.5t28.5 -83t9 -82.5q1 -80 2.5 -159.5t3 -123.5t1.5 -45q0 -23 -2 -34.5t-10.5 -20t-26.5 -8.5 q-43 0 -43 47q-2 48 -2 116h-166q-102 0 -244 5l-2 -121q0 -47 -43 -47q-25 0 -32 14.5t-7 48.5zM174 233q105 -6 242 -6q113 0 164 2q0 8 -1 50.5t-1 91.5q0 45 -10 83t-32 71t-63 52t-96 19q-56 0 -97 -19t-62.5 -52t-31.5 -71t-10 -83q0 -46 -1 -88t-1 -50z" />
<glyph unicode="&#xe4;" horiz-adv-x="751" d="M86 45q0 2 0.5 20t1.5 48t2 68t1.5 89.5t0.5 102.5q0 42 8 82.5t28.5 83t51.5 74.5t81 52.5t114 20.5q63 0 113 -20.5t80.5 -52.5t51 -74.5t28.5 -83t9 -82.5q1 -80 2.5 -159.5t3 -123.5t1.5 -45q0 -23 -2 -34.5t-10.5 -20t-26.5 -8.5q-43 0 -43 47q-2 48 -2 116h-166 q-102 0 -244 5l-2 -121q0 -47 -43 -47q-25 0 -32 14.5t-7 48.5zM111 891q0 35 24 58.5t58 23.5q31 0 55 -25t24 -57q0 -33 -24.5 -56.5t-54.5 -23.5t-56 23.5t-26 56.5zM172 233q105 -6 242 -6q113 0 164 2q0 8 -1.5 50.5t-1.5 91.5q0 45 -10 83t-32 71t-62.5 52t-95.5 19 q-56 0 -97 -19t-62.5 -52t-31.5 -71t-10 -83q0 -46 -1 -88t-1 -50zM442 891q0 35 24 58.5t58 23.5q30 0 55 -25t25 -57q0 -33 -25 -56.5t-55 -23.5t-56 23.5t-26 56.5z" />
<glyph unicode="&#xe5;" horiz-adv-x="751" d="M86 45q0 2 0.5 20t1.5 48t2 68t1.5 89.5t0.5 102.5q0 42 8 82.5t28.5 83t51.5 74.5t81 52.5t114 20.5q63 0 113 -20.5t80.5 -52.5t51 -74.5t28.5 -83t9 -82.5q1 -80 2.5 -159.5t3 -123.5t1.5 -45q0 -23 -2 -34.5t-10.5 -20t-26.5 -8.5q-43 0 -43 47q-2 48 -2 116h-166 q-102 0 -244 5l-2 -121q0 -47 -43 -47q-25 0 -32 14.5t-7 48.5zM170 995q0 83 59 132t123 49q66 0 128.5 -47t62.5 -123q0 -84 -51 -139.5t-134 -55.5q-88 0 -138 47.5t-50 136.5zM172 233q105 -6 242 -6q113 0 164 2q0 8 -1.5 50.5t-1.5 91.5q0 45 -10 83t-32 71t-62.5 52 t-95.5 19q-56 0 -97 -19t-62.5 -52t-31.5 -71t-10 -83q0 -46 -1 -88t-1 -50zM252 995q0 -50 28 -76t78 -26q46 0 74.5 33t28.5 80q0 39 -36 63.5t-73 24.5q-36 0 -68 -26.5t-32 -72.5z" />
<glyph unicode="&#xe6;" horiz-adv-x="1081" d="M86 45q0 2 0.5 20t1.5 48t2 67.5t1.5 89t0.5 101.5q0 53 14 104.5t44 100.5t88 79.5t137 30.5q120 0 196 -76q3 39 29.5 56.5t67.5 17.5q17 0 155 1l138 1q22 0 36.5 -11t14.5 -28q0 -43 -47 -43q-240 -2 -267 -2q-45 0 -45 -33q0 -28 2.5 -107t3.5 -108h84l166 4 q24 0 35.5 -11.5t11.5 -27.5q0 -40 -65 -40q-11 0 -60 -1.5t-88 -1.5q-35 0 -81 3q0 -69 -1.5 -117t-1.5 -49q0 -39 78 -39l256 2q21 0 34 -12t13 -31q0 -41 -45 -41h-288q-38 0 -63.5 7.5t-38.5 17t-19.5 29t-7 30.5t-0.5 35v34h-164q-102 0 -244 5l-2 -121q0 -47 -43 -47 q-25 0 -32 14.5t-7 48.5zM172 233q105 -6 242 -6q113 0 164 2q-3 38 -3 140q0 46 -9.5 84.5t-31.5 71.5t-62.5 52t-96.5 19t-97 -19t-62.5 -52t-31.5 -71t-10 -83q0 -46 -1 -88t-1 -50z" />
<glyph unicode="&#xe7;" horiz-adv-x="710" d="M53 322q0 80 33.5 150t86 116.5t117.5 73t128 26.5q108 0 174.5 -27t66.5 -59q0 -37 -36 -37q-13 0 -27 6.5t-28.5 14t-53.5 14t-96 6.5q-62 0 -126.5 -34.5t-110.5 -101.5t-46 -148q0 -66 27 -117.5t69.5 -81.5t90.5 -45t96 -15q73 0 114 10.5t58.5 20.5t32.5 10 q36 0 36 -36q0 -32 -65.5 -58.5t-173.5 -27.5l-8 -21q-8 -29 -4.5 -35t16.5 -6q21 0 32.5 -0.5t33 -3.5t34.5 -11.5t27 -21t20.5 -34.5t6.5 -52q0 -62 -46 -102.5t-122 -40.5q-26 0 -59 6t-66 25t-33 47q0 16 9.5 25.5t21.5 9.5q13 0 46.5 -17.5t80.5 -17.5q39 0 64.5 19 t25.5 46q0 47 -88 47h-31q-59 0 -69 28t12 75q8 29 14 43q-56 10 -104.5 33.5t-90.5 62.5t-66 100t-24 136z" />
<glyph unicode="&#xe8;" horiz-adv-x="604" d="M94 600q0 84 96 84q17 0 155 1l138 1q22 0 37 -11t15 -28q0 -21 -15.5 -32t-32.5 -11q-239 -2 -266 -2q-45 0 -45 -33q0 -28 2.5 -107t3.5 -108h84l166 4q24 0 35.5 -11.5t11.5 -27.5q0 -40 -65 -40q-11 0 -60 -1.5t-88 -1.5q-36 0 -82 3v-35q0 -24 -1 -61t-1 -42 q0 -19 1 -27t7.5 -19.5t23.5 -16t46 -4.5l256 2q15 0 31 -13t16 -30q0 -41 -45 -41h-289q-38 0 -63.5 7.5t-38.5 17t-19.5 29t-7 30.5t-0.5 35v133q0 65 -3 193.5t-3 162.5zM141 965q0 20 13 35.5t28 15.5q21 0 62 -21q14 -7 92.5 -50t99.5 -52q49 -22 49 -45q0 -13 -9 -25 t-27 -12q-16 0 -52 14q-96 38 -209 90q-47 19 -47 50z" />
<glyph unicode="&#xe9;" horiz-adv-x="604" d="M94 600q0 84 96 84q17 0 155 1l138 1q22 0 37 -11t15 -28q0 -21 -15.5 -32t-32.5 -11q-239 -2 -266 -2q-45 0 -45 -33q0 -28 2.5 -107t3.5 -108h84l166 4q24 0 35.5 -11.5t11.5 -27.5q0 -40 -65 -40q-11 0 -60 -1.5t-88 -1.5q-36 0 -82 3v-35q0 -24 -1 -61t-1 -42 q0 -19 1 -27t7.5 -19.5t23.5 -16t46 -4.5l256 2q15 0 31 -13t16 -30q0 -41 -45 -41h-289q-38 0 -63.5 7.5t-38.5 17t-19.5 29t-7 30.5t-0.5 35v133q0 65 -3 193.5t-3 162.5zM141 848q0 23 49 45q21 9 100 52t93 50q41 21 61 21q15 0 28 -15.5t13 -35.5q0 -31 -47 -50 q-113 -52 -209 -90q-36 -14 -51 -14q-18 0 -27.5 12t-9.5 25z" />
<glyph unicode="&#xea;" horiz-adv-x="604" d="M94 600q0 84 96 84q17 0 155 1l138 1q22 0 37 -11t15 -28q0 -21 -15.5 -32t-32.5 -11q-239 -2 -266 -2q-45 0 -45 -33q0 -28 2.5 -107t3.5 -108h84l166 4q24 0 35.5 -11.5t11.5 -27.5q0 -40 -65 -40q-11 0 -60 -1.5t-88 -1.5q-36 0 -82 3v-35q0 -24 -1 -61t-1 -42 q0 -19 1 -27t7.5 -19.5t23.5 -16t46 -4.5l256 2q15 0 31 -13t16 -30q0 -41 -45 -41h-289q-38 0 -63.5 7.5t-38.5 17t-19.5 29t-7 30.5t-0.5 35v133q0 65 -3 193.5t-3 162.5zM96 852q0 15 19 37q23 28 67.5 85t46.5 60q2 2 11 12.5t12.5 13.5t12 11t14.5 10.5t15.5 5.5 t18.5 3t18.5 -3t15.5 -5.5t14.5 -10.5t12 -11t12.5 -13.5t11 -12.5q6 -8 28 -36t46 -58t41 -51q18 -21 18 -37q0 -21 -12.5 -31t-28.5 -10q-20 0 -45 31l-96 114q-5 5 -11 13t-9 10.5t-7 5t-8 2.5t-8 -2.5t-6.5 -5.5t-8.5 -10t-11 -13q-83 -96 -97 -114q-25 -31 -45 -31 q-16 0 -28.5 10t-12.5 31z" />
<glyph unicode="&#xeb;" horiz-adv-x="604" d="M66 891q0 35 23.5 58.5t57.5 23.5q31 0 55.5 -25t24.5 -57q0 -33 -25 -56.5t-55 -23.5t-55.5 23.5t-25.5 56.5zM94 600q0 84 96 84q17 0 155 1l138 1q22 0 37 -11t15 -28q0 -21 -15.5 -32t-32.5 -11q-239 -2 -266 -2q-45 0 -45 -33q0 -28 2.5 -107t3.5 -108h84l166 4 q24 0 35.5 -11.5t11.5 -27.5q0 -40 -65 -40q-11 0 -60 -1.5t-88 -1.5q-36 0 -82 3v-35q0 -24 -1 -61t-1 -42q0 -19 1 -27t7.5 -19.5t23.5 -16t46 -4.5l256 2q15 0 31 -13t16 -30q0 -41 -45 -41h-289q-38 0 -63.5 7.5t-38.5 17t-19.5 29t-7 30.5t-0.5 35v133q0 65 -3 193.5 t-3 162.5zM397 891q0 35 24 58.5t58 23.5q30 0 55 -25t25 -57q0 -33 -25 -56.5t-55 -23.5t-56 23.5t-26 56.5z" />
<glyph unicode="&#xec;" horiz-adv-x="376" d="M-111 965q0 20 13 35.5t28 15.5q21 0 62 -21q14 -7 92.5 -50t99.5 -52q49 -22 49 -45q0 -13 -9 -25t-27 -12q-16 0 -52 14q-90 35 -208 90q-48 20 -48 50zM41 633q0 43 63 43h152q63 0 63 -43q0 -12 -13 -23.5t-34 -11.5h-47v-86l11 -453h51q25 0 36 -10.5t11 -23.5 q0 -43 -64 -43h-151q-64 0 -64 43q0 12 13 23t34 11h52l-9 451q0 23 -1 52t-1 36h-55q-25 0 -36 11t-11 24z" />
<glyph unicode="&#xed;" horiz-adv-x="376" d="M41 633q0 43 63 43h152q63 0 63 -43q0 -12 -13 -23.5t-34 -11.5h-47v-86l11 -453h51q25 0 36 -10.5t11 -23.5q0 -43 -64 -43h-151q-64 0 -64 43q0 12 13 23t34 11h52l-9 451q0 23 -1 52t-1 36h-55q-25 0 -36 11t-11 24zM70 848q0 23 49 45q21 9 99.5 52t92.5 50 q41 21 62 21q15 0 28 -15.5t13 -35.5q0 -31 -47 -50q-113 -52 -209 -90q-36 -14 -52 -14q-18 0 -27 12t-9 25z" />
<glyph unicode="&#xee;" horiz-adv-x="376" d="M-33 852q0 15 19 37q23 28 67.5 85t46.5 60q2 2 11 12.5t12.5 13.5t12 11t14.5 10.5t15.5 5.5t18.5 3t18.5 -3t15.5 -5.5t14.5 -10.5t12 -11t12.5 -13.5t11 -12.5q6 -8 28 -36t46 -58t41 -51q18 -21 18 -37q0 -21 -12.5 -31t-28.5 -10q-20 0 -45 31l-96 114q-5 5 -11 13 t-9 10.5t-7 5t-8 2.5t-8 -2.5t-6.5 -5.5t-8.5 -10t-11 -13q-83 -96 -97 -114q-25 -31 -45 -31q-16 0 -28.5 10t-12.5 31zM41 633q0 43 63 43h152q63 0 63 -43q0 -12 -13 -23.5t-34 -11.5h-47v-86l11 -453h51q25 0 36 -10.5t11 -23.5q0 -43 -64 -43h-151q-64 0 -64 43 q0 12 13 23t34 11h52l-9 451q0 23 -1 52t-1 36h-55q-25 0 -36 11t-11 24z" />
<glyph unicode="&#xef;" horiz-adv-x="376" d="M-57 891q0 35 24 58.5t58 23.5q31 0 55 -25t24 -57q0 -33 -24.5 -56.5t-54.5 -23.5t-56 23.5t-26 56.5zM41 633q0 43 63 43h152q63 0 63 -43q0 -12 -13 -23.5t-34 -11.5h-47v-86l11 -453h51q25 0 36 -10.5t11 -23.5q0 -43 -64 -43h-151q-64 0 -64 43q0 12 13 23t34 11h52 l-9 451q0 23 -1 52t-1 36h-55q-25 0 -36 11t-11 24zM274 891q0 35 24 58.5t58 23.5q30 0 55 -25t25 -57q0 -33 -25 -56.5t-55 -23.5t-56 23.5t-26 56.5z" />
<glyph unicode="&#xf0;" horiz-adv-x="784" d="M-4 340q0 35 57 35q23 -4 68 -4q-4 114 -4 176q0 78 19.5 106.5t74.5 28.5h141q190 0 283.5 -95t93.5 -253q0 -169 -111.5 -260.5t-287.5 -91.5q-117 0 -159 28.5t-42 91.5q0 92 -6 191q-8 0 -20.5 1t-20.5 1q-86 0 -86 45zM197 477q0 -71 2 -106l88 4q57 0 57 -35 q0 -45 -86 -45q-14 0 -30.5 -1t-22.5 -1q6 -159 6 -160q0 -36 24.5 -53t94.5 -17q155 0 236 70.5t81 196.5q0 134 -74.5 202t-220.5 68h-110q-16 0 -30.5 -9t-14.5 -30v-84z" />
<glyph unicode="&#xf1;" horiz-adv-x="802" d="M98 520v117q0 49 41 49q23 0 33 -16q28 -42 192.5 -241t245.5 -288l15 -16v20q-2 81 -5 199.5t-5.5 200t-2.5 94.5q0 21 10.5 34t26.5 13q45 0 45 -47q0 -2 2.5 -87.5t5 -206t3.5 -198.5v-116q0 -49 -41 -49q-24 0 -41 20q-6 8 -19.5 25.5t-26.5 33.5t-26 31 q-156 181 -373 451v-21q2 -79 5 -198.5t5 -200t2 -94.5q0 -21 -10.5 -34t-25.5 -13q-45 0 -45 47q0 2 -2.5 87.5t-5 205.5t-3.5 198zM102 854q0 17 19 39q26 29 47.5 49t63 39.5t85.5 19.5q39 0 75 -9.5t54 -19t46 -26.5q51 -31 81 -31q31 0 52 21q33 29 51 29q37 0 37 -39 q0 -18 -19 -37q-55 -55 -121 -55q-57 0 -122 43q-24 15 -36 21t-39.5 14t-58.5 8q-75 0 -131 -74q-26 -33 -43 -33q-16 0 -28.5 10.5t-12.5 30.5z" />
<glyph unicode="&#xf2;" d="M53 334q0 139 109 246.5t256 107.5q146 0 255 -107.5t109 -246.5q0 -82 -36 -151.5t-91.5 -112t-118 -65.5t-120.5 -23t-119 21.5t-117 62.5t-91.5 111t-35.5 157zM137 334q0 -69 28 -123.5t71.5 -85t91 -46.5t92.5 -16q44 0 91 17t89.5 48.5t70 85.5t27.5 120 q0 106 -87 189t-193 83t-193.5 -84t-87.5 -188zM264 965q0 20 13 35.5t28 15.5q21 0 62 -21q14 -7 92.5 -50t99.5 -52q49 -22 49 -45q0 -13 -9.5 -25t-27.5 -12q-15 0 -51 14q-96 38 -209 90q-47 19 -47 50z" />
<glyph unicode="&#xf3;" d="M53 334q0 139 109 246.5t256 107.5q146 0 255 -107.5t109 -246.5q0 -82 -36 -151.5t-91.5 -112t-118 -65.5t-120.5 -23t-119 21.5t-117 62.5t-91.5 111t-35.5 157zM137 334q0 -69 28 -123.5t71.5 -85t91 -46.5t92.5 -16q44 0 91 17t89.5 48.5t70 85.5t27.5 120 q0 106 -87 189t-193 83t-193.5 -84t-87.5 -188zM264 848q0 23 49 45q21 9 100 52t93 50q41 21 61 21q15 0 28 -15.5t13 -35.5q0 -31 -47 -50q-113 -52 -209 -90q-36 -14 -51 -14q-18 0 -27.5 12t-9.5 25z" />
<glyph unicode="&#xf4;" d="M53 334q0 139 109 246.5t256 107.5q146 0 255 -107.5t109 -246.5q0 -82 -36 -151.5t-91.5 -112t-118 -65.5t-120.5 -23t-119 21.5t-117 62.5t-91.5 111t-35.5 157zM137 334q0 -69 28 -123.5t71.5 -85t91 -46.5t92.5 -16q44 0 91 17t89.5 48.5t70 85.5t27.5 120 q0 106 -87 189t-193 83t-193.5 -84t-87.5 -188zM219 852q0 15 19 37q23 28 67.5 85t46.5 60q2 2 11 12.5t12.5 13.5t12 11t14.5 10.5t15.5 5.5t18.5 3t18.5 -3t15.5 -5.5t14.5 -10.5t12 -11t12.5 -13.5t11 -12.5q6 -8 28 -36t46 -58t41 -51q18 -21 18 -37q0 -21 -12.5 -31 t-28.5 -10q-20 0 -45 31l-96 114q-5 5 -11 13t-9 10.5t-7 5t-8 2.5t-8 -2.5t-7 -5t-9 -10.5t-11 -13q-82 -96 -96 -114q-25 -31 -45 -31q-16 0 -28.5 10t-12.5 31z" />
<glyph unicode="&#xf5;" d="M53 334q0 139 109 246.5t256 107.5q146 0 255 -107.5t109 -246.5q0 -82 -36 -151.5t-91.5 -112t-118 -65.5t-120.5 -23t-119 21.5t-117 62.5t-91.5 111t-35.5 157zM131 854q0 17 19 39q26 29 47.5 49t63 39.5t85.5 19.5q39 0 74.5 -9.5t53.5 -19t46 -26.5q51 -31 82 -31 q30 0 51 21q33 29 52 29q36 0 36 -39q0 -19 -18 -37q-55 -55 -121 -55q-58 0 -123 43q-25 15 -36 21t-38.5 14t-58.5 8q-75 0 -131 -74q-26 -33 -43 -33q-16 0 -28.5 10.5t-12.5 30.5zM137 334q0 -69 28 -123.5t71.5 -85t91 -46.5t92.5 -16q44 0 91 17t89.5 48.5t70 85.5 t27.5 120q0 106 -87 189t-193 83t-193.5 -84t-87.5 -188z" />
<glyph unicode="&#xf6;" d="M53 334q0 139 109 246.5t256 107.5q146 0 255 -107.5t109 -246.5q0 -82 -36 -151.5t-91.5 -112t-118 -65.5t-120.5 -23t-119 21.5t-117 62.5t-91.5 111t-35.5 157zM137 334q0 -69 28 -123.5t71.5 -85t91 -46.5t92.5 -16q44 0 91 17t89.5 48.5t70 85.5t27.5 120 q0 106 -87 189t-193 83t-193.5 -84t-87.5 -188zM190 891q0 35 24 58.5t58 23.5q31 0 55.5 -25t24.5 -57q0 -33 -25 -56.5t-55 -23.5t-56 23.5t-26 56.5zM522 891q0 35 24 58.5t58 23.5q30 0 55 -25t25 -57q0 -33 -25 -56.5t-55 -23.5t-56 23.5t-26 56.5z" />
<glyph unicode="&#xf7;" horiz-adv-x="641" d="M49 344q0 14 13.5 24.5t43.5 10.5q111 -2 209 -2l220 4q30 0 43.5 -10.5t13.5 -24.5q0 -45 -86 -45q-14 0 -77 -1t-114 -1h-180q-86 0 -86 45zM209 106q0 47 31.5 78t76.5 31q41 0 74 -33t33 -76q0 -44 -33.5 -75t-73.5 -31t-74 31t-34 75zM209 578q0 47 31.5 77.5 t76.5 30.5q41 0 74 -33t33 -75q0 -44 -33.5 -75.5t-73.5 -31.5t-74 31.5t-34 75.5z" />
<glyph unicode="&#xf8;" d="M53 334q0 139 109 246.5t256 107.5q97 0 174 -47l8 10q22 31 43 31q23 0 34 -13.5t11 -27.5q0 -21 -22 -47l-4 -4q56 -50 88 -117.5t32 -138.5q0 -82 -36 -151.5t-91.5 -112t-118 -65.5t-120.5 -23q-90 0 -176 45l-23 -31q-22 -31 -43 -31q-22 0 -32.5 12.5t-10.5 26.5 q0 22 23 49l14 21q-115 99 -115 260zM137 334q0 -118 82 -193l322 432q-64 33 -123 33q-106 0 -193.5 -84t-87.5 -188zM289 92q65 -29 131 -29q44 0 91 17t89.5 48.5t70 85.5t27.5 120q0 102 -86 188z" />
<glyph unicode="&#xf9;" horiz-adv-x="794" d="M88 629q0 30 9 44.5t32 14.5q21 0 32 -14t11 -35q4 -133 4 -164v-178q0 -46 10.5 -85.5t34 -74t68 -54.5t106.5 -20q63 0 109 19t71 52t36.5 71.5t11.5 83.5v194q0 36 -1.5 74t-3.5 58l-2 20q0 53 39 53q43 0 43 -51q5 -61 7 -137q1 -30 1 -66t-0.5 -79.5t-0.5 -65.5 q0 -62 -15.5 -114.5t-49.5 -97t-96.5 -70t-148.5 -25.5q-85 0 -147 30.5t-94.5 79.5t-47 100.5t-14.5 104.5v170q0 35 -1 74t-2 63zM193 965q0 20 12.5 35.5t27.5 15.5q21 0 62 -21q14 -7 92.5 -50t99.5 -52q50 -23 50 -45q0 -13 -9.5 -25t-27.5 -12q-15 0 -51 14 q-96 38 -209 90q-47 19 -47 50z" />
<glyph unicode="&#xfa;" horiz-adv-x="794" d="M88 629q0 30 9 44.5t32 14.5q21 0 32 -14t11 -35q4 -133 4 -164v-178q0 -46 10.5 -85.5t34 -74t68 -54.5t106.5 -20q63 0 109 19t71 52t36.5 71.5t11.5 83.5v194q0 36 -1.5 74t-3.5 58l-2 20q0 53 39 53q43 0 43 -51q5 -61 7 -137q1 -30 1 -66t-0.5 -79.5t-0.5 -65.5 q0 -62 -15.5 -114.5t-49.5 -97t-96.5 -70t-148.5 -25.5q-85 0 -147 30.5t-94.5 79.5t-47 100.5t-14.5 104.5v170q0 35 -1 74t-2 63zM193 848q0 23 49 45q21 9 99.5 52t92.5 50q41 21 62 21q15 0 28 -15.5t13 -35.5q0 -30 -48 -50q-118 -55 -208 -90q-36 -14 -52 -14 q-18 0 -27 12t-9 25z" />
<glyph unicode="&#xfb;" horiz-adv-x="794" d="M88 629q0 30 9 44.5t32 14.5q21 0 32 -14t11 -35q4 -133 4 -164v-178q0 -46 10.5 -85.5t34 -74t68 -54.5t106.5 -20q63 0 109 19t71 52t36.5 71.5t11.5 83.5v194q0 36 -1.5 74t-3.5 58l-2 20q0 53 39 53q43 0 43 -51q5 -61 7 -137q1 -30 1 -66t-0.5 -79.5t-0.5 -65.5 q0 -62 -15.5 -114.5t-49.5 -97t-96.5 -70t-148.5 -25.5q-85 0 -147 30.5t-94.5 79.5t-47 100.5t-14.5 104.5v170q0 35 -1 74t-2 63zM172 852q0 16 18 37q17 21 41 51t46 58t28 36q2 2 11 12.5t12.5 13.5t12 11t14.5 10.5t15.5 5.5t18.5 3t18.5 -3t15.5 -5.5t14.5 -10.5 t12 -11t12.5 -13.5t11 -12.5q6 -8 28 -36t46 -58t41 -51q18 -21 18 -37q0 -21 -12.5 -31t-28.5 -10q-20 0 -45 31l-96 114q-5 5 -11 13t-9 10.5t-7 5t-8 2.5t-8 -2.5t-7 -5t-9 -10.5t-11 -13q-82 -96 -96 -114q-25 -31 -45 -31q-16 0 -28.5 10t-12.5 31z" />
<glyph unicode="&#xfc;" horiz-adv-x="794" d="M88 629q0 30 9 44.5t32 14.5q21 0 32 -14t11 -35q4 -133 4 -164v-178q0 -46 10.5 -85.5t34 -74t68 -54.5t106.5 -20q63 0 109 19t71 52t36.5 71.5t11.5 83.5v194q0 36 -1.5 74t-3.5 58l-2 20q0 53 39 53q43 0 43 -51q5 -61 7 -137q1 -30 1 -66t-0.5 -79.5t-0.5 -65.5 q0 -62 -15.5 -114.5t-49.5 -97t-96.5 -70t-148.5 -25.5q-85 0 -147 30.5t-94.5 79.5t-47 100.5t-14.5 104.5v170q0 35 -1 74t-2 63zM152 891q0 35 23.5 58.5t57.5 23.5q31 0 55.5 -25t24.5 -57q0 -33 -25 -56.5t-55 -23.5t-55.5 23.5t-25.5 56.5zM483 891q0 35 24 58.5 t58 23.5q30 0 55 -25t25 -57q0 -33 -25 -56.5t-55 -23.5t-56 23.5t-26 56.5z" />
<glyph unicode="&#xfd;" horiz-adv-x="653" d="M43 537v86q0 23 2 34.5t10.5 20t26.5 8.5q43 0 43 -47v-102q0 -46 10 -84.5t32 -71.5t62.5 -51.5t96.5 -18.5t96.5 18.5t62.5 51.5t31.5 71.5t9.5 84.5v102q0 47 43 47q25 0 32 -14.5t7 -48.5v-86q0 -40 -7 -79t-25 -80t-45.5 -73.5t-72 -55.5t-100.5 -28q1 -38 2 -86.5 t1.5 -73.5t0.5 -32q0 -21 -10.5 -34t-25.5 -13q-45 0 -45 47q0 2 -1 28t-2 73.5t-2 92.5q-65 10 -112.5 43t-72.5 80t-36.5 94.5t-11.5 96.5zM150 848q0 23 49 45q21 9 99.5 52t92.5 50q41 21 62 21q15 0 28 -15.5t13 -35.5q0 -30 -48 -50q-118 -55 -208 -90 q-36 -14 -52 -14q-18 0 -27 12t-9 25z" />
<glyph unicode="&#xfe;" horiz-adv-x="673" d="M98 334q0 28 2 145.5t2 159.5q0 20 10 33.5t29 13.5q18 0 30.5 -12.5t12.5 -34.5q-2 -12 -2 -18h74q39 0 75 -3.5t81 -12.5t81.5 -28.5t68.5 -47.5t49.5 -73t17.5 -102q0 -260 -346 -260q-39 0 -93 4h-8l2 -69q0 -22 -12.5 -34.5t-30.5 -12.5q-19 0 -29 13.5t-10 33.5 q-4 217 -4 305zM180 180h13q25 -2 90 -2q42 0 74 3t69.5 13.5t62.5 28.5t41.5 51.5t16.5 79.5q0 47 -21.5 82t-52 54t-73.5 30.5t-77 15t-71 3.5h-70q-2 -76 -2 -209v-150z" />
<glyph unicode="&#xff;" horiz-adv-x="653" d="M43 537v86q0 23 2 34.5t10.5 20t26.5 8.5q43 0 43 -47v-102q0 -46 10 -84.5t32 -71.5t62.5 -51.5t96.5 -18.5t96.5 18.5t62.5 51.5t31.5 71.5t9.5 84.5v102q0 47 43 47q25 0 32 -14.5t7 -48.5v-86q0 -40 -7 -79t-25 -80t-45.5 -73.5t-72 -55.5t-100.5 -28q1 -38 2 -86.5 t1.5 -73.5t0.5 -32q0 -21 -10.5 -34t-25.5 -13q-45 0 -45 47q0 2 -1 28t-2 73.5t-2 92.5q-65 10 -112.5 43t-72.5 80t-36.5 94.5t-11.5 96.5zM82 891q0 35 24 58.5t58 23.5q31 0 55.5 -25t24.5 -57q0 -33 -25 -56.5t-55 -23.5t-56 23.5t-26 56.5zM414 891q0 35 24 58.5 t58 23.5q30 0 54.5 -25t24.5 -57q0 -33 -24.5 -56.5t-54.5 -23.5t-56 23.5t-26 56.5z" />
<glyph unicode="&#x152;" horiz-adv-x="1204" d="M53 334q0 139 109 246.5t256 107.5q80 0 152 -34.5t124 -94.5v41q0 44 27 64t70 20q17 0 155 1l137 1q22 0 37 -11t15 -28q0 -21 -15.5 -32t-32.5 -11q-239 -2 -266 -2q-45 0 -45 -33q0 -28 2.5 -107t3.5 -108h84l166 4q24 0 35.5 -11.5t11.5 -27.5q0 -40 -65 -40 q-11 0 -60 -1.5t-88 -1.5q-36 0 -82 3v-35q0 -24 -1 -61t-1 -42q0 -19 1 -27t7.5 -19.5t23.5 -16t46 -4.5l256 2q19 0 33 -12.5t14 -30.5q0 -41 -45 -41h-289q-38 0 -63.5 7.5t-38.5 17t-19.5 29t-7 30.5t-0.5 35v4q-56 -63 -134.5 -98t-149.5 -35q-58 0 -119 21.5 t-117 62.5t-91.5 111t-35.5 157zM137 334q0 -69 28 -123.5t71.5 -85t91 -46.5t92.5 -16q44 0 91 17t89.5 48.5t70 85.5t27.5 120q0 106 -87 189t-193 83t-193.5 -84t-87.5 -188z" />
<glyph unicode="&#x153;" horiz-adv-x="1204" d="M53 334q0 139 109 246.5t256 107.5q80 0 152 -34.5t124 -94.5v41q0 44 27 64t70 20q17 0 155 1l137 1q22 0 37 -11t15 -28q0 -21 -15.5 -32t-32.5 -11q-239 -2 -266 -2q-45 0 -45 -33q0 -28 2.5 -107t3.5 -108h84l166 4q24 0 35.5 -11.5t11.5 -27.5q0 -40 -65 -40 q-11 0 -60 -1.5t-88 -1.5q-36 0 -82 3v-35q0 -24 -1 -61t-1 -42q0 -19 1 -27t7.5 -19.5t23.5 -16t46 -4.5l256 2q19 0 33 -12.5t14 -30.5q0 -41 -45 -41h-289q-38 0 -63.5 7.5t-38.5 17t-19.5 29t-7 30.5t-0.5 35v4q-56 -63 -134.5 -98t-149.5 -35q-58 0 -119 21.5 t-117 62.5t-91.5 111t-35.5 157zM137 334q0 -69 28 -123.5t71.5 -85t91 -46.5t92.5 -16q44 0 91 17t89.5 48.5t70 85.5t27.5 120q0 106 -87 189t-193 83t-193.5 -84t-87.5 -188z" />
<glyph unicode="&#x178;" horiz-adv-x="632" d="M14 649q0 18 11.5 27.5t27.5 9.5q21 0 47 -41q162 -252 176 -270q1 -1 11 -15.5t18 -23t12 -8.5q9 0 35 34q32 43 187 283q26 41 43 41q16 0 27.5 -9.5t11.5 -27.5q0 -25 -23 -59q-157 -242 -188 -281q-36 -40 -56 -51q4 -208 4 -229t-10.5 -34t-25.5 -13q-22 0 -34 12.5 t-12 34.5q0 11 -4 233q-20 13 -47 47q-31 39 -188 281q-23 34 -23 59zM72 891q0 35 24 58.5t58 23.5q31 0 55 -25t24 -57q0 -33 -24.5 -56.5t-54.5 -23.5t-56 23.5t-26 56.5zM403 891q0 35 24 58.5t58 23.5q30 0 55 -25t25 -57q0 -33 -25 -56.5t-55 -23.5t-56 23.5t-26 56.5 z" />
<glyph unicode="&#x2c6;" horiz-adv-x="720" d="M143 852q0 15 19 37q23 28 67.5 85t46.5 60q2 2 11 12.5t12.5 13.5t12 11t14.5 10.5t15.5 5.5t18.5 3t18.5 -3t15.5 -5.5t14.5 -10.5t12 -11t12.5 -13.5t11 -12.5q6 -8 28 -36t46 -58t41 -51q19 -22 19 -37q0 -21 -12.5 -31t-28.5 -10q-20 0 -45 31l-97 114q-5 5 -11 13 t-9 10.5t-7 5t-8 2.5t-8 -2.5t-6.5 -5.5t-8.5 -10t-11 -13q-83 -96 -97 -114q-25 -31 -45 -31q-16 0 -28.5 10t-12.5 31z" />
<glyph unicode="&#x2dc;" horiz-adv-x="897" d="M143 854q0 17 19 39q26 29 47.5 49t63 39.5t85.5 19.5q39 0 74.5 -9.5t53.5 -19t46 -26.5q51 -31 82 -31t52 21q33 29 51 29q37 0 37 -39q0 -18 -19 -37q-55 -55 -121 -55q-57 0 -122 43q-24 15 -36 21t-39.5 14t-58.5 8q-75 0 -131 -74q-26 -33 -43 -33 q-16 0 -28.5 10.5t-12.5 30.5z" />
<glyph unicode="&#x2000;" horiz-adv-x="682" />
<glyph unicode="&#x2001;" horiz-adv-x="1365" />
<glyph unicode="&#x2002;" horiz-adv-x="682" />
<glyph unicode="&#x2003;" horiz-adv-x="1365" />
<glyph unicode="&#x2004;" horiz-adv-x="455" />
<glyph unicode="&#x2005;" horiz-adv-x="341" />
<glyph unicode="&#x2006;" horiz-adv-x="227" />
<glyph unicode="&#x2007;" horiz-adv-x="227" />
<glyph unicode="&#x2008;" horiz-adv-x="170" />
<glyph unicode="&#x2009;" horiz-adv-x="273" />
<glyph unicode="&#x200a;" horiz-adv-x="75" />
<glyph unicode="&#x2010;" horiz-adv-x="694" d="M82 354q0 14 13.5 24.5t43.5 10.5q129 -8 240 -8l176 2q30 0 43.5 -10.5t13.5 -24.5q0 -45 -86 -45h-147q-56 0 -125.5 3t-85.5 3q-86 0 -86 45z" />
<glyph unicode="&#x2011;" horiz-adv-x="694" d="M82 354q0 14 13.5 24.5t43.5 10.5q129 -8 240 -8l176 2q30 0 43.5 -10.5t13.5 -24.5q0 -45 -86 -45h-147q-56 0 -125.5 3t-85.5 3q-86 0 -86 45z" />
<glyph unicode="&#x2012;" horiz-adv-x="694" d="M82 354q0 14 13.5 24.5t43.5 10.5q129 -8 240 -8l176 2q30 0 43.5 -10.5t13.5 -24.5q0 -45 -86 -45h-147q-56 0 -125.5 3t-85.5 3q-86 0 -86 45z" />
<glyph unicode="&#x2013;" horiz-adv-x="841" d="M80 399q0 14 13.5 24.5t43.5 10.5q129 -2 240 -2l291 4q30 0 43.5 -10.5t13.5 -24.5q0 -45 -86 -45q-19 0 -107 -1t-155 -1h-211q-86 0 -86 45z" />
<glyph unicode="&#x2014;" horiz-adv-x="1216" d="M80 403q0 14 13.5 24.5t43.5 10.5q159 -8 420 -8l485 10q30 0 44 -10t14 -24q0 -46 -86 -46q-20 0 -205 -4t-252 -4q-141 0 -244 3t-147 3q-86 0 -86 45z" />
<glyph unicode="&#x2018;" horiz-adv-x="358" d="M72 586q0 71 102 196q1 1 6 8t6.5 8.5t7 8t8 8.5t7.5 7t8.5 7t8 4.5t9 3.5t9.5 1q15 0 27 -11t12 -32q0 -7 -5 -16.5t-10.5 -15.5t-14.5 -16t-11 -12q-7 -9 -22 -26t-21 -25q36 -8 62 -36.5t26 -67.5q0 -47 -32 -78t-77 -31q-42 0 -74 33.5t-32 81.5z" />
<glyph unicode="&#x2019;" horiz-adv-x="335" d="M78 729q0 47 31.5 78t76.5 31q42 0 74.5 -33.5t32.5 -81.5q0 -71 -103 -197q-1 -1 -6 -7.5t-7 -9t-6.5 -8t-7 -8t-7.5 -7t-8.5 -6.5t-8 -4.5t-9 -3.5t-9.5 -1q-15 0 -27 11t-12 32q0 7 5 16t10.5 15.5t14.5 15.5t11 12q7 9 22 26.5t21 25.5q-36 8 -62 36.5t-26 67.5z" />
<glyph unicode="&#x201a;" horiz-adv-x="356" d="M70 88q0 47 31.5 78t76.5 31q42 0 74.5 -33.5t32.5 -81.5q0 -71 -103 -197q-1 -1 -6 -7.5t-7 -9t-6.5 -8t-7 -8t-7.5 -7t-8.5 -6.5t-8 -4.5t-9 -3.5t-9.5 -1q-15 0 -27 11t-12 32q0 7 5 16t10.5 15.5t14.5 15.5t11 12q7 9 22 26.5t21 25.5q-36 8 -62 36.5t-26 67.5z" />
<glyph unicode="&#x201c;" horiz-adv-x="641" d="M72 586q0 71 102 196q1 1 6 8t6.5 8.5t7 8t8 8.5t7.5 7t8.5 7t8 4.5t9 3.5t9.5 1q15 0 27 -11t12 -32q0 -7 -5 -16.5t-10.5 -15.5t-14.5 -16t-11 -12q-7 -9 -22 -26t-21 -25q36 -8 62 -36.5t26 -67.5q0 -47 -32 -78t-77 -31q-42 0 -74 33.5t-32 81.5zM354 586 q0 70 103 196q1 1 8 10t9 11.5t8.5 10t10.5 10t10 7t11.5 6t11.5 1.5q15 0 27 -11t12 -32q0 -7 -5 -16.5t-10.5 -15.5t-14.5 -16t-11 -12q-7 -9 -22 -26t-21 -25q36 -8 62 -36.5t26 -67.5q0 -47 -31.5 -78t-76.5 -31q-42 0 -74.5 33.5t-32.5 81.5z" />
<glyph unicode="&#x201d;" horiz-adv-x="618" d="M78 729q0 47 31.5 78t76.5 31q42 0 74.5 -33.5t32.5 -81.5q0 -71 -103 -197q-1 -1 -6 -7.5t-7 -9t-6.5 -8t-7 -8t-7.5 -7t-8.5 -6.5t-8 -4.5t-9 -3.5t-9.5 -1q-15 0 -27 11t-12 32q0 7 5 16t10.5 15.5t14.5 15.5t11 12q7 9 22 26.5t21 25.5q-36 8 -62 36.5t-26 67.5z M360 729q0 47 32 78t77 31q42 0 74 -33.5t32 -81.5q0 -72 -102 -197q-33 -42 -51 -50q-10 -5 -19 -5q-15 0 -26.5 10.5t-11.5 32.5q0 7 5 16t10.5 15.5t14.5 15.5t11 12q7 9 22 26.5t21 25.5q-36 8 -62.5 36.5t-26.5 67.5z" />
<glyph unicode="&#x201e;" horiz-adv-x="638" d="M70 88q0 47 31.5 78t76.5 31q42 0 74.5 -33.5t32.5 -81.5q0 -71 -103 -197q-1 -1 -6 -7.5t-7 -9t-6.5 -8t-7 -8t-7.5 -7t-8.5 -6.5t-8 -4.5t-9 -3.5t-9.5 -1q-15 0 -27 11t-12 32q0 7 5 16t10.5 15.5t14.5 15.5t11 12q7 9 22 26.5t21 25.5q-36 8 -62 36.5t-26 67.5z M352 88q0 47 32 78t77 31q42 0 74 -33.5t32 -81.5q0 -72 -102 -197q-33 -42 -51 -50q-10 -5 -19 -5q-15 0 -27 11t-12 32q0 7 5 16t10.5 15.5t14.5 15.5t11 12q7 9 22 26.5t21 25.5q-36 8 -62 36.5t-26 67.5z" />
<glyph unicode="&#x2022;" horiz-adv-x="534" d="M106 379q0 60 49 111t113 51q62 0 110 -47.5t48 -114.5q0 -65 -49.5 -112.5t-108.5 -47.5q-62 0 -112 47t-50 113z" />
<glyph unicode="&#x2026;" horiz-adv-x="1445" d="M70 88q0 47 31.5 78t76.5 31q41 0 74 -33t33 -76q0 -44 -33.5 -75t-73.5 -31t-74 31t-34 75zM621 88q0 47 31.5 78t76.5 31q41 0 74 -33t33 -76q0 -44 -33.5 -75t-73.5 -31t-74 31t-34 75zM1161 88q0 47 32 78t77 31q41 0 73.5 -33t32.5 -76q0 -44 -33 -75t-73 -31 t-74.5 31t-34.5 75z" />
<glyph unicode="&#x202f;" horiz-adv-x="273" />
<glyph unicode="&#x2039;" horiz-adv-x="364" d="M57 344q0 20 21 51l129 199q20 33 43 33q42 0 45 -39q0 -15 -21 -49l-129 -195l129 -194q21 -34 21 -50q-3 -39 -45 -39q-23 0 -43 33l-129 199q-21 31 -21 51z" />
<glyph unicode="&#x203a;" horiz-adv-x="364" d="M70 100q0 18 20 50l129 194l-129 195q-20 32 -20 49q3 39 45 39q23 0 43 -33l129 -199q20 -30 20 -51t-20 -51l-129 -199q-20 -33 -43 -33q-42 0 -45 39z" />
<glyph unicode="&#x205f;" horiz-adv-x="341" />
<glyph unicode="&#x20ac;" horiz-adv-x="839" d="M53 244q0 14 14 24.5t44 10.5q24 -3 61 -5q-2 14 -2 48q0 31 2 45h-33q-86 0 -86 45q0 14 14 24t44 10q30 -2 79 -4q40 110 140 178t205 68q108 0 174.5 -27t66.5 -59q0 -37 -37 -37q-13 0 -27 6.5t-28.5 14t-53 14t-95.5 6.5q-70 0 -142.5 -45.5t-111.5 -118.5h2 q58 0 119 2t92 4l32 1q30 0 44 -10.5t14 -24.5q0 -45 -86 -45q-20 0 -84 -2t-131 -2h-27q-4 -28 -4 -43q0 -20 4 -48h27q58 0 119 2t92 4l32 1q30 0 44 -10.5t14 -24.5q0 -45 -86 -45q-20 0 -84 -2t-131 -2q36 -66 107 -100t145 -34q73 0 114 10.5t58 20.5t32 10 q37 0 37 -36q0 -32 -66.5 -59t-174.5 -27q-69 0 -134.5 20.5t-125 71t-85.5 123.5q-8 0 -23.5 1t-27.5 1q-86 0 -86 45z" />
<glyph unicode="&#x2122;" horiz-adv-x="964" d="M37 655q0 14 15.5 24.5t41.5 10.5q121 -4 150 -4l90 4q57 0 57 -35q0 -45 -86 -45h-49v-108l2 -185q0 -41 -43 -41q-18 0 -28.5 11.5t-10.5 29.5q-2 70 -2 117q0 31 1 96t1 80h-53q-86 0 -86 45zM453 317q6 70 6 117q0 41 1 127l1 86q0 43 43 43q30 0 41 -22 q10 -18 73 -131l50 -107q8 16 25 54t26 53l74 131q9 22 41 22q43 0 43 -43l1 -86q1 -86 1 -127l6 -117q0 -18 -10.5 -29.5t-28.5 -11.5q-43 0 -43 41q-6 150 -6 185v20l-95 -184q-14 -27 -32 -27q-26 0 -39 27q-72 139 -90 176v-12l-6 -185q0 -41 -43 -41q-18 0 -28.5 11.5 t-10.5 29.5z" />
<glyph unicode="&#x25fc;" horiz-adv-x="686" d="M0 0v686h686v-686h-686z" />
</font>
</defs>
</svg>
