<?xml version="1.0" standalone="no"?>
<!DOCTYPE svg PUBLIC "-//W3C//DTD SVG 1.1//EN" "http://www.w3.org/Graphics/SVG/1.1/DTD/svg11.dtd" >
<svg xmlns="http://www.w3.org/2000/svg">
<metadata></metadata>
<defs>
<font id="nuptial_script_lt_stdmedium" horiz-adv-x="681" >
<font-face units-per-em="2048" ascent="1262" descent="-786" />
<missing-glyph horiz-adv-x="339" />
<glyph unicode="&#xfb01;" horiz-adv-x="909" d="M-356 -516q0 8 6 13t12 9q88 68 157.5 178.5t123 235.5t93 245t68.5 206q20 59 51 144t71 178t88 184.5t103.5 164t117 117.5t129.5 45q20 0 44.5 -6t46 -18.5t35 -31t13.5 -42.5q0 -16 -12.5 -30.5t-28.5 -14.5q-29 0 -38 16.5t-16.5 37t-22.5 36.5t-54 16 q-41 0 -81 -41t-77 -105.5t-69.5 -141t-59.5 -150.5t-47.5 -134t-34.5 -89l4 -4q10 16 38 29.5t48 13.5q74 0 74 -74q0 -18 -14.5 -33.5t-32.5 -15.5q-16 0 -22.5 3t-10.5 7t-8 7t-12 3q-23 0 -48.5 -18t-46.5 -25q-43 -117 -91 -257t-132 -289q-31 -53 -78 -119t-98 -123 t-98 -96t-76 -39q-14 0 -14 8zM358 14q0 10 15.5 16.5t40.5 6.5q20 0 50 42t63.5 104.5t70.5 133t74 129.5q-27 -4 -58.5 -14t-50.5 -10q-10 0 -10 10q0 14 18 23q16 6 56.5 23.5t83.5 35.5t77.5 32.5t40.5 14.5q16 0 17 -18q0 -8 -4 -13.5t-8 -13.5q-106 -193 -169 -299 t-63 -129q0 -18 11.5 -34.5t31.5 -16.5q10 0 17.5 5t17.5 5q14 0 14 -8q0 -14 -10 -21.5t-24.5 -11.5t-30 -5t-25.5 -1q-27 0 -52.5 4t-51.5 4q-23 0 -47.5 -4t-49.5 -4q-29 0 -37 1t-8 13zM862 834q0 25 19.5 46t48.5 21t48 -21.5t19 -45.5q0 -25 -19.5 -46.5t-47.5 -21.5 q-29 0 -48.5 21.5t-19.5 46.5z" />
<glyph unicode="&#xfb02;" horiz-adv-x="909" d="M-356 -516q0 8 6 13t12 9q88 68 157.5 178.5t123 235.5t93 245t68.5 206q20 59 51 144t71 178t88 184.5t103.5 164t117 117.5t129.5 45q20 0 44.5 -6t46 -18.5t35 -31t13.5 -42.5q0 -16 -12.5 -30.5t-28.5 -14.5q-29 0 -38 16.5t-16.5 37t-22.5 36.5t-54 16 q-41 0 -81 -41t-77 -105.5t-69.5 -141t-59.5 -150.5t-47.5 -134t-34.5 -89l4 -4q10 16 38 29.5t48 13.5q74 0 74 -74q0 -18 -14.5 -33.5t-32.5 -15.5q-16 0 -22.5 3t-10.5 7t-8 7t-12 3q-23 0 -48.5 -18t-46.5 -25q-43 -117 -91 -257t-132 -289q-31 -53 -78 -119t-98 -123 t-98 -96t-76 -39q-14 0 -14 8zM367 29q0 12 20 12q4 0 14.5 -2t26.5 -2q27 0 53 26q18 20 45 73.5t56.5 125.5t62.5 156t65.5 167t63.5 157.5t57 125.5q25 49 54.5 107.5t66.5 110t81.5 85t99.5 33.5q20 0 42.5 -7t41 -19.5t31 -28.5t12.5 -35q0 -16 -13 -16q-6 0 -12 11 t-18.5 23.5t-32 23.5t-49.5 11q-41 0 -75 -34.5t-58.5 -80.5t-40 -92.5t-23.5 -68.5q-25 -74 -56.5 -158t-64.5 -169t-63.5 -165t-55 -145.5t-40 -111.5t-15.5 -60q0 -23 7 -34t38 -11q8 0 15.5 2t13.5 2q10 0 10 -8q0 -23 -26.5 -28t-47.5 -5q-25 0 -49 3t-49 3 q-27 0 -52.5 -4t-51.5 -2h-20.5t-29 3t-24.5 9t-10 17z" />
<glyph horiz-adv-x="2048" />
<glyph horiz-adv-x="2048" />
<glyph unicode="&#xd;" horiz-adv-x="339" />
<glyph unicode=" "  horiz-adv-x="339" />
<glyph unicode="&#x09;" horiz-adv-x="339" />
<glyph unicode="&#xa0;" horiz-adv-x="339" />
<glyph unicode="!" d="M178 68q0 35 20.5 51t47.5 16t47 -16.5t20 -50.5q0 -35 -20.5 -51.5t-46.5 -16.5q-27 0 -47.5 16.5t-20.5 51.5zM313 250q0 8 12.5 37.5t40 95.5t74.5 176.5t115 282.5q12 29 25.5 66.5t29 71.5t33.5 57.5t41 23.5q16 0 27.5 -13.5t11.5 -33.5q0 -25 -33 -94.5 t-83 -163.5t-109.5 -205t-114.5 -221q-27 -53 -39 -72.5t-22 -19.5q-4 0 -6.5 1t-2.5 11z" />
<glyph unicode="&#x22;" d="M216 1142.5q-1 28.5 4 55.5t19.5 45.5t43.5 18.5t43 -18.5t19 -45.5t4 -55.5t-3 -46.5l-33 -418q0 -6 -1 -16.5t-4 -21.5t-8 -18.5t-17 -7.5t-17.5 7.5t-8.5 18.5t-4 21.5t-1 16.5l-33 418q-2 18 -3 46.5zM497 1142.5q-1 28.5 4 55.5t19.5 45.5t42.5 18.5 q29 0 43.5 -18.5t19.5 -45.5t4 -55.5t-3 -46.5l-33 -418q0 -6 -1 -16.5t-4 -21.5t-8.5 -18.5t-17.5 -7.5t-17 7.5t-8 18.5t-4.5 21.5t-1.5 16.5l-32 418q-2 18 -3 46.5z" />
<glyph unicode="#" d="M51 266l6 49h140l26 187h-139l4 49h141l37 268h60l-37 -268h164l36 268h60l-37 -268h117l-4 -49h-121l-23 -187h115l-4 -49h-121l-37 -266h-59l39 266h-166l-37 -266h-59l38 266h-139zM256 315h164l26 187h-165z" />
<glyph unicode="$" d="M-2 184q0 35 20.5 72t51.5 37q6 0 6 -8q0 -6 -14.5 -29t-14.5 -84q0 -49 39 -86t86 -53l158 375q-35 66 -62.5 126t-27.5 101q0 49 22.5 87t57 62.5t79.5 38t88 13.5q16 0 27 -2q8 18 16.5 39.5t17.5 41t18 31.5t16 12q18 0 18 -14q0 -10 -18.5 -45t-32.5 -72 q49 -23 87 -61.5t38 -87.5q0 -8 -3 -23.5t-8.5 -31t-13.5 -26.5t-16 -11q-12 0 -12 12q0 10 2 26.5t2 32.5q0 41 -22 73.5t-71 55.5l-124 -286q37 -76 77.5 -151t40.5 -148q0 -53 -27.5 -93t-68.5 -68t-92 -42t-96 -14q-14 0 -27.5 2t-26.5 4q-14 -27 -28.5 -64t-27.5 -69.5 t-25.5 -55t-24.5 -22.5t-12 14q0 4 4 14.5t13 33t26.5 60.5t42.5 95q-68 14 -113 59t-45 129zM205 27q10 -4 18 -5.5t25 -1.5q33 0 63.5 9.5t55 29t39 49t14.5 72.5q0 33 -20.5 82.5t-49.5 104.5zM346 688q0 -35 11.5 -72.5t29.5 -74.5l111 256q-8 2 -21 2q-49 0 -90 -28 t-41 -83z" />
<glyph unicode="%" horiz-adv-x="1366" d="M166 670q0 80 37 173t97 175t140 136t166 54q43 0 71 -15t45 -42t24.5 -60.5t7.5 -70.5q0 -80 -36 -173t-95.5 -173t-139.5 -133.5t-166 -53.5q-82 0 -116.5 53.5t-34.5 129.5zM219 602q0 -41 18.5 -59.5t61.5 -18.5q35 0 79 32t91 83t91 114.5t79 126t56.5 118 t21.5 87.5q0 47 -32.5 66.5t-61.5 19.5q-39 0 -84 -33.5t-90.5 -87t-86 -119t-72.5 -129t-51.5 -116.5t-19.5 -84zM307 -29q0 4 31 61.5t79 143.5t105.5 189.5t109.5 196.5t93 166t55 99q10 18 30.5 55.5t46.5 82.5t52.5 93t49 88t38 66.5t17.5 28.5q6 8 16 8q18 0 19 -12 q0 -4 -35 -68.5t-91.5 -167t-127 -228.5t-140 -251t-131 -236.5t-100.5 -183.5q-8 -16 -21.5 -40.5t-27 -47t-27.5 -40t-24 -17.5q-16 4 -17 14zM598 182q0 80 37 173.5t97.5 175t140 136t165.5 54.5q43 0 71 -15.5t45 -42t24.5 -60.5t7.5 -71q0 -80 -36 -173t-95.5 -173 t-139 -133t-165.5 -53q-82 0 -117 53t-35 129zM651 115q0 -41 18.5 -59.5t61.5 -18.5q35 0 79 31.5t91 83t91 115t79 126t56.5 116.5t21.5 89q0 47 -32.5 66.5t-61.5 19.5q-39 0 -84 -34t-90 -87t-86 -118.5t-73 -129t-51.5 -118t-19.5 -82.5z" />
<glyph unicode="&#x26;" horiz-adv-x="1251" d="M152 184q0 66 27.5 123.5t70.5 105.5t92 86t92 65.5t72 44t31 22.5q20 61 58 124.5t87 116t105.5 86t115.5 33.5q29 0 58.5 -9t54 -27.5t40 -44t15.5 -58.5q0 -31 -16.5 -62.5t-38 -57t-46 -42t-38.5 -16.5q-12 0 -12 12q0 6 11 18.5t25.5 32t25.5 50t11 73.5 q0 45 -21.5 69.5t-70.5 24.5q-90 0 -161.5 -79.5t-114.5 -208.5q-35 -106 -52.5 -205t-17.5 -211q0 -33 3 -65.5t5 -30.5q16 16 44 44.5t55.5 60.5t52 60.5t35.5 47.5q10 16 31.5 42.5t49 52t56 44t53.5 18.5q43 0 71.5 -15t28.5 -56q0 -23 -15 -46.5t-28 -23.5q-6 0 -4 7 t2 11q0 27 -23.5 52.5t-51.5 25.5q-31 0 -70 -29.5t-80 -87.5q-49 -68 -99 -126t-102 -111q12 -55 59.5 -73.5t94.5 -18.5q53 0 91 10t85 41q18 12 26.5 21.5t13.5 15.5t9 10t13 4q12 0 12 -10q0 -8 -14.5 -29.5t-43.5 -42.5q-35 -25 -81 -40t-132 -15q-53 0 -100 24.5 t-76 65.5q-39 -39 -86 -63.5t-102 -24.5q-90 0 -138 46t-48 138zM238 164q0 -43 21.5 -85t74.5 -42q41 0 91 18.5t85 53.5q-25 47 -33 98t-8 104q0 142 53 279h-4q-63 -39 -114.5 -81t-88 -92t-57 -111.5t-20.5 -141.5z" />
<glyph unicode="'" horiz-adv-x="454" d="M263 1142.5q-1 28.5 4 55.5t19.5 45.5t43.5 18.5t43 -18.5t19 -45.5t4 -55.5t-3 -46.5l-33 -418q0 -6 -1 -16.5t-4 -21.5t-8 -18.5t-17 -7.5t-17.5 7.5t-8.5 18.5t-4 21.5t-1 16.5l-33 418q-2 18 -3 46.5z" />
<glyph unicode="(" horiz-adv-x="796" d="M49 -49q0 164 55.5 314.5t149.5 289.5t216 269t255 255q20 20 54 51t68 60t60.5 50.5t34.5 21.5q10 0 10 -13q0 -4 -8 -13t-29.5 -30.5t-57.5 -56.5t-91 -90q-49 -47 -116.5 -127t-140.5 -180.5t-144.5 -215t-128 -233.5t-91 -234.5t-34.5 -218.5q0 -141 18 -210.5 t18 -79.5t-6 -11.5t-10 -3.5q-8 0 -21.5 40t-26.5 99.5t-23.5 131t-10.5 135.5z" />
<glyph unicode=")" horiz-adv-x="796" d="M-156 -442q0 4 8.5 13t30 30.5t57 56.5t91.5 90q49 47 116.5 127t140 180.5t144.5 215t128 233.5t91 234.5t35 217.5q0 141 -18.5 211t-18.5 80t6.5 11.5t10.5 3.5q8 0 21 -40t26.5 -99.5t24 -131t10.5 -135.5q0 -164 -55.5 -314.5t-149.5 -289.5t-216 -269t-255 -255 q-23 -20 -55.5 -51t-66.5 -61t-60.5 -50.5t-34.5 -20.5q-10 0 -11 13z" />
<glyph unicode="*" d="M143 864q0 18 27 31.5t70 26.5l168 47l-148 98q-27 16 -53.5 31.5t-26.5 38.5q0 12 11.5 23t31.5 11q8 0 36 -24.5t59.5 -56l62.5 -62.5t43 -41q2 59 8 127t6 111q0 37 39 37q35 0 35 -37q0 -16 -8 -48t-18.5 -68t-20.5 -69.5t-12 -52.5q16 6 50 25.5t70.5 40t69.5 37 t47 16.5q10 0 20.5 -9.5t10.5 -19.5q0 -31 -21.5 -41t-62.5 -20l-180 -49q16 -14 54 -37t76 -45.5t67.5 -43t29.5 -30.5q0 -23 -8 -38t-31 -15q-12 0 -39.5 25.5t-58.5 57t-59.5 62.5t-41.5 41q-4 -59 -8 -123.5t-4 -120.5q0 -14 -9 -25t-26 -11q-43 0 -43 34q0 18 8.5 52 t19.5 70t21.5 70t14.5 56q-10 -6 -46 -26.5t-77 -43t-76 -40t-41 -17.5q-18 0 -27.5 14.5t-9.5 30.5z" />
<glyph unicode="+" horiz-adv-x="1228" d="M317 270v54h271v270h53v-270h270v-54h-270v-270h-53v270h-271z" />
<glyph unicode="," horiz-adv-x="454" d="M-47 -326q0 10 24.5 39t53 67t53.5 80t25 83q0 35 -11.5 46t-34.5 11q-25 0 -48 15.5t-23 45.5q0 31 17.5 52.5t49.5 21.5q27 0 46.5 -13t32 -34.5t18.5 -47t6 -48.5q0 -53 -25.5 -111.5t-58.5 -107.5t-64.5 -81t-42.5 -32q-6 0 -12 3t-6 11z" />
<glyph unicode="-" d="M80 174q0 14 5 43t17.5 55.5t32 47t45.5 20.5q8 0 45 1t78 2t78 2t49 3q18 2 29.5 14.5t18.5 25.5t12.5 24.5t11.5 11.5q12 0 12 -23q0 -10 -5 -30.5t-16.5 -44t-27.5 -42t-41 -24.5q-8 -2 -37 -3t-65.5 -2t-75.5 -1h-68q-25 0 -38 -13.5t-22 -30.5t-14.5 -30.5 t-11.5 -13.5q-2 0 -7 1t-5 7z" />
<glyph unicode="." horiz-adv-x="454" d="M-8 68q0 35 20 51t47 16t47.5 -16.5t20.5 -50.5q0 -35 -20.5 -51.5t-47.5 -16.5t-47 16.5t-20 51.5z" />
<glyph unicode="/" horiz-adv-x="569" d="M-27 0l566 1262h55l-565 -1262h-56z" />
<glyph unicode="0" d="M-23 205q0 57 20.5 126.5t57.5 139.5t86 135.5t107.5 116.5t123 82t130.5 31q41 0 72.5 -18.5t52 -47.5t31 -65.5t10.5 -73.5q0 -57 -20.5 -127t-57.5 -139.5t-86 -135t-107.5 -117t-123 -82t-130.5 -30.5q-41 0 -72.5 18.5t-52 47t-31 65.5t-10.5 74zM31 147 q0 -111 92 -110q41 0 93 37t106.5 94t106.5 130t93 145.5t66.5 137t25.5 107.5q0 111 -92 111q-41 0 -93 -37t-106.5 -94.5t-106.5 -130t-93 -145.5t-66.5 -137.5t-25.5 -107.5z" />
<glyph unicode="1" d="M41 16q0 10 9 15.5t34 5.5q20 0 40.5 22.5t37 53t30 60.5t19.5 44l178 397q18 41 29.5 66t17.5 39t8 21.5t2 15.5q-41 0 -62.5 -4t-29.5 -4q-12 0 -12 14q0 6 32 19.5t70.5 28.5t71.5 26.5t37 11.5q8 0 8 -10q0 -12 -6 -26.5t-12 -29.5q-27 -59 -59.5 -131.5 t-66.5 -148.5t-67 -148.5t-58.5 -132t-40.5 -101.5t-15 -54q0 -10 8 -19.5t28 -9.5q23 0 33 11t27 11q10 0 10 -12q0 -31 -36 -39t-70 -8q-23 0 -42 4t-42 4q-20 0 -42 -4t-38 -4q-10 0 -20.5 3t-10.5 13z" />
<glyph unicode="2" d="M-57 10q0 14 25.5 47t62.5 71t76.5 73t68.5 55q41 27 94.5 75t100.5 106.5t79.5 119.5t32.5 117q0 66 -37.5 95.5t-101.5 29.5q-45 0 -76.5 -17.5t-51 -45t-28 -64.5t-8.5 -74q0 -25 -6 -25q-14 0 -22.5 25t-8.5 49q0 51 18.5 87t50.5 58.5t73 33t86 10.5q41 0 82 -13.5 t72.5 -38t52 -60.5t20.5 -81q0 -53 -36 -103.5t-92 -100.5t-123.5 -97t-132 -93t-117 -91t-77.5 -88l5 -4q29 12 66.5 22t78.5 10q47 0 88 -12t88 -12q33 0 60.5 7t49 14t36 14.5t18.5 7.5q6 0 6 -13q0 -10 -15.5 -27.5t-39 -34.5t-51 -29.5t-54.5 -12.5q-63 0 -103 3 t-67.5 7t-47 7t-44.5 3q-59 0 -86.5 -10t-50.5 -10q-14 0 -14 10z" />
<glyph unicode="3" d="M-68 205q0 10 8.5 15t32.5 5q10 0 22.5 -4t14.5 -18q4 -35 15.5 -66t33 -53.5t55 -35.5t83.5 -11q66 2 117 34.5t86.5 82t54 110t18.5 117.5q0 23 -3 46.5t-12 41.5t-25.5 30.5t-41.5 12.5q-10 0 -19.5 -2t-13.5 -2q-10 0 -10 14q0 8 9.5 11.5t24.5 7.5t34.5 10t40.5 22 q61 45 61 123q0 47 -32.5 75t-79.5 28q-43 0 -82 -27t-69 -62.5t-47.5 -70.5t-17.5 -49q0 -10 -4 -20.5t-14 -10.5t-14 16.5t-4 26.5q0 49 20.5 92t55 74t79.5 49.5t94 18.5q35 0 73 -9.5t68.5 -29t51 -50t20.5 -71.5q0 -59 -43 -102.5t-100 -49.5l-4 -8q47 -39 74.5 -93 t27.5 -116q0 -66 -28.5 -122t-75.5 -97t-107.5 -64.5t-123.5 -23.5q-49 0 -83 3t-62 13.5t-52.5 30t-50.5 51.5q-18 23 -37 56.5t-19 50.5z" />
<glyph unicode="4" d="M-76 221q0 18 38 52t93.5 81t120 103.5t117.5 122.5q27 31 71 74.5t94 83.5t100 69t89 29q6 0 13.5 -3.5t7.5 -11.5q0 -4 -15.5 -40t-39 -89t-52.5 -116.5t-54.5 -121t-46 -100.5t-26.5 -57q-4 -8 -7 -15.5t-3 -13.5q0 -16 17.5 -19t33.5 -3q41 0 65.5 11t45.5 11 q16 0 16 -8q0 -12 -15.5 -23.5t-38 -21.5t-51 -16t-55.5 -6q-33 0 -51 -6.5t-35 -39.5q-10 -25 -19 -57.5t-9 -44.5q0 -6 9 -7t15 -1q18 0 33.5 11t26.5 11q6 0 6 -18q0 -20 -22.5 -30.5t-51.5 -10.5t-53.5 3t-36.5 3q-23 0 -45.5 -3t-44.5 -3q-6 0 -12.5 1t-6.5 11 q0 6 11.5 15.5t17.5 9.5q16 0 35.5 14.5t36 36t27 46t10.5 46.5q0 14 -11.5 24.5t-40 16.5t-78 9t-126.5 3q-23 0 -43.5 -8t-40.5 -16q-8 0 -13.5 1t-5.5 11zM20 281l5 -17q12 2 30.5 5t36 5t31.5 3.5t18 1.5q41 0 69 -2.5t46 -3.5t30.5 -3t22.5 -2q35 0 49.5 29t26.5 57 q27 61 56.5 126t54 119t41 89t16.5 37q0 10 -10.5 13t-22.5 3q-27 0 -86 -57t-131 -143q-53 -63 -100 -108.5t-85 -76t-63.5 -49t-34.5 -26.5z" />
<glyph unicode="5" d="M-88 180q0 27 25.5 32t39.5 5q25 0 25 -14q0 -23 -6 -37t-6 -35q0 -57 28.5 -75.5t83.5 -18.5q61 0 128 42t122.5 105.5t91 136t35.5 132.5q0 76 -45 100.5t-115 24.5q-33 0 -63.5 -3.5t-38.5 -3.5q-6 0 -6 13q0 4 22.5 35.5t51.5 91.5q6 12 17 30.5t23.5 36t22.5 29.5 t14 12h320q27 0 27 -12q0 -18 -13.5 -31.5t-32 -24t-39 -16.5t-34.5 -8q-41 -4 -97.5 -5t-103.5 -1q-35 0 -54.5 -6t-31.5 -39q-10 -23 -19.5 -36t-9.5 -17t7.5 -6.5t33.5 -2.5q51 0 96.5 -15t79 -44t54 -70t20.5 -92q0 -74 -39 -144.5t-100 -125.5t-136 -89t-145 -34 q-68 0 -94 6t-49 19q-39 23 -64.5 66.5t-25.5 88.5z" />
<glyph unicode="6" d="M18 221q0 80 36 152.5t90.5 137t119 119t123.5 97.5q12 10 40 28.5t59.5 36t61.5 31t46 13.5t16 -7q0 -10 -30 -26q-78 -47 -160 -124t-150.5 -169t-112.5 -192.5t-44 -192.5q0 -41 11 -64.5t58 -23.5q43 0 97.5 49t103.5 115.5t83 135.5t34 109q0 25 -21.5 37.5 t-44.5 12.5q-29 0 -56.5 -16.5t-50 -35t-39 -35t-22.5 -16.5q-12 0 -12 13q0 18 19.5 39.5t49 41t62.5 32.5t61 13q72 0 99.5 -46t27.5 -109q0 -66 -30.5 -132.5t-79.5 -120.5t-113.5 -89t-132.5 -35q-102 0 -150.5 61.5t-48.5 159.5z" />
<glyph unicode="7" d="M6 18q0 6 8.5 12.5t14.5 6.5q14 0 35.5 20.5t46 54t52 74.5t56.5 82q96 137 194.5 259t215.5 239v8q-41 -6 -97.5 -8t-114 -5t-109.5 -9.5t-85 -18.5q-16 -6 -27.5 -18.5t-20.5 -25.5t-16 -23.5t-14 -10.5q-10 0 -10 19q0 4 14.5 29.5t33 54t34.5 52.5t19 26q12 8 26 10 t29 2q49 0 121 -17q33 -8 66.5 -10t66.5 -2q45 0 90 3.5t92 17.5v-29q-27 -27 -72 -84t-99 -130t-109.5 -154t-101.5 -154.5t-74.5 -133t-28.5 -89.5q0 -29 30 -29q12 0 24.5 7t23 16.5t17.5 17.5t11 8q12 0 12 -12q0 -6 -6 -18.5t-20.5 -25t-36 -21.5t-53.5 -9 q-41 0 -63.5 4t-57.5 4q-23 0 -43.5 -4t-40.5 -4q-14 0 -23.5 3t-9.5 15z" />
<glyph unicode="8" d="M-23 162q0 70 36 123t89.5 94t116 70.5t117.5 52.5q-10 29 -18.5 60.5t-8.5 62.5q0 111 64.5 161t165.5 50q55 0 100 -28t45 -89q0 -37 -25.5 -69t-61.5 -57.5t-76 -44t-70 -28.5q27 -55 54 -119.5t27 -128.5q0 -70 -35.5 -121t-90 -84.5t-120 -50t-122.5 -16.5 q-37 0 -70 11.5t-59.5 31.5t-42 50t-15.5 69zM51 150q0 -113 121 -113q49 0 94 14.5t79 43t53.5 68.5t19.5 93t-23.5 111.5t-46.5 105.5q-51 -18 -104.5 -48t-96.5 -71t-69.5 -92t-26.5 -112zM395 678q0 -41 12.5 -68.5t28.5 -62.5q25 8 58.5 25.5t62.5 42t49.5 54 t20.5 66.5t-27 50.5t-61 13.5q-51 0 -97.5 -33t-46.5 -88z" />
<glyph unicode="9" d="M-72 53q0 12 15 13q6 0 15 -4.5t23.5 -10.5t39 -10t61.5 -4q70 0 135.5 55t121.5 133t100 160t69 137q23 49 36 98.5t13 96.5q0 41 -14.5 61.5t-57.5 20.5q-53 0 -109.5 -52.5t-102.5 -125t-75.5 -149.5t-29.5 -124q0 -35 22.5 -45t53.5 -10q23 0 42 9t35.5 21.5t30 21.5 t25.5 9q16 0 16 -18q0 -8 -16.5 -21.5t-39 -27t-49 -22.5t-44.5 -9q-74 0 -114 42t-40 112q0 78 35 154.5t88 137t119.5 97.5t128.5 37q31 0 62.5 -9.5t56 -31t40 -59.5t15.5 -93q0 -66 -23.5 -143.5t-67.5 -157.5t-105.5 -152.5t-137.5 -126.5q-90 -63 -221 -63 q-29 0 -57.5 3t-51.5 15q-14 8 -28.5 16.5t-14.5 18.5z" />
<glyph unicode=":" horiz-adv-x="454" d="M-8 68q0 35 20 51t47 16t47.5 -16.5t20.5 -50.5q0 -35 -20.5 -51.5t-47.5 -16.5t-47 16.5t-20 51.5zM217 514q0 35 20.5 51.5t47.5 16.5t47 -16.5t20 -51.5t-20.5 -51.5t-46.5 -16.5q-27 0 -47.5 16.5t-20.5 51.5z" />
<glyph unicode=";" horiz-adv-x="454" d="M-47 -326q0 10 24.5 39t53 67t53.5 80t25 83q0 35 -11.5 46t-34.5 11q-25 0 -48 15.5t-23 45.5q0 31 17.5 52.5t49.5 21.5q27 0 46.5 -13t32 -34.5t18.5 -47t6 -48.5q0 -53 -25.5 -111.5t-58.5 -107.5t-64.5 -81t-42.5 -32q-6 0 -12 3t-6 11zM217 514q0 35 20.5 51.5 t47.5 16.5t47 -16.5t20 -51.5t-20.5 -51.5t-46.5 -16.5q-27 0 -47.5 16.5t-20.5 51.5z" />
<glyph unicode="&#x3c;" horiz-adv-x="1228" d="M317 266v62l594 276v-65l-520 -242l520 -242v-65z" />
<glyph unicode="=" horiz-adv-x="1228" d="M317 156v53h594v-53h-594zM317 385v53h594v-53h-594z" />
<glyph unicode="&#x3e;" horiz-adv-x="1228" d="M317 -10v65l521 242l-521 242v65l594 -276v-64z" />
<glyph unicode="?" d="M27 68q0 35 20 51t47 16t47.5 -16.5t20.5 -50.5q0 -35 -20.5 -51.5t-47.5 -16.5t-47 16.5t-20 51.5zM162 307q0 39 29.5 90.5t74.5 109.5t98.5 119.5t98.5 119t74.5 109.5t29.5 91q0 27 -16 42.5t-39 15.5q-27 0 -65.5 -19.5t-74.5 -49.5t-61.5 -64.5t-25.5 -65.5 q0 -41 26 -41q33 0 52.5 17.5t27.5 17.5q10 0 10 -11q0 -14 -25.5 -41.5t-62.5 -27.5q-35 0 -58.5 23.5t-23.5 58.5q0 51 26 95t65.5 76t90 50t97.5 18q61 0 108.5 -27.5t47.5 -97.5q0 -59 -35 -117.5t-86 -113.5t-112.5 -107.5t-113 -100.5t-86 -91t-34.5 -80q0 -23 11 -42 t40 -19q25 0 37 11t18 24.5t12.5 24.5t18.5 11q10 0 11 -7t1 -13q0 -35 -27.5 -61.5t-66.5 -26.5q-59 0 -75.5 30.5t-16.5 69.5z" />
<glyph unicode="@" horiz-adv-x="1638" d="M184 602q0 147 53.5 269t145.5 209t213 134.5t256 47.5q127 0 236.5 -46.5t191.5 -122t128 -173t46 -197.5q0 -70 -22.5 -146.5t-65.5 -141t-106.5 -106.5t-145.5 -42q-47 0 -77.5 17.5t-50 39t-28 43t-8.5 29.5h-4q-8 -12 -30.5 -34t-51 -43.5t-62.5 -36.5t-67 -15 q-16 0 -46 5t-58.5 27.5t-50 68.5t-21.5 128q0 45 21.5 119t66.5 144.5t112.5 121.5t160.5 51q33 0 54 -9t35.5 -22.5t24 -31t19.5 -35.5l18 74h123l-123 -475q-4 -10 -4 -22.5v-29.5q0 -16 16.5 -38.5t57.5 -22.5q63 0 112.5 37t82 93t49 122.5t16.5 128.5q0 80 -36 169 t-106.5 162.5t-173 123t-233.5 49.5q-115 0 -213 -43t-169 -123t-111 -195.5t-40 -261.5q0 -104 37 -203.5t108 -176.5t173 -123t233 -46q121 0 202 25.5t159 60.5l24 -39q-88 -37 -182 -68.5t-203 -31.5q-178 0 -308 59.5t-214 149.5t-124 195.5t-40 197.5zM678 510 q0 -86 37 -120t90 -34q27 0 65.5 33t72.5 89.5t58.5 130t24.5 155.5q0 119 -82 119q-35 0 -81 -24.5t-87 -73t-69.5 -118t-28.5 -157.5z" />
<glyph unicode="A" horiz-adv-x="1478" d="M27 233q0 10 1 15.5t11 5.5t13 -24.5t16.5 -57.5t46 -66.5t100.5 -54.5q16 -4 38.5 -9t55.5 -5q72 0 136.5 36t121 90t103.5 116.5t84 115.5q66 94 138.5 203t154 211t172 191.5t190.5 144.5q45 25 90 38t96 21l13 -16q-37 -37 -70 -107.5t-61.5 -150.5t-51 -158 t-36.5 -127q-43 -147 -77 -238.5t-57.5 -145.5t-37 -77.5t-15.5 -31.5q-8 -23 -15 -40.5t-7 -25.5q0 -49 47 -49q23 0 44 16.5t25 16.5q10 0 11 -13q0 -4 -16.5 -20.5t-39.5 -28.5q-12 -6 -26.5 -7t-30.5 -1q-41 0 -63.5 7t-59.5 7q-35 0 -49 -5t-21 -5q-16 0 -16 10 q0 8 6 15q27 27 60.5 80t65.5 110t56.5 110.5t30.5 80.5q4 8 10.5 25.5t6.5 29.5q0 10 -12.5 13t-20.5 5q-39 4 -92.5 12.5t-112.5 8.5q-12 0 -24.5 -10.5t-23.5 -23.5t-21.5 -28.5t-16.5 -25.5q-45 -66 -105.5 -138.5t-132 -134t-154.5 -102.5t-175 -41q-72 0 -127.5 13.5 t-108.5 66.5q-27 25 -47 72t-20 81zM158 823q0 90 46 164t118.5 126t159.5 80t167 28q55 0 110.5 -9.5t112.5 -21.5t116 -22.5t124 -10.5q68 0 133.5 12t126.5 35l8 -8q-10 -12 -38.5 -29.5t-69.5 -34t-90 -31t-101 -20.5q-49 -6 -102 -6q-51 0 -103.5 9.5t-105.5 21.5 t-104.5 22.5t-102.5 10.5q-72 0 -137.5 -22.5t-117.5 -65.5t-82.5 -104.5t-30.5 -137.5q0 -57 16 -92t16 -43q0 -4 -8 -4t-19.5 14t-20.5 35.5t-15 49.5t-6 54zM995 547q0 -4 13.5 -5t31.5 -1q31 0 55.5 -3t45.5 -8q20 -4 33.5 -7t23.5 -3q35 0 42 17.5t17 44.5 q10 29 19.5 57t19.5 57q29 92 73 195.5t120 208.5q16 23 31.5 38t27.5 29q-35 -2 -71.5 -18t-69.5 -41t-61.5 -53.5t-49.5 -53.5q-78 -100 -130 -171.5t-83.5 -122t-50 -82t-28.5 -52.5q-8 -16 -9 -26z" />
<glyph unicode="B" horiz-adv-x="1593" d="M23 199q0 12 8 12q6 0 9 -8t11 -33q20 -59 91 -96t157 -37t161 53t137 133t113.5 175.5t92.5 179.5q57 117 119.5 199.5t118 135t97.5 77t56 24.5q10 0 10 -6q0 -2 -14 -13.5t-33.5 -29t-42 -42t-39.5 -55.5q-12 -23 -30.5 -53.5t-46 -79.5t-64.5 -123.5t-86 -183.5 q-45 -98 -103.5 -177t-126 -134.5t-141.5 -86t-147 -30.5q-84 0 -142.5 22.5t-95.5 54.5t-53 65.5t-16 56.5zM293 801q0 94 43 168.5t110.5 127t153.5 80t172 27.5q61 0 121.5 -10t122.5 -20q59 -10 119.5 -19.5t121.5 -9.5q53 0 88 9t60 20q27 10 50.5 20t53.5 10 q31 0 51.5 -14t33 -35.5t17.5 -48.5t5 -53q0 -76 -28.5 -128.5t-75 -87t-108 -54t-124.5 -27.5q-37 -6 -37 -27q0 -10 35 -35.5t76 -66.5t75.5 -97.5t34.5 -128.5q0 -86 -29.5 -159.5t-82 -127t-125 -84t-160.5 -30.5q-80 0 -135 22.5t-91 51t-52.5 57.5t-16.5 41 q0 20 14 21q2 0 17.5 -25t44.5 -53.5t73 -53t107 -24.5q68 0 128.5 36t104.5 91t70.5 122.5t26.5 131.5q0 78 -23.5 131t-52.5 88t-52.5 56.5t-23.5 35.5q0 16 16.5 28.5t40 23t48 19.5t43.5 19q33 20 66.5 55t61 76t44 85t16.5 85q0 23 -7 35t-30 12q-25 0 -55.5 -10 t-73.5 -31q-41 -20 -98 -35.5t-137 -15.5q-51 0 -105.5 5t-109.5 16q-53 10 -105.5 18t-99.5 8q-74 0 -144.5 -17.5t-125 -54t-88 -97t-33.5 -146.5q0 -51 6 -85t6 -40q0 -4 -4 -6t-8 -2q-10 0 -16.5 17.5t-11.5 39t-7 42t-2 28.5z" />
<glyph unicode="C" horiz-adv-x="1251" d="M127 475q0 127 42 224.5t112 199.5q45 66 105 122t130 97t146.5 63.5t156.5 22.5q27 0 84.5 -8t120.5 -8q72 0 125 8t78 8q20 0 36.5 -14t25.5 -34.5t14.5 -44.5t5.5 -42q0 -35 -13.5 -69.5t-37 -64.5t-54 -48.5t-67.5 -18.5q-57 0 -91 26t-34 46q0 12 8 12q4 0 10 -7 t16.5 -16t24.5 -16.5t37 -7.5q25 0 42 12.5t28.5 31t17.5 41t6 42.5q0 66 -17.5 96.5t-58.5 30.5q-18 0 -45.5 -4t-52.5 -4q-14 0 -38.5 2t-53.5 5t-58.5 6t-52.5 3q-117 0 -221 -67.5t-183 -170t-125 -222t-46 -226.5q0 -96 25.5 -177t78 -140.5t130 -93t180.5 -33.5 q94 0 174 36t138 97t91 142t33 171q0 25 -7.5 60t-7.5 59q0 16 11 16q8 0 20 -16t23 -43t18.5 -57.5t7.5 -57.5q0 -102 -46 -184t-120.5 -139.5t-169 -89t-192.5 -31.5q-106 0 -199.5 33t-162 94t-108.5 149t-40 199z" />
<glyph unicode="D" horiz-adv-x="1366" d="M106 795q0 111 51.5 190.5t131.5 131.5t179 78t196 26q123 0 240.5 -41t209.5 -117t148.5 -183.5t56.5 -238.5q0 -141 -61.5 -260t-163 -203t-230.5 -131t-262 -47q-139 0 -255 40t-208 132q-6 6 -14 14.5t-8 18.5t14 10q51 -41 106.5 -81t116.5 -62q43 -16 103.5 -25.5 t107.5 -9.5q127 0 243 51t204 137t140 200t52 241q0 123 -38 220t-108.5 162.5t-168.5 100.5t-221 35q-84 0 -176.5 -20.5t-169 -65.5t-128 -115t-51.5 -170q0 -39 3.5 -61.5t8.5 -36t8 -20.5t3 -15q0 -10 -10 -10q-12 0 -21.5 15t-15.5 35.5t-9.5 42t-3.5 32.5zM301 150 q0 4 7 9t18 13q16 14 35.5 40t39 55.5t37 59t29.5 52.5q33 55 65.5 140t75.5 179.5t103.5 185.5t150.5 158q12 10 35 23.5t37 13.5q8 0 8 -10q0 -4 -34 -38t-77 -111q-45 -82 -74.5 -142.5t-50 -106.5t-34 -84t-25.5 -73q-10 -27 -28.5 -64.5t-45 -79.5t-58.5 -83t-65.5 -74 t-67.5 -53.5t-65 -20.5q-16 0 -16 11z" />
<glyph unicode="E" horiz-adv-x="1138" d="M68 369q0 94 41 165.5t102 121t132 78t130 34.5q55 6 69.5 11t14.5 20q0 12 -29.5 22t-65.5 28.5t-65.5 48.5t-29.5 79q0 68 34.5 110.5t87 69.5t114 37t116.5 10q41 0 96 -8t106.5 -29.5t86 -56.5t34.5 -88q0 -66 -40.5 -105.5t-108.5 -39.5q-31 0 -56.5 13t-44 31.5 t-28.5 39t-10 32.5q0 10 8 11q2 0 9 -10.5t20.5 -23t35 -22.5t52.5 -10q47 0 68.5 35t21.5 76q0 31 -19.5 53t-49.5 36.5t-62.5 21.5t-57.5 7q-47 0 -100 -10t-99 -33.5t-77 -62.5t-31 -96q0 -37 18.5 -60.5t42 -42t42 -35t18.5 -39.5q0 -16 -11.5 -24t-31 -14.5t-44 -11.5 t-50.5 -15q-66 -25 -117 -62.5t-86 -84t-53.5 -98.5t-18.5 -103q0 -88 28 -151.5t78 -105.5t120.5 -61.5t154.5 -19.5q92 0 183.5 31.5t164 90t117.5 139.5t45 179q0 33 -9 54.5t-9 29.5t7 14.5t13 6.5t12.5 -13.5t11.5 -32t8 -37t3 -28.5q0 -104 -46 -190t-125 -148.5 t-183.5 -97.5t-218.5 -35q-84 0 -168 24.5t-150.5 71.5t-108.5 116t-42 157z" />
<glyph unicode="F" horiz-adv-x="1251" d="M92 221q-1 0 -1 0.5t1 1.5q0 4 8 4q10 0 24.5 -27.5t35.5 -52.5q43 -53 104.5 -81.5t153.5 -28.5t168 32.5t137 83t105 108.5t75 108.5t45.5 84t14.5 35.5q0 12 -13 13q-12 0 -44 -19.5t-65.5 -42t-61 -42t-31.5 -19.5q-10 0 -11 12q0 10 34 37t78 55.5t87 53t61 32.5 q74 143 153 263t167 206q27 25 43 41.5t25.5 25.5t13.5 15t6 10q-23 -4 -52.5 -14t-71.5 -20.5t-94 -18.5t-116 -8q-61 0 -120.5 10.5t-119.5 24.5q-59 14 -114 24.5t-113 10.5q-135 0 -216 -83t-81 -218q0 -43 11.5 -76t23.5 -55.5t23.5 -36t11.5 -15.5q0 -10 -10 -10 t-26.5 14.5t-32 41t-27 62.5t-11.5 79q0 82 34 151.5t91.5 119.5t130 79t152.5 29q59 0 121.5 -12.5t128.5 -28.5t135.5 -28.5t142.5 -12.5q63 0 108.5 6t76 14t47 14.5t22.5 6.5q12 0 13 -13q0 -4 -9.5 -15t-20.5 -24.5t-21.5 -24.5t-12.5 -13q-27 -33 -68 -95.5 t-80.5 -132t-69.5 -133t-34 -96.5q33 14 75 22.5t64 8.5q25 0 56.5 -12.5t31.5 -51.5q0 -27 -20.5 -43t-42.5 -16q-23 0 -39 7t-30.5 16t-29 16.5t-32.5 7.5q-27 0 -47.5 -11.5t-30.5 -17.5q-55 -133 -119.5 -237.5t-146.5 -176t-185.5 -108.5t-234.5 -37q-72 0 -129 13.5 t-111 58.5q-39 33 -66.5 73.5t-27.5 75.5z" />
<glyph unicode="G" horiz-adv-x="1251" d="M61 211q0 12 7 12q4 0 18 -24.5t44 -55t77 -60.5t115 -40q49 -6 94 -6q98 0 195.5 38t174.5 91q39 27 79 64.5t76 80.5t67 89t49 89l-4 7q-59 -18 -100.5 -31.5t-79 -22t-80.5 -12.5t-105 -4q-74 0 -160 24.5t-158.5 71.5t-121.5 113.5t-49 152.5q0 76 33.5 135.5 t90 102.5t128 72.5t147.5 48t148.5 26t130.5 7.5q147 0 247.5 -23.5t163 -60.5t89 -83t26.5 -91q0 -72 -41 -109t-102 -37q-23 0 -49.5 10.5t-48 26.5t-36 36.5t-14.5 41.5q0 12 6 12q2 0 9.5 -7t19.5 -15.5t30.5 -15.5t43.5 -7q55 0 75.5 38t20.5 85q0 51 -52.5 84t-123 49 t-141 22.5t-107.5 6.5q-94 0 -188.5 -21.5t-155.5 -52.5q-41 -20 -83 -53t-76 -72t-55.5 -82t-21.5 -84q0 -78 33 -137t89.5 -99t132 -59.5t161.5 -19.5q90 0 176 24.5t153.5 53t113 53t55.5 24.5q6 0 6 -18q0 -10 -10.5 -35.5t-24.5 -54.5t-29.5 -56.5t-25.5 -43.5 q-129 -207 -304 -308.5t-393 -101.5q-39 0 -70.5 2t-62 9t-64.5 20.5t-73 38.5q-14 8 -33.5 25.5t-38 38t-31 41t-12.5 36.5z" />
<glyph unicode="H" horiz-adv-x="1593" d="M-4 172q0 18 6 18q4 0 16.5 -23.5t38 -53t68.5 -53t111 -23.5q63 0 119.5 21.5t103.5 52t84 66.5t59 65q39 49 78 112.5t71.5 122t53 101.5t20.5 51q0 12 -8 12q-29 0 -55.5 -11.5t-40.5 -11.5t-14 15q0 8 17 17t40.5 16.5t47.5 12.5t34 7q53 119 124 230.5t169 209.5 l-6 2q-25 -4 -44.5 -9t-41 -10t-50 -8t-71.5 -3q-47 0 -95.5 9t-93.5 19t-82 19.5t-59 9.5q-39 0 -67.5 -15.5t-48 -35t-32 -34.5t-16.5 -15q-6 0 -6 12q0 18 17.5 48t47 56.5t67.5 46t79 19.5q51 0 100 -12.5t99 -24.5q49 -12 99 -24.5t101 -12.5q8 0 31 3t47.5 7.5t47 7.5 t30.5 3q4 0 11 -2t7 -11q0 -4 -7 -16t-18 -28.5t-22.5 -34t-19.5 -31.5q-18 -29 -45 -79t-53.5 -104.5t-49 -106.5t-28.5 -87q35 0 68.5 -5t61 -11t47 -10.5t25.5 -4.5q8 0 30 -5t45.5 -11t47 -11t37.5 -5q8 0 13.5 2t9.5 2q18 43 39.5 101t49 119.5t61.5 123t75 108.5 t91 77t110 30q29 0 57.5 -8.5t52 -20.5t39 -23.5t15.5 -17.5q0 -12 -15 -12q-6 0 -39 22.5t-92 22.5t-104 -47t-80 -113.5t-61.5 -136.5t-45.5 -113q-6 -14 -13 -33.5t-14.5 -38t-11.5 -33t-4 -16.5q0 -6 17 -6q14 0 38.5 5.5t36.5 5.5t13 -17q0 -8 -14.5 -13t-33 -9 t-38 -6.5t-29.5 -2.5q-8 0 -20.5 -23.5t-24.5 -53t-22.5 -57t-14.5 -38.5q-12 -35 -33.5 -83t-42 -96t-35 -88t-14.5 -54q0 -23 20.5 -33t47.5 -10q31 0 43 1t20 1q6 0 7 -5t1 -9q0 -12 -31.5 -18.5t-72.5 -6.5q-39 0 -61.5 4t-39 9t-30.5 9.5t-33 4.5q-10 0 -28.5 -4.5 t-37 -9.5t-32.5 -9t-19 -4q-6 0 -6 14q0 6 14.5 12.5t36 20.5t46 40t45.5 67q57 115 92 189.5t55.5 121.5t30.5 73.5t18 45.5q-39 4 -84 14t-92 20q-45 10 -87 19.5t-77 9.5q-10 0 -19 1t-20 3q-53 -123 -104 -219t-115 -174q-41 -51 -93 -97t-111.5 -82t-124 -57.5 t-132.5 -21.5q-61 0 -107 8t-91 43q-23 18 -50.5 55t-27.5 66z" />
<glyph unicode="I" horiz-adv-x="1024" d="M18 166q0 12 3.5 14t9.5 2q10 0 21 -22.5t38 -50t73 -50t126 -22.5q96 0 176 43t147.5 111.5t124 157.5t106.5 181.5t95 181.5t90 156q39 59 86 121.5t127 140.5l-2 5q-80 -14 -172 -21.5t-219 -7.5q-82 0 -165 -24.5t-149.5 -72.5t-108.5 -120t-42 -164q0 -51 12.5 -96 t36 -79t57 -54.5t74.5 -20.5q6 0 15.5 2t17.5 2q10 0 10 -22q0 -12 -18.5 -15.5t-36.5 -3.5q-49 0 -87 27t-64.5 68.5t-40 93t-13.5 100.5q0 57 16.5 111.5t43 100.5t56.5 82t58 58q92 72 187.5 98.5t205.5 26.5q74 0 158 -12t146 -12q29 0 61.5 6t40.5 6q10 0 10 -6 q0 -10 -8 -16.5t-21 -18.5q-80 -80 -133 -180.5t-101 -209t-97 -219t-119 -208.5q-49 -70 -105.5 -131.5t-127 -106.5t-155.5 -70.5t-190 -25.5q-57 0 -103 19.5t-80 46t-52.5 54t-18.5 46.5z" />
<glyph unicode="J" horiz-adv-x="909" d="M-53 -76q0 51 33.5 100.5t89 96.5t127 89t146.5 75.5t149.5 60.5t134.5 41q6 2 18 22.5t23.5 46t20.5 48t9 28.5q-74 2 -153.5 21.5t-146 59.5t-109.5 99.5t-43 141.5q0 80 33.5 138.5t90 99.5t129 66.5t148.5 40.5t148.5 22.5t132.5 13.5q51 4 101 17.5t93 26.5t73 24.5 t40 11.5q27 0 27 -10q0 -6 -7.5 -17.5t-11.5 -15.5q-45 -45 -89 -106.5t-87 -130t-80 -138.5t-65.5 -129t-47 -104.5t-22.5 -63.5l6 -6q33 6 66.5 18.5t61.5 23.5t48.5 19.5t26.5 8.5q8 0 8 -23q0 -6 -34 -20.5t-75.5 -28.5t-78.5 -24.5t-45 -10.5q-4 0 -13.5 -18.5 t-19.5 -43t-20.5 -49t-16.5 -34.5q10 2 19.5 4t15.5 2t16 -4t10 -17q0 -10 -19.5 -13t-43.5 -3q-16 0 -35.5 -37t-48.5 -86q-35 -59 -92.5 -139t-131 -151.5t-161.5 -122t-182 -50.5q-63 0 -114.5 29t-51.5 100zM33 -55q0 -51 34.5 -82t79.5 -31q59 0 114.5 29.5t104 77 t90.5 105.5t73.5 115.5t53 106.5t29.5 80l-4 4q-43 -10 -102.5 -32.5t-123 -53.5t-125.5 -67.5t-112.5 -78.5t-81 -86t-30.5 -87zM360 860q0 -70 30 -124t79 -91t109.5 -56.5t121.5 -19.5q8 0 16.5 8.5t20 29t28.5 53t42 79.5q82 154 185 286t220 249l-4 4 q-68 -35 -152.5 -53.5t-170.5 -30.5t-165 -21.5t-134 -25.5q-100 -31 -163 -106.5t-63 -180.5z" />
<glyph unicode="K" horiz-adv-x="1593" d="M-2 193q0 16 6 16q10 0 25.5 -26.5t43 -59.5t72.5 -59.5t117 -26.5t151 41t152.5 111.5t136 163.5t105.5 200q20 49 55 122t81 154.5t103.5 165.5t120.5 156l-4 4q-59 -20 -118.5 -38.5t-120.5 -18.5q-55 0 -103.5 5t-89.5 11t-77 11t-68 5q-109 0 -153 -46t-44 -134 q0 -53 14.5 -79.5t14.5 -34.5q0 -10 -12 -11q-8 0 -17.5 13.5t-18 34t-13.5 43t-5 40.5q0 59 25.5 107.5t67.5 83.5t95.5 54.5t110.5 19.5q43 0 89 -5.5t94 -15.5q47 -10 95 -19.5t93 -9.5q53 0 109.5 10.5t101.5 39.5l6 -7q-27 -39 -74 -128t-96 -191t-91 -200.5 t-56 -157.5l12 4q109 115 226.5 235.5t230 219t213 162t174.5 63.5q86 0 119.5 -23.5t33.5 -85.5q0 -20 -7 -38.5t-17 -18.5q-12 0 -13 12q0 6 4.5 19.5t4.5 21.5q0 43 -29 59.5t-82 16.5q-55 0 -112.5 -25.5t-114 -63.5t-108.5 -84t-97 -87q-8 -23 -24.5 -71t-36 -110.5 t-40 -134t-37 -144.5t-27.5 -139.5t-11 -117.5q0 -29 4 -59.5t16.5 -55t35 -40t60.5 -15.5q39 0 74 24.5t64.5 54t49 54.5t28.5 25q10 0 10 -7q0 -10 -14.5 -31.5t-37 -47t-51 -50t-57.5 -41.5q-23 -12 -47.5 -15t-48.5 -3q-100 0 -146.5 62.5t-46.5 152.5q0 141 38 276.5 t77 266.5l-4 4q-35 -31 -88 -85t-107.5 -113.5t-103.5 -118t-76 -95.5q-47 -66 -105.5 -128t-128 -111.5t-151.5 -80t-178 -30.5q-63 0 -110.5 25.5t-79 58.5t-47 64.5t-15.5 44.5z" />
<glyph unicode="L" horiz-adv-x="1251" d="M-16 45q0 27 27.5 43t49.5 45q74 96 123 195.5t94.5 202t98.5 209t137 214.5q45 61 99.5 112.5t116 89.5t131 59.5t149.5 21.5q57 0 110.5 -14.5t94 -45t66.5 -76.5t26 -110q0 -39 -18.5 -75.5t-44 -66.5t-52.5 -47.5t-43 -17.5q-14 0 -14 9q0 2 21.5 16t46 38.5t46 61.5 t21.5 86q0 55 -21.5 94t-57.5 64t-82 36t-95 11q-139 0 -242.5 -85t-181.5 -216q-39 -66 -74 -135.5t-67.5 -136t-64.5 -127t-65 -107.5q-61 -90 -118.5 -164.5t-147.5 -138.5q-33 -23 -33 -43q0 -10 21 -10q16 0 35.5 17.5t50.5 39.5q31 23 77 40.5t115 17.5 q49 0 98.5 -10.5t100.5 -22.5t103.5 -24.5t105.5 -12.5q84 0 156.5 23.5t127 68.5t85 111.5t30.5 152.5q0 37 -16 72t-45 61.5t-71 43t-91 16.5q-66 0 -116 -22.5t-85.5 -51.5t-57 -56.5t-28.5 -35.5q-10 -14 -22 -32.5t-23.5 -34t-20.5 -26t-13 -10.5q-10 0 -11 11 q0 20 21.5 56t53.5 74t70 71.5t72 50.5q49 23 95.5 33t64.5 10q51 0 98.5 -16.5t83 -49.5t57 -82t21.5 -112t-24.5 -121t-66.5 -106t-97 -85t-119 -59q-31 -12 -55.5 -19.5t-49 -11.5t-54 -5t-74.5 -1q-78 0 -133.5 10t-104.5 25q-47 14 -94 24.5t-84 10.5 q-35 0 -55.5 -10.5t-36.5 -24.5q-16 -12 -35 -23.5t-53 -11.5q-25 0 -34 12.5t-9 32.5z" />
<glyph unicode="M" horiz-adv-x="1705" d="M-35 72q0 12 6 12q4 0 18.5 -7t34 -16.5t45 -16.5t54.5 -7q111 0 198 70.5t156.5 174t123.5 219t99 206.5q29 57 48.5 96t32 65.5t20.5 44t14 33.5q-10 -4 -28.5 -10l-37 -12t-34 -11.5t-17.5 -5.5q-4 0 -6 6.5t-2 12.5q0 4 36 21t81 34.5t87 32t54 14.5q15 0 15 -12 q0 -4 -19.5 -47t-49.5 -107.5t-66.5 -140.5t-69.5 -146q-49 -98 -105.5 -200.5t-130 -185.5t-170 -136t-221.5 -53q-39 0 -69.5 9t-52 20.5t-33 24t-11.5 18.5zM246 817q0 106 54 183t137 126.5t181.5 72t188.5 22.5q94 0 216 -26t241.5 -56.5t225 -56t169.5 -25.5 q8 0 34.5 22.5t63.5 50t81 51t87 23.5q29 0 60.5 -11t31.5 -52q0 -55 -46 -88t-107.5 -50.5t-123 -23.5t-93.5 -6q-6 0 -25.5 -31t-44.5 -72t-48.5 -85t-37.5 -70q-76 -141 -121 -269.5t-45 -259.5q0 -27 4 -53.5t16.5 -48t33 -34.5t51.5 -13t62.5 16.5t57 36t43 35.5 t23.5 16q14 0 14 -16q0 -2 -17.5 -21.5t-46 -43t-65.5 -42t-78 -18.5q-61 0 -101 23.5t-62.5 61.5t-31.5 85t-9 94q0 92 36.5 188.5t92 190.5t122 179t125.5 157q-41 4 -95 11t-106.5 16.5t-95.5 18.5t-57 15q-27 10 -99.5 27.5t-158.5 35t-170 31t-133 13.5 q-78 0 -149.5 -21.5t-127 -64.5t-88 -106.5t-32.5 -147.5q0 -39 7 -65.5t14 -44t14.5 -28t7.5 -14.5q0 -8 -11 -8q-16 0 -29.5 21.5t-22.5 49t-13 56.5t-4 43zM627 25q0 20 14 20q6 0 13.5 -4t17.5 -4q35 0 71.5 43t91 148.5t137.5 284.5t210 452q14 29 32.5 36t40.5 7 q12 0 30 -3.5t18 -11.5q0 -12 -31 -77.5t-77 -159.5t-99.5 -204t-99.5 -207t-76.5 -169t-30.5 -92q0 -18 11 -28.5t28 -10.5q16 0 27.5 8t19.5 17.5t14 17.5t10 8q10 0 12.5 -4t2.5 -10q0 -16 -10.5 -31.5t-26.5 -27t-34.5 -17.5t-37.5 -6q-41 0 -76.5 4t-70.5 4 q-18 0 -37 -4t-35 -4t-37.5 4t-21.5 21zM1708 1044q20 -2 40.5 -4t43.5 -2q18 0 50 5.5t62.5 17.5t53 30.5t22.5 43.5q0 14 -8 23t-37 9q-47 0 -108.5 -32t-118.5 -91z" />
<glyph unicode="N" horiz-adv-x="1593" d="M160 860q0 68 26.5 132.5t72.5 115.5t107.5 82t133.5 31q131 0 209.5 -49.5t131 -125t88.5 -169t83 -181.5q8 -18 19 -50t23.5 -71.5t28.5 -87t39 -94.5h4q12 70 23.5 126t23 105.5t26.5 97.5t38 101q27 66 74 136.5t108.5 129t133 95.5t149.5 37q45 0 89 -15.5t78 -37 t54.5 -47t20.5 -44.5q0 -8 -7 -8q-4 0 -21.5 14.5t-45 33t-65.5 32.5t-87 14q-66 0 -132 -34.5t-127.5 -95t-116 -141.5t-94.5 -171t-62.5 -186.5t-22.5 -186.5q0 -43 7.5 -97t28 -102.5t57 -80t94.5 -31.5q39 0 66.5 20.5t46 44t30.5 44t20 20.5q4 0 8.5 -1t4.5 -11 q0 -16 -13.5 -42t-40 -50.5t-64.5 -43t-87 -18.5q-74 0 -117 36t-81 113.5t-83 198.5t-125 291l-26 57h-4q-10 -47 -27.5 -116.5t-46.5 -147.5t-72 -154.5t-101 -138t-133 -100.5t-171 -39q-29 0 -57.5 8t-51 24.5t-37 41t-14.5 57.5q0 12 4 30.5t17 18.5q14 0 14 -10 q0 -8 1 -22.5t1 -24.5q0 -41 34 -63.5t91 -22.5q76 0 143.5 33.5t125 91t102.5 130.5t76.5 150.5t48 154.5t16.5 142q0 61 -25.5 139t-71.5 146t-107.5 114t-131.5 46q-68 0 -125 -27t-99 -71t-66.5 -103t-24.5 -125q0 -43 9 -73.5t21.5 -52t21.5 -36t9 -22.5q0 -10 -12 -10 q-10 0 -24.5 18t-29 47t-23.5 63.5t-9 67.5z" />
<glyph unicode="O" horiz-adv-x="1138" d="M86 461q0 88 14.5 163.5t42 144.5t67.5 134.5t93 132.5q14 18 43 49t58.5 58.5t56 48t37.5 20.5q10 0 10 -12q0 -8 -23 -26q-35 -29 -70.5 -76t-68.5 -104.5t-60.5 -118t-43.5 -117.5q-18 -59 -30.5 -102.5t-22 -86.5t-13.5 -92t-4 -119q0 -57 16.5 -114.5t51 -103.5 t90 -74.5t135.5 -28.5q70 0 142.5 43t141 112.5t129 159.5t106.5 184.5t72.5 184.5t26.5 162q0 98 -11 158.5t-40 97.5q-29 41 -85 63.5t-111 22.5q-66 0 -117 -15.5t-92 -43t-76 -65.5t-68 -83q-14 -20 -23 -43t-16.5 -41.5t-13.5 -29.5t-16 -11q-6 0 -7 9t-1 13 q0 12 10 36t24.5 49.5t28.5 48t25 34.5q61 78 144 128.5t185 50.5q94 0 160 -37t106.5 -96.5t60 -134t19.5 -148.5q0 -90 -23.5 -187.5t-65.5 -190.5t-103.5 -178t-137 -149.5t-166 -102.5t-188.5 -38t-172.5 37t-125 100.5t-76 147.5t-25.5 176z" />
<glyph unicode="P" horiz-adv-x="1366" d="M92 133q0 12 8 12q6 0 11.5 -9t15.5 -22.5t27.5 -28.5t48.5 -30q23 -10 49.5 -14t48.5 -4q111 0 196 65.5t149.5 160.5t113.5 200.5t88 185.5q25 49 57.5 106.5t73.5 114t88 108.5t100 89l11 -8q-16 -16 -41 -51t-43 -74q-41 -76 -72 -147.5t-62.5 -146.5t-69.5 -156 t-93 -175q-35 -59 -85 -114.5t-112.5 -98.5t-132.5 -69.5t-141 -26.5q-70 0 -115 17.5t-71.5 41t-37 45t-10.5 29.5zM291 834q0 63 19.5 113t60.5 106q41 55 94 94t114.5 64.5t127 38t133.5 12.5q66 0 129 -9.5t129 -23.5q63 -12 123.5 -24.5t115.5 -12.5q47 0 75 7t46 13 q16 8 30.5 14.5t35.5 6.5q18 0 41.5 -23.5t44 -62.5t35 -86t14.5 -92q0 -92 -35 -173t-96.5 -141.5t-142 -95.5t-173.5 -35q-37 0 -72.5 10.5t-65.5 24.5t-48 31.5t-18 32.5q0 12 8 12q6 0 15 -10.5t27.5 -22.5t48.5 -22.5t77 -10.5q80 0 151.5 50.5t127 125t87 161.5 t31.5 159q0 16 -4 38.5t-12.5 43t-20.5 35t-26 14.5q-8 0 -30 -7t-58 -20q-37 -14 -91.5 -26.5t-130.5 -12.5q-47 0 -95 6.5t-97 12.5q-47 6 -96.5 12t-100.5 6q-78 0 -165 -15t-159.5 -52t-119.5 -100.5t-47 -161.5q0 -57 12 -82t12 -43q0 -12 -8 -13q-10 0 -19.5 16.5 t-17.5 38t-12 44t-4 35.5z" />
<glyph unicode="Q" horiz-adv-x="1024" d="M27 0q0 14 55 38.5t174 82.5q131 63 254 147t218 185.5t151.5 219.5t56.5 251q0 61 -22.5 110t-60.5 82t-90 50.5t-114 17.5q-96 0 -179 -37t-144.5 -100.5t-97 -147.5t-35.5 -176q0 -31 12 -65.5t32.5 -64.5t48 -49.5t58.5 -19.5q45 0 45 -20q0 -16 -22 -17 q-49 0 -94.5 24t-78 60.5t-52 83.5t-19.5 97q0 109 46 195.5t121 147t171 93.5t196 33q78 0 149 -29t123 -78t82.5 -117.5t30.5 -148.5q0 -133 -74.5 -243.5t-184 -200t-233.5 -160t-222 -125.5v-4q30 1 57 1q54 0 95 -3q63 -4 109 -9.5t78.5 -9.5t63.5 -4q57 0 93 11.5 t56.5 25.5t31 25.5t18.5 11.5t8 -14q0 -4 -6 -19.5t-19.5 -34t-35 -37t-50.5 -30.5q-25 -10 -64.5 -19.5t-115.5 -9.5q-49 0 -97 4t-97 10q-47 6 -96.5 10.5t-98.5 4.5q-94 0 -151.5 -18.5t-65.5 -18.5q-14 0 -14 8z" />
<glyph unicode="R" horiz-adv-x="1366" d="M-47 203q0 12 10 12q8 0 16.5 -29.5t45.5 -70.5q49 -55 103 -66.5t101 -11.5q92 0 164 55t130.5 142.5t110.5 196t106.5 216t116 203.5t140.5 158q14 10 42 27.5t42 17.5q4 0 8.5 -1t4.5 -5t-10.5 -11.5t-20.5 -17.5q-63 -63 -105.5 -145t-82 -178.5t-85 -205 t-112.5 -225.5q-31 -53 -79 -101t-104.5 -84t-120 -57.5t-126.5 -21.5q-104 0 -172 41t-94 90q-20 41 -24.5 53.5t-4.5 18.5zM160 809q0 94 53 170t133 130t174 83t178 29q59 0 117.5 -9.5t118.5 -19.5q59 -10 116.5 -19.5t116.5 -9.5q33 0 66 6.5t63 14.5q33 8 64 14t59 6 q37 0 60.5 -19.5t37 -48t18.5 -61.5t5 -59q0 -86 -42 -161t-108.5 -129t-148.5 -86t-162 -32q-14 0 -28.5 1t-28.5 3l80 -465q10 -66 27.5 -84t44.5 -18q20 0 35.5 15.5t26.5 35t20.5 34.5t17.5 15q16 0 16 -8q0 -14 -11 -37.5t-31.5 -45t-48.5 -38t-60 -16.5 q-66 0 -95.5 29.5t-42.5 91.5q-18 92 -33.5 179t-26.5 156.5t-18.5 113.5t-7.5 55q0 8 1.5 16t11.5 8q12 0 32.5 -2t55.5 -2q82 0 164 47t147.5 118t106.5 152.5t41 153.5q0 41 -20.5 46t-37.5 5q-23 0 -52.5 -10t-70.5 -27q-41 -16 -98 -30.5t-135 -14.5q-57 0 -113.5 6.5 t-113.5 12.5q-57 8 -113.5 13t-114.5 5q-72 0 -144.5 -20.5t-131 -62.5t-96 -103.5t-37.5 -140.5q0 -41 12 -71t27.5 -50.5t27.5 -32.5t12 -16q0 -10 -6 -11q-12 0 -30.5 14.5t-37 40t-30.5 61.5t-12 79z" />
<glyph unicode="S" horiz-adv-x="1138" d="M49 371q0 45 17.5 89t48 77.5t75 54t97.5 20.5q31 0 62.5 -7t56 -17t40 -20.5t15.5 -16.5q0 -18 -15 -19q-12 0 -41.5 11.5t-56.5 11.5q-106 0 -159.5 -70.5t-53.5 -171.5q0 -70 33 -122t91 -85.5t140 -51t179 -17.5q76 0 145.5 26.5t120.5 70.5t81.5 103.5t30.5 127.5 q0 78 -29.5 141t-74.5 118.5t-96 103.5t-96.5 96t-75 98.5t-29.5 107.5t23.5 98t61.5 68t86 38t99 11q47 0 95.5 -14t88.5 -37t65.5 -52.5t25.5 -62.5q0 -49 -21.5 -69.5t-50.5 -20.5q-23 0 -48.5 15.5t-25.5 27.5q0 14 11 15q27 0 44 18t17 39q0 29 -22.5 48t-53 31.5 t-65.5 18.5t-60 6q-35 0 -68.5 -8t-59 -26.5t-41 -47t-15.5 -67.5q0 -47 29.5 -90t75 -88t96.5 -93.5t96 -103.5t74.5 -118.5t29.5 -141.5q0 -102 -42 -181t-109.5 -132.5t-152.5 -82t-169 -28.5q-106 0 -200.5 22.5t-165 67.5t-112.5 114.5t-42 166.5z" />
<glyph unicode="T" horiz-adv-x="1024" d="M57 197q0 8 2 19t13 11q6 0 14 -3t8 -17q0 -51 20.5 -84t54.5 -52.5t80 -26.5t95 -7q82 0 146.5 22.5t114.5 62.5t90 97t71 125q63 139 116.5 251t107.5 204t114.5 166t138.5 137l-8 6q-41 -4 -95.5 -14.5t-148.5 -10.5q-111 0 -217 13.5t-217 13.5q-57 0 -121.5 -11.5 t-120 -39t-91.5 -74.5t-36 -119q0 -35 8.5 -60.5t18.5 -44t18.5 -29.5t8.5 -17q0 -10 -11 -10q-12 0 -26.5 17t-25.5 44t-19 58.5t-8 62.5q0 84 40.5 144.5t103 100t138.5 58t148 18.5q68 0 136 -12t138 -27q72 -14 142.5 -27.5t142.5 -13.5q29 0 58.5 4.5t56 9.5t46 9 t25.5 4q10 0 10 -8q0 -10 -20.5 -27.5t-36.5 -34.5q-88 -88 -142.5 -188t-98.5 -208.5t-93 -222.5t-127 -226q-92 -133 -212 -186.5t-279 -53.5q-51 0 -99.5 11.5t-86.5 35t-61.5 60t-23.5 90.5z" />
<glyph unicode="U" horiz-adv-x="1478" d="M119 653q0 109 47 211.5t127 181t182.5 127t212.5 48.5q129 0 197.5 -75t68.5 -196q0 -51 -26.5 -122.5t-65.5 -152.5t-85 -166t-85 -163t-65.5 -144.5t-26.5 -109.5q0 -33 14.5 -44t49.5 -11q37 0 91 39t115.5 102.5t122 143t109.5 161.5q135 225 235.5 367.5t169 222.5 t107.5 109.5t51 29.5t12 -14q0 -6 -15 -18.5t-42 -53.5q-68 -106 -125 -219.5t-104.5 -224.5t-83 -212t-60 -181t-37 -133.5t-12.5 -65.5q0 -16 8 -34.5t33 -18.5q14 0 25.5 8t18.5 18.5t13.5 18.5t12.5 8q14 0 14 -14q0 -10 -9 -23.5t-23.5 -25t-32 -19.5t-35.5 -8 q-59 0 -84 6t-56 6q-29 0 -56.5 -6t-55.5 -6q-33 0 -33 16q0 6 5 13.5t22 7.5q20 0 35.5 7t28.5 23.5t25.5 46t30.5 76.5q27 72 54.5 140.5t58.5 140.5t69 154t85 182l-4 4q-18 -18 -58.5 -85t-94.5 -157t-120.5 -190t-137.5 -184t-140.5 -139.5t-132.5 -55.5q-74 0 -108 42 t-34 110q0 55 28 129.5t68.5 157.5t89 169t89.5 166t68.5 147.5t27.5 112.5q0 37 -19.5 65.5t-50 47t-68.5 28t-77 9.5q-106 0 -195.5 -58.5t-153 -147.5t-98 -194.5t-34.5 -199.5q0 -31 7 -61.5t21.5 -54.5t38 -39t53.5 -15q23 0 38.5 -3t15.5 -12q0 -10 -17.5 -16 t-36.5 -6q-51 0 -87.5 26.5t-61.5 68.5t-37 90t-12 91z" />
<glyph unicode="V" horiz-adv-x="1138" d="M18 1049q0 45 21.5 80.5t55.5 60t75 38t82 13.5t79 -7t77 -15t76.5 -19.5t76.5 -11.5q16 0 42 5t50 11q27 8 58 17q10 0 10 -9q0 -2 -12.5 -14t-28.5 -30.5t-35.5 -40t-32.5 -42.5q-23 -35 -76 -108.5t-110 -181t-100 -246.5t-43 -301q0 -43 8 -81t27.5 -67.5t52 -46 t82.5 -16.5q90 0 178 49t169 128t149.5 181.5t119.5 208t80 206.5t29 181q0 74 -32 125t-89 51q-10 0 -22.5 -5t-18.5 -5q-10 0 -10 17q0 14 22.5 22t36.5 8q51 0 81 -31.5t45 -77.5t19 -97.5t4 -88.5q0 -72 -8 -133t-31.5 -124.5t-64.5 -135.5t-106 -164 q-39 -53 -96.5 -114.5t-128 -114.5t-151.5 -88t-169 -35q-74 0 -127 26.5t-88 72.5t-51.5 106.5t-16.5 130.5q0 129 39 244.5t92 209t109.5 161t93.5 100.5q53 47 73.5 63t20.5 29h-9q-27 -1 -59 -11q-36 -12 -87 -12q-29 0 -60 7.5t-61 13.5q-31 6 -61.5 12t-61.5 6 q-68 0 -106 -26.5t-44 -102.5q0 -10 2 -24.5t2 -18.5q0 -12 -18 -12q-12 0 -17.5 22.5t-5.5 51.5z" />
<glyph unicode="W" horiz-adv-x="1366" d="M-4 1137q0 10 16.5 27.5t42 35t56 29.5t59.5 12q59 0 100 -5t76 -13q35 -6 70 -12.5t82 -6.5q76 0 126 13.5t60 13.5t10 -12q0 -4 -20.5 -29t-55 -68t-79.5 -105.5t-93 -137.5q-94 -152 -158.5 -322t-64.5 -336q0 -35 5 -68.5t19.5 -59t40 -41t66.5 -15.5 q55 0 107.5 25.5t89.5 58.5q-10 41 -16.5 91t-6.5 126q0 74 23.5 171t65.5 183t100.5 145.5t126.5 59.5q49 0 70.5 -37t21.5 -86q0 -86 -28.5 -179t-76 -180t-107.5 -165t-122 -133q16 -37 52 -58.5t81 -21.5q84 0 161 50t143.5 131t122 182.5t93 204t59 196.5t21.5 160 q0 49 -11 96t-46 88q-10 12 -25.5 19t-31 12.5t-26.5 8.5t-11 7q0 12 12 12q51 0 88 -29.5t60.5 -75.5t34 -103.5t10.5 -112.5q0 -123 -32 -245t-87.5 -230.5t-130 -194.5t-158.5 -137q-51 -31 -107.5 -53.5t-123.5 -22.5q-59 0 -100.5 19.5t-76.5 72.5q-55 -45 -109 -68.5 t-126 -23.5q-59 0 -103.5 23.5t-72 63.5t-40.5 90t-13 104q0 92 38.5 198.5t97 211t128 198.5t131.5 160q6 6 21.5 22t30.5 33.5t27.5 33t16.5 21.5l-2 2q-57 -23 -114.5 -35t-116.5 -12q-35 0 -71 8t-63 17q-39 10 -64.5 19t-53.5 9q-33 0 -51.5 -6t-29.5 -12t-17.5 -12.5 t-14.5 -6.5q-6 0 -6 7zM565 358q0 -33 1 -69.5t4 -67.5t8.5 -51t13.5 -20q18 0 68.5 59t103.5 150.5t94 198t41 200.5q0 59 -12.5 80.5t-42.5 21.5q-55 0 -105.5 -56t-89.5 -135t-61.5 -165t-22.5 -146z" />
<glyph unicode="X" horiz-adv-x="1251" d="M0 139q0 14 12 15q6 0 19.5 -13.5t37 -31t57.5 -30.5t81 -13q94 0 183 63.5t168 152.5t147.5 183t123.5 156q-20 92 -38.5 191t-47 182t-73.5 136.5t-119 53.5q-51 0 -79 -6.5t-52 -20.5q-29 -18 -46.5 -36.5t-26.5 -35t-14 -26.5t-9 -10q-10 0 -11 12q0 14 14.5 41.5 t44 53.5t76 45.5t109.5 19.5q88 0 150.5 -52.5t103.5 -123t61.5 -140t26.5 -104.5q4 -16 5 -33.5t11 -17.5q8 0 35 34.5t68 87t93 114t110.5 113.5t121 87t123.5 35q20 0 46 -6.5t46.5 -16.5t35 -21.5t14.5 -23.5q0 -6 -11 -6q-10 0 -34.5 16.5t-87.5 16.5q-80 0 -159 -57.5 t-149.5 -138.5t-131 -167t-105.5 -141q6 -25 17 -76t23.5 -114.5t27 -133t28.5 -130t28.5 -104.5t24.5 -57q33 -25 54 -24q16 0 24 -2t8 -12q0 -14 -12 -18.5t-25 -4.5q-10 0 -27.5 2t-35.5 3t-34.5 3t-20.5 2q-6 0 -18.5 -2t-27 -3t-27.5 -3t-19 -2q-45 0 -46 16 q0 14 6.5 17.5t12.5 3.5q39 0 39 47q0 2 -5 38t-13.5 86t-18.5 108.5t-20.5 107.5t-17.5 82t-11 33q-6 0 -19.5 -14.5t-31 -38t-39 -50t-43.5 -51.5q-41 -47 -95.5 -112.5t-119 -126t-140 -103.5t-159.5 -43q-33 0 -71 6t-56 21q-35 27 -52.5 57.5t-17.5 54.5z" />
<glyph unicode="Y" horiz-adv-x="1251" d="M-27 -147q0 27 5.5 46t15.5 19q12 0 16 -12q4 -8 2 -20.5t-2 -28.5q0 -82 55.5 -137.5t147.5 -55.5q131 0 250 67.5t219 175t181 238.5t139.5 259t91 238t36.5 171h-4q-25 -51 -57.5 -119.5t-74.5 -141.5t-91 -142.5t-106.5 -125t-121 -89t-132.5 -33.5q-70 0 -119 25.5 t-80 68.5t-45 99.5t-14 117.5q0 94 25.5 181t66.5 168t92 157.5t104 148.5l-4 7q-55 -16 -108 -35t-113 -19q-25 0 -59.5 6.5t-67.5 12.5t-60.5 12t-39.5 6q-41 0 -66.5 -20.5t-25.5 -73.5q0 -8 4 -17.5t4 -19.5t-19 -10q-12 0 -19 23.5t-7 46.5q0 41 16.5 70.5t43 49 t61 28.5t71.5 9q39 0 74 -6t68.5 -12t69.5 -12.5t77 -6.5q37 0 65.5 6.5t51.5 12.5q23 8 37 13t22 5q10 0 10 -12q0 -2 -40.5 -55.5t-89 -144.5t-89.5 -213t-41 -259q0 -47 11.5 -97t35 -91t60.5 -68.5t88 -27.5q25 0 55.5 7t59.5 23q41 25 91 79t99 126t95 155t82 161.5 t57.5 148.5t21.5 117q0 53 -10 87t-10 42t7 9t11 1q41 -59 62.5 -142t21.5 -153q0 -90 -20.5 -192.5t-58.5 -208t-91 -212t-121 -202.5t-152.5 -179t-180 -144.5t-192.5 -96.5t-190 -35q-49 0 -96 14.5t-83 43t-57.5 70.5t-21.5 98z" />
<glyph unicode="Z" horiz-adv-x="1366" d="M68 27q0 2 22.5 24.5t52 53t60 64.5t47.5 60q104 176 209.5 310.5t212 239t213 187.5t211.5 154l-2 8q-29 -4 -81 -10t-100 -6q-74 0 -136 11.5t-118 27.5q-55 16 -107 28.5t-106 12.5q-63 0 -112 -29.5t-49 -101.5q0 -53 17 -82t17 -35q0 -10 -10 -10q-16 0 -27.5 15.5 t-19.5 36t-11 41t-3 32.5q0 55 24.5 93t64.5 62.5t89 36t96 11.5q68 0 134.5 -15.5t131.5 -36.5q66 -20 129.5 -36.5t129.5 -16.5q59 0 86.5 13.5t44.5 13.5q18 0 18 -19q0 -8 -19.5 -23.5t-31.5 -25.5q-150 -111 -265.5 -243t-219 -267t-207 -265.5t-228.5 -236.5l2 -6 q49 12 102.5 22.5t106.5 10.5q57 0 111.5 -7t107.5 -18q55 -10 109.5 -23t109.5 -13q72 0 136.5 23.5t114 67.5t78 106.5t28.5 138.5q0 68 -20.5 108.5t-20.5 48.5q0 14 12 15q16 0 41 -50.5t25 -124.5q0 -100 -38 -175.5t-103.5 -126t-154.5 -76t-192 -25.5 q-100 0 -163.5 8t-114.5 17q-53 8 -105.5 16t-132.5 8q-31 0 -62.5 -5t-58 -11t-44 -11.5t-19.5 -5.5q-12 0 -12 11z" />
<glyph unicode="[" horiz-adv-x="909" d="M-51 -416l764 1620q139 4 231 14.5t107 10.5q12 0 12 -12q0 -14 -35 -25.5t-80 -20t-89 -14.5t-60 -10l-709 -1499q31 -6 76 -13.5t86 -15.5t69.5 -19.5t28.5 -23.5q0 -10 -16 -10q-8 0 -30.5 3t-68 6t-116 6t-170.5 3z" />
<glyph unicode="\" horiz-adv-x="569" d="M-121 1262h53l760 -1262h-53z" />
<glyph unicode="]" horiz-adv-x="909" d="M-154 -422q0 14 35 25.5t80 19.5t89 14.5t61 10.5l708 1499q-31 6 -76 13t-86 15.5t-69.5 19.5t-28.5 24q0 10 16 10q8 0 31 -3t68 -6t115 -5.5t172 -2.5l-764 -1622q-139 -4 -231.5 -14t-106.5 -10q-12 0 -13 12z" />
<glyph unicode="^" horiz-adv-x="1228" d="M307 225l277 594h61l277 -594h-66l-242 520l-241 -520h-66z" />
<glyph unicode="_" horiz-adv-x="1024" d="M0 -154h1024v-102h-1024v102z" />
<glyph unicode="`" horiz-adv-x="454" d="M106 963q0 23 16.5 40t33.5 17q33 0 50 -20.5t26.5 -48t15.5 -58.5t16 -51q20 -45 48 -75t52.5 -49.5t41 -30.5t16.5 -17q0 -14 -14 -15q-12 0 -61.5 28t-103 71t-95.5 98.5t-42 110.5z" />
<glyph unicode="a" horiz-adv-x="796" d="M10 174q0 74 53.5 143.5t133 124t174 87t178.5 32.5q66 0 118 -6t81 -29q-25 -37 -62 -93t-71.5 -117.5t-59.5 -121t-25 -102.5q0 -18 9.5 -36.5t31.5 -18.5q29 0 44.5 13t22.5 29.5t11 30t10 13.5q8 0 12.5 -1t4.5 -11q0 -18 -6 -34t-27 -40q-10 -14 -20.5 -21.5 t-23.5 -10.5t-31.5 -4t-45.5 -1h-153q-14 0 -15 8q0 10 2 14.5t4 14.5q-39 -23 -74.5 -30t-78.5 -7q-92 0 -144.5 38t-52.5 136zM137 184q0 -59 30 -93t91 -34q49 0 84 18.5t57.5 45t36 55.5t23.5 51q41 102 81 165t76 124q-20 8 -41 8q-57 0 -132.5 -28.5t-143.5 -76.5 t-115 -110t-47 -125z" />
<glyph unicode="b" horiz-adv-x="796" d="M-4 139q0 14 11 32.5t30.5 50.5t48.5 84t66 134q35 80 61.5 138.5t50 106.5t49 92t58.5 97q31 47 74.5 104.5t99 108t121 84t137.5 33.5q35 0 66.5 -10t55 -27.5t38 -38t14.5 -41.5q0 -16 -10 -16q-6 0 -13.5 15.5t-25 33t-47 32.5t-78.5 15q-59 0 -112.5 -34.5 t-100.5 -91t-88 -127t-76 -141.5t-64.5 -135.5t-54.5 -107.5h4q37 23 80 33t90 10q39 0 78 -12t67.5 -34.5t47 -56.5t18.5 -79t-15 -89t-42 -83t-59.5 -73.5t-69.5 -61.5t-66.5 -43t-62.5 -25.5t-70 -12.5t-88 -3q-37 0 -77 13.5t-71.5 34t-53 45t-21.5 46.5zM82 82 q0 -14 37 -29.5t78 -15.5q63 0 130.5 34.5t123 90t91.5 122.5t36 130t-35 93t-97 30q-47 0 -81.5 -18.5t-62.5 -47.5t-48.5 -64.5t-36.5 -72.5q-37 -84 -63.5 -129t-42 -69.5t-22.5 -34t-7 -19.5z" />
<glyph unicode="c" d="M10 231q0 74 32 137.5t84 108.5t119.5 70.5t141.5 25.5q59 0 93 -8t67 -8q23 0 35 8t26 8q20 0 26.5 -29.5t6.5 -49.5q0 -45 -30.5 -84t-80.5 -39q-23 0 -48 7t-25 30q0 10 8 15t18 5q14 0 33 21.5t19 44.5q0 25 -26 34t-101 9q-53 0 -103.5 -25t-90.5 -64.5t-64.5 -91 t-24.5 -102.5q0 -35 11 -69.5t32.5 -63.5t51.5 -46.5t69 -17.5q55 0 101 26t79 55.5t53.5 55t24.5 25.5t8 -2t4 -8q0 -18 -18.5 -37.5t-65.5 -69.5q-51 -53 -102 -77.5t-129 -24.5q-104 0 -169 63.5t-65 167.5z" />
<glyph unicode="d" horiz-adv-x="796" d="M18 211q0 74 36 143.5t93.5 122.5t130 85t144.5 32q45 0 92 -18.5t72 -59.5q29 68 61.5 150t71.5 164.5t81 159.5t89 132q29 35 66.5 60.5t84.5 25.5q12 0 29.5 -4t35 -12t30 -20.5t12.5 -26.5q0 -12 -10 -12q-6 0 -30 19t-65 19q-49 0 -83.5 -38.5t-64.5 -109.5 t-62.5 -171t-79.5 -221q-45 -117 -84 -216.5t-80 -177t-89 -132t-114 -82.5q-51 -23 -115 -23q-104 0 -178 51t-74 160zM133 172q0 -72 30 -103.5t101 -31.5q37 0 73 28.5t67.5 71.5t58 95.5t46 101.5t30 86t10.5 51q0 45 -31 61.5t-67 16.5q-63 0 -121 -37t-102 -92 t-69.5 -122t-25.5 -126z" />
<glyph unicode="e" d="M14 223q0 82 52.5 150.5t130 118t167 76t162.5 26.5q39 0 70 -20.5t31 -67.5q0 -23 -11.5 -50.5t-30 -56t-43 -56.5t-50.5 -46q-61 -43 -129 -59.5t-134 -16.5q-20 0 -42.5 2t-41.5 6q0 -37 16.5 -67.5t42 -54t57.5 -37t61 -13.5q66 0 111.5 19.5t68.5 36.5 q14 10 23.5 18t19.5 8t10 -12q0 -10 -16.5 -25.5t-37 -29t-40 -24.5t-25.5 -13q-49 -25 -89 -30t-89 -5t-94 15.5t-78 44t-52.5 69.5t-19.5 94zM141 268q16 -2 32.5 -6t35.5 -4q61 0 109.5 16.5t87.5 47.5q43 35 74.5 76.5t31.5 82.5q0 37 -28.5 46.5t-59.5 9.5 q-43 0 -93 -25t-92 -62.5t-70 -86t-28 -95.5z" />
<glyph unicode="f" horiz-adv-x="454" d="M-356 -516q0 8 6 13t12 9q88 68 157.5 178.5t123 235.5t93 245t68.5 206q20 59 51 144t71 178t88 184.5t103.5 164t117 117.5t129.5 45q20 0 44.5 -6t46 -18.5t35 -31t13.5 -42.5q0 -16 -12.5 -30.5t-28.5 -14.5q-29 0 -38 16.5t-16.5 37t-22.5 36.5t-54 16 q-41 0 -81 -41t-77 -105.5t-69.5 -141t-59.5 -150.5t-47.5 -134t-34.5 -89l4 -4q10 16 38 29.5t48 13.5q74 0 74 -74q0 -18 -14.5 -33.5t-32.5 -15.5q-16 0 -22.5 3t-10.5 7t-8 7t-12 3q-23 0 -48.5 -18t-46.5 -25q-43 -117 -91 -257t-132 -289q-31 -53 -78 -119t-98 -123 t-98 -96t-76 -39q-14 0 -14 8z" />
<glyph unicode="g" horiz-adv-x="796" d="M-246 -461q0 10 17 10q4 0 11 -8t21.5 -19t38 -19.5t58.5 -8.5q31 0 47 3t45 18q51 25 107.5 90t108.5 143t95 157t68 130l-4 4q-31 -25 -67 -32t-77 -7q-76 0 -133 40t-57 124q0 104 55 181t140 127t184.5 75.5t185.5 25.5q41 0 76 -8t55 -8t34.5 6t22.5 6q6 0 7 -10 q0 -4 -4.5 -9t-17.5 -21.5t-37.5 -48t-63.5 -85.5q-39 -53 -72 -125.5t-69.5 -156.5t-86 -179.5t-123.5 -195.5q-29 -41 -70.5 -89t-94 -91t-116 -72t-134.5 -29q-70 0 -110 30t-40 52zM147 162q0 -53 34 -85t85 -32q37 0 66.5 17.5t54.5 43t43.5 57.5t30.5 62q41 96 98 168 t135 129q-23 6 -46 10.5t-48 4.5q-70 0 -149.5 -30t-147 -81t-112 -119.5t-44.5 -144.5z" />
<glyph unicode="h" horiz-adv-x="909" d="M-127 39q0 16 14 16q4 0 13.5 -9t31.5 -9q20 0 40 16.5t37.5 40t32.5 51t30 52.5q39 66 93 167t119.5 214.5t141.5 228.5t157 207t164.5 149.5t167.5 57.5q66 0 109 -47.5t43 -110.5q0 -6 -6 -9t-12 -3t-12.5 3t-6.5 9q0 14 -4 34.5t-17.5 40t-36 33t-59.5 13.5 q-63 0 -125.5 -47t-122 -121t-114.5 -164t-103.5 -178t-87 -164t-65.5 -119l4 -4q39 27 82 59.5t90 61.5t96.5 47t100.5 18q59 0 95 -38.5t36 -96.5q0 -47 -28 -101t-60.5 -106.5t-60 -94.5t-27.5 -62q0 -37 30 -37q29 0 45.5 19.5t20.5 19.5t10 -1t6 -9q0 -20 -35.5 -43 t-87.5 -23q-29 0 -58.5 4t-57.5 4q-25 0 -48.5 -3t-46.5 -3q-47 0 -47 23q0 10 6.5 11t14.5 1q31 0 49 6t41 33q39 43 79 102.5t72.5 116.5t54 105.5t21.5 68.5q0 31 -12 49.5t-47 18.5q-78 0 -163 -55.5t-156.5 -132.5t-117.5 -155.5t-46 -125.5q0 -18 10 -24.5t26 -6.5 q14 0 28.5 9t27 19.5t22.5 19.5t19 9q8 0 8 -12q0 -25 -39 -54.5t-90 -29.5q-35 0 -58.5 3t-46.5 3q-27 0 -52 -2t-60 -2q-37 0 -54.5 14.5t-17.5 24.5z" />
<glyph unicode="i" horiz-adv-x="454" d="M-76 14q0 10 15.5 16.5t40.5 6.5q20 0 49.5 42t63.5 104.5t71 133t74 129.5q-27 -4 -59 -14t-50 -10q-10 0 -10 10q0 14 18 23q16 6 56 23.5t83 35.5t78 32.5t41 14.5q16 0 17 -18q0 -8 -4.5 -13.5t-8.5 -13.5q-106 -193 -168.5 -299t-62.5 -129q0 -18 11 -34.5t32 -16.5 q10 0 17.5 5t17.5 5q14 0 14 -8q0 -14 -10 -21.5t-24.5 -11.5t-30 -5t-25.5 -1q-27 0 -52.5 4t-51.5 4q-23 0 -47.5 -4t-49.5 -4q-29 0 -37 1t-8 13zM428 834q0 25 19.5 46t48.5 21t48 -21.5t19 -45.5q0 -25 -19.5 -46.5t-47.5 -21.5q-29 0 -48.5 21.5t-19.5 46.5z" />
<glyph unicode="j" horiz-adv-x="454" d="M-350 -471q0 23 24 22q6 0 25.5 6.5t49.5 30t67 72.5t80 135q63 129 114 231.5t98.5 188.5t94.5 158.5t102 144.5l-4 4q-25 -8 -56.5 -21.5t-60 -25.5t-51 -21.5t-24.5 -9.5q-12 0 -13 17q0 6 41 27.5t91.5 45t94.5 42t52 18.5q14 0 14 -10q0 -8 -19.5 -39t-47 -78 t-58.5 -107.5t-55 -130.5q-53 -154 -130 -303t-202 -291q-10 -12 -32.5 -32.5t-52.5 -40t-62.5 -33.5t-63.5 -14q-16 0 -16 14zM446 854q0 25 19.5 46.5t48.5 21.5t48.5 -21.5t19.5 -46.5t-19.5 -46.5t-48.5 -21.5t-48.5 21.5t-19.5 46.5z" />
<glyph unicode="k" horiz-adv-x="796" d="M-119 20q0 10 15.5 13.5t37.5 3.5q25 0 57 34.5t60.5 78t51 82t28.5 49.5q86 160 151.5 283.5t125 222t121 175t137.5 142.5q45 39 86 61.5t100 22.5q47 0 86 -32t38 -83q0 -12 -7 -12q-10 0 -12.5 14.5t-16.5 38.5q-16 14 -36.5 25.5t-55.5 11.5q-61 0 -115.5 -48 t-100.5 -112.5t-79 -128t-51 -94.5q-43 -72 -83 -157t-79 -169l4 -4q57 45 121.5 84t142.5 39q47 0 81 -23.5t34 -76.5q0 -47 -28.5 -83t-70.5 -60.5t-89.5 -40t-85.5 -23.5q2 -12 7 -48t14 -73t23.5 -66.5t36.5 -29.5q12 0 20.5 6t15.5 14.5t14.5 16.5t19.5 10 q8 -16 4 -31.5t-17.5 -30t-30.5 -22.5t-32 -8q-14 0 -32.5 8t-47.5 8q-18 0 -36.5 -4t-24.5 -4q-8 0 -8 14q0 6 2 16.5t2 18.5q0 59 -16.5 118.5t-34.5 123.5q47 0 96 6t90 23.5t67.5 49t26.5 85.5q0 29 -12 45t-41 16q-43 0 -87 -24.5t-83 -61.5t-71.5 -78t-57.5 -73 q-12 -16 -30.5 -44t-35 -59t-28.5 -59.5t-12 -48.5q0 -10 5 -20.5t17 -10.5q20 0 33.5 8t23 17.5t15.5 17.5t12 8q8 0 8 -14q0 -8 -8 -20.5t-21.5 -25t-32 -20.5t-38.5 -8q-47 0 -68.5 4t-44.5 4q-25 0 -49.5 -4t-50.5 -4q-70 0 -70 20z" />
<glyph unicode="l" horiz-adv-x="454" d="M-88 29q0 12 20 12q4 0 14.5 -2t26.5 -2q27 0 54 26q18 20 44.5 73.5t56.5 125.5t62.5 156t65.5 167t63.5 157.5t57.5 125.5q25 49 54.5 107.5t66.5 110t81 85t99 33.5q20 0 42.5 -7t41 -19.5t31 -28.5t12.5 -35q0 -16 -12 -16q-6 0 -12.5 11t-18.5 23.5t-31.5 23.5 t-50.5 11q-41 0 -75 -34.5t-58.5 -80.5t-39.5 -92.5t-24 -68.5q-25 -74 -56.5 -158t-64 -169t-63.5 -165t-55.5 -145.5t-40 -111.5t-15.5 -60q0 -23 7.5 -34t37.5 -11q8 0 15.5 2t13.5 2q10 0 10 -8q0 -23 -26.5 -28t-46.5 -5q-25 0 -49.5 3t-49.5 3q-27 0 -52 -4 q-17 -3 -34 -3q-9 0 -18 1h-20.5t-29 3t-24.5 9t-10 17z" />
<glyph unicode="m" horiz-adv-x="1138" d="M-109 18q0 10 10.5 14.5t26.5 4.5q23 0 53.5 34.5t68.5 96t83 144.5t94 180q-25 -4 -55.5 -11.5t-40.5 -7.5q-8 0 -9 4t-1 8q0 8 34.5 21.5t77.5 26t80 20.5t41 8q12 0 13 -12q0 -10 -10.5 -30.5t-14.5 -39.5l4 -4q12 12 34.5 29.5t48.5 33t55.5 25.5t58.5 10 q45 0 71.5 -33.5t42.5 -86.5q45 41 103.5 80.5t124.5 39.5q72 0 110.5 -40.5t38.5 -112.5q0 -55 -34.5 -111.5t-76.5 -103.5t-77 -79t-35 -34q0 -10 15.5 -14t39.5 -4q59 0 85 18.5t32 18.5q12 0 12 -11q0 -10 -11 -27.5t-30.5 -33.5t-44 -27.5t-51.5 -11.5q-41 0 -57.5 8 t-44.5 8q-12 0 -26.5 -2t-22.5 -2t-9 11q0 8 35 42.5t76 87t76 114.5t35 128q0 47 -21.5 80t-75.5 33q-41 0 -79.5 -29.5t-72.5 -71.5t-61.5 -87.5t-46.5 -73.5q-10 -14 -25.5 -38t-30.5 -49.5t-26.5 -51t-11.5 -44.5q0 -16 12.5 -21t24.5 -5q20 0 40.5 16.5t33.5 16.5 q4 0 8 -2t4 -9q0 -14 -13.5 -25t-32 -18.5t-39 -11.5t-32.5 -4q-25 0 -48.5 6t-47.5 6q-18 0 -34.5 -6t-33.5 -6q-14 0 -14 14q0 12 14.5 27.5t18.5 21.5q31 39 68.5 98.5t71.5 120t57.5 110.5t23.5 73q0 59 -53 59q-23 0 -50.5 -15t-55 -37.5t-54.5 -49.5t-47 -51 q-16 -18 -43 -57.5t-53.5 -84.5t-46 -87t-19.5 -68q0 -29 18 -29q16 0 28.5 12.5t23.5 12.5q12 0 12 -11q0 -16 -30.5 -37.5t-65.5 -21.5q-39 0 -71 6t-71 6q-12 0 -24 -3t-29 -3q-6 0 -17.5 1t-11.5 11z" />
<glyph unicode="n" horiz-adv-x="796" d="M-98 8q0 8 11 18.5t28 10.5q33 0 52 19.5t32 43.5q51 94 97 186.5t95 186.5q-25 -4 -55.5 -14t-52.5 -10q-10 0 -11 10q0 6 17.5 15t46 19.5t66.5 23.5t79 30q12 4 22.5 9t18.5 5q12 0 12 -14q0 -12 -10 -32.5t-14 -39.5q18 14 46 30.5t59.5 32t63.5 25.5t54 10 q66 0 107 -33.5t41 -101.5q0 -63 -34 -123.5t-76 -109.5t-76 -82t-34 -41q0 -14 17.5 -19.5t42.5 -5.5q23 0 37 7.5t24 7.5q16 0 17 -9q0 -18 -28 -40.5t-71 -22.5q-27 0 -48 4t-42 4q-14 0 -23.5 -4t-19.5 -4q-23 0 -22 12q0 14 15 30.5t32 33.5q23 23 53.5 63.5t57 90 t45 100.5t18.5 94q0 45 -17.5 68.5t-64.5 23.5q-53 0 -100.5 -31.5t-87 -78t-70.5 -98.5t-53 -93q-8 -14 -19.5 -34.5t-23 -42t-18.5 -42t-7 -37.5q0 -23 23 -22q18 0 31.5 17.5t23.5 17.5q14 0 14 -17q0 -10 -12 -19t-27.5 -17.5t-32 -13.5t-22.5 -5q-41 0 -63.5 4t-34.5 4 q-18 0 -47 -4t-54 -4q-10 0 -19 1t-9 7z" />
<glyph unicode="o" d="M8 205q0 88 37 154.5t94.5 111.5t123 67.5t124.5 22.5q51 0 91 -17.5t65.5 -46t39 -65.5t13.5 -76q0 -96 -37 -163.5t-94 -110.5t-124 -62.5t-124 -19.5q-53 0 -92 17.5t-64.5 46t-39 65.5t-13.5 76zM94 156q0 -51 23.5 -85t93.5 -34q55 0 109.5 39t96.5 95t67.5 120.5 t25.5 114.5q0 51 -23.5 84.5t-93.5 33.5q-55 0 -109.5 -39t-96.5 -95t-67.5 -120.5t-25.5 -113.5z" />
<glyph unicode="p" horiz-adv-x="796" d="M-303 -436q0 6 13.5 16t23.5 21q47 37 85 84t68.5 101t57 112.5t49.5 117.5q47 117 96 231.5t111 225.5q-27 -4 -54.5 -13t-50.5 -9q-4 0 -7 6t-3 12t38 20.5t84 28.5t86 24.5t46 10.5q8 0 12 -9t8 -20q33 18 68 33.5t72 15.5q47 0 84 -18t62.5 -49t38.5 -71t13 -85 q0 -68 -31.5 -130t-84 -111.5t-117 -79t-129.5 -29.5q-66 0 -111 16.5t-80 73.5q-37 -90 -84 -171t-99 -147.5t-108.5 -118.5t-111.5 -85q-25 -16 -35 -17q-10 0 -10 13zM182 135q0 -27 12.5 -45t31 -30.5t42 -17.5t45.5 -5q55 0 104.5 42t86.5 102.5t58.5 127t21.5 113.5 q0 53 -23.5 84t-77.5 31q-39 0 -76.5 -24t-70.5 -61.5t-61.5 -83.5t-49 -91.5t-32 -83t-11.5 -58.5z" />
<glyph unicode="q" horiz-adv-x="796" d="M23 135q0 98 52 179t135 138.5t187.5 89t208.5 31.5q61 0 122.5 -2t88.5 -2l6 -8q-96 -106 -198.5 -240.5t-190.5 -278.5t-151.5 -288.5t-81.5 -269.5q-4 -31 -9.5 -59.5t-27.5 -28.5q-8 0 -13.5 10t-7.5 25.5t-3 33t-1 31.5q0 156 46 284t120 261h-4 q-35 -18 -70.5 -27.5t-76.5 -9.5q-53 0 -92 40t-39 91zM137 158q0 -47 17.5 -74t68.5 -27q55 0 99.5 40t74.5 91q57 94 126 179.5t134 164.5q-10 2 -21 3.5t-26 1.5q-39 0 -86 -5.5t-90 -23.5q-47 -20 -99 -56t-96 -83t-73 -101.5t-29 -109.5z" />
<glyph unicode="r" d="M-119 16q0 20 49 21q37 0 59.5 26.5t45.5 63.5q12 20 31.5 58t46 87.5t59.5 107.5t72 118q-23 -4 -47.5 -15.5t-42.5 -11.5q-12 0 -13 16q0 6 30 18.5t69 25t76.5 21.5t54.5 9q25 0 24 -10q0 -14 -17.5 -31.5t-29.5 -46.5l4 -4q41 39 104.5 65.5t121.5 26.5 q47 0 75.5 -21.5t28.5 -68.5q0 -49 -29.5 -72.5t-74.5 -23.5q-37 0 -37 16q0 6 13 28.5t13 45.5q0 20 -12 35.5t-41 15.5q-41 0 -85 -25.5t-87 -65.5t-81 -90t-66.5 -99.5t-46 -92t-17.5 -67.5q0 -18 6 -28.5t29 -10.5q20 0 31.5 4t17.5 9t10 9t15 4q8 0 8 -14t-25.5 -31.5 t-60.5 -17.5q-49 0 -76 4t-49 4q-25 0 -50.5 -4t-60.5 -4q-45 0 -45 16z" />
<glyph unicode="s" horiz-adv-x="569" d="M-41 137q0 18 9 37t32 19q29 0 41 -26t12 -48q0 -12 -4 -24.5t-4 -22.5q0 -12 13.5 -18.5t30.5 -10.5t34.5 -5t28.5 -1q59 0 99 29.5t40 89.5q0 39 -22.5 76.5t-43.5 66.5q-23 35 -42 69.5t-19 71.5q0 68 43 100.5t106 32.5q20 0 51 -7t58 -21.5t46 -35.5t19 -48 q0 -41 -43 -41q-27 0 -41 16.5t-21 36t-11 36.5t-11 19q-10 4 -20 6.5t-25 2.5q-33 0 -53 -15.5t-20 -48.5q0 -23 23.5 -57.5t51.5 -75.5q29 -41 52.5 -85t23.5 -89q0 -41 -19.5 -72t-50 -52.5t-68.5 -31.5t-75 -10q-33 0 -53.5 1t-35.5 4t-29.5 10.5t-34.5 19.5 q-23 12 -45.5 44t-22.5 58z" />
<glyph unicode="t" horiz-adv-x="454" d="M-37 10q0 6 14 25q23 33 50.5 81t55.5 100t53.5 104.5t45 95.5t30.5 70.5t11 29.5q0 4 -11 7t-24.5 4t-24.5 3t-11 7q0 10 6 13l14 7q39 16 76 52t67.5 78t55 85t41.5 74q6 12 24.5 37.5t40 51.5t41 45t29.5 19t10 -8t-7 -12t-18 -18q-25 -35 -48 -84.5t-46.5 -103.5 t-46 -110.5t-41.5 -105.5q35 0 65.5 -3t30.5 -9q0 -14 -25.5 -18.5t-84.5 -6.5q-45 -117 -105.5 -231.5t-158.5 -200.5q27 -2 51 -8t51 -6q12 0 26.5 3t20.5 3q8 0 8 -12q0 -29 -33.5 -48.5t-74.5 -19.5q-29 0 -49.5 7t-53.5 7q-23 0 -33 -7t-14 -7q-8 0 -8 10z" />
<glyph unicode="u" horiz-adv-x="796" d="M33 137q0 45 16.5 87t41 84t51 81t44.5 78q-6 0 -19 -5t-28.5 -10.5t-30 -9.5t-22.5 -4q-10 0 -10 17q0 6 38 21.5t83 32.5t83.5 30.5t41.5 13.5q14 0 14 -14t-31 -64.5t-67.5 -112t-67.5 -123t-31 -94.5q0 -49 19.5 -78.5t60.5 -29.5q53 0 91 17.5t67 46t52.5 68.5 t47.5 83q29 51 57.5 107.5t59.5 109.5q-10 -2 -38 -9t-38 -7t-10 12q0 4 29.5 18.5t66.5 29.5t72 27.5t45 12.5q16 0 16 -10q0 -6 -5 -13.5t-9 -17.5q-12 -31 -47 -95.5t-71 -133t-64.5 -128t-28.5 -79.5q0 -27 13.5 -33t31.5 -6q8 0 15.5 2t15.5 2q16 0 16 -12 q0 -10 -17.5 -19.5t-39.5 -9.5q-47 0 -71.5 6t-53.5 6q-18 0 -29.5 -6t-25.5 -6q-10 0 -11 10q0 10 7.5 21.5t13.5 21.5l-4 4q-45 -31 -84 -44t-96 -13q-66 0 -113 33t-47 104z" />
<glyph unicode="v" d="M29 172q0 49 14 91t37.5 79t53.5 70.5t61 68.5l-5 4q-6 -2 -27.5 -9t-29.5 -7q-6 0 -13 2t-7 6q0 8 24.5 22.5t55 28t59.5 23.5t35 10q16 0 16 -8q0 -6 -26.5 -47t-57.5 -100.5t-57.5 -127t-26.5 -126.5q0 -115 115 -115q66 0 118 47t89 113.5t56 141.5t19 130 q0 70 -6 92.5t-6 28.5q0 12 6 12t18.5 -17.5t25 -45t20.5 -62.5t8 -69q0 -72 -31.5 -145t-84 -131t-120 -95t-141.5 -37q-78 0 -135 43t-57 129z" />
<glyph unicode="w" horiz-adv-x="909" d="M0 137q0 49 17.5 94t44 86t57.5 80t59 76q18 25 19 29q0 14 -21 14q-6 0 -22 -8q-10 -10 -21 -10q-10 0 -10 12q0 25 28.5 34t47.5 9q23 0 44 -4t44 -4q20 0 39.5 5t27.5 5q10 0 11 -10q0 -6 -10.5 -15.5t-20.5 -19.5q-31 -31 -73 -86t-81 -116.5t-66.5 -122 t-27.5 -101.5q0 -23 10 -35t39 -12q31 0 60.5 14.5t56.5 37t49.5 49t40.5 52.5q68 129 100.5 210t32.5 94q0 6 -3 14t-17 8q-16 0 -26.5 -10t-19 -21.5t-13.5 -21.5t-9 -10q-10 0 -10 12q0 53 43 70.5t98 17.5q27 0 45.5 3t30.5 7t19.5 7t15.5 3q6 0 6 -14 q0 -10 -12.5 -27.5t-26.5 -48.5q-37 -82 -66.5 -141t-49 -105.5t-31 -83t-11.5 -73.5q0 -16 5.5 -29.5t19.5 -13.5q78 0 139.5 48t104.5 118.5t66.5 151.5t23.5 147q0 18 -3 44.5t-3 31.5q0 8 8 8q14 0 32.5 -39t18.5 -105q0 -74 -35 -152.5t-90 -143t-125 -105.5t-139 -41 q-59 0 -88 27.5t-41 87.5q-35 -45 -86 -80t-111 -35q-135 0 -135 137z" />
<glyph unicode="x" d="M-86 51q0 14 12.5 24.5t24.5 10.5q14 0 22.5 -8t15.5 -17.5t16 -16.5t28 -7q27 0 62.5 25.5t72.5 61.5t68.5 71.5t48.5 56.5q-8 31 -16.5 79t-23 94t-39 79t-65.5 33q-23 0 -39 -6.5t-26 -12.5q-12 -8 -19.5 -14t-11.5 -6q-8 0 -8 12q0 8 12 19.5t29.5 21.5t38 16t37.5 6 q47 0 81.5 -19t59 -52t41 -73t26.5 -79q27 27 59 64t67.5 69.5t72.5 55t74 22.5t37 -10t-23.5 -10t-50.5 -17q-25 -16 -56.5 -40.5t-62 -52.5t-58.5 -58.5t-48 -57.5q4 -23 11 -60.5t17.5 -78.5t22.5 -75.5t29 -51.5q6 -6 16 -7t18 -1q10 0 19.5 4t19.5 4q12 0 13 -8 q0 -14 -27 -27.5t-63 -13.5q-23 0 -55 6t-44 6q-10 0 -22.5 -5t-16.5 -5q-10 0 -10 10q0 6 3 9.5t6 9.5t6 16t3 31q0 35 -9 67.5t-15 67.5q-29 -31 -61.5 -67.5t-70.5 -68.5t-80 -54.5t-87 -22.5q-29 0 -55.5 7t-26.5 44z" />
<glyph unicode="y" horiz-adv-x="796" d="M-342 -465q0 12 10 12q6 0 13.5 -15t22.5 -32.5t43 -33t75 -15.5q57 0 117.5 40t119 104.5t113.5 144.5t104.5 158.5t90 148.5t67.5 113h-4q-55 -45 -91 -76t-66.5 -49.5t-61.5 -26.5t-74 -8q-51 0 -79.5 22.5t-28.5 75.5q0 45 18.5 92.5t46 93.5t58 89t53.5 80 q-23 -4 -49.5 -17.5t-42.5 -13.5q-12 0 -13 10q0 10 18.5 22.5t90.5 39.5q20 8 42.5 18t44 20.5t39 17.5t27.5 7q14 0 15 -10q0 -6 -17.5 -36t-45 -72t-58.5 -91t-58.5 -97t-45 -89t-17.5 -66q0 -23 12.5 -41t36.5 -18q39 0 95.5 40t118 99.5t124 129t114.5 129t88 99 t44 39.5q14 0 14 -10t-20.5 -35.5t-52 -70.5t-72.5 -111.5t-82 -159.5q-31 -70 -75 -153.5t-97 -169.5t-116.5 -167t-135.5 -143.5t-150.5 -100.5t-162.5 -38q-29 0 -57.5 11.5t-51 28t-37 38t-14.5 43.5z" />
<glyph unicode="z" d="M-2 18q0 14 12.5 24.5t22.5 18.5q29 23 52.5 47.5t45.5 53.5q43 47 94 101t103.5 102.5t100.5 85t83 49.5l-4 4q-27 0 -54.5 5t-56.5 11q-29 4 -54.5 6t-47.5 2q-63 0 -110.5 -25.5t-90.5 -68.5l-9 -9t-13 -5q-6 0 -6 6q0 14 18 38.5t49 46t72 38t86 16.5q35 0 63.5 -4 t51.5 -10t41 -8t30 -2q49 0 73.5 4t39.5 4q14 0 14 -12q0 -8 -18 -23q-31 -29 -70 -79t-90 -108.5t-114.5 -116.5t-145.5 -99v-5q59 0 95 -5t65 -11q27 -6 48 -11t48 -5q35 0 53.5 13t28.5 30.5t15 31t13 13.5q10 0 11 -15q0 -12 -8.5 -36.5t-23.5 -49t-38.5 -43 t-56.5 -18.5q-41 0 -76 5t-66 11t-59.5 11.5t-60.5 5.5q-43 0 -70 -4t-42 -9.5t-21.5 -9.5t-10.5 -4q-12 0 -12 12z" />
<glyph unicode="{" horiz-adv-x="796" d="M-41 -338q-4 29 8.5 71t34.5 91l160 346q16 39 26.5 72.5t6.5 58.5q-4 31 -24.5 52.5t-68.5 35.5q53 14 92 32.5t68 44.5t51.5 61.5t44.5 82.5l156 342q39 86 84 139.5t94 82t103.5 38t113.5 9.5l-10 -21q-111 -23 -172 -81t-106 -156l-146 -324q-25 -53 -49.5 -93 t-56 -70t-73.5 -51.5t-101 -33.5h-2v-4q94 -23 100 -90q4 -29 -8.5 -65.5t-36.5 -90.5l-150 -327q-16 -39 -30.5 -75t-10.5 -65q4 -43 29 -64.5t76 -31.5l-8 -20q-84 0 -137.5 23.5t-57.5 80.5z" />
<glyph unicode="|" horiz-adv-x="454" d="M201 0v1204h53v-1204h-53z" />
<glyph unicode="}" horiz-adv-x="796" d="M-113 -442l11 20q111 23 172 81t106 157l146 323q25 51 49 92t56 71t74 51.5t101 33.5h2v4q-94 23 -100 90q-4 29 8 66t37 90l149 328q16 39 30.5 74.5t10.5 64.5q-4 43 -28.5 64.5t-75.5 31.5l8 21q84 0 137.5 -23.5t57.5 -81.5q4 -29 -8.5 -70.5t-34.5 -91.5l-160 -346 q-16 -39 -26.5 -72.5t-6.5 -58.5q4 -31 24.5 -52.5t67.5 -35.5q-53 -14 -92 -32.5t-68.5 -44t-52 -61.5t-43.5 -83l-155 -342q-41 -86 -85 -139.5t-93.5 -82t-104 -37.5t-113.5 -9z" />
<glyph unicode="~" horiz-adv-x="1228" d="M199 248q29 57 82 106t143 49q47 0 97 -18t102 -41q51 -23 99 -43t85 -20q53 0 90 41t70 90l63 -68q-20 -29 -41.5 -56.5t-48.5 -49t-59.5 -35t-75.5 -13.5q-49 0 -93 17.5t-89 42.5t-95.5 44t-113.5 19q-59 0 -94 -42t-58 -89z" />
<glyph unicode="&#xa1;" horiz-adv-x="454" d="M-6 -440q0 25 32.5 94.5t83 163.5t110 204.5t114.5 221.5q27 53 39 72.5t22 19.5q4 0 6 -1t2 -11t-12 -39t-39.5 -94.5t-75 -176t-114.5 -282.5q-12 -29 -25.5 -67t-29 -71.5t-33.5 -57t-41 -23.5q-16 0 -27.5 13t-11.5 34zM403 506q0 35 20.5 51t47.5 16t47.5 -16 t20.5 -51t-20.5 -51.5t-47.5 -16.5t-47.5 16.5t-20.5 51.5z" />
<glyph unicode="&#xa2;" d="M47 373q0 70 34 133t87 111.5t118.5 76t129.5 27.5q10 0 20 -2t21 -2l65 160h41l-67 -160q20 -4 39.5 -6t37.5 -2q14 0 28.5 2t43.5 2t36 -24.5t7 -59.5q0 -20 -8 -43t-21.5 -41.5t-33 -29.5t-41.5 -11q-8 0 -22.5 1t-28 6t-23.5 12t-10 20q0 12 11 16t25.5 8t25.5 17.5 t11 44.5q0 29 -28.5 36t-63.5 7l-202 -482q23 -10 53 -10q63 0 110 26.5t79 59.5t51.5 59.5t27.5 26.5q16 0 16 -18q0 -8 -3 -14.5t-7 -10.5q-23 -39 -54.5 -75.5t-69.5 -64.5t-82 -45.5t-93 -17.5q-16 0 -31.5 2.5t-29.5 6.5l-80 -193h-43l84 203q-78 27 -119 91.5 t-41 156.5zM162 377q0 -45 23.5 -90t58.5 -74l194 459q-59 -6 -109 -31t-87 -64.5t-58.5 -91t-21.5 -108.5z" />
<glyph unicode="&#xa3;" d="M-106 25q0 12 9 23t24.5 28.5t35 41t39.5 60.5q35 59 57.5 123t42.5 129q-61 0 -87.5 -2t-45.5 -18q-6 0 -6 14q-2 25 27.5 33t120.5 10q29 72 53 138.5t59 117.5t85 82t128 31q27 0 59.5 -7.5t60.5 -24t46.5 -41t18.5 -56.5q0 -41 -36 -75t-83 -34q-10 0 -10 12 q0 4 12 9.5t27.5 15.5t27.5 28.5t12 49.5q0 49 -39.5 67.5t-82.5 18.5q-61 0 -100.5 -35t-64 -86t-41 -108.5t-34.5 -102.5q63 0 89 1t42 11q2 -6 2 -16q0 -25 -37 -29t-108 -4q-25 -117 -78 -201t-156 -163q-16 -12 -28.5 -19.5t-12.5 -13.5q0 -12 15 -13q10 0 30.5 9.5 t52.5 23.5q35 14 77 25.5t93 11.5q23 0 48.5 -4t48.5 -8q25 -4 45 -8t37 -4q66 0 109.5 27.5t43.5 101.5q0 51 -27.5 72.5t-74.5 21.5q-31 0 -47.5 -3t-24.5 -8.5t-12 -8.5t-10 -3q-8 0 -9 13q0 23 39 39t76 16q57 0 92 -35t35 -92q0 -49 -20.5 -88t-53 -64.5t-75.5 -40 t-88 -14.5q-53 0 -102.5 8t-102.5 8q-49 0 -95.5 -12t-84.5 -12q-16 0 -29.5 7t-13.5 26z" />
<glyph unicode="&#xa4;" d="M45 158l64 65q-35 41 -49.5 88t-14.5 99q0 51 14.5 98t49.5 88l-64 66l45 45l68 -66q82 66 184 66t184 -66l68 66l45 -45l-64 -66q35 -41 49.5 -88t14.5 -98t-14.5 -98.5t-49.5 -88.5l64 -65l-45 -45l-68 65q-82 -66 -184 -65q-102 0 -184 65l-68 -65zM111 410 q0 -47 17 -91.5t49 -77t74 -52t91 -19.5t91 19.5t74 52t49 76.5t17 92q0 47 -17 91t-49 76.5t-74 52t-91 19.5t-91 -19.5t-74 -52t-49 -76.5t-17 -91z" />
<glyph unicode="&#xa5;" d="M6 727q0 10 10.5 28.5t30 36t51 31t74.5 13.5q61 0 103 -36t70 -84t42 -96.5t19 -70.5q2 -12 4 -23.5t8 -11.5q8 0 44 50t89 110.5t117.5 111t126.5 50.5q29 0 62.5 -15.5t33.5 -32.5l-2 -2q-2 -2 -4 -2q-8 0 -24.5 7.5t-59.5 7.5q-35 0 -69 -17.5t-65.5 -43t-62.5 -57.5 t-55 -63q-12 -16 -25.5 -32.5t-23.5 -34.5h145q43 0 65.5 1t39.5 11q2 -6 2 -16q0 -16 -19.5 -24.5t-99.5 -8.5h-156q-23 -43 -41 -75.5t-39 -78.5h158q43 0 65.5 1t38.5 12q2 -6 3 -17q0 -16 -19.5 -24t-99.5 -8h-166q-16 -31 -37 -74t-39 -83t-30.5 -72t-12.5 -38 q0 -10 9 -11t22 -1q20 0 27.5 10.5t17.5 10.5t10 -11q0 -23 -27.5 -39t-46.5 -16q-29 0 -53 3t-47 3q-14 0 -26.5 -3t-22.5 -3q-41 0 -41 16q0 14 14.5 17.5t30.5 3.5q20 0 56 55t81 146l43 86h-127q-45 0 -67.5 -1t-38.5 -12q-2 6 -2 17q0 8 4 14t16 10t36 6t64 2h136 q12 27 17 43.5t5 34.5q0 16 -1 31.5t-7 44.5h-143q-45 0 -68 -1t-39 -11q-2 6 -2 16q0 8 4 14.5t16.5 10.5t36 6t64.5 2h123q-4 23 -7 38t-6 25q-2 10 -4 19q-14 72 -49 119t-98 47q-35 0 -58.5 -8.5t-41.5 -18.5q-23 -10 -37.5 -32.5t-18.5 -22.5q-6 0 -6 10z" />
<glyph unicode="&#xa6;" horiz-adv-x="454" d="M201 0v451h53v-451h-53zM201 754v450h53v-450h-53z" />
<glyph unicode="&#xa7;" horiz-adv-x="909" d="M4 -244q0 16 3 38t11.5 40.5t21.5 30.5t34 12q29 0 43 -15.5t14 -37.5q0 -33 -6 -63.5t-6 -65.5q0 -61 40 -89t99 -28q96 0 158.5 59.5t62.5 157.5q0 74 -47 155t-103.5 168t-103.5 177t-47 180q0 115 63.5 183.5t180.5 68.5q25 0 49.5 -2t46.5 -8q-35 53 -66.5 116.5 t-31.5 131.5q0 63 22.5 118.5t63.5 94.5t95 61.5t120 22.5q51 0 98 -14.5t83 -43t57.5 -70.5t21.5 -96q0 -14 -3 -31.5t-11.5 -33t-20.5 -25.5t-31 -10q-68 0 -67 70q0 33 9 60.5t9 61.5q0 29 -14 48.5t-36.5 32t-48.5 17.5t-50 5q-98 0 -154.5 -60.5t-56.5 -156.5 q0 -70 46 -146.5t102.5 -159.5t102.5 -170t46 -175q0 -123 -78 -189.5t-197 -66.5q-43 0 -73 12l-2 -4q41 -59 76.5 -125t35.5 -144q0 -145 -88 -222t-229 -77q-43 0 -86 14.5t-79 42t-57.5 65.5t-21.5 85zM252 522q0 -39 22.5 -93t53 -109.5t62.5 -100.5t50 -65 q16 -6 35 -11.5t37 -5.5q39 0 77 9.5t65.5 30t45 52t17.5 76.5q0 53 -19.5 103.5t-47 97.5t-58.5 92t-55 88q-25 8 -50.5 10t-52.5 2q-84 0 -133 -49t-49 -127z" />
<glyph unicode="&#xa8;" horiz-adv-x="454" d="M96 745q0 29 19.5 51.5t50.5 22.5t50.5 -22.5t19.5 -51.5t-19.5 -51t-50.5 -22t-50.5 22.5t-19.5 50.5zM428 745q0 29 19.5 51.5t50.5 22.5t50 -22.5t19 -51.5t-19.5 -51t-49.5 -22q-31 0 -50.5 22.5t-19.5 50.5z" />
<glyph unicode="&#xa9;" horiz-adv-x="1638" d="M203 631q0 129 48 243.5t132 200.5t195.5 136.5t240.5 50.5t240.5 -50.5t195.5 -136.5t132.5 -200.5t48.5 -243.5t-48.5 -244t-132.5 -201t-195.5 -136t-240.5 -50t-240.5 50t-195.5 136t-132 201t-48 244zM285 631q0 -111 43 -213.5t115.5 -181t170 -124.5t205.5 -46 q109 0 206 46t170 124.5t116 181t43 213.5t-43 213t-116 181t-170 125t-206 46t-206 -46t-169.5 -125t-115.5 -181.5t-43 -212.5zM471 645q0 57 24.5 118.5t73.5 114t124 86t175 33.5q72 0 113 -10t78 -22t37 -39v-127h-25q-2 29 -13 59.5t-36 55t-64.5 40t-97.5 15.5 q-70 0 -122 -24.5t-86 -67.5t-50 -100.5t-16 -125.5q0 -74 16 -136t52 -107.5t90.5 -71t129.5 -25.5q49 0 87 13.5t65 36t44.5 51t29.5 59.5h26l-30 -125q0 -16 -11.5 -21.5t-33.5 -13.5q-29 -10 -78 -19t-115 -9q-76 0 -145.5 19.5t-123.5 62.5t-86 111.5t-32 168.5z" />
<glyph unicode="&#xaa;" horiz-adv-x="477" d="M98 604q0 43 35 85t87 75t113.5 52.5t115.5 19.5q43 0 77.5 -3.5t51.5 -17.5q-16 -23 -40 -56.5t-46.5 -70.5t-39 -71.5t-16.5 -61.5q0 -18 27 -18q20 0 29.5 6t13.5 12q10 18 14 18q12 0 12 -8q0 -10 -4 -19t-18 -24q-14 -16 -28.5 -19t-49.5 -3h-100q-10 0 -10 4 q0 6 2 9t2 9q-25 -14 -47.5 -18t-51.5 -4q-59 0 -94 22.5t-35 81.5zM184 610q0 -74 76 -73q33 0 54.5 11t37 26.5t24.5 33t15 29.5q27 61 52.5 96t48.5 64q-6 0 -11.5 1t-13.5 1q-37 0 -86 -15.5t-93 -41t-74 -59.5t-30 -73z" />
<glyph unicode="&#xab;" d="M33 303q39 20 96 62.5t113.5 83t100.5 71.5t54 31q8 0 9 -16q0 -12 -34 -48t-77 -75t-81 -72t-46 -39q4 -12 21.5 -49t37 -79t34.5 -76t15 -40q0 -10 -4 -12t-8 -2q-6 0 -38.5 37t-71.5 83t-74 88t-47 52zM262 303q39 20 96.5 62.5t113.5 83t100 71.5t55 31q8 0 8 -16 q0 -12 -34 -48t-77 -75t-80.5 -72t-46.5 -39q4 -12 21.5 -49t37 -79t35 -76t15.5 -40q0 -10 -4 -12t-8 -2q-6 0 -39 37t-72 83t-74 88t-47 52z" />
<glyph unicode="&#xac;" horiz-adv-x="1228" d="M317 385v53h594v-315h-53v262h-541z" />
<glyph unicode="&#xad;" d="M80 174q0 14 5 43t17.5 55.5t32 47t45.5 20.5q8 0 45 1t78 2t78 2t49 3q18 2 29.5 14.5t18.5 25.5t12.5 24.5t11.5 11.5q12 0 12 -23q0 -10 -5 -30.5t-16.5 -44t-27.5 -42t-41 -24.5q-8 -2 -37 -3t-65.5 -2t-75.5 -1h-68q-25 0 -38 -13.5t-22 -30.5t-14.5 -30.5 t-11.5 -13.5q-2 0 -7 1t-5 7z" />
<glyph unicode="&#xae;" horiz-adv-x="1638" d="M203 631q0 129 48 243.5t132 200.5t195.5 136.5t240.5 50.5t240.5 -50.5t195.5 -136.5t132.5 -200.5t48.5 -243.5t-48.5 -244t-132.5 -201t-195.5 -136t-240.5 -50t-240.5 50t-195.5 136t-132 201t-48 244zM285 631q0 -111 43 -213.5t115.5 -181t170 -124.5t205.5 -46 q109 0 206 46t170 124.5t116 181t43 213.5t-43 213t-116 181t-170 125t-206 46t-206 -46t-169.5 -125t-115.5 -181.5t-43 -212.5zM526 301v29q35 2 53.5 5t26.5 11t9 25.5t1 50.5v434q0 33 -1 51.5t-9 26.5t-26.5 11t-53.5 7v23h312q39 0 77.5 -9.5t69.5 -30t50.5 -51 t19.5 -73.5q0 -74 -44 -123t-108 -72l107 -143q39 -53 79.5 -98t69.5 -60v-14h-100q-23 0 -44.5 19.5t-47 58.5t-60.5 94t-84 129h-100v-180q0 -33 1 -50.5t9 -25.5t26.5 -11t53.5 -5v-29h-287zM723 631h88q70 0 103.5 45t33.5 127q0 78 -43 110.5t-102 32.5h-80v-315z" />
<glyph unicode="&#xaf;" horiz-adv-x="454" d="M59 719q0 35 14.5 46t37.5 11h428q12 0 24 -6t12 -22t-15.5 -35t-33.5 -19h-424q-43 0 -43 25z" />
<glyph unicode="&#xb0;" horiz-adv-x="819" d="M258 643q0 39 15.5 75t41 61.5t60.5 41t76 15.5t76.5 -15.5t61 -41t41 -61.5t15.5 -75q0 -82 -56.5 -138t-137.5 -56q-41 0 -76 15t-60.5 40.5t-41 61.5t-15.5 77zM303 643q0 -61 43 -107.5t105 -46.5q61 0 104 46.5t43 107.5q0 31 -11.5 58.5t-31.5 49t-46.5 34 t-57.5 12.5t-57.5 -12.5t-47 -34t-32 -49t-11.5 -58.5z" />
<glyph unicode="&#xb1;" horiz-adv-x="1228" d="M317 0v53h594v-53h-594zM317 324v53h271v217h53v-217h270v-53h-270v-218h-53v218h-271z" />
<glyph unicode="&#xb2;" horiz-adv-x="407" d="M-6 340q0 8 15.5 27.5t39 42t49 44t45.5 38.5q23 16 58 44.5t66.5 60.5t55 64.5t23.5 59.5q0 45 -25.5 61.5t-66.5 16.5q-53 0 -71.5 -30t-18.5 -77q0 -14 -21 -14q-10 0 -13 14.5t-3 30.5q0 59 43 86t102 27q27 0 53.5 -8.5t47 -24t34 -37t13.5 -47.5q0 -47 -49 -92 t-113.5 -88l-126 -84t-84.5 -80l6 -2q14 8 38 14t50 6q29 0 56.5 -7t58.5 -7q43 0 71.5 12t34.5 12q4 0 5 -6q0 -6 -10.5 -16t-26 -21.5t-33.5 -18.5t-35 -7q-41 0 -66.5 2t-44 4t-32 4t-27.5 2q-39 0 -57.5 -6t-32.5 -6q-8 0 -8 6z" />
<glyph unicode="&#xb3;" horiz-adv-x="407" d="M6 457q0 6 5 9t22 3q6 0 14 -2t8 -10q4 -41 31 -63.5t90 -22.5q43 0 77 17.5t56.5 45t34.5 61t12 68.5q0 27 -9 52.5t-44 25.5q-6 0 -11 -1t-9 -1q-8 0 -9 8q0 10 21.5 11t50.5 20q39 29 39 67q0 53 -72 54q-29 0 -52 -14.5t-39.5 -33t-26 -37t-9.5 -26.5q0 -6 -7 -12 t-17 -6q-8 0 -10 9t-2 17q0 59 49 99.5t112 40.5q23 0 47.5 -5.5t45 -17.5t34 -30.5t13.5 -43.5q0 -35 -29 -60.5t-66 -29.5v-6q29 -23 47.5 -55.5t18.5 -69.5q0 -39 -19.5 -72.5t-50 -58.5t-69.5 -39t-80 -14q-63 0 -95 10t-67 49q-12 12 -23.5 32.5t-11.5 31.5z" />
<glyph unicode="&#xb4;" horiz-adv-x="454" d="M242 670q0 6 16 17t41 30.5t51.5 49.5t48.5 75q10 20 16.5 51t15.5 58.5t26.5 48t50.5 20.5q16 0 32.5 -17t16.5 -40q0 -55 -42 -110.5t-95 -98.5t-102.5 -71t-61.5 -28q-14 0 -14 15z" />
<glyph unicode="&#xb5;" horiz-adv-x="796" d="M-442 -510q0 14 26 14q6 0 25.5 7.5t49.5 33t66.5 75.5t79.5 136q61 125 109.5 222.5t95.5 183.5q14 25 41 72t55.5 95t51 87t28.5 51q-6 0 -19 -5t-28.5 -10.5t-30 -9.5t-22.5 -4q-10 0 -10 17q0 6 38 21.5t83 32.5t83.5 30.5t41.5 13.5q14 0 14 -14t-31 -64.5 t-67.5 -112t-67.5 -123t-31 -94.5q0 -49 19.5 -78.5t60.5 -29.5q53 0 91 17.5t67 46t52.5 68.5t47.5 83q29 51 57.5 107.5t59.5 109.5q-10 -2 -38 -9t-38 -7t-10 12q0 4 29.5 18.5t66.5 29.5t72 27.5t45 12.5q16 0 16 -10q0 -6 -5 -13.5t-9 -17.5q-12 -31 -47 -95.5 t-71 -133t-64.5 -128t-28.5 -79.5q0 -27 13.5 -33t31.5 -6q8 0 15.5 2t15.5 2q16 0 16 -12q0 -10 -17.5 -19.5t-39.5 -9.5q-47 0 -71.5 6t-53.5 6q-18 0 -29.5 -6t-25.5 -6q-10 0 -11 10q0 10 7.5 21.5t13.5 21.5l-4 4q-45 -31 -84 -44t-96 -13q-37 0 -69 11.5t-54 33.5 q-8 -23 -31 -69t-57.5 -107.5t-84 -132t-110.5 -139.5q-10 -12 -32.5 -33t-52.5 -40.5t-62.5 -33.5t-63.5 -14q-18 0 -18 14z" />
<glyph unicode="&#xb6;" horiz-adv-x="1228" d="M133 -504l434 924q-147 0 -212.5 55t-65.5 152q0 43 13 95t38 107.5t57.5 111.5t73.5 108q33 43 79 80.5t106.5 67.5t135 47.5t166.5 17.5h502l-20 -45q-76 -8 -116 -14.5t-62.5 -26t-41 -58.5t-51.5 -108l-710 -1514h-103l801 1704h-121l-800 -1704h-103z" />
<glyph unicode="&#xb7;" horiz-adv-x="454" d="M102 297q0 35 20.5 51.5t47.5 16.5t47.5 -16.5t20.5 -51.5t-20.5 -51.5t-47.5 -16.5t-47.5 16.5t-20.5 51.5z" />
<glyph unicode="&#xb8;" horiz-adv-x="454" d="M-221 -297q0 14 14 14q6 0 26.5 -6t48.5 -14t60.5 -14.5t65.5 -6.5q25 0 53.5 3.5t52 12.5t40 28.5t16.5 50.5q0 41 -31 60t-66 19q-16 0 -33.5 -6t-35.5 -6q-27 0 -27 21q0 6 10.5 25.5t24.5 42t27.5 42t17.5 29.5h47l-61 -104q16 4 32.5 7t32.5 3q66 0 109 -34t43 -103 q0 -41 -18.5 -68t-46 -44t-63.5 -24.5t-69 -7.5q-43 0 -91 8.5t-88 19.5t-65.5 25.5t-25.5 26.5z" />
<glyph unicode="&#xb9;" horiz-adv-x="407" d="M70 348q0 23 28 23q12 0 25.5 11t24 26.5t19.5 31t13 25.5l117 237q12 25 19.5 39.5t11.5 22.5t5 13t1 9q-27 0 -41 -3t-19 -3q-8 0 -8 11q0 2 20.5 11t46 17t47 15.5t23.5 7.5h3q4 0 4 -6t-4.5 -14.5t-8.5 -18.5q-27 -53 -61.5 -123t-65 -133.5t-52 -110.5t-21.5 -55 q0 -10 24 -10q14 0 21.5 4t17.5 4q6 0 6 -17q0 -18 -23.5 -23t-45.5 -5q-14 0 -28 2t-28 2q-12 0 -26.5 -2t-24.5 -2q-6 0 -13 2t-7 12z" />
<glyph unicode="&#xba;" horiz-adv-x="409" d="M88 623q0 51 23.5 91t60.5 67.5t80 41t82 13.5q68 0 101.5 -38t33.5 -85q0 -57 -24.5 -97.5t-61.5 -66t-80 -37.5t-80 -12q-68 0 -101.5 38t-33.5 85zM145 594q0 -18 14.5 -37.5t59.5 -19.5q37 0 71 21.5t61.5 52t44 66.5t16.5 66q0 18 -14.5 37t-59.5 19 q-37 0 -72 -20.5t-61.5 -51.5t-43 -66.5t-16.5 -66.5z" />
<glyph unicode="&#xbb;" d="M70 59q0 12 33.5 48t76.5 75t81 72t46 39q-4 12 -21.5 49t-37 79t-34.5 75.5t-15 40.5q0 10 4 12t8 2q6 0 39 -37t71.5 -83t73.5 -88t47 -52q-39 -23 -96 -64t-113.5 -82t-100.5 -71.5t-54 -30.5q-8 0 -8 16zM299 59q0 12 34 48t77 75t80.5 72t46.5 39q-4 12 -21.5 49 t-37 79t-35 75.5t-15.5 40.5q0 10 4 12t8 2q6 0 39 -37t72 -83t74 -88t47 -52q-39 -23 -96.5 -64t-113.5 -82t-100.5 -71.5t-54.5 -30.5q-8 0 -8 16z" />
<glyph unicode="&#xbc;" horiz-adv-x="1021" d="M8 0l959 836h67l-958 -836h-68zM45 348q0 23 29 23q12 0 25.5 11t23.5 26.5t19.5 31t13.5 25.5l116 237q12 25 19.5 39.5t11.5 22.5t5 13t1 9q-27 0 -41 -3t-18 -3q-8 0 -8 11q0 2 20.5 11t46 17t47 15.5t23.5 7.5h2q4 0 4 -6t-4 -14.5t-8 -18.5q-27 -53 -62 -123 t-65.5 -133.5t-52 -110.5t-21.5 -55q0 -10 25 -10q14 0 21 4t18 4q6 0 6 -17q0 -18 -23.5 -23t-46.5 -5q-14 0 -27.5 2t-27.5 2q-12 0 -26.5 -2t-24.5 -2q-6 0 -13.5 2t-7.5 12zM451 133q0 10 24.5 30.5t60 48.5t77.5 62.5t77 73.5q16 18 45 45t61.5 50.5t65.5 41t58 17.5 q14 0 14 -8q0 -2 -10.5 -25t-25.5 -54.5t-33.5 -69.5t-35 -71.5t-30 -60.5l-17.5 -35l-4 -8t-2 -8q0 -10 11.5 -14.5t21.5 -4.5q27 0 42 9.5t30 9.5q10 0 10 -6q0 -14 -35 -27.5t-70 -13.5q-20 0 -31.5 -3t-21.5 -24q-8 -14 -14 -33.5t-6 -27.5q0 -4 6 -7.5t10 -3.5 q12 0 21.5 9.5t17.5 9.5q4 0 4 -10q0 -12 -14.5 -18.5t-34.5 -6.5q-16 0 -32.5 2t-24.5 2q-16 0 -29.5 -2t-30.5 -2q-12 0 -12 8q0 4 7 6t11 2q12 0 24.5 9.5t23 23.5t17.5 30.5t7 29.5q0 18 -34 24t-134 6q-14 0 -27.5 -5t-25.5 -9q-12 0 -12 8zM514 168l2 -10q8 2 19.5 3 t23.5 3t21.5 3t11.5 1q53 0 73.5 -3t34.5 -3q23 0 32 17.5t18 33.5q18 37 37.5 76t36 70.5t26.5 52.5l10 22q0 6 -7 8t-15 2q-16 0 -55.5 -34.5t-86.5 -85.5q-68 -76 -120 -111t-62 -45z" />
<glyph unicode="&#xbd;" horiz-adv-x="1021" d="M-63 0l958 836h68l-959 -836h-67zM16 348q0 23 29 23q12 0 25.5 11t23.5 26.5t19.5 31t13.5 25.5l117 237q12 25 19 39.5t11.5 22.5t5.5 13t1 9q-27 0 -41.5 -3t-18.5 -3q-8 0 -8 11q0 2 20.5 11t46 17t47 15.5t23.5 7.5h2q4 0 4 -6t-4 -14.5t-8 -18.5 q-27 -53 -61.5 -123t-65.5 -133.5t-52.5 -110.5t-21.5 -55q0 -10 25 -10q14 0 21.5 4t17.5 4q6 0 6 -17q0 -18 -23.5 -23t-46.5 -5q-14 0 -27.5 2t-27.5 2q-12 0 -26.5 -2t-24.5 -2q-6 0 -13.5 2t-7.5 12zM526 8q0 8 15.5 27.5t39 42t49 44t46.5 38.5q23 16 57.5 44.5 t66 60.5t55.5 64.5t24 59.5q0 45 -26 61.5t-67 16.5q-53 0 -71.5 -29.5t-18.5 -77.5q0 -14 -20 -14q-10 0 -13.5 14.5t-3.5 30.5q0 59 43 86t103 27q27 0 53.5 -8.5t47 -23.5t33.5 -36.5t13 -48.5q0 -47 -49 -92t-113.5 -88l-126 -84t-83.5 -80l6 -2q14 8 37.5 14t50.5 6 q29 0 56.5 -7t57.5 -7q43 0 72 12.5t35 12.5q4 0 4 -6t-10 -16.5t-25.5 -22t-34 -18.5t-34.5 -7q-41 0 -67 2t-44 4t-31.5 4t-27.5 2q-39 0 -57.5 -6t-32.5 -6q-8 0 -9 6z" />
<glyph unicode="&#xbe;" horiz-adv-x="1021" d="M6 457q0 6 5 9t22 3q6 0 14 -2t8 -10q4 -41 31 -63.5t90 -22.5q43 0 77 17.5t56.5 45t34.5 61t12 68.5q0 27 -9 52.5t-44 25.5q-6 0 -11 -1t-9 -1q-8 0 -9 8q0 10 21.5 11t50.5 20q39 29 39 67q0 53 -72 54q-29 0 -52 -14.5t-39.5 -33t-26 -37t-9.5 -26.5q0 -6 -7 -12 t-17 -6q-8 0 -10 9t-2 17q0 59 49 99.5t112 40.5q23 0 47.5 -5.5t45 -17.5t34 -30.5t13.5 -43.5q0 -35 -29 -60.5t-66 -29.5v-6q29 -23 47.5 -55.5t18.5 -69.5q0 -39 -19.5 -72.5t-50 -58.5t-69.5 -39t-80 -14q-63 0 -95 10t-67 49q-12 12 -23.5 32.5t-11.5 31.5zM57 0 l959 836h67l-958 -836h-68zM489 133q0 10 25 30.5t60.5 48.5t77.5 62.5t77 73.5q16 18 45 45t61.5 50.5t65 41t57.5 17.5q14 0 15 -8q0 -2 -10.5 -25t-25.5 -54.5t-33.5 -69.5t-35 -71.5t-30 -60.5l-17.5 -35l-4 -8t-2 -8q0 -10 11.5 -14.5t21.5 -4.5q27 0 42 9.5t30 9.5 q10 0 10 -6q0 -14 -35 -27.5t-70 -13.5q-20 0 -31.5 -3t-21.5 -24q-8 -14 -14 -33.5t-6 -27.5q0 -4 6 -7.5t10 -3.5q12 0 21.5 9.5t17.5 9.5q4 0 4 -10q0 -12 -14.5 -18.5t-34.5 -6.5q-16 0 -32.5 2t-24.5 2q-16 0 -29.5 -2t-30.5 -2q-12 0 -12 8q0 4 7 6t11 2 q23 16 47.5 41t24.5 52q0 18 -34 24t-134 6q-14 0 -27.5 -5t-25.5 -9q-12 0 -13 8zM553 168l2 -10q8 2 19.5 3t23.5 3t21.5 3t11.5 1q53 0 73.5 -3t34.5 -3q23 0 32 17.5t17 33.5q18 37 38 76t36.5 70.5t26.5 52.5l10 22q0 6 -7 8t-15 2q-16 0 -55.5 -34.5t-86.5 -85.5 q-68 -76 -120 -111t-62 -45z" />
<glyph unicode="&#xbf;" d="M-59 -342q0 59 34.5 117.5t86 114t113 107.5t112.5 100t86 91t35 80q0 23 -11.5 42.5t-40.5 19.5q-25 0 -37 -11.5t-18 -24.5t-12 -24.5t-19 -11.5q-10 0 -11 7t-1 14q0 35 27.5 61.5t66.5 26.5q59 0 75.5 -31t16.5 -70t-29.5 -90t-74.5 -109.5t-98.5 -120t-98.5 -118.5 t-74.5 -109.5t-29.5 -91.5q0 -27 16.5 -42t38.5 -15q27 0 66 19.5t74.5 49t61.5 64.5t26 66q0 41 -27 41q-33 0 -52.5 -17.5t-27.5 -17.5q-10 0 -10 10q0 14 25.5 42t62.5 28q35 0 58.5 -23.5t23.5 -58.5q0 -51 -25.5 -95.5t-65.5 -76t-90.5 -50t-97.5 -18.5 q-61 0 -108 27.5t-47 97.5zM444 506q0 35 20.5 51t47.5 16t47.5 -16t20.5 -51t-20.5 -51.5t-47.5 -16.5t-47.5 16.5t-20.5 51.5z" />
<glyph unicode="&#xc0;" horiz-adv-x="1478" d="M27 233q0 10 1 15.5t11 5.5t13 -24.5t16.5 -57.5t46 -66.5t100.5 -54.5q16 -4 38.5 -9t55.5 -5q72 0 136.5 36t121 90t103.5 116.5t84 115.5q66 94 138.5 203t154 211t172 191.5t190.5 144.5q45 25 90 38t96 21l13 -16q-37 -37 -70 -107.5t-61.5 -150.5t-51 -158 t-36.5 -127q-43 -147 -77 -238.5t-57.5 -145.5t-37 -77.5t-15.5 -31.5q-8 -23 -15 -40.5t-7 -25.5q0 -49 47 -49q23 0 44 16.5t25 16.5q10 0 11 -13q0 -4 -16.5 -20.5t-39.5 -28.5q-12 -6 -26.5 -7t-30.5 -1q-41 0 -63.5 7t-59.5 7q-35 0 -49 -5t-21 -5q-16 0 -16 10 q0 8 6 15q27 27 60.5 80t65.5 110t56.5 110.5t30.5 80.5q4 8 10.5 25.5t6.5 29.5q0 10 -12.5 13t-20.5 5q-39 4 -92.5 12.5t-112.5 8.5q-12 0 -24.5 -10.5t-23.5 -23.5t-21.5 -28.5t-16.5 -25.5q-45 -66 -105.5 -138.5t-132 -134t-154.5 -102.5t-175 -41q-72 0 -127.5 13.5 t-108.5 66.5q-27 25 -47 72t-20 81zM158 823q0 90 46 164t118.5 126t159.5 80t167 28q55 0 110.5 -9.5t112.5 -21.5t116 -22.5t124 -10.5q68 0 133.5 12t126.5 35l8 -8q-10 -12 -38.5 -29.5t-69.5 -34t-90 -31t-101 -20.5q-49 -6 -102 -6q-51 0 -103.5 9.5t-105.5 21.5 t-104.5 22.5t-102.5 10.5q-72 0 -137.5 -22.5t-117.5 -65.5t-82.5 -104.5t-30.5 -137.5q0 -57 16 -92t16 -43q0 -4 -8 -4t-19.5 14t-20.5 35.5t-15 49.5t-6 54zM995 547q0 -4 13.5 -5t31.5 -1q31 0 55.5 -3t45.5 -8q20 -4 33.5 -7t23.5 -3q35 0 42 17.5t17 44.5 q10 29 19.5 57t19.5 57q29 92 73 195.5t120 208.5q16 23 31.5 38t27.5 29q-35 -2 -71.5 -18t-69.5 -41t-61.5 -53.5t-49.5 -53.5q-78 -100 -130 -171.5t-83.5 -122t-50 -82t-28.5 -52.5q-8 -16 -9 -26zM1294 1593q0 23 16.5 40.5t32.5 17.5q33 0 50.5 -20.5t27 -48.5 t15.5 -58.5t16 -50.5q20 -45 48 -75t52.5 -49.5t41 -30.5t16.5 -18q0 -14 -15 -14q-12 0 -61 27.5t-102.5 70.5t-95.5 98.5t-42 110.5z" />
<glyph unicode="&#xc1;" horiz-adv-x="1478" d="M27 233q0 10 1 15.5t11 5.5t13 -24.5t16.5 -57.5t46 -66.5t100.5 -54.5q16 -4 38.5 -9t55.5 -5q72 0 136.5 36t121 90t103.5 116.5t84 115.5q66 94 138.5 203t154 211t172 191.5t190.5 144.5q45 25 90 38t96 21l13 -16q-37 -37 -70 -107.5t-61.5 -150.5t-51 -158 t-36.5 -127q-43 -147 -77 -238.5t-57.5 -145.5t-37 -77.5t-15.5 -31.5q-8 -23 -15 -40.5t-7 -25.5q0 -49 47 -49q23 0 44 16.5t25 16.5q10 0 11 -13q0 -4 -16.5 -20.5t-39.5 -28.5q-12 -6 -26.5 -7t-30.5 -1q-41 0 -63.5 7t-59.5 7q-35 0 -49 -5t-21 -5q-16 0 -16 10 q0 8 6 15q27 27 60.5 80t65.5 110t56.5 110.5t30.5 80.5q4 8 10.5 25.5t6.5 29.5q0 10 -12.5 13t-20.5 5q-39 4 -92.5 12.5t-112.5 8.5q-12 0 -24.5 -10.5t-23.5 -23.5t-21.5 -28.5t-16.5 -25.5q-45 -66 -105.5 -138.5t-132 -134t-154.5 -102.5t-175 -41q-72 0 -127.5 13.5 t-108.5 66.5q-27 25 -47 72t-20 81zM158 823q0 90 46 164t118.5 126t159.5 80t167 28q55 0 110.5 -9.5t112.5 -21.5t116 -22.5t124 -10.5q68 0 133.5 12t126.5 35l8 -8q-10 -12 -38.5 -29.5t-69.5 -34t-90 -31t-101 -20.5q-49 -6 -102 -6q-51 0 -103.5 9.5t-105.5 21.5 t-104.5 22.5t-102.5 10.5q-72 0 -137.5 -22.5t-117.5 -65.5t-82.5 -104.5t-30.5 -137.5q0 -57 16 -92t16 -43q0 -4 -8 -4t-19.5 14t-20.5 35.5t-15 49.5t-6 54zM995 547q0 -4 13.5 -5t31.5 -1q31 0 55.5 -3t45.5 -8q20 -4 33.5 -7t23.5 -3q35 0 42 17.5t17 44.5 q10 29 19.5 57t19.5 57q29 92 73 195.5t120 208.5q16 23 31.5 38t27.5 29q-35 -2 -71.5 -18t-69.5 -41t-61.5 -53.5t-49.5 -53.5q-78 -100 -130 -171.5t-83.5 -122t-50 -82t-28.5 -52.5q-8 -16 -9 -26zM1430 1300q0 6 16 17.5t40.5 31t51.5 49t49 75.5q10 20 16.5 50.5 t15.5 58.5t26.5 48.5t50.5 20.5q16 0 32.5 -17.5t16.5 -40.5q0 -55 -42 -110.5t-95.5 -98.5t-102.5 -70.5t-61 -27.5q-14 0 -14 14z" />
<glyph unicode="&#xc2;" horiz-adv-x="1478" d="M27 233q0 10 1 15.5t11 5.5t13 -24.5t16.5 -57.5t46 -66.5t100.5 -54.5q16 -4 38.5 -9t55.5 -5q72 0 136.5 36t121 90t103.5 116.5t84 115.5q66 94 138.5 203t154 211t172 191.5t190.5 144.5q45 25 90 38t96 21l13 -16q-37 -37 -70 -107.5t-61.5 -150.5t-51 -158 t-36.5 -127q-43 -147 -77 -238.5t-57.5 -145.5t-37 -77.5t-15.5 -31.5q-8 -23 -15 -40.5t-7 -25.5q0 -49 47 -49q23 0 44 16.5t25 16.5q10 0 11 -13q0 -4 -16.5 -20.5t-39.5 -28.5q-12 -6 -26.5 -7t-30.5 -1q-41 0 -63.5 7t-59.5 7q-35 0 -49 -5t-21 -5q-16 0 -16 10 q0 8 6 15q27 27 60.5 80t65.5 110t56.5 110.5t30.5 80.5q4 8 10.5 25.5t6.5 29.5q0 10 -12.5 13t-20.5 5q-39 4 -92.5 12.5t-112.5 8.5q-12 0 -24.5 -10.5t-23.5 -23.5t-21.5 -28.5t-16.5 -25.5q-45 -66 -105.5 -138.5t-132 -134t-154.5 -102.5t-175 -41q-72 0 -127.5 13.5 t-108.5 66.5q-27 25 -47 72t-20 81zM158 823q0 90 46 164t118.5 126t159.5 80t167 28q55 0 110.5 -9.5t112.5 -21.5t116 -22.5t124 -10.5q68 0 133.5 12t126.5 35l8 -8q-10 -12 -38.5 -29.5t-69.5 -34t-90 -31t-101 -20.5q-49 -6 -102 -6q-51 0 -103.5 9.5t-105.5 21.5 t-104.5 22.5t-102.5 10.5q-72 0 -137.5 -22.5t-117.5 -65.5t-82.5 -104.5t-30.5 -137.5q0 -57 16 -92t16 -43q0 -4 -8 -4t-19.5 14t-20.5 35.5t-15 49.5t-6 54zM995 547q0 -4 13.5 -5t31.5 -1q31 0 55.5 -3t45.5 -8q20 -4 33.5 -7t23.5 -3q35 0 42 17.5t17 44.5 q10 29 19.5 57t19.5 57q29 92 73 195.5t120 208.5q16 23 31.5 38t27.5 29q-35 -2 -71.5 -18t-69.5 -41t-61.5 -53.5t-49.5 -53.5q-78 -100 -130 -171.5t-83.5 -122t-50 -82t-28.5 -52.5q-8 -16 -9 -26zM1219 1300q0 10 23.5 28t31.5 24q45 37 90 81t82 82.5t61.5 68.5 t28.5 40q10 23 31 23q14 0 21 -8.5t11 -39.5q4 -41 26 -92t46.5 -95t44 -75.5t19.5 -33.5q0 -16 -19 -17q-16 0 -42.5 27.5t-52.5 64.5t-45.5 73t-25.5 52q-12 -16 -59 -52t-100.5 -72t-99.5 -62.5t-58 -26.5q-14 0 -14 10z" />
<glyph unicode="&#xc3;" horiz-adv-x="1478" d="M27 233q0 10 1 15.5t11 5.5t13 -24.5t16.5 -57.5t46 -66.5t100.5 -54.5q16 -4 38.5 -9t55.5 -5q72 0 136.5 36t121 90t103.5 116.5t84 115.5q66 94 138.5 203t154 211t172 191.5t190.5 144.5q45 25 90 38t96 21l13 -16q-37 -37 -70 -107.5t-61.5 -150.5t-51 -158 t-36.5 -127q-43 -147 -77 -238.5t-57.5 -145.5t-37 -77.5t-15.5 -31.5q-8 -23 -15 -40.5t-7 -25.5q0 -49 47 -49q23 0 44 16.5t25 16.5q10 0 11 -13q0 -4 -16.5 -20.5t-39.5 -28.5q-12 -6 -26.5 -7t-30.5 -1q-41 0 -63.5 7t-59.5 7q-35 0 -49 -5t-21 -5q-16 0 -16 10 q0 8 6 15q27 27 60.5 80t65.5 110t56.5 110.5t30.5 80.5q4 8 10.5 25.5t6.5 29.5q0 10 -12.5 13t-20.5 5q-39 4 -92.5 12.5t-112.5 8.5q-12 0 -24.5 -10.5t-23.5 -23.5t-21.5 -28.5t-16.5 -25.5q-45 -66 -105.5 -138.5t-132 -134t-154.5 -102.5t-175 -41q-72 0 -127.5 13.5 t-108.5 66.5q-27 25 -47 72t-20 81zM158 823q0 90 46 164t118.5 126t159.5 80t167 28q55 0 110.5 -9.5t112.5 -21.5t116 -22.5t124 -10.5q68 0 133.5 12t126.5 35l8 -8q-10 -12 -38.5 -29.5t-69.5 -34t-90 -31t-101 -20.5q-49 -6 -102 -6q-51 0 -103.5 9.5t-105.5 21.5 t-104.5 22.5t-102.5 10.5q-72 0 -137.5 -22.5t-117.5 -65.5t-82.5 -104.5t-30.5 -137.5q0 -57 16 -92t16 -43q0 -4 -8 -4t-19.5 14t-20.5 35.5t-15 49.5t-6 54zM995 547q0 -4 13.5 -5t31.5 -1q31 0 55.5 -3t45.5 -8q20 -4 33.5 -7t23.5 -3q35 0 42 17.5t17 44.5 q10 29 19.5 57t19.5 57q29 92 73 195.5t120 208.5q16 23 31.5 38t27.5 29q-35 -2 -71.5 -18t-69.5 -41t-61.5 -53.5t-49.5 -53.5q-78 -100 -130 -171.5t-83.5 -122t-50 -82t-28.5 -52.5q-8 -16 -9 -26zM1235 1305q0 10 7 39.5t24.5 61.5t46 56.5t69.5 24.5q35 0 69 -11.5 t67 -27.5t61.5 -27.5t52.5 -11.5q45 0 69.5 16.5t38 36t20.5 35.5t20 16q4 0 8 -5t4 -23q0 -29 -14.5 -58.5t-38 -54t-53 -41t-60.5 -16.5q-35 0 -66.5 11t-60.5 28q-29 16 -59.5 27.5t-67.5 11.5q-33 0 -53.5 -17.5t-33.5 -37t-20.5 -37t-15.5 -17.5q-14 0 -14 21z" />
<glyph unicode="&#xc4;" horiz-adv-x="1478" d="M27 233q0 10 1 15.5t11 5.5t13 -24.5t16.5 -57.5t46 -66.5t100.5 -54.5q16 -4 38.5 -9t55.5 -5q72 0 136.5 36t121 90t103.5 116.5t84 115.5q66 94 138.5 203t154 211t172 191.5t190.5 144.5q45 25 90 38t96 21l13 -16q-37 -37 -70 -107.5t-61.5 -150.5t-51 -158 t-36.5 -127q-43 -147 -77 -238.5t-57.5 -145.5t-37 -77.5t-15.5 -31.5q-8 -23 -15 -40.5t-7 -25.5q0 -49 47 -49q23 0 44 16.5t25 16.5q10 0 11 -13q0 -4 -16.5 -20.5t-39.5 -28.5q-12 -6 -26.5 -7t-30.5 -1q-41 0 -63.5 7t-59.5 7q-35 0 -49 -5t-21 -5q-16 0 -16 10 q0 8 6 15q27 27 60.5 80t65.5 110t56.5 110.5t30.5 80.5q4 8 10.5 25.5t6.5 29.5q0 10 -12.5 13t-20.5 5q-39 4 -92.5 12.5t-112.5 8.5q-12 0 -24.5 -10.5t-23.5 -23.5t-21.5 -28.5t-16.5 -25.5q-45 -66 -105.5 -138.5t-132 -134t-154.5 -102.5t-175 -41q-72 0 -127.5 13.5 t-108.5 66.5q-27 25 -47 72t-20 81zM158 823q0 90 46 164t118.5 126t159.5 80t167 28q55 0 110.5 -9.5t112.5 -21.5t116 -22.5t124 -10.5q68 0 133.5 12t126.5 35l8 -8q-10 -12 -38.5 -29.5t-69.5 -34t-90 -31t-101 -20.5q-49 -6 -102 -6q-51 0 -103.5 9.5t-105.5 21.5 t-104.5 22.5t-102.5 10.5q-72 0 -137.5 -22.5t-117.5 -65.5t-82.5 -104.5t-30.5 -137.5q0 -57 16 -92t16 -43q0 -4 -8 -4t-19.5 14t-20.5 35.5t-15 49.5t-6 54zM995 547q0 -4 13.5 -5t31.5 -1q31 0 55.5 -3t45.5 -8q20 -4 33.5 -7t23.5 -3q35 0 42 17.5t17 44.5 q10 29 19.5 57t19.5 57q29 92 73 195.5t120 208.5q16 23 31.5 38t27.5 29q-35 -2 -71.5 -18t-69.5 -41t-61.5 -53.5t-49.5 -53.5q-78 -100 -130 -171.5t-83.5 -122t-50 -82t-28.5 -52.5q-8 -16 -9 -26zM1284 1376q0 29 19.5 51.5t50.5 22.5t50 -22.5t19 -51.5t-19.5 -51 t-49.5 -22q-31 0 -50.5 22.5t-19.5 50.5zM1616 1376q0 29 19.5 51.5t50.5 22.5t50 -22.5t19 -51.5t-19.5 -51t-49.5 -22q-31 0 -50.5 22.5t-19.5 50.5z" />
<glyph unicode="&#xc5;" horiz-adv-x="1478" d="M27 233q0 10 1 15.5t11 5.5t13 -24.5t16.5 -57.5t46 -66.5t100.5 -54.5q16 -4 38.5 -9t55.5 -5q72 0 136.5 36t121 90t103.5 116.5t84 115.5q66 94 138.5 203t154 211t172 191.5t190.5 144.5q45 25 90 38t96 21l13 -16q-37 -37 -70 -107.5t-61.5 -150.5t-51 -158 t-36.5 -127q-43 -147 -77 -238.5t-57.5 -145.5t-37 -77.5t-15.5 -31.5q-8 -23 -15 -40.5t-7 -25.5q0 -49 47 -49q23 0 44 16.5t25 16.5q10 0 11 -13q0 -4 -16.5 -20.5t-39.5 -28.5q-12 -6 -26.5 -7t-30.5 -1q-41 0 -63.5 7t-59.5 7q-35 0 -49 -5t-21 -5q-16 0 -16 10 q0 8 6 15q27 27 60.5 80t65.5 110t56.5 110.5t30.5 80.5q4 8 10.5 25.5t6.5 29.5q0 10 -12.5 13t-20.5 5q-39 4 -92.5 12.5t-112.5 8.5q-12 0 -24.5 -10.5t-23.5 -23.5t-21.5 -28.5t-16.5 -25.5q-45 -66 -105.5 -138.5t-132 -134t-154.5 -102.5t-175 -41q-72 0 -127.5 13.5 t-108.5 66.5q-27 25 -47 72t-20 81zM158 823q0 90 46 164t118.5 126t159.5 80t167 28q55 0 110.5 -9.5t112.5 -21.5t116 -22.5t124 -10.5q68 0 133.5 12t126.5 35l8 -8q-10 -12 -38.5 -29.5t-69.5 -34t-90 -31t-101 -20.5q-49 -6 -102 -6q-51 0 -103.5 9.5t-105.5 21.5 t-104.5 22.5t-102.5 10.5q-72 0 -137.5 -22.5t-117.5 -65.5t-82.5 -104.5t-30.5 -137.5q0 -57 16 -92t16 -43q0 -4 -8 -4t-19.5 14t-20.5 35.5t-15 49.5t-6 54zM995 547q0 -4 13.5 -5t31.5 -1q31 0 55.5 -3t45.5 -8q20 -4 33.5 -7t23.5 -3q35 0 42 17.5t17 44.5 q10 29 19.5 57t19.5 57q29 92 73 195.5t120 208.5q16 23 31.5 38t27.5 29q-35 -2 -71.5 -18t-69.5 -41t-61.5 -53.5t-49.5 -53.5q-78 -100 -130 -171.5t-83.5 -122t-50 -82t-28.5 -52.5q-8 -16 -9 -26zM1421 1505q0 43 17.5 83t47.5 71t69.5 48t84.5 17t85 -17t70 -48 t47.5 -71t17.5 -83t-17.5 -83t-47.5 -70.5t-69.5 -48t-85.5 -17.5q-45 0 -84.5 17.5t-69.5 48t-47.5 70.5t-17.5 83zM1483 1505q0 -66 45 -111.5t112 -45.5q68 0 113 46t45 111q0 66 -45 112t-113 46t-112.5 -46t-44.5 -112z" />
<glyph unicode="&#xc6;" horiz-adv-x="2048" d="M12 176q0 6 2 14.5t15 8.5q4 0 9 -26t23.5 -55.5t56 -55t107.5 -25.5q80 0 149.5 43t134 113.5t126 164t125 192.5t131 198.5t145.5 185.5t168 149.5t197 92.5q37 10 66.5 16t57 10t58.5 5t70 1q49 0 100 -8t94 -29.5t71 -59.5t28 -99q0 -57 -37 -93t-92 -36q-16 0 -40 4 t-44.5 12t-35 18.5t-14.5 22.5t13 12q8 0 24.5 -12t57.5 -12q45 0 69.5 34.5t24.5 77.5q0 70 -48 100.5t-110 30.5q-41 0 -80 -15t-69.5 -43t-50 -64.5t-19.5 -79.5t19.5 -67.5t44 -41t44 -31t19.5 -36.5q0 -16 -10 -25.5t-23.5 -14.5t-29 -9.5t-25.5 -6.5 q-166 -47 -243 -152.5t-77 -260.5q0 -70 24 -123.5t66 -90t99 -55t123 -18.5q86 0 168 30.5t146.5 87t104.5 134.5t40 174q0 41 -13.5 65.5t-13.5 32.5t8 14.5t19 6.5q6 0 13 -13.5t12 -32t8 -37t3 -28.5q0 -102 -38.5 -188t-106.5 -148.5t-159 -98.5t-195 -36 q-135 0 -229.5 41t-164.5 164q-6 -10 -15 -26.5t-18.5 -34t-15.5 -35t-6 -27.5q0 -31 20.5 -38t30.5 -7q25 0 25 -12q0 -16 -26.5 -20.5t-41.5 -4.5q-35 0 -67.5 6t-73.5 6q-20 0 -27.5 -6t-17.5 -6t-10 18q0 4 15 22.5t44 69t71 140.5t95 237q-41 0 -66.5 4.5t-48.5 8.5 q-20 4 -38.5 8t-43.5 4q-31 0 -40 -5t-23 -28q-45 -78 -106.5 -162t-136.5 -154.5t-164 -116.5t-189 -46q-51 0 -84 8t-68 25q-31 16 -60.5 59t-29.5 84zM147 811q0 100 42 177t110 129t155 78t177 26q53 0 105 -10.5t104 -20.5q51 -10 99 -18.5t91 -8.5q57 0 99 6.5 t71 14.5q31 8 49.5 14t28.5 6q14 0 14 -10q0 -12 -35.5 -30.5t-91 -37t-121 -32t-124.5 -13.5q-53 0 -106.5 6.5t-102.5 16.5q-47 10 -91.5 16t-82.5 6q-53 0 -116 -17t-115 -54t-87 -96.5t-35 -143.5q0 -57 15.5 -91t15.5 -44q0 -8 -14 -8q-10 0 -19.5 15t-17.5 36.5 t-12.5 45.5t-4.5 42zM887 545q4 0 11 2t13 2q23 0 42.5 -4t41.5 -8q20 -4 40 -8.5t42 -4.5q14 0 23.5 2t19.5 4q66 152 128.5 279t140.5 246q23 33 51 61.5t65 42.5v4q-66 -6 -116 -23.5t-94 -48t-86 -75.5t-91 -107q-25 -31 -56.5 -79t-62 -99t-60.5 -101t-52 -85z M1327 721q55 16 116.5 34.5t110.5 18.5q23 0 23 21q0 10 -22.5 19t-34.5 13q-37 14 -62.5 32.5t-48.5 45.5q-27 -43 -50.5 -88t-31.5 -96z" />
<glyph unicode="&#xc7;" horiz-adv-x="1251" d="M127 475q0 127 42 224.5t112 199.5q45 66 105 122t130 97t146.5 63.5t156.5 22.5q27 0 84.5 -8t120.5 -8q72 0 125 8t78 8q20 0 36.5 -14t25.5 -34.5t14.5 -44.5t5.5 -42q0 -35 -13.5 -69.5t-37 -64.5t-54 -48.5t-67.5 -18.5q-57 0 -91 26t-34 46q0 12 8 12q4 0 10 -7 t16.5 -16t24.5 -16.5t37 -7.5q25 0 42 12.5t28.5 31t17.5 41t6 42.5q0 66 -17.5 96.5t-58.5 30.5q-18 0 -45.5 -4t-52.5 -4q-14 0 -38.5 2t-53.5 5t-58.5 6t-52.5 3q-117 0 -221 -67.5t-183 -170t-125 -222t-46 -226.5q0 -96 25.5 -177t78 -140.5t130 -93t180.5 -33.5 q94 0 174 36t138 97t91 142t33 171q0 25 -7.5 60t-7.5 59q0 16 11 16q8 0 20 -16t23.5 -43t18.5 -57.5t7 -57.5q0 -102 -46 -184t-120.5 -139.5t-169 -89t-192.5 -31.5q-106 0 -199.5 33t-162 94t-108.5 149t-40 199zM379 -297q0 14 14 14q6 0 26.5 -6t48.5 -14t60.5 -14.5 t65.5 -6.5q25 0 53.5 3.5t52 12.5t40 28.5t16.5 50.5q0 41 -31 60t-66 19q-16 0 -33.5 -6t-35.5 -6q-27 0 -27 21q0 6 10.5 25.5t24.5 42t27.5 42t17.5 29.5h47l-61 -104q16 4 32.5 7t32.5 3q66 0 109 -34t43 -103q0 -41 -18.5 -68t-46 -44t-63.5 -24.5t-69 -7.5 q-43 0 -91 8.5t-88 19.5t-65.5 25.5t-25.5 26.5z" />
<glyph unicode="&#xc8;" horiz-adv-x="1138" d="M68 369q0 94 41 165.5t102 121t132 78t130 34.5q55 6 69.5 11t14.5 20q0 12 -29.5 22t-65.5 28.5t-65.5 48.5t-29.5 79q0 68 34.5 110.5t87 69.5t114 37t116.5 10q41 0 96 -8t106.5 -29.5t86 -56.5t34.5 -88q0 -66 -40.5 -105.5t-108.5 -39.5q-31 0 -56.5 13t-44 31.5 t-28.5 39t-10 32.5q0 10 8 11q2 0 9 -10.5t20.5 -23t35 -22.5t52.5 -10q47 0 68.5 35t21.5 76q0 31 -19.5 53t-49.5 36.5t-62.5 21.5t-57.5 7q-47 0 -100 -10t-99 -33.5t-77 -62.5t-31 -96q0 -37 18.5 -60.5t42 -42t42 -35t18.5 -39.5q0 -16 -11.5 -24t-31 -14.5t-44 -11.5 t-50.5 -15q-66 -25 -117 -62.5t-86 -84t-53.5 -98.5t-18.5 -103q0 -88 28 -151.5t78 -105.5t120.5 -61.5t154.5 -19.5q92 0 183.5 31.5t164 90t117.5 139.5t45 179q0 33 -9 54.5t-9 29.5t7 14.5t13 6.5t12.5 -13.5t11.5 -32t8 -37t3 -28.5q0 -104 -46 -190t-125 -148.5 t-183.5 -97.5t-218.5 -35q-84 0 -168 24.5t-150.5 71.5t-108.5 116t-42 157zM602 1593q0 23 16.5 40.5t32.5 17.5q33 0 50.5 -20.5t26.5 -48.5t15.5 -58.5t16.5 -50.5q20 -45 48 -75t52.5 -49.5t41 -30.5t16.5 -18q0 -14 -15 -14q-12 0 -61 27.5t-102.5 70.5t-95.5 98.5 t-42 110.5z" />
<glyph unicode="&#xc9;" horiz-adv-x="1138" d="M68 369q0 94 41 165.5t102 121t132 78t130 34.5q55 6 69.5 11t14.5 20q0 12 -29.5 22t-65.5 28.5t-65.5 48.5t-29.5 79q0 68 34.5 110.5t87 69.5t114 37t116.5 10q41 0 96 -8t106.5 -29.5t86 -56.5t34.5 -88q0 -66 -40.5 -105.5t-108.5 -39.5q-31 0 -56.5 13t-44 31.5 t-28.5 39t-10 32.5q0 10 8 11q2 0 9 -10.5t20.5 -23t35 -22.5t52.5 -10q47 0 68.5 35t21.5 76q0 31 -19.5 53t-49.5 36.5t-62.5 21.5t-57.5 7q-47 0 -100 -10t-99 -33.5t-77 -62.5t-31 -96q0 -37 18.5 -60.5t42 -42t42 -35t18.5 -39.5q0 -16 -11.5 -24t-31 -14.5t-44 -11.5 t-50.5 -15q-66 -25 -117 -62.5t-86 -84t-53.5 -98.5t-18.5 -103q0 -88 28 -151.5t78 -105.5t120.5 -61.5t154.5 -19.5q92 0 183.5 31.5t164 90t117.5 139.5t45 179q0 33 -9 54.5t-9 29.5t7 14.5t13 6.5t12.5 -13.5t11.5 -32t8 -37t3 -28.5q0 -104 -46 -190t-125 -148.5 t-183.5 -97.5t-218.5 -35q-84 0 -168 24.5t-150.5 71.5t-108.5 116t-42 157zM737 1300q0 6 16.5 17.5t41 31t51 49t49.5 75.5q10 20 16.5 50.5t15.5 58.5t26.5 48.5t50.5 20.5q16 0 32.5 -17.5t16.5 -40.5q0 -55 -42 -110.5t-95.5 -98.5t-102.5 -70.5t-61 -27.5 q-14 0 -15 14z" />
<glyph unicode="&#xca;" horiz-adv-x="1138" d="M68 369q0 94 41 165.5t102 121t132 78t130 34.5q55 6 69.5 11t14.5 20q0 12 -29.5 22t-65.5 28.5t-65.5 48.5t-29.5 79q0 68 34.5 110.5t87 69.5t114 37t116.5 10q41 0 96 -8t106.5 -29.5t86 -56.5t34.5 -88q0 -66 -40.5 -105.5t-108.5 -39.5q-31 0 -56.5 13t-44 31.5 t-28.5 39t-10 32.5q0 10 8 11q2 0 9 -10.5t20.5 -23t35 -22.5t52.5 -10q47 0 68.5 35t21.5 76q0 31 -19.5 53t-49.5 36.5t-62.5 21.5t-57.5 7q-47 0 -100 -10t-99 -33.5t-77 -62.5t-31 -96q0 -37 18.5 -60.5t42 -42t42 -35t18.5 -39.5q0 -16 -11.5 -24t-31 -14.5t-44 -11.5 t-50.5 -15q-66 -25 -117 -62.5t-86 -84t-53.5 -98.5t-18.5 -103q0 -88 28 -151.5t78 -105.5t120.5 -61.5t154.5 -19.5q92 0 183.5 31.5t164 90t117.5 139.5t45 179q0 33 -9 54.5t-9 29.5t7 14.5t13 6.5t12.5 -13.5t11.5 -32t8 -37t3 -28.5q0 -104 -46 -190t-125 -148.5 t-183.5 -97.5t-218.5 -35q-84 0 -168 24.5t-150.5 71.5t-108.5 116t-42 157zM526 1300q0 10 23.5 28t32.5 24q45 37 90 81t82 82.5t61.5 68.5t28.5 40q10 23 30 23q14 0 21.5 -8.5t11.5 -39.5q4 -41 25.5 -92t46.5 -95t44 -75.5t19 -33.5q0 -16 -18 -17q-16 0 -43 27.5 t-52.5 64.5t-45 73t-25.5 52q-12 -16 -59 -52t-100.5 -72t-99.5 -62.5t-58 -26.5q-14 0 -15 10z" />
<glyph unicode="&#xcb;" horiz-adv-x="1138" d="M68 369q0 94 41 165.5t102 121t132 78t130 34.5q55 6 69.5 11t14.5 20q0 12 -29.5 22t-65.5 28.5t-65.5 48.5t-29.5 79q0 68 34.5 110.5t87 69.5t114 37t116.5 10q41 0 96 -8t106.5 -29.5t86 -56.5t34.5 -88q0 -66 -40.5 -105.5t-108.5 -39.5q-31 0 -56.5 13t-44 31.5 t-28.5 39t-10 32.5q0 10 8 11q2 0 9 -10.5t20.5 -23t35 -22.5t52.5 -10q47 0 68.5 35t21.5 76q0 31 -19.5 53t-49.5 36.5t-62.5 21.5t-57.5 7q-47 0 -100 -10t-99 -33.5t-77 -62.5t-31 -96q0 -37 18.5 -60.5t42 -42t42 -35t18.5 -39.5q0 -16 -11.5 -24t-31 -14.5t-44 -11.5 t-50.5 -15q-66 -25 -117 -62.5t-86 -84t-53.5 -98.5t-18.5 -103q0 -88 28 -151.5t78 -105.5t120.5 -61.5t154.5 -19.5q92 0 183.5 31.5t164 90t117.5 139.5t45 179q0 33 -9 54.5t-9 29.5t7 14.5t13 6.5t12.5 -13.5t11.5 -32t8 -37t3 -28.5q0 -104 -46 -190t-125 -148.5 t-183.5 -97.5t-218.5 -35q-84 0 -168 24.5t-150.5 71.5t-108.5 116t-42 157zM592 1376q0 29 19.5 51.5t50.5 22.5t50 -22.5t19 -51.5t-19.5 -51t-49.5 -22q-31 0 -50.5 22.5t-19.5 50.5zM924 1376q0 29 19 51.5t50 22.5t50.5 -22.5t19.5 -51.5t-19.5 -51t-50.5 -22t-50 22.5 t-19 50.5z" />
<glyph unicode="&#xcc;" horiz-adv-x="1024" d="M18 166q0 12 3.5 14t9.5 2q10 0 21 -22.5t38 -50t73 -50t126 -22.5q96 0 176 43t147.5 111.5t124 157.5t106.5 181.5t95 181.5t90 156q39 59 86 121.5t127 140.5l-2 5q-80 -14 -172 -21.5t-219 -7.5q-82 0 -165 -24.5t-149.5 -72.5t-108.5 -120t-42 -164q0 -51 12.5 -96 t36 -79t57 -54.5t74.5 -20.5q6 0 15.5 2t17.5 2q10 0 10 -22q0 -12 -18.5 -15.5t-36.5 -3.5q-49 0 -87 27t-64.5 68.5t-40 93t-13.5 100.5q0 57 16.5 111.5t43 100.5t56.5 82t58 58q92 72 187.5 98.5t205.5 26.5q74 0 158 -12t146 -12q29 0 61.5 6t40.5 6q10 0 10 -6 q0 -10 -8 -16.5t-21 -18.5q-80 -80 -133 -180.5t-101 -209t-97 -219t-119 -208.5q-49 -70 -105.5 -131.5t-127 -106.5t-155.5 -70.5t-190 -25.5q-57 0 -103 19.5t-80 46t-52.5 54t-18.5 46.5zM842 1593q0 23 16 40.5t33 17.5q33 0 50 -20.5t26.5 -48.5t15.5 -58.5t16 -50.5 q20 -45 48 -75t52.5 -49.5t41 -30.5t16.5 -18q0 -14 -14 -14q-12 0 -61.5 27.5t-102.5 70.5t-95 98.5t-42 110.5z" />
<glyph unicode="&#xcd;" horiz-adv-x="1024" d="M18 166q0 12 3.5 14t9.5 2q10 0 21 -22.5t38 -50t73 -50t126 -22.5q96 0 176 43t147.5 111.5t124 157.5t106.5 181.5t95 181.5t90 156q39 59 86 121.5t127 140.5l-2 5q-80 -14 -172 -21.5t-219 -7.5q-82 0 -165 -24.5t-149.5 -72.5t-108.5 -120t-42 -164q0 -51 12.5 -96 t36 -79t57 -54.5t74.5 -20.5q6 0 15.5 2t17.5 2q10 0 10 -22q0 -12 -18.5 -15.5t-36.5 -3.5q-49 0 -87 27t-64.5 68.5t-40 93t-13.5 100.5q0 57 16.5 111.5t43 100.5t56.5 82t58 58q92 72 187.5 98.5t205.5 26.5q74 0 158 -12t146 -12q29 0 61.5 6t40.5 6q10 0 10 -6 q0 -10 -8 -16.5t-21 -18.5q-80 -80 -133 -180.5t-101 -209t-97 -219t-119 -208.5q-49 -70 -105.5 -131.5t-127 -106.5t-155.5 -70.5t-190 -25.5q-57 0 -103 19.5t-80 46t-52.5 54t-18.5 46.5zM977 1300q0 6 16.5 17.5t41 31t51 49t49.5 75.5q10 20 16 50.5t15.5 58.5 t26.5 48.5t50 20.5q16 0 32.5 -17.5t16.5 -40.5q0 -55 -42 -110.5t-95 -98.5t-102 -70.5t-62 -27.5q-14 0 -14 14z" />
<glyph unicode="&#xce;" horiz-adv-x="1024" d="M18 166q0 12 3.5 14t9.5 2q10 0 21 -22.5t38 -50t73 -50t126 -22.5q96 0 176 43t147.5 111.5t124 157.5t106.5 181.5t95 181.5t90 156q39 59 86 121.5t127 140.5l-2 5q-80 -14 -172 -21.5t-219 -7.5q-82 0 -165 -24.5t-149.5 -72.5t-108.5 -120t-42 -164q0 -51 12.5 -96 t36 -79t57 -54.5t74.5 -20.5q6 0 15.5 2t17.5 2q10 0 10 -22q0 -12 -18.5 -15.5t-36.5 -3.5q-49 0 -87 27t-64.5 68.5t-40 93t-13.5 100.5q0 57 16.5 111.5t43 100.5t56.5 82t58 58q92 72 187.5 98.5t205.5 26.5q74 0 158 -12t146 -12q29 0 61.5 6t40.5 6q10 0 10 -6 q0 -10 -8 -16.5t-21 -18.5q-80 -80 -133 -180.5t-101 -209t-97 -219t-119 -208.5q-49 -70 -105.5 -131.5t-127 -106.5t-155.5 -70.5t-190 -25.5q-57 0 -103 19.5t-80 46t-52.5 54t-18.5 46.5zM766 1300q0 10 23.5 28t31.5 24q45 37 90 81t82 82.5t61.5 68.5t28.5 40 q10 23 31 23q14 0 21.5 -8.5t11.5 -39.5q4 -41 25.5 -92t46 -95t44 -75.5t19.5 -33.5q0 -16 -18 -17q-16 0 -43 27.5t-52.5 64.5t-45 73t-25.5 52q-12 -16 -59.5 -52t-100.5 -72t-99 -62.5t-59 -26.5q-14 0 -14 10z" />
<glyph unicode="&#xcf;" horiz-adv-x="1024" d="M18 166q0 12 3.5 14t9.5 2q10 0 21 -22.5t38 -50t73 -50t126 -22.5q96 0 176 43t147.5 111.5t124 157.5t106.5 181.5t95 181.5t90 156q39 59 86 121.5t127 140.5l-2 5q-80 -14 -172 -21.5t-219 -7.5q-82 0 -165 -24.5t-149.5 -72.5t-108.5 -120t-42 -164q0 -51 12.5 -96 t36 -79t57 -54.5t74.5 -20.5q6 0 15.5 2t17.5 2q10 0 10 -22q0 -12 -18.5 -15.5t-36.5 -3.5q-49 0 -87 27t-64.5 68.5t-40 93t-13.5 100.5q0 57 16.5 111.5t43 100.5t56.5 82t58 58q92 72 187.5 98.5t205.5 26.5q74 0 158 -12t146 -12q29 0 61.5 6t40.5 6q10 0 10 -6 q0 -10 -8 -16.5t-21 -18.5q-80 -80 -133 -180.5t-101 -209t-97 -219t-119 -208.5q-49 -70 -105.5 -131.5t-127 -106.5t-155.5 -70.5t-190 -25.5q-57 0 -103 19.5t-80 46t-52.5 54t-18.5 46.5zM831 1376q0 29 19.5 51.5t50.5 22.5t50.5 -22.5t19.5 -51.5t-19.5 -51t-50.5 -22 t-50.5 22.5t-19.5 50.5zM1163 1376q0 29 19.5 51.5t50.5 22.5t50.5 -22.5t19.5 -51.5t-19.5 -51t-50.5 -22t-50.5 22.5t-19.5 50.5z" />
<glyph unicode="&#xd0;" horiz-adv-x="1366" d="M106 795q0 111 51.5 190.5t131.5 131.5t179 78t196 26q123 0 240.5 -41t209.5 -117t148.5 -183.5t56.5 -238.5q0 -141 -61.5 -260t-163 -203t-230.5 -131t-262 -47q-139 0 -255 40t-208 132q-6 6 -14 14.5t-8 18.5t14 10q51 -41 106.5 -81t116.5 -62q43 -16 103.5 -25.5 t107.5 -9.5q127 0 243 51t204 137t140 200t52 241q0 123 -38 220t-108.5 162.5t-168.5 100.5t-221 35q-84 0 -176.5 -20.5t-169 -65.5t-128 -115t-51.5 -170q0 -39 3.5 -61.5t8.5 -36t8 -20.5t3 -15q0 -10 -10 -10q-12 0 -21.5 15t-15.5 35.5t-9.5 42t-3.5 32.5zM272 590 q0 10 6.5 13t16.5 5l285 21q23 53 49 109.5t61 110.5t77 103t95 90q12 10 35 23.5t37 13.5q8 0 8 -10q0 -4 -34 -38t-77 -111q-55 -98 -86.5 -166t-50.5 -117l318 22q23 0 22 -18q0 -10 -6 -13t-16 -5l-332 -25q-12 -27 -19.5 -46.5t-13.5 -37.5q-10 -27 -28.5 -64.5 t-45 -79.5t-58.5 -83t-65.5 -74t-67.5 -53.5t-65 -20.5q-16 0 -16 11q0 4 7 9t18 13q16 14 35.5 40t39 55.5t37 59t29.5 52.5q23 39 45.5 92t50.5 119l-268 -17q-23 0 -23 17z" />
<glyph unicode="&#xd1;" horiz-adv-x="1593" d="M160 860q0 68 26.5 132.5t72.5 115.5t107.5 82t133.5 31q131 0 209.5 -49.5t131 -125t88.5 -169t83 -181.5q8 -18 19 -50t23.5 -71.5t28.5 -87t39 -94.5h4q12 70 23.5 126t23 105.5t26.5 97.5t38 101q27 66 74 136.5t108.5 129t133 95.5t149.5 37q45 0 89 -15.5t78 -37 t54.5 -47t20.5 -44.5q0 -8 -7 -8q-4 0 -21.5 14.5t-45 33t-65.5 32.5t-87 14q-66 0 -132 -34.5t-127.5 -95t-116 -141.5t-94.5 -171t-62.5 -186.5t-22.5 -186.5q0 -43 7.5 -97t28 -102.5t57 -80t94.5 -31.5q39 0 66.5 20.5t46 44t30.5 44t20 20.5q4 0 8.5 -1t4.5 -11 q0 -16 -13.5 -42t-40 -50.5t-64.5 -43t-87 -18.5q-74 0 -117 36t-81 113.5t-83 198.5t-125 291l-26 57h-4q-10 -47 -27.5 -116.5t-46.5 -147.5t-72 -154.5t-101 -138t-133 -100.5t-171 -39q-29 0 -57.5 8t-51 24.5t-37 41t-14.5 57.5q0 12 4 30.5t17 18.5q14 0 14 -10 q0 -8 1 -22.5t1 -24.5q0 -41 34 -63.5t91 -22.5q76 0 143.5 33.5t125 91t102.5 130.5t76.5 150.5t48 154.5t16.5 142q0 61 -25.5 139t-71.5 146t-107.5 114t-131.5 46q-68 0 -125 -27t-99 -71t-66.5 -103t-24.5 -125q0 -43 9 -73.5t21.5 -52t21.5 -36t9 -22.5q0 -10 -12 -10 q-10 0 -24.5 18t-29 47t-23.5 63.5t-9 67.5zM901 1305q0 10 7 39.5t24.5 61.5t46.5 56.5t70 24.5q35 0 68.5 -11.5t66.5 -27.5t61.5 -27.5t52.5 -11.5q45 0 70 16.5t38 36t20.5 35.5t19.5 16q4 0 8 -5t4 -23q0 -29 -14 -58.5t-38 -54t-53.5 -41t-60.5 -16.5q-35 0 -66.5 11 t-60.5 28q-29 16 -59.5 27.5t-67.5 11.5q-33 0 -53 -17.5t-33.5 -37t-21 -37t-15.5 -17.5q-14 0 -14 21z" />
<glyph unicode="&#xd2;" horiz-adv-x="1138" d="M86 461q0 88 14.5 163.5t42 144.5t67.5 134.5t93 132.5q14 18 43 49t58.5 58.5t56 48t37.5 20.5q10 0 10 -12q0 -8 -23 -26q-35 -29 -70.5 -76t-68.5 -104.5t-60.5 -118t-43.5 -117.5q-18 -59 -30.5 -102.5t-22 -86.5t-13.5 -92t-4 -119q0 -57 16.5 -114.5t51 -103.5 t90 -74.5t135.5 -28.5q70 0 142.5 43t141 112.5t129 159.5t106.5 184.5t72.5 184.5t26.5 162q0 98 -11 158.5t-40 97.5q-29 41 -85 63.5t-111 22.5q-66 0 -117 -15.5t-92 -43t-76 -65.5t-68 -83q-14 -20 -23 -43t-16.5 -41.5t-13.5 -29.5t-16 -11q-6 0 -7 9t-1 13 q0 12 10 36t24.5 49.5t28.5 48t25 34.5q61 78 144 128.5t185 50.5q94 0 160 -37t106.5 -96.5t60 -134t19.5 -148.5q0 -90 -23.5 -187.5t-65.5 -190.5t-103.5 -178t-137 -149.5t-166 -102.5t-188.5 -38t-172.5 37t-125 100.5t-76 147.5t-25.5 176zM627 1593q0 23 16 40.5 t33 17.5q33 0 50 -20.5t26.5 -48.5t15.5 -58.5t16 -50.5q20 -45 48 -75t52.5 -49.5t41 -30.5t16.5 -18q0 -14 -14 -14q-12 0 -61.5 27.5t-102.5 70.5t-95 98.5t-42 110.5z" />
<glyph unicode="&#xd3;" horiz-adv-x="1138" d="M86 461q0 88 14.5 163.5t42 144.5t67.5 134.5t93 132.5q14 18 43 49t58.5 58.5t56 48t37.5 20.5q10 0 10 -12q0 -8 -23 -26q-35 -29 -70.5 -76t-68.5 -104.5t-60.5 -118t-43.5 -117.5q-18 -59 -30.5 -102.5t-22 -86.5t-13.5 -92t-4 -119q0 -57 16.5 -114.5t51 -103.5 t90 -74.5t135.5 -28.5q70 0 142.5 43t141 112.5t129 159.5t106.5 184.5t72.5 184.5t26.5 162q0 98 -11 158.5t-40 97.5q-29 41 -85 63.5t-111 22.5q-66 0 -117 -15.5t-92 -43t-76 -65.5t-68 -83q-14 -20 -23 -43t-16.5 -41.5t-13.5 -29.5t-16 -11q-6 0 -7 9t-1 13 q0 12 10 36t24.5 49.5t28.5 48t25 34.5q61 78 144 128.5t185 50.5q94 0 160 -37t106.5 -96.5t60 -134t19.5 -148.5q0 -90 -23.5 -187.5t-65.5 -190.5t-103.5 -178t-137 -149.5t-166 -102.5t-188.5 -38t-172.5 37t-125 100.5t-76 147.5t-25.5 176zM762 1300q0 6 16.5 17.5 t41 31t51 49t49.5 75.5q10 20 16 50.5t15.5 58.5t26.5 48.5t50 20.5q16 0 32.5 -17.5t16.5 -40.5q0 -55 -42 -110.5t-95 -98.5t-102.5 -70.5t-61.5 -27.5q-14 0 -14 14z" />
<glyph unicode="&#xd4;" horiz-adv-x="1138" d="M86 461q0 88 14.5 163.5t42 144.5t67.5 134.5t93 132.5q14 18 43 49t58.5 58.5t56 48t37.5 20.5q10 0 10 -12q0 -8 -23 -26q-35 -29 -70.5 -76t-68.5 -104.5t-60.5 -118t-43.5 -117.5q-18 -59 -30.5 -102.5t-22 -86.5t-13.5 -92t-4 -119q0 -57 16.5 -114.5t51 -103.5 t90 -74.5t135.5 -28.5q70 0 142.5 43t141 112.5t129 159.5t106.5 184.5t72.5 184.5t26.5 162q0 98 -11 158.5t-40 97.5q-29 41 -85 63.5t-111 22.5q-66 0 -117 -15.5t-92 -43t-76 -65.5t-68 -83q-14 -20 -23 -43t-16.5 -41.5t-13.5 -29.5t-16 -11q-6 0 -7 9t-1 13 q0 12 10 36t24.5 49.5t28.5 48t25 34.5q61 78 144 128.5t185 50.5q94 0 160 -37t106.5 -96.5t60 -134t19.5 -148.5q0 -90 -23.5 -187.5t-65.5 -190.5t-103.5 -178t-137 -149.5t-166 -102.5t-188.5 -38t-172.5 37t-125 100.5t-76 147.5t-25.5 176zM551 1300q0 10 23.5 28 t31.5 24q45 37 90 81t82 82.5t61.5 68.5t28.5 40q10 23 31 23q14 0 21.5 -8.5t11.5 -39.5q4 -41 25.5 -92t46 -95t44 -75.5t19.5 -33.5q0 -16 -18 -17q-16 0 -43 27.5t-52.5 64.5t-45 73t-25.5 52q-12 -16 -59.5 -52t-100.5 -72t-99 -62.5t-59 -26.5q-14 0 -14 10z" />
<glyph unicode="&#xd5;" horiz-adv-x="1138" d="M86 461q0 88 14.5 163.5t42 144.5t67.5 134.5t93 132.5q14 18 43 49t58.5 58.5t56 48t37.5 20.5q10 0 10 -12q0 -8 -23 -26q-35 -29 -70.5 -76t-68.5 -104.5t-60.5 -118t-43.5 -117.5q-18 -59 -30.5 -102.5t-22 -86.5t-13.5 -92t-4 -119q0 -57 16.5 -114.5t51 -103.5 t90 -74.5t135.5 -28.5q70 0 142.5 43t141 112.5t129 159.5t106.5 184.5t72.5 184.5t26.5 162q0 98 -11 158.5t-40 97.5q-29 41 -85 63.5t-111 22.5q-66 0 -117 -15.5t-92 -43t-76 -65.5t-68 -83q-14 -20 -23 -43t-16.5 -41.5t-13.5 -29.5t-16 -11q-6 0 -7 9t-1 13 q0 12 10 36t24.5 49.5t28.5 48t25 34.5q61 78 144 128.5t185 50.5q94 0 160 -37t106.5 -96.5t60 -134t19.5 -148.5q0 -90 -23.5 -187.5t-65.5 -190.5t-103.5 -178t-137 -149.5t-166 -102.5t-188.5 -38t-172.5 37t-125 100.5t-76 147.5t-25.5 176zM567 1305q0 10 7.5 39.5 t24.5 61.5t46 56.5t70 24.5q35 0 68.5 -11.5t66.5 -27.5t61.5 -27.5t53.5 -11.5q45 0 69.5 16.5t37.5 36t20.5 35.5t19.5 16q4 0 8 -5t4 -23q0 -29 -14 -58.5t-37.5 -54t-53.5 -41t-61 -16.5q-35 0 -66.5 11t-60.5 28q-29 16 -59.5 27.5t-66.5 11.5q-33 0 -53.5 -17.5 t-34 -37t-20.5 -37t-15 -17.5q-14 0 -15 21z" />
<glyph unicode="&#xd6;" horiz-adv-x="1138" d="M86 461q0 88 14.5 163.5t42 144.5t67.5 134.5t93 132.5q14 18 43 49t58.5 58.5t56 48t37.5 20.5q10 0 10 -12q0 -8 -23 -26q-35 -29 -70.5 -76t-68.5 -104.5t-60.5 -118t-43.5 -117.5q-18 -59 -30.5 -102.5t-22 -86.5t-13.5 -92t-4 -119q0 -57 16.5 -114.5t51 -103.5 t90 -74.5t135.5 -28.5q70 0 142.5 43t141 112.5t129 159.5t106.5 184.5t72.5 184.5t26.5 162q0 98 -11 158.5t-40 97.5q-29 41 -85 63.5t-111 22.5q-66 0 -117 -15.5t-92 -43t-76 -65.5t-68 -83q-14 -20 -23 -43t-16.5 -41.5t-13.5 -29.5t-16 -11q-6 0 -7 9t-1 13 q0 12 10 36t24.5 49.5t28.5 48t25 34.5q61 78 144 128.5t185 50.5q94 0 160 -37t106.5 -96.5t60 -134t19.5 -148.5q0 -90 -23.5 -187.5t-65.5 -190.5t-103.5 -178t-137 -149.5t-166 -102.5t-188.5 -38t-172.5 37t-125 100.5t-76 147.5t-25.5 176zM616 1376q0 29 19.5 51.5 t50.5 22.5t50.5 -22.5t19.5 -51.5t-19.5 -51t-50.5 -22t-50.5 22.5t-19.5 50.5zM948 1376q0 29 19.5 51.5t50.5 22.5t50 -22.5t19 -51.5t-19 -51t-50 -22t-50.5 22.5t-19.5 50.5z" />
<glyph unicode="&#xd7;" horiz-adv-x="1228" d="M317 41l256 256l-256 260l39 37l258 -258l258 258l39 -37l-258 -260l258 -256l-39 -41l-258 256l-258 -256z" />
<glyph unicode="&#xd8;" horiz-adv-x="1138" d="M49 -217l193 299q-78 61 -117 161.5t-39 217.5q0 88 14.5 163.5t42 144.5t67.5 134.5t93 132.5q14 18 43 49t58.5 58.5t56 48t37.5 20.5q10 0 10 -12q0 -8 -23 -26q-35 -29 -70.5 -76t-68.5 -104.5t-60.5 -118t-43.5 -117.5q-18 -59 -30.5 -102.5t-22 -86.5t-13.5 -92 t-4 -119q0 -66 21.5 -131t70.5 -112l697 1079q-59 31 -125 31t-117 -15.5t-92 -43t-76 -65.5t-68 -83q-14 -20 -23 -43t-16.5 -41.5t-13.5 -29.5t-16 -11q-6 0 -7 9t-1 13q0 12 10 36t24.5 49.5t28.5 48t25 34.5q61 78 144 128.5t185 50.5q90 0 158 -37l143 221h60 l-160 -248q78 -61 111.5 -157.5t33.5 -194.5q0 -90 -23.5 -187.5t-65.5 -190.5t-103.5 -178t-137 -149.5t-165.5 -102.5t-189 -38q-117 0 -200 53l-176 -270h-60zM303 82q68 -45 162 -45q70 0 142.5 43t141 112.5t129 159.5t106.5 184.5t72.5 184.5t26.5 162q0 98 -11 158.5 t-40 97.5q-4 8 -11 14t-17 14z" />
<glyph unicode="&#xd9;" horiz-adv-x="1478" d="M119 653q0 109 47 211.5t127 181t182.5 127t212.5 48.5q129 0 197.5 -75t68.5 -196q0 -51 -26.5 -122.5t-65.5 -152.5t-85 -166t-85 -163t-65.5 -144.5t-26.5 -109.5q0 -33 14.5 -44t49.5 -11q37 0 91 39t115.5 102.5t122 143t109.5 161.5q135 225 235.5 367.5t169 222.5 t107.5 109.5t51 29.5t12 -14q0 -6 -15 -18.5t-42 -53.5q-68 -106 -125 -219.5t-104.5 -224.5t-83 -212t-60 -181t-37 -133.5t-12.5 -65.5q0 -16 8 -34.5t33 -18.5q14 0 25.5 8t18.5 18.5t13.5 18.5t12.5 8q14 0 14 -14q0 -10 -9 -23.5t-23.5 -25t-32 -19.5t-35.5 -8 q-59 0 -84 6t-56 6q-29 0 -56.5 -6t-55.5 -6q-33 0 -33 16q0 6 5 13.5t22 7.5q20 0 35.5 7t28.5 23.5t25.5 46t30.5 76.5q27 72 54.5 140.5t58.5 140.5t69 154t85 182l-4 4q-18 -18 -58.5 -85t-94.5 -157t-120.5 -190t-137.5 -184t-140.5 -139.5t-132.5 -55.5q-74 0 -108 42 t-34 110q0 55 28 129.5t68.5 157.5t89 169t89.5 166t68.5 147.5t27.5 112.5q0 37 -19.5 65.5t-50 47t-68.5 28t-77 9.5q-106 0 -195.5 -58.5t-153 -147.5t-98 -194.5t-34.5 -199.5q0 -31 7 -61.5t21.5 -54.5t38 -39t53.5 -15q23 0 38.5 -3t15.5 -12q0 -10 -17.5 -16 t-36.5 -6q-51 0 -87.5 26.5t-61.5 68.5t-37 90t-12 91zM1034 1593q0 23 16.5 40.5t32.5 17.5q33 0 50.5 -20.5t26.5 -48.5t15.5 -58.5t16.5 -50.5q20 -45 48 -75t52.5 -49.5t41 -30.5t16.5 -18q0 -14 -15 -14q-12 0 -61 27.5t-102.5 70.5t-95.5 98.5t-42 110.5z" />
<glyph unicode="&#xda;" horiz-adv-x="1478" d="M119 653q0 109 47 211.5t127 181t182.5 127t212.5 48.5q129 0 197.5 -75t68.5 -196q0 -51 -26.5 -122.5t-65.5 -152.5t-85 -166t-85 -163t-65.5 -144.5t-26.5 -109.5q0 -33 14.5 -44t49.5 -11q37 0 91 39t115.5 102.5t122 143t109.5 161.5q135 225 235.5 367.5t169 222.5 t107.5 109.5t51 29.5t12 -14q0 -6 -15 -18.5t-42 -53.5q-68 -106 -125 -219.5t-104.5 -224.5t-83 -212t-60 -181t-37 -133.5t-12.5 -65.5q0 -16 8 -34.5t33 -18.5q14 0 25.5 8t18.5 18.5t13.5 18.5t12.5 8q14 0 14 -14q0 -10 -9 -23.5t-23.5 -25t-32 -19.5t-35.5 -8 q-59 0 -84 6t-56 6q-29 0 -56.5 -6t-55.5 -6q-33 0 -33 16q0 6 5 13.5t22 7.5q20 0 35.5 7t28.5 23.5t25.5 46t30.5 76.5q27 72 54.5 140.5t58.5 140.5t69 154t85 182l-4 4q-18 -18 -58.5 -85t-94.5 -157t-120.5 -190t-137.5 -184t-140.5 -139.5t-132.5 -55.5q-74 0 -108 42 t-34 110q0 55 28 129.5t68.5 157.5t89 169t89.5 166t68.5 147.5t27.5 112.5q0 37 -19.5 65.5t-50 47t-68.5 28t-77 9.5q-106 0 -195.5 -58.5t-153 -147.5t-98 -194.5t-34.5 -199.5q0 -31 7 -61.5t21.5 -54.5t38 -39t53.5 -15q23 0 38.5 -3t15.5 -12q0 -10 -17.5 -16 t-36.5 -6q-51 0 -87.5 26.5t-61.5 68.5t-37 90t-12 91zM1169 1300q0 6 16.5 17.5t41 31t51.5 49t49 75.5q10 20 16.5 50.5t15.5 58.5t26.5 48.5t50.5 20.5q16 0 32.5 -17.5t16.5 -40.5q0 -55 -42 -110.5t-95.5 -98.5t-102.5 -70.5t-61 -27.5q-14 0 -15 14z" />
<glyph unicode="&#xdb;" horiz-adv-x="1478" d="M119 653q0 109 47 211.5t127 181t182.5 127t212.5 48.5q129 0 197.5 -75t68.5 -196q0 -51 -26.5 -122.5t-65.5 -152.5t-85 -166t-85 -163t-65.5 -144.5t-26.5 -109.5q0 -33 14.5 -44t49.5 -11q37 0 91 39t115.5 102.5t122 143t109.5 161.5q135 225 235.5 367.5t169 222.5 t107.5 109.5t51 29.5t12 -14q0 -6 -15 -18.5t-42 -53.5q-68 -106 -125 -219.5t-104.5 -224.5t-83 -212t-60 -181t-37 -133.5t-12.5 -65.5q0 -16 8 -34.5t33 -18.5q14 0 25.5 8t18.5 18.5t13.5 18.5t12.5 8q14 0 14 -14q0 -10 -9 -23.5t-23.5 -25t-32 -19.5t-35.5 -8 q-59 0 -84 6t-56 6q-29 0 -56.5 -6t-55.5 -6q-33 0 -33 16q0 6 5 13.5t22 7.5q20 0 35.5 7t28.5 23.5t25.5 46t30.5 76.5q27 72 54.5 140.5t58.5 140.5t69 154t85 182l-4 4q-18 -18 -58.5 -85t-94.5 -157t-120.5 -190t-137.5 -184t-140.5 -139.5t-132.5 -55.5q-74 0 -108 42 t-34 110q0 55 28 129.5t68.5 157.5t89 169t89.5 166t68.5 147.5t27.5 112.5q0 37 -19.5 65.5t-50 47t-68.5 28t-77 9.5q-106 0 -195.5 -58.5t-153 -147.5t-98 -194.5t-34.5 -199.5q0 -31 7 -61.5t21.5 -54.5t38 -39t53.5 -15q23 0 38.5 -3t15.5 -12q0 -10 -17.5 -16 t-36.5 -6q-51 0 -87.5 26.5t-61.5 68.5t-37 90t-12 91zM958 1300q0 10 24 28l32 24q45 37 90 81t82 82.5t61.5 68.5t28.5 40q10 23 31 23q14 0 21 -8.5t11 -39.5q4 -41 25.5 -92t46.5 -95t44.5 -75.5t19.5 -33.5q0 -16 -19 -17q-16 0 -43 27.5t-52.5 64.5t-45 73t-25.5 52 q-12 -16 -59 -52t-100.5 -72t-99.5 -62.5t-58 -26.5q-14 0 -15 10z" />
<glyph unicode="&#xdc;" horiz-adv-x="1478" d="M119 653q0 109 47 211.5t127 181t182.5 127t212.5 48.5q129 0 197.5 -75t68.5 -196q0 -51 -26.5 -122.5t-65.5 -152.5t-85 -166t-85 -163t-65.5 -144.5t-26.5 -109.5q0 -33 14.5 -44t49.5 -11q37 0 91 39t115.5 102.5t122 143t109.5 161.5q135 225 235.5 367.5t169 222.5 t107.5 109.5t51 29.5t12 -14q0 -6 -15 -18.5t-42 -53.5q-68 -106 -125 -219.5t-104.5 -224.5t-83 -212t-60 -181t-37 -133.5t-12.5 -65.5q0 -16 8 -34.5t33 -18.5q14 0 25.5 8t18.5 18.5t13.5 18.5t12.5 8q14 0 14 -14q0 -10 -9 -23.5t-23.5 -25t-32 -19.5t-35.5 -8 q-59 0 -84 6t-56 6q-29 0 -56.5 -6t-55.5 -6q-33 0 -33 16q0 6 5 13.5t22 7.5q20 0 35.5 7t28.5 23.5t25.5 46t30.5 76.5q27 72 54.5 140.5t58.5 140.5t69 154t85 182l-4 4q-18 -18 -58.5 -85t-94.5 -157t-120.5 -190t-137.5 -184t-140.5 -139.5t-132.5 -55.5q-74 0 -108 42 t-34 110q0 55 28 129.5t68.5 157.5t89 169t89.5 166t68.5 147.5t27.5 112.5q0 37 -19.5 65.5t-50 47t-68.5 28t-77 9.5q-106 0 -195.5 -58.5t-153 -147.5t-98 -194.5t-34.5 -199.5q0 -31 7 -61.5t21.5 -54.5t38 -39t53.5 -15q23 0 38.5 -3t15.5 -12q0 -10 -17.5 -16 t-36.5 -6q-51 0 -87.5 26.5t-61.5 68.5t-37 90t-12 91zM1024 1376q0 29 19.5 51.5t50.5 22.5t50 -22.5t19 -51.5t-19.5 -51t-49.5 -22q-31 0 -50.5 22.5t-19.5 50.5zM1356 1376q0 29 19 51.5t50 22.5t50.5 -22.5t19.5 -51.5t-19.5 -51t-50.5 -22t-50 22.5t-19 50.5z" />
<glyph unicode="&#xdd;" horiz-adv-x="1251" d="M-27 -147q0 27 5.5 46t15.5 19q12 0 16 -12q4 -8 2 -20.5t-2 -28.5q0 -82 55.5 -137.5t147.5 -55.5q131 0 250 67.5t219 175t181 238.5t139.5 259t91 238t36.5 171h-4q-25 -51 -57.5 -119.5t-74.5 -141.5t-91 -142.5t-106.5 -125t-121 -89t-132.5 -33.5q-70 0 -119 25.5 t-80 68.5t-45 99.5t-14 117.5q0 94 25.5 181t66.5 168t92 157.5t104 148.5l-4 7q-55 -16 -108 -35t-113 -19q-25 0 -59.5 6.5t-67.5 12.5t-60.5 12t-39.5 6q-41 0 -66.5 -20.5t-25.5 -73.5q0 -8 4 -17.5t4 -19.5t-19 -10q-12 0 -19 23.5t-7 46.5q0 41 16.5 70.5t43 49 t61 28.5t71.5 9q39 0 74 -6t68.5 -12t69.5 -12.5t77 -6.5q37 0 65.5 6.5t51.5 12.5q23 8 37 13t22 5q10 0 10 -12q0 -2 -40.5 -55.5t-89 -144.5t-89.5 -213t-41 -259q0 -47 11.5 -97t35 -91t60.5 -68.5t88 -27.5q25 0 55.5 7t59.5 23q41 25 91 79t99 126t95 155t82 161.5 t57.5 148.5t21.5 117q0 53 -10 87t-10 42t7 9t11 1q41 -59 62.5 -142t21.5 -153q0 -90 -20.5 -192.5t-58.5 -208t-91 -212t-121 -202.5t-152.5 -179t-180 -144.5t-192.5 -96.5t-190 -35q-49 0 -96 14.5t-83 43t-57.5 70.5t-21.5 98zM760 1300q0 6 16.5 17.5t41 31t51 49 t49.5 75.5q10 20 16 50.5t15 58.5t26.5 48.5t50.5 20.5q16 0 32.5 -17.5t16.5 -40.5q0 -55 -42 -110.5t-95 -98.5t-102.5 -70.5t-61.5 -27.5q-14 0 -14 14z" />
<glyph unicode="&#xde;" horiz-adv-x="1366" d="M18 166q0 12 3.5 14t9.5 2t17 -22.5t38 -50t75 -50t128 -22.5q96 0 176 43t147.5 111.5t124 157.5t106.5 181.5t95 181.5t90 156q39 59 86 122t127 140l-2 5q-80 -14 -172 -21.5t-219 -7.5q-82 0 -165 -24.5t-149.5 -72.5t-108.5 -120t-42 -164q0 -51 12.5 -96t36 -79 t57 -54.5t74.5 -20.5q18 0 30.5 -4t12.5 -14t-15.5 -14.5t-39.5 -4.5q-49 0 -87 27t-64.5 68.5t-40 93t-13.5 100.5q0 57 16.5 111.5t43 100.5t56.5 82t58 58q92 72 187.5 98.5t205.5 26.5q74 0 158 -10t146 -10q29 0 61.5 4t40.5 4q10 0 10 -6q0 -10 -8 -16.5t-21 -18.5 q-53 -53 -95 -117.5t-77 -136.5q61 0 94 6t51.5 14.5t31 14.5t34.5 6q18 0 42 -24.5t44.5 -63.5t35 -87t14.5 -93q0 -92 -35 -174t-96.5 -143.5t-142.5 -96.5t-173 -35q-31 0 -63.5 7.5t-60 19.5t-47 27.5t-28.5 29.5q-47 -66 -103 -121t-123.5 -96t-149.5 -64.5t-181 -23.5 q-57 0 -103 19.5t-80 46t-52.5 54t-18.5 46.5zM844 326q16 -14 51 -37t104 -23q80 0 152 51.5t127 127t87 162.5t32 159q0 18 -3 40.5t-11.5 44t-19.5 36t-30 14.5q-4 0 -24.5 -8t-53 -18.5t-72.5 -20.5t-81 -14q-59 -125 -119.5 -262.5t-138.5 -251.5z" />
<glyph unicode="&#xdf;" horiz-adv-x="796" d="M-342 -420q0 10 23.5 31.5t57.5 55.5t71.5 80t66.5 106q53 109 85 187.5t61 137.5q59 117 114.5 240t111.5 238.5t115.5 217t126 178t142.5 121t166 44.5q84 0 117.5 -53.5t33.5 -125.5q0 -76 -35.5 -136t-90 -106t-117 -79t-116.5 -56.5t-90 -37t-36 -19.5 q0 -14 36 -26.5t79 -37t78.5 -67.5t35.5 -119t-35.5 -140t-94 -112.5t-133.5 -75t-150 -26.5q-51 0 -80 15.5t-29 70.5q0 92 111 92q10 0 19 -3t9 -11q0 -6 -11 -16.5t-25.5 -22.5t-25.5 -26.5t-11 -30.5q0 -31 41 -31q33 0 58 6t50 23q37 25 71 59.5t61.5 75.5t44 86 t16.5 90q0 63 -25 98t-55.5 55.5t-55 36t-24.5 39.5q0 6 33.5 28.5t85 56.5t110 80t109.5 100.5t85 117t34 129.5q0 33 -30 47.5t-59 14.5q-63 0 -124.5 -57.5t-113.5 -136.5t-93 -161t-66 -131q-59 -121 -113.5 -241.5t-106.5 -234.5t-105.5 -215t-108.5 -181 q-27 -39 -69 -84t-84 -83t-77.5 -63.5t-50.5 -25.5q-18 0 -18 14z" />
<glyph unicode="&#xe0;" horiz-adv-x="796" d="M10 174q0 74 53.5 143.5t133 124t174 87t178.5 32.5q66 0 118 -6t81 -29q-25 -37 -62 -93t-71.5 -117.5t-59.5 -121t-25 -102.5q0 -18 9.5 -36.5t31.5 -18.5q29 0 44.5 13t22.5 29.5t11 30t10 13.5q8 0 12.5 -1t4.5 -11q0 -18 -6 -34t-27 -40q-10 -14 -20.5 -21.5 t-23.5 -10.5t-31.5 -4t-45.5 -1h-153q-14 0 -15 8q0 10 2 14.5t4 14.5q-39 -23 -74.5 -30t-78.5 -7q-92 0 -144.5 38t-52.5 136zM137 184q0 -59 30 -93t91 -34q49 0 84 18.5t57.5 45t36 55.5t23.5 51q41 102 81 165t76 124q-20 8 -41 8q-57 0 -132.5 -28.5t-143.5 -76.5 t-115 -110t-47 -125zM350 963q0 23 16.5 40t32.5 17q33 0 50.5 -20.5t26.5 -48t15.5 -58.5t16.5 -51q20 -45 48 -75t52.5 -49.5t41 -30.5t16.5 -17q0 -14 -15 -15q-12 0 -61 28t-102.5 71t-95.5 98.5t-42 110.5z" />
<glyph unicode="&#xe1;" horiz-adv-x="796" d="M10 174q0 74 53.5 143.5t133 124t174 87t178.5 32.5q66 0 118 -6t81 -29q-25 -37 -62 -93t-71.5 -117.5t-59.5 -121t-25 -102.5q0 -18 9.5 -36.5t31.5 -18.5q29 0 44.5 13t22.5 29.5t11 30t10 13.5q8 0 12.5 -1t4.5 -11q0 -18 -6 -34t-27 -40q-10 -14 -20.5 -21.5 t-23.5 -10.5t-31.5 -4t-45.5 -1h-153q-14 0 -15 8q0 10 2 14.5t4 14.5q-39 -23 -74.5 -30t-78.5 -7q-92 0 -144.5 38t-52.5 136zM137 184q0 -59 30 -93t91 -34q49 0 84 18.5t57.5 45t36 55.5t23.5 51q41 102 81 165t76 124q-20 8 -41 8q-57 0 -132.5 -28.5t-143.5 -76.5 t-115 -110t-47 -125zM485 670q0 6 16.5 17t41 30.5t51.5 49.5t49 75q10 20 16.5 51t15.5 58.5t26.5 48t50.5 20.5q16 0 32.5 -17t16.5 -40q0 -55 -42 -110.5t-95.5 -98.5t-102.5 -71t-61 -28q-14 0 -15 15z" />
<glyph unicode="&#xe2;" horiz-adv-x="796" d="M10 174q0 74 53.5 143.5t133 124t174 87t178.5 32.5q66 0 118 -6t81 -29q-25 -37 -62 -93t-71.5 -117.5t-59.5 -121t-25 -102.5q0 -18 9.5 -36.5t31.5 -18.5q29 0 44.5 13t22.5 29.5t11 30t10 13.5q8 0 12.5 -1t4.5 -11q0 -18 -6 -34t-27 -40q-10 -14 -20.5 -21.5 t-23.5 -10.5t-31.5 -4t-45.5 -1h-153q-14 0 -15 8q0 10 2 14.5t4 14.5q-39 -23 -74.5 -30t-78.5 -7q-92 0 -144.5 38t-52.5 136zM137 184q0 -59 30 -93t91 -34q49 0 84 18.5t57.5 45t36 55.5t23.5 51q41 102 81 165t76 124q-20 8 -41 8q-57 0 -132.5 -28.5t-143.5 -76.5 t-115 -110t-47 -125zM274 670q0 10 24 27.5t32 23.5q45 37 90 81t82 83t61.5 68.5t28.5 39.5q10 23 31 23q14 0 21 -8.5t11 -38.5q4 -41 25.5 -92.5t46.5 -95.5t44.5 -75.5t19.5 -33.5q0 -16 -19 -17q-16 0 -43 28t-52.5 64.5t-45 72.5t-25.5 52q-12 -16 -59 -52 t-100.5 -71.5t-99.5 -62.5t-58 -27q-14 0 -15 11z" />
<glyph unicode="&#xe3;" horiz-adv-x="796" d="M10 174q0 74 53.5 143.5t133 124t174 87t178.5 32.5q66 0 118 -6t81 -29q-25 -37 -62 -93t-71.5 -117.5t-59.5 -121t-25 -102.5q0 -18 9.5 -36.5t31.5 -18.5q29 0 44.5 13t22.5 29.5t11 30t10 13.5q8 0 12.5 -1t4.5 -11q0 -18 -6 -34t-27 -40q-10 -14 -20.5 -21.5 t-23.5 -10.5t-31.5 -4t-45.5 -1h-153q-14 0 -15 8q0 10 2 14.5t4 14.5q-39 -23 -74.5 -30t-78.5 -7q-92 0 -144.5 38t-52.5 136zM137 184q0 -59 30 -93t91 -34q49 0 84 18.5t57.5 45t36 55.5t23.5 51q41 102 81 165t76 124q-20 8 -41 8q-57 0 -132.5 -28.5t-143.5 -76.5 t-115 -110t-47 -125zM291 674q0 10 7 39.5t24.5 61.5t46 56.5t69.5 24.5q35 0 69 -11t66 -28q33 -16 62 -27.5t53 -11.5q45 0 69.5 16.5t38 36t20.5 36t20 16.5q4 0 8 -5.5t4 -23.5q0 -29 -14.5 -58.5t-38 -54t-53 -41t-60.5 -16.5q-35 0 -66.5 11.5t-60.5 27.5t-59.5 27.5 t-67.5 11.5q-33 0 -53.5 -17.5t-33.5 -37t-20.5 -37t-15.5 -17.5q-14 0 -14 21z" />
<glyph unicode="&#xe4;" horiz-adv-x="796" d="M10 174q0 74 53.5 143.5t133 124t174 87t178.5 32.5q66 0 118 -6t81 -29q-25 -37 -62 -93t-71.5 -117.5t-59.5 -121t-25 -102.5q0 -18 9.5 -36.5t31.5 -18.5q29 0 44.5 13t22.5 29.5t11 30t10 13.5q8 0 12.5 -1t4.5 -11q0 -18 -6 -34t-27 -40q-10 -14 -20.5 -21.5 t-23.5 -10.5t-31.5 -4t-45.5 -1h-153q-14 0 -15 8q0 10 2 14.5t4 14.5q-39 -23 -74.5 -30t-78.5 -7q-92 0 -144.5 38t-52.5 136zM137 184q0 -59 30 -93t91 -34q49 0 84 18.5t57.5 45t36 55.5t23.5 51q41 102 81 165t76 124q-20 8 -41 8q-57 0 -132.5 -28.5t-143.5 -76.5 t-115 -110t-47 -125zM340 745q0 29 19.5 51.5t50.5 22.5t50 -22.5t19 -51.5t-19.5 -51t-49.5 -22q-31 0 -50.5 22.5t-19.5 50.5zM672 745q0 29 19 51.5t50 22.5t50.5 -22.5t19.5 -51.5t-19.5 -51t-50.5 -22t-50 22.5t-19 50.5z" />
<glyph unicode="&#xe5;" horiz-adv-x="796" d="M10 174q0 74 53.5 143.5t133 124t174 87t178.5 32.5q66 0 118 -6t81 -29q-25 -37 -62 -93t-71.5 -117.5t-59.5 -121t-25 -102.5q0 -18 9.5 -36.5t31.5 -18.5q29 0 44.5 13t22.5 29.5t11 30t10 13.5q8 0 12.5 -1t4.5 -11q0 -18 -6 -34t-27 -40q-10 -14 -20.5 -21.5 t-23.5 -10.5t-31.5 -4t-45.5 -1h-153q-14 0 -15 8q0 10 2 14.5t4 14.5q-39 -23 -74.5 -30t-78.5 -7q-92 0 -144.5 38t-52.5 136zM137 184q0 -59 30 -93t91 -34q49 0 84 18.5t57.5 45t36 55.5t23.5 51q41 102 81 165t76 124q-20 8 -41 8q-57 0 -132.5 -28.5t-143.5 -76.5 t-115 -110t-47 -125zM477 874q0 43 17.5 83t47 71t69.5 48.5t85 17.5t85 -17.5t70 -48.5t47 -70.5t17 -83.5q0 -43 -17 -82.5t-47 -70.5t-70 -48.5t-85 -17.5t-85 17.5t-69.5 48.5t-47 70.5t-17.5 82.5zM539 874q0 -66 45 -111.5t112 -45.5q68 0 113 46t45 111q0 66 -45 112 t-113 46t-112.5 -46t-44.5 -112z" />
<glyph unicode="&#xe6;" horiz-adv-x="1138" d="M0 178q0 63 36 122.5t90 107t118.5 82t120.5 53.5q53 16 98 23t100 7q41 0 82 -8t80 -18q59 29 121.5 46t128.5 17q53 0 76.5 -22.5t23.5 -71.5q0 -29 -23.5 -77t-69.5 -95t-114.5 -81t-156.5 -34q-41 0 -80 5.5t-78 19.5q-29 -41 -29 -94q0 -29 20.5 -48.5t48.5 -31.5 t58.5 -17.5t53.5 -5.5q80 0 138 16.5t124 63.5q16 12 22 13q10 0 13.5 -6.5t3.5 -12.5t-12.5 -16.5t-28 -22.5t-29.5 -22.5t-21 -12.5q-29 -16 -53 -27.5t-53 -17.5t-65.5 -9t-88.5 -3q-43 0 -74.5 5t-57 12.5t-48 12.5t-49.5 5q-10 0 -19.5 -2t-19.5 -2q-14 0 -25.5 3 t-19.5 15q-41 -29 -75 -39t-85 -10q-84 0 -133 46t-49 132zM127 197q0 -127 129 -127q63 0 95 33.5t57 89.5q12 29 32.5 71.5t45 90.5t53 94.5t61.5 82.5q-10 4 -24.5 4.5t-32.5 0.5q-53 0 -125 -29t-136.5 -76t-109.5 -108t-45 -127zM571 289q27 -10 53.5 -12.5t55.5 -2.5 q41 0 90 17.5t91 47.5t71 70t29 87q0 23 -23 40t-64 17q-49 0 -96 -25.5t-86 -64.5t-70.5 -85t-50.5 -89z" />
<glyph unicode="&#xe7;" d="M-82 -297q0 14 14 14q6 0 27 -6t48.5 -14t60 -14.5t65.5 -6.5q25 0 53.5 3.5t52 12.5t40 28.5t16.5 50.5q0 41 -31 60t-65 19q-16 0 -34 -6t-36 -6q-27 0 -27 21q0 6 10.5 25.5t25 42t27.5 42t17 29.5h47l-61 -104q16 4 32.5 7t32.5 3q66 0 109 -34t43 -103 q0 -41 -18.5 -68t-46 -44t-63.5 -24.5t-69 -7.5q-43 0 -91 8.5t-88 19.5t-65.5 25.5t-25.5 26.5zM10 231q0 74 32 137.5t84 108.5t119.5 70.5t141.5 25.5q59 0 93 -8t67 -8q23 0 35 8t26 8q20 0 26.5 -29.5t6.5 -49.5q0 -45 -30.5 -84t-80.5 -39q-23 0 -48 7t-25 30 q0 10 8 15t18 5q14 0 33 21.5t19 44.5q0 25 -26 34t-101 9q-53 0 -103.5 -25t-90.5 -64.5t-64.5 -91t-24.5 -102.5q0 -35 11 -69.5t32.5 -63.5t51.5 -46.5t69 -17.5q55 0 101 26t79 55.5t53.5 55t24.5 25.5t8 -2t4 -8q0 -18 -18.5 -37.5t-65.5 -69.5q-51 -53 -102 -77.5 t-129 -24.5q-104 0 -169 63.5t-65 167.5z" />
<glyph unicode="&#xe8;" d="M14 223q0 82 52.5 150.5t130 118t167 76t162.5 26.5q39 0 70 -20.5t31 -67.5q0 -23 -11.5 -50.5t-30 -56t-43 -56.5t-50.5 -46q-61 -43 -129 -59.5t-134 -16.5q-20 0 -42.5 2t-41.5 6q0 -37 16.5 -67.5t42 -54t57.5 -37t61 -13.5q66 0 111.5 19.5t68.5 36.5 q14 10 23.5 18t19.5 8t10 -12q0 -10 -16.5 -25.5t-37 -29t-40 -24.5t-25.5 -13q-49 -25 -89 -30t-89 -5t-94 15.5t-78 44t-52.5 69.5t-19.5 94zM141 268q16 -2 32.5 -6t35.5 -4q61 0 109.5 16.5t87.5 47.5q43 35 74.5 76.5t31.5 82.5q0 37 -28.5 46.5t-59.5 9.5 q-43 0 -93 -25t-92 -62.5t-70 -86t-28 -95.5zM246 963q0 23 16.5 40t32.5 17q33 0 50 -20.5t26.5 -48t15.5 -58.5t16 -51q20 -45 48 -75t52.5 -49.5t41 -30.5t16.5 -17q0 -14 -14 -15q-12 0 -61.5 28t-102.5 71t-95 98.5t-42 110.5z" />
<glyph unicode="&#xe9;" d="M14 223q0 82 52.5 150.5t130 118t167 76t162.5 26.5q39 0 70 -20.5t31 -67.5q0 -23 -11.5 -50.5t-30 -56t-43 -56.5t-50.5 -46q-61 -43 -129 -59.5t-134 -16.5q-20 0 -42.5 2t-41.5 6q0 -37 16.5 -67.5t42 -54t57.5 -37t61 -13.5q66 0 111.5 19.5t68.5 36.5 q14 10 23.5 18t19.5 8t10 -12q0 -10 -16.5 -25.5t-37 -29t-40 -24.5t-25.5 -13q-49 -25 -89 -30t-89 -5t-94 15.5t-78 44t-52.5 69.5t-19.5 94zM141 268q16 -2 32.5 -6t35.5 -4q61 0 109.5 16.5t87.5 47.5q43 35 74.5 76.5t31.5 82.5q0 37 -28.5 46.5t-59.5 9.5 q-43 0 -93 -25t-92 -62.5t-70 -86t-28 -95.5zM381 670q0 6 16.5 17t41 30.5t51 49.5t49.5 75q10 20 16 51t15.5 58.5t26.5 48t50 20.5q16 0 32.5 -17t16.5 -40q0 -55 -42 -110.5t-95 -98.5t-102 -71t-62 -28q-14 0 -14 15z" />
<glyph unicode="&#xea;" d="M14 223q0 82 52.5 150.5t130 118t167 76t162.5 26.5q39 0 70 -20.5t31 -67.5q0 -23 -11.5 -50.5t-30 -56t-43 -56.5t-50.5 -46q-61 -43 -129 -59.5t-134 -16.5q-20 0 -42.5 2t-41.5 6q0 -37 16.5 -67.5t42 -54t57.5 -37t61 -13.5q66 0 111.5 19.5t68.5 36.5 q14 10 23.5 18t19.5 8t10 -12q0 -10 -16.5 -25.5t-37 -29t-40 -24.5t-25.5 -13q-49 -25 -89 -30t-89 -5t-94 15.5t-78 44t-52.5 69.5t-19.5 94zM141 268q16 -2 32.5 -6t35.5 -4q61 0 109.5 16.5t87.5 47.5q43 35 74.5 76.5t31.5 82.5q0 37 -28.5 46.5t-59.5 9.5 q-43 0 -93 -25t-92 -62.5t-70 -86t-28 -95.5zM170 670q0 10 23.5 27.5t31.5 23.5q45 37 90 81t82 83t61.5 68.5t28.5 39.5q10 23 31 23q14 0 21.5 -8.5t11.5 -38.5q4 -41 25.5 -92.5t46 -95.5t44 -75.5t19.5 -33.5q0 -16 -18 -17q-16 0 -43 28t-52.5 64.5t-45 72.5t-25.5 52 q-12 -16 -59.5 -52t-100.5 -71.5t-99 -62.5t-59 -27q-14 0 -14 11z" />
<glyph unicode="&#xeb;" d="M14 223q0 82 52.5 150.5t130 118t167 76t162.5 26.5q39 0 70 -20.5t31 -67.5q0 -23 -11.5 -50.5t-30 -56t-43 -56.5t-50.5 -46q-61 -43 -129 -59.5t-134 -16.5q-20 0 -42.5 2t-41.5 6q0 -37 16.5 -67.5t42 -54t57.5 -37t61 -13.5q66 0 111.5 19.5t68.5 36.5 q14 10 23.5 18t19.5 8t10 -12q0 -10 -16.5 -25.5t-37 -29t-40 -24.5t-25.5 -13q-49 -25 -89 -30t-89 -5t-94 15.5t-78 44t-52.5 69.5t-19.5 94zM141 268q16 -2 32.5 -6t35.5 -4q61 0 109.5 16.5t87.5 47.5q43 35 74.5 76.5t31.5 82.5q0 37 -28.5 46.5t-59.5 9.5 q-43 0 -93 -25t-92 -62.5t-70 -86t-28 -95.5zM236 745q0 29 19 51.5t50 22.5t50.5 -22.5t19.5 -51.5t-19.5 -51t-50.5 -22t-50 22.5t-19 50.5zM567 745q0 29 19.5 51.5t50.5 22.5t50.5 -22.5t19.5 -51.5t-19.5 -51t-50.5 -22t-50.5 22.5t-19.5 50.5z" />
<glyph unicode="&#xec;" horiz-adv-x="454" d="M-76 14q0 10 15.5 16.5t40.5 6.5q20 0 49.5 42t63.5 104.5t71 133t74 129.5q-27 -4 -59 -14t-50 -10q-10 0 -10 10q0 14 18 23q16 6 56 23.5t83 35.5t78 32.5t41 14.5q16 0 17 -18q0 -8 -4.5 -13.5t-8.5 -13.5q-106 -193 -168.5 -299t-62.5 -129q0 -18 11 -34.5t32 -16.5 q10 0 17.5 5t17.5 5q14 0 14 -8q0 -14 -10 -21.5t-24.5 -11.5t-30 -5t-25.5 -1q-27 0 -52.5 4t-51.5 4q-23 0 -47.5 -4t-49.5 -4q-29 0 -37 1t-8 13zM166 963q0 23 16.5 40t32.5 17q33 0 50.5 -20.5t26.5 -48t15 -58.5t17 -51q20 -45 47.5 -75t52.5 -49.5t41 -30.5t16 -17 q0 -14 -14 -15q-12 0 -61.5 28t-102.5 71t-95 98.5t-42 110.5z" />
<glyph unicode="&#xed;" horiz-adv-x="454" d="M-76 14q0 10 15.5 16.5t40.5 6.5q20 0 49.5 42t63.5 104.5t71 133t74 129.5q-27 -4 -59 -14t-50 -10q-10 0 -10 10q0 14 18 23q16 6 56 23.5t83 35.5t78 32.5t41 14.5q16 0 17 -18q0 -8 -4.5 -13.5t-8.5 -13.5q-106 -193 -168.5 -299t-62.5 -129q0 -18 11 -34.5t32 -16.5 q10 0 17.5 5t17.5 5q14 0 14 -8q0 -14 -10 -21.5t-24.5 -11.5t-30 -5t-25.5 -1q-27 0 -52.5 4t-51.5 4q-23 0 -47.5 -4t-49.5 -4q-29 0 -37 1t-8 13zM301 670q0 6 16.5 17t41 30.5t51 49.5t49.5 75q10 20 16 51t15.5 58.5t27 48t49.5 20.5q16 0 32.5 -17t16.5 -40 q0 -55 -42 -110.5t-95 -98.5t-102 -71t-62 -28q-14 0 -14 15z" />
<glyph unicode="&#xee;" horiz-adv-x="454" d="M-76 14q0 10 15.5 16.5t40.5 6.5q20 0 49.5 42t63.5 104.5t71 133t74 129.5q-27 -4 -59 -14t-50 -10q-10 0 -10 10q0 14 18 23q16 6 56 23.5t83 35.5t78 32.5t41 14.5q16 0 17 -18q0 -8 -4.5 -13.5t-8.5 -13.5q-106 -193 -168.5 -299t-62.5 -129q0 -18 11 -34.5t32 -16.5 q10 0 17.5 5t17.5 5q14 0 14 -8q0 -14 -10 -21.5t-24.5 -11.5t-30 -5t-25.5 -1q-27 0 -52.5 4t-51.5 4q-23 0 -47.5 -4t-49.5 -4q-29 0 -37 1t-8 13zM90 670q0 10 23.5 27.5t31.5 23.5q45 37 90.5 81t82 83t61 68.5t29.5 39.5q10 23 30 23q14 0 21.5 -8.5t11.5 -38.5 q4 -41 25.5 -92.5t46 -95.5t44 -75.5t19.5 -33.5q0 -16 -18 -17q-16 0 -43 28t-52.5 64.5t-45 72.5t-25.5 52q-12 -16 -59.5 -52t-100.5 -71.5t-99 -62.5t-59 -27q-14 0 -14 11z" />
<glyph unicode="&#xef;" horiz-adv-x="454" d="M-76 14q0 10 15.5 16.5t40.5 6.5q20 0 49.5 42t63.5 104.5t71 133t74 129.5q-27 -4 -59 -14t-50 -10q-10 0 -10 10q0 14 18 23q16 6 56 23.5t83 35.5t78 32.5t41 14.5q16 0 17 -18q0 -8 -4.5 -13.5t-8.5 -13.5q-106 -193 -168.5 -299t-62.5 -129q0 -18 11 -34.5t32 -16.5 q10 0 17.5 5t17.5 5q14 0 14 -8q0 -14 -10 -21.5t-24.5 -11.5t-30 -5t-25.5 -1q-27 0 -52.5 4t-51.5 4q-23 0 -47.5 -4t-49.5 -4q-29 0 -37 1t-8 13zM156 745q0 29 19 51.5t50 22.5t50.5 -22.5t19.5 -51.5t-19.5 -51t-50.5 -22t-50 22.5t-19 50.5zM487 745q0 29 19.5 51.5 t50.5 22.5t50.5 -22.5t19.5 -51.5t-19.5 -51t-50.5 -22t-50.5 22.5t-19.5 50.5z" />
<glyph unicode="&#xf0;" d="M8 205q0 88 37 154.5t94.5 111.5t123 67.5t124.5 22.5q53 0 89 -19.5t46 -66.5h4q10 82 -11 191.5t-97 234.5l-172 -90q-4 -4 -11.5 -7t-13.5 -3q-16 0 -16 16q0 13 12 21l182 94q-41 61 -96 123.5t-127 124.5q-10 10 -10 14q0 10 10 10q6 0 12.5 -6t14.5 -10 q143 -100 239 -234l183 97q4 4 13 8t15 4q14 0 15 -16q0 -14 -11 -19l-192 -102q72 -102 111.5 -211t39.5 -215q0 -78 -29.5 -166t-82.5 -162t-126 -123t-161 -49q-53 0 -92 17.5t-64.5 46t-39 65.5t-13.5 76zM94 156q0 -51 23.5 -85t93.5 -34q55 0 109.5 39t96.5 95 t67.5 120.5t25.5 114.5q0 51 -23.5 84.5t-93.5 33.5q-55 0 -109.5 -39t-96.5 -95t-67.5 -120.5t-25.5 -113.5z" />
<glyph unicode="&#xf1;" horiz-adv-x="796" d="M-98 8q0 8 11 18.5t28 10.5q33 0 52 19.5t32 43.5q51 94 97 186.5t95 186.5q-25 -4 -55.5 -14t-52.5 -10q-10 0 -11 10q0 6 17.5 15t46 19.5t66.5 23.5t79 30q12 4 22.5 9t18.5 5q12 0 12 -14q0 -12 -10 -32.5t-14 -39.5q18 14 46 30.5t59.5 32t63.5 25.5t54 10 q66 0 107 -33.5t41 -101.5q0 -63 -34 -123.5t-76 -109.5t-76 -82t-34 -41q0 -14 17.5 -19.5t42.5 -5.5q23 0 37 7.5t24 7.5q16 0 17 -9q0 -18 -28 -40.5t-71 -22.5q-27 0 -48 4t-42 4q-14 0 -23.5 -4t-19.5 -4q-23 0 -22 12q0 14 15 30.5t32 33.5q23 23 53.5 63.5t57 90 t45 100.5t18.5 94q0 45 -17.5 68.5t-64.5 23.5q-53 0 -100.5 -31.5t-87 -78t-70.5 -98.5t-53 -93q-8 -14 -19.5 -34.5t-23 -42t-18.5 -42t-7 -37.5q0 -23 23 -22q18 0 31.5 17.5t23.5 17.5q14 0 14 -17q0 -10 -12 -19t-27.5 -17.5t-32 -13.5t-22.5 -5q-41 0 -63.5 4t-34.5 4 q-18 0 -47 -4t-54 -4q-10 0 -19 1t-9 7zM219 674q0 10 7 39.5t24.5 61.5t46.5 56.5t70 24.5q35 0 68.5 -11t66.5 -28q33 -16 61.5 -27.5t52.5 -11.5q45 0 70 16.5t38 36t20.5 36t19.5 16.5q4 0 8 -5.5t4 -23.5q0 -29 -14 -58.5t-38 -54t-53.5 -41t-60.5 -16.5 q-35 0 -66.5 11.5t-60.5 27.5t-59.5 27.5t-67.5 11.5q-33 0 -53 -17.5t-33.5 -37t-21 -37t-15.5 -17.5q-14 0 -14 21z" />
<glyph unicode="&#xf2;" d="M8 205q0 88 37 154.5t94.5 111.5t123 67.5t124.5 22.5q51 0 91 -17.5t65.5 -46t39 -65.5t13.5 -76q0 -96 -37 -163.5t-94 -110.5t-124 -62.5t-124 -19.5q-53 0 -92 17.5t-64.5 46t-39 65.5t-13.5 76zM94 156q0 -51 23.5 -85t93.5 -34q55 0 109.5 39t96.5 95t67.5 120.5 t25.5 114.5q0 51 -23.5 84.5t-93.5 33.5q-55 0 -109.5 -39t-96.5 -95t-67.5 -120.5t-25.5 -113.5zM221 963q0 23 16.5 40t32.5 17q33 0 50.5 -20.5t26.5 -48t15.5 -58.5t16.5 -51q20 -45 48 -75t52.5 -49.5t41 -30.5t16.5 -17q0 -14 -15 -15q-12 0 -61 28t-102.5 71 t-95.5 98.5t-42 110.5z" />
<glyph unicode="&#xf3;" d="M8 205q0 88 37 154.5t94.5 111.5t123 67.5t124.5 22.5q51 0 91 -17.5t65.5 -46t39 -65.5t13.5 -76q0 -96 -37 -163.5t-94 -110.5t-124 -62.5t-124 -19.5q-53 0 -92 17.5t-64.5 46t-39 65.5t-13.5 76zM94 156q0 -51 23.5 -85t93.5 -34q55 0 109.5 39t96.5 95t67.5 120.5 t25.5 114.5q0 51 -23.5 84.5t-93.5 33.5q-55 0 -109.5 -39t-96.5 -95t-67.5 -120.5t-25.5 -113.5zM356 670q0 6 16.5 17t41 30.5t51.5 49.5t49 75q10 20 16.5 51t15.5 58.5t26.5 48t50.5 20.5q16 0 32.5 -17t16.5 -40q0 -55 -42 -110.5t-95.5 -98.5t-102.5 -71t-61 -28 q-14 0 -15 15z" />
<glyph unicode="&#xf4;" d="M8 205q0 88 37 154.5t94.5 111.5t123 67.5t124.5 22.5q51 0 91 -17.5t65.5 -46t39 -65.5t13.5 -76q0 -96 -37 -163.5t-94 -110.5t-124 -62.5t-124 -19.5q-53 0 -92 17.5t-64.5 46t-39 65.5t-13.5 76zM94 156q0 -51 23.5 -85t93.5 -34q55 0 109.5 39t96.5 95t67.5 120.5 t25.5 114.5q0 51 -23.5 84.5t-93.5 33.5q-55 0 -109.5 -39t-96.5 -95t-67.5 -120.5t-25.5 -113.5zM145 670q0 10 24 27.5t32 23.5q45 37 90 81t82 83t61.5 68.5t28.5 39.5q10 23 31 23q14 0 21 -8.5t11 -38.5q4 -41 25.5 -92.5t46.5 -95.5t44.5 -75.5t19.5 -33.5 q0 -16 -19 -17q-16 0 -43 28t-52.5 64.5t-45 72.5t-25.5 52q-12 -16 -59 -52t-100.5 -71.5t-99.5 -62.5t-58 -27q-14 0 -15 11z" />
<glyph unicode="&#xf5;" d="M8 205q0 88 37 154.5t94.5 111.5t123 67.5t124.5 22.5q51 0 91 -17.5t65.5 -46t39 -65.5t13.5 -76q0 -96 -37 -163.5t-94 -110.5t-124 -62.5t-124 -19.5q-53 0 -92 17.5t-64.5 46t-39 65.5t-13.5 76zM94 156q0 -51 23.5 -85t93.5 -34q55 0 109.5 39t96.5 95t67.5 120.5 t25.5 114.5q0 51 -23.5 84.5t-93.5 33.5q-55 0 -109.5 -39t-96.5 -95t-67.5 -120.5t-25.5 -113.5zM162 674q0 10 7 39.5t24.5 61.5t46 56.5t69.5 24.5q35 0 69 -11t66 -28q33 -16 62 -27.5t53 -11.5q45 0 69.5 16.5t38 36t20.5 36t20 16.5q4 0 8 -5.5t4 -23.5 q0 -29 -14.5 -58.5t-38 -54t-53 -41t-60.5 -16.5q-35 0 -66.5 11.5t-60.5 27.5t-59.5 27.5t-67.5 11.5q-33 0 -53.5 -17.5t-33.5 -37t-20.5 -37t-15.5 -17.5q-14 0 -14 21z" />
<glyph unicode="&#xf6;" d="M8 205q0 88 37 154.5t94.5 111.5t123 67.5t124.5 22.5q51 0 91 -17.5t65.5 -46t39 -65.5t13.5 -76q0 -96 -37 -163.5t-94 -110.5t-124 -62.5t-124 -19.5q-53 0 -92 17.5t-64.5 46t-39 65.5t-13.5 76zM94 156q0 -51 23.5 -85t93.5 -34q55 0 109.5 39t96.5 95t67.5 120.5 t25.5 114.5q0 51 -23.5 84.5t-93.5 33.5q-55 0 -109.5 -39t-96.5 -95t-67.5 -120.5t-25.5 -113.5zM211 745q0 29 19.5 51.5t50.5 22.5t50 -22.5t19 -51.5t-19.5 -51t-49.5 -22q-31 0 -50.5 22.5t-19.5 50.5zM543 745q0 29 19 51.5t50 22.5t50.5 -22.5t19.5 -51.5t-19.5 -51 t-50.5 -22t-50 22.5t-19 50.5z" />
<glyph unicode="&#xf7;" horiz-adv-x="1228" d="M317 270v54h594v-54h-594zM549 53q0 27 19 46.5t46 19.5t46.5 -19.5t19.5 -46.5t-19.5 -46t-46.5 -19t-46 19.5t-19 45.5zM549 541q0 27 19 46t46 19t46.5 -19.5t19.5 -45.5q0 -27 -19.5 -46.5t-46.5 -19.5t-46 19.5t-19 46.5z" />
<glyph unicode="&#xf8;" d="M8 205q0 88 37 154.5t94.5 111.5t123 67.5t124.5 22.5q19 0 25 -4l118 254h48l-123 -260q72 -23 106.5 -77t34.5 -118q0 -96 -37 -163.5t-94 -110.5t-124 -62.5t-124 -19.5q-16 0 -22 4l-129 -274h-48l134 280q-72 20 -108 75.5t-36 119.5zM94 156q0 -41 15.5 -72 t58.5 -41l227 481h-2q-55 0 -109.5 -39t-96.5 -95t-67.5 -120.5t-25.5 -113.5zM211 37q55 0 109.5 39t96.5 95t67.5 120.5t25.5 114.5q0 41 -15.5 71.5t-56.5 40.5z" />
<glyph unicode="&#xf9;" horiz-adv-x="796" d="M33 137q0 45 16.5 87t41 84t51 81t44.5 78q-6 0 -19 -5t-28.5 -10.5t-30 -9.5t-22.5 -4q-10 0 -10 17q0 6 38 21.5t83 32.5t83.5 30.5t41.5 13.5q14 0 14 -14t-31 -64.5t-67.5 -112t-67.5 -123t-31 -94.5q0 -49 19.5 -78.5t60.5 -29.5q53 0 91 17.5t67 46t52.5 68.5 t47.5 83q29 51 57.5 107.5t59.5 109.5q-10 -2 -38 -9t-38 -7t-10 12q0 4 29.5 18.5t66.5 29.5t72 27.5t45 12.5q16 0 16 -10q0 -6 -5 -13.5t-9 -17.5q-12 -31 -47 -95.5t-71 -133t-64.5 -128t-28.5 -79.5q0 -27 13.5 -33t31.5 -6q8 0 15.5 2t15.5 2q16 0 16 -12 q0 -10 -17.5 -19.5t-39.5 -9.5q-47 0 -71.5 6t-53.5 6q-18 0 -29.5 -6t-25.5 -6q-10 0 -11 10q0 10 7.5 21.5t13.5 21.5l-4 4q-45 -31 -84 -44t-96 -13q-66 0 -113 33t-47 104zM279 963q0 23 16 40t33 17q33 0 50 -20.5t26.5 -48t15.5 -58.5t16 -51q20 -45 48 -75 t52.5 -49.5t41 -30.5t16.5 -17q0 -14 -14 -15q-12 0 -61.5 28t-103 71t-95 98.5t-41.5 110.5z" />
<glyph unicode="&#xfa;" horiz-adv-x="796" d="M33 137q0 45 16.5 87t41 84t51 81t44.5 78q-6 0 -19 -5t-28.5 -10.5t-30 -9.5t-22.5 -4q-10 0 -10 17q0 6 38 21.5t83 32.5t83.5 30.5t41.5 13.5q14 0 14 -14t-31 -64.5t-67.5 -112t-67.5 -123t-31 -94.5q0 -49 19.5 -78.5t60.5 -29.5q53 0 91 17.5t67 46t52.5 68.5 t47.5 83q29 51 57.5 107.5t59.5 109.5q-10 -2 -38 -9t-38 -7t-10 12q0 4 29.5 18.5t66.5 29.5t72 27.5t45 12.5q16 0 16 -10q0 -6 -5 -13.5t-9 -17.5q-12 -31 -47 -95.5t-71 -133t-64.5 -128t-28.5 -79.5q0 -27 13.5 -33t31.5 -6q8 0 15.5 2t15.5 2q16 0 16 -12 q0 -10 -17.5 -19.5t-39.5 -9.5q-47 0 -71.5 6t-53.5 6q-18 0 -29.5 -6t-25.5 -6q-10 0 -11 10q0 10 7.5 21.5t13.5 21.5l-4 4q-45 -31 -84 -44t-96 -13q-66 0 -113 33t-47 104zM414 670q0 6 16 17t41 30.5t51.5 49.5t48.5 75q10 20 16.5 51t15.5 58.5t26.5 48t50.5 20.5 q16 0 32.5 -17t16.5 -40q0 -55 -42 -110.5t-95 -98.5t-102.5 -71t-61.5 -28q-14 0 -14 15z" />
<glyph unicode="&#xfb;" horiz-adv-x="796" d="M33 137q0 45 16.5 87t41 84t51 81t44.5 78q-6 0 -19 -5t-28.5 -10.5t-30 -9.5t-22.5 -4q-10 0 -10 17q0 6 38 21.5t83 32.5t83.5 30.5t41.5 13.5q14 0 14 -14t-31 -64.5t-67.5 -112t-67.5 -123t-31 -94.5q0 -49 19.5 -78.5t60.5 -29.5q53 0 91 17.5t67 46t52.5 68.5 t47.5 83q29 51 57.5 107.5t59.5 109.5q-10 -2 -38 -9t-38 -7t-10 12q0 4 29.5 18.5t66.5 29.5t72 27.5t45 12.5q16 0 16 -10q0 -6 -5 -13.5t-9 -17.5q-12 -31 -47 -95.5t-71 -133t-64.5 -128t-28.5 -79.5q0 -27 13.5 -33t31.5 -6q8 0 15.5 2t15.5 2q16 0 16 -12 q0 -10 -17.5 -19.5t-39.5 -9.5q-47 0 -71.5 6t-53.5 6q-18 0 -29.5 -6t-25.5 -6q-10 0 -11 10q0 10 7.5 21.5t13.5 21.5l-4 4q-45 -31 -84 -44t-96 -13q-66 0 -113 33t-47 104zM203 670q0 10 23.5 27.5t31.5 23.5q45 37 90 81t82 83t61.5 68.5t28.5 39.5q10 23 31 23 q14 0 21.5 -8.5t11.5 -38.5q4 -41 25.5 -92.5t46 -95.5t44 -75.5t19.5 -33.5q0 -16 -19 -17q-16 0 -42.5 28t-52 64.5t-45 72.5t-25.5 52q-12 -16 -59.5 -52t-100.5 -71.5t-99.5 -62.5t-58.5 -27q-14 0 -14 11z" />
<glyph unicode="&#xfc;" horiz-adv-x="796" d="M33 137q0 45 16.5 87t41 84t51 81t44.5 78q-6 0 -19 -5t-28.5 -10.5t-30 -9.5t-22.5 -4q-10 0 -10 17q0 6 38 21.5t83 32.5t83.5 30.5t41.5 13.5q14 0 14 -14t-31 -64.5t-67.5 -112t-67.5 -123t-31 -94.5q0 -49 19.5 -78.5t60.5 -29.5q53 0 91 17.5t67 46t52.5 68.5 t47.5 83q29 51 57.5 107.5t59.5 109.5q-10 -2 -38 -9t-38 -7t-10 12q0 4 29.5 18.5t66.5 29.5t72 27.5t45 12.5q16 0 16 -10q0 -6 -5 -13.5t-9 -17.5q-12 -31 -47 -95.5t-71 -133t-64.5 -128t-28.5 -79.5q0 -27 13.5 -33t31.5 -6q8 0 15.5 2t15.5 2q16 0 16 -12 q0 -10 -17.5 -19.5t-39.5 -9.5q-47 0 -71.5 6t-53.5 6q-18 0 -29.5 -6t-25.5 -6q-10 0 -11 10q0 10 7.5 21.5t13.5 21.5l-4 4q-45 -31 -84 -44t-96 -13q-66 0 -113 33t-47 104zM268 745q0 29 19.5 51.5t50.5 22.5t50.5 -22.5t19.5 -51.5t-19.5 -51t-50.5 -22t-50.5 22.5 t-19.5 50.5zM600 745q0 29 19.5 51.5t50.5 22.5t50 -22.5t19 -51.5t-19.5 -51t-49.5 -22q-31 0 -50.5 22.5t-19.5 50.5z" />
<glyph unicode="&#xfd;" horiz-adv-x="796" d="M-342 -465q0 12 10 12q6 0 13.5 -15t22.5 -32.5t43 -33t75 -15.5q57 0 117.5 40t119 104.5t113.5 144.5t104.5 158.5t90 148.5t67.5 113h-4q-55 -45 -91 -76t-66.5 -49.5t-61.5 -26.5t-74 -8q-51 0 -79.5 22.5t-28.5 75.5q0 45 18.5 92.5t46 93.5t58 89t53.5 80 q-23 -4 -49.5 -17.5t-42.5 -13.5q-12 0 -13 10q0 10 18.5 22.5t90.5 39.5q20 8 42.5 18t44 20.5t39 17.5t27.5 7q14 0 15 -10q0 -6 -17.5 -36t-45 -72t-58.5 -91t-58.5 -97t-45 -89t-17.5 -66q0 -23 12.5 -41t36.5 -18q39 0 95.5 40t118 99.5t124 129t114.5 129t88 99 t44 39.5q14 0 14 -10t-20.5 -35.5t-52 -70.5t-72.5 -111.5t-82 -159.5q-31 -70 -75 -153.5t-97 -169.5t-116.5 -167t-135.5 -143.5t-150.5 -100.5t-162.5 -38q-29 0 -57.5 11.5t-51 28t-37 38t-14.5 43.5zM414 670q0 6 16 17t41 30.5t51.5 49.5t48.5 75q10 20 16.5 51 t15.5 58.5t26.5 48t50.5 20.5q16 0 32.5 -17t16.5 -40q0 -55 -42 -110.5t-95 -98.5t-102.5 -71t-61.5 -28q-14 0 -14 15z" />
<glyph unicode="&#xfe;" horiz-adv-x="796" d="M-303 -436q0 6 13.5 16t23.5 21q47 37 85 84t68.5 101t57 112.5t49.5 117.5q29 74 64.5 162t73.5 178t74 175t65.5 156t51 119t29.5 62q25 49 54.5 107.5t66.5 110t81 85t99 33.5q20 0 43 -7t41.5 -19.5t30.5 -28.5t12 -35q0 -16 -12 -16q-10 0 -15 14t-10 18 q-16 20 -38.5 28.5t-49.5 8.5q-41 0 -74.5 -34.5t-58 -80.5t-40 -92.5t-23.5 -68.5q-23 -68 -51.5 -145.5t-59.5 -157.5q-8 -18 -14 -37t-17 -37q8 2 31 12.5t50.5 20.5t55 18t46.5 8q47 0 84 -18t62.5 -49t38.5 -71t13 -85q0 -68 -31.5 -130t-84 -111.5t-117 -79 t-129.5 -29.5q-66 0 -111 16.5t-80 73.5q-37 -90 -84 -171t-99 -147.5t-108.5 -118.5t-111.5 -85q-25 -16 -35 -17q-10 0 -10 13zM182 135q0 -27 12.5 -45t31 -30.5t42 -17.5t45.5 -5q55 0 104.5 42t86.5 102.5t58.5 127t21.5 113.5q0 53 -23.5 84t-77.5 31q-39 0 -76.5 -24 t-70.5 -61.5t-61.5 -83.5t-49 -91.5t-32 -83t-11.5 -58.5z" />
<glyph unicode="&#xff;" horiz-adv-x="796" d="M-342 -465q0 12 10 12q6 0 13.5 -15t22.5 -32.5t43 -33t75 -15.5q57 0 117.5 40t119 104.5t113.5 144.5t104.5 158.5t90 148.5t67.5 113h-4q-55 -45 -91 -76t-66.5 -49.5t-61.5 -26.5t-74 -8q-51 0 -79.5 22.5t-28.5 75.5q0 45 18.5 92.5t46 93.5t58 89t53.5 80 q-23 -4 -49.5 -17.5t-42.5 -13.5q-12 0 -13 10q0 10 18.5 22.5t90.5 39.5q20 8 42.5 18t44 20.5t39 17.5t27.5 7q14 0 15 -10q0 -6 -17.5 -36t-45 -72t-58.5 -91t-58.5 -97t-45 -89t-17.5 -66q0 -23 12.5 -41t36.5 -18q39 0 95.5 40t118 99.5t124 129t114.5 129t88 99 t44 39.5q14 0 14 -10t-20.5 -35.5t-52 -70.5t-72.5 -111.5t-82 -159.5q-31 -70 -75 -153.5t-97 -169.5t-116.5 -167t-135.5 -143.5t-150.5 -100.5t-162.5 -38q-29 0 -57.5 11.5t-51 28t-37 38t-14.5 43.5zM268 745q0 29 19.5 51.5t50.5 22.5t50.5 -22.5t19.5 -51.5 t-19.5 -51t-50.5 -22t-50.5 22.5t-19.5 50.5zM600 745q0 29 19.5 51.5t50.5 22.5t50 -22.5t19 -51.5t-19.5 -51t-49.5 -22q-31 0 -50.5 22.5t-19.5 50.5z" />
<glyph unicode="&#x152;" horiz-adv-x="1820" d="M90 459q0 135 49 262t121 244q14 23 49 64.5t74 83.5t76 73t55 31q4 0 8 -4.5t4 -8.5q0 -10 -28.5 -37.5t-46.5 -50.5q-55 -70 -102.5 -157t-81.5 -184t-52 -199.5t-18 -200.5q0 -74 18 -135.5t52 -106.5t83 -70.5t113 -25.5q59 0 119.5 25.5t114 65.5t98.5 90t73 97 q-4 10 -6 15.5t-2 15.5q0 94 33 161.5t78 115t91 75t75 41.5q72 35 121 46.5t49 15.5q0 6 -10.5 10t-27 7t-36 8t-37.5 16q-121 66 -121 168q0 12 3 24.5t3 24.5q0 25 -18.5 54.5t-51 54t-75.5 41t-94 16.5q-66 0 -128.5 -25.5t-113.5 -67.5t-89 -97.5t-56 -112.5 q-10 -31 -27 -31q-10 0 -10 27q0 25 28.5 82t84 115.5t136.5 102.5t187 44q82 0 149.5 -40t106.5 -112q31 43 74 72.5t92 47t101.5 25t103.5 7.5q45 0 96 -8.5t95 -30t73 -57.5t29 -91q0 -66 -48.5 -99.5t-107.5 -33.5q-23 0 -45.5 8t-43 22.5t-32.5 34t-12 40.5q0 10 8 10 q4 0 11 -9.5t18.5 -19.5t29 -19.5t41.5 -9.5q51 0 73 25t22 74q0 37 -19.5 60.5t-49.5 38.5t-64.5 21.5t-67.5 6.5q-43 0 -96.5 -16.5t-99.5 -46t-77.5 -70.5t-31.5 -88q0 -59 25.5 -89t55 -46.5t55 -30t25.5 -37.5q0 -25 -21.5 -33t-41.5 -16q-61 -27 -115.5 -65t-94.5 -87 t-63.5 -108.5t-23.5 -129.5q0 -68 22.5 -127t64.5 -103t99.5 -69.5t126.5 -25.5q82 0 171 30.5t163 86t121 133.5t47 172q0 53 -9 72.5t-9 31.5q0 14 14 15q8 0 15.5 -13.5t13.5 -32t9 -37t3 -26.5q0 -104 -49 -190t-131 -148.5t-188.5 -96.5t-219.5 -34q-49 0 -98 12.5 t-94 36t-81 58t-61 77.5q-49 -37 -97 -69.5t-100 -58t-108.5 -41t-120.5 -15.5q-96 0 -170.5 38t-125 102.5t-76 146.5t-25.5 172z" />
<glyph unicode="&#x153;" horiz-adv-x="1138" d="M18 236q0 66 35 130t88.5 114t120 82t129.5 32q68 0 122 -35t77 -100q39 31 87 59.5t100 51t104.5 35.5t101.5 13q41 0 77 -17t36 -66q0 -31 -15.5 -67t-39 -68.5t-50 -61.5t-51.5 -45q-59 -43 -119.5 -54.5t-132.5 -11.5q-23 0 -45 3t-45 8q-4 -37 11.5 -70t42 -57.5 t60 -39t68.5 -14.5q55 0 97.5 14.5t73 32t49 32t24.5 14.5q14 0 14 -15q0 -16 -19.5 -30.5t-29.5 -22.5q-41 -35 -101.5 -58.5t-117.5 -23.5q-45 0 -79 6t-62.5 19.5t-55 36t-57.5 57.5q-37 -29 -69.5 -51.5t-66.5 -38t-73 -22.5t-86 -7q-49 0 -87 18.5t-63.5 51t-39 76 t-13.5 90.5zM104 168q0 -53 27 -92t86 -39q57 0 113.5 41t101.5 101.5t72.5 128t27.5 120.5q0 66 -35.5 97.5t-101.5 31.5q-49 0 -100 -44t-94 -106.5t-70 -129t-27 -109.5zM600 287q18 -4 36.5 -9.5t39.5 -5.5q63 0 111.5 14.5t97.5 55.5q35 31 65.5 74t30.5 90 q0 35 -29.5 51t-52.5 16q-78 0 -209 -106q-57 -47 -73.5 -89t-16.5 -91z" />
<glyph unicode="&#x178;" horiz-adv-x="1251" d="M-27 -147q0 27 5.5 46t15.5 19q12 0 16 -12q4 -8 2 -20.5t-2 -28.5q0 -82 55.5 -137.5t147.5 -55.5q131 0 250 67.5t219 175t181 238.5t139.5 259t91 238t36.5 171h-4q-25 -51 -57.5 -119.5t-74.5 -141.5t-91 -142.5t-106.5 -125t-121 -89t-132.5 -33.5q-70 0 -119 25.5 t-80 68.5t-45 99.5t-14 117.5q0 94 25.5 181t66.5 168t92 157.5t104 148.5l-4 7q-55 -16 -108 -35t-113 -19q-25 0 -59.5 6.5t-67.5 12.5t-60.5 12t-39.5 6q-41 0 -66.5 -20.5t-25.5 -73.5q0 -8 4 -17.5t4 -19.5t-19 -10q-12 0 -19 23.5t-7 46.5q0 41 16.5 70.5t43 49 t61 28.5t71.5 9q39 0 74 -6t68.5 -12t69.5 -12.5t77 -6.5q37 0 65.5 6.5t51.5 12.5q23 8 37 13t22 5q10 0 10 -12q0 -2 -40.5 -55.5t-89 -144.5t-89.5 -213t-41 -259q0 -47 11.5 -97t35 -91t60.5 -68.5t88 -27.5q25 0 55.5 7t59.5 23q41 25 91 79t99 126t95 155t82 161.5 t57.5 148.5t21.5 117q0 53 -10 87t-10 42t7 9t11 1q41 -59 62.5 -142t21.5 -153q0 -90 -20.5 -192.5t-58.5 -208t-91 -212t-121 -202.5t-152.5 -179t-180 -144.5t-192.5 -96.5t-190 -35q-49 0 -96 14.5t-83 43t-57.5 70.5t-21.5 98zM614 1376q0 29 19.5 51.5t50.5 22.5 t50.5 -22.5t19.5 -51.5t-19.5 -51t-50.5 -22t-50.5 22.5t-19.5 50.5zM946 1376q0 29 19.5 51.5t50.5 22.5t50 -22.5t19 -51.5t-19 -51t-50 -22t-50.5 22.5t-19.5 50.5z" />
<glyph unicode="&#x2c6;" horiz-adv-x="454" d="M31 670q0 10 23.5 27.5t31.5 23.5q45 37 90 81t82 83t61.5 68.5t28.5 39.5q10 23 31 23q14 0 21.5 -8.5t11.5 -38.5q4 -41 25.5 -92.5t46 -95.5t44 -75.5t19.5 -33.5q0 -16 -19 -17q-16 0 -42.5 28t-52 64.5t-45.5 72.5t-26 52q-12 -16 -59 -52t-100 -71.5t-99.5 -62.5 t-58.5 -27q-14 0 -14 11z" />
<glyph unicode="&#x2dc;" horiz-adv-x="454" d="M47 674q0 10 7 39.5t24.5 61.5t46.5 56.5t70 24.5q35 0 68.5 -11t66.5 -28q33 -16 61.5 -27.5t52.5 -11.5q45 0 70 16.5t38 36t20.5 36t19.5 16.5q4 0 8 -5.5t4 -23.5q0 -29 -14.5 -58.5t-38 -54t-53 -41t-60.5 -16.5q-35 0 -66.5 11.5t-60.5 27.5t-59.5 27.5t-67.5 11.5 q-33 0 -53 -17.5t-33.5 -37t-21 -37t-15.5 -17.5q-14 0 -14 21z" />
<glyph unicode="&#x2000;" horiz-adv-x="862" />
<glyph unicode="&#x2001;" horiz-adv-x="1724" />
<glyph unicode="&#x2002;" horiz-adv-x="862" />
<glyph unicode="&#x2003;" horiz-adv-x="1724" />
<glyph unicode="&#x2004;" horiz-adv-x="574" />
<glyph unicode="&#x2005;" horiz-adv-x="431" />
<glyph unicode="&#x2006;" horiz-adv-x="287" />
<glyph unicode="&#x2007;" horiz-adv-x="287" />
<glyph unicode="&#x2008;" horiz-adv-x="215" />
<glyph unicode="&#x2009;" horiz-adv-x="344" />
<glyph unicode="&#x200a;" horiz-adv-x="95" />
<glyph unicode="&#x2010;" d="M80 174q0 14 5 43t17.5 55.5t32 47t45.5 20.5q8 0 45 1t78 2t78 2t49 3q18 2 29.5 14.5t18.5 25.5t12.5 24.5t11.5 11.5q12 0 12 -23q0 -10 -5 -30.5t-16.5 -44t-27.5 -42t-41 -24.5q-8 -2 -37 -3t-65.5 -2t-75.5 -1h-68q-25 0 -38 -13.5t-22 -30.5t-14.5 -30.5 t-11.5 -13.5q-2 0 -7 1t-5 7z" />
<glyph unicode="&#x2011;" d="M80 174q0 14 5 43t17.5 55.5t32 47t45.5 20.5q8 0 45 1t78 2t78 2t49 3q18 2 29.5 14.5t18.5 25.5t12.5 24.5t11.5 11.5q12 0 12 -23q0 -10 -5 -30.5t-16.5 -44t-27.5 -42t-41 -24.5q-8 -2 -37 -3t-65.5 -2t-75.5 -1h-68q-25 0 -38 -13.5t-22 -30.5t-14.5 -30.5 t-11.5 -13.5q-2 0 -7 1t-5 7z" />
<glyph unicode="&#x2012;" d="M80 174q0 14 5 43t17.5 55.5t32 47t45.5 20.5q8 0 45 1t78 2t78 2t49 3q18 2 29.5 14.5t18.5 25.5t12.5 24.5t11.5 11.5q12 0 12 -23q0 -10 -5 -30.5t-16.5 -44t-27.5 -42t-41 -24.5q-8 -2 -37 -3t-65.5 -2t-75.5 -1h-68q-25 0 -38 -13.5t-22 -30.5t-14.5 -30.5 t-11.5 -13.5q-2 0 -7 1t-5 7z" />
<glyph unicode="&#x2013;" horiz-adv-x="1024" d="M-16 260l16 74h1024l-16 -74h-1024z" />
<glyph unicode="&#x2014;" horiz-adv-x="2048" d="M-16 260l16 74h2048l-16 -74h-2048z" />
<glyph unicode="&#x2018;" horiz-adv-x="454" d="M170 647q0 59 28.5 119.5t65.5 109t70 78t43 29.5q14 0 14 -14t-26.5 -43t-57.5 -67t-57.5 -82t-26.5 -89q0 -20 13.5 -28.5t35.5 -8.5q25 0 47.5 -18.5t22.5 -44.5q0 -33 -19.5 -52.5t-52.5 -19.5q-51 0 -75.5 43t-24.5 88z" />
<glyph unicode="&#x2019;" horiz-adv-x="454" d="M211 530q0 14 26.5 43t57.5 67t57.5 82t26.5 89q0 20 -13.5 28.5t-35.5 8.5q-25 0 -47.5 18.5t-22.5 44.5q0 33 19.5 52.5t52.5 19.5q51 0 75.5 -43t24.5 -88q0 -59 -28.5 -119.5t-65.5 -109t-71 -78t-42 -29.5q-14 0 -14 14z" />
<glyph unicode="&#x201a;" horiz-adv-x="454" d="M31 -317q0 14 26.5 42.5t57 66.5t57.5 82t27 89q0 20 -13.5 28.5t-35.5 8.5q-25 0 -47.5 18.5t-22.5 44.5q0 33 19.5 52.5t52.5 19.5q51 0 75.5 -43t24.5 -88q0 -59 -28.5 -119.5t-65.5 -108.5t-71 -78t-42 -30q-14 0 -14 15z" />
<glyph unicode="&#x201c;" horiz-adv-x="796" d="M170 647q0 59 28.5 119.5t65.5 109t70 78t43 29.5q14 0 14 -14t-26.5 -43t-57.5 -67t-57.5 -82t-26.5 -89q0 -20 13.5 -28.5t35.5 -8.5q25 0 47.5 -18.5t22.5 -44.5q0 -33 -19.5 -52.5t-52.5 -19.5q-51 0 -75.5 43t-24.5 88zM512 647q0 59 28.5 119.5t65.5 109t70 78 t43 29.5q14 0 14 -14t-26.5 -43t-57.5 -67t-57.5 -82t-26.5 -89q0 -20 13.5 -28.5t35.5 -8.5q25 0 47.5 -18.5t22.5 -44.5q0 -33 -19.5 -52.5t-52.5 -19.5q-51 0 -75.5 43t-24.5 88z" />
<glyph unicode="&#x201d;" horiz-adv-x="796" d="M205 530q0 14 26.5 43t57 67t57.5 82t27 89q0 20 -13.5 28.5t-35.5 8.5q-25 0 -47.5 18.5t-22.5 44.5q0 33 19.5 52.5t52.5 19.5q51 0 75.5 -43t24.5 -88q0 -59 -28.5 -119.5t-65.5 -109t-71 -78t-42 -29.5q-14 0 -14 14zM547 530q0 14 26.5 43t57.5 67t57.5 82t26.5 89 q0 20 -13.5 28.5t-35.5 8.5q-25 0 -47.5 18.5t-22.5 44.5q0 33 19.5 52.5t52.5 19.5q51 0 75.5 -43t24.5 -88q0 -59 -28.5 -119.5t-65.5 -109t-71 -78t-42 -29.5q-14 0 -14 14z" />
<glyph unicode="&#x201e;" horiz-adv-x="796" d="M33 -317q0 14 26.5 42.5t57 66.5t57.5 82t27 89q0 20 -13.5 28.5t-35.5 8.5q-25 0 -47.5 18.5t-22.5 44.5q0 33 19.5 52.5t52.5 19.5q51 0 75.5 -43t24.5 -88q0 -59 -28.5 -119.5t-65.5 -108.5t-71 -78t-42 -30q-14 0 -14 15zM375 -317q0 14 26.5 42.5t57 66.5t57.5 82 t27 89q0 20 -13.5 28.5t-35.5 8.5q-25 0 -47.5 18.5t-22.5 44.5q0 33 19.5 52.5t52.5 19.5q51 0 75.5 -43t24.5 -88q0 -59 -28.5 -119.5t-65.5 -108.5t-71 -78t-42 -30q-14 0 -14 15z" />
<glyph unicode="&#x2022;" horiz-adv-x="1024" d="M197 631q0 66 24.5 123t67.5 100t100 67.5t123 24.5t123 -24.5t100 -67.5t67.5 -100t24.5 -123t-24.5 -123t-67.5 -100t-100 -68t-123 -25t-123 25t-99 68t-67.5 100t-25.5 123z" />
<glyph unicode="&#x2026;" horiz-adv-x="2048" d="M274 68q0 35 20.5 51t47.5 16t47.5 -16.5t20.5 -50.5q0 -35 -20.5 -51.5t-47.5 -16.5t-47.5 16.5t-20.5 51.5zM956 68q0 35 20.5 51t47.5 16t47.5 -16.5t20.5 -50.5q0 -35 -20.5 -51.5t-47.5 -16.5t-47.5 16.5t-20.5 51.5zM1638 68q0 35 20.5 51t47.5 16t47.5 -16.5 t20.5 -50.5q0 -35 -20.5 -51.5t-47.5 -16.5t-47.5 16.5t-20.5 51.5z" />
<glyph unicode="&#x202f;" horiz-adv-x="344" />
<glyph unicode="&#x2039;" horiz-adv-x="454" d="M31 303q39 20 96 62.5t113.5 83t100.5 71.5t54 31q8 0 8 -16q0 -12 -33.5 -48t-76.5 -75t-81 -72t-46 -39q4 -12 21.5 -49t37 -79t34.5 -76t15 -40q0 -10 -4 -12t-8 -2q-6 0 -39 37t-71.5 83t-73.5 88t-47 52z" />
<glyph unicode="&#x203a;" horiz-adv-x="454" d="M47 59q0 12 34 48t77 75t80.5 72t46.5 39q-4 12 -21.5 49t-37 79t-35 75.5t-15.5 40.5q0 10 4 12t8 2q6 0 39 -37t72 -83t74 -88t47 -52q-39 -23 -96.5 -64t-113.5 -82t-100 -71.5t-55 -30.5q-8 0 -8 16z" />
<glyph unicode="&#x205f;" horiz-adv-x="431" />
<glyph unicode="&#x20ac;" horiz-adv-x="808" d="M23 313q0 14 15 22.5t77 10.5q2 59 18 113q-35 0 -55.5 -2t-34.5 -11q-2 6 -2 17q0 6 3 12t14.5 10t33 7.5t55.5 3.5q27 63 74 129q35 55 85 96t108.5 66.5t121 39t123.5 13.5q68 0 106 -35t38 -82q0 -57 -25 -57q-20 0 -20 41q0 39 -34 66.5t-99 27.5 q-59 0 -115.5 -25.5t-104 -68.5t-84 -98.5t-59.5 -112.5h316q43 0 65.5 1t38.5 11q2 -6 2 -16q0 -16 -19.5 -24.5t-99.5 -8.5h-315q-16 -55 -21 -113l248 2q43 0 65.5 1t39.5 11q2 -4 7 -9t5 -9q0 -16 -19.5 -24.5t-99.5 -8.5h-244q2 -61 20.5 -112.5t52.5 -90t84 -60 t118 -21.5q49 0 82 29.5t33 78.5q4 41 22 41q16 0 16 -49q0 -59 -35.5 -98t-136.5 -39q-72 0 -136 23.5t-115.5 65.5t-83 101.5t-35.5 130.5q-35 0 -56.5 -2t-35.5 -10q-2 6 -2 16z" />
<glyph unicode="&#x2122;" horiz-adv-x="2027" d="M90 1081v181h684v-181h-37q-16 59 -45.5 101.5t-95.5 42.5h-107v-635q0 -41 2.5 -62.5t11.5 -33t29.5 -14.5t59.5 -9v-37h-320v37q39 6 59.5 9t30 14.5t11.5 33t2 62.5v635h-107q-66 0 -95.5 -42t-45.5 -102h-37zM868 1225v37h224l329 -660l342 660h191v-37 q-66 -4 -92.5 -35t-26.5 -86v-514q0 -41 2 -62.5t11.5 -33t29.5 -14.5t59 -9v-37h-317v37q37 6 57.5 9t29.5 14.5t11 33t2 62.5v489h-4l-319 -651h-19l-315 645h-4v-473q0 -63 20.5 -92t85.5 -37v-37h-266v37q66 8 86.5 37t20.5 92v524q0 23 -13.5 41.5t-34 31.5t-45 20.5 t-45.5 7.5z" />
<glyph unicode="&#x25fc;" horiz-adv-x="573" d="M0 0v573h573v-573h-573z" />
</font>
</defs>
</svg>
